<?xml version="1.0" encoding="UTF-8"?>
<svg viewBox="0 0 100 100" xmlns="http://www.w3.org/2000/svg">
  <!-- IMAGINARIUM DETAILED - Maximum alchemical complexity -->
  <defs>
    <!-- Well gradients (swirling colors) -->
    <radialGradient id="wellGrad1">
      <stop offset="0%" stop-color="#f8f0ff"/>
      <stop offset="30%" stop-color="#da9ef7"/>
      <stop offset="100%" stop-color="#9b6dd8"/>
    </radialGradient>
    <radialGradient id="wellGrad2">
      <stop offset="0%" stop-color="#e5d4ff"/>
      <stop offset="30%" stop-color="#c6a0f6"/>
      <stop offset="100%" stop-color="#9b6dd8"/>
    </radialGradient>
    <radialGradient id="wellGrad3">
      <stop offset="0%" stop-color="#c8e0ff"/>
      <stop offset="30%" stop-color="#a0c6f6"/>
      <stop offset="100%" stop-color="#5a8dd8"/>
    </radialGradient>

    <!-- Prism body gradient -->
    <linearGradient id="prismBodyGrad" x1="0%" y1="0%" x2="100%" y2="100%">
      <stop offset="0%" stop-color="#f8f0ff" stop-opacity="0.95"/>
      <stop offset="30%" stop-color="#e5d4ff" stop-opacity="0.9"/>
      <stop offset="70%" stop-color="#c6a0f6" stop-opacity="0.85"/>
      <stop offset="100%" stop-color="#9b6dd8" stop-opacity="0.8"/>
    </linearGradient>

    <!-- Inner crystal gradient -->
    <radialGradient id="innerCrystal">
      <stop offset="0%" stop-color="#ffffff" stop-opacity="0.8"/>
      <stop offset="50%" stop-color="#e5d4ff" stop-opacity="0.6"/>
      <stop offset="100%" stop-color="#c6a0f6" stop-opacity="0.4"/>
    </radialGradient>
  </defs>

  <!-- Outermost transformation circle -->
  <circle cx="50" cy="50" r="46" fill="none" stroke="#9b6dd8" stroke-width="0.3" opacity="0.15" stroke-dasharray="3,3"/>
  <circle cx="50" cy="50" r="42" fill="none" stroke="#c6a0f6" stroke-width="0.5" opacity="0.25"/>
  <circle cx="50" cy="50" r="36" fill="none" stroke="#da9ef7" stroke-width="0.5" opacity="0.35"/>

  <!-- Background radial glow -->
  <radialGradient id="atmosphereDeep">
    <stop offset="0%" stop-color="#da9ef7" stop-opacity="0.2"/>
    <stop offset="50%" stop-color="#c6a0f6" stop-opacity="0.1"/>
    <stop offset="100%" stop-color="#4a2d5f" stop-opacity="0"/>
  </radialGradient>
  <circle cx="50" cy="50" r="38" fill="url(#atmosphereDeep)"/>

  <!-- Artist Palette (detailed) -->
  <g transform="translate(50, 70) rotate(12)">
    <ellipse cx="2" cy="2" rx="24" ry="17" fill="#4a2d5f" opacity="0.4"/>
    <ellipse cx="0" cy="0" rx="24" ry="17" fill="#b088e0" opacity="0.95"/>
    <ellipse cx="-5" cy="-4" rx="20" ry="14" fill="none" stroke="#e5d4ff" stroke-width="0.5" opacity="0.3"/>
    <circle cx="-17" cy="0" r="4" fill="#4a2d5f" opacity="0.8"/>

    <!-- 7 color wells with swirling details -->
    <g>
      <circle cx="-10" cy="-7" r="3.5" fill="url(#wellGrad1)"/>
      <circle cx="-10" cy="-7" r="4.5" fill="#da9ef7" opacity="0.2"/>
      <path d="M -11,-7 Q -10,-6 -9,-7" stroke="white" stroke-width="0.3" opacity="0.6"/>

      <circle cx="0" cy="-9" r="3.5" fill="url(#wellGrad2)"/>
      <circle cx="0" cy="-9" r="4.5" fill="#c6a0f6" opacity="0.2"/>
      <path d="M -1,-9 Q 0,-8 1,-9" stroke="white" stroke-width="0.3" opacity="0.6"/>

      <circle cx="10" cy="-7" r="3.5" fill="url(#wellGrad3)"/>
      <circle cx="10" cy="-7" r="4.5" fill="#a0c6f6" opacity="0.2"/>
      <path d="M 9,-7 Q 10,-6 11,-7" stroke="white" stroke-width="0.3" opacity="0.6"/>

      <circle cx="-7" cy="0" r="3.5" fill="#d0a0f6"/>
      <circle cx="-7" cy="0" r="4.5" fill="#d0a0f6" opacity="0.2"/>

      <circle cx="7" cy="0" r="3.5" fill="#e5d4ff"/>
      <circle cx="7" cy="0" r="4.5" fill="#e5d4ff" opacity="0.2"/>

      <circle cx="-5" cy="7" r="3.5" fill="#da9ef7"/>
      <circle cx="-5" cy="7" r="4.5" fill="#da9ef7" opacity="0.2"/>

      <circle cx="5" cy="7" r="3.5" fill="#ff8fd5"/>
      <circle cx="5" cy="7" r="4.5" fill="#ff8fd5" opacity="0.2"/>
    </g>

    <!-- Shimmer highlights -->
    <circle cx="-10" cy="-7" r="1" fill="white" opacity="0.7"/>
    <circle cx="0" cy="-9" r="1" fill="white" opacity="0.7"/>
    <circle cx="10" cy="-7" r="1" fill="white" opacity="0.7"/>
  </g>

  <!-- Flowing connections -->
  <path d="M 50,63 Q 48,56 48,48" stroke="#c6a0f6" stroke-width="1.5" fill="none" opacity="0.6"/>
  <path d="M 40,63 Q 44,56 47,48" stroke="#da9ef7" stroke-width="1.2" fill="none" opacity="0.5"/>
  <path d="M 60,63 Q 56,56 53,48" stroke="#a0c6f6" stroke-width="1.2" fill="none" opacity="0.5"/>

  <!-- Hexagonal Prismatic Crystal -->
  <g transform="translate(50, 42)">
    <polygon points="0,-12 -10,-6 -10,6 0,12 10,6 10,-6" fill="#4a2d5f" opacity="0.3"/>
    <polygon points="0,-12 -10,-6 -10,6 0,12 10,6 10,-6" fill="url(#prismBodyGrad)" opacity="0.9" stroke="#c6a0f6" stroke-width="2"/>

    <!-- Inner crystalline facets -->
    <polygon points="0,-8 -6,-4 -6,4 0,8 6,4 6,-4" fill="white" opacity="0.6"/>
    <polygon points="0,-6 -4,-3 -4,3 0,6 4,3 4,-3" fill="url(#innerCrystal)" opacity="0.5"/>

    <!-- Refraction planes -->
    <line x1="0" y1="-12" x2="0" y2="12" stroke="#e5d4ff" stroke-width="0.5" opacity="0.7"/>
    <line x1="-10" y1="-6" x2="10" y2="6" stroke="#e5d4ff" stroke-width="0.5" opacity="0.5"/>
    <line x1="-10" y1="6" x2="10" y2="-6" stroke="#e5d4ff" stroke-width="0.5" opacity="0.5"/>

    <!-- Prism edge highlights -->
    <line x1="0" y1="-12" x2="-10" y2="-6" stroke="#f8f0ff" stroke-width="1" opacity="0.4"/>
    <line x1="0" y1="-12" x2="10" y2="-6" stroke="#f8f0ff" stroke-width="1" opacity="0.4"/>

    <!-- Crystal glow -->
    <polygon points="0,-12 -10,-6 -10,6 0,12 10,6 10,-6" fill="none" stroke="#da9ef7" stroke-width="3" opacity="0.25"/>
  </g>

  <!-- Refraction Rays (7 rays with labels) -->
  <g>
    <line x1="50" y1="30" x2="28" y2="10" stroke="#da9ef7" stroke-width="2.5" opacity="0.7" stroke-linecap="round"/>
    <circle cx="28" cy="10" r="2" fill="#da9ef7" opacity="0.6"/>

    <line x1="50" y1="30" x2="35" y2="12" stroke="#c6a0f6" stroke-width="2.5" opacity="0.75" stroke-linecap="round"/>
    <circle cx="35" cy="12" r="1.5" fill="#c6a0f6" opacity="0.7"/>

    <line x1="50" y1="30" x2="42" y2="10" stroke="#d0a0f6" stroke-width="2" opacity="0.8" stroke-linecap="round"/>
    <circle cx="42" cy="10" r="1.5" fill="#d0a0f6" opacity="0.7"/>

    <!-- Center ray (brightest) -->
    <line x1="50" y1="30" x2="50" y2="6" stroke="#e5d4ff" stroke-width="3" opacity="1.0" stroke-linecap="round"/>
    <circle cx="50" cy="6" r="2.5" fill="#e5d4ff" opacity="0.9"/>
    <circle cx="50" cy="6" r="4" fill="#f8f0ff" opacity="0.3"/>

    <line x1="50" y1="30" x2="58" y2="10" stroke="#a0c6f6" stroke-width="2" opacity="0.8" stroke-linecap="round"/>
    <circle cx="58" cy="10" r="1.5" fill="#a0c6f6" opacity="0.7"/>

    <line x1="50" y1="30" x2="65" y2="12" stroke="#9b6dd8" stroke-width="2.5" opacity="0.75" stroke-linecap="round"/>
    <circle cx="65" cy="12" r="1.5" fill="#9b6dd8" opacity="0.7"/>

    <line x1="50" y1="30" x2="72" y2="10" stroke="#ff8fd5" stroke-width="2.5" opacity="0.7" stroke-linecap="round"/>
    <circle cx="72" cy="10" r="2" fill="#ff8fd5" opacity="0.6"/>
  </g>

  <!-- Alchemical Alembic (detailed apparatus) -->
  <g transform="translate(50, 16)">
    <ellipse cx="1" cy="3" rx="7" ry="5" fill="#4a2d5f" opacity="0.3"/>
    <ellipse cx="0" cy="2" rx="6" ry="5" fill="#9b6dd8" opacity="0.85"/>
    <ellipse cx="-1.5" cy="0.5" rx="3" ry="2.5" fill="white" opacity="0.3"/>
    <rect x="-1.5" y="-8" width="3" height="10" rx="1.5" fill="#b088e0" opacity="0.85"/>

    <!-- Vapor trails -->
    <path d="M 0,-8 Q -2,-11 -1.5,-14 Q -1,-16 -0.5,-18" stroke="#e5d4ff" stroke-width="1.5" fill="none" opacity="0.6" stroke-linecap="round"/>
    <path d="M 0,-8 Q 1,-10 0.5,-13 Q 0,-15 0,-17" stroke="#f8f0ff" stroke-width="1.2" fill="none" opacity="0.5" stroke-linecap="round"/>

    <!-- Distillation drops -->
    <circle cx="0" cy="8" r="1.5" fill="#da9ef7" opacity="0.9"/>
    <circle cx="0" cy="8" r="2.5" fill="#da9ef7" opacity="0.3"/>
  </g>
</svg>
