<svg xmlns="http://www.w3.org/2000/svg" viewBox="0 0 200 200" width="200" height="200">
  <defs>
    <filter id="organic" x="-5%" y="-5%" width="110%" height="110%">
    <feTurbulence type="fractalNoise" baseFrequency="0.04" numOctaves="3" seed="1" result="noise"/>
    <feDisplacementMap in="SourceGraphic" in2="noise" scale="2" xChannelSelector="R" yChannelSelector="G"/>
  </filter>
  </defs>
  <g>
    <path d="M 92,85.34036481247969 Q 91,127.67018240623985 90.4,170 L 109.6,170 Q 109,127.67018240623985 108,85.34036481247969 Z" fill="#a496bf" filter="url(#organic)"/>
    <ellipse cx="100" cy="110.73825536873578" rx="12" ry="3.5999999999999996" fill="none" stroke="currentColor" stroke-width="1.5" opacity="0.6"/>
    <path d="M 60,85.34036481247969 L 58.56,94.94036481247969 M 63.47826086956522,85.34036481247969 L 62.16347826086957,94.94036481247969 M 66.95652173913044,85.34036481247969 L 65.76695652173913,94.94036481247969 M 70.43478260869566,85.34036481247969 L 69.3704347826087,94.94036481247969 M 73.91304347826087,85.34036481247969 L 72.97391304347826,94.94036481247969 M 77.3913043478261,85.34036481247969 L 76.57739130434783,94.94036481247969 M 80.86956521739131,85.34036481247969 L 80.18086956521739,94.94036481247969 M 84.34782608695653,85.34036481247969 L 83.78434782608697,94.94036481247969 M 87.82608695652173,85.34036481247969 L 87.38782608695652,94.94036481247969 M 91.30434782608695,85.34036481247969 L 90.99130434782609,94.94036481247969 M 94.78260869565219,85.34036481247969 L 94.59478260869567,94.94036481247969 M 98.2608695652174,85.34036481247969 L 98.19826086956523,94.94036481247969 M 101.73913043478261,85.34036481247969 L 101.80173913043478,94.94036481247969 M 105.21739130434783,85.34036481247969 L 105.40521739130435,94.94036481247969 M 108.69565217391306,85.34036481247969 L 109.00869565217393,94.94036481247969 M 112.17391304347827,85.34036481247969 L 112.61217391304348,94.94036481247969 M 115.65217391304347,85.34036481247969 L 116.21565217391303,94.94036481247969 M 119.13043478260869,85.34036481247969 L 119.81913043478261,94.94036481247969 M 122.6086956521739,85.34036481247969 L 123.42260869565217,94.94036481247969 M 126.08695652173913,85.34036481247969 L 127.02608695652174,94.94036481247969 M 129.56521739130437,85.34036481247969 L 130.62956521739133,94.94036481247969 M 133.04347826086956,85.34036481247969 L 134.23304347826087,94.94036481247969 M 136.5217391304348,85.34036481247969 L 137.83652173913046,94.94036481247969 M 140,85.34036481247969 L 141.44,94.94036481247969" stroke="#a496bf" stroke-width="0.8" fill="none" opacity="0.7"/>
    <path d="M 50,85.34036481247969 Q 50,78.14036481247969 100,75.7403648124797 Q 150,78.14036481247969 150,85.34036481247969" fill="#576cb7" filter="url(#organic)"/>
  </g>
</svg>