<svg xmlns="http://www.w3.org/2000/svg" viewBox="0 0 200 200" width="200" height="200">
  <defs>
    <filter id="organic" x="-5%" y="-5%" width="110%" height="110%">
    <feTurbulence type="fractalNoise" baseFrequency="0.04" numOctaves="3" seed="1" result="noise"/>
    <feDisplacementMap in="SourceGraphic" in2="noise" scale="2" xChannelSelector="R" yChannelSelector="G"/>
  </filter>
  </defs>
  <g>
    <path d="M 95.2,102.69612351312752 Q 94.2,136.34806175656377 94.24,170 L 105.76,170 Q 105.8,136.34806175656377 104.8,102.69612351312752 Z" fill="#979bc4" filter="url(#organic)"/>
    <ellipse cx="100" cy="122.88728645918926" rx="7.199999999999999" ry="2.1599999999999997" fill="none" stroke="currentColor" stroke-width="1.5" opacity="0.6"/>
    <path d="M 65.88,102.69612351312752 L 64.116,114.45612351312752 M 69.89411764705882,102.69612351312752 L 68.33764705882352,114.45612351312752 M 73.90823529411765,102.69612351312752 L 72.55929411764706,114.45612351312752 M 77.92235294117647,102.69612351312752 L 76.78094117647059,114.45612351312752 M 81.9364705882353,102.69612351312752 L 81.00258823529411,114.45612351312752 M 85.95058823529412,102.69612351312752 L 85.22423529411765,114.45612351312752 M 89.96470588235294,102.69612351312752 L 89.44588235294118,114.45612351312752 M 93.97882352941176,102.69612351312752 L 93.66752941176469,114.45612351312752 M 97.9929411764706,102.69612351312752 L 97.88917647058824,114.45612351312752 M 102.0070588235294,102.69612351312752 L 102.11082352941176,114.45612351312752 M 106.02117647058824,102.69612351312752 L 106.33247058823531,114.45612351312752 M 110.03529411764706,102.69612351312752 L 110.55411764705882,114.45612351312752 M 114.0494117647059,102.69612351312752 L 114.77576470588237,114.45612351312752 M 118.0635294117647,102.69612351312752 L 118.99741176470589,114.45612351312752 M 122.07764705882353,102.69612351312752 L 123.21905882352941,114.45612351312752 M 126.09176470588235,102.69612351312752 L 127.44070588235294,114.45612351312752 M 130.1058823529412,102.69612351312752 L 131.6623529411765,114.45612351312752 M 134.12,102.69612351312752 L 135.88400000000001,114.45612351312752" stroke="#979bc4" stroke-width="0.8" fill="none" opacity="0.7"/>
    <path d="M 57.349999999999994,102.69612351312753 Q 57.349999999999994,93.87612351312752 100,90.93612351312753 Q 142.65,93.87612351312752 142.65,102.69612351312753" fill="#3275b4" filter="url(#organic)"/>
  </g>
</svg>