<svg xmlns="http://www.w3.org/2000/svg" viewBox="0 0 200 200" width="200" height="200">
  <defs>
    <filter id="organic" x="-5%" y="-5%" width="110%" height="110%">
    <feTurbulence type="fractalNoise" baseFrequency="0.04" numOctaves="3" seed="1" result="noise"/>
    <feDisplacementMap in="SourceGraphic" in2="noise" scale="2" xChannelSelector="R" yChannelSelector="G"/>
  </filter>
  </defs>
  <g>
    <path d="M 92,90.49196420321744 Q 91,130.24598210160872 90.4,170 L 109.6,170 Q 109,130.24598210160872 108,90.49196420321744 Z" fill="#979bc4" filter="url(#organic)"/>
    <path d="M 60,90.49196420321744 L 57.345,108.19196420321744 M 63.47826086956522,90.49196420321744 L 61.05413043478261,108.19196420321744 M 66.95652173913044,90.49196420321744 L 64.76326086956522,108.19196420321744 M 70.43478260869566,90.49196420321744 L 68.47239130434782,108.19196420321744 M 73.91304347826087,90.49196420321744 L 72.18152173913045,108.19196420321744 M 77.3913043478261,90.49196420321744 L 75.89065217391305,108.19196420321744 M 80.86956521739131,90.49196420321744 L 79.59978260869566,108.19196420321744 M 84.34782608695653,90.49196420321744 L 83.30891304347827,108.19196420321744 M 87.82608695652173,90.49196420321744 L 87.01804347826086,108.19196420321744 M 91.30434782608695,90.49196420321744 L 90.72717391304347,108.19196420321744 M 94.78260869565219,90.49196420321744 L 94.4363043478261,108.19196420321744 M 98.2608695652174,90.49196420321744 L 98.1454347826087,108.19196420321744 M 101.73913043478261,90.49196420321744 L 101.85456521739131,108.19196420321744 M 105.21739130434783,90.49196420321744 L 105.56369565217392,108.19196420321744 M 108.69565217391306,90.49196420321744 L 109.27282608695654,108.19196420321744 M 112.17391304347827,90.49196420321744 L 112.98195652173914,108.19196420321744 M 115.65217391304347,90.49196420321744 L 116.69108695652173,108.19196420321744 M 119.13043478260869,90.49196420321744 L 120.40021739130434,108.19196420321744 M 122.6086956521739,90.49196420321744 L 124.10934782608695,108.19196420321744 M 126.08695652173913,90.49196420321744 L 127.81847826086955,108.19196420321744 M 129.56521739130437,90.49196420321744 L 131.5276086956522,108.19196420321744 M 133.04347826086956,90.49196420321744 L 135.23673913043478,108.19196420321744 M 136.5217391304348,90.49196420321744 L 138.9458695652174,108.19196420321744 M 140,90.49196420321744 L 142.655,108.19196420321744" stroke="#979bc4" stroke-width="0.8" fill="none" opacity="0.7"/>
    <path d="M 50,72.79196420321743 Q 65,90.49196420321744 100,81.64196420321744 Q 135,90.49196420321744 150,72.79196420321743" fill="#3275b4" filter="url(#organic)"/>
  </g>
</svg>