<svg xmlns="http://www.w3.org/2000/svg" viewBox="0 0 200 200" width="200" height="200">
  <defs>
    <filter id="organic" x="-5%" y="-5%" width="110%" height="110%">
    <feTurbulence type="fractalNoise" baseFrequency="0.04" numOctaves="3" seed="1" result="noise"/>
    <feDisplacementMap in="SourceGraphic" in2="noise" scale="2" xChannelSelector="R" yChannelSelector="G"/>
  </filter>
  </defs>
  <g>
    <path d="M 96.4,88.00183913087504 Q 95.4,129.00091956543753 95.68,170 L 104.32,170 Q 104.6,129.00091956543753 103.6,88.00183913087504 Z" fill="#979bc4" filter="url(#organic)"/>
    <ellipse cx="100" cy="112.60128739161253" rx="5.4" ry="1.62" fill="none" stroke="currentColor" stroke-width="1.5" opacity="0.6"/>
    <path d="M 71.75999999999999,88.00183913087504 L 69.83399999999999,100.84183913087504 M 76.89454545454545,88.00183913087504 L 75.31872727272727,100.84183913087504 M 82.0290909090909,88.00183913087504 L 80.80345454545453,100.84183913087504 M 87.16363636363636,88.00183913087504 L 86.28818181818181,100.84183913087504 M 92.29818181818182,88.00183913087504 L 91.7729090909091,100.84183913087504 M 97.43272727272726,88.00183913087504 L 97.25763636363635,100.84183913087504 M 102.56727272727272,88.00183913087504 L 102.74236363636363,100.84183913087504 M 107.70181818181817,88.00183913087504 L 108.22709090909089,100.84183913087504 M 112.83636363636364,88.00183913087504 L 113.71181818181819,100.84183913087504 M 117.97090909090909,88.00183913087504 L 119.19654545454546,100.84183913087504 M 123.10545454545453,88.00183913087504 L 124.68127272727271,100.84183913087504 M 128.24,88.00183913087504 L 130.166,100.84183913087504" stroke="#979bc4" stroke-width="0.8" fill="none" opacity="0.7"/>
    <path d="M 64.69999999999999,88.00183913087504 Q 64.69999999999999,78.37183913087503 100,75.16183913087504 Q 135.3,78.37183913087503 135.3,88.00183913087504" fill="#3275b4" filter="url(#organic)"/>
    <circle cx="82.3" cy="65.5" r="3" fill="white" opacity="0.85"/>
    <circle cx="110.6" cy="62.3" r="2.5" fill="white" opacity="0.85"/>
    <circle cx="96.5" cy="60.7" r="2" fill="white" opacity="0.85"/>
    <circle cx="121.2" cy="68.7" r="2" fill="white" opacity="0.85"/>
    <circle cx="78.8" cy="72.0" r="1.5" fill="white" opacity="0.85"/>
    <circle cx="103.5" cy="72.0" r="2.5" fill="white" opacity="0.85"/>
  </g>
</svg>