<svg xmlns="http://www.w3.org/2000/svg" viewBox="0 0 200 200" width="200" height="200">
  <defs>
    <filter id="organic" x="-5%" y="-5%" width="110%" height="110%">
    <feTurbulence type="fractalNoise" baseFrequency="0.04" numOctaves="3" seed="1" result="noise"/>
    <feDisplacementMap in="SourceGraphic" in2="noise" scale="2" xChannelSelector="R" yChannelSelector="G"/>
  </filter>
  </defs>
  <g>
    <path d="M 96.8,90.12377458089038 Q 95.8,130.06188729044518 96.16,170 L 103.84,170 Q 104.2,130.06188729044518 103.2,90.12377458089038 Z" fill="#979bc4" filter="url(#organic)"/>
    <ellipse cx="100" cy="114.08664220662327" rx="4.800000000000001" ry="1.4400000000000002" fill="none" stroke="currentColor" stroke-width="1.5" opacity="0.6"/>
    <path d="M 73.72,90.12377458089038 L 72.199,100.26377458089038 M 79.56,90.12377458089038 L 78.377,100.26377458089038 M 85.4,90.12377458089038 L 84.555,100.26377458089038 M 91.24,90.12377458089038 L 90.73299999999999,100.26377458089038 M 97.08,90.12377458089038 L 96.911,100.26377458089038 M 102.92,90.12377458089038 L 103.089,100.26377458089038 M 108.75999999999999,90.12377458089038 L 109.267,100.26377458089038 M 114.6,90.12377458089038 L 115.445,100.26377458089038 M 120.44,90.12377458089038 L 121.62299999999999,100.26377458089038 M 126.28,90.12377458089038 L 127.801,100.26377458089038" stroke="#979bc4" stroke-width="0.8" fill="none" opacity="0.7"/>
    <path d="M 67.15,90.12377458089037 Q 67.15,64.77377458089038 100,64.77377458089038 Q 132.85,64.77377458089038 132.85,90.12377458089037" fill="#3275b4" filter="url(#organic)"/>
  </g>
</svg>