<svg xmlns="http://www.w3.org/2000/svg" viewBox="0 0 200 200" width="200" height="200">
  <defs>
    <filter id="organic" x="-5%" y="-5%" width="110%" height="110%">
    <feTurbulence type="fractalNoise" baseFrequency="0.04" numOctaves="3" seed="1" result="noise"/>
    <feDisplacementMap in="SourceGraphic" in2="noise" scale="2" xChannelSelector="R" yChannelSelector="G"/>
  </filter>
  </defs>
  <g>
    <path d="M 97.2,89.42402683354999 Q 96.2,129.712013416775 96.64,170 L 103.36,170 Q 103.8,129.712013416775 102.8,89.42402683354999 Z" fill="#979bc4" filter="url(#organic)"/>
    <path d="M 75.68,89.42402683354999 L 72.70100000000001,109.28402683354999 M 82.62857142857143,89.42402683354999 L 80.5007142857143,109.28402683354999 M 89.57714285714286,89.42402683354999 L 88.30042857142857,109.28402683354999 M 96.52571428571429,89.42402683354999 L 96.10014285714286,109.28402683354999 M 103.47428571428571,89.42402683354999 L 103.89985714285714,109.28402683354999 M 110.42285714285715,89.42402683354999 L 111.69957142857145,109.28402683354999 M 117.37142857142857,89.42402683354999 L 119.4992857142857,109.28402683354999 M 124.32000000000001,89.42402683354999 L 127.299,109.28402683354999" stroke="#979bc4" stroke-width="0.8" fill="none" opacity="0.7"/>
    <path d="M 69.6,89.42402683354999 Q 69.6,69.56402683354999 90.88,59.63402683354999 L 100,39.77402683354999 L 109.12,59.63402683354999 Q 130.4,69.56402683354999 130.4,89.42402683354999" fill="#3275b4" filter="url(#organic)"/>
  </g>
</svg>