<svg xmlns="http://www.w3.org/2000/svg" viewBox="0 0 200 200" width="200" height="200">
  <defs>
    <filter id="organic" x="-5%" y="-5%" width="110%" height="110%">
    <feTurbulence type="fractalNoise" baseFrequency="0.04" numOctaves="3" seed="1" result="noise"/>
    <feDisplacementMap in="SourceGraphic" in2="noise" scale="2" xChannelSelector="R" yChannelSelector="G"/>
  </filter>
  </defs>
  <g>
    <path d="M 92,84.72790660227544 Q 91,127.36395330113771 90.4,170 L 109.6,170 Q 109,127.36395330113771 108,84.72790660227544 Z" fill="#979bc4" filter="url(#organic)"/>
    <ellipse cx="100" cy="110.3095346215928" rx="12" ry="3.5999999999999996" fill="none" stroke="currentColor" stroke-width="1.5" opacity="0.6"/>
    <path d="M 60,84.72790660227544 L 58.479,94.86790660227544 M 63.47826086956522,84.72790660227544 L 62.08952173913043,94.86790660227544 M 66.95652173913044,84.72790660227544 L 65.70004347826087,94.86790660227544 M 70.43478260869566,84.72790660227544 L 69.31056521739131,94.86790660227544 M 73.91304347826087,84.72790660227544 L 72.92108695652175,94.86790660227544 M 77.3913043478261,84.72790660227544 L 76.53160869565218,94.86790660227544 M 80.86956521739131,84.72790660227544 L 80.14213043478262,94.86790660227544 M 84.34782608695653,84.72790660227544 L 83.75265217391305,94.86790660227544 M 87.82608695652173,84.72790660227544 L 87.36317391304347,94.86790660227544 M 91.30434782608695,84.72790660227544 L 90.97369565217392,94.86790660227544 M 94.78260869565219,84.72790660227544 L 94.58421739130436,94.86790660227544 M 98.2608695652174,84.72790660227544 L 98.1947391304348,94.86790660227544 M 101.73913043478261,84.72790660227544 L 101.80526086956522,94.86790660227544 M 105.21739130434783,84.72790660227544 L 105.41578260869565,94.86790660227544 M 108.69565217391306,84.72790660227544 L 109.0263043478261,94.86790660227544 M 112.17391304347827,84.72790660227544 L 112.63682608695653,94.86790660227544 M 115.65217391304347,84.72790660227544 L 116.24734782608695,94.86790660227544 M 119.13043478260869,84.72790660227544 L 119.85786956521738,94.86790660227544 M 122.6086956521739,84.72790660227544 L 123.46839130434782,94.86790660227544 M 126.08695652173913,84.72790660227544 L 127.07891304347825,94.86790660227544 M 129.56521739130437,84.72790660227544 L 130.6894347826087,94.86790660227544 M 133.04347826086956,84.72790660227544 L 134.29995652173912,94.86790660227544 M 136.5217391304348,84.72790660227544 L 137.91047826086958,94.86790660227544 M 140,84.72790660227544 L 141.521,94.86790660227544" stroke="#979bc4" stroke-width="0.8" fill="none" opacity="0.7"/>
    <path d="M 50,84.72790660227544 Q 50,77.12290660227544 100,74.58790660227544 Q 150,77.12290660227544 150,84.72790660227544" fill="#3275b4" filter="url(#organic)"/>
  </g>
</svg>