<svg xmlns="http://www.w3.org/2000/svg" viewBox="0 0 200 200" width="200" height="200">
  <defs>
    <filter id="organic" x="-5%" y="-5%" width="110%" height="110%">
    <feTurbulence type="fractalNoise" baseFrequency="0.04" numOctaves="3" seed="1" result="noise"/>
    <feDisplacementMap in="SourceGraphic" in2="noise" scale="2" xChannelSelector="R" yChannelSelector="G"/>
  </filter>
  </defs>
  <g>
    <path d="M 97.2,86.81539668884105 Q 96.2,128.4076983444205 96.64,170 L 103.36,170 Q 103.8,128.4076983444205 102.8,86.81539668884105 Z" fill="#78a6bd" filter="url(#organic)"/>
    <path d="M 75.68,86.81539668884105 L 74.24000000000001,96.41539668884104 M 82.62857142857143,86.81539668884105 L 81.60000000000001,96.41539668884104 M 89.57714285714286,86.81539668884105 L 88.96000000000001,96.41539668884104 M 96.52571428571429,86.81539668884105 L 96.32000000000001,96.41539668884104 M 103.47428571428571,86.81539668884105 L 103.67999999999999,96.41539668884104 M 110.42285714285715,86.81539668884105 L 111.04,96.41539668884104 M 117.37142857142857,86.81539668884105 L 118.39999999999999,96.41539668884104 M 124.32000000000001,86.81539668884105 L 125.76,96.41539668884104" stroke="#78a6bd" stroke-width="0.8" fill="none" opacity="0.7"/>
    <path d="M 69.6,86.81539668884105 Q 69.6,62.81539668884105 100,62.81539668884105 Q 130.4,62.81539668884105 130.4,86.81539668884105" fill="#00858d" filter="url(#organic)"/>
  </g>
</svg>