<svg xmlns="http://www.w3.org/2000/svg" viewBox="0 0 200 200" width="200" height="200">
  <defs>
    <filter id="glow" x="-50%" y="-50%" width="200%" height="200%">
    <feGaussianBlur in="SourceGraphic" stdDeviation="3" result="blur"/>
    <feMerge>
      <feMergeNode in="blur"/>
      <feMergeNode in="blur"/>
      <feMergeNode in="SourceGraphic"/>
    </feMerge>
  </filter>
    <filter id="organic" x="-5%" y="-5%" width="110%" height="110%">
    <feTurbulence type="fractalNoise" baseFrequency="0.04" numOctaves="3" seed="1" result="noise"/>
    <feDisplacementMap in="SourceGraphic" in2="noise" scale="2" xChannelSelector="R" yChannelSelector="G"/>
  </filter>
  </defs>
  <g filter="url(#glow)">
    <path d="M 92,78.99623792476265 Q 91,124.49811896238133 90.4,170 L 109.6,170 Q 109,124.49811896238133 108,78.99623792476265 Z" fill="#979bc4" filter="url(#organic)"/>
    <ellipse cx="100" cy="106.29736654733385" rx="12" ry="3.5999999999999996" fill="none" stroke="currentColor" stroke-width="1.5" opacity="0.6"/>
    <path d="M 60,78.99623792476265 L 56.4,102.99623792476265 M 63.47826086956522,78.99623792476265 L 60.19130434782609,102.99623792476265 M 66.95652173913044,78.99623792476265 L 63.982608695652175,102.99623792476265 M 70.43478260869566,78.99623792476265 L 67.77391304347826,102.99623792476265 M 73.91304347826087,78.99623792476265 L 71.56521739130436,102.99623792476265 M 77.3913043478261,78.99623792476265 L 75.35652173913044,102.99623792476265 M 80.86956521739131,78.99623792476265 L 79.14782608695653,102.99623792476265 M 84.34782608695653,78.99623792476265 L 82.93913043478261,102.99623792476265 M 87.82608695652173,78.99623792476265 L 86.7304347826087,102.99623792476265 M 91.30434782608695,78.99623792476265 L 90.52173913043478,102.99623792476265 M 94.78260869565219,78.99623792476265 L 94.31304347826088,102.99623792476265 M 98.2608695652174,78.99623792476265 L 98.10434782608696,102.99623792476265 M 101.73913043478261,78.99623792476265 L 101.89565217391305,102.99623792476265 M 105.21739130434783,78.99623792476265 L 105.68695652173913,102.99623792476265 M 108.69565217391306,78.99623792476265 L 109.47826086956523,102.99623792476265 M 112.17391304347827,78.99623792476265 L 113.2695652173913,102.99623792476265 M 115.65217391304347,78.99623792476265 L 117.06086956521739,102.99623792476265 M 119.13043478260869,78.99623792476265 L 120.85217391304347,102.99623792476265 M 122.6086956521739,78.99623792476265 L 124.64347826086956,102.99623792476265 M 126.08695652173913,78.99623792476265 L 128.43478260869566,102.99623792476265 M 129.56521739130437,78.99623792476265 L 132.22608695652175,102.99623792476265 M 133.04347826086956,78.99623792476265 L 136.01739130434783,102.99623792476265 M 136.5217391304348,78.99623792476265 L 139.80869565217395,102.99623792476265 M 140,78.99623792476265 L 143.6,102.99623792476265" stroke="#979bc4" stroke-width="0.8" fill="none" opacity="0.7"/>
    <path d="M 50,78.99623792476265 Q 50,54.99623792476265 85,42.99623792476265 L 100,18.996237924762653 L 115,42.99623792476265 Q 150,54.99623792476265 150,78.99623792476265" fill="#3275b4" filter="url(#organic)"/>
  </g>
</svg>