<svg xmlns="http://www.w3.org/2000/svg" viewBox="0 0 200 200" width="200" height="200">
  <defs>
    <filter id="organic" x="-5%" y="-5%" width="110%" height="110%">
    <feTurbulence type="fractalNoise" baseFrequency="0.04" numOctaves="3" seed="1" result="noise"/>
    <feDisplacementMap in="SourceGraphic" in2="noise" scale="2" xChannelSelector="R" yChannelSelector="G"/>
  </filter>
  </defs>
  <g>
    <path d="M 93.6,80.08432916854488 Q 92.6,125.04216458427244 92.32000000000001,170 L 107.67999999999999,170 Q 107.4,125.04216458427244 106.4,80.08432916854488 Z" fill="#979bc4" filter="url(#organic)"/>
    <ellipse cx="100" cy="107.05903041798142" rx="9.6" ry="2.88" fill="none" stroke="currentColor" stroke-width="1.5" opacity="0.6"/>
    <path d="M 60,80.08432916854488 L 56.859,101.02432916854488 M 63.47826086956522,80.08432916854488 L 60.61039130434783,101.02432916854488 M 66.95652173913044,80.08432916854488 L 64.36178260869565,101.02432916854488 M 70.43478260869566,80.08432916854488 L 68.11317391304348,101.02432916854488 M 73.91304347826087,80.08432916854488 L 71.86456521739132,101.02432916854488 M 77.3913043478261,80.08432916854488 L 75.61595652173914,101.02432916854488 M 80.86956521739131,80.08432916854488 L 79.36734782608697,101.02432916854488 M 84.34782608695653,80.08432916854488 L 83.11873913043479,101.02432916854488 M 87.82608695652173,80.08432916854488 L 86.87013043478261,101.02432916854488 M 91.30434782608695,80.08432916854488 L 90.62152173913043,101.02432916854488 M 94.78260869565219,80.08432916854488 L 94.37291304347828,101.02432916854488 M 98.2608695652174,80.08432916854488 L 98.1243043478261,101.02432916854488 M 101.73913043478261,80.08432916854488 L 101.87569565217392,101.02432916854488 M 105.21739130434783,80.08432916854488 L 105.62708695652174,101.02432916854488 M 108.69565217391306,80.08432916854488 L 109.37847826086958,101.02432916854488 M 112.17391304347827,80.08432916854488 L 113.12986956521739,101.02432916854488 M 115.65217391304347,80.08432916854488 L 116.88126086956521,101.02432916854488 M 119.13043478260869,80.08432916854488 L 120.63265217391303,101.02432916854488 M 122.6086956521739,80.08432916854488 L 124.38404347826086,101.02432916854488 M 126.08695652173913,80.08432916854488 L 128.13543478260868,101.02432916854488 M 129.56521739130437,80.08432916854488 L 131.88682608695655,101.02432916854488 M 133.04347826086956,80.08432916854488 L 135.63821739130435,101.02432916854488 M 136.5217391304348,80.08432916854488 L 139.3896086956522,101.02432916854488 M 140,80.08432916854488 L 143.141,101.02432916854488" stroke="#979bc4" stroke-width="0.8" fill="none" opacity="0.7"/>
    <path d="M 50,80.08432916854488 Q 50,59.144329168544886 85,48.67432916854489 L 100,27.734329168544882 L 115,48.67432916854489 Q 150,59.144329168544886 150,80.08432916854488" fill="#3275b4" filter="url(#organic)"/>
  </g>
</svg>