<svg xmlns="http://www.w3.org/2000/svg" viewBox="0 0 200 200" width="200" height="200">
  <defs>
    <filter id="organic" x="-5%" y="-5%" width="110%" height="110%">
    <feTurbulence type="fractalNoise" baseFrequency="0.04" numOctaves="3" seed="1" result="noise"/>
    <feDisplacementMap in="SourceGraphic" in2="noise" scale="2" xChannelSelector="R" yChannelSelector="G"/>
  </filter>
  </defs>
  <g>
    <path d="M 95.6,103.96948137900455 Q 94.6,136.98474068950227 94.72,170 L 105.28,170 Q 105.4,136.98474068950227 104.4,103.96948137900455 Z" fill="#979bc4" filter="url(#organic)"/>
    <ellipse cx="100" cy="123.77863696530318" rx="6.6000000000000005" ry="1.98" fill="none" stroke="currentColor" stroke-width="1.5" opacity="0.6"/>
    <path d="M 67.84,103.96948137900455 L 66.319,114.10948137900455 M 72.128,103.96948137900455 L 70.8098,114.10948137900455 M 76.416,103.96948137900455 L 75.3006,114.10948137900455 M 80.70400000000001,103.96948137900455 L 79.79140000000001,114.10948137900455 M 84.992,103.96948137900455 L 84.2822,114.10948137900455 M 89.28,103.96948137900455 L 88.773,114.10948137900455 M 93.56800000000001,103.96948137900455 L 93.26380000000002,114.10948137900455 M 97.85600000000001,103.96948137900455 L 97.75460000000001,114.10948137900455 M 102.144,103.96948137900455 L 102.2454,114.10948137900455 M 106.43200000000002,103.96948137900455 L 106.73620000000001,114.10948137900455 M 110.72,103.96948137900455 L 111.227,114.10948137900455 M 115.00800000000001,103.96948137900455 L 115.71780000000001,114.10948137900455 M 119.29600000000002,103.96948137900455 L 120.20860000000002,114.10948137900455 M 123.584,103.96948137900455 L 124.6994,114.10948137900455 M 127.87200000000001,103.96948137900455 L 129.1902,114.10948137900455 M 132.16000000000003,103.96948137900455 L 133.681,114.10948137900455" stroke="#979bc4" stroke-width="0.8" fill="none" opacity="0.7"/>
    <path d="M 59.8,103.96948137900455 Q 67.84,86.22448137900456 100,78.61948137900455 Q 132.16,86.22448137900456 140.2,103.96948137900455" fill="#3275b4" filter="url(#organic)"/>
  </g>
</svg>