<svg xmlns="http://www.w3.org/2000/svg" viewBox="0 0 200 200" width="200" height="200">
  <defs>
    <filter id="organic" x="-5%" y="-5%" width="110%" height="110%">
    <feTurbulence type="fractalNoise" baseFrequency="0.04" numOctaves="3" seed="1" result="noise"/>
    <feDisplacementMap in="SourceGraphic" in2="noise" scale="2" xChannelSelector="R" yChannelSelector="G"/>
  </filter>
  </defs>
  <g>
    <path d="M 92,102.69612351312752 Q 91,136.34806175656377 90.4,170 L 109.6,170 Q 109,136.34806175656377 108,102.69612351312752 Z" fill="#979bc4" filter="url(#organic)"/>
    <ellipse cx="100" cy="122.88728645918926" rx="12" ry="3.5999999999999996" fill="none" stroke="currentColor" stroke-width="1.5" opacity="0.6"/>
    <path d="M 60,102.69612351312752 L 58.479,112.83612351312752 M 63.47826086956522,102.69612351312752 L 62.08952173913043,112.83612351312752 M 66.95652173913044,102.69612351312752 L 65.70004347826087,112.83612351312752 M 70.43478260869566,102.69612351312752 L 69.31056521739131,112.83612351312752 M 73.91304347826087,102.69612351312752 L 72.92108695652175,112.83612351312752 M 77.3913043478261,102.69612351312752 L 76.53160869565218,112.83612351312752 M 80.86956521739131,102.69612351312752 L 80.14213043478262,112.83612351312752 M 84.34782608695653,102.69612351312752 L 83.75265217391305,112.83612351312752 M 87.82608695652173,102.69612351312752 L 87.36317391304347,112.83612351312752 M 91.30434782608695,102.69612351312752 L 90.97369565217392,112.83612351312752 M 94.78260869565219,102.69612351312752 L 94.58421739130436,112.83612351312752 M 98.2608695652174,102.69612351312752 L 98.1947391304348,112.83612351312752 M 101.73913043478261,102.69612351312752 L 101.80526086956522,112.83612351312752 M 105.21739130434783,102.69612351312752 L 105.41578260869565,112.83612351312752 M 108.69565217391306,102.69612351312752 L 109.0263043478261,112.83612351312752 M 112.17391304347827,102.69612351312752 L 112.63682608695653,112.83612351312752 M 115.65217391304347,102.69612351312752 L 116.24734782608695,112.83612351312752 M 119.13043478260869,102.69612351312752 L 119.85786956521738,112.83612351312752 M 122.6086956521739,102.69612351312752 L 123.46839130434782,112.83612351312752 M 126.08695652173913,102.69612351312752 L 127.07891304347825,112.83612351312752 M 129.56521739130437,102.69612351312752 L 130.6894347826087,112.83612351312752 M 133.04347826086956,102.69612351312752 L 134.29995652173912,112.83612351312752 M 136.5217391304348,102.69612351312752 L 137.91047826086958,112.83612351312752 M 140,102.69612351312752 L 141.521,112.83612351312752" stroke="#979bc4" stroke-width="0.8" fill="none" opacity="0.7"/>
    <path d="M 50,102.6961235131275 Q 60,84.95112351312751 100,77.34612351312751 Q 140,84.95112351312751 150,102.6961235131275" fill="#3275b4" filter="url(#organic)"/>
  </g>
</svg>