<svg xmlns="http://www.w3.org/2000/svg" viewBox="0 0 200 200" width="200" height="200">
  <defs>
    <filter id="organic" x="-5%" y="-5%" width="110%" height="110%">
    <feTurbulence type="fractalNoise" baseFrequency="0.04" numOctaves="3" seed="1" result="noise"/>
    <feDisplacementMap in="SourceGraphic" in2="noise" scale="2" xChannelSelector="R" yChannelSelector="G"/>
  </filter>
  </defs>
  <g>
    <path d="M 92,92.90375686569892 Q 91,131.45187843284947 90.4,170 L 109.6,170 Q 109,131.45187843284947 108,92.90375686569892 Z" fill="#979bc4" filter="url(#organic)"/>
    <ellipse cx="100" cy="116.03262980598925" rx="12" ry="3.5999999999999996" fill="none" stroke="currentColor" stroke-width="1.5" opacity="0.6"/>
    <path d="M 60,92.90375686569892 L 58.479,103.04375686569892 M 63.47826086956522,92.90375686569892 L 62.08952173913043,103.04375686569892 M 66.95652173913044,92.90375686569892 L 65.70004347826087,103.04375686569892 M 70.43478260869566,92.90375686569892 L 69.31056521739131,103.04375686569892 M 73.91304347826087,92.90375686569892 L 72.92108695652175,103.04375686569892 M 77.3913043478261,92.90375686569892 L 76.53160869565218,103.04375686569892 M 80.86956521739131,92.90375686569892 L 80.14213043478262,103.04375686569892 M 84.34782608695653,92.90375686569892 L 83.75265217391305,103.04375686569892 M 87.82608695652173,92.90375686569892 L 87.36317391304347,103.04375686569892 M 91.30434782608695,92.90375686569892 L 90.97369565217392,103.04375686569892 M 94.78260869565219,92.90375686569892 L 94.58421739130436,103.04375686569892 M 98.2608695652174,92.90375686569892 L 98.1947391304348,103.04375686569892 M 101.73913043478261,92.90375686569892 L 101.80526086956522,103.04375686569892 M 105.21739130434783,92.90375686569892 L 105.41578260869565,103.04375686569892 M 108.69565217391306,92.90375686569892 L 109.0263043478261,103.04375686569892 M 112.17391304347827,92.90375686569892 L 112.63682608695653,103.04375686569892 M 115.65217391304347,92.90375686569892 L 116.24734782608695,103.04375686569892 M 119.13043478260869,92.90375686569892 L 119.85786956521738,103.04375686569892 M 122.6086956521739,92.90375686569892 L 123.46839130434782,103.04375686569892 M 126.08695652173913,92.90375686569892 L 127.07891304347825,103.04375686569892 M 129.56521739130437,92.90375686569892 L 130.6894347826087,103.04375686569892 M 133.04347826086956,92.90375686569892 L 134.29995652173912,103.04375686569892 M 136.5217391304348,92.90375686569892 L 137.91047826086958,103.04375686569892 M 140,92.90375686569892 L 141.521,103.04375686569892" stroke="#979bc4" stroke-width="0.8" fill="none" opacity="0.7"/>
    <path d="M 50,92.90375686569891 Q 50,85.29875686569892 100,82.76375686569892 Q 150,85.29875686569892 150,92.90375686569891" fill="#3275b4" filter="url(#organic)"/>
  </g>
</svg>