<svg xmlns="http://www.w3.org/2000/svg" viewBox="0 0 200 200" width="200" height="200">
  <defs>
    <filter id="organic" x="-5%" y="-5%" width="110%" height="110%">
    <feTurbulence type="fractalNoise" baseFrequency="0.04" numOctaves="3" seed="1" result="noise"/>
    <feDisplacementMap in="SourceGraphic" in2="noise" scale="2" xChannelSelector="R" yChannelSelector="G"/>
  </filter>
  </defs>
  <g>
    <path d="M 92,100.53625632943928 Q 91,135.26812816471966 90.4,170 L 109.6,170 Q 109,135.26812816471966 108,100.53625632943928 Z" fill="#979bc4" filter="url(#organic)"/>
    <ellipse cx="100" cy="121.3753794306075" rx="12" ry="3.5999999999999996" fill="none" stroke="currentColor" stroke-width="1.5" opacity="0.6"/>
    <path d="M 60,100.53625632943928 L 58.398,111.21625632943929 M 63.47826086956522,100.53625632943928 L 62.015565217391305,111.21625632943929 M 66.95652173913044,100.53625632943928 L 65.63313043478261,111.21625632943929 M 70.43478260869566,100.53625632943928 L 69.25069565217392,111.21625632943929 M 73.91304347826087,100.53625632943928 L 72.86826086956522,111.21625632943929 M 77.3913043478261,100.53625632943928 L 76.48582608695652,111.21625632943929 M 80.86956521739131,100.53625632943928 L 80.10339130434784,111.21625632943929 M 84.34782608695653,100.53625632943928 L 83.72095652173914,111.21625632943929 M 87.82608695652173,100.53625632943928 L 87.33852173913043,111.21625632943929 M 91.30434782608695,100.53625632943928 L 90.95608695652173,111.21625632943929 M 94.78260869565219,100.53625632943928 L 94.57365217391306,111.21625632943929 M 98.2608695652174,100.53625632943928 L 98.19121739130436,111.21625632943929 M 101.73913043478261,100.53625632943928 L 101.80878260869565,111.21625632943929 M 105.21739130434783,100.53625632943928 L 105.42634782608695,111.21625632943929 M 108.69565217391306,100.53625632943928 L 109.04391304347828,111.21625632943929 M 112.17391304347827,100.53625632943928 L 112.66147826086957,111.21625632943929 M 115.65217391304347,100.53625632943928 L 116.27904347826086,111.21625632943929 M 119.13043478260869,100.53625632943928 L 119.89660869565216,111.21625632943929 M 122.6086956521739,100.53625632943928 L 123.51417391304348,111.21625632943929 M 126.08695652173913,100.53625632943928 L 127.13173913043478,111.21625632943929 M 129.56521739130437,100.53625632943928 L 130.74930434782613,111.21625632943929 M 133.04347826086956,100.53625632943928 L 134.3668695652174,111.21625632943929 M 136.5217391304348,100.53625632943928 L 137.98443478260873,111.21625632943929 M 140,100.53625632943928 L 141.602,111.21625632943929" stroke="#979bc4" stroke-width="0.8" fill="none" opacity="0.7"/>
    <path d="M 50,100.53625632943928 Q 60,81.84625632943929 100,73.83625632943928 Q 140,81.84625632943929 150,100.53625632943928" fill="#3275b4" filter="url(#organic)"/>
  </g>
</svg>