<svg xmlns="http://www.w3.org/2000/svg" viewBox="0 0 200 200" width="200" height="200">
  <defs>
    <filter id="organic" x="-5%" y="-5%" width="110%" height="110%">
    <feTurbulence type="fractalNoise" baseFrequency="0.04" numOctaves="3" seed="1" result="noise"/>
    <feDisplacementMap in="SourceGraphic" in2="noise" scale="2" xChannelSelector="R" yChannelSelector="G"/>
  </filter>
  </defs>
  <g>
    <path d="M 92,99.82864031958536 Q 91,134.91432015979268 90.4,170 L 109.6,170 Q 109,134.91432015979268 108,99.82864031958536 Z" fill="#979bc4" filter="url(#organic)"/>
    <path d="M 60,99.82864031958536 L 58.398,110.50864031958537 M 63.47826086956522,99.82864031958536 L 62.015565217391305,110.50864031958537 M 66.95652173913044,99.82864031958536 L 65.63313043478261,110.50864031958537 M 70.43478260869566,99.82864031958536 L 69.25069565217392,110.50864031958537 M 73.91304347826087,99.82864031958536 L 72.86826086956522,110.50864031958537 M 77.3913043478261,99.82864031958536 L 76.48582608695652,110.50864031958537 M 80.86956521739131,99.82864031958536 L 80.10339130434784,110.50864031958537 M 84.34782608695653,99.82864031958536 L 83.72095652173914,110.50864031958537 M 87.82608695652173,99.82864031958536 L 87.33852173913043,110.50864031958537 M 91.30434782608695,99.82864031958536 L 90.95608695652173,110.50864031958537 M 94.78260869565219,99.82864031958536 L 94.57365217391306,110.50864031958537 M 98.2608695652174,99.82864031958536 L 98.19121739130436,110.50864031958537 M 101.73913043478261,99.82864031958536 L 101.80878260869565,110.50864031958537 M 105.21739130434783,99.82864031958536 L 105.42634782608695,110.50864031958537 M 108.69565217391306,99.82864031958536 L 109.04391304347828,110.50864031958537 M 112.17391304347827,99.82864031958536 L 112.66147826086957,110.50864031958537 M 115.65217391304347,99.82864031958536 L 116.27904347826086,110.50864031958537 M 119.13043478260869,99.82864031958536 L 119.89660869565216,110.50864031958537 M 122.6086956521739,99.82864031958536 L 123.51417391304348,110.50864031958537 M 126.08695652173913,99.82864031958536 L 127.13173913043478,110.50864031958537 M 129.56521739130437,99.82864031958536 L 130.74930434782613,110.50864031958537 M 133.04347826086956,99.82864031958536 L 134.3668695652174,110.50864031958537 M 136.5217391304348,99.82864031958536 L 137.98443478260873,110.50864031958537 M 140,99.82864031958536 L 141.602,110.50864031958537" stroke="#979bc4" stroke-width="0.8" fill="none" opacity="0.7"/>
    <path d="M 50,99.82864031958536 Q 60,81.13864031958536 100,73.12864031958536 Q 140,81.13864031958536 150,99.82864031958536" fill="#3275b4" filter="url(#organic)"/>
  </g>
</svg>