<svg xmlns="http://www.w3.org/2000/svg" viewBox="0 0 200 200" width="200" height="200">
  <defs>
    <filter id="organic" x="-5%" y="-5%" width="110%" height="110%">
    <feTurbulence type="fractalNoise" baseFrequency="0.04" numOctaves="3" seed="1" result="noise"/>
    <feDisplacementMap in="SourceGraphic" in2="noise" scale="2" xChannelSelector="R" yChannelSelector="G"/>
  </filter>
  </defs>
  <g>
    <path d="M 95.6,99.38209090384615 Q 94.6,134.69104545192306 94.72,170 L 105.28,170 Q 105.4,134.69104545192306 104.4,99.38209090384615 Z" fill="#979bc4" filter="url(#organic)"/>
    <ellipse cx="100" cy="120.5674636326923" rx="6.6000000000000005" ry="1.98" fill="none" stroke="currentColor" stroke-width="1.5" opacity="0.6"/>
    <path d="M 67.84,99.38209090384615 L 66.238,110.06209090384615 M 72.128,99.38209090384615 L 70.7396,110.06209090384615 M 76.416,99.38209090384615 L 75.24119999999999,110.06209090384615 M 80.70400000000001,99.38209090384615 L 79.7428,110.06209090384615 M 84.992,99.38209090384615 L 84.2444,110.06209090384615 M 89.28,99.38209090384615 L 88.746,110.06209090384615 M 93.56800000000001,99.38209090384615 L 93.2476,110.06209090384615 M 97.85600000000001,99.38209090384615 L 97.7492,110.06209090384615 M 102.144,99.38209090384615 L 102.25080000000001,110.06209090384615 M 106.43200000000002,99.38209090384615 L 106.75240000000002,110.06209090384615 M 110.72,99.38209090384615 L 111.254,110.06209090384615 M 115.00800000000001,99.38209090384615 L 115.75560000000002,110.06209090384615 M 119.29600000000002,99.38209090384615 L 120.25720000000003,110.06209090384615 M 123.584,99.38209090384615 L 124.75880000000001,110.06209090384615 M 127.87200000000001,99.38209090384615 L 129.2604,110.06209090384615 M 132.16000000000003,99.38209090384615 L 133.76200000000003,110.06209090384615" stroke="#979bc4" stroke-width="0.8" fill="none" opacity="0.7"/>
    <path d="M 59.8,99.38209090384615 Q 67.84,80.69209090384615 100,72.68209090384615 Q 132.16,80.69209090384615 140.2,99.38209090384615" fill="#3275b4" filter="url(#organic)"/>
  </g>
</svg>