<svg xmlns="http://www.w3.org/2000/svg" viewBox="0 0 200 200" width="200" height="200">
  <defs>
    <filter id="organic" x="-5%" y="-5%" width="110%" height="110%">
    <feTurbulence type="fractalNoise" baseFrequency="0.04" numOctaves="3" seed="1" result="noise"/>
    <feDisplacementMap in="SourceGraphic" in2="noise" scale="2" xChannelSelector="R" yChannelSelector="G"/>
  </filter>
  </defs>
  <g>
    <path d="M 96.4,80.01507262950119 Q 95.4,125.0075363147506 95.68,170 L 104.32,170 Q 104.6,125.0075363147506 103.6,80.01507262950119 Z" fill="#78a6bd" filter="url(#organic)"/>
    <ellipse cx="100" cy="107.01055084065084" rx="5.4" ry="1.62" fill="none" stroke="currentColor" stroke-width="1.5" opacity="0.6"/>
    <path d="M 71.75999999999999,80.01507262950119 L 70.32,89.61507262950119 M 76.89454545454545,80.01507262950119 L 75.71636363636364,89.61507262950119 M 82.0290909090909,80.01507262950119 L 81.11272727272726,89.61507262950119 M 87.16363636363636,80.01507262950119 L 86.5090909090909,89.61507262950119 M 92.29818181818182,80.01507262950119 L 91.90545454545455,89.61507262950119 M 97.43272727272726,80.01507262950119 L 97.30181818181818,89.61507262950119 M 102.56727272727272,80.01507262950119 L 102.69818181818181,89.61507262950119 M 107.70181818181817,80.01507262950119 L 108.09454545454544,89.61507262950119 M 112.83636363636364,80.01507262950119 L 113.4909090909091,89.61507262950119 M 117.97090909090909,80.01507262950119 L 118.88727272727273,89.61507262950119 M 123.10545454545453,80.01507262950119 L 124.28363636363635,89.61507262950119 M 128.24,80.01507262950119 L 129.68,89.61507262950119" stroke="#78a6bd" stroke-width="0.8" fill="none" opacity="0.7"/>
    <path d="M 64.69999999999999,80.01507262950119 Q 64.69999999999999,72.81507262950119 100,70.4150726295012 Q 135.3,72.81507262950119 135.3,80.01507262950119" fill="#00858d" filter="url(#organic)"/>
  </g>
</svg>