<svg xmlns="http://www.w3.org/2000/svg" viewBox="0 0 200 200" width="200" height="200">
  <defs>
    <filter id="organic" x="-5%" y="-5%" width="110%" height="110%">
    <feTurbulence type="fractalNoise" baseFrequency="0.04" numOctaves="3" seed="1" result="noise"/>
    <feDisplacementMap in="SourceGraphic" in2="noise" scale="2" xChannelSelector="R" yChannelSelector="G"/>
  </filter>
  </defs>
  <g>
    <path d="M 92,91.68104589254746 Q 91,130.84052294627372 90.4,170 L 109.6,170 Q 109,130.84052294627372 108,91.68104589254746 Z" fill="#979bc4" filter="url(#organic)"/>
    <ellipse cx="100" cy="115.17673212478323" rx="12" ry="3.5999999999999996" fill="none" stroke="currentColor" stroke-width="1.5" opacity="0.6"/>
    <path d="M 60,91.68104589254746 L 57.426,108.84104589254746 M 63.47826086956522,91.68104589254746 L 61.12808695652174,108.84104589254746 M 66.95652173913044,91.68104589254746 L 64.83017391304348,108.84104589254746 M 70.43478260869566,91.68104589254746 L 68.53226086956522,108.84104589254746 M 73.91304347826087,91.68104589254746 L 72.23434782608696,108.84104589254746 M 77.3913043478261,91.68104589254746 L 75.9364347826087,108.84104589254746 M 80.86956521739131,91.68104589254746 L 79.63852173913044,108.84104589254746 M 84.34782608695653,91.68104589254746 L 83.34060869565218,108.84104589254746 M 87.82608695652173,91.68104589254746 L 87.0426956521739,108.84104589254746 M 91.30434782608695,91.68104589254746 L 90.74478260869564,108.84104589254746 M 94.78260869565219,91.68104589254746 L 94.4468695652174,108.84104589254746 M 98.2608695652174,91.68104589254746 L 98.14895652173914,108.84104589254746 M 101.73913043478261,91.68104589254746 L 101.85104347826088,108.84104589254746 M 105.21739130434783,91.68104589254746 L 105.55313043478262,108.84104589254746 M 108.69565217391306,91.68104589254746 L 109.25521739130437,108.84104589254746 M 112.17391304347827,91.68104589254746 L 112.9573043478261,108.84104589254746 M 115.65217391304347,91.68104589254746 L 116.65939130434782,108.84104589254746 M 119.13043478260869,91.68104589254746 L 120.36147826086956,108.84104589254746 M 122.6086956521739,91.68104589254746 L 124.0635652173913,108.84104589254746 M 126.08695652173913,91.68104589254746 L 127.76565217391304,108.84104589254746 M 129.56521739130437,91.68104589254746 L 131.4677391304348,108.84104589254746 M 133.04347826086956,91.68104589254746 L 135.1698260869565,108.84104589254746 M 136.5217391304348,91.68104589254746 L 138.8719130434783,108.84104589254746 M 140,91.68104589254746 L 142.574,108.84104589254746" stroke="#979bc4" stroke-width="0.8" fill="none" opacity="0.7"/>
    <path d="M 50,74.52104589254746 Q 65,91.68104589254746 100,83.10104589254746 Q 135,91.68104589254746 150,74.52104589254746" fill="#3275b4" filter="url(#organic)"/>
  </g>
</svg>