<svg xmlns="http://www.w3.org/2000/svg" viewBox="0 0 200 200" width="200" height="200">
  <defs>
    <filter id="glow" x="-50%" y="-50%" width="200%" height="200%">
    <feGaussianBlur in="SourceGraphic" stdDeviation="3" result="blur"/>
    <feMerge>
      <feMergeNode in="blur"/>
      <feMergeNode in="blur"/>
      <feMergeNode in="SourceGraphic"/>
    </feMerge>
  </filter>
    <filter id="organic" x="-5%" y="-5%" width="110%" height="110%">
    <feTurbulence type="fractalNoise" baseFrequency="0.04" numOctaves="3" seed="1" result="noise"/>
    <feDisplacementMap in="SourceGraphic" in2="noise" scale="2" xChannelSelector="R" yChannelSelector="G"/>
  </filter>
  </defs>
  <g filter="url(#glow)">
    <path d="M 92,86.11352046445307 Q 91,128.05676023222654 90.4,170 L 109.6,170 Q 109,128.05676023222654 108,86.11352046445307 Z" fill="#979bc4" filter="url(#organic)"/>
    <ellipse cx="100" cy="111.27946432511715" rx="12" ry="3.5999999999999996" fill="none" stroke="currentColor" stroke-width="1.5" opacity="0.6"/>
    <path d="M 60,86.11352046445307 L 57.264,104.35352046445307 M 63.47826086956522,86.11352046445307 L 60.98017391304348,104.35352046445307 M 66.95652173913044,86.11352046445307 L 64.69634782608696,104.35352046445307 M 70.43478260869566,86.11352046445307 L 68.41252173913044,104.35352046445307 M 73.91304347826087,86.11352046445307 L 72.12869565217392,104.35352046445307 M 77.3913043478261,86.11352046445307 L 75.8448695652174,104.35352046445307 M 80.86956521739131,86.11352046445307 L 79.56104347826087,104.35352046445307 M 84.34782608695653,86.11352046445307 L 83.27721739130436,104.35352046445307 M 87.82608695652173,86.11352046445307 L 86.99339130434782,104.35352046445307 M 91.30434782608695,86.11352046445307 L 90.7095652173913,104.35352046445307 M 94.78260869565219,86.11352046445307 L 94.42573913043479,104.35352046445307 M 98.2608695652174,86.11352046445307 L 98.14191304347827,104.35352046445307 M 101.73913043478261,86.11352046445307 L 101.85808695652175,104.35352046445307 M 105.21739130434783,86.11352046445307 L 105.57426086956522,104.35352046445307 M 108.69565217391306,86.11352046445307 L 109.29043478260871,104.35352046445307 M 112.17391304347827,86.11352046445307 L 113.00660869565218,104.35352046445307 M 115.65217391304347,86.11352046445307 L 116.72278260869564,104.35352046445307 M 119.13043478260869,86.11352046445307 L 120.43895652173913,104.35352046445307 M 122.6086956521739,86.11352046445307 L 124.1551304347826,104.35352046445307 M 126.08695652173913,86.11352046445307 L 127.87130434782608,104.35352046445307 M 129.56521739130437,86.11352046445307 L 131.5874782608696,104.35352046445307 M 133.04347826086956,86.11352046445307 L 135.30365217391304,104.35352046445307 M 136.5217391304348,86.11352046445307 L 139.01982608695656,104.35352046445307 M 140,86.11352046445307 L 142.736,104.35352046445307" stroke="#979bc4" stroke-width="0.8" fill="none" opacity="0.7"/>
    <path d="M 50,67.87352046445308 Q 65,86.11352046445307 100,76.99352046445307 Q 135,86.11352046445307 150,67.87352046445308" fill="#3275b4" filter="url(#organic)"/>
  </g>
</svg>