<svg xmlns="http://www.w3.org/2000/svg" viewBox="0 0 200 200" width="200" height="200">
  <defs>
    <filter id="organic" x="-5%" y="-5%" width="110%" height="110%">
    <feTurbulence type="fractalNoise" baseFrequency="0.04" numOctaves="3" seed="1" result="noise"/>
    <feDisplacementMap in="SourceGraphic" in2="noise" scale="2" xChannelSelector="R" yChannelSelector="G"/>
  </filter>
  </defs>
  <g>
    <path d="M 96,98.34239669408583 Q 95,134.17119834704292 95.2,170 L 104.8,170 Q 105,134.17119834704292 104,98.34239669408583 Z" fill="#979bc4" filter="url(#organic)"/>
    <path d="M 69.8,98.34239669408583 L 67.712,112.26239669408584 M 74.44615384615385,98.34239669408583 L 72.67938461538462,112.26239669408584 M 79.09230769230768,98.34239669408583 L 77.64676923076922,112.26239669408584 M 83.73846153846154,98.34239669408583 L 82.61415384615384,112.26239669408584 M 88.38461538461539,98.34239669408583 L 87.58153846153846,112.26239669408584 M 93.03076923076924,98.34239669408583 L 92.54892307692309,112.26239669408584 M 97.67692307692307,98.34239669408583 L 97.51630769230769,112.26239669408584 M 102.32307692307691,98.34239669408583 L 102.4836923076923,112.26239669408584 M 106.96923076923076,98.34239669408583 L 107.45107692307691,112.26239669408584 M 111.61538461538461,98.34239669408583 L 112.41846153846154,112.26239669408584 M 116.26153846153846,98.34239669408583 L 117.38584615384616,112.26239669408584 M 120.90769230769232,98.34239669408583 L 122.35323076923078,112.26239669408584 M 125.55384615384615,98.34239669408583 L 127.32061538461538,112.26239669408584 M 130.2,98.34239669408583 L 132.28799999999998,112.26239669408584" stroke="#979bc4" stroke-width="0.8" fill="none" opacity="0.7"/>
    <path d="M 62.25,98.34239669408583 Q 62.25,87.90239669408584 100,84.42239669408583 Q 137.75,87.90239669408584 137.75,98.34239669408583" fill="#3275b4" filter="url(#organic)"/>
    <circle cx="81.1" cy="74.0" r="3" fill="white" opacity="0.85"/>
    <circle cx="111.3" cy="70.5" r="2.5" fill="white" opacity="0.85"/>
    <circle cx="96.2" cy="68.8" r="2" fill="white" opacity="0.85"/>
    <circle cx="122.7" cy="77.5" r="2" fill="white" opacity="0.85"/>
    <circle cx="77.3" cy="80.9" r="1.5" fill="white" opacity="0.85"/>
    <circle cx="103.8" cy="80.9" r="2.5" fill="white" opacity="0.85"/>
  </g>
</svg>