<svg xmlns="http://www.w3.org/2000/svg" viewBox="0 0 200 200" width="200" height="200">
  <defs>
    <filter id="organic" x="-5%" y="-5%" width="110%" height="110%">
    <feTurbulence type="fractalNoise" baseFrequency="0.04" numOctaves="3" seed="1" result="noise"/>
    <feDisplacementMap in="SourceGraphic" in2="noise" scale="2" xChannelSelector="R" yChannelSelector="G"/>
  </filter>
  </defs>
  <g>
    <path d="M 92,88.45481569999754 Q 91,129.22740784999877 90.4,170 L 109.6,170 Q 109,129.22740784999877 108,88.45481569999754 Z" fill="#979bc4" filter="url(#organic)"/>
    <path d="M 60,88.45481569999754 L 57.993,101.83481569999753 M 63.47826086956522,88.45481569999754 L 61.645782608695654,101.83481569999753 M 66.95652173913044,88.45481569999754 L 65.29856521739131,101.83481569999753 M 70.43478260869566,88.45481569999754 L 68.95134782608696,101.83481569999753 M 73.91304347826087,88.45481569999754 L 72.60413043478262,101.83481569999753 M 77.3913043478261,88.45481569999754 L 76.25691304347826,101.83481569999753 M 80.86956521739131,88.45481569999754 L 79.90969565217392,101.83481569999753 M 84.34782608695653,88.45481569999754 L 83.56247826086957,101.83481569999753 M 87.82608695652173,88.45481569999754 L 87.21526086956521,101.83481569999753 M 91.30434782608695,88.45481569999754 L 90.86804347826087,101.83481569999753 M 94.78260869565219,88.45481569999754 L 94.52082608695653,101.83481569999753 M 98.2608695652174,88.45481569999754 L 98.17360869565219,101.83481569999753 M 101.73913043478261,88.45481569999754 L 101.82639130434782,101.83481569999753 M 105.21739130434783,88.45481569999754 L 105.47917391304348,101.83481569999753 M 108.69565217391306,88.45481569999754 L 109.13195652173914,101.83481569999753 M 112.17391304347827,88.45481569999754 L 112.78473913043479,101.83481569999753 M 115.65217391304347,88.45481569999754 L 116.43752173913043,101.83481569999753 M 119.13043478260869,88.45481569999754 L 120.09030434782608,101.83481569999753 M 122.6086956521739,88.45481569999754 L 123.74308695652174,101.83481569999753 M 126.08695652173913,88.45481569999754 L 127.39586956521738,101.83481569999753 M 129.56521739130437,88.45481569999754 L 131.04865217391307,101.83481569999753 M 133.04347826086956,88.45481569999754 L 134.7014347826087,101.83481569999753 M 136.5217391304348,88.45481569999754 L 138.3542173913044,101.83481569999753 M 140,88.45481569999754 L 142.007,101.83481569999753" stroke="#979bc4" stroke-width="0.8" fill="none" opacity="0.7"/>
    <path d="M 50,75.07481569999754 Q 65,88.45481569999754 100,81.76481569999754 Q 135,88.45481569999754 150,75.07481569999754" fill="#3275b4" filter="url(#organic)"/>
    <circle cx="75.0" cy="65.0" r="3" fill="white" opacity="0.85"/>
    <circle cx="115.0" cy="61.7" r="2.5" fill="white" opacity="0.85"/>
    <circle cx="95.0" cy="60.0" r="2" fill="white" opacity="0.85"/>
    <circle cx="130.0" cy="68.4" r="2" fill="white" opacity="0.85"/>
    <circle cx="70.0" cy="71.7" r="1.5" fill="white" opacity="0.85"/>
    <circle cx="105.0" cy="71.7" r="2.5" fill="white" opacity="0.85"/>
  </g>
</svg>