<svg xmlns="http://www.w3.org/2000/svg" viewBox="0 0 200 200" width="200" height="200">
  <defs>
    <filter id="organic" x="-5%" y="-5%" width="110%" height="110%">
    <feTurbulence type="fractalNoise" baseFrequency="0.04" numOctaves="3" seed="1" result="noise"/>
    <feDisplacementMap in="SourceGraphic" in2="noise" scale="2" xChannelSelector="R" yChannelSelector="G"/>
  </filter>
  </defs>
  <g>
    <path d="M 92,89.2561460109097 Q 91,129.62807300545484 90.4,170 L 109.6,170 Q 109,129.62807300545484 108,89.2561460109097 Z" fill="#a496bf" filter="url(#organic)"/>
    <ellipse cx="100" cy="113.47930220763679" rx="12" ry="3.5999999999999996" fill="none" stroke="currentColor" stroke-width="1.5" opacity="0.6"/>
    <path d="M 60,89.2561460109097 L 58.56,98.8561460109097 M 63.47826086956522,89.2561460109097 L 62.16347826086957,98.8561460109097 M 66.95652173913044,89.2561460109097 L 65.76695652173913,98.8561460109097 M 70.43478260869566,89.2561460109097 L 69.3704347826087,98.8561460109097 M 73.91304347826087,89.2561460109097 L 72.97391304347826,98.8561460109097 M 77.3913043478261,89.2561460109097 L 76.57739130434783,98.8561460109097 M 80.86956521739131,89.2561460109097 L 80.18086956521739,98.8561460109097 M 84.34782608695653,89.2561460109097 L 83.78434782608697,98.8561460109097 M 87.82608695652173,89.2561460109097 L 87.38782608695652,98.8561460109097 M 91.30434782608695,89.2561460109097 L 90.99130434782609,98.8561460109097 M 94.78260869565219,89.2561460109097 L 94.59478260869567,98.8561460109097 M 98.2608695652174,89.2561460109097 L 98.19826086956523,98.8561460109097 M 101.73913043478261,89.2561460109097 L 101.80173913043478,98.8561460109097 M 105.21739130434783,89.2561460109097 L 105.40521739130435,98.8561460109097 M 108.69565217391306,89.2561460109097 L 109.00869565217393,98.8561460109097 M 112.17391304347827,89.2561460109097 L 112.61217391304348,98.8561460109097 M 115.65217391304347,89.2561460109097 L 116.21565217391303,98.8561460109097 M 119.13043478260869,89.2561460109097 L 119.81913043478261,98.8561460109097 M 122.6086956521739,89.2561460109097 L 123.42260869565217,98.8561460109097 M 126.08695652173913,89.2561460109097 L 127.02608695652174,98.8561460109097 M 129.56521739130437,89.2561460109097 L 130.62956521739133,98.8561460109097 M 133.04347826086956,89.2561460109097 L 134.23304347826087,98.8561460109097 M 136.5217391304348,89.2561460109097 L 137.83652173913046,98.8561460109097 M 140,89.2561460109097 L 141.44,98.8561460109097" stroke="#a496bf" stroke-width="0.8" fill="none" opacity="0.7"/>
    <path d="M 50,89.2561460109097 Q 50,82.0561460109097 100,79.65614601090971 Q 150,82.0561460109097 150,89.2561460109097" fill="#576cb7" filter="url(#organic)"/>
  </g>
</svg>