<svg xmlns="http://www.w3.org/2000/svg" viewBox="0 0 200 200" width="200" height="200">
  <defs>
    <filter id="organic" x="-5%" y="-5%" width="110%" height="110%">
    <feTurbulence type="fractalNoise" baseFrequency="0.04" numOctaves="3" seed="1" result="noise"/>
    <feDisplacementMap in="SourceGraphic" in2="noise" scale="2" xChannelSelector="R" yChannelSelector="G"/>
  </filter>
  </defs>
  <g>
    <path d="M 92,86.23769147069993 Q 91,128.11884573534996 90.4,170 L 109.6,170 Q 109,128.11884573534996 108,86.23769147069993 Z" fill="#979bc4" filter="url(#organic)"/>
    <ellipse cx="100" cy="111.36638402948995" rx="12" ry="3.5999999999999996" fill="none" stroke="currentColor" stroke-width="1.5" opacity="0.6"/>
    <path d="M 60,86.23769147069993 L 57.912,100.15769147069993 M 63.47826086956522,86.23769147069993 L 61.57182608695652,100.15769147069993 M 66.95652173913044,86.23769147069993 L 65.23165217391305,100.15769147069993 M 70.43478260869566,86.23769147069993 L 68.89147826086958,100.15769147069993 M 73.91304347826087,86.23769147069993 L 72.55130434782609,100.15769147069993 M 77.3913043478261,86.23769147069993 L 76.21113043478262,100.15769147069993 M 80.86956521739131,86.23769147069993 L 79.87095652173913,100.15769147069993 M 84.34782608695653,86.23769147069993 L 83.53078260869566,100.15769147069993 M 87.82608695652173,86.23769147069993 L 87.19060869565217,100.15769147069993 M 91.30434782608695,86.23769147069993 L 90.85043478260869,100.15769147069993 M 94.78260869565219,86.23769147069993 L 94.51026086956523,100.15769147069993 M 98.2608695652174,86.23769147069993 L 98.17008695652176,100.15769147069993 M 101.73913043478261,86.23769147069993 L 101.82991304347826,100.15769147069993 M 105.21739130434783,86.23769147069993 L 105.48973913043478,100.15769147069993 M 108.69565217391306,86.23769147069993 L 109.14956521739133,100.15769147069993 M 112.17391304347827,86.23769147069993 L 112.80939130434783,100.15769147069993 M 115.65217391304347,86.23769147069993 L 116.46921739130434,100.15769147069993 M 119.13043478260869,86.23769147069993 L 120.12904347826087,100.15769147069993 M 122.6086956521739,86.23769147069993 L 123.78886956521738,100.15769147069993 M 126.08695652173913,86.23769147069993 L 127.44869565217391,100.15769147069993 M 129.56521739130437,86.23769147069993 L 131.10852173913045,100.15769147069993 M 133.04347826086956,86.23769147069993 L 134.76834782608697,100.15769147069993 M 136.5217391304348,86.23769147069993 L 138.4281739130435,100.15769147069993 M 140,86.23769147069993 L 142.088,100.15769147069993" stroke="#979bc4" stroke-width="0.8" fill="none" opacity="0.7"/>
    <path d="M 50,72.31769147069993 Q 65,86.23769147069993 100,79.27769147069993 Q 135,86.23769147069993 150,72.31769147069993" fill="#3275b4" filter="url(#organic)"/>
    <circle cx="75.0" cy="61.9" r="3" fill="white" opacity="0.85"/>
    <circle cx="115.0" cy="58.4" r="2.5" fill="white" opacity="0.85"/>
    <circle cx="95.0" cy="56.7" r="2" fill="white" opacity="0.85"/>
    <circle cx="130.0" cy="65.4" r="2" fill="white" opacity="0.85"/>
    <circle cx="70.0" cy="68.8" r="1.5" fill="white" opacity="0.85"/>
    <circle cx="105.0" cy="68.8" r="2.5" fill="white" opacity="0.85"/>
  </g>
</svg>