<svg xmlns="http://www.w3.org/2000/svg" viewBox="0 0 200 200" width="200" height="200">
  <defs>
    <filter id="organic" x="-5%" y="-5%" width="110%" height="110%">
    <feTurbulence type="fractalNoise" baseFrequency="0.04" numOctaves="3" seed="1" result="noise"/>
    <feDisplacementMap in="SourceGraphic" in2="noise" scale="2" xChannelSelector="R" yChannelSelector="G"/>
  </filter>
  </defs>
  <g>
    <path d="M 92,84.78213063805032 Q 91,127.39106531902516 90.4,170 L 109.6,170 Q 109,127.39106531902516 108,84.78213063805032 Z" fill="#979bc4" filter="url(#organic)"/>
    <ellipse cx="100" cy="110.34749144663522" rx="12" ry="3.5999999999999996" fill="none" stroke="currentColor" stroke-width="1.5" opacity="0.6"/>
    <path d="M 60,84.78213063805032 L 57.912,98.70213063805032 M 63.47826086956522,84.78213063805032 L 61.57182608695652,98.70213063805032 M 66.95652173913044,84.78213063805032 L 65.23165217391305,98.70213063805032 M 70.43478260869566,84.78213063805032 L 68.89147826086958,98.70213063805032 M 73.91304347826087,84.78213063805032 L 72.55130434782609,98.70213063805032 M 77.3913043478261,84.78213063805032 L 76.21113043478262,98.70213063805032 M 80.86956521739131,84.78213063805032 L 79.87095652173913,98.70213063805032 M 84.34782608695653,84.78213063805032 L 83.53078260869566,98.70213063805032 M 87.82608695652173,84.78213063805032 L 87.19060869565217,98.70213063805032 M 91.30434782608695,84.78213063805032 L 90.85043478260869,98.70213063805032 M 94.78260869565219,84.78213063805032 L 94.51026086956523,98.70213063805032 M 98.2608695652174,84.78213063805032 L 98.17008695652176,98.70213063805032 M 101.73913043478261,84.78213063805032 L 101.82991304347826,98.70213063805032 M 105.21739130434783,84.78213063805032 L 105.48973913043478,98.70213063805032 M 108.69565217391306,84.78213063805032 L 109.14956521739133,98.70213063805032 M 112.17391304347827,84.78213063805032 L 112.80939130434783,98.70213063805032 M 115.65217391304347,84.78213063805032 L 116.46921739130434,98.70213063805032 M 119.13043478260869,84.78213063805032 L 120.12904347826087,98.70213063805032 M 122.6086956521739,84.78213063805032 L 123.78886956521738,98.70213063805032 M 126.08695652173913,84.78213063805032 L 127.44869565217391,98.70213063805032 M 129.56521739130437,84.78213063805032 L 131.10852173913045,98.70213063805032 M 133.04347826086956,84.78213063805032 L 134.76834782608697,98.70213063805032 M 136.5217391304348,84.78213063805032 L 138.4281739130435,98.70213063805032 M 140,84.78213063805032 L 142.088,98.70213063805032" stroke="#979bc4" stroke-width="0.8" fill="none" opacity="0.7"/>
    <path d="M 50,84.78213063805032 Q 50,74.34213063805032 100,70.86213063805032 Q 150,74.34213063805032 150,84.78213063805032" fill="#3275b4" filter="url(#organic)"/>
  </g>
</svg>