<svg xmlns="http://www.w3.org/2000/svg" viewBox="0 0 200 200" width="200" height="200">
  <defs>
    <filter id="organic" x="-5%" y="-5%" width="110%" height="110%">
    <feTurbulence type="fractalNoise" baseFrequency="0.04" numOctaves="3" seed="1" result="noise"/>
    <feDisplacementMap in="SourceGraphic" in2="noise" scale="2" xChannelSelector="R" yChannelSelector="G"/>
  </filter>
  </defs>
  <g>
    <path d="M 96,110.9090909090909 Q 95,140.45454545454544 95.2,170 L 104.8,170 Q 105,140.45454545454544 104,110.9090909090909 Z" fill="#979bc4" filter="url(#organic)"/>
    <path d="M 69.8,110.9090909090909 L 68.279,121.0490909090909 M 74.44615384615385,110.9090909090909 L 73.15915384615384,121.0490909090909 M 79.09230769230768,110.9090909090909 L 78.03930769230769,121.0490909090909 M 83.73846153846154,110.9090909090909 L 82.91946153846153,121.0490909090909 M 88.38461538461539,110.9090909090909 L 87.7996153846154,121.0490909090909 M 93.03076923076924,110.9090909090909 L 92.67976923076924,121.0490909090909 M 97.67692307692307,110.9090909090909 L 97.55992307692307,121.0490909090909 M 102.32307692307691,110.9090909090909 L 102.44007692307692,121.0490909090909 M 106.96923076923076,110.9090909090909 L 107.32023076923076,121.0490909090909 M 111.61538461538461,110.9090909090909 L 112.2003846153846,121.0490909090909 M 116.26153846153846,110.9090909090909 L 117.08053846153847,121.0490909090909 M 120.90769230769232,110.9090909090909 L 121.96069230769231,121.0490909090909 M 125.55384615384615,110.9090909090909 L 126.84084615384616,121.0490909090909 M 130.2,110.9090909090909 L 131.72099999999998,121.0490909090909" stroke="#979bc4" stroke-width="0.8" fill="none" opacity="0.7"/>
    <path d="M 62.25,110.9090909090909 Q 69.8,93.16409090909092 100,85.55909090909091 Q 130.2,93.16409090909092 137.75,110.9090909090909" fill="#3275b4" filter="url(#organic)"/>
  </g>
</svg>