<svg xmlns="http://www.w3.org/2000/svg" viewBox="0 0 200 200" width="200" height="200">
  <defs>
    <filter id="organic" x="-5%" y="-5%" width="110%" height="110%">
    <feTurbulence type="fractalNoise" baseFrequency="0.04" numOctaves="3" seed="1" result="noise"/>
    <feDisplacementMap in="SourceGraphic" in2="noise" scale="2" xChannelSelector="R" yChannelSelector="G"/>
  </filter>
  </defs>
  <g>
    <path d="M 95.6,88.53225020326668 Q 94.6,129.26612510163335 94.72,170 L 105.28,170 Q 105.4,129.26612510163335 104.4,88.53225020326668 Z" fill="#979bc4" filter="url(#organic)"/>
    <ellipse cx="100" cy="112.97257514228667" rx="6.6000000000000005" ry="1.98" fill="none" stroke="currentColor" stroke-width="1.5" opacity="0.6"/>
    <path d="M 67.84,88.53225020326668 L 65.59,103.53225020326668 M 72.128,88.53225020326668 L 70.178,103.53225020326668 M 76.416,88.53225020326668 L 74.76599999999999,103.53225020326668 M 80.70400000000001,88.53225020326668 L 79.35400000000001,103.53225020326668 M 84.992,88.53225020326668 L 83.94200000000001,103.53225020326668 M 89.28,88.53225020326668 L 88.53,103.53225020326668 M 93.56800000000001,88.53225020326668 L 93.11800000000001,103.53225020326668 M 97.85600000000001,88.53225020326668 L 97.706,103.53225020326668 M 102.144,88.53225020326668 L 102.29400000000001,103.53225020326668 M 106.43200000000002,88.53225020326668 L 106.88200000000002,103.53225020326668 M 110.72,88.53225020326668 L 111.47,103.53225020326668 M 115.00800000000001,88.53225020326668 L 116.058,103.53225020326668 M 119.29600000000002,88.53225020326668 L 120.64600000000002,103.53225020326668 M 123.584,88.53225020326668 L 125.23400000000001,103.53225020326668 M 127.87200000000001,88.53225020326668 L 129.822,103.53225020326668 M 132.16000000000003,88.53225020326668 L 134.41000000000003,103.53225020326668" stroke="#979bc4" stroke-width="0.8" fill="none" opacity="0.7"/>
    <path d="M 59.8,88.53225020326668 Q 59.8,77.28225020326668 100,73.53225020326668 Q 140.2,77.28225020326668 140.2,88.53225020326668" fill="#3275b4" filter="url(#organic)"/>
    <circle cx="79.9" cy="62.3" r="3" fill="white" opacity="0.85"/>
    <circle cx="112.1" cy="58.5" r="2.5" fill="white" opacity="0.85"/>
    <circle cx="96.0" cy="56.7" r="2" fill="white" opacity="0.85"/>
    <circle cx="124.1" cy="66.0" r="2" fill="white" opacity="0.85"/>
    <circle cx="75.9" cy="69.8" r="1.5" fill="white" opacity="0.85"/>
    <circle cx="104.0" cy="69.8" r="2.5" fill="white" opacity="0.85"/>
  </g>
</svg>