<svg xmlns="http://www.w3.org/2000/svg" viewBox="0 0 200 200" width="200" height="200">
  <defs>
    <filter id="organic" x="-5%" y="-5%" width="110%" height="110%">
    <feTurbulence type="fractalNoise" baseFrequency="0.04" numOctaves="3" seed="1" result="noise"/>
    <feDisplacementMap in="SourceGraphic" in2="noise" scale="2" xChannelSelector="R" yChannelSelector="G"/>
  </filter>
  </defs>
  <g>
    <path d="M 92,76.47483912563027 Q 91,123.23741956281513 90.4,170 L 109.6,170 Q 109,123.23741956281513 108,76.47483912563027 Z" fill="#979bc4" filter="url(#organic)"/>
    <path d="M 60,76.47483912563027 L 56.4,100.47483912563027 M 63.47826086956522,76.47483912563027 L 60.19130434782609,100.47483912563027 M 66.95652173913044,76.47483912563027 L 63.982608695652175,100.47483912563027 M 70.43478260869566,76.47483912563027 L 67.77391304347826,100.47483912563027 M 73.91304347826087,76.47483912563027 L 71.56521739130436,100.47483912563027 M 77.3913043478261,76.47483912563027 L 75.35652173913044,100.47483912563027 M 80.86956521739131,76.47483912563027 L 79.14782608695653,100.47483912563027 M 84.34782608695653,76.47483912563027 L 82.93913043478261,100.47483912563027 M 87.82608695652173,76.47483912563027 L 86.7304347826087,100.47483912563027 M 91.30434782608695,76.47483912563027 L 90.52173913043478,100.47483912563027 M 94.78260869565219,76.47483912563027 L 94.31304347826088,100.47483912563027 M 98.2608695652174,76.47483912563027 L 98.10434782608696,100.47483912563027 M 101.73913043478261,76.47483912563027 L 101.89565217391305,100.47483912563027 M 105.21739130434783,76.47483912563027 L 105.68695652173913,100.47483912563027 M 108.69565217391306,76.47483912563027 L 109.47826086956523,100.47483912563027 M 112.17391304347827,76.47483912563027 L 113.2695652173913,100.47483912563027 M 115.65217391304347,76.47483912563027 L 117.06086956521739,100.47483912563027 M 119.13043478260869,76.47483912563027 L 120.85217391304347,100.47483912563027 M 122.6086956521739,76.47483912563027 L 124.64347826086956,100.47483912563027 M 126.08695652173913,76.47483912563027 L 128.43478260869566,100.47483912563027 M 129.56521739130437,76.47483912563027 L 132.22608695652175,100.47483912563027 M 133.04347826086956,76.47483912563027 L 136.01739130434783,100.47483912563027 M 136.5217391304348,76.47483912563027 L 139.80869565217395,100.47483912563027 M 140,76.47483912563027 L 143.6,100.47483912563027" stroke="#979bc4" stroke-width="0.8" fill="none" opacity="0.7"/>
    <path d="M 50,76.47483912563027 Q 50,52.47483912563027 85,40.47483912563027 L 100,16.474839125630268 L 115,40.47483912563027 Q 150,52.47483912563027 150,76.47483912563027" fill="#3275b4" filter="url(#organic)"/>
  </g>
</svg>