<svg xmlns="http://www.w3.org/2000/svg" viewBox="0 0 200 200" width="200" height="200">
  <defs>
    <filter id="organic" x="-5%" y="-5%" width="110%" height="110%">
    <feTurbulence type="fractalNoise" baseFrequency="0.04" numOctaves="3" seed="1" result="noise"/>
    <feDisplacementMap in="SourceGraphic" in2="noise" scale="2" xChannelSelector="R" yChannelSelector="G"/>
  </filter>
  </defs>
  <g>
    <path d="M 92,96.04077004102943 Q 91,133.0203850205147 90.4,170 L 109.6,170 Q 109,133.0203850205147 108,96.04077004102943 Z" fill="#979bc4" filter="url(#organic)"/>
    <path d="M 60,96.04077004102943 L 58.236,107.80077004102944 M 63.47826086956522,96.04077004102943 L 61.867652173913044,107.80077004102944 M 66.95652173913044,96.04077004102943 L 65.49930434782608,107.80077004102944 M 70.43478260869566,96.04077004102943 L 69.13095652173914,107.80077004102944 M 73.91304347826087,96.04077004102943 L 72.76260869565218,107.80077004102944 M 77.3913043478261,96.04077004102943 L 76.39426086956523,107.80077004102944 M 80.86956521739131,96.04077004102943 L 80.02591304347827,107.80077004102944 M 84.34782608695653,96.04077004102943 L 83.65756521739131,107.80077004102944 M 87.82608695652173,96.04077004102943 L 87.28921739130435,107.80077004102944 M 91.30434782608695,96.04077004102943 L 90.92086956521739,107.80077004102944 M 94.78260869565219,96.04077004102943 L 94.55252173913044,107.80077004102944 M 98.2608695652174,96.04077004102943 L 98.1841739130435,107.80077004102944 M 101.73913043478261,96.04077004102943 L 101.81582608695652,107.80077004102944 M 105.21739130434783,96.04077004102943 L 105.44747826086957,107.80077004102944 M 108.69565217391306,96.04077004102943 L 109.07913043478263,107.80077004102944 M 112.17391304347827,96.04077004102943 L 112.71078260869565,107.80077004102944 M 115.65217391304347,96.04077004102943 L 116.34243478260869,107.80077004102944 M 119.13043478260869,96.04077004102943 L 119.97408695652173,107.80077004102944 M 122.6086956521739,96.04077004102943 L 123.60573913043477,107.80077004102944 M 126.08695652173913,96.04077004102943 L 127.23739130434782,107.80077004102944 M 129.56521739130437,96.04077004102943 L 130.8690434782609,107.80077004102944 M 133.04347826086956,96.04077004102943 L 134.5006956521739,107.80077004102944 M 136.5217391304348,96.04077004102943 L 138.13234782608697,107.80077004102944 M 140,96.04077004102943 L 141.764,107.80077004102944" stroke="#979bc4" stroke-width="0.8" fill="none" opacity="0.7"/>
    <path d="M 50,84.28077004102944 Q 65,96.04077004102945 100,90.16077004102944 Q 135,96.04077004102945 150,84.28077004102944" fill="#3275b4" filter="url(#organic)"/>
    <circle cx="75.0" cy="75.5" r="3" fill="white" opacity="0.85"/>
    <circle cx="115.0" cy="72.5" r="2.5" fill="white" opacity="0.85"/>
    <circle cx="95.0" cy="71.1" r="2" fill="white" opacity="0.85"/>
    <circle cx="130.0" cy="78.4" r="2" fill="white" opacity="0.85"/>
    <circle cx="70.0" cy="81.3" r="1.5" fill="white" opacity="0.85"/>
    <circle cx="105.0" cy="81.3" r="2.5" fill="white" opacity="0.85"/>
  </g>
</svg>