<svg xmlns="http://www.w3.org/2000/svg" viewBox="0 0 200 200" width="200" height="200">
  <defs>
    <filter id="organic" x="-5%" y="-5%" width="110%" height="110%">
    <feTurbulence type="fractalNoise" baseFrequency="0.04" numOctaves="3" seed="1" result="noise"/>
    <feDisplacementMap in="SourceGraphic" in2="noise" scale="2" xChannelSelector="R" yChannelSelector="G"/>
  </filter>
  </defs>
  <g>
    <path d="M 94.4,94.28798386282 Q 93.4,132.14399193141 93.28,170 L 106.72,170 Q 106.6,132.14399193141 105.6,94.28798386282 Z" fill="#979bc4" filter="url(#organic)"/>
    <path d="M 61.959999999999994,94.28798386282 L 59.791,108.74798386282 M 65.58285714285714,94.28798386282 L 63.62042857142856,108.74798386282 M 69.20571428571428,94.28798386282 L 67.44985714285714,108.74798386282 M 72.82857142857142,94.28798386282 L 71.2792857142857,108.74798386282 M 76.45142857142856,94.28798386282 L 75.10871428571429,108.74798386282 M 80.07428571428571,94.28798386282 L 78.93814285714285,108.74798386282 M 83.69714285714285,94.28798386282 L 82.76757142857142,108.74798386282 M 87.32,94.28798386282 L 86.597,108.74798386282 M 90.94285714285714,94.28798386282 L 90.42642857142856,108.74798386282 M 94.56571428571428,94.28798386282 L 94.25585714285714,108.74798386282 M 98.18857142857142,94.28798386282 L 98.0852857142857,108.74798386282 M 101.81142857142858,94.28798386282 L 101.9147142857143,108.74798386282 M 105.4342857142857,94.28798386282 L 105.74414285714285,108.74798386282 M 109.05714285714286,94.28798386282 L 109.57357142857144,108.74798386282 M 112.68,94.28798386282 L 113.403,108.74798386282 M 116.30285714285714,94.28798386282 L 117.23242857142857,108.74798386282 M 119.92571428571428,94.28798386282 L 121.06185714285714,108.74798386282 M 123.54857142857144,94.28798386282 L 124.89128571428571,108.74798386282 M 127.17142857142858,94.28798386282 L 128.72071428571428,108.74798386282 M 130.7942857142857,94.28798386282 L 132.55014285714284,108.74798386282 M 134.41714285714284,94.28798386282 L 136.3795714285714,108.74798386282 M 138.04000000000002,94.28798386282 L 140.20900000000003,108.74798386282" stroke="#979bc4" stroke-width="0.8" fill="none" opacity="0.7"/>
    <path d="M 52.449999999999996,79.82798386281999 Q 66.715,94.28798386282 100,87.05798386282 Q 133.28500000000003,94.28798386282 147.55,79.82798386281999" fill="#3275b4" filter="url(#organic)"/>
  </g>
</svg>