<svg xmlns="http://www.w3.org/2000/svg" viewBox="0 0 200 200" width="200" height="200">
  <defs>
    <filter id="organic" x="-5%" y="-5%" width="110%" height="110%">
    <feTurbulence type="fractalNoise" baseFrequency="0.04" numOctaves="3" seed="1" result="noise"/>
    <feDisplacementMap in="SourceGraphic" in2="noise" scale="2" xChannelSelector="R" yChannelSelector="G"/>
  </filter>
  </defs>
  <g>
    <path d="M 95.6,88.92823408706579 Q 94.6,129.4641170435329 94.72,170 L 105.28,170 Q 105.4,129.4641170435329 104.4,88.92823408706579 Z" fill="#a7a074" filter="url(#organic)"/>
    <ellipse cx="100" cy="113.24976386094605" rx="6.6000000000000005" ry="1.98" fill="none" stroke="currentColor" stroke-width="1.5" opacity="0.6"/>
    <path d="M 67.84,88.92823408706579 L 65.671,103.3882340870658 M 72.128,88.92823408706579 L 70.2482,103.3882340870658 M 76.416,88.92823408706579 L 74.8254,103.3882340870658 M 80.70400000000001,88.92823408706579 L 79.4026,103.3882340870658 M 84.992,88.92823408706579 L 83.97980000000001,103.3882340870658 M 89.28,88.92823408706579 L 88.557,103.3882340870658 M 93.56800000000001,88.92823408706579 L 93.1342,103.3882340870658 M 97.85600000000001,88.92823408706579 L 97.71140000000001,103.3882340870658 M 102.144,88.92823408706579 L 102.2886,103.3882340870658 M 106.43200000000002,88.92823408706579 L 106.86580000000002,103.3882340870658 M 110.72,88.92823408706579 L 111.443,103.3882340870658 M 115.00800000000001,88.92823408706579 L 116.02020000000002,103.3882340870658 M 119.29600000000002,88.92823408706579 L 120.59740000000002,103.3882340870658 M 123.584,88.92823408706579 L 125.1746,103.3882340870658 M 127.87200000000001,88.92823408706579 L 129.7518,103.3882340870658 M 132.16000000000003,88.92823408706579 L 134.32900000000004,103.3882340870658" stroke="#a7a074" stroke-width="0.8" fill="none" opacity="0.7"/>
    <path d="M 59.8,88.92823408706579 Q 59.8,78.08323408706579 100,74.46823408706578 Q 140.2,78.08323408706579 140.2,88.92823408706579" fill="#9d6300" filter="url(#organic)"/>
  </g>
</svg>