<svg xmlns="http://www.w3.org/2000/svg" viewBox="0 0 200 200" width="200" height="200">
  <defs>
    <filter id="organic" x="-5%" y="-5%" width="110%" height="110%">
    <feTurbulence type="fractalNoise" baseFrequency="0.04" numOctaves="3" seed="1" result="noise"/>
    <feDisplacementMap in="SourceGraphic" in2="noise" scale="2" xChannelSelector="R" yChannelSelector="G"/>
  </filter>
  </defs>
  <g>
    <path d="M 97.2,88.15066896767297 Q 96.2,129.07533448383649 96.64,170 L 103.36,170 Q 103.8,129.07533448383649 102.8,88.15066896767297 Z" fill="#979bc4" filter="url(#organic)"/>
    <path d="M 75.68,88.15066896767297 L 74.159,98.29066896767297 M 82.62857142857143,88.15066896767297 L 81.54214285714286,98.29066896767297 M 89.57714285714286,88.15066896767297 L 88.92528571428572,98.29066896767297 M 96.52571428571429,88.15066896767297 L 96.30842857142858,98.29066896767297 M 103.47428571428571,88.15066896767297 L 103.69157142857142,98.29066896767297 M 110.42285714285715,88.15066896767297 L 111.0747142857143,98.29066896767297 M 117.37142857142857,88.15066896767297 L 118.45785714285714,98.29066896767297 M 124.32000000000001,88.15066896767297 L 125.84100000000001,98.29066896767297" stroke="#979bc4" stroke-width="0.8" fill="none" opacity="0.7"/>
    <path d="M 69.6,88.15066896767297 Q 69.6,62.80066896767297 100,62.80066896767297 Q 130.4,62.80066896767297 130.4,88.15066896767297" fill="#3275b4" filter="url(#organic)"/>
  </g>
</svg>