<svg xmlns="http://www.w3.org/2000/svg" viewBox="0 0 200 200" width="200" height="200">
  <defs>
    <filter id="organic" x="-5%" y="-5%" width="110%" height="110%">
    <feTurbulence type="fractalNoise" baseFrequency="0.04" numOctaves="3" seed="1" result="noise"/>
    <feDisplacementMap in="SourceGraphic" in2="noise" scale="2" xChannelSelector="R" yChannelSelector="G"/>
  </filter>
  </defs>
  <g>
    <path d="M 92,87.5676118863349 Q 91,128.78380594316747 90.4,170 L 109.6,170 Q 109,128.78380594316747 108,87.5676118863349 Z" fill="#979bc4" filter="url(#organic)"/>
    <path d="M 60,87.5676118863349 L 57.75,102.5676118863349 M 63.47826086956522,87.5676118863349 L 61.423913043478265,102.5676118863349 M 66.95652173913044,87.5676118863349 L 65.09782608695653,102.5676118863349 M 70.43478260869566,87.5676118863349 L 68.77173913043478,102.5676118863349 M 73.91304347826087,87.5676118863349 L 72.44565217391305,102.5676118863349 M 77.3913043478261,87.5676118863349 L 76.11956521739131,102.5676118863349 M 80.86956521739131,87.5676118863349 L 79.79347826086958,102.5676118863349 M 84.34782608695653,87.5676118863349 L 83.46739130434783,102.5676118863349 M 87.82608695652173,87.5676118863349 L 87.14130434782608,102.5676118863349 M 91.30434782608695,87.5676118863349 L 90.81521739130434,102.5676118863349 M 94.78260869565219,87.5676118863349 L 94.48913043478262,102.5676118863349 M 98.2608695652174,87.5676118863349 L 98.16304347826089,102.5676118863349 M 101.73913043478261,87.5676118863349 L 101.83695652173913,102.5676118863349 M 105.21739130434783,87.5676118863349 L 105.51086956521739,102.5676118863349 M 108.69565217391306,87.5676118863349 L 109.18478260869567,102.5676118863349 M 112.17391304347827,87.5676118863349 L 112.85869565217392,102.5676118863349 M 115.65217391304347,87.5676118863349 L 116.53260869565217,102.5676118863349 M 119.13043478260869,87.5676118863349 L 120.20652173913042,102.5676118863349 M 122.6086956521739,87.5676118863349 L 123.88043478260869,102.5676118863349 M 126.08695652173913,87.5676118863349 L 127.55434782608695,102.5676118863349 M 129.56521739130437,87.5676118863349 L 131.22826086956525,102.5676118863349 M 133.04347826086956,87.5676118863349 L 134.90217391304347,102.5676118863349 M 136.5217391304348,87.5676118863349 L 138.57608695652178,102.5676118863349 M 140,87.5676118863349 L 142.25,102.5676118863349" stroke="#979bc4" stroke-width="0.8" fill="none" opacity="0.7"/>
    <path d="M 50,87.5676118863349 Q 50,76.3176118863349 100,72.5676118863349 Q 150,76.3176118863349 150,87.5676118863349" fill="#3275b4" filter="url(#organic)"/>
  </g>
</svg>