<svg xmlns="http://www.w3.org/2000/svg" viewBox="0 0 200 200" width="200" height="200">
  <defs>
    <filter id="organic" x="-5%" y="-5%" width="110%" height="110%">
    <feTurbulence type="fractalNoise" baseFrequency="0.04" numOctaves="3" seed="1" result="noise"/>
    <feDisplacementMap in="SourceGraphic" in2="noise" scale="2" xChannelSelector="R" yChannelSelector="G"/>
  </filter>
  </defs>
  <g>
    <path d="M 94.4,80.915481368515 Q 93.4,125.4577406842575 93.28,170 L 106.72,170 Q 106.6,125.4577406842575 105.6,80.915481368515 Z" fill="#979bc4" filter="url(#organic)"/>
    <path d="M 61.959999999999994,80.915481368515 L 59.547999999999995,96.995481368515 M 65.58285714285714,80.915481368515 L 63.400571428571425,96.995481368515 M 69.20571428571428,80.915481368515 L 67.25314285714285,96.995481368515 M 72.82857142857142,80.915481368515 L 71.10571428571428,96.995481368515 M 76.45142857142856,80.915481368515 L 74.95828571428571,96.995481368515 M 80.07428571428571,80.915481368515 L 78.81085714285713,96.995481368515 M 83.69714285714285,80.915481368515 L 82.66342857142857,96.995481368515 M 87.32,80.915481368515 L 86.51599999999999,96.995481368515 M 90.94285714285714,80.915481368515 L 90.36857142857143,96.995481368515 M 94.56571428571428,80.915481368515 L 94.22114285714285,96.995481368515 M 98.18857142857142,80.915481368515 L 98.07371428571427,96.995481368515 M 101.81142857142858,80.915481368515 L 101.92628571428573,96.995481368515 M 105.4342857142857,80.915481368515 L 105.77885714285713,96.995481368515 M 109.05714285714286,80.915481368515 L 109.63142857142857,96.995481368515 M 112.68,80.915481368515 L 113.48400000000001,96.995481368515 M 116.30285714285714,80.915481368515 L 117.33657142857142,96.995481368515 M 119.92571428571428,80.915481368515 L 121.18914285714285,96.995481368515 M 123.54857142857144,80.915481368515 L 125.04171428571429,96.995481368515 M 127.17142857142858,80.915481368515 L 128.89428571428573,96.995481368515 M 130.7942857142857,80.915481368515 L 132.74685714285712,96.995481368515 M 134.41714285714284,80.915481368515 L 136.59942857142855,96.995481368515 M 138.04000000000002,80.915481368515 L 140.45200000000003,96.995481368515" stroke="#979bc4" stroke-width="0.8" fill="none" opacity="0.7"/>
    <path d="M 52.449999999999996,80.915481368515 Q 52.449999999999996,68.855481368515 100,64.835481368515 Q 147.55,68.855481368515 147.55,80.915481368515" fill="#3275b4" filter="url(#organic)"/>
  </g>
</svg>