<svg xmlns="http://www.w3.org/2000/svg" viewBox="0 0 200 200" width="200" height="200">
  <defs>
    <filter id="organic" x="-5%" y="-5%" width="110%" height="110%">
    <feTurbulence type="fractalNoise" baseFrequency="0.04" numOctaves="3" seed="1" result="noise"/>
    <feDisplacementMap in="SourceGraphic" in2="noise" scale="2" xChannelSelector="R" yChannelSelector="G"/>
  </filter>
  </defs>
  <g>
    <path d="M 92,100.78314601615446 Q 91,135.39157300807722 90.4,170 L 109.6,170 Q 109,135.39157300807722 108,100.78314601615446 Z" fill="#73aba3" filter="url(#organic)"/>
    <ellipse cx="100" cy="121.54820221130812" rx="12" ry="3.5999999999999996" fill="none" stroke="currentColor" stroke-width="1.5" opacity="0.6"/>
    <path d="M 60,100.78314601615446 L 58.56,110.38314601615446 M 63.47826086956522,100.78314601615446 L 62.16347826086957,110.38314601615446 M 66.95652173913044,100.78314601615446 L 65.76695652173913,110.38314601615446 M 70.43478260869566,100.78314601615446 L 69.3704347826087,110.38314601615446 M 73.91304347826087,100.78314601615446 L 72.97391304347826,110.38314601615446 M 77.3913043478261,100.78314601615446 L 76.57739130434783,110.38314601615446 M 80.86956521739131,100.78314601615446 L 80.18086956521739,110.38314601615446 M 84.34782608695653,100.78314601615446 L 83.78434782608697,110.38314601615446 M 87.82608695652173,100.78314601615446 L 87.38782608695652,110.38314601615446 M 91.30434782608695,100.78314601615446 L 90.99130434782609,110.38314601615446 M 94.78260869565219,100.78314601615446 L 94.59478260869567,110.38314601615446 M 98.2608695652174,100.78314601615446 L 98.19826086956523,110.38314601615446 M 101.73913043478261,100.78314601615446 L 101.80173913043478,110.38314601615446 M 105.21739130434783,100.78314601615446 L 105.40521739130435,110.38314601615446 M 108.69565217391306,100.78314601615446 L 109.00869565217393,110.38314601615446 M 112.17391304347827,100.78314601615446 L 112.61217391304348,110.38314601615446 M 115.65217391304347,100.78314601615446 L 116.21565217391303,110.38314601615446 M 119.13043478260869,100.78314601615446 L 119.81913043478261,110.38314601615446 M 122.6086956521739,100.78314601615446 L 123.42260869565217,110.38314601615446 M 126.08695652173913,100.78314601615446 L 127.02608695652174,110.38314601615446 M 129.56521739130437,100.78314601615446 L 130.62956521739133,110.38314601615446 M 133.04347826086956,100.78314601615446 L 134.23304347826087,110.38314601615446 M 136.5217391304348,100.78314601615446 L 137.83652173913046,110.38314601615446 M 140,100.78314601615446 L 141.44,110.38314601615446" stroke="#73aba3" stroke-width="0.8" fill="none" opacity="0.7"/>
    <path d="M 50,91.18314601615447 Q 65,100.78314601615446 100,95.98314601615446 Q 135,100.78314601615446 150,91.18314601615447" fill="#258651" filter="url(#organic)"/>
  </g>
</svg>