<svg xmlns="http://www.w3.org/2000/svg" viewBox="0 0 200 200" width="200" height="200">
  <defs>
    <filter id="organic" x="-5%" y="-5%" width="110%" height="110%">
    <feTurbulence type="fractalNoise" baseFrequency="0.04" numOctaves="3" seed="1" result="noise"/>
    <feDisplacementMap in="SourceGraphic" in2="noise" scale="2" xChannelSelector="R" yChannelSelector="G"/>
  </filter>
  </defs>
  <g>
    <path d="M 94.8,81.33753316030712 Q 93.8,125.66876658015356 93.76,170 L 106.24,170 Q 106.2,125.66876658015356 105.2,81.33753316030712 Z" fill="#979bc4" filter="url(#organic)"/>
    <ellipse cx="100" cy="107.93627321221499" rx="7.800000000000001" ry="2.3400000000000003" fill="none" stroke="currentColor" stroke-width="1.5" opacity="0.6"/>
    <path d="M 63.919999999999995,81.33753316030712 L 60.535999999999994,103.89753316030712 M 67.7178947368421,81.33753316030712 L 64.69010526315789,103.89753316030712 M 71.51578947368421,81.33753316030712 L 68.84421052631579,103.89753316030712 M 75.3136842105263,81.33753316030712 L 72.99831578947368,103.89753316030712 M 79.11157894736841,81.33753316030712 L 77.15242105263157,103.89753316030712 M 82.90947368421052,81.33753316030712 L 81.30652631578947,103.89753316030712 M 86.70736842105262,81.33753316030712 L 85.46063157894736,103.89753316030712 M 90.50526315789475,81.33753316030712 L 89.61473684210527,103.89753316030712 M 94.30315789473684,81.33753316030712 L 93.76884210526316,103.89753316030712 M 98.10105263157894,81.33753316030712 L 97.92294736842105,103.89753316030712 M 101.89894736842106,81.33753316030712 L 102.07705263157895,103.89753316030712 M 105.69684210526316,81.33753316030712 L 106.23115789473684,103.89753316030712 M 109.49473684210525,81.33753316030712 L 110.38526315789473,103.89753316030712 M 113.29263157894738,81.33753316030712 L 114.53936842105264,103.89753316030712 M 117.09052631578948,81.33753316030712 L 118.69347368421053,103.89753316030712 M 120.8884210526316,81.33753316030712 L 122.84757894736845,103.89753316030712 M 124.6863157894737,81.33753316030712 L 127.00168421052632,103.89753316030712 M 128.4842105263158,81.33753316030712 L 131.15578947368422,103.89753316030712 M 132.2821052631579,81.33753316030712 L 135.3098947368421,103.89753316030712 M 136.08,81.33753316030712 L 139.464,103.89753316030712" stroke="#979bc4" stroke-width="0.8" fill="none" opacity="0.7"/>
    <path d="M 54.89999999999999,81.33753316030712 Q 54.89999999999999,58.777533160307115 86.47,47.49753316030712 L 100,24.93753316030712 L 113.53,47.49753316030712 Q 145.10000000000002,58.777533160307115 145.10000000000002,81.33753316030712" fill="#3275b4" filter="url(#organic)"/>
  </g>
</svg>