<svg xmlns="http://www.w3.org/2000/svg" viewBox="0 0 200 200" width="200" height="200">
  <defs>
    <filter id="organic" x="-5%" y="-5%" width="110%" height="110%">
    <feTurbulence type="fractalNoise" baseFrequency="0.04" numOctaves="3" seed="1" result="noise"/>
    <feDisplacementMap in="SourceGraphic" in2="noise" scale="2" xChannelSelector="R" yChannelSelector="G"/>
  </filter>
  </defs>
  <g>
    <path d="M 92,94.02234112809191 Q 91,132.01117056404595 90.4,170 L 109.6,170 Q 109,132.01117056404595 108,94.02234112809191 Z" fill="#979bc4" filter="url(#organic)"/>
    <ellipse cx="100" cy="116.81563878966433" rx="12" ry="3.5999999999999996" fill="none" stroke="currentColor" stroke-width="1.5" opacity="0.6"/>
    <path d="M 60,94.02234112809191 L 57.75,109.02234112809191 M 63.47826086956522,94.02234112809191 L 61.423913043478265,109.02234112809191 M 66.95652173913044,94.02234112809191 L 65.09782608695653,109.02234112809191 M 70.43478260869566,94.02234112809191 L 68.77173913043478,109.02234112809191 M 73.91304347826087,94.02234112809191 L 72.44565217391305,109.02234112809191 M 77.3913043478261,94.02234112809191 L 76.11956521739131,109.02234112809191 M 80.86956521739131,94.02234112809191 L 79.79347826086958,109.02234112809191 M 84.34782608695653,94.02234112809191 L 83.46739130434783,109.02234112809191 M 87.82608695652173,94.02234112809191 L 87.14130434782608,109.02234112809191 M 91.30434782608695,94.02234112809191 L 90.81521739130434,109.02234112809191 M 94.78260869565219,94.02234112809191 L 94.48913043478262,109.02234112809191 M 98.2608695652174,94.02234112809191 L 98.16304347826089,109.02234112809191 M 101.73913043478261,94.02234112809191 L 101.83695652173913,109.02234112809191 M 105.21739130434783,94.02234112809191 L 105.51086956521739,109.02234112809191 M 108.69565217391306,94.02234112809191 L 109.18478260869567,109.02234112809191 M 112.17391304347827,94.02234112809191 L 112.85869565217392,109.02234112809191 M 115.65217391304347,94.02234112809191 L 116.53260869565217,109.02234112809191 M 119.13043478260869,94.02234112809191 L 120.20652173913042,109.02234112809191 M 122.6086956521739,94.02234112809191 L 123.88043478260869,109.02234112809191 M 126.08695652173913,94.02234112809191 L 127.55434782608695,109.02234112809191 M 129.56521739130437,94.02234112809191 L 131.22826086956525,109.02234112809191 M 133.04347826086956,94.02234112809191 L 134.90217391304347,109.02234112809191 M 136.5217391304348,94.02234112809191 L 138.57608695652178,109.02234112809191 M 140,94.02234112809191 L 142.25,109.02234112809191" stroke="#979bc4" stroke-width="0.8" fill="none" opacity="0.7"/>
    <path d="M 50,79.02234112809191 Q 65,94.02234112809191 100,86.52234112809191 Q 135,94.02234112809191 150,79.02234112809191" fill="#3275b4" filter="url(#organic)"/>
    <circle cx="75.0" cy="67.8" r="3" fill="white" opacity="0.85"/>
    <circle cx="115.0" cy="64.0" r="2.5" fill="white" opacity="0.85"/>
    <circle cx="95.0" cy="62.1" r="2" fill="white" opacity="0.85"/>
    <circle cx="130.0" cy="71.5" r="2" fill="white" opacity="0.85"/>
    <circle cx="70.0" cy="75.3" r="1.5" fill="white" opacity="0.85"/>
    <circle cx="105.0" cy="75.3" r="2.5" fill="white" opacity="0.85"/>
  </g>
</svg>