<svg xmlns="http://www.w3.org/2000/svg" viewBox="0 0 200 200" width="200" height="200">
  <defs>
    <filter id="organic" x="-5%" y="-5%" width="110%" height="110%">
    <feTurbulence type="fractalNoise" baseFrequency="0.04" numOctaves="3" seed="1" result="noise"/>
    <feDisplacementMap in="SourceGraphic" in2="noise" scale="2" xChannelSelector="R" yChannelSelector="G"/>
  </filter>
  </defs>
  <g>
    <path d="M 96.8,101.29506840081918 Q 95.8,135.64753420040958 96.16,170 L 103.84,170 Q 104.2,135.64753420040958 103.2,101.29506840081918 Z" fill="#979bc4" filter="url(#organic)"/>
    <ellipse cx="100" cy="121.90654788057343" rx="4.800000000000001" ry="1.4400000000000002" fill="none" stroke="currentColor" stroke-width="1.5" opacity="0.6"/>
    <path d="M 73.72,101.29506840081918 L 72.118,111.97506840081918 M 79.56,101.29506840081918 L 78.31400000000001,111.97506840081918 M 85.4,101.29506840081918 L 84.51,111.97506840081918 M 91.24,101.29506840081918 L 90.70599999999999,111.97506840081918 M 97.08,101.29506840081918 L 96.902,111.97506840081918 M 102.92,101.29506840081918 L 103.098,111.97506840081918 M 108.75999999999999,101.29506840081918 L 109.294,111.97506840081918 M 114.6,101.29506840081918 L 115.49,111.97506840081918 M 120.44,101.29506840081918 L 121.68599999999999,111.97506840081918 M 126.28,101.29506840081918 L 127.882,111.97506840081918" stroke="#979bc4" stroke-width="0.8" fill="none" opacity="0.7"/>
    <path d="M 67.15,101.29506840081918 Q 73.72,82.60506840081918 100,74.59506840081917 Q 126.28,82.60506840081918 132.85,101.29506840081918" fill="#3275b4" filter="url(#organic)"/>
  </g>
</svg>