<svg xmlns="http://www.w3.org/2000/svg" viewBox="0 0 200 200" width="200" height="200">
  <defs>
    <filter id="organic" x="-5%" y="-5%" width="110%" height="110%">
    <feTurbulence type="fractalNoise" baseFrequency="0.04" numOctaves="3" seed="1" result="noise"/>
    <feDisplacementMap in="SourceGraphic" in2="noise" scale="2" xChannelSelector="R" yChannelSelector="G"/>
  </filter>
  </defs>
  <g>
    <path d="M 92,112.31014602139925 Q 91,141.15507301069962 90.4,170 L 109.6,170 Q 109,141.15507301069962 108,112.31014602139925 Z" fill="#979bc4" filter="url(#organic)"/>
    <ellipse cx="100" cy="129.61710221497947" rx="12" ry="3.5999999999999996" fill="none" stroke="currentColor" stroke-width="1.5" opacity="0.6"/>
    <path d="M 60,112.31014602139925 L 58.479,122.45014602139925 M 63.47826086956522,112.31014602139925 L 62.08952173913043,122.45014602139925 M 66.95652173913044,112.31014602139925 L 65.70004347826087,122.45014602139925 M 70.43478260869566,112.31014602139925 L 69.31056521739131,122.45014602139925 M 73.91304347826087,112.31014602139925 L 72.92108695652175,122.45014602139925 M 77.3913043478261,112.31014602139925 L 76.53160869565218,122.45014602139925 M 80.86956521739131,112.31014602139925 L 80.14213043478262,122.45014602139925 M 84.34782608695653,112.31014602139925 L 83.75265217391305,122.45014602139925 M 87.82608695652173,112.31014602139925 L 87.36317391304347,122.45014602139925 M 91.30434782608695,112.31014602139925 L 90.97369565217392,122.45014602139925 M 94.78260869565219,112.31014602139925 L 94.58421739130436,122.45014602139925 M 98.2608695652174,112.31014602139925 L 98.1947391304348,122.45014602139925 M 101.73913043478261,112.31014602139925 L 101.80526086956522,122.45014602139925 M 105.21739130434783,112.31014602139925 L 105.41578260869565,122.45014602139925 M 108.69565217391306,112.31014602139925 L 109.0263043478261,122.45014602139925 M 112.17391304347827,112.31014602139925 L 112.63682608695653,122.45014602139925 M 115.65217391304347,112.31014602139925 L 116.24734782608695,122.45014602139925 M 119.13043478260869,112.31014602139925 L 119.85786956521738,122.45014602139925 M 122.6086956521739,112.31014602139925 L 123.46839130434782,122.45014602139925 M 126.08695652173913,112.31014602139925 L 127.07891304347825,122.45014602139925 M 129.56521739130437,112.31014602139925 L 130.6894347826087,122.45014602139925 M 133.04347826086956,112.31014602139925 L 134.29995652173912,122.45014602139925 M 136.5217391304348,112.31014602139925 L 137.91047826086958,122.45014602139925 M 140,112.31014602139925 L 141.521,122.45014602139925" stroke="#979bc4" stroke-width="0.8" fill="none" opacity="0.7"/>
    <path d="M 50,112.31014602139925 Q 60,94.56514602139926 100,86.96014602139925 Q 140,94.56514602139926 150,112.31014602139925" fill="#3275b4" filter="url(#organic)"/>
  </g>
</svg>