<svg xmlns="http://www.w3.org/2000/svg" viewBox="0 0 200 200" width="200" height="200">
  <defs>
    <filter id="organic" x="-5%" y="-5%" width="110%" height="110%">
    <feTurbulence type="fractalNoise" baseFrequency="0.04" numOctaves="3" seed="1" result="noise"/>
    <feDisplacementMap in="SourceGraphic" in2="noise" scale="2" xChannelSelector="R" yChannelSelector="G"/>
  </filter>
  </defs>
  <g>
    <path d="M 96.8,81.65550681433851 Q 95.8,125.82775340716925 96.16,170 L 103.84,170 Q 104.2,125.82775340716925 103.2,81.65550681433851 Z" fill="#979bc4" filter="url(#organic)"/>
    <ellipse cx="100" cy="108.15885477003695" rx="4.800000000000001" ry="1.4400000000000002" fill="none" stroke="currentColor" stroke-width="1.5" opacity="0.6"/>
    <path d="M 73.72,81.65550681433851 L 71.956,93.41550681433851 M 79.56,81.65550681433851 L 78.188,93.41550681433851 M 85.4,81.65550681433851 L 84.42,93.41550681433851 M 91.24,81.65550681433851 L 90.652,93.41550681433851 M 97.08,81.65550681433851 L 96.884,93.41550681433851 M 102.92,81.65550681433851 L 103.116,93.41550681433851 M 108.75999999999999,81.65550681433851 L 109.34799999999998,93.41550681433851 M 114.6,81.65550681433851 L 115.58,93.41550681433851 M 120.44,81.65550681433851 L 121.812,93.41550681433851 M 126.28,81.65550681433851 L 128.044,93.41550681433851" stroke="#979bc4" stroke-width="0.8" fill="none" opacity="0.7"/>
    <path d="M 67.15,81.65550681433851 Q 67.15,72.83550681433852 100,69.8955068143385 Q 132.85,72.83550681433852 132.85,81.65550681433851" fill="#3275b4" filter="url(#organic)"/>
  </g>
</svg>