<svg xmlns="http://www.w3.org/2000/svg" viewBox="0 0 200 200" width="200" height="200">
  <defs>
    <filter id="organic" x="-5%" y="-5%" width="110%" height="110%">
    <feTurbulence type="fractalNoise" baseFrequency="0.04" numOctaves="3" seed="1" result="noise"/>
    <feDisplacementMap in="SourceGraphic" in2="noise" scale="2" xChannelSelector="R" yChannelSelector="G"/>
  </filter>
  </defs>
  <g>
    <path d="M 92,103.3134973137567 Q 91,136.65674865687834 90.4,170 L 109.6,170 Q 109,136.65674865687834 108,103.3134973137567 Z" fill="#73aba3" filter="url(#organic)"/>
    <path d="M 60,103.3134973137567 L 58.56,112.9134973137567 M 63.47826086956522,103.3134973137567 L 62.16347826086957,112.9134973137567 M 66.95652173913044,103.3134973137567 L 65.76695652173913,112.9134973137567 M 70.43478260869566,103.3134973137567 L 69.3704347826087,112.9134973137567 M 73.91304347826087,103.3134973137567 L 72.97391304347826,112.9134973137567 M 77.3913043478261,103.3134973137567 L 76.57739130434783,112.9134973137567 M 80.86956521739131,103.3134973137567 L 80.18086956521739,112.9134973137567 M 84.34782608695653,103.3134973137567 L 83.78434782608697,112.9134973137567 M 87.82608695652173,103.3134973137567 L 87.38782608695652,112.9134973137567 M 91.30434782608695,103.3134973137567 L 90.99130434782609,112.9134973137567 M 94.78260869565219,103.3134973137567 L 94.59478260869567,112.9134973137567 M 98.2608695652174,103.3134973137567 L 98.19826086956523,112.9134973137567 M 101.73913043478261,103.3134973137567 L 101.80173913043478,112.9134973137567 M 105.21739130434783,103.3134973137567 L 105.40521739130435,112.9134973137567 M 108.69565217391306,103.3134973137567 L 109.00869565217393,112.9134973137567 M 112.17391304347827,103.3134973137567 L 112.61217391304348,112.9134973137567 M 115.65217391304347,103.3134973137567 L 116.21565217391303,112.9134973137567 M 119.13043478260869,103.3134973137567 L 119.81913043478261,112.9134973137567 M 122.6086956521739,103.3134973137567 L 123.42260869565217,112.9134973137567 M 126.08695652173913,103.3134973137567 L 127.02608695652174,112.9134973137567 M 129.56521739130437,103.3134973137567 L 130.62956521739133,112.9134973137567 M 133.04347826086956,103.3134973137567 L 134.23304347826087,112.9134973137567 M 136.5217391304348,103.3134973137567 L 137.83652173913046,112.9134973137567 M 140,103.3134973137567 L 141.44,112.9134973137567" stroke="#73aba3" stroke-width="0.8" fill="none" opacity="0.7"/>
    <path d="M 50,93.7134973137567 Q 65,103.3134973137567 100,98.5134973137567 Q 135,103.3134973137567 150,93.7134973137567" fill="#258651" filter="url(#organic)"/>
  </g>
</svg>