<svg xmlns="http://www.w3.org/2000/svg" viewBox="0 0 200 200" width="200" height="200">
  <defs>
    <filter id="organic" x="-5%" y="-5%" width="110%" height="110%">
    <feTurbulence type="fractalNoise" baseFrequency="0.04" numOctaves="3" seed="1" result="noise"/>
    <feDisplacementMap in="SourceGraphic" in2="noise" scale="2" xChannelSelector="R" yChannelSelector="G"/>
  </filter>
  </defs>
  <g>
    <path d="M 96.4,103.96948137900455 Q 95.4,136.98474068950227 95.68,170 L 104.32,170 Q 104.6,136.98474068950227 103.6,103.96948137900455 Z" fill="#979bc4" filter="url(#organic)"/>
    <ellipse cx="100" cy="123.77863696530318" rx="5.4" ry="1.62" fill="none" stroke="currentColor" stroke-width="1.5" opacity="0.6"/>
    <path d="M 71.75999999999999,103.96948137900455 L 70.23899999999999,114.10948137900455 M 76.89454545454545,103.96948137900455 L 75.6500909090909,114.10948137900455 M 82.0290909090909,103.96948137900455 L 81.06118181818181,114.10948137900455 M 87.16363636363636,103.96948137900455 L 86.47227272727272,114.10948137900455 M 92.29818181818182,103.96948137900455 L 91.88336363636364,114.10948137900455 M 97.43272727272726,103.96948137900455 L 97.29445454545454,114.10948137900455 M 102.56727272727272,103.96948137900455 L 102.70554545454544,114.10948137900455 M 107.70181818181817,103.96948137900455 L 108.11663636363635,114.10948137900455 M 112.83636363636364,103.96948137900455 L 113.52772727272728,114.10948137900455 M 117.97090909090909,103.96948137900455 L 118.93881818181818,114.10948137900455 M 123.10545454545453,103.96948137900455 L 124.34990909090908,114.10948137900455 M 128.24,103.96948137900455 L 129.761,114.10948137900455" stroke="#979bc4" stroke-width="0.8" fill="none" opacity="0.7"/>
    <path d="M 64.69999999999999,103.96948137900455 Q 71.75999999999999,86.22448137900456 100,78.61948137900455 Q 128.24,86.22448137900456 135.3,103.96948137900455" fill="#3275b4" filter="url(#organic)"/>
  </g>
</svg>