<svg xmlns="http://www.w3.org/2000/svg" viewBox="0 0 200 200" width="200" height="200">
  <defs>
    <filter id="organic" x="-5%" y="-5%" width="110%" height="110%">
    <feTurbulence type="fractalNoise" baseFrequency="0.04" numOctaves="3" seed="1" result="noise"/>
    <feDisplacementMap in="SourceGraphic" in2="noise" scale="2" xChannelSelector="R" yChannelSelector="G"/>
  </filter>
  </defs>
  <g>
    <path d="M 95.2,102.40054544405591 Q 94.2,136.20027272202796 94.24,170 L 105.76,170 Q 105.8,136.20027272202796 104.8,102.40054544405591 Z" fill="#979bc4" filter="url(#organic)"/>
    <ellipse cx="100" cy="122.68038181083914" rx="7.199999999999999" ry="2.1599999999999997" fill="none" stroke="currentColor" stroke-width="1.5" opacity="0.6"/>
    <path d="M 65.88,102.40054544405591 L 64.359,112.54054544405591 M 69.89411764705882,102.40054544405591 L 68.5520588235294,112.54054544405591 M 73.90823529411765,102.40054544405591 L 72.74511764705882,112.54054544405591 M 77.92235294117647,102.40054544405591 L 76.93817647058823,112.54054544405591 M 81.9364705882353,102.40054544405591 L 81.13123529411764,112.54054544405591 M 85.95058823529412,102.40054544405591 L 85.32429411764706,112.54054544405591 M 89.96470588235294,102.40054544405591 L 89.51735294117647,112.54054544405591 M 93.97882352941176,102.40054544405591 L 93.71041176470587,112.54054544405591 M 97.9929411764706,102.40054544405591 L 97.9034705882353,112.54054544405591 M 102.0070588235294,102.40054544405591 L 102.0965294117647,112.54054544405591 M 106.02117647058824,102.40054544405591 L 106.28958823529413,112.54054544405591 M 110.03529411764706,102.40054544405591 L 110.48264705882353,112.54054544405591 M 114.0494117647059,102.40054544405591 L 114.67570588235296,112.54054544405591 M 118.0635294117647,102.40054544405591 L 118.86876470588236,112.54054544405591 M 122.07764705882353,102.40054544405591 L 123.06182352941177,112.54054544405591 M 126.09176470588235,102.40054544405591 L 127.25488235294118,112.54054544405591 M 130.1058823529412,102.40054544405591 L 131.4479411764706,112.54054544405591 M 134.12,102.40054544405591 L 135.641,112.54054544405591" stroke="#979bc4" stroke-width="0.8" fill="none" opacity="0.7"/>
    <path d="M 57.349999999999994,102.4005454440559 Q 57.349999999999994,77.0505454440559 100,77.0505454440559 Q 142.65,77.0505454440559 142.65,102.4005454440559" fill="#3275b4" filter="url(#organic)"/>
    <circle cx="78.7" cy="84.7" r="3" fill="white" opacity="0.85"/>
    <circle cx="112.8" cy="82.1" r="2.5" fill="white" opacity="0.85"/>
    <circle cx="95.7" cy="80.9" r="2" fill="white" opacity="0.85"/>
    <circle cx="125.6" cy="87.2" r="2" fill="white" opacity="0.85"/>
    <circle cx="74.4" cy="89.7" r="1.5" fill="white" opacity="0.85"/>
    <circle cx="104.3" cy="89.7" r="2.5" fill="white" opacity="0.85"/>
  </g>
</svg>