<svg xmlns="http://www.w3.org/2000/svg" viewBox="0 0 200 200" width="200" height="200">
  <defs>
    <filter id="organic" x="-5%" y="-5%" width="110%" height="110%">
    <feTurbulence type="fractalNoise" baseFrequency="0.04" numOctaves="3" seed="1" result="noise"/>
    <feDisplacementMap in="SourceGraphic" in2="noise" scale="2" xChannelSelector="R" yChannelSelector="G"/>
  </filter>
  </defs>
  <g>
    <path d="M 95.6,107.10136759231263 Q 94.6,138.5506837961563 94.72,170 L 105.28,170 Q 105.4,138.5506837961563 104.4,107.10136759231263 Z" fill="#979bc4" filter="url(#organic)"/>
    <ellipse cx="100" cy="125.97095731461884" rx="6.6000000000000005" ry="1.98" fill="none" stroke="currentColor" stroke-width="1.5" opacity="0.6"/>
    <path d="M 67.84,107.10136759231263 L 66.319,117.24136759231263 M 72.128,107.10136759231263 L 70.8098,117.24136759231263 M 76.416,107.10136759231263 L 75.3006,117.24136759231263 M 80.70400000000001,107.10136759231263 L 79.79140000000001,117.24136759231263 M 84.992,107.10136759231263 L 84.2822,117.24136759231263 M 89.28,107.10136759231263 L 88.773,117.24136759231263 M 93.56800000000001,107.10136759231263 L 93.26380000000002,117.24136759231263 M 97.85600000000001,107.10136759231263 L 97.75460000000001,117.24136759231263 M 102.144,107.10136759231263 L 102.2454,117.24136759231263 M 106.43200000000002,107.10136759231263 L 106.73620000000001,117.24136759231263 M 110.72,107.10136759231263 L 111.227,117.24136759231263 M 115.00800000000001,107.10136759231263 L 115.71780000000001,117.24136759231263 M 119.29600000000002,107.10136759231263 L 120.20860000000002,117.24136759231263 M 123.584,107.10136759231263 L 124.6994,117.24136759231263 M 127.87200000000001,107.10136759231263 L 129.1902,117.24136759231263 M 132.16000000000003,107.10136759231263 L 133.681,117.24136759231263" stroke="#979bc4" stroke-width="0.8" fill="none" opacity="0.7"/>
    <path d="M 59.8,107.10136759231261 Q 59.8,81.75136759231262 100,81.75136759231262 Q 140.2,81.75136759231262 140.2,107.10136759231261" fill="#3275b4" filter="url(#organic)"/>
    <circle cx="79.9" cy="89.4" r="3" fill="white" opacity="0.85"/>
    <circle cx="112.1" cy="86.8" r="2.5" fill="white" opacity="0.85"/>
    <circle cx="96.0" cy="85.6" r="2" fill="white" opacity="0.85"/>
    <circle cx="124.1" cy="91.9" r="2" fill="white" opacity="0.85"/>
    <circle cx="75.9" cy="94.4" r="1.5" fill="white" opacity="0.85"/>
    <circle cx="104.0" cy="94.4" r="2.5" fill="white" opacity="0.85"/>
  </g>
</svg>