<svg xmlns="http://www.w3.org/2000/svg" viewBox="0 0 200 200" width="200" height="200">
  <defs>
    <filter id="organic" x="-5%" y="-5%" width="110%" height="110%">
    <feTurbulence type="fractalNoise" baseFrequency="0.04" numOctaves="3" seed="1" result="noise"/>
    <feDisplacementMap in="SourceGraphic" in2="noise" scale="2" xChannelSelector="R" yChannelSelector="G"/>
  </filter>
  </defs>
  <g>
    <path d="M 92,92.90375686569892 Q 91,131.45187843284947 90.4,170 L 109.6,170 Q 109,131.45187843284947 108,92.90375686569892 Z" fill="#979bc4" filter="url(#organic)"/>
    <path d="M 60,92.90375686569892 L 58.155,105.20375686569892 M 63.47826086956522,92.90375686569892 L 61.793695652173916,105.20375686569892 M 66.95652173913044,92.90375686569892 L 65.43239130434783,105.20375686569892 M 70.43478260869566,92.90375686569892 L 69.07108695652174,105.20375686569892 M 73.91304347826087,92.90375686569892 L 72.70978260869566,105.20375686569892 M 77.3913043478261,92.90375686569892 L 76.34847826086957,105.20375686569892 M 80.86956521739131,92.90375686569892 L 79.98717391304349,105.20375686569892 M 84.34782608695653,92.90375686569892 L 83.6258695652174,105.20375686569892 M 87.82608695652173,92.90375686569892 L 87.2645652173913,105.20375686569892 M 91.30434782608695,92.90375686569892 L 90.90326086956522,105.20375686569892 M 94.78260869565219,92.90375686569892 L 94.54195652173914,105.20375686569892 M 98.2608695652174,92.90375686569892 L 98.18065217391306,105.20375686569892 M 101.73913043478261,92.90375686569892 L 101.81934782608695,105.20375686569892 M 105.21739130434783,92.90375686569892 L 105.45804347826088,105.20375686569892 M 108.69565217391306,92.90375686569892 L 109.0967391304348,105.20375686569892 M 112.17391304347827,92.90375686569892 L 112.7354347826087,105.20375686569892 M 115.65217391304347,92.90375686569892 L 116.3741304347826,105.20375686569892 M 119.13043478260869,92.90375686569892 L 120.01282608695651,105.20375686569892 M 122.6086956521739,92.90375686569892 L 123.65152173913043,105.20375686569892 M 126.08695652173913,92.90375686569892 L 127.29021739130434,105.20375686569892 M 129.56521739130437,92.90375686569892 L 130.92891304347827,105.20375686569892 M 133.04347826086956,92.90375686569892 L 134.56760869565218,105.20375686569892 M 136.5217391304348,92.90375686569892 L 138.20630434782612,105.20375686569892 M 140,92.90375686569892 L 141.845,105.20375686569892" stroke="#979bc4" stroke-width="0.8" fill="none" opacity="0.7"/>
    <path d="M 50,80.60375686569893 Q 65,92.90375686569892 100,86.75375686569893 Q 135,92.90375686569892 150,80.60375686569893" fill="#3275b4" filter="url(#organic)"/>
  </g>
</svg>