<svg xmlns="http://www.w3.org/2000/svg" viewBox="0 0 200 200" width="200" height="200">
  <defs>
    <filter id="organic" x="-5%" y="-5%" width="110%" height="110%">
    <feTurbulence type="fractalNoise" baseFrequency="0.04" numOctaves="3" seed="1" result="noise"/>
    <feDisplacementMap in="SourceGraphic" in2="noise" scale="2" xChannelSelector="R" yChannelSelector="G"/>
  </filter>
  </defs>
  <g>
    <path d="M 96.8,69.6550884220255 Q 95.8,119.82754421101275 96.16,170 L 103.84,170 Q 104.2,119.82754421101275 103.2,69.6550884220255 Z" fill="#979bc4" filter="url(#organic)"/>
    <ellipse cx="100" cy="99.75856189541784" rx="4.800000000000001" ry="1.4400000000000002" fill="none" stroke="currentColor" stroke-width="1.5" opacity="0.6"/>
    <path d="M 73.72,69.6550884220255 L 71.794,82.4950884220255 M 79.56,69.6550884220255 L 78.062,82.4950884220255 M 85.4,69.6550884220255 L 84.33000000000001,82.4950884220255 M 91.24,69.6550884220255 L 90.598,82.4950884220255 M 97.08,69.6550884220255 L 96.866,82.4950884220255 M 102.92,69.6550884220255 L 103.134,82.4950884220255 M 108.75999999999999,69.6550884220255 L 109.40199999999999,82.4950884220255 M 114.6,69.6550884220255 L 115.66999999999999,82.4950884220255 M 120.44,69.6550884220255 L 121.938,82.4950884220255 M 126.28,69.6550884220255 L 128.206,82.4950884220255" stroke="#979bc4" stroke-width="0.8" fill="none" opacity="0.7"/>
    <path d="M 67.15,69.6550884220255 Q 67.15,60.0250884220255 100,56.8150884220255 Q 132.85,60.0250884220255 132.85,69.6550884220255" fill="#3275b4" filter="url(#organic)"/>
  </g>
</svg>