<svg xmlns="http://www.w3.org/2000/svg" viewBox="0 0 200 200" width="200" height="200">
  <defs>
    <filter id="organic" x="-5%" y="-5%" width="110%" height="110%">
    <feTurbulence type="fractalNoise" baseFrequency="0.04" numOctaves="3" seed="1" result="noise"/>
    <feDisplacementMap in="SourceGraphic" in2="noise" scale="2" xChannelSelector="R" yChannelSelector="G"/>
  </filter>
  </defs>
  <g>
    <path d="M 92,95.27456640360231 Q 91,132.63728320180115 90.4,170 L 109.6,170 Q 109,132.63728320180115 108,95.27456640360231 Z" fill="#979bc4" filter="url(#organic)"/>
    <path d="M 60,95.27456640360231 L 58.236,107.03456640360231 M 63.47826086956522,95.27456640360231 L 61.867652173913044,107.03456640360231 M 66.95652173913044,95.27456640360231 L 65.49930434782608,107.03456640360231 M 70.43478260869566,95.27456640360231 L 69.13095652173914,107.03456640360231 M 73.91304347826087,95.27456640360231 L 72.76260869565218,107.03456640360231 M 77.3913043478261,95.27456640360231 L 76.39426086956523,107.03456640360231 M 80.86956521739131,95.27456640360231 L 80.02591304347827,107.03456640360231 M 84.34782608695653,95.27456640360231 L 83.65756521739131,107.03456640360231 M 87.82608695652173,95.27456640360231 L 87.28921739130435,107.03456640360231 M 91.30434782608695,95.27456640360231 L 90.92086956521739,107.03456640360231 M 94.78260869565219,95.27456640360231 L 94.55252173913044,107.03456640360231 M 98.2608695652174,95.27456640360231 L 98.1841739130435,107.03456640360231 M 101.73913043478261,95.27456640360231 L 101.81582608695652,107.03456640360231 M 105.21739130434783,95.27456640360231 L 105.44747826086957,107.03456640360231 M 108.69565217391306,95.27456640360231 L 109.07913043478263,107.03456640360231 M 112.17391304347827,95.27456640360231 L 112.71078260869565,107.03456640360231 M 115.65217391304347,95.27456640360231 L 116.34243478260869,107.03456640360231 M 119.13043478260869,95.27456640360231 L 119.97408695652173,107.03456640360231 M 122.6086956521739,95.27456640360231 L 123.60573913043477,107.03456640360231 M 126.08695652173913,95.27456640360231 L 127.23739130434782,107.03456640360231 M 129.56521739130437,95.27456640360231 L 130.8690434782609,107.03456640360231 M 133.04347826086956,95.27456640360231 L 134.5006956521739,107.03456640360231 M 136.5217391304348,95.27456640360231 L 138.13234782608697,107.03456640360231 M 140,95.27456640360231 L 141.764,107.03456640360231" stroke="#979bc4" stroke-width="0.8" fill="none" opacity="0.7"/>
    <path d="M 50,95.27456640360231 Q 50,86.4545664036023 100,83.5145664036023 Q 150,86.4545664036023 150,95.27456640360231" fill="#3275b4" filter="url(#organic)"/>
  </g>
</svg>