<svg xmlns="http://www.w3.org/2000/svg" viewBox="0 0 200 200" width="200" height="200">
  <defs>
    <filter id="organic" x="-5%" y="-5%" width="110%" height="110%">
    <feTurbulence type="fractalNoise" baseFrequency="0.04" numOctaves="3" seed="1" result="noise"/>
    <feDisplacementMap in="SourceGraphic" in2="noise" scale="2" xChannelSelector="R" yChannelSelector="G"/>
  </filter>
  </defs>
  <g>
    <path d="M 92,71.56806591899853 Q 91,120.78403295949926 90.4,170 L 109.6,170 Q 109,120.78403295949926 108,71.56806591899853 Z" fill="#979bc4" filter="url(#organic)"/>
    <path d="M 60,71.56806591899853 L 58.479,81.70806591899853 M 63.47826086956522,71.56806591899853 L 62.08952173913043,81.70806591899853 M 66.95652173913044,71.56806591899853 L 65.70004347826087,81.70806591899853 M 70.43478260869566,71.56806591899853 L 69.31056521739131,81.70806591899853 M 73.91304347826087,71.56806591899853 L 72.92108695652175,81.70806591899853 M 77.3913043478261,71.56806591899853 L 76.53160869565218,81.70806591899853 M 80.86956521739131,71.56806591899853 L 80.14213043478262,81.70806591899853 M 84.34782608695653,71.56806591899853 L 83.75265217391305,81.70806591899853 M 87.82608695652173,71.56806591899853 L 87.36317391304347,81.70806591899853 M 91.30434782608695,71.56806591899853 L 90.97369565217392,81.70806591899853 M 94.78260869565219,71.56806591899853 L 94.58421739130436,81.70806591899853 M 98.2608695652174,71.56806591899853 L 98.1947391304348,81.70806591899853 M 101.73913043478261,71.56806591899853 L 101.80526086956522,81.70806591899853 M 105.21739130434783,71.56806591899853 L 105.41578260869565,81.70806591899853 M 108.69565217391306,71.56806591899853 L 109.0263043478261,81.70806591899853 M 112.17391304347827,71.56806591899853 L 112.63682608695653,81.70806591899853 M 115.65217391304347,71.56806591899853 L 116.24734782608695,81.70806591899853 M 119.13043478260869,71.56806591899853 L 119.85786956521738,81.70806591899853 M 122.6086956521739,71.56806591899853 L 123.46839130434782,81.70806591899853 M 126.08695652173913,71.56806591899853 L 127.07891304347825,81.70806591899853 M 129.56521739130437,71.56806591899853 L 130.6894347826087,81.70806591899853 M 133.04347826086956,71.56806591899853 L 134.29995652173912,81.70806591899853 M 136.5217391304348,71.56806591899853 L 137.91047826086958,81.70806591899853 M 140,71.56806591899853 L 141.521,81.70806591899853" stroke="#979bc4" stroke-width="0.8" fill="none" opacity="0.7"/>
    <path d="M 50,61.42806591899853 Q 65,71.56806591899853 100,66.49806591899852 Q 135,71.56806591899853 150,61.42806591899853" fill="#3275b4" filter="url(#organic)"/>
    <circle cx="75.0" cy="53.8" r="3" fill="white" opacity="0.85"/>
    <circle cx="115.0" cy="51.3" r="2.5" fill="white" opacity="0.85"/>
    <circle cx="95.0" cy="50.0" r="2" fill="white" opacity="0.85"/>
    <circle cx="130.0" cy="56.4" r="2" fill="white" opacity="0.85"/>
    <circle cx="70.0" cy="58.9" r="1.5" fill="white" opacity="0.85"/>
    <circle cx="105.0" cy="58.9" r="2.5" fill="white" opacity="0.85"/>
  </g>
</svg>