<svg xmlns="http://www.w3.org/2000/svg" viewBox="0 0 200 200" width="200" height="200">
  <defs>
    <filter id="organic" x="-5%" y="-5%" width="110%" height="110%">
    <feTurbulence type="fractalNoise" baseFrequency="0.04" numOctaves="3" seed="1" result="noise"/>
    <feDisplacementMap in="SourceGraphic" in2="noise" scale="2" xChannelSelector="R" yChannelSelector="G"/>
  </filter>
  </defs>
  <g>
    <path d="M 95.6,98.7459975129346 Q 94.6,134.3729987564673 94.72,170 L 105.28,170 Q 105.4,134.3729987564673 104.4,98.7459975129346 Z" fill="#979bc4" filter="url(#organic)"/>
    <ellipse cx="100" cy="120.12219825905422" rx="6.6000000000000005" ry="1.98" fill="none" stroke="currentColor" stroke-width="1.5" opacity="0.6"/>
    <path d="M 67.84,98.7459975129346 L 66.238,109.4259975129346 M 72.128,98.7459975129346 L 70.7396,109.4259975129346 M 76.416,98.7459975129346 L 75.24119999999999,109.4259975129346 M 80.70400000000001,98.7459975129346 L 79.7428,109.4259975129346 M 84.992,98.7459975129346 L 84.2444,109.4259975129346 M 89.28,98.7459975129346 L 88.746,109.4259975129346 M 93.56800000000001,98.7459975129346 L 93.2476,109.4259975129346 M 97.85600000000001,98.7459975129346 L 97.7492,109.4259975129346 M 102.144,98.7459975129346 L 102.25080000000001,109.4259975129346 M 106.43200000000002,98.7459975129346 L 106.75240000000002,109.4259975129346 M 110.72,98.7459975129346 L 111.254,109.4259975129346 M 115.00800000000001,98.7459975129346 L 115.75560000000002,109.4259975129346 M 119.29600000000002,98.7459975129346 L 120.25720000000003,109.4259975129346 M 123.584,98.7459975129346 L 124.75880000000001,109.4259975129346 M 127.87200000000001,98.7459975129346 L 129.2604,109.4259975129346 M 132.16000000000003,98.7459975129346 L 133.76200000000003,109.4259975129346" stroke="#979bc4" stroke-width="0.8" fill="none" opacity="0.7"/>
    <path d="M 59.8,98.7459975129346 Q 59.8,90.73599751293459 100,88.06599751293459 Q 140.2,90.73599751293459 140.2,98.7459975129346" fill="#3275b4" filter="url(#organic)"/>
    <circle cx="79.9" cy="80.1" r="3" fill="white" opacity="0.85"/>
    <circle cx="112.1" cy="77.4" r="2.5" fill="white" opacity="0.85"/>
    <circle cx="96.0" cy="76.1" r="2" fill="white" opacity="0.85"/>
    <circle cx="124.1" cy="82.7" r="2" fill="white" opacity="0.85"/>
    <circle cx="75.9" cy="85.4" r="1.5" fill="white" opacity="0.85"/>
    <circle cx="104.0" cy="85.4" r="2.5" fill="white" opacity="0.85"/>
  </g>
</svg>