<svg xmlns="http://www.w3.org/2000/svg" viewBox="0 0 200 200" width="200" height="200">
  <defs>
    <filter id="organic" x="-5%" y="-5%" width="110%" height="110%">
    <feTurbulence type="fractalNoise" baseFrequency="0.04" numOctaves="3" seed="1" result="noise"/>
    <feDisplacementMap in="SourceGraphic" in2="noise" scale="2" xChannelSelector="R" yChannelSelector="G"/>
  </filter>
  </defs>
  <g>
    <path d="M 97.2,82.36499997377614 Q 96.2,126.18249998688808 96.64,170 L 103.36,170 Q 103.8,126.18249998688808 102.8,82.36499997377614 Z" fill="#979bc4" filter="url(#organic)"/>
    <path d="M 75.68,82.36499997377614 L 73.673,95.74499997377615 M 82.62857142857143,82.36499997377614 L 81.19500000000001,95.74499997377615 M 89.57714285714286,82.36499997377614 L 88.717,95.74499997377615 M 96.52571428571429,82.36499997377614 L 96.239,95.74499997377615 M 103.47428571428571,82.36499997377614 L 103.761,95.74499997377615 M 110.42285714285715,82.36499997377614 L 111.28300000000002,95.74499997377615 M 117.37142857142857,82.36499997377614 L 118.80499999999999,95.74499997377615 M 124.32000000000001,82.36499997377614 L 126.32700000000001,95.74499997377615" stroke="#979bc4" stroke-width="0.8" fill="none" opacity="0.7"/>
    <path d="M 69.6,82.36499997377614 Q 69.6,48.91499997377613 100,48.91499997377613 Q 130.4,48.91499997377613 130.4,82.36499997377614" fill="#3275b4" filter="url(#organic)"/>
  </g>
</svg>