<svg xmlns="http://www.w3.org/2000/svg" viewBox="0 0 200 200" width="200" height="200">
  <defs>
    <filter id="organic" x="-5%" y="-5%" width="110%" height="110%">
    <feTurbulence type="fractalNoise" baseFrequency="0.04" numOctaves="3" seed="1" result="noise"/>
    <feDisplacementMap in="SourceGraphic" in2="noise" scale="2" xChannelSelector="R" yChannelSelector="G"/>
  </filter>
  </defs>
  <g>
    <path d="M 93.6,80.87794169494569 Q 92.6,125.43897084747285 92.32000000000001,170 L 107.67999999999999,170 Q 107.4,125.43897084747285 106.4,80.87794169494569 Z" fill="#979bc4" filter="url(#organic)"/>
    <path d="M 60,80.87794169494569 L 56.4,104.87794169494569 M 63.47826086956522,80.87794169494569 L 60.19130434782609,104.87794169494569 M 66.95652173913044,80.87794169494569 L 63.982608695652175,104.87794169494569 M 70.43478260869566,80.87794169494569 L 67.77391304347826,104.87794169494569 M 73.91304347826087,80.87794169494569 L 71.56521739130436,104.87794169494569 M 77.3913043478261,80.87794169494569 L 75.35652173913044,104.87794169494569 M 80.86956521739131,80.87794169494569 L 79.14782608695653,104.87794169494569 M 84.34782608695653,80.87794169494569 L 82.93913043478261,104.87794169494569 M 87.82608695652173,80.87794169494569 L 86.7304347826087,104.87794169494569 M 91.30434782608695,80.87794169494569 L 90.52173913043478,104.87794169494569 M 94.78260869565219,80.87794169494569 L 94.31304347826088,104.87794169494569 M 98.2608695652174,80.87794169494569 L 98.10434782608696,104.87794169494569 M 101.73913043478261,80.87794169494569 L 101.89565217391305,104.87794169494569 M 105.21739130434783,80.87794169494569 L 105.68695652173913,104.87794169494569 M 108.69565217391306,80.87794169494569 L 109.47826086956523,104.87794169494569 M 112.17391304347827,80.87794169494569 L 113.2695652173913,104.87794169494569 M 115.65217391304347,80.87794169494569 L 117.06086956521739,104.87794169494569 M 119.13043478260869,80.87794169494569 L 120.85217391304347,104.87794169494569 M 122.6086956521739,80.87794169494569 L 124.64347826086956,104.87794169494569 M 126.08695652173913,80.87794169494569 L 128.43478260869566,104.87794169494569 M 129.56521739130437,80.87794169494569 L 132.22608695652175,104.87794169494569 M 133.04347826086956,80.87794169494569 L 136.01739130434783,104.87794169494569 M 136.5217391304348,80.87794169494569 L 139.80869565217395,104.87794169494569 M 140,80.87794169494569 L 143.6,104.87794169494569" stroke="#979bc4" stroke-width="0.8" fill="none" opacity="0.7"/>
    <path d="M 50,80.87794169494569 Q 50,56.87794169494569 85,44.87794169494569 L 100,20.87794169494569 L 115,44.87794169494569 Q 150,56.87794169494569 150,80.87794169494569" fill="#3275b4" filter="url(#organic)"/>
  </g>
</svg>