<svg xmlns="http://www.w3.org/2000/svg" viewBox="0 0 200 200" width="200" height="200">
  <defs>
    <filter id="organic" x="-5%" y="-5%" width="110%" height="110%">
    <feTurbulence type="fractalNoise" baseFrequency="0.04" numOctaves="3" seed="1" result="noise"/>
    <feDisplacementMap in="SourceGraphic" in2="noise" scale="2" xChannelSelector="R" yChannelSelector="G"/>
  </filter>
  </defs>
  <g>
    <path d="M 97.2,86.88159455871198 Q 96.2,128.440797279356 96.64,170 L 103.36,170 Q 103.8,128.440797279356 102.8,86.88159455871198 Z" fill="#979bc4" filter="url(#organic)"/>
    <path d="M 75.68,86.88159455871198 L 73.673,100.26159455871198 M 82.62857142857143,86.88159455871198 L 81.19500000000001,100.26159455871198 M 89.57714285714286,86.88159455871198 L 88.717,100.26159455871198 M 96.52571428571429,86.88159455871198 L 96.239,100.26159455871198 M 103.47428571428571,86.88159455871198 L 103.761,100.26159455871198 M 110.42285714285715,86.88159455871198 L 111.28300000000002,100.26159455871198 M 117.37142857142857,86.88159455871198 L 118.80499999999999,100.26159455871198 M 124.32000000000001,86.88159455871198 L 126.32700000000001,100.26159455871198" stroke="#979bc4" stroke-width="0.8" fill="none" opacity="0.7"/>
    <path d="M 69.6,86.88159455871198 Q 69.6,53.43159455871198 100,53.43159455871198 Q 130.4,53.43159455871198 130.4,86.88159455871198" fill="#3275b4" filter="url(#organic)"/>
  </g>
</svg>