<svg xmlns="http://www.w3.org/2000/svg" viewBox="0 0 200 200" width="200" height="200">
  <defs>
    <filter id="organic" x="-5%" y="-5%" width="110%" height="110%">
    <feTurbulence type="fractalNoise" baseFrequency="0.04" numOctaves="3" seed="1" result="noise"/>
    <feDisplacementMap in="SourceGraphic" in2="noise" scale="2" xChannelSelector="R" yChannelSelector="G"/>
  </filter>
  </defs>
  <g>
    <path d="M 96,89.7680683955744 Q 95,129.8840341977872 95.2,170 L 104.8,170 Q 105,129.8840341977872 104,89.7680683955744 Z" fill="#979bc4" filter="url(#organic)"/>
    <ellipse cx="100" cy="113.83764787690208" rx="6" ry="1.7999999999999998" fill="none" stroke="currentColor" stroke-width="1.5" opacity="0.6"/>
    <path d="M 69.8,89.7680683955744 L 67.712,103.6880683955744 M 74.44615384615385,89.7680683955744 L 72.67938461538462,103.6880683955744 M 79.09230769230768,89.7680683955744 L 77.64676923076922,103.6880683955744 M 83.73846153846154,89.7680683955744 L 82.61415384615384,103.6880683955744 M 88.38461538461539,89.7680683955744 L 87.58153846153846,103.6880683955744 M 93.03076923076924,89.7680683955744 L 92.54892307692309,103.6880683955744 M 97.67692307692307,89.7680683955744 L 97.51630769230769,103.6880683955744 M 102.32307692307691,89.7680683955744 L 102.4836923076923,103.6880683955744 M 106.96923076923076,89.7680683955744 L 107.45107692307691,103.6880683955744 M 111.61538461538461,89.7680683955744 L 112.41846153846154,103.6880683955744 M 116.26153846153846,89.7680683955744 L 117.38584615384616,103.6880683955744 M 120.90769230769232,89.7680683955744 L 122.35323076923078,103.6880683955744 M 125.55384615384615,89.7680683955744 L 127.32061538461538,103.6880683955744 M 130.2,89.7680683955744 L 132.28799999999998,103.6880683955744" stroke="#979bc4" stroke-width="0.8" fill="none" opacity="0.7"/>
    <path d="M 62.25,89.7680683955744 Q 62.25,79.3280683955744 100,75.8480683955744 Q 137.75,79.3280683955744 137.75,89.7680683955744" fill="#3275b4" filter="url(#organic)"/>
  </g>
</svg>