<svg xmlns="http://www.w3.org/2000/svg" viewBox="0 0 200 200" width="200" height="200">
  <defs>
    <filter id="organic" x="-5%" y="-5%" width="110%" height="110%">
    <feTurbulence type="fractalNoise" baseFrequency="0.04" numOctaves="3" seed="1" result="noise"/>
    <feDisplacementMap in="SourceGraphic" in2="noise" scale="2" xChannelSelector="R" yChannelSelector="G"/>
  </filter>
  </defs>
  <g>
    <path d="M 95.2,92.90375686569892 Q 94.2,131.45187843284947 94.24,170 L 105.76,170 Q 105.8,131.45187843284947 104.8,92.90375686569892 Z" fill="#a496bf" filter="url(#organic)"/>
    <ellipse cx="100" cy="116.03262980598925" rx="7.199999999999999" ry="2.1599999999999997" fill="none" stroke="currentColor" stroke-width="1.5" opacity="0.6"/>
    <path d="M 65.88,92.90375686569892 L 64.44,102.50375686569893 M 69.89411764705882,92.90375686569892 L 68.62352941176471,102.50375686569893 M 73.90823529411765,92.90375686569892 L 72.80705882352942,102.50375686569893 M 77.92235294117647,92.90375686569892 L 76.99058823529411,102.50375686569893 M 81.9364705882353,92.90375686569892 L 81.17411764705882,102.50375686569893 M 85.95058823529412,92.90375686569892 L 85.35764705882353,102.50375686569893 M 89.96470588235294,92.90375686569892 L 89.54117647058824,102.50375686569893 M 93.97882352941176,92.90375686569892 L 93.72470588235294,102.50375686569893 M 97.9929411764706,92.90375686569892 L 97.90823529411766,102.50375686569893 M 102.0070588235294,92.90375686569892 L 102.09176470588234,102.50375686569893 M 106.02117647058824,92.90375686569892 L 106.27529411764706,102.50375686569893 M 110.03529411764706,92.90375686569892 L 110.45882352941176,102.50375686569893 M 114.0494117647059,92.90375686569892 L 114.64235294117648,102.50375686569893 M 118.0635294117647,92.90375686569892 L 118.82588235294118,102.50375686569893 M 122.07764705882353,92.90375686569892 L 123.00941176470589,102.50375686569893 M 126.09176470588235,92.90375686569892 L 127.19294117647058,102.50375686569893 M 130.1058823529412,92.90375686569892 L 131.37647058823532,102.50375686569893 M 134.12,92.90375686569892 L 135.56,102.50375686569893" stroke="#a496bf" stroke-width="0.8" fill="none" opacity="0.7"/>
    <path d="M 57.349999999999994,92.90375686569892 Q 57.349999999999994,85.70375686569892 100,83.30375686569892 Q 142.65,85.70375686569892 142.65,92.90375686569892" fill="#576cb7" filter="url(#organic)"/>
  </g>
</svg>