<svg xmlns="http://www.w3.org/2000/svg" viewBox="0 0 200 200" width="200" height="200">
  <defs>
    <filter id="organic" x="-5%" y="-5%" width="110%" height="110%">
    <feTurbulence type="fractalNoise" baseFrequency="0.04" numOctaves="3" seed="1" result="noise"/>
    <feDisplacementMap in="SourceGraphic" in2="noise" scale="2" xChannelSelector="R" yChannelSelector="G"/>
  </filter>
  </defs>
  <g>
    <path d="M 96.8,94.15432183143925 Q 95.8,132.07716091571962 96.16,170 L 103.84,170 Q 104.2,132.07716091571962 103.2,94.15432183143925 Z" fill="#78a6bd" filter="url(#organic)"/>
    <path d="M 73.72,94.15432183143925 L 72.28,103.75432183143926 M 79.56,94.15432183143925 L 78.44,103.75432183143926 M 85.4,94.15432183143925 L 84.60000000000001,103.75432183143926 M 91.24,94.15432183143925 L 90.75999999999999,103.75432183143926 M 97.08,94.15432183143925 L 96.92,103.75432183143926 M 102.92,94.15432183143925 L 103.08,103.75432183143926 M 108.75999999999999,94.15432183143925 L 109.24,103.75432183143926 M 114.6,94.15432183143925 L 115.39999999999999,103.75432183143926 M 120.44,94.15432183143925 L 121.56,103.75432183143926 M 126.28,94.15432183143925 L 127.72,103.75432183143926" stroke="#78a6bd" stroke-width="0.8" fill="none" opacity="0.7"/>
    <path d="M 67.15,94.15432183143925 Q 67.15,70.15432183143925 100,70.15432183143925 Q 132.85,70.15432183143925 132.85,94.15432183143925" fill="#00858d" filter="url(#organic)"/>
  </g>
</svg>