<svg xmlns="http://www.w3.org/2000/svg" viewBox="0 0 200 200" width="200" height="200">
  <defs>
    <filter id="organic" x="-5%" y="-5%" width="110%" height="110%">
    <feTurbulence type="fractalNoise" baseFrequency="0.04" numOctaves="3" seed="1" result="noise"/>
    <feDisplacementMap in="SourceGraphic" in2="noise" scale="2" xChannelSelector="R" yChannelSelector="G"/>
  </filter>
  </defs>
  <g>
    <path d="M 96,82.98760881384041 Q 95,126.4938044069202 95.2,170 L 104.8,170 Q 105,126.4938044069202 104,82.98760881384041 Z" fill="#979bc4" filter="url(#organic)"/>
    <ellipse cx="100" cy="109.09132616968829" rx="6" ry="1.7999999999999998" fill="none" stroke="currentColor" stroke-width="1.5" opacity="0.6"/>
    <path d="M 69.8,82.98760881384041 L 68.11699999999999,94.20760881384041 M 74.44615384615385,82.98760881384041 L 73.02207692307692,94.20760881384041 M 79.09230769230768,82.98760881384041 L 77.92715384615384,94.20760881384041 M 83.73846153846154,82.98760881384041 L 82.83223076923076,94.20760881384041 M 88.38461538461539,82.98760881384041 L 87.7373076923077,94.20760881384041 M 93.03076923076924,82.98760881384041 L 92.64238461538463,94.20760881384041 M 97.67692307692307,82.98760881384041 L 97.54746153846153,94.20760881384041 M 102.32307692307691,82.98760881384041 L 102.45253846153845,94.20760881384041 M 106.96923076923076,82.98760881384041 L 107.35761538461537,94.20760881384041 M 111.61538461538461,82.98760881384041 L 112.2626923076923,94.20760881384041 M 116.26153846153846,82.98760881384041 L 117.16776923076924,94.20760881384041 M 120.90769230769232,82.98760881384041 L 122.07284615384616,94.20760881384041 M 125.55384615384615,82.98760881384041 L 126.97792307692308,94.20760881384041 M 130.2,82.98760881384041 L 131.88299999999998,94.20760881384041" stroke="#979bc4" stroke-width="0.8" fill="none" opacity="0.7"/>
    <path d="M 62.25,82.98760881384041 Q 62.25,74.57260881384042 100,71.76760881384041 Q 137.75,74.57260881384042 137.75,82.98760881384041" fill="#3275b4" filter="url(#organic)"/>
  </g>
</svg>