<svg xmlns="http://www.w3.org/2000/svg" viewBox="0 0 200 200" width="200" height="200">
  <defs>
    <filter id="organic" x="-5%" y="-5%" width="110%" height="110%">
    <feTurbulence type="fractalNoise" baseFrequency="0.04" numOctaves="3" seed="1" result="noise"/>
    <feDisplacementMap in="SourceGraphic" in2="noise" scale="2" xChannelSelector="R" yChannelSelector="G"/>
  </filter>
  </defs>
  <g>
    <path d="M 94,72.31955134961206 Q 93,121.15977567480603 92.8,170 L 107.2,170 Q 107,121.15977567480603 106,72.31955134961206 Z" fill="#979bc4" filter="url(#organic)"/>
    <ellipse cx="100" cy="101.62368594472844" rx="9" ry="2.6999999999999997" fill="none" stroke="currentColor" stroke-width="1.5" opacity="0.6"/>
    <path d="M 60,72.31955134961206 L 56.4,96.31955134961206 M 63.47826086956522,72.31955134961206 L 60.19130434782609,96.31955134961206 M 66.95652173913044,72.31955134961206 L 63.982608695652175,96.31955134961206 M 70.43478260869566,72.31955134961206 L 67.77391304347826,96.31955134961206 M 73.91304347826087,72.31955134961206 L 71.56521739130436,96.31955134961206 M 77.3913043478261,72.31955134961206 L 75.35652173913044,96.31955134961206 M 80.86956521739131,72.31955134961206 L 79.14782608695653,96.31955134961206 M 84.34782608695653,72.31955134961206 L 82.93913043478261,96.31955134961206 M 87.82608695652173,72.31955134961206 L 86.7304347826087,96.31955134961206 M 91.30434782608695,72.31955134961206 L 90.52173913043478,96.31955134961206 M 94.78260869565219,72.31955134961206 L 94.31304347826088,96.31955134961206 M 98.2608695652174,72.31955134961206 L 98.10434782608696,96.31955134961206 M 101.73913043478261,72.31955134961206 L 101.89565217391305,96.31955134961206 M 105.21739130434783,72.31955134961206 L 105.68695652173913,96.31955134961206 M 108.69565217391306,72.31955134961206 L 109.47826086956523,96.31955134961206 M 112.17391304347827,72.31955134961206 L 113.2695652173913,96.31955134961206 M 115.65217391304347,72.31955134961206 L 117.06086956521739,96.31955134961206 M 119.13043478260869,72.31955134961206 L 120.85217391304347,96.31955134961206 M 122.6086956521739,72.31955134961206 L 124.64347826086956,96.31955134961206 M 126.08695652173913,72.31955134961206 L 128.43478260869566,96.31955134961206 M 129.56521739130437,72.31955134961206 L 132.22608695652175,96.31955134961206 M 133.04347826086956,72.31955134961206 L 136.01739130434783,96.31955134961206 M 136.5217391304348,72.31955134961206 L 139.80869565217395,96.31955134961206 M 140,72.31955134961206 L 143.6,96.31955134961206" stroke="#979bc4" stroke-width="0.8" fill="none" opacity="0.7"/>
    <path d="M 50,72.31955134961206 Q 50,48.319551349612055 85,36.319551349612055 L 100,12.319551349612055 L 115,36.319551349612055 Q 150,48.319551349612055 150,72.31955134961206" fill="#3275b4" filter="url(#organic)"/>
  </g>
</svg>