<svg xmlns="http://www.w3.org/2000/svg" viewBox="0 0 200 200" width="200" height="200">
  <defs>
    <filter id="organic" x="-5%" y="-5%" width="110%" height="110%">
    <feTurbulence type="fractalNoise" baseFrequency="0.04" numOctaves="3" seed="1" result="noise"/>
    <feDisplacementMap in="SourceGraphic" in2="noise" scale="2" xChannelSelector="R" yChannelSelector="G"/>
  </filter>
  </defs>
  <g>
    <path d="M 95.2,109.10598172041028 Q 94.2,139.55299086020514 94.24,170 L 105.76,170 Q 105.8,139.55299086020514 104.8,109.10598172041028 Z" fill="#a496bf" filter="url(#organic)"/>
    <ellipse cx="100" cy="127.3741872042872" rx="7.199999999999999" ry="2.1599999999999997" fill="none" stroke="currentColor" stroke-width="1.5" opacity="0.6"/>
    <path d="M 65.88,109.10598172041028 L 64.44,118.70598172041028 M 69.89411764705882,109.10598172041028 L 68.62352941176471,118.70598172041028 M 73.90823529411765,109.10598172041028 L 72.80705882352942,118.70598172041028 M 77.92235294117647,109.10598172041028 L 76.99058823529411,118.70598172041028 M 81.9364705882353,109.10598172041028 L 81.17411764705882,118.70598172041028 M 85.95058823529412,109.10598172041028 L 85.35764705882353,118.70598172041028 M 89.96470588235294,109.10598172041028 L 89.54117647058824,118.70598172041028 M 93.97882352941176,109.10598172041028 L 93.72470588235294,118.70598172041028 M 97.9929411764706,109.10598172041028 L 97.90823529411766,118.70598172041028 M 102.0070588235294,109.10598172041028 L 102.09176470588234,118.70598172041028 M 106.02117647058824,109.10598172041028 L 106.27529411764706,118.70598172041028 M 110.03529411764706,109.10598172041028 L 110.45882352941176,118.70598172041028 M 114.0494117647059,109.10598172041028 L 114.64235294117648,118.70598172041028 M 118.0635294117647,109.10598172041028 L 118.82588235294118,118.70598172041028 M 122.07764705882353,109.10598172041028 L 123.00941176470589,118.70598172041028 M 126.09176470588235,109.10598172041028 L 127.19294117647058,118.70598172041028 M 130.1058823529412,109.10598172041028 L 131.37647058823532,118.70598172041028 M 134.12,109.10598172041028 L 135.56,118.70598172041028" stroke="#a496bf" stroke-width="0.8" fill="none" opacity="0.7"/>
    <path d="M 57.349999999999994,109.10598172041028 Q 65.88,92.30598172041029 100,85.10598172041028 Q 134.12,92.30598172041029 142.65,109.10598172041028" fill="#576cb7" filter="url(#organic)"/>
  </g>
</svg>