<svg xmlns="http://www.w3.org/2000/svg" viewBox="0 0 200 200" width="200" height="200">
  <defs>
    <filter id="organic" x="-5%" y="-5%" width="110%" height="110%">
    <feTurbulence type="fractalNoise" baseFrequency="0.04" numOctaves="3" seed="1" result="noise"/>
    <feDisplacementMap in="SourceGraphic" in2="noise" scale="2" xChannelSelector="R" yChannelSelector="G"/>
  </filter>
  </defs>
  <g>
    <path d="M 92,88.6102604330344 Q 91,129.3051302165172 90.4,170 L 109.6,170 Q 109,129.3051302165172 108,88.6102604330344 Z" fill="#979bc4" filter="url(#organic)"/>
    <path d="M 60,88.6102604330344 L 58.398,99.2902604330344 M 63.47826086956522,88.6102604330344 L 62.015565217391305,99.2902604330344 M 66.95652173913044,88.6102604330344 L 65.63313043478261,99.2902604330344 M 70.43478260869566,88.6102604330344 L 69.25069565217392,99.2902604330344 M 73.91304347826087,88.6102604330344 L 72.86826086956522,99.2902604330344 M 77.3913043478261,88.6102604330344 L 76.48582608695652,99.2902604330344 M 80.86956521739131,88.6102604330344 L 80.10339130434784,99.2902604330344 M 84.34782608695653,88.6102604330344 L 83.72095652173914,99.2902604330344 M 87.82608695652173,88.6102604330344 L 87.33852173913043,99.2902604330344 M 91.30434782608695,88.6102604330344 L 90.95608695652173,99.2902604330344 M 94.78260869565219,88.6102604330344 L 94.57365217391306,99.2902604330344 M 98.2608695652174,88.6102604330344 L 98.19121739130436,99.2902604330344 M 101.73913043478261,88.6102604330344 L 101.80878260869565,99.2902604330344 M 105.21739130434783,88.6102604330344 L 105.42634782608695,99.2902604330344 M 108.69565217391306,88.6102604330344 L 109.04391304347828,99.2902604330344 M 112.17391304347827,88.6102604330344 L 112.66147826086957,99.2902604330344 M 115.65217391304347,88.6102604330344 L 116.27904347826086,99.2902604330344 M 119.13043478260869,88.6102604330344 L 119.89660869565216,99.2902604330344 M 122.6086956521739,88.6102604330344 L 123.51417391304348,99.2902604330344 M 126.08695652173913,88.6102604330344 L 127.13173913043478,99.2902604330344 M 129.56521739130437,88.6102604330344 L 130.74930434782613,99.2902604330344 M 133.04347826086956,88.6102604330344 L 134.3668695652174,99.2902604330344 M 136.5217391304348,88.6102604330344 L 137.98443478260873,99.2902604330344 M 140,88.6102604330344 L 141.602,99.2902604330344" stroke="#979bc4" stroke-width="0.8" fill="none" opacity="0.7"/>
    <path d="M 50,77.93026043303439 Q 65,88.6102604330344 100,83.2702604330344 Q 135,88.6102604330344 150,77.93026043303439" fill="#3275b4" filter="url(#organic)"/>
    <circle cx="75.0" cy="69.9" r="3" fill="white" opacity="0.85"/>
    <circle cx="115.0" cy="67.3" r="2.5" fill="white" opacity="0.85"/>
    <circle cx="95.0" cy="65.9" r="2" fill="white" opacity="0.85"/>
    <circle cx="130.0" cy="72.6" r="2" fill="white" opacity="0.85"/>
    <circle cx="70.0" cy="75.3" r="1.5" fill="white" opacity="0.85"/>
    <circle cx="105.0" cy="75.3" r="2.5" fill="white" opacity="0.85"/>
  </g>
</svg>