<svg xmlns="http://www.w3.org/2000/svg" viewBox="0 0 200 200" width="200" height="200">
  <defs>
    <filter id="organic" x="-5%" y="-5%" width="110%" height="110%">
    <feTurbulence type="fractalNoise" baseFrequency="0.04" numOctaves="3" seed="1" result="noise"/>
    <feDisplacementMap in="SourceGraphic" in2="noise" scale="2" xChannelSelector="R" yChannelSelector="G"/>
  </filter>
  </defs>
  <g>
    <path d="M 92,103.96948137900455 Q 91,136.98474068950227 90.4,170 L 109.6,170 Q 109,136.98474068950227 108,103.96948137900455 Z" fill="#979bc4" filter="url(#organic)"/>
    <ellipse cx="100" cy="123.77863696530318" rx="12" ry="3.5999999999999996" fill="none" stroke="currentColor" stroke-width="1.5" opacity="0.6"/>
    <path d="M 60,103.96948137900455 L 58.398,114.64948137900456 M 63.47826086956522,103.96948137900455 L 62.015565217391305,114.64948137900456 M 66.95652173913044,103.96948137900455 L 65.63313043478261,114.64948137900456 M 70.43478260869566,103.96948137900455 L 69.25069565217392,114.64948137900456 M 73.91304347826087,103.96948137900455 L 72.86826086956522,114.64948137900456 M 77.3913043478261,103.96948137900455 L 76.48582608695652,114.64948137900456 M 80.86956521739131,103.96948137900455 L 80.10339130434784,114.64948137900456 M 84.34782608695653,103.96948137900455 L 83.72095652173914,114.64948137900456 M 87.82608695652173,103.96948137900455 L 87.33852173913043,114.64948137900456 M 91.30434782608695,103.96948137900455 L 90.95608695652173,114.64948137900456 M 94.78260869565219,103.96948137900455 L 94.57365217391306,114.64948137900456 M 98.2608695652174,103.96948137900455 L 98.19121739130436,114.64948137900456 M 101.73913043478261,103.96948137900455 L 101.80878260869565,114.64948137900456 M 105.21739130434783,103.96948137900455 L 105.42634782608695,114.64948137900456 M 108.69565217391306,103.96948137900455 L 109.04391304347828,114.64948137900456 M 112.17391304347827,103.96948137900455 L 112.66147826086957,114.64948137900456 M 115.65217391304347,103.96948137900455 L 116.27904347826086,114.64948137900456 M 119.13043478260869,103.96948137900455 L 119.89660869565216,114.64948137900456 M 122.6086956521739,103.96948137900455 L 123.51417391304348,114.64948137900456 M 126.08695652173913,103.96948137900455 L 127.13173913043478,114.64948137900456 M 129.56521739130437,103.96948137900455 L 130.74930434782613,114.64948137900456 M 133.04347826086956,103.96948137900455 L 134.3668695652174,114.64948137900456 M 136.5217391304348,103.96948137900455 L 137.98443478260873,114.64948137900456 M 140,103.96948137900455 L 141.602,114.64948137900456" stroke="#979bc4" stroke-width="0.8" fill="none" opacity="0.7"/>
    <path d="M 50,103.96948137900455 Q 60,85.27948137900455 100,77.26948137900455 Q 140,85.27948137900455 150,103.96948137900455" fill="#3275b4" filter="url(#organic)"/>
  </g>
</svg>