<svg xmlns="http://www.w3.org/2000/svg" viewBox="0 0 200 200" width="200" height="200">
  <defs>
    <filter id="organic" x="-5%" y="-5%" width="110%" height="110%">
    <feTurbulence type="fractalNoise" baseFrequency="0.04" numOctaves="3" seed="1" result="noise"/>
    <feDisplacementMap in="SourceGraphic" in2="noise" scale="2" xChannelSelector="R" yChannelSelector="G"/>
  </filter>
  </defs>
  <g>
    <path d="M 92,103.96948137900455 Q 91,136.98474068950227 90.4,170 L 109.6,170 Q 109,136.98474068950227 108,103.96948137900455 Z" fill="#979bc4" filter="url(#organic)"/>
    <path d="M 60,103.96948137900455 L 58.479,114.10948137900455 M 63.47826086956522,103.96948137900455 L 62.08952173913043,114.10948137900455 M 66.95652173913044,103.96948137900455 L 65.70004347826087,114.10948137900455 M 70.43478260869566,103.96948137900455 L 69.31056521739131,114.10948137900455 M 73.91304347826087,103.96948137900455 L 72.92108695652175,114.10948137900455 M 77.3913043478261,103.96948137900455 L 76.53160869565218,114.10948137900455 M 80.86956521739131,103.96948137900455 L 80.14213043478262,114.10948137900455 M 84.34782608695653,103.96948137900455 L 83.75265217391305,114.10948137900455 M 87.82608695652173,103.96948137900455 L 87.36317391304347,114.10948137900455 M 91.30434782608695,103.96948137900455 L 90.97369565217392,114.10948137900455 M 94.78260869565219,103.96948137900455 L 94.58421739130436,114.10948137900455 M 98.2608695652174,103.96948137900455 L 98.1947391304348,114.10948137900455 M 101.73913043478261,103.96948137900455 L 101.80526086956522,114.10948137900455 M 105.21739130434783,103.96948137900455 L 105.41578260869565,114.10948137900455 M 108.69565217391306,103.96948137900455 L 109.0263043478261,114.10948137900455 M 112.17391304347827,103.96948137900455 L 112.63682608695653,114.10948137900455 M 115.65217391304347,103.96948137900455 L 116.24734782608695,114.10948137900455 M 119.13043478260869,103.96948137900455 L 119.85786956521738,114.10948137900455 M 122.6086956521739,103.96948137900455 L 123.46839130434782,114.10948137900455 M 126.08695652173913,103.96948137900455 L 127.07891304347825,114.10948137900455 M 129.56521739130437,103.96948137900455 L 130.6894347826087,114.10948137900455 M 133.04347826086956,103.96948137900455 L 134.29995652173912,114.10948137900455 M 136.5217391304348,103.96948137900455 L 137.91047826086958,114.10948137900455 M 140,103.96948137900455 L 141.521,114.10948137900455" stroke="#979bc4" stroke-width="0.8" fill="none" opacity="0.7"/>
    <path d="M 50,93.82948137900456 Q 65,103.96948137900455 100,98.89948137900456 Q 135,103.96948137900455 150,93.82948137900456" fill="#3275b4" filter="url(#organic)"/>
    <circle cx="75.0" cy="86.2" r="3" fill="white" opacity="0.85"/>
    <circle cx="115.0" cy="83.7" r="2.5" fill="white" opacity="0.85"/>
    <circle cx="95.0" cy="82.4" r="2" fill="white" opacity="0.85"/>
    <circle cx="130.0" cy="88.8" r="2" fill="white" opacity="0.85"/>
    <circle cx="70.0" cy="91.3" r="1.5" fill="white" opacity="0.85"/>
    <circle cx="105.0" cy="91.3" r="2.5" fill="white" opacity="0.85"/>
  </g>
</svg>