<svg xmlns="http://www.w3.org/2000/svg" viewBox="0 0 200 200" width="200" height="200">
  <defs>
    <filter id="organic" x="-5%" y="-5%" width="110%" height="110%">
    <feTurbulence type="fractalNoise" baseFrequency="0.04" numOctaves="3" seed="1" result="noise"/>
    <feDisplacementMap in="SourceGraphic" in2="noise" scale="2" xChannelSelector="R" yChannelSelector="G"/>
  </filter>
  </defs>
  <g>
    <path d="M 96.4,80.11912962356581 Q 95.4,125.0595648117829 95.68,170 L 104.32,170 Q 104.6,125.0595648117829 103.6,80.11912962356581 Z" fill="#82a2c3" filter="url(#organic)"/>
    <ellipse cx="100" cy="107.08339073649607" rx="5.4" ry="1.62" fill="none" stroke="currentColor" stroke-width="1.5" opacity="0.6"/>
    <path d="M 71.75999999999999,80.11912962356581 L 70.32,89.7191296235658 M 76.89454545454545,80.11912962356581 L 75.71636363636364,89.7191296235658 M 82.0290909090909,80.11912962356581 L 81.11272727272726,89.7191296235658 M 87.16363636363636,80.11912962356581 L 86.5090909090909,89.7191296235658 M 92.29818181818182,80.11912962356581 L 91.90545454545455,89.7191296235658 M 97.43272727272726,80.11912962356581 L 97.30181818181818,89.7191296235658 M 102.56727272727272,80.11912962356581 L 102.69818181818181,89.7191296235658 M 107.70181818181817,80.11912962356581 L 108.09454545454544,89.7191296235658 M 112.83636363636364,80.11912962356581 L 113.4909090909091,89.7191296235658 M 117.97090909090909,80.11912962356581 L 118.88727272727273,89.7191296235658 M 123.10545454545453,80.11912962356581 L 124.28363636363635,89.7191296235658 M 128.24,80.11912962356581 L 129.68,89.7191296235658" stroke="#82a2c3" stroke-width="0.8" fill="none" opacity="0.7"/>
    <path d="M 64.69999999999999,80.11912962356581 Q 64.69999999999999,72.91912962356581 100,70.51912962356582 Q 135.3,72.91912962356581 135.3,80.11912962356581" fill="#0080a2" filter="url(#organic)"/>
  </g>
</svg>