<svg xmlns="http://www.w3.org/2000/svg" viewBox="0 0 200 200" width="200" height="200">
  <defs>
    <filter id="organic" x="-5%" y="-5%" width="110%" height="110%">
    <feTurbulence type="fractalNoise" baseFrequency="0.04" numOctaves="3" seed="1" result="noise"/>
    <feDisplacementMap in="SourceGraphic" in2="noise" scale="2" xChannelSelector="R" yChannelSelector="G"/>
  </filter>
  </defs>
  <g>
    <path d="M 92,88.30164031434059 Q 91,129.1508201571703 90.4,170 L 109.6,170 Q 109,129.1508201571703 108,88.30164031434059 Z" fill="#979bc4" filter="url(#organic)"/>
    <path d="M 60,88.30164031434059 L 57.102,107.6216403143406 M 63.47826086956522,88.30164031434059 L 60.83226086956522,107.6216403143406 M 66.95652173913044,88.30164031434059 L 64.56252173913043,107.6216403143406 M 70.43478260869566,88.30164031434059 L 68.29278260869566,107.6216403143406 M 73.91304347826087,88.30164031434059 L 72.02304347826087,107.6216403143406 M 77.3913043478261,88.30164031434059 L 75.75330434782609,107.6216403143406 M 80.86956521739131,88.30164031434059 L 79.48356521739132,107.6216403143406 M 84.34782608695653,88.30164031434059 L 83.21382608695653,107.6216403143406 M 87.82608695652173,88.30164031434059 L 86.94408695652173,107.6216403143406 M 91.30434782608695,88.30164031434059 L 90.67434782608696,107.6216403143406 M 94.78260869565219,88.30164031434059 L 94.40460869565219,107.6216403143406 M 98.2608695652174,88.30164031434059 L 98.1348695652174,107.6216403143406 M 101.73913043478261,88.30164031434059 L 101.86513043478261,107.6216403143406 M 105.21739130434783,88.30164031434059 L 105.59539130434783,107.6216403143406 M 108.69565217391306,88.30164031434059 L 109.32565217391306,107.6216403143406 M 112.17391304347827,88.30164031434059 L 113.05591304347827,107.6216403143406 M 115.65217391304347,88.30164031434059 L 116.78617391304347,107.6216403143406 M 119.13043478260869,88.30164031434059 L 120.51643478260868,107.6216403143406 M 122.6086956521739,88.30164031434059 L 124.24669565217391,107.6216403143406 M 126.08695652173913,88.30164031434059 L 127.97695652173913,107.6216403143406 M 129.56521739130437,88.30164031434059 L 131.70721739130437,107.6216403143406 M 133.04347826086956,88.30164031434059 L 135.43747826086957,107.6216403143406 M 136.5217391304348,88.30164031434059 L 139.1677391304348,107.6216403143406 M 140,88.30164031434059 L 142.898,107.6216403143406" stroke="#979bc4" stroke-width="0.8" fill="none" opacity="0.7"/>
    <path d="M 50,68.98164031434058 Q 65,88.30164031434059 100,78.64164031434059 Q 135,88.30164031434059 150,68.98164031434058" fill="#3275b4" filter="url(#organic)"/>
  </g>
</svg>