<svg xmlns="http://www.w3.org/2000/svg" viewBox="0 0 200 200" width="200" height="200">
  <defs>
    <filter id="organic" x="-5%" y="-5%" width="110%" height="110%">
    <feTurbulence type="fractalNoise" baseFrequency="0.04" numOctaves="3" seed="1" result="noise"/>
    <feDisplacementMap in="SourceGraphic" in2="noise" scale="2" xChannelSelector="R" yChannelSelector="G"/>
  </filter>
  </defs>
  <g>
    <path d="M 92,90.39869845516228 Q 91,130.19934922758114 90.4,170 L 109.6,170 Q 109,130.19934922758114 108,90.39869845516228 Z" fill="#979bc4" filter="url(#organic)"/>
    <ellipse cx="100" cy="114.2790889186136" rx="12" ry="3.5999999999999996" fill="none" stroke="currentColor" stroke-width="1.5" opacity="0.6"/>
    <path d="M 60,90.39869845516228 L 58.479,100.53869845516228 M 63.47826086956522,90.39869845516228 L 62.08952173913043,100.53869845516228 M 66.95652173913044,90.39869845516228 L 65.70004347826087,100.53869845516228 M 70.43478260869566,90.39869845516228 L 69.31056521739131,100.53869845516228 M 73.91304347826087,90.39869845516228 L 72.92108695652175,100.53869845516228 M 77.3913043478261,90.39869845516228 L 76.53160869565218,100.53869845516228 M 80.86956521739131,90.39869845516228 L 80.14213043478262,100.53869845516228 M 84.34782608695653,90.39869845516228 L 83.75265217391305,100.53869845516228 M 87.82608695652173,90.39869845516228 L 87.36317391304347,100.53869845516228 M 91.30434782608695,90.39869845516228 L 90.97369565217392,100.53869845516228 M 94.78260869565219,90.39869845516228 L 94.58421739130436,100.53869845516228 M 98.2608695652174,90.39869845516228 L 98.1947391304348,100.53869845516228 M 101.73913043478261,90.39869845516228 L 101.80526086956522,100.53869845516228 M 105.21739130434783,90.39869845516228 L 105.41578260869565,100.53869845516228 M 108.69565217391306,90.39869845516228 L 109.0263043478261,100.53869845516228 M 112.17391304347827,90.39869845516228 L 112.63682608695653,100.53869845516228 M 115.65217391304347,90.39869845516228 L 116.24734782608695,100.53869845516228 M 119.13043478260869,90.39869845516228 L 119.85786956521738,100.53869845516228 M 122.6086956521739,90.39869845516228 L 123.46839130434782,100.53869845516228 M 126.08695652173913,90.39869845516228 L 127.07891304347825,100.53869845516228 M 129.56521739130437,90.39869845516228 L 130.6894347826087,100.53869845516228 M 133.04347826086956,90.39869845516228 L 134.29995652173912,100.53869845516228 M 136.5217391304348,90.39869845516228 L 137.91047826086958,100.53869845516228 M 140,90.39869845516228 L 141.521,100.53869845516228" stroke="#979bc4" stroke-width="0.8" fill="none" opacity="0.7"/>
    <path d="M 50,90.39869845516228 Q 50,82.79369845516229 100,80.25869845516229 Q 150,82.79369845516229 150,90.39869845516228" fill="#3275b4" filter="url(#organic)"/>
  </g>
</svg>