<svg xmlns="http://www.w3.org/2000/svg" viewBox="0 0 200 200" width="200" height="200">
  <defs>
    <filter id="organic" x="-5%" y="-5%" width="110%" height="110%">
    <feTurbulence type="fractalNoise" baseFrequency="0.04" numOctaves="3" seed="1" result="noise"/>
    <feDisplacementMap in="SourceGraphic" in2="noise" scale="2" xChannelSelector="R" yChannelSelector="G"/>
  </filter>
  </defs>
  <g>
    <path d="M 95.2,84.94650466668402 Q 94.2,127.473252333342 94.24,170 L 105.76,170 Q 105.8,127.473252333342 104.8,84.94650466668402 Z" fill="#78a6bd" filter="url(#organic)"/>
    <ellipse cx="100" cy="110.46255326667881" rx="7.199999999999999" ry="2.1599999999999997" fill="none" stroke="currentColor" stroke-width="1.5" opacity="0.6"/>
    <path d="M 65.88,84.94650466668402 L 64.44,94.54650466668403 M 69.89411764705882,84.94650466668402 L 68.62352941176471,94.54650466668403 M 73.90823529411765,84.94650466668402 L 72.80705882352942,94.54650466668403 M 77.92235294117647,84.94650466668402 L 76.99058823529411,94.54650466668403 M 81.9364705882353,84.94650466668402 L 81.17411764705882,94.54650466668403 M 85.95058823529412,84.94650466668402 L 85.35764705882353,94.54650466668403 M 89.96470588235294,84.94650466668402 L 89.54117647058824,94.54650466668403 M 93.97882352941176,84.94650466668402 L 93.72470588235294,94.54650466668403 M 97.9929411764706,84.94650466668402 L 97.90823529411766,94.54650466668403 M 102.0070588235294,84.94650466668402 L 102.09176470588234,94.54650466668403 M 106.02117647058824,84.94650466668402 L 106.27529411764706,94.54650466668403 M 110.03529411764706,84.94650466668402 L 110.45882352941176,94.54650466668403 M 114.0494117647059,84.94650466668402 L 114.64235294117648,94.54650466668403 M 118.0635294117647,84.94650466668402 L 118.82588235294118,94.54650466668403 M 122.07764705882353,84.94650466668402 L 123.00941176470589,94.54650466668403 M 126.09176470588235,84.94650466668402 L 127.19294117647058,94.54650466668403 M 130.1058823529412,84.94650466668402 L 131.37647058823532,94.54650466668403 M 134.12,84.94650466668402 L 135.56,94.54650466668403" stroke="#78a6bd" stroke-width="0.8" fill="none" opacity="0.7"/>
    <path d="M 57.349999999999994,84.94650466668402 Q 57.349999999999994,77.74650466668402 100,75.34650466668401 Q 142.65,77.74650466668402 142.65,84.94650466668402" fill="#00858d" filter="url(#organic)"/>
  </g>
</svg>