<svg xmlns="http://www.w3.org/2000/svg" viewBox="0 0 200 200" width="200" height="200">
  <defs>
    <filter id="organic" x="-5%" y="-5%" width="110%" height="110%">
    <feTurbulence type="fractalNoise" baseFrequency="0.04" numOctaves="3" seed="1" result="noise"/>
    <feDisplacementMap in="SourceGraphic" in2="noise" scale="2" xChannelSelector="R" yChannelSelector="G"/>
  </filter>
  </defs>
  <g>
    <path d="M 92.8,96.36363636363637 Q 91.8,133.1818181818182 91.36,170 L 108.64,170 Q 108.2,133.1818181818182 107.2,96.36363636363637 Z" fill="#979bc4" filter="url(#organic)"/>
    <ellipse cx="100" cy="118.45454545454547" rx="10.8" ry="3.24" fill="none" stroke="currentColor" stroke-width="1.5" opacity="0.6"/>
    <path d="M 60,96.36363636363637 L 58.479,106.50363636363637 M 63.47826086956522,96.36363636363637 L 62.08952173913043,106.50363636363637 M 66.95652173913044,96.36363636363637 L 65.70004347826087,106.50363636363637 M 70.43478260869566,96.36363636363637 L 69.31056521739131,106.50363636363637 M 73.91304347826087,96.36363636363637 L 72.92108695652175,106.50363636363637 M 77.3913043478261,96.36363636363637 L 76.53160869565218,106.50363636363637 M 80.86956521739131,96.36363636363637 L 80.14213043478262,106.50363636363637 M 84.34782608695653,96.36363636363637 L 83.75265217391305,106.50363636363637 M 87.82608695652173,96.36363636363637 L 87.36317391304347,106.50363636363637 M 91.30434782608695,96.36363636363637 L 90.97369565217392,106.50363636363637 M 94.78260869565219,96.36363636363637 L 94.58421739130436,106.50363636363637 M 98.2608695652174,96.36363636363637 L 98.1947391304348,106.50363636363637 M 101.73913043478261,96.36363636363637 L 101.80526086956522,106.50363636363637 M 105.21739130434783,96.36363636363637 L 105.41578260869565,106.50363636363637 M 108.69565217391306,96.36363636363637 L 109.0263043478261,106.50363636363637 M 112.17391304347827,96.36363636363637 L 112.63682608695653,106.50363636363637 M 115.65217391304347,96.36363636363637 L 116.24734782608695,106.50363636363637 M 119.13043478260869,96.36363636363637 L 119.85786956521738,106.50363636363637 M 122.6086956521739,96.36363636363637 L 123.46839130434782,106.50363636363637 M 126.08695652173913,96.36363636363637 L 127.07891304347825,106.50363636363637 M 129.56521739130437,96.36363636363637 L 130.6894347826087,106.50363636363637 M 133.04347826086956,96.36363636363637 L 134.29995652173912,106.50363636363637 M 136.5217391304348,96.36363636363637 L 137.91047826086958,106.50363636363637 M 140,96.36363636363637 L 141.521,106.50363636363637" stroke="#979bc4" stroke-width="0.8" fill="none" opacity="0.7"/>
    <path d="M 50,96.36363636363637 Q 50,88.75863636363638 100,86.22363636363639 Q 150,88.75863636363638 150,96.36363636363637" fill="#3275b4" filter="url(#organic)"/>
  </g>
</svg>