<svg xmlns="http://www.w3.org/2000/svg" viewBox="0 0 200 200" width="200" height="200">
  <defs>
    <filter id="organic" x="-5%" y="-5%" width="110%" height="110%">
    <feTurbulence type="fractalNoise" baseFrequency="0.04" numOctaves="3" seed="1" result="noise"/>
    <feDisplacementMap in="SourceGraphic" in2="noise" scale="2" xChannelSelector="R" yChannelSelector="G"/>
  </filter>
  </defs>
  <g>
    <path d="M 92,88.76804276830215 Q 91,129.38402138415108 90.4,170 L 109.6,170 Q 109,129.38402138415108 108,88.76804276830215 Z" fill="#979bc4" filter="url(#organic)"/>
    <ellipse cx="100" cy="113.13762993781151" rx="12" ry="3.5999999999999996" fill="none" stroke="currentColor" stroke-width="1.5" opacity="0.6"/>
    <path d="M 60,88.76804276830215 L 58.236,100.52804276830216 M 63.47826086956522,88.76804276830215 L 61.867652173913044,100.52804276830216 M 66.95652173913044,88.76804276830215 L 65.49930434782608,100.52804276830216 M 70.43478260869566,88.76804276830215 L 69.13095652173914,100.52804276830216 M 73.91304347826087,88.76804276830215 L 72.76260869565218,100.52804276830216 M 77.3913043478261,88.76804276830215 L 76.39426086956523,100.52804276830216 M 80.86956521739131,88.76804276830215 L 80.02591304347827,100.52804276830216 M 84.34782608695653,88.76804276830215 L 83.65756521739131,100.52804276830216 M 87.82608695652173,88.76804276830215 L 87.28921739130435,100.52804276830216 M 91.30434782608695,88.76804276830215 L 90.92086956521739,100.52804276830216 M 94.78260869565219,88.76804276830215 L 94.55252173913044,100.52804276830216 M 98.2608695652174,88.76804276830215 L 98.1841739130435,100.52804276830216 M 101.73913043478261,88.76804276830215 L 101.81582608695652,100.52804276830216 M 105.21739130434783,88.76804276830215 L 105.44747826086957,100.52804276830216 M 108.69565217391306,88.76804276830215 L 109.07913043478263,100.52804276830216 M 112.17391304347827,88.76804276830215 L 112.71078260869565,100.52804276830216 M 115.65217391304347,88.76804276830215 L 116.34243478260869,100.52804276830216 M 119.13043478260869,88.76804276830215 L 119.97408695652173,100.52804276830216 M 122.6086956521739,88.76804276830215 L 123.60573913043477,100.52804276830216 M 126.08695652173913,88.76804276830215 L 127.23739130434782,100.52804276830216 M 129.56521739130437,88.76804276830215 L 130.8690434782609,100.52804276830216 M 133.04347826086956,88.76804276830215 L 134.5006956521739,100.52804276830216 M 136.5217391304348,88.76804276830215 L 138.13234782608697,100.52804276830216 M 140,88.76804276830215 L 141.764,100.52804276830216" stroke="#979bc4" stroke-width="0.8" fill="none" opacity="0.7"/>
    <path d="M 50,77.00804276830215 Q 65,88.76804276830215 100,82.88804276830216 Q 135,88.76804276830215 150,77.00804276830215" fill="#3275b4" filter="url(#organic)"/>
    <circle cx="75.0" cy="68.2" r="3" fill="white" opacity="0.85"/>
    <circle cx="115.0" cy="65.2" r="2.5" fill="white" opacity="0.85"/>
    <circle cx="95.0" cy="63.8" r="2" fill="white" opacity="0.85"/>
    <circle cx="130.0" cy="71.1" r="2" fill="white" opacity="0.85"/>
    <circle cx="70.0" cy="74.1" r="1.5" fill="white" opacity="0.85"/>
    <circle cx="105.0" cy="74.1" r="2.5" fill="white" opacity="0.85"/>
  </g>
</svg>