<svg xmlns="http://www.w3.org/2000/svg" viewBox="0 0 200 200" width="200" height="200">
  <defs>
    <filter id="organic" x="-5%" y="-5%" width="110%" height="110%">
    <feTurbulence type="fractalNoise" baseFrequency="0.04" numOctaves="3" seed="1" result="noise"/>
    <feDisplacementMap in="SourceGraphic" in2="noise" scale="2" xChannelSelector="R" yChannelSelector="G"/>
  </filter>
  </defs>
  <g>
    <path d="M 92,84.4083186198202 Q 91,127.2041593099101 90.4,170 L 109.6,170 Q 109,127.2041593099101 108,84.4083186198202 Z" fill="#979bc4" filter="url(#organic)"/>
    <ellipse cx="100" cy="110.08582303387414" rx="12" ry="3.5999999999999996" fill="none" stroke="currentColor" stroke-width="1.5" opacity="0.6"/>
    <path d="M 60,84.4083186198202 L 58.074,97.2483186198202 M 63.47826086956522,84.4083186198202 L 61.71973913043478,97.2483186198202 M 66.95652173913044,84.4083186198202 L 65.36547826086957,97.2483186198202 M 70.43478260869566,84.4083186198202 L 69.01121739130436,97.2483186198202 M 73.91304347826087,84.4083186198202 L 72.65695652173913,97.2483186198202 M 77.3913043478261,84.4083186198202 L 76.30269565217392,97.2483186198202 M 80.86956521739131,84.4083186198202 L 79.9484347826087,97.2483186198202 M 84.34782608695653,84.4083186198202 L 83.59417391304349,97.2483186198202 M 87.82608695652173,84.4083186198202 L 87.23991304347825,97.2483186198202 M 91.30434782608695,84.4083186198202 L 90.88565217391304,97.2483186198202 M 94.78260869565219,84.4083186198202 L 94.53139130434784,97.2483186198202 M 98.2608695652174,84.4083186198202 L 98.17713043478263,97.2483186198202 M 101.73913043478261,84.4083186198202 L 101.82286956521739,97.2483186198202 M 105.21739130434783,84.4083186198202 L 105.46860869565218,97.2483186198202 M 108.69565217391306,84.4083186198202 L 109.11434782608697,97.2483186198202 M 112.17391304347827,84.4083186198202 L 112.76008695652175,97.2483186198202 M 115.65217391304347,84.4083186198202 L 116.40582608695651,97.2483186198202 M 119.13043478260869,84.4083186198202 L 120.0515652173913,97.2483186198202 M 122.6086956521739,84.4083186198202 L 123.69730434782608,97.2483186198202 M 126.08695652173913,84.4083186198202 L 127.34304347826087,97.2483186198202 M 129.56521739130437,84.4083186198202 L 130.9887826086957,97.2483186198202 M 133.04347826086956,84.4083186198202 L 134.63452173913043,97.2483186198202 M 136.5217391304348,84.4083186198202 L 138.28026086956524,97.2483186198202 M 140,84.4083186198202 L 141.926,97.2483186198202" stroke="#979bc4" stroke-width="0.8" fill="none" opacity="0.7"/>
    <path d="M 50,84.4083186198202 Q 50,74.7783186198202 100,71.56831861982019 Q 150,74.7783186198202 150,84.4083186198202" fill="#3275b4" filter="url(#organic)"/>
  </g>
</svg>