<svg xmlns="http://www.w3.org/2000/svg" viewBox="0 0 200 200" width="200" height="200">
  <defs>
    <filter id="organic" x="-5%" y="-5%" width="110%" height="110%">
    <feTurbulence type="fractalNoise" baseFrequency="0.04" numOctaves="3" seed="1" result="noise"/>
    <feDisplacementMap in="SourceGraphic" in2="noise" scale="2" xChannelSelector="R" yChannelSelector="G"/>
  </filter>
  </defs>
  <g>
    <path d="M 94.8,77.64620227277584 Q 93.8,123.82310113638792 93.76,170 L 106.24,170 Q 106.2,123.82310113638792 105.2,77.64620227277584 Z" fill="#979bc4" filter="url(#organic)"/>
    <ellipse cx="100" cy="105.35234159094308" rx="7.800000000000001" ry="2.3400000000000003" fill="none" stroke="currentColor" stroke-width="1.5" opacity="0.6"/>
    <path d="M 63.919999999999995,77.64620227277584 L 60.31999999999999,101.64620227277584 M 67.7178947368421,77.64620227277584 L 64.49684210526316,101.64620227277584 M 71.51578947368421,77.64620227277584 L 68.67368421052632,101.64620227277584 M 75.3136842105263,77.64620227277584 L 72.85052631578947,101.64620227277584 M 79.11157894736841,77.64620227277584 L 77.02736842105263,101.64620227277584 M 82.90947368421052,77.64620227277584 L 81.20421052631579,101.64620227277584 M 86.70736842105262,77.64620227277584 L 85.38105263157894,101.64620227277584 M 90.50526315789475,77.64620227277584 L 89.55789473684212,101.64620227277584 M 94.30315789473684,77.64620227277584 L 93.73473684210526,101.64620227277584 M 98.10105263157894,77.64620227277584 L 97.91157894736841,101.64620227277584 M 101.89894736842106,77.64620227277584 L 102.08842105263159,101.64620227277584 M 105.69684210526316,77.64620227277584 L 106.26526315789474,101.64620227277584 M 109.49473684210525,77.64620227277584 L 110.44210526315788,101.64620227277584 M 113.29263157894738,77.64620227277584 L 114.61894736842106,101.64620227277584 M 117.09052631578948,77.64620227277584 L 118.79578947368421,101.64620227277584 M 120.8884210526316,77.64620227277584 L 122.97263157894739,101.64620227277584 M 124.6863157894737,77.64620227277584 L 127.14947368421053,101.64620227277584 M 128.4842105263158,77.64620227277584 L 131.32631578947368,101.64620227277584 M 132.2821052631579,77.64620227277584 L 135.50315789473683,101.64620227277584 M 136.08,77.64620227277584 L 139.68,101.64620227277584" stroke="#979bc4" stroke-width="0.8" fill="none" opacity="0.7"/>
    <path d="M 54.89999999999999,77.64620227277584 Q 54.89999999999999,53.64620227277584 86.47,41.64620227277584 L 100,17.646202272775838 L 113.53,41.64620227277584 Q 145.10000000000002,53.64620227277584 145.10000000000002,77.64620227277584" fill="#3275b4" filter="url(#organic)"/>
  </g>
</svg>