<svg xmlns="http://www.w3.org/2000/svg" viewBox="0 0 200 200" width="200" height="200">
  <defs>
    <filter id="organic" x="-5%" y="-5%" width="110%" height="110%">
    <feTurbulence type="fractalNoise" baseFrequency="0.04" numOctaves="3" seed="1" result="noise"/>
    <feDisplacementMap in="SourceGraphic" in2="noise" scale="2" xChannelSelector="R" yChannelSelector="G"/>
  </filter>
  </defs>
  <g>
    <path d="M 95.6,84.83663635839159 Q 94.6,127.4183181791958 94.72,170 L 105.28,170 Q 105.4,127.4183181791958 104.4,84.83663635839159 Z" fill="#979bc4" filter="url(#organic)"/>
    <ellipse cx="100" cy="110.38564545087411" rx="6.6000000000000005" ry="1.98" fill="none" stroke="currentColor" stroke-width="1.5" opacity="0.6"/>
    <path d="M 67.84,84.83663635839159 L 65.428,100.91663635839159 M 72.128,84.83663635839159 L 70.0376,100.91663635839159 M 76.416,84.83663635839159 L 74.6472,100.91663635839159 M 80.70400000000001,84.83663635839159 L 79.25680000000001,100.91663635839159 M 84.992,84.83663635839159 L 83.8664,100.91663635839159 M 89.28,84.83663635839159 L 88.476,100.91663635839159 M 93.56800000000001,84.83663635839159 L 93.08560000000001,100.91663635839159 M 97.85600000000001,84.83663635839159 L 97.69520000000001,100.91663635839159 M 102.144,84.83663635839159 L 102.3048,100.91663635839159 M 106.43200000000002,84.83663635839159 L 106.91440000000001,100.91663635839159 M 110.72,84.83663635839159 L 111.524,100.91663635839159 M 115.00800000000001,84.83663635839159 L 116.13360000000002,100.91663635839159 M 119.29600000000002,84.83663635839159 L 120.74320000000002,100.91663635839159 M 123.584,84.83663635839159 L 125.3528,100.91663635839159 M 127.87200000000001,84.83663635839159 L 129.9624,100.91663635839159 M 132.16000000000003,84.83663635839159 L 134.57200000000003,100.91663635839159" stroke="#979bc4" stroke-width="0.8" fill="none" opacity="0.7"/>
    <path d="M 59.8,84.83663635839159 Q 59.8,72.77663635839158 100,68.75663635839159 Q 140.2,72.77663635839158 140.2,84.83663635839159" fill="#3275b4" filter="url(#organic)"/>
  </g>
</svg>