<svg xmlns="http://www.w3.org/2000/svg" viewBox="0 0 200 200" width="200" height="200">
  <defs>
    <filter id="organic" x="-5%" y="-5%" width="110%" height="110%">
    <feTurbulence type="fractalNoise" baseFrequency="0.04" numOctaves="3" seed="1" result="noise"/>
    <feDisplacementMap in="SourceGraphic" in2="noise" scale="2" xChannelSelector="R" yChannelSelector="G"/>
  </filter>
  </defs>
  <g>
    <path d="M 94.8,97.39650185361766 Q 93.8,133.69825092680884 93.76,170 L 106.24,170 Q 106.2,133.69825092680884 105.2,97.39650185361766 Z" fill="#979bc4" filter="url(#organic)"/>
    <ellipse cx="100" cy="119.17755129753236" rx="7.800000000000001" ry="2.3400000000000003" fill="none" stroke="currentColor" stroke-width="1.5" opacity="0.6"/>
    <path d="M 63.919999999999995,97.39650185361766 L 62.318,108.07650185361767 M 67.7178947368421,97.39650185361766 L 66.28452631578946,108.07650185361767 M 71.51578947368421,97.39650185361766 L 70.25105263157894,108.07650185361767 M 75.3136842105263,97.39650185361766 L 74.21757894736841,108.07650185361767 M 79.11157894736841,97.39650185361766 L 78.18410526315789,108.07650185361767 M 82.90947368421052,97.39650185361766 L 82.15063157894737,108.07650185361767 M 86.70736842105262,97.39650185361766 L 86.11715789473683,108.07650185361767 M 90.50526315789475,97.39650185361766 L 90.08368421052633,108.07650185361767 M 94.30315789473684,97.39650185361766 L 94.0502105263158,108.07650185361767 M 98.10105263157894,97.39650185361766 L 98.01673684210526,108.07650185361767 M 101.89894736842106,97.39650185361766 L 101.98326315789474,108.07650185361767 M 105.69684210526316,97.39650185361766 L 105.9497894736842,108.07650185361767 M 109.49473684210525,97.39650185361766 L 109.91631578947367,108.07650185361767 M 113.29263157894738,97.39650185361766 L 113.88284210526317,108.07650185361767 M 117.09052631578948,97.39650185361766 L 117.84936842105263,108.07650185361767 M 120.8884210526316,97.39650185361766 L 121.81589473684213,108.07650185361767 M 124.6863157894737,97.39650185361766 L 125.78242105263159,108.07650185361767 M 128.4842105263158,97.39650185361766 L 129.74894736842106,108.07650185361767 M 132.2821052631579,97.39650185361766 L 133.7154736842105,108.07650185361767 M 136.08,97.39650185361766 L 137.68200000000002,108.07650185361767" stroke="#979bc4" stroke-width="0.8" fill="none" opacity="0.7"/>
    <path d="M 54.89999999999999,97.39650185361766 Q 54.89999999999999,89.38650185361766 100,86.71650185361766 Q 145.10000000000002,89.38650185361766 145.10000000000002,97.39650185361766" fill="#3275b4" filter="url(#organic)"/>
    <circle cx="77.4" cy="78.7" r="3" fill="white" opacity="0.85"/>
    <circle cx="113.5" cy="76.0" r="2.5" fill="white" opacity="0.85"/>
    <circle cx="95.5" cy="74.7" r="2" fill="white" opacity="0.85"/>
    <circle cx="127.1" cy="81.4" r="2" fill="white" opacity="0.85"/>
    <circle cx="72.9" cy="84.0" r="1.5" fill="white" opacity="0.85"/>
    <circle cx="104.5" cy="84.0" r="2.5" fill="white" opacity="0.85"/>
  </g>
</svg>