<svg xmlns="http://www.w3.org/2000/svg" viewBox="0 0 200 200" width="200" height="200">
  <defs>
    <filter id="organic" x="-5%" y="-5%" width="110%" height="110%">
    <feTurbulence type="fractalNoise" baseFrequency="0.04" numOctaves="3" seed="1" result="noise"/>
    <feDisplacementMap in="SourceGraphic" in2="noise" scale="2" xChannelSelector="R" yChannelSelector="G"/>
  </filter>
  </defs>
  <g>
    <path d="M 92.8,90.39869845516228 Q 91.8,130.19934922758114 91.36,170 L 108.64,170 Q 108.2,130.19934922758114 107.2,90.39869845516228 Z" fill="#979bc4" filter="url(#organic)"/>
    <ellipse cx="100" cy="114.2790889186136" rx="10.8" ry="3.24" fill="none" stroke="currentColor" stroke-width="1.5" opacity="0.6"/>
    <path d="M 60,90.39869845516228 L 57.993,103.77869845516227 M 63.47826086956522,90.39869845516228 L 61.645782608695654,103.77869845516227 M 66.95652173913044,90.39869845516228 L 65.29856521739131,103.77869845516227 M 70.43478260869566,90.39869845516228 L 68.95134782608696,103.77869845516227 M 73.91304347826087,90.39869845516228 L 72.60413043478262,103.77869845516227 M 77.3913043478261,90.39869845516228 L 76.25691304347826,103.77869845516227 M 80.86956521739131,90.39869845516228 L 79.90969565217392,103.77869845516227 M 84.34782608695653,90.39869845516228 L 83.56247826086957,103.77869845516227 M 87.82608695652173,90.39869845516228 L 87.21526086956521,103.77869845516227 M 91.30434782608695,90.39869845516228 L 90.86804347826087,103.77869845516227 M 94.78260869565219,90.39869845516228 L 94.52082608695653,103.77869845516227 M 98.2608695652174,90.39869845516228 L 98.17360869565219,103.77869845516227 M 101.73913043478261,90.39869845516228 L 101.82639130434782,103.77869845516227 M 105.21739130434783,90.39869845516228 L 105.47917391304348,103.77869845516227 M 108.69565217391306,90.39869845516228 L 109.13195652173914,103.77869845516227 M 112.17391304347827,90.39869845516228 L 112.78473913043479,103.77869845516227 M 115.65217391304347,90.39869845516228 L 116.43752173913043,103.77869845516227 M 119.13043478260869,90.39869845516228 L 120.09030434782608,103.77869845516227 M 122.6086956521739,90.39869845516228 L 123.74308695652174,103.77869845516227 M 126.08695652173913,90.39869845516228 L 127.39586956521738,103.77869845516227 M 129.56521739130437,90.39869845516228 L 131.04865217391307,103.77869845516227 M 133.04347826086956,90.39869845516228 L 134.7014347826087,103.77869845516227 M 136.5217391304348,90.39869845516228 L 138.3542173913044,103.77869845516227 M 140,90.39869845516228 L 142.007,103.77869845516227" stroke="#979bc4" stroke-width="0.8" fill="none" opacity="0.7"/>
    <path d="M 50,90.39869845516228 Q 50,80.36369845516228 100,77.01869845516228 Q 150,80.36369845516228 150,90.39869845516228" fill="#3275b4" filter="url(#organic)"/>
  </g>
</svg>