<svg xmlns="http://www.w3.org/2000/svg" viewBox="0 0 200 200" width="200" height="200">
  <defs>
    <filter id="organic" x="-5%" y="-5%" width="110%" height="110%">
    <feTurbulence type="fractalNoise" baseFrequency="0.04" numOctaves="3" seed="1" result="noise"/>
    <feDisplacementMap in="SourceGraphic" in2="noise" scale="2" xChannelSelector="R" yChannelSelector="G"/>
  </filter>
  </defs>
  <g>
    <path d="M 92,101.29506840081918 Q 91,135.64753420040958 90.4,170 L 109.6,170 Q 109,135.64753420040958 108,101.29506840081918 Z" fill="#73aba3" filter="url(#organic)"/>
    <path d="M 60,101.29506840081918 L 58.56,110.89506840081918 M 63.47826086956522,101.29506840081918 L 62.16347826086957,110.89506840081918 M 66.95652173913044,101.29506840081918 L 65.76695652173913,110.89506840081918 M 70.43478260869566,101.29506840081918 L 69.3704347826087,110.89506840081918 M 73.91304347826087,101.29506840081918 L 72.97391304347826,110.89506840081918 M 77.3913043478261,101.29506840081918 L 76.57739130434783,110.89506840081918 M 80.86956521739131,101.29506840081918 L 80.18086956521739,110.89506840081918 M 84.34782608695653,101.29506840081918 L 83.78434782608697,110.89506840081918 M 87.82608695652173,101.29506840081918 L 87.38782608695652,110.89506840081918 M 91.30434782608695,101.29506840081918 L 90.99130434782609,110.89506840081918 M 94.78260869565219,101.29506840081918 L 94.59478260869567,110.89506840081918 M 98.2608695652174,101.29506840081918 L 98.19826086956523,110.89506840081918 M 101.73913043478261,101.29506840081918 L 101.80173913043478,110.89506840081918 M 105.21739130434783,101.29506840081918 L 105.40521739130435,110.89506840081918 M 108.69565217391306,101.29506840081918 L 109.00869565217393,110.89506840081918 M 112.17391304347827,101.29506840081918 L 112.61217391304348,110.89506840081918 M 115.65217391304347,101.29506840081918 L 116.21565217391303,110.89506840081918 M 119.13043478260869,101.29506840081918 L 119.81913043478261,110.89506840081918 M 122.6086956521739,101.29506840081918 L 123.42260869565217,110.89506840081918 M 126.08695652173913,101.29506840081918 L 127.02608695652174,110.89506840081918 M 129.56521739130437,101.29506840081918 L 130.62956521739133,110.89506840081918 M 133.04347826086956,101.29506840081918 L 134.23304347826087,110.89506840081918 M 136.5217391304348,101.29506840081918 L 137.83652173913046,110.89506840081918 M 140,101.29506840081918 L 141.44,110.89506840081918" stroke="#73aba3" stroke-width="0.8" fill="none" opacity="0.7"/>
    <path d="M 50,91.69506840081917 Q 65,101.29506840081918 100,96.49506840081918 Q 135,101.29506840081918 150,91.69506840081917" fill="#258651" filter="url(#organic)"/>
  </g>
</svg>