<svg xmlns="http://www.w3.org/2000/svg" viewBox="0 0 200 200" width="200" height="200">
  <defs>
    <filter id="organic" x="-5%" y="-5%" width="110%" height="110%">
    <feTurbulence type="fractalNoise" baseFrequency="0.04" numOctaves="3" seed="1" result="noise"/>
    <feDisplacementMap in="SourceGraphic" in2="noise" scale="2" xChannelSelector="R" yChannelSelector="G"/>
  </filter>
  </defs>
  <g>
    <path d="M 96.4,105.81498386806479 Q 95.4,137.9074919340324 95.68,170 L 104.32,170 Q 104.6,137.9074919340324 103.6,105.81498386806479 Z" fill="#78a6bd" filter="url(#organic)"/>
    <ellipse cx="100" cy="125.07048870764535" rx="5.4" ry="1.62" fill="none" stroke="currentColor" stroke-width="1.5" opacity="0.6"/>
    <path d="M 71.75999999999999,105.81498386806479 L 70.32,115.41498386806478 M 76.89454545454545,105.81498386806479 L 75.71636363636364,115.41498386806478 M 82.0290909090909,105.81498386806479 L 81.11272727272726,115.41498386806478 M 87.16363636363636,105.81498386806479 L 86.5090909090909,115.41498386806478 M 92.29818181818182,105.81498386806479 L 91.90545454545455,115.41498386806478 M 97.43272727272726,105.81498386806479 L 97.30181818181818,115.41498386806478 M 102.56727272727272,105.81498386806479 L 102.69818181818181,115.41498386806478 M 107.70181818181817,105.81498386806479 L 108.09454545454544,115.41498386806478 M 112.83636363636364,105.81498386806479 L 113.4909090909091,115.41498386806478 M 117.97090909090909,105.81498386806479 L 118.88727272727273,115.41498386806478 M 123.10545454545453,105.81498386806479 L 124.28363636363635,115.41498386806478 M 128.24,105.81498386806479 L 129.68,115.41498386806478" stroke="#78a6bd" stroke-width="0.8" fill="none" opacity="0.7"/>
    <path d="M 64.69999999999999,105.81498386806479 Q 71.75999999999999,89.01498386806479 100,81.81498386806479 Q 128.24,89.01498386806479 135.3,105.81498386806479" fill="#00858d" filter="url(#organic)"/>
  </g>
</svg>