<svg xmlns="http://www.w3.org/2000/svg" viewBox="0 0 200 200" width="200" height="200">
  <defs>
    <filter id="organic" x="-5%" y="-5%" width="110%" height="110%">
    <feTurbulence type="fractalNoise" baseFrequency="0.04" numOctaves="3" seed="1" result="noise"/>
    <feDisplacementMap in="SourceGraphic" in2="noise" scale="2" xChannelSelector="R" yChannelSelector="G"/>
  </filter>
  </defs>
  <g>
    <path d="M 92,81.14358442967381 Q 91,125.5717922148369 90.4,170 L 109.6,170 Q 109,125.5717922148369 108,81.14358442967381 Z" fill="#979bc4" filter="url(#organic)"/>
    <path d="M 60,81.14358442967381 L 56.4,105.14358442967381 M 63.47826086956522,81.14358442967381 L 60.19130434782609,105.14358442967381 M 66.95652173913044,81.14358442967381 L 63.982608695652175,105.14358442967381 M 70.43478260869566,81.14358442967381 L 67.77391304347826,105.14358442967381 M 73.91304347826087,81.14358442967381 L 71.56521739130436,105.14358442967381 M 77.3913043478261,81.14358442967381 L 75.35652173913044,105.14358442967381 M 80.86956521739131,81.14358442967381 L 79.14782608695653,105.14358442967381 M 84.34782608695653,81.14358442967381 L 82.93913043478261,105.14358442967381 M 87.82608695652173,81.14358442967381 L 86.7304347826087,105.14358442967381 M 91.30434782608695,81.14358442967381 L 90.52173913043478,105.14358442967381 M 94.78260869565219,81.14358442967381 L 94.31304347826088,105.14358442967381 M 98.2608695652174,81.14358442967381 L 98.10434782608696,105.14358442967381 M 101.73913043478261,81.14358442967381 L 101.89565217391305,105.14358442967381 M 105.21739130434783,81.14358442967381 L 105.68695652173913,105.14358442967381 M 108.69565217391306,81.14358442967381 L 109.47826086956523,105.14358442967381 M 112.17391304347827,81.14358442967381 L 113.2695652173913,105.14358442967381 M 115.65217391304347,81.14358442967381 L 117.06086956521739,105.14358442967381 M 119.13043478260869,81.14358442967381 L 120.85217391304347,105.14358442967381 M 122.6086956521739,81.14358442967381 L 124.64347826086956,105.14358442967381 M 126.08695652173913,81.14358442967381 L 128.43478260869566,105.14358442967381 M 129.56521739130437,81.14358442967381 L 132.22608695652175,105.14358442967381 M 133.04347826086956,81.14358442967381 L 136.01739130434783,105.14358442967381 M 136.5217391304348,81.14358442967381 L 139.80869565217395,105.14358442967381 M 140,81.14358442967381 L 143.6,105.14358442967381" stroke="#979bc4" stroke-width="0.8" fill="none" opacity="0.7"/>
    <path d="M 50,81.14358442967381 Q 50,57.14358442967381 85,45.14358442967381 L 100,21.14358442967381 L 115,45.14358442967381 Q 150,57.14358442967381 150,81.14358442967381" fill="#3275b4" filter="url(#organic)"/>
  </g>
</svg>