<svg xmlns="http://www.w3.org/2000/svg" viewBox="0 0 200 200" width="200" height="200">
  <defs>
    <filter id="organic" x="-5%" y="-5%" width="110%" height="110%">
    <feTurbulence type="fractalNoise" baseFrequency="0.04" numOctaves="3" seed="1" result="noise"/>
    <feDisplacementMap in="SourceGraphic" in2="noise" scale="2" xChannelSelector="R" yChannelSelector="G"/>
  </filter>
  </defs>
  <g>
    <path d="M 94.4,96.52887328363697 Q 93.4,133.2644366418185 93.28,170 L 106.72,170 Q 106.6,133.2644366418185 105.6,96.52887328363697 Z" fill="#979bc4" filter="url(#organic)"/>
    <ellipse cx="100" cy="118.57021129854587" rx="8.399999999999999" ry="2.5199999999999996" fill="none" stroke="currentColor" stroke-width="1.5" opacity="0.6"/>
    <path d="M 61.959999999999994,96.52887328363697 L 60.114999999999995,108.82887328363697 M 65.58285714285714,96.52887328363697 L 63.91357142857142,108.82887328363697 M 69.20571428571428,96.52887328363697 L 67.71214285714285,108.82887328363697 M 72.82857142857142,96.52887328363697 L 71.51071428571429,108.82887328363697 M 76.45142857142856,96.52887328363697 L 75.3092857142857,108.82887328363697 M 80.07428571428571,96.52887328363697 L 79.10785714285714,108.82887328363697 M 83.69714285714285,96.52887328363697 L 82.90642857142856,108.82887328363697 M 87.32,96.52887328363697 L 86.705,108.82887328363697 M 90.94285714285714,96.52887328363697 L 90.50357142857142,108.82887328363697 M 94.56571428571428,96.52887328363697 L 94.30214285714285,108.82887328363697 M 98.18857142857142,96.52887328363697 L 98.10071428571428,108.82887328363697 M 101.81142857142858,96.52887328363697 L 101.89928571428572,108.82887328363697 M 105.4342857142857,96.52887328363697 L 105.69785714285713,108.82887328363697 M 109.05714285714286,96.52887328363697 L 109.49642857142858,108.82887328363697 M 112.68,96.52887328363697 L 113.295,108.82887328363697 M 116.30285714285714,96.52887328363697 L 117.09357142857142,108.82887328363697 M 119.92571428571428,96.52887328363697 L 120.89214285714284,108.82887328363697 M 123.54857142857144,96.52887328363697 L 124.6907142857143,108.82887328363697 M 127.17142857142858,96.52887328363697 L 128.48928571428573,108.82887328363697 M 130.7942857142857,96.52887328363697 L 132.28785714285715,108.82887328363697 M 134.41714285714284,96.52887328363697 L 136.08642857142854,108.82887328363697 M 138.04000000000002,96.52887328363697 L 139.88500000000002,108.82887328363697" stroke="#979bc4" stroke-width="0.8" fill="none" opacity="0.7"/>
    <path d="M 52.449999999999996,84.22887328363697 Q 66.715,96.52887328363697 100,90.37887328363698 Q 133.28500000000003,96.52887328363697 147.55,84.22887328363697" fill="#3275b4" filter="url(#organic)"/>
  </g>
</svg>