<svg xmlns="http://www.w3.org/2000/svg" viewBox="0 0 200 200" width="200" height="200">
  <defs>
    <filter id="organic" x="-5%" y="-5%" width="110%" height="110%">
    <feTurbulence type="fractalNoise" baseFrequency="0.04" numOctaves="3" seed="1" result="noise"/>
    <feDisplacementMap in="SourceGraphic" in2="noise" scale="2" xChannelSelector="R" yChannelSelector="G"/>
  </filter>
  </defs>
  <g>
    <path d="M 92,96.04077004102943 Q 91,133.0203850205147 90.4,170 L 109.6,170 Q 109,133.0203850205147 108,96.04077004102943 Z" fill="#979bc4" filter="url(#organic)"/>
    <ellipse cx="100" cy="118.2285390287206" rx="12" ry="3.5999999999999996" fill="none" stroke="currentColor" stroke-width="1.5" opacity="0.6"/>
    <path d="M 60,96.04077004102943 L 58.317,107.26077004102943 M 63.47826086956522,96.04077004102943 L 61.94160869565218,107.26077004102943 M 66.95652173913044,96.04077004102943 L 65.56621739130435,107.26077004102943 M 70.43478260869566,96.04077004102943 L 69.19082608695652,107.26077004102943 M 73.91304347826087,96.04077004102943 L 72.8154347826087,107.26077004102943 M 77.3913043478261,96.04077004102943 L 76.44004347826088,107.26077004102943 M 80.86956521739131,96.04077004102943 L 80.06465217391305,107.26077004102943 M 84.34782608695653,96.04077004102943 L 83.68926086956523,107.26077004102943 M 87.82608695652173,96.04077004102943 L 87.31386956521739,107.26077004102943 M 91.30434782608695,96.04077004102943 L 90.93847826086956,107.26077004102943 M 94.78260869565219,96.04077004102943 L 94.56308695652176,107.26077004102943 M 98.2608695652174,96.04077004102943 L 98.18769565217393,107.26077004102943 M 101.73913043478261,96.04077004102943 L 101.81230434782609,107.26077004102943 M 105.21739130434783,96.04077004102943 L 105.43691304347826,107.26077004102943 M 108.69565217391306,96.04077004102943 L 109.06152173913046,107.26077004102943 M 112.17391304347827,96.04077004102943 L 112.68613043478261,107.26077004102943 M 115.65217391304347,96.04077004102943 L 116.31073913043477,107.26077004102943 M 119.13043478260869,96.04077004102943 L 119.93534782608695,107.26077004102943 M 122.6086956521739,96.04077004102943 L 123.55995652173912,107.26077004102943 M 126.08695652173913,96.04077004102943 L 127.1845652173913,107.26077004102943 M 129.56521739130437,96.04077004102943 L 130.8091739130435,107.26077004102943 M 133.04347826086956,96.04077004102943 L 134.43378260869565,107.26077004102943 M 136.5217391304348,96.04077004102943 L 138.05839130434785,107.26077004102943 M 140,96.04077004102943 L 141.683,107.26077004102943" stroke="#979bc4" stroke-width="0.8" fill="none" opacity="0.7"/>
    <path d="M 50,96.04077004102943 Q 50,87.62577004102943 100,84.82077004102943 Q 150,87.62577004102943 150,96.04077004102943" fill="#3275b4" filter="url(#organic)"/>
  </g>
</svg>