<svg xmlns="http://www.w3.org/2000/svg" viewBox="0 0 200 200" width="200" height="200">
  <defs>
    <filter id="organic" x="-5%" y="-5%" width="110%" height="110%">
    <feTurbulence type="fractalNoise" baseFrequency="0.04" numOctaves="3" seed="1" result="noise"/>
    <feDisplacementMap in="SourceGraphic" in2="noise" scale="2" xChannelSelector="R" yChannelSelector="G"/>
  </filter>
  </defs>
  <g>
    <path d="M 96.8,87.49695621482064 Q 95.8,128.74847810741034 96.16,170 L 103.84,170 Q 104.2,128.74847810741034 103.2,87.49695621482064 Z" fill="#979bc4" filter="url(#organic)"/>
    <path d="M 73.72,87.49695621482064 L 72.199,97.63695621482064 M 79.56,87.49695621482064 L 78.377,97.63695621482064 M 85.4,87.49695621482064 L 84.555,97.63695621482064 M 91.24,87.49695621482064 L 90.73299999999999,97.63695621482064 M 97.08,87.49695621482064 L 96.911,97.63695621482064 M 102.92,87.49695621482064 L 103.089,97.63695621482064 M 108.75999999999999,87.49695621482064 L 109.267,97.63695621482064 M 114.6,87.49695621482064 L 115.445,97.63695621482064 M 120.44,87.49695621482064 L 121.62299999999999,97.63695621482064 M 126.28,87.49695621482064 L 127.801,97.63695621482064" stroke="#979bc4" stroke-width="0.8" fill="none" opacity="0.7"/>
    <path d="M 67.15,87.49695621482064 Q 67.15,62.14695621482064 100,62.14695621482064 Q 132.85,62.14695621482064 132.85,87.49695621482064" fill="#3275b4" filter="url(#organic)"/>
  </g>
</svg>