<svg xmlns="http://www.w3.org/2000/svg" viewBox="0 0 200 200" width="200" height="200">
  <defs>
    <filter id="organic" x="-5%" y="-5%" width="110%" height="110%">
    <feTurbulence type="fractalNoise" baseFrequency="0.04" numOctaves="3" seed="1" result="noise"/>
    <feDisplacementMap in="SourceGraphic" in2="noise" scale="2" xChannelSelector="R" yChannelSelector="G"/>
  </filter>
  </defs>
  <g>
    <path d="M 97.2,81.73652905146724 Q 96.2,125.86826452573362 96.64,170 L 103.36,170 Q 103.8,125.86826452573362 102.8,81.73652905146724 Z" fill="#78a6bd" filter="url(#organic)"/>
    <path d="M 75.68,81.73652905146724 L 74.24000000000001,91.33652905146724 M 82.62857142857143,81.73652905146724 L 81.60000000000001,91.33652905146724 M 89.57714285714286,81.73652905146724 L 88.96000000000001,91.33652905146724 M 96.52571428571429,81.73652905146724 L 96.32000000000001,91.33652905146724 M 103.47428571428571,81.73652905146724 L 103.67999999999999,91.33652905146724 M 110.42285714285715,81.73652905146724 L 111.04,91.33652905146724 M 117.37142857142857,81.73652905146724 L 118.39999999999999,91.33652905146724 M 124.32000000000001,81.73652905146724 L 125.76,91.33652905146724" stroke="#78a6bd" stroke-width="0.8" fill="none" opacity="0.7"/>
    <path d="M 69.6,81.73652905146724 Q 69.6,74.53652905146724 100,72.13652905146725 Q 130.4,74.53652905146724 130.4,81.73652905146724" fill="#00858d" filter="url(#organic)"/>
  </g>
</svg>