<svg xmlns="http://www.w3.org/2000/svg" viewBox="0 0 200 200" width="200" height="200">
  <defs>
    <filter id="organic" x="-5%" y="-5%" width="110%" height="110%">
    <feTurbulence type="fractalNoise" baseFrequency="0.04" numOctaves="3" seed="1" result="noise"/>
    <feDisplacementMap in="SourceGraphic" in2="noise" scale="2" xChannelSelector="R" yChannelSelector="G"/>
  </filter>
  </defs>
  <g>
    <path d="M 92,94.42337061312799 Q 91,132.211685306564 90.4,170 L 109.6,170 Q 109,132.211685306564 108,94.42337061312799 Z" fill="#979bc4" filter="url(#organic)"/>
    <path d="M 60,94.42337061312799 L 58.479,104.56337061312799 M 63.47826086956522,94.42337061312799 L 62.08952173913043,104.56337061312799 M 66.95652173913044,94.42337061312799 L 65.70004347826087,104.56337061312799 M 70.43478260869566,94.42337061312799 L 69.31056521739131,104.56337061312799 M 73.91304347826087,94.42337061312799 L 72.92108695652175,104.56337061312799 M 77.3913043478261,94.42337061312799 L 76.53160869565218,104.56337061312799 M 80.86956521739131,94.42337061312799 L 80.14213043478262,104.56337061312799 M 84.34782608695653,94.42337061312799 L 83.75265217391305,104.56337061312799 M 87.82608695652173,94.42337061312799 L 87.36317391304347,104.56337061312799 M 91.30434782608695,94.42337061312799 L 90.97369565217392,104.56337061312799 M 94.78260869565219,94.42337061312799 L 94.58421739130436,104.56337061312799 M 98.2608695652174,94.42337061312799 L 98.1947391304348,104.56337061312799 M 101.73913043478261,94.42337061312799 L 101.80526086956522,104.56337061312799 M 105.21739130434783,94.42337061312799 L 105.41578260869565,104.56337061312799 M 108.69565217391306,94.42337061312799 L 109.0263043478261,104.56337061312799 M 112.17391304347827,94.42337061312799 L 112.63682608695653,104.56337061312799 M 115.65217391304347,94.42337061312799 L 116.24734782608695,104.56337061312799 M 119.13043478260869,94.42337061312799 L 119.85786956521738,104.56337061312799 M 122.6086956521739,94.42337061312799 L 123.46839130434782,104.56337061312799 M 126.08695652173913,94.42337061312799 L 127.07891304347825,104.56337061312799 M 129.56521739130437,94.42337061312799 L 130.6894347826087,104.56337061312799 M 133.04347826086956,94.42337061312799 L 134.29995652173912,104.56337061312799 M 136.5217391304348,94.42337061312799 L 137.91047826086958,104.56337061312799 M 140,94.42337061312799 L 141.521,104.56337061312799" stroke="#979bc4" stroke-width="0.8" fill="none" opacity="0.7"/>
    <path d="M 50,84.283370613128 Q 65,94.42337061312799 100,89.35337061312799 Q 135,94.42337061312799 150,84.283370613128" fill="#3275b4" filter="url(#organic)"/>
    <circle cx="75.0" cy="76.7" r="3" fill="white" opacity="0.85"/>
    <circle cx="115.0" cy="74.1" r="2.5" fill="white" opacity="0.85"/>
    <circle cx="95.0" cy="72.9" r="2" fill="white" opacity="0.85"/>
    <circle cx="130.0" cy="79.2" r="2" fill="white" opacity="0.85"/>
    <circle cx="70.0" cy="81.7" r="1.5" fill="white" opacity="0.85"/>
    <circle cx="105.0" cy="81.7" r="2.5" fill="white" opacity="0.85"/>
  </g>
</svg>