<svg xmlns="http://www.w3.org/2000/svg" viewBox="0 0 200 200" width="200" height="200">
  <defs>
    <filter id="organic" x="-5%" y="-5%" width="110%" height="110%">
    <feTurbulence type="fractalNoise" baseFrequency="0.04" numOctaves="3" seed="1" result="noise"/>
    <feDisplacementMap in="SourceGraphic" in2="noise" scale="2" xChannelSelector="R" yChannelSelector="G"/>
  </filter>
  </defs>
  <g>
    <path d="M 92,76.95356375079092 Q 91,123.47678187539546 90.4,170 L 109.6,170 Q 109,123.47678187539546 108,76.95356375079092 Z" fill="#a496bf" filter="url(#organic)"/>
    <ellipse cx="100" cy="104.86749462555365" rx="12" ry="3.5999999999999996" fill="none" stroke="currentColor" stroke-width="1.5" opacity="0.6"/>
    <path d="M 60,76.95356375079092 L 58.56,86.55356375079091 M 63.47826086956522,76.95356375079092 L 62.16347826086957,86.55356375079091 M 66.95652173913044,76.95356375079092 L 65.76695652173913,86.55356375079091 M 70.43478260869566,76.95356375079092 L 69.3704347826087,86.55356375079091 M 73.91304347826087,76.95356375079092 L 72.97391304347826,86.55356375079091 M 77.3913043478261,76.95356375079092 L 76.57739130434783,86.55356375079091 M 80.86956521739131,76.95356375079092 L 80.18086956521739,86.55356375079091 M 84.34782608695653,76.95356375079092 L 83.78434782608697,86.55356375079091 M 87.82608695652173,76.95356375079092 L 87.38782608695652,86.55356375079091 M 91.30434782608695,76.95356375079092 L 90.99130434782609,86.55356375079091 M 94.78260869565219,76.95356375079092 L 94.59478260869567,86.55356375079091 M 98.2608695652174,76.95356375079092 L 98.19826086956523,86.55356375079091 M 101.73913043478261,76.95356375079092 L 101.80173913043478,86.55356375079091 M 105.21739130434783,76.95356375079092 L 105.40521739130435,86.55356375079091 M 108.69565217391306,76.95356375079092 L 109.00869565217393,86.55356375079091 M 112.17391304347827,76.95356375079092 L 112.61217391304348,86.55356375079091 M 115.65217391304347,76.95356375079092 L 116.21565217391303,86.55356375079091 M 119.13043478260869,76.95356375079092 L 119.81913043478261,86.55356375079091 M 122.6086956521739,76.95356375079092 L 123.42260869565217,86.55356375079091 M 126.08695652173913,76.95356375079092 L 127.02608695652174,86.55356375079091 M 129.56521739130437,76.95356375079092 L 130.62956521739133,86.55356375079091 M 133.04347826086956,76.95356375079092 L 134.23304347826087,86.55356375079091 M 136.5217391304348,76.95356375079092 L 137.83652173913046,86.55356375079091 M 140,76.95356375079092 L 141.44,86.55356375079091" stroke="#a496bf" stroke-width="0.8" fill="none" opacity="0.7"/>
    <path d="M 50,76.95356375079092 Q 50,69.75356375079092 100,67.35356375079093 Q 150,69.75356375079092 150,76.95356375079092" fill="#576cb7" filter="url(#organic)"/>
  </g>
</svg>