<svg xmlns="http://www.w3.org/2000/svg" viewBox="0 0 200 200" width="200" height="200">
  <defs>
    <filter id="organic" x="-5%" y="-5%" width="110%" height="110%">
    <feTurbulence type="fractalNoise" baseFrequency="0.04" numOctaves="3" seed="1" result="noise"/>
    <feDisplacementMap in="SourceGraphic" in2="noise" scale="2" xChannelSelector="R" yChannelSelector="G"/>
  </filter>
  </defs>
  <g>
    <path d="M 92,83.45609411199146 Q 91,126.72804705599573 90.4,170 L 109.6,170 Q 109,126.72804705599573 108,83.45609411199146 Z" fill="#979bc4" filter="url(#organic)"/>
    <path d="M 60,83.45609411199146 L 58.236,95.21609411199147 M 63.47826086956522,83.45609411199146 L 61.867652173913044,95.21609411199147 M 66.95652173913044,83.45609411199146 L 65.49930434782608,95.21609411199147 M 70.43478260869566,83.45609411199146 L 69.13095652173914,95.21609411199147 M 73.91304347826087,83.45609411199146 L 72.76260869565218,95.21609411199147 M 77.3913043478261,83.45609411199146 L 76.39426086956523,95.21609411199147 M 80.86956521739131,83.45609411199146 L 80.02591304347827,95.21609411199147 M 84.34782608695653,83.45609411199146 L 83.65756521739131,95.21609411199147 M 87.82608695652173,83.45609411199146 L 87.28921739130435,95.21609411199147 M 91.30434782608695,83.45609411199146 L 90.92086956521739,95.21609411199147 M 94.78260869565219,83.45609411199146 L 94.55252173913044,95.21609411199147 M 98.2608695652174,83.45609411199146 L 98.1841739130435,95.21609411199147 M 101.73913043478261,83.45609411199146 L 101.81582608695652,95.21609411199147 M 105.21739130434783,83.45609411199146 L 105.44747826086957,95.21609411199147 M 108.69565217391306,83.45609411199146 L 109.07913043478263,95.21609411199147 M 112.17391304347827,83.45609411199146 L 112.71078260869565,95.21609411199147 M 115.65217391304347,83.45609411199146 L 116.34243478260869,95.21609411199147 M 119.13043478260869,83.45609411199146 L 119.97408695652173,95.21609411199147 M 122.6086956521739,83.45609411199146 L 123.60573913043477,95.21609411199147 M 126.08695652173913,83.45609411199146 L 127.23739130434782,95.21609411199147 M 129.56521739130437,83.45609411199146 L 130.8690434782609,95.21609411199147 M 133.04347826086956,83.45609411199146 L 134.5006956521739,95.21609411199147 M 136.5217391304348,83.45609411199146 L 138.13234782608697,95.21609411199147 M 140,83.45609411199146 L 141.764,95.21609411199147" stroke="#979bc4" stroke-width="0.8" fill="none" opacity="0.7"/>
    <path d="M 50,83.45609411199146 Q 50,74.63609411199147 100,71.69609411199146 Q 150,74.63609411199147 150,83.45609411199146" fill="#3275b4" filter="url(#organic)"/>
  </g>
</svg>