<svg xmlns="http://www.w3.org/2000/svg" viewBox="0 0 200 200" width="200" height="200">
  <defs>
    <filter id="organic" x="-5%" y="-5%" width="110%" height="110%">
    <feTurbulence type="fractalNoise" baseFrequency="0.04" numOctaves="3" seed="1" result="noise"/>
    <feDisplacementMap in="SourceGraphic" in2="noise" scale="2" xChannelSelector="R" yChannelSelector="G"/>
  </filter>
  </defs>
  <g>
    <path d="M 94.4,81.85924773193558 Q 93.4,125.92962386596778 83.872,170 L 116.128,170 Q 106.6,125.92962386596778 105.6,81.85924773193558 Z" fill="#979bc4" filter="url(#organic)"/>
    <ellipse cx="100" cy="108.30147341235491" rx="8.399999999999999" ry="2.5199999999999996" fill="none" stroke="currentColor" stroke-width="1.5" opacity="0.6"/>
    <path d="M 61.959999999999994,81.85924773193558 L 58.49499999999999,104.95924773193559 M 65.58285714285714,81.85924773193558 L 62.44785714285714,104.95924773193559 M 69.20571428571428,81.85924773193558 L 66.40071428571427,104.95924773193559 M 72.82857142857142,81.85924773193558 L 70.35357142857143,104.95924773193559 M 76.45142857142856,81.85924773193558 L 74.30642857142857,104.95924773193559 M 80.07428571428571,81.85924773193558 L 78.25928571428571,104.95924773193559 M 83.69714285714285,81.85924773193558 L 82.21214285714285,104.95924773193559 M 87.32,81.85924773193558 L 86.16499999999999,104.95924773193559 M 90.94285714285714,81.85924773193558 L 90.11785714285713,104.95924773193559 M 94.56571428571428,81.85924773193558 L 94.07071428571427,104.95924773193559 M 98.18857142857142,81.85924773193558 L 98.02357142857142,104.95924773193559 M 101.81142857142858,81.85924773193558 L 101.97642857142858,104.95924773193559 M 105.4342857142857,81.85924773193558 L 105.92928571428571,104.95924773193559 M 109.05714285714286,81.85924773193558 L 109.88214285714287,104.95924773193559 M 112.68,81.85924773193558 L 113.83500000000001,104.95924773193559 M 116.30285714285714,81.85924773193558 L 117.78785714285713,104.95924773193559 M 119.92571428571428,81.85924773193558 L 121.74071428571428,104.95924773193559 M 123.54857142857144,81.85924773193558 L 125.69357142857143,104.95924773193559 M 127.17142857142858,81.85924773193558 L 129.64642857142857,104.95924773193559 M 130.7942857142857,81.85924773193558 L 133.5992857142857,104.95924773193559 M 134.41714285714284,81.85924773193558 L 137.55214285714283,104.95924773193559 M 138.04000000000002,81.85924773193558 L 141.50500000000002,104.95924773193559" stroke="#979bc4" stroke-width="0.8" fill="none" opacity="0.7"/>
    <path d="M 52.449999999999996,58.75924773193558 Q 66.715,81.85924773193558 100,70.30924773193559 Q 133.28500000000003,81.85924773193558 147.55,58.75924773193558" fill="#3275b4" filter="url(#organic)"/>
    <circle cx="76.2" cy="41.4" r="3" fill="white" opacity="0.85"/>
    <circle cx="114.3" cy="35.7" r="2.5" fill="white" opacity="0.85"/>
    <circle cx="95.2" cy="32.8" r="2" fill="white" opacity="0.85"/>
    <circle cx="128.5" cy="47.2" r="2" fill="white" opacity="0.85"/>
    <circle cx="71.5" cy="53.0" r="1.5" fill="white" opacity="0.85"/>
    <circle cx="104.8" cy="53.0" r="2.5" fill="white" opacity="0.85"/>
  </g>
</svg>