<svg xmlns="http://www.w3.org/2000/svg" viewBox="0 0 200 200" width="200" height="200">
  <defs>
    <filter id="organic" x="-5%" y="-5%" width="110%" height="110%">
    <feTurbulence type="fractalNoise" baseFrequency="0.04" numOctaves="3" seed="1" result="noise"/>
    <feDisplacementMap in="SourceGraphic" in2="noise" scale="2" xChannelSelector="R" yChannelSelector="G"/>
  </filter>
  </defs>
  <g>
    <path d="M 96,83.45609411199146 Q 95,126.72804705599573 95.2,170 L 104.8,170 Q 105,126.72804705599573 104,83.45609411199146 Z" fill="#979bc4" filter="url(#organic)"/>
    <path d="M 69.8,83.45609411199146 L 66.25399999999999,107.09609411199146 M 74.44615384615385,83.45609411199146 L 71.44569230769231,107.09609411199146 M 79.09230769230768,83.45609411199146 L 76.6373846153846,107.09609411199146 M 83.73846153846154,83.45609411199146 L 81.82907692307693,107.09609411199146 M 88.38461538461539,83.45609411199146 L 87.02076923076923,107.09609411199146 M 93.03076923076924,83.45609411199146 L 92.21246153846154,107.09609411199146 M 97.67692307692307,83.45609411199146 L 97.40415384615385,107.09609411199146 M 102.32307692307691,83.45609411199146 L 102.59584615384614,107.09609411199146 M 106.96923076923076,83.45609411199146 L 107.78753846153846,107.09609411199146 M 111.61538461538461,83.45609411199146 L 112.97923076923077,107.09609411199146 M 116.26153846153846,83.45609411199146 L 118.17092307692307,107.09609411199146 M 120.90769230769232,83.45609411199146 L 123.3626153846154,107.09609411199146 M 125.55384615384615,83.45609411199146 L 128.5543076923077,107.09609411199146 M 130.2,83.45609411199146 L 133.74599999999998,107.09609411199146" stroke="#979bc4" stroke-width="0.8" fill="none" opacity="0.7"/>
    <path d="M 62.25,83.45609411199146 Q 62.25,59.81609411199146 88.675,47.99609411199146 L 100,24.35609411199146 L 111.325,47.99609411199146 Q 137.75,59.81609411199146 137.75,83.45609411199146" fill="#3275b4" filter="url(#organic)"/>
  </g>
</svg>