<svg xmlns="http://www.w3.org/2000/svg" viewBox="0 0 200 200" width="200" height="200">
  <defs>
    <filter id="organic" x="-5%" y="-5%" width="110%" height="110%">
    <feTurbulence type="fractalNoise" baseFrequency="0.04" numOctaves="3" seed="1" result="noise"/>
    <feDisplacementMap in="SourceGraphic" in2="noise" scale="2" xChannelSelector="R" yChannelSelector="G"/>
  </filter>
  </defs>
  <g>
    <path d="M 96,94.98309411723625 Q 95,132.49154705861812 95.2,170 L 104.8,170 Q 105,132.49154705861812 104,94.98309411723625 Z" fill="#78a6bd" filter="url(#organic)"/>
    <ellipse cx="100" cy="117.48816588206537" rx="6" ry="1.7999999999999998" fill="none" stroke="currentColor" stroke-width="1.5" opacity="0.6"/>
    <path d="M 69.8,94.98309411723625 L 68.36,104.58309411723624 M 74.44615384615385,94.98309411723625 L 73.22769230769231,104.58309411723624 M 79.09230769230768,94.98309411723625 L 78.0953846153846,104.58309411723624 M 83.73846153846154,94.98309411723625 L 82.96307692307693,104.58309411723624 M 88.38461538461539,94.98309411723625 L 87.83076923076923,104.58309411723624 M 93.03076923076924,94.98309411723625 L 92.69846153846154,104.58309411723624 M 97.67692307692307,94.98309411723625 L 97.56615384615384,104.58309411723624 M 102.32307692307691,94.98309411723625 L 102.43384615384615,104.58309411723624 M 106.96923076923076,94.98309411723625 L 107.30153846153846,104.58309411723624 M 111.61538461538461,94.98309411723625 L 112.16923076923077,104.58309411723624 M 116.26153846153846,94.98309411723625 L 117.03692307692307,104.58309411723624 M 120.90769230769232,94.98309411723625 L 121.9046153846154,104.58309411723624 M 125.55384615384615,94.98309411723625 L 126.77230769230769,104.58309411723624 M 130.2,94.98309411723625 L 131.64,104.58309411723624" stroke="#78a6bd" stroke-width="0.8" fill="none" opacity="0.7"/>
    <path d="M 62.25,94.98309411723625 Q 62.25,87.78309411723625 100,85.38309411723625 Q 137.75,87.78309411723625 137.75,94.98309411723625" fill="#00858d" filter="url(#organic)"/>
  </g>
</svg>