<svg xmlns="http://www.w3.org/2000/svg" viewBox="0 0 200 200" width="200" height="200">
  <defs>
    <filter id="organic" x="-5%" y="-5%" width="110%" height="110%">
    <feTurbulence type="fractalNoise" baseFrequency="0.04" numOctaves="3" seed="1" result="noise"/>
    <feDisplacementMap in="SourceGraphic" in2="noise" scale="2" xChannelSelector="R" yChannelSelector="G"/>
  </filter>
  </defs>
  <g>
    <path d="M 96.4,110.9090909090909 Q 95.4,140.45454545454544 95.68,170 L 104.32,170 Q 104.6,140.45454545454544 103.6,110.9090909090909 Z" fill="#979bc4" filter="url(#organic)"/>
    <path d="M 71.75999999999999,110.9090909090909 L 70.23899999999999,121.0490909090909 M 76.89454545454545,110.9090909090909 L 75.6500909090909,121.0490909090909 M 82.0290909090909,110.9090909090909 L 81.06118181818181,121.0490909090909 M 87.16363636363636,110.9090909090909 L 86.47227272727272,121.0490909090909 M 92.29818181818182,110.9090909090909 L 91.88336363636364,121.0490909090909 M 97.43272727272726,110.9090909090909 L 97.29445454545454,121.0490909090909 M 102.56727272727272,110.9090909090909 L 102.70554545454544,121.0490909090909 M 107.70181818181817,110.9090909090909 L 108.11663636363635,121.0490909090909 M 112.83636363636364,110.9090909090909 L 113.52772727272728,121.0490909090909 M 117.97090909090909,110.9090909090909 L 118.93881818181818,121.0490909090909 M 123.10545454545453,110.9090909090909 L 124.34990909090908,121.0490909090909 M 128.24,110.9090909090909 L 129.761,121.0490909090909" stroke="#979bc4" stroke-width="0.8" fill="none" opacity="0.7"/>
    <path d="M 64.69999999999999,110.9090909090909 Q 71.75999999999999,93.16409090909092 100,85.55909090909091 Q 128.24,93.16409090909092 135.3,110.9090909090909" fill="#3275b4" filter="url(#organic)"/>
  </g>
</svg>