<svg xmlns="http://www.w3.org/2000/svg" viewBox="0 0 200 200" width="200" height="200">
  <defs>
    <filter id="organic" x="-5%" y="-5%" width="110%" height="110%">
    <feTurbulence type="fractalNoise" baseFrequency="0.04" numOctaves="3" seed="1" result="noise"/>
    <feDisplacementMap in="SourceGraphic" in2="noise" scale="2" xChannelSelector="R" yChannelSelector="G"/>
  </filter>
  </defs>
  <g>
    <path d="M 93.6,85.28318577413081 Q 92.6,127.6415928870654 92.32000000000001,170 L 107.67999999999999,170 Q 107.4,127.6415928870654 106.4,85.28318577413081 Z" fill="#979bc4" filter="url(#organic)"/>
    <ellipse cx="100" cy="110.69823004189158" rx="9.6" ry="2.88" fill="none" stroke="currentColor" stroke-width="1.5" opacity="0.6"/>
    <path d="M 60,85.28318577413081 L 58.155,97.58318577413081 M 63.47826086956522,85.28318577413081 L 61.793695652173916,97.58318577413081 M 66.95652173913044,85.28318577413081 L 65.43239130434783,97.58318577413081 M 70.43478260869566,85.28318577413081 L 69.07108695652174,97.58318577413081 M 73.91304347826087,85.28318577413081 L 72.70978260869566,97.58318577413081 M 77.3913043478261,85.28318577413081 L 76.34847826086957,97.58318577413081 M 80.86956521739131,85.28318577413081 L 79.98717391304349,97.58318577413081 M 84.34782608695653,85.28318577413081 L 83.6258695652174,97.58318577413081 M 87.82608695652173,85.28318577413081 L 87.2645652173913,97.58318577413081 M 91.30434782608695,85.28318577413081 L 90.90326086956522,97.58318577413081 M 94.78260869565219,85.28318577413081 L 94.54195652173914,97.58318577413081 M 98.2608695652174,85.28318577413081 L 98.18065217391306,97.58318577413081 M 101.73913043478261,85.28318577413081 L 101.81934782608695,97.58318577413081 M 105.21739130434783,85.28318577413081 L 105.45804347826088,97.58318577413081 M 108.69565217391306,85.28318577413081 L 109.0967391304348,97.58318577413081 M 112.17391304347827,85.28318577413081 L 112.7354347826087,97.58318577413081 M 115.65217391304347,85.28318577413081 L 116.3741304347826,97.58318577413081 M 119.13043478260869,85.28318577413081 L 120.01282608695651,97.58318577413081 M 122.6086956521739,85.28318577413081 L 123.65152173913043,97.58318577413081 M 126.08695652173913,85.28318577413081 L 127.29021739130434,97.58318577413081 M 129.56521739130437,85.28318577413081 L 130.92891304347827,97.58318577413081 M 133.04347826086956,85.28318577413081 L 134.56760869565218,97.58318577413081 M 136.5217391304348,85.28318577413081 L 138.20630434782612,97.58318577413081 M 140,85.28318577413081 L 141.845,97.58318577413081" stroke="#979bc4" stroke-width="0.8" fill="none" opacity="0.7"/>
    <path d="M 50,85.28318577413081 Q 50,76.0581857741308 100,72.98318577413082 Q 150,76.0581857741308 150,85.28318577413081" fill="#3275b4" filter="url(#organic)"/>
  </g>
</svg>