<svg xmlns="http://www.w3.org/2000/svg" viewBox="0 0 200 200" width="200" height="200">
  <defs>
    <filter id="organic" x="-5%" y="-5%" width="110%" height="110%">
    <feTurbulence type="fractalNoise" baseFrequency="0.04" numOctaves="3" seed="1" result="noise"/>
    <feDisplacementMap in="SourceGraphic" in2="noise" scale="2" xChannelSelector="R" yChannelSelector="G"/>
  </filter>
  </defs>
  <g>
    <path d="M 92,83.40829299254793 Q 91,126.70414649627396 90.4,170 L 109.6,170 Q 109,126.70414649627396 108,83.40829299254793 Z" fill="#979bc4" filter="url(#organic)"/>
    <path d="M 60,83.40829299254793 L 56.4,107.40829299254793 M 63.47826086956522,83.40829299254793 L 60.19130434782609,107.40829299254793 M 66.95652173913044,83.40829299254793 L 63.982608695652175,107.40829299254793 M 70.43478260869566,83.40829299254793 L 67.77391304347826,107.40829299254793 M 73.91304347826087,83.40829299254793 L 71.56521739130436,107.40829299254793 M 77.3913043478261,83.40829299254793 L 75.35652173913044,107.40829299254793 M 80.86956521739131,83.40829299254793 L 79.14782608695653,107.40829299254793 M 84.34782608695653,83.40829299254793 L 82.93913043478261,107.40829299254793 M 87.82608695652173,83.40829299254793 L 86.7304347826087,107.40829299254793 M 91.30434782608695,83.40829299254793 L 90.52173913043478,107.40829299254793 M 94.78260869565219,83.40829299254793 L 94.31304347826088,107.40829299254793 M 98.2608695652174,83.40829299254793 L 98.10434782608696,107.40829299254793 M 101.73913043478261,83.40829299254793 L 101.89565217391305,107.40829299254793 M 105.21739130434783,83.40829299254793 L 105.68695652173913,107.40829299254793 M 108.69565217391306,83.40829299254793 L 109.47826086956523,107.40829299254793 M 112.17391304347827,83.40829299254793 L 113.2695652173913,107.40829299254793 M 115.65217391304347,83.40829299254793 L 117.06086956521739,107.40829299254793 M 119.13043478260869,83.40829299254793 L 120.85217391304347,107.40829299254793 M 122.6086956521739,83.40829299254793 L 124.64347826086956,107.40829299254793 M 126.08695652173913,83.40829299254793 L 128.43478260869566,107.40829299254793 M 129.56521739130437,83.40829299254793 L 132.22608695652175,107.40829299254793 M 133.04347826086956,83.40829299254793 L 136.01739130434783,107.40829299254793 M 136.5217391304348,83.40829299254793 L 139.80869565217395,107.40829299254793 M 140,83.40829299254793 L 143.6,107.40829299254793" stroke="#979bc4" stroke-width="0.8" fill="none" opacity="0.7"/>
    <path d="M 50,83.40829299254793 Q 50,59.40829299254793 85,47.40829299254793 L 100,23.408292992547928 L 115,47.40829299254793 Q 150,59.40829299254793 150,83.40829299254793" fill="#3275b4" filter="url(#organic)"/>
  </g>
</svg>