<svg xmlns="http://www.w3.org/2000/svg" viewBox="0 0 200 200" width="200" height="200">
  <defs>
    <filter id="organic" x="-5%" y="-5%" width="110%" height="110%">
    <feTurbulence type="fractalNoise" baseFrequency="0.04" numOctaves="3" seed="1" result="noise"/>
    <feDisplacementMap in="SourceGraphic" in2="noise" scale="2" xChannelSelector="R" yChannelSelector="G"/>
  </filter>
  </defs>
  <g>
    <path d="M 92,121.20027272202796 Q 91,145.600136361014 90.4,170 L 109.6,170 Q 109,145.600136361014 108,121.20027272202796 Z" fill="#979bc4" filter="url(#organic)"/>
    <ellipse cx="100" cy="135.84019090541958" rx="12" ry="3.5999999999999996" fill="none" stroke="currentColor" stroke-width="1.5" opacity="0.6"/>
    <path d="M 60,121.20027272202796 L 58.479,131.34027272202798 M 63.47826086956522,121.20027272202796 L 62.08952173913043,131.34027272202798 M 66.95652173913044,121.20027272202796 L 65.70004347826087,131.34027272202798 M 70.43478260869566,121.20027272202796 L 69.31056521739131,131.34027272202798 M 73.91304347826087,121.20027272202796 L 72.92108695652175,131.34027272202798 M 77.3913043478261,121.20027272202796 L 76.53160869565218,131.34027272202798 M 80.86956521739131,121.20027272202796 L 80.14213043478262,131.34027272202798 M 84.34782608695653,121.20027272202796 L 83.75265217391305,131.34027272202798 M 87.82608695652173,121.20027272202796 L 87.36317391304347,131.34027272202798 M 91.30434782608695,121.20027272202796 L 90.97369565217392,131.34027272202798 M 94.78260869565219,121.20027272202796 L 94.58421739130436,131.34027272202798 M 98.2608695652174,121.20027272202796 L 98.1947391304348,131.34027272202798 M 101.73913043478261,121.20027272202796 L 101.80526086956522,131.34027272202798 M 105.21739130434783,121.20027272202796 L 105.41578260869565,131.34027272202798 M 108.69565217391306,121.20027272202796 L 109.0263043478261,131.34027272202798 M 112.17391304347827,121.20027272202796 L 112.63682608695653,131.34027272202798 M 115.65217391304347,121.20027272202796 L 116.24734782608695,131.34027272202798 M 119.13043478260869,121.20027272202796 L 119.85786956521738,131.34027272202798 M 122.6086956521739,121.20027272202796 L 123.46839130434782,131.34027272202798 M 126.08695652173913,121.20027272202796 L 127.07891304347825,131.34027272202798 M 129.56521739130437,121.20027272202796 L 130.6894347826087,131.34027272202798 M 133.04347826086956,121.20027272202796 L 134.29995652173912,131.34027272202798 M 136.5217391304348,121.20027272202796 L 137.91047826086958,131.34027272202798 M 140,121.20027272202796 L 141.521,131.34027272202798" stroke="#979bc4" stroke-width="0.8" fill="none" opacity="0.7"/>
    <path d="M 50,111.06027272202797 Q 65,121.20027272202796 100,116.13027272202797 Q 135,121.20027272202796 150,111.06027272202797" fill="#3275b4" filter="url(#organic)"/>
    <circle cx="75.0" cy="103.5" r="3" fill="white" opacity="0.85"/>
    <circle cx="115.0" cy="100.9" r="2.5" fill="white" opacity="0.85"/>
    <circle cx="95.0" cy="99.7" r="2" fill="white" opacity="0.85"/>
    <circle cx="130.0" cy="106.0" r="2" fill="white" opacity="0.85"/>
    <circle cx="70.0" cy="108.5" r="1.5" fill="white" opacity="0.85"/>
    <circle cx="105.0" cy="108.5" r="2.5" fill="white" opacity="0.85"/>
  </g>
</svg>