<svg xmlns="http://www.w3.org/2000/svg" viewBox="0 0 200 200" width="200" height="200">
  <defs>
    <filter id="organic" x="-5%" y="-5%" width="110%" height="110%">
    <feTurbulence type="fractalNoise" baseFrequency="0.04" numOctaves="3" seed="1" result="noise"/>
    <feDisplacementMap in="SourceGraphic" in2="noise" scale="2" xChannelSelector="R" yChannelSelector="G"/>
  </filter>
  </defs>
  <g>
    <path d="M 92,92.10936363111887 Q 91,131.05468181555943 90.4,170 L 109.6,170 Q 109,131.05468181555943 108,92.10936363111887 Z" fill="#979bc4" filter="url(#organic)"/>
    <path d="M 60,92.10936363111887 L 58.074,104.94936363111887 M 63.47826086956522,92.10936363111887 L 61.71973913043478,104.94936363111887 M 66.95652173913044,92.10936363111887 L 65.36547826086957,104.94936363111887 M 70.43478260869566,92.10936363111887 L 69.01121739130436,104.94936363111887 M 73.91304347826087,92.10936363111887 L 72.65695652173913,104.94936363111887 M 77.3913043478261,92.10936363111887 L 76.30269565217392,104.94936363111887 M 80.86956521739131,92.10936363111887 L 79.9484347826087,104.94936363111887 M 84.34782608695653,92.10936363111887 L 83.59417391304349,104.94936363111887 M 87.82608695652173,92.10936363111887 L 87.23991304347825,104.94936363111887 M 91.30434782608695,92.10936363111887 L 90.88565217391304,104.94936363111887 M 94.78260869565219,92.10936363111887 L 94.53139130434784,104.94936363111887 M 98.2608695652174,92.10936363111887 L 98.17713043478263,104.94936363111887 M 101.73913043478261,92.10936363111887 L 101.82286956521739,104.94936363111887 M 105.21739130434783,92.10936363111887 L 105.46860869565218,104.94936363111887 M 108.69565217391306,92.10936363111887 L 109.11434782608697,104.94936363111887 M 112.17391304347827,92.10936363111887 L 112.76008695652175,104.94936363111887 M 115.65217391304347,92.10936363111887 L 116.40582608695651,104.94936363111887 M 119.13043478260869,92.10936363111887 L 120.0515652173913,104.94936363111887 M 122.6086956521739,92.10936363111887 L 123.69730434782608,104.94936363111887 M 126.08695652173913,92.10936363111887 L 127.34304347826087,104.94936363111887 M 129.56521739130437,92.10936363111887 L 130.9887826086957,104.94936363111887 M 133.04347826086956,92.10936363111887 L 134.63452173913043,104.94936363111887 M 136.5217391304348,92.10936363111887 L 138.28026086956524,104.94936363111887 M 140,92.10936363111887 L 141.926,104.94936363111887" stroke="#979bc4" stroke-width="0.8" fill="none" opacity="0.7"/>
    <path d="M 50,92.10936363111887 Q 50,82.47936363111887 100,79.26936363111886 Q 150,82.47936363111887 150,92.10936363111887" fill="#3275b4" filter="url(#organic)"/>
  </g>
</svg>