<svg xmlns="http://www.w3.org/2000/svg" viewBox="0 0 200 200" width="200" height="200">
  <defs>
    <filter id="organic" x="-5%" y="-5%" width="110%" height="110%">
    <feTurbulence type="fractalNoise" baseFrequency="0.04" numOctaves="3" seed="1" result="noise"/>
    <feDisplacementMap in="SourceGraphic" in2="noise" scale="2" xChannelSelector="R" yChannelSelector="G"/>
  </filter>
  </defs>
  <g>
    <path d="M 95.2,94.69950043275723 Q 94.2,132.34975021637862 94.24,170 L 105.76,170 Q 105.8,132.34975021637862 104.8,94.69950043275723 Z" fill="#979bc4" filter="url(#organic)"/>
    <ellipse cx="100" cy="117.28965030293006" rx="7.199999999999999" ry="2.1599999999999997" fill="none" stroke="currentColor" stroke-width="1.5" opacity="0.6"/>
    <path d="M 65.88,94.69950043275723 L 64.359,104.83950043275723 M 69.89411764705882,94.69950043275723 L 68.5520588235294,104.83950043275723 M 73.90823529411765,94.69950043275723 L 72.74511764705882,104.83950043275723 M 77.92235294117647,94.69950043275723 L 76.93817647058823,104.83950043275723 M 81.9364705882353,94.69950043275723 L 81.13123529411764,104.83950043275723 M 85.95058823529412,94.69950043275723 L 85.32429411764706,104.83950043275723 M 89.96470588235294,94.69950043275723 L 89.51735294117647,104.83950043275723 M 93.97882352941176,94.69950043275723 L 93.71041176470587,104.83950043275723 M 97.9929411764706,94.69950043275723 L 97.9034705882353,104.83950043275723 M 102.0070588235294,94.69950043275723 L 102.0965294117647,104.83950043275723 M 106.02117647058824,94.69950043275723 L 106.28958823529413,104.83950043275723 M 110.03529411764706,94.69950043275723 L 110.48264705882353,104.83950043275723 M 114.0494117647059,94.69950043275723 L 114.67570588235296,104.83950043275723 M 118.0635294117647,94.69950043275723 L 118.86876470588236,104.83950043275723 M 122.07764705882353,94.69950043275723 L 123.06182352941177,104.83950043275723 M 126.09176470588235,94.69950043275723 L 127.25488235294118,104.83950043275723 M 130.1058823529412,94.69950043275723 L 131.4479411764706,104.83950043275723 M 134.12,94.69950043275723 L 135.641,104.83950043275723" stroke="#979bc4" stroke-width="0.8" fill="none" opacity="0.7"/>
    <path d="M 57.349999999999994,94.69950043275722 Q 57.349999999999994,87.09450043275723 100,84.55950043275723 Q 142.65,87.09450043275723 142.65,94.69950043275722" fill="#3275b4" filter="url(#organic)"/>
    <circle cx="78.7" cy="77.0" r="3" fill="white" opacity="0.85"/>
    <circle cx="112.8" cy="74.4" r="2.5" fill="white" opacity="0.85"/>
    <circle cx="95.7" cy="73.2" r="2" fill="white" opacity="0.85"/>
    <circle cx="125.6" cy="79.5" r="2" fill="white" opacity="0.85"/>
    <circle cx="74.4" cy="82.0" r="1.5" fill="white" opacity="0.85"/>
    <circle cx="104.3" cy="82.0" r="2.5" fill="white" opacity="0.85"/>
  </g>
</svg>