<svg xmlns="http://www.w3.org/2000/svg" viewBox="0 0 200 200" width="200" height="200">
  <defs>
    <filter id="organic" x="-5%" y="-5%" width="110%" height="110%">
    <feTurbulence type="fractalNoise" baseFrequency="0.04" numOctaves="3" seed="1" result="noise"/>
    <feDisplacementMap in="SourceGraphic" in2="noise" scale="2" xChannelSelector="R" yChannelSelector="G"/>
  </filter>
  </defs>
  <g>
    <path d="M 92,88.53225020326668 Q 91,129.26612510163335 90.4,170 L 109.6,170 Q 109,129.26612510163335 108,88.53225020326668 Z" fill="#979bc4" filter="url(#organic)"/>
    <ellipse cx="100" cy="112.97257514228667" rx="12" ry="3.5999999999999996" fill="none" stroke="currentColor" stroke-width="1.5" opacity="0.6"/>
    <path d="M 60,88.53225020326668 L 57.021,108.39225020326668 M 63.47826086956522,88.53225020326668 L 60.75830434782609,108.39225020326668 M 66.95652173913044,88.53225020326668 L 64.49560869565218,108.39225020326668 M 70.43478260869566,88.53225020326668 L 68.23291304347826,108.39225020326668 M 73.91304347826087,88.53225020326668 L 71.97021739130436,108.39225020326668 M 77.3913043478261,88.53225020326668 L 75.70752173913044,108.39225020326668 M 80.86956521739131,88.53225020326668 L 79.44482608695652,108.39225020326668 M 84.34782608695653,88.53225020326668 L 83.18213043478262,108.39225020326668 M 87.82608695652173,88.53225020326668 L 86.91943478260869,108.39225020326668 M 91.30434782608695,88.53225020326668 L 90.65673913043479,108.39225020326668 M 94.78260869565219,88.53225020326668 L 94.39404347826088,108.39225020326668 M 98.2608695652174,88.53225020326668 L 98.13134782608697,108.39225020326668 M 101.73913043478261,88.53225020326668 L 101.86865217391305,108.39225020326668 M 105.21739130434783,88.53225020326668 L 105.60595652173913,108.39225020326668 M 108.69565217391306,88.53225020326668 L 109.34326086956524,108.39225020326668 M 112.17391304347827,88.53225020326668 L 113.08056521739131,108.39225020326668 M 115.65217391304347,88.53225020326668 L 116.81786956521738,108.39225020326668 M 119.13043478260869,88.53225020326668 L 120.55517391304348,108.39225020326668 M 122.6086956521739,88.53225020326668 L 124.29247826086956,108.39225020326668 M 126.08695652173913,88.53225020326668 L 128.02978260869565,108.39225020326668 M 129.56521739130437,88.53225020326668 L 131.76708695652175,108.39225020326668 M 133.04347826086956,88.53225020326668 L 135.50439130434782,108.39225020326668 M 136.5217391304348,88.53225020326668 L 139.24169565217395,108.39225020326668 M 140,88.53225020326668 L 142.979,108.39225020326668" stroke="#979bc4" stroke-width="0.8" fill="none" opacity="0.7"/>
    <path d="M 50,68.67225020326669 Q 65,88.53225020326668 100,78.60225020326669 Q 135,88.53225020326668 150,68.67225020326669" fill="#3275b4" filter="url(#organic)"/>
  </g>
</svg>