<svg xmlns="http://www.w3.org/2000/svg" viewBox="0 0 200 200" width="200" height="200">
  <defs>
    <filter id="organic" x="-5%" y="-5%" width="110%" height="110%">
    <feTurbulence type="fractalNoise" baseFrequency="0.04" numOctaves="3" seed="1" result="noise"/>
    <feDisplacementMap in="SourceGraphic" in2="noise" scale="2" xChannelSelector="R" yChannelSelector="G"/>
  </filter>
  </defs>
  <g>
    <path d="M 92,100.78314601615446 Q 91,135.39157300807722 90.4,170 L 109.6,170 Q 109,135.39157300807722 108,100.78314601615446 Z" fill="#979bc4" filter="url(#organic)"/>
    <path d="M 60,100.78314601615446 L 58.479,110.92314601615446 M 63.47826086956522,100.78314601615446 L 62.08952173913043,110.92314601615446 M 66.95652173913044,100.78314601615446 L 65.70004347826087,110.92314601615446 M 70.43478260869566,100.78314601615446 L 69.31056521739131,110.92314601615446 M 73.91304347826087,100.78314601615446 L 72.92108695652175,110.92314601615446 M 77.3913043478261,100.78314601615446 L 76.53160869565218,110.92314601615446 M 80.86956521739131,100.78314601615446 L 80.14213043478262,110.92314601615446 M 84.34782608695653,100.78314601615446 L 83.75265217391305,110.92314601615446 M 87.82608695652173,100.78314601615446 L 87.36317391304347,110.92314601615446 M 91.30434782608695,100.78314601615446 L 90.97369565217392,110.92314601615446 M 94.78260869565219,100.78314601615446 L 94.58421739130436,110.92314601615446 M 98.2608695652174,100.78314601615446 L 98.1947391304348,110.92314601615446 M 101.73913043478261,100.78314601615446 L 101.80526086956522,110.92314601615446 M 105.21739130434783,100.78314601615446 L 105.41578260869565,110.92314601615446 M 108.69565217391306,100.78314601615446 L 109.0263043478261,110.92314601615446 M 112.17391304347827,100.78314601615446 L 112.63682608695653,110.92314601615446 M 115.65217391304347,100.78314601615446 L 116.24734782608695,110.92314601615446 M 119.13043478260869,100.78314601615446 L 119.85786956521738,110.92314601615446 M 122.6086956521739,100.78314601615446 L 123.46839130434782,110.92314601615446 M 126.08695652173913,100.78314601615446 L 127.07891304347825,110.92314601615446 M 129.56521739130437,100.78314601615446 L 130.6894347826087,110.92314601615446 M 133.04347826086956,100.78314601615446 L 134.29995652173912,110.92314601615446 M 136.5217391304348,100.78314601615446 L 137.91047826086958,110.92314601615446 M 140,100.78314601615446 L 141.521,110.92314601615446" stroke="#979bc4" stroke-width="0.8" fill="none" opacity="0.7"/>
    <path d="M 50,100.78314601615446 Q 60,83.03814601615447 100,75.43314601615447 Q 140,83.03814601615447 150,100.78314601615446" fill="#3275b4" filter="url(#organic)"/>
  </g>
</svg>