<svg xmlns="http://www.w3.org/2000/svg" viewBox="0 0 200 200" width="200" height="200">
  <defs>
    <filter id="organic" x="-5%" y="-5%" width="110%" height="110%">
    <feTurbulence type="fractalNoise" baseFrequency="0.04" numOctaves="3" seed="1" result="noise"/>
    <feDisplacementMap in="SourceGraphic" in2="noise" scale="2" xChannelSelector="R" yChannelSelector="G"/>
  </filter>
  </defs>
  <g>
    <path d="M 92,83.89639623515548 Q 91,126.94819811757773 90.4,170 L 109.6,170 Q 109,126.94819811757773 108,83.89639623515548 Z" fill="#979bc4" filter="url(#organic)"/>
    <path d="M 60,83.89639623515548 L 57.426,101.05639623515547 M 63.47826086956522,83.89639623515548 L 61.12808695652174,101.05639623515547 M 66.95652173913044,83.89639623515548 L 64.83017391304348,101.05639623515547 M 70.43478260869566,83.89639623515548 L 68.53226086956522,101.05639623515547 M 73.91304347826087,83.89639623515548 L 72.23434782608696,101.05639623515547 M 77.3913043478261,83.89639623515548 L 75.9364347826087,101.05639623515547 M 80.86956521739131,83.89639623515548 L 79.63852173913044,101.05639623515547 M 84.34782608695653,83.89639623515548 L 83.34060869565218,101.05639623515547 M 87.82608695652173,83.89639623515548 L 87.0426956521739,101.05639623515547 M 91.30434782608695,83.89639623515548 L 90.74478260869564,101.05639623515547 M 94.78260869565219,83.89639623515548 L 94.4468695652174,101.05639623515547 M 98.2608695652174,83.89639623515548 L 98.14895652173914,101.05639623515547 M 101.73913043478261,83.89639623515548 L 101.85104347826088,101.05639623515547 M 105.21739130434783,83.89639623515548 L 105.55313043478262,101.05639623515547 M 108.69565217391306,83.89639623515548 L 109.25521739130437,101.05639623515547 M 112.17391304347827,83.89639623515548 L 112.9573043478261,101.05639623515547 M 115.65217391304347,83.89639623515548 L 116.65939130434782,101.05639623515547 M 119.13043478260869,83.89639623515548 L 120.36147826086956,101.05639623515547 M 122.6086956521739,83.89639623515548 L 124.0635652173913,101.05639623515547 M 126.08695652173913,83.89639623515548 L 127.76565217391304,101.05639623515547 M 129.56521739130437,83.89639623515548 L 131.4677391304348,101.05639623515547 M 133.04347826086956,83.89639623515548 L 135.1698260869565,101.05639623515547 M 136.5217391304348,83.89639623515548 L 138.8719130434783,101.05639623515547 M 140,83.89639623515548 L 142.574,101.05639623515547" stroke="#979bc4" stroke-width="0.8" fill="none" opacity="0.7"/>
    <path d="M 50,66.73639623515548 Q 65,83.89639623515548 100,75.31639623515548 Q 135,83.89639623515548 150,66.73639623515548" fill="#3275b4" filter="url(#organic)"/>
  </g>
</svg>