<svg xmlns="http://www.w3.org/2000/svg" viewBox="0 0 200 200" width="200" height="200">
  <defs>
    <filter id="organic" x="-5%" y="-5%" width="110%" height="110%">
    <feTurbulence type="fractalNoise" baseFrequency="0.04" numOctaves="3" seed="1" result="noise"/>
    <feDisplacementMap in="SourceGraphic" in2="noise" scale="2" xChannelSelector="R" yChannelSelector="G"/>
  </filter>
  </defs>
  <g>
    <path d="M 92,92.55591304685808 Q 91,131.27795652342905 90.4,170 L 109.6,170 Q 109,131.27795652342905 108,92.55591304685808 Z" fill="#aa94bb" filter="url(#organic)"/>
    <ellipse cx="100" cy="115.78913913280066" rx="12" ry="3.5999999999999996" fill="none" stroke="currentColor" stroke-width="1.5" opacity="0.6"/>
    <path d="M 60,92.55591304685808 L 58.56,102.15591304685807 M 63.47826086956522,92.55591304685808 L 62.16347826086957,102.15591304685807 M 66.95652173913044,92.55591304685808 L 65.76695652173913,102.15591304685807 M 70.43478260869566,92.55591304685808 L 69.3704347826087,102.15591304685807 M 73.91304347826087,92.55591304685808 L 72.97391304347826,102.15591304685807 M 77.3913043478261,92.55591304685808 L 76.57739130434783,102.15591304685807 M 80.86956521739131,92.55591304685808 L 80.18086956521739,102.15591304685807 M 84.34782608695653,92.55591304685808 L 83.78434782608697,102.15591304685807 M 87.82608695652173,92.55591304685808 L 87.38782608695652,102.15591304685807 M 91.30434782608695,92.55591304685808 L 90.99130434782609,102.15591304685807 M 94.78260869565219,92.55591304685808 L 94.59478260869567,102.15591304685807 M 98.2608695652174,92.55591304685808 L 98.19826086956523,102.15591304685807 M 101.73913043478261,92.55591304685808 L 101.80173913043478,102.15591304685807 M 105.21739130434783,92.55591304685808 L 105.40521739130435,102.15591304685807 M 108.69565217391306,92.55591304685808 L 109.00869565217393,102.15591304685807 M 112.17391304347827,92.55591304685808 L 112.61217391304348,102.15591304685807 M 115.65217391304347,92.55591304685808 L 116.21565217391303,102.15591304685807 M 119.13043478260869,92.55591304685808 L 119.81913043478261,102.15591304685807 M 122.6086956521739,92.55591304685808 L 123.42260869565217,102.15591304685807 M 126.08695652173913,92.55591304685808 L 127.02608695652174,102.15591304685807 M 129.56521739130437,92.55591304685808 L 130.62956521739133,102.15591304685807 M 133.04347826086956,92.55591304685808 L 134.23304347826087,102.15591304685807 M 136.5217391304348,92.55591304685808 L 137.83652173913046,102.15591304685807 M 140,92.55591304685808 L 141.44,102.15591304685807" stroke="#aa94bb" stroke-width="0.8" fill="none" opacity="0.7"/>
    <path d="M 50,92.55591304685808 Q 50,85.35591304685808 100,82.95591304685809 Q 150,85.35591304685808 150,92.55591304685808" fill="#6568b6" filter="url(#organic)"/>
  </g>
</svg>