<svg xmlns="http://www.w3.org/2000/svg" viewBox="0 0 200 200" width="200" height="200">
  <defs>
    <filter id="organic" x="-5%" y="-5%" width="110%" height="110%">
    <feTurbulence type="fractalNoise" baseFrequency="0.04" numOctaves="3" seed="1" result="noise"/>
    <feDisplacementMap in="SourceGraphic" in2="noise" scale="2" xChannelSelector="R" yChannelSelector="G"/>
  </filter>
  </defs>
  <g>
    <path d="M 92.4,81.37675686045415 Q 91.4,125.68837843022708 90.88,170 L 109.12,170 Q 108.6,125.68837843022708 107.6,81.37675686045415 Z" fill="#979bc4" filter="url(#organic)"/>
    <ellipse cx="100" cy="107.9637298023179" rx="11.399999999999999" ry="3.4199999999999995" fill="none" stroke="currentColor" stroke-width="1.5" opacity="0.6"/>
    <path d="M 60,81.37675686045415 L 57.75,96.37675686045415 M 63.47826086956522,81.37675686045415 L 61.423913043478265,96.37675686045415 M 66.95652173913044,81.37675686045415 L 65.09782608695653,96.37675686045415 M 70.43478260869566,81.37675686045415 L 68.77173913043478,96.37675686045415 M 73.91304347826087,81.37675686045415 L 72.44565217391305,96.37675686045415 M 77.3913043478261,81.37675686045415 L 76.11956521739131,96.37675686045415 M 80.86956521739131,81.37675686045415 L 79.79347826086958,96.37675686045415 M 84.34782608695653,81.37675686045415 L 83.46739130434783,96.37675686045415 M 87.82608695652173,81.37675686045415 L 87.14130434782608,96.37675686045415 M 91.30434782608695,81.37675686045415 L 90.81521739130434,96.37675686045415 M 94.78260869565219,81.37675686045415 L 94.48913043478262,96.37675686045415 M 98.2608695652174,81.37675686045415 L 98.16304347826089,96.37675686045415 M 101.73913043478261,81.37675686045415 L 101.83695652173913,96.37675686045415 M 105.21739130434783,81.37675686045415 L 105.51086956521739,96.37675686045415 M 108.69565217391306,81.37675686045415 L 109.18478260869567,96.37675686045415 M 112.17391304347827,81.37675686045415 L 112.85869565217392,96.37675686045415 M 115.65217391304347,81.37675686045415 L 116.53260869565217,96.37675686045415 M 119.13043478260869,81.37675686045415 L 120.20652173913042,96.37675686045415 M 122.6086956521739,81.37675686045415 L 123.88043478260869,96.37675686045415 M 126.08695652173913,81.37675686045415 L 127.55434782608695,96.37675686045415 M 129.56521739130437,81.37675686045415 L 131.22826086956525,96.37675686045415 M 133.04347826086956,81.37675686045415 L 134.90217391304347,96.37675686045415 M 136.5217391304348,81.37675686045415 L 138.57608695652178,96.37675686045415 M 140,81.37675686045415 L 142.25,96.37675686045415" stroke="#979bc4" stroke-width="0.8" fill="none" opacity="0.7"/>
    <path d="M 50,81.37675686045415 Q 50,70.12675686045415 100,66.37675686045415 Q 150,70.12675686045415 150,81.37675686045415" fill="#3275b4" filter="url(#organic)"/>
  </g>
</svg>