<svg xmlns="http://www.w3.org/2000/svg" viewBox="0 0 200 200" width="200" height="200">
  <defs>
    <filter id="organic" x="-5%" y="-5%" width="110%" height="110%">
    <feTurbulence type="fractalNoise" baseFrequency="0.04" numOctaves="3" seed="1" result="noise"/>
    <feDisplacementMap in="SourceGraphic" in2="noise" scale="2" xChannelSelector="R" yChannelSelector="G"/>
  </filter>
  </defs>
  <g>
    <path d="M 92,92.90375686569892 Q 91,131.45187843284947 90.4,170 L 109.6,170 Q 109,131.45187843284947 108,92.90375686569892 Z" fill="#979bc4" filter="url(#organic)"/>
    <ellipse cx="100" cy="116.03262980598925" rx="12" ry="3.5999999999999996" fill="none" stroke="currentColor" stroke-width="1.5" opacity="0.6"/>
    <path d="M 60,92.90375686569892 L 57.993,106.28375686569893 M 63.47826086956522,92.90375686569892 L 61.645782608695654,106.28375686569893 M 66.95652173913044,92.90375686569892 L 65.29856521739131,106.28375686569893 M 70.43478260869566,92.90375686569892 L 68.95134782608696,106.28375686569893 M 73.91304347826087,92.90375686569892 L 72.60413043478262,106.28375686569893 M 77.3913043478261,92.90375686569892 L 76.25691304347826,106.28375686569893 M 80.86956521739131,92.90375686569892 L 79.90969565217392,106.28375686569893 M 84.34782608695653,92.90375686569892 L 83.56247826086957,106.28375686569893 M 87.82608695652173,92.90375686569892 L 87.21526086956521,106.28375686569893 M 91.30434782608695,92.90375686569892 L 90.86804347826087,106.28375686569893 M 94.78260869565219,92.90375686569892 L 94.52082608695653,106.28375686569893 M 98.2608695652174,92.90375686569892 L 98.17360869565219,106.28375686569893 M 101.73913043478261,92.90375686569892 L 101.82639130434782,106.28375686569893 M 105.21739130434783,92.90375686569892 L 105.47917391304348,106.28375686569893 M 108.69565217391306,92.90375686569892 L 109.13195652173914,106.28375686569893 M 112.17391304347827,92.90375686569892 L 112.78473913043479,106.28375686569893 M 115.65217391304347,92.90375686569892 L 116.43752173913043,106.28375686569893 M 119.13043478260869,92.90375686569892 L 120.09030434782608,106.28375686569893 M 122.6086956521739,92.90375686569892 L 123.74308695652174,106.28375686569893 M 126.08695652173913,92.90375686569892 L 127.39586956521738,106.28375686569893 M 129.56521739130437,92.90375686569892 L 131.04865217391307,106.28375686569893 M 133.04347826086956,92.90375686569892 L 134.7014347826087,106.28375686569893 M 136.5217391304348,92.90375686569892 L 138.3542173913044,106.28375686569893 M 140,92.90375686569892 L 142.007,106.28375686569893" stroke="#979bc4" stroke-width="0.8" fill="none" opacity="0.7"/>
    <path d="M 50,79.52375686569891 Q 65,92.90375686569892 100,86.21375686569893 Q 135,92.90375686569892 150,79.52375686569891" fill="#3275b4" filter="url(#organic)"/>
    <circle cx="75.0" cy="69.5" r="3" fill="white" opacity="0.85"/>
    <circle cx="115.0" cy="66.1" r="2.5" fill="white" opacity="0.85"/>
    <circle cx="95.0" cy="64.5" r="2" fill="white" opacity="0.85"/>
    <circle cx="130.0" cy="72.8" r="2" fill="white" opacity="0.85"/>
    <circle cx="70.0" cy="76.2" r="1.5" fill="white" opacity="0.85"/>
    <circle cx="105.0" cy="76.2" r="2.5" fill="white" opacity="0.85"/>
  </g>
</svg>