<svg xmlns="http://www.w3.org/2000/svg" viewBox="0 0 200 200" width="200" height="200">
  <defs>
    <filter id="organic" x="-5%" y="-5%" width="110%" height="110%">
    <feTurbulence type="fractalNoise" baseFrequency="0.04" numOctaves="3" seed="1" result="noise"/>
    <feDisplacementMap in="SourceGraphic" in2="noise" scale="2" xChannelSelector="R" yChannelSelector="G"/>
  </filter>
  </defs>
  <g>
    <path d="M 97.2,94.02234112809191 Q 96.2,132.01117056404595 96.64,170 L 103.36,170 Q 103.8,132.01117056404595 102.8,94.02234112809191 Z" fill="#979bc4" filter="url(#organic)"/>
    <path d="M 75.68,94.02234112809191 L 73.754,106.86234112809191 M 82.62857142857143,94.02234112809191 L 81.25285714285715,106.86234112809191 M 89.57714285714286,94.02234112809191 L 88.75171428571429,106.86234112809191 M 96.52571428571429,94.02234112809191 L 96.25057142857143,106.86234112809191 M 103.47428571428571,94.02234112809191 L 103.74942857142857,106.86234112809191 M 110.42285714285715,94.02234112809191 L 111.24828571428573,106.86234112809191 M 117.37142857142857,94.02234112809191 L 118.74714285714285,106.86234112809191 M 124.32000000000001,94.02234112809191 L 126.24600000000001,106.86234112809191" stroke="#979bc4" stroke-width="0.8" fill="none" opacity="0.7"/>
    <path d="M 69.6,94.02234112809191 Q 69.6,61.92234112809191 100,61.92234112809191 Q 130.4,61.92234112809191 130.4,94.02234112809191" fill="#3275b4" filter="url(#organic)"/>
  </g>
</svg>