<svg xmlns="http://www.w3.org/2000/svg" viewBox="0 0 200 200" width="200" height="200">
  <defs>
    <filter id="organic" x="-5%" y="-5%" width="110%" height="110%">
    <feTurbulence type="fractalNoise" baseFrequency="0.04" numOctaves="3" seed="1" result="noise"/>
    <feDisplacementMap in="SourceGraphic" in2="noise" scale="2" xChannelSelector="R" yChannelSelector="G"/>
  </filter>
  </defs>
  <g>
    <path d="M 92,84.35598770051688 Q 91,127.17799385025845 90.4,170 L 109.6,170 Q 109,127.17799385025845 108,84.35598770051688 Z" fill="#979bc4" filter="url(#organic)"/>
    <ellipse cx="100" cy="110.04919139036181" rx="12" ry="3.5999999999999996" fill="none" stroke="currentColor" stroke-width="1.5" opacity="0.6"/>
    <path d="M 60,84.35598770051688 L 57.507,100.97598770051688 M 63.47826086956522,84.35598770051688 L 61.20204347826087,100.97598770051688 M 66.95652173913044,84.35598770051688 L 64.89708695652175,100.97598770051688 M 70.43478260869566,84.35598770051688 L 68.59213043478262,100.97598770051688 M 73.91304347826087,84.35598770051688 L 72.28717391304349,100.97598770051688 M 77.3913043478261,84.35598770051688 L 75.98221739130436,100.97598770051688 M 80.86956521739131,84.35598770051688 L 79.67726086956523,100.97598770051688 M 84.34782608695653,84.35598770051688 L 83.3723043478261,100.97598770051688 M 87.82608695652173,84.35598770051688 L 87.06734782608696,100.97598770051688 M 91.30434782608695,84.35598770051688 L 90.76239130434783,100.97598770051688 M 94.78260869565219,84.35598770051688 L 94.45743478260871,100.97598770051688 M 98.2608695652174,84.35598770051688 L 98.15247826086959,100.97598770051688 M 101.73913043478261,84.35598770051688 L 101.84752173913043,100.97598770051688 M 105.21739130434783,84.35598770051688 L 105.5425652173913,100.97598770051688 M 108.69565217391306,84.35598770051688 L 109.23760869565218,100.97598770051688 M 112.17391304347827,84.35598770051688 L 112.93265217391304,100.97598770051688 M 115.65217391304347,84.35598770051688 L 116.6276956521739,100.97598770051688 M 119.13043478260869,84.35598770051688 L 120.32273913043477,100.97598770051688 M 122.6086956521739,84.35598770051688 L 124.01778260869564,100.97598770051688 M 126.08695652173913,84.35598770051688 L 127.71282608695651,100.97598770051688 M 129.56521739130437,84.35598770051688 L 131.40786956521742,100.97598770051688 M 133.04347826086956,84.35598770051688 L 135.10291304347825,100.97598770051688 M 136.5217391304348,84.35598770051688 L 138.79795652173917,100.97598770051688 M 140,84.35598770051688 L 142.493,100.97598770051688" stroke="#979bc4" stroke-width="0.8" fill="none" opacity="0.7"/>
    <path d="M 50,67.73598770051687 Q 65,84.35598770051688 100,76.04598770051687 Q 135,84.35598770051688 150,67.73598770051687" fill="#3275b4" filter="url(#organic)"/>
  </g>
</svg>