<svg xmlns="http://www.w3.org/2000/svg" viewBox="0 0 200 200" width="200" height="200">
  <defs>
    <filter id="organic" x="-5%" y="-5%" width="110%" height="110%">
    <feTurbulence type="fractalNoise" baseFrequency="0.04" numOctaves="3" seed="1" result="noise"/>
    <feDisplacementMap in="SourceGraphic" in2="noise" scale="2" xChannelSelector="R" yChannelSelector="G"/>
  </filter>
  </defs>
  <g>
    <path d="M 95.6,80.6188587150859 Q 94.6,125.30942935754295 94.72,170 L 105.28,170 Q 105.4,125.30942935754295 104.4,80.6188587150859 Z" fill="#78a6bd" filter="url(#organic)"/>
    <ellipse cx="100" cy="107.43320110056013" rx="6.6000000000000005" ry="1.98" fill="none" stroke="currentColor" stroke-width="1.5" opacity="0.6"/>
    <path d="M 67.84,80.6188587150859 L 66.4,90.2188587150859 M 72.128,80.6188587150859 L 70.88,90.2188587150859 M 76.416,80.6188587150859 L 75.36,90.2188587150859 M 80.70400000000001,80.6188587150859 L 79.84,90.2188587150859 M 84.992,80.6188587150859 L 84.32000000000001,90.2188587150859 M 89.28,80.6188587150859 L 88.8,90.2188587150859 M 93.56800000000001,80.6188587150859 L 93.28000000000002,90.2188587150859 M 97.85600000000001,80.6188587150859 L 97.76,90.2188587150859 M 102.144,80.6188587150859 L 102.24000000000001,90.2188587150859 M 106.43200000000002,80.6188587150859 L 106.72000000000001,90.2188587150859 M 110.72,80.6188587150859 L 111.2,90.2188587150859 M 115.00800000000001,80.6188587150859 L 115.68,90.2188587150859 M 119.29600000000002,80.6188587150859 L 120.16000000000003,90.2188587150859 M 123.584,80.6188587150859 L 124.64,90.2188587150859 M 127.87200000000001,80.6188587150859 L 129.12,90.2188587150859 M 132.16000000000003,80.6188587150859 L 133.60000000000002,90.2188587150859" stroke="#78a6bd" stroke-width="0.8" fill="none" opacity="0.7"/>
    <path d="M 59.8,80.6188587150859 Q 59.8,73.4188587150859 100,71.01885871508591 Q 140.2,73.4188587150859 140.2,80.6188587150859" fill="#00858d" filter="url(#organic)"/>
  </g>
</svg>