<svg xmlns="http://www.w3.org/2000/svg" viewBox="0 0 200 200" width="200" height="200">
  <defs>
    <filter id="organic" x="-5%" y="-5%" width="110%" height="110%">
    <feTurbulence type="fractalNoise" baseFrequency="0.04" numOctaves="3" seed="1" result="noise"/>
    <feDisplacementMap in="SourceGraphic" in2="noise" scale="2" xChannelSelector="R" yChannelSelector="G"/>
  </filter>
  </defs>
  <g>
    <path d="M 92,95.72754297272482 Q 91,132.8637714863624 90.4,170 L 109.6,170 Q 109,132.8637714863624 108,95.72754297272482 Z" fill="#a496bf" filter="url(#organic)"/>
    <ellipse cx="100" cy="118.00928008090737" rx="12" ry="3.5999999999999996" fill="none" stroke="currentColor" stroke-width="1.5" opacity="0.6"/>
    <path d="M 60,95.72754297272482 L 58.56,105.32754297272481 M 63.47826086956522,95.72754297272482 L 62.16347826086957,105.32754297272481 M 66.95652173913044,95.72754297272482 L 65.76695652173913,105.32754297272481 M 70.43478260869566,95.72754297272482 L 69.3704347826087,105.32754297272481 M 73.91304347826087,95.72754297272482 L 72.97391304347826,105.32754297272481 M 77.3913043478261,95.72754297272482 L 76.57739130434783,105.32754297272481 M 80.86956521739131,95.72754297272482 L 80.18086956521739,105.32754297272481 M 84.34782608695653,95.72754297272482 L 83.78434782608697,105.32754297272481 M 87.82608695652173,95.72754297272482 L 87.38782608695652,105.32754297272481 M 91.30434782608695,95.72754297272482 L 90.99130434782609,105.32754297272481 M 94.78260869565219,95.72754297272482 L 94.59478260869567,105.32754297272481 M 98.2608695652174,95.72754297272482 L 98.19826086956523,105.32754297272481 M 101.73913043478261,95.72754297272482 L 101.80173913043478,105.32754297272481 M 105.21739130434783,95.72754297272482 L 105.40521739130435,105.32754297272481 M 108.69565217391306,95.72754297272482 L 109.00869565217393,105.32754297272481 M 112.17391304347827,95.72754297272482 L 112.61217391304348,105.32754297272481 M 115.65217391304347,95.72754297272482 L 116.21565217391303,105.32754297272481 M 119.13043478260869,95.72754297272482 L 119.81913043478261,105.32754297272481 M 122.6086956521739,95.72754297272482 L 123.42260869565217,105.32754297272481 M 126.08695652173913,95.72754297272482 L 127.02608695652174,105.32754297272481 M 129.56521739130437,95.72754297272482 L 130.62956521739133,105.32754297272481 M 133.04347826086956,95.72754297272482 L 134.23304347826087,105.32754297272481 M 136.5217391304348,95.72754297272482 L 137.83652173913046,105.32754297272481 M 140,95.72754297272482 L 141.44,105.32754297272481" stroke="#a496bf" stroke-width="0.8" fill="none" opacity="0.7"/>
    <path d="M 50,95.72754297272482 Q 50,88.52754297272482 100,86.12754297272483 Q 150,88.52754297272482 150,95.72754297272482" fill="#576cb7" filter="url(#organic)"/>
  </g>
</svg>