<svg xmlns="http://www.w3.org/2000/svg" viewBox="0 0 200 200" width="200" height="200">
  <defs>
    <filter id="organic" x="-5%" y="-5%" width="110%" height="110%">
    <feTurbulence type="fractalNoise" baseFrequency="0.04" numOctaves="3" seed="1" result="noise"/>
    <feDisplacementMap in="SourceGraphic" in2="noise" scale="2" xChannelSelector="R" yChannelSelector="G"/>
  </filter>
  </defs>
  <g>
    <path d="M 92.4,102.40054544405591 Q 91.4,136.20027272202796 90.88,170 L 109.12,170 Q 108.6,136.20027272202796 107.6,102.40054544405591 Z" fill="#979bc4" filter="url(#organic)"/>
    <ellipse cx="100" cy="122.68038181083914" rx="11.399999999999999" ry="3.4199999999999995" fill="none" stroke="currentColor" stroke-width="1.5" opacity="0.6"/>
    <path d="M 60,102.40054544405591 L 58.479,112.54054544405591 M 63.47826086956522,102.40054544405591 L 62.08952173913043,112.54054544405591 M 66.95652173913044,102.40054544405591 L 65.70004347826087,112.54054544405591 M 70.43478260869566,102.40054544405591 L 69.31056521739131,112.54054544405591 M 73.91304347826087,102.40054544405591 L 72.92108695652175,112.54054544405591 M 77.3913043478261,102.40054544405591 L 76.53160869565218,112.54054544405591 M 80.86956521739131,102.40054544405591 L 80.14213043478262,112.54054544405591 M 84.34782608695653,102.40054544405591 L 83.75265217391305,112.54054544405591 M 87.82608695652173,102.40054544405591 L 87.36317391304347,112.54054544405591 M 91.30434782608695,102.40054544405591 L 90.97369565217392,112.54054544405591 M 94.78260869565219,102.40054544405591 L 94.58421739130436,112.54054544405591 M 98.2608695652174,102.40054544405591 L 98.1947391304348,112.54054544405591 M 101.73913043478261,102.40054544405591 L 101.80526086956522,112.54054544405591 M 105.21739130434783,102.40054544405591 L 105.41578260869565,112.54054544405591 M 108.69565217391306,102.40054544405591 L 109.0263043478261,112.54054544405591 M 112.17391304347827,102.40054544405591 L 112.63682608695653,112.54054544405591 M 115.65217391304347,102.40054544405591 L 116.24734782608695,112.54054544405591 M 119.13043478260869,102.40054544405591 L 119.85786956521738,112.54054544405591 M 122.6086956521739,102.40054544405591 L 123.46839130434782,112.54054544405591 M 126.08695652173913,102.40054544405591 L 127.07891304347825,112.54054544405591 M 129.56521739130437,102.40054544405591 L 130.6894347826087,112.54054544405591 M 133.04347826086956,102.40054544405591 L 134.29995652173912,112.54054544405591 M 136.5217391304348,102.40054544405591 L 137.91047826086958,112.54054544405591 M 140,102.40054544405591 L 141.521,112.54054544405591" stroke="#979bc4" stroke-width="0.8" fill="none" opacity="0.7"/>
    <path d="M 50,92.26054544405591 Q 65,102.4005454440559 100,97.3305454440559 Q 135,102.4005454440559 150,92.26054544405591" fill="#3275b4" filter="url(#organic)"/>
    <circle cx="75.0" cy="84.7" r="3" fill="white" opacity="0.85"/>
    <circle cx="115.0" cy="82.1" r="2.5" fill="white" opacity="0.85"/>
    <circle cx="95.0" cy="80.9" r="2" fill="white" opacity="0.85"/>
    <circle cx="130.0" cy="87.2" r="2" fill="white" opacity="0.85"/>
    <circle cx="70.0" cy="89.7" r="1.5" fill="white" opacity="0.85"/>
    <circle cx="105.0" cy="89.7" r="2.5" fill="white" opacity="0.85"/>
  </g>
</svg>