<svg xmlns="http://www.w3.org/2000/svg" viewBox="0 0 200 200" width="200" height="200">
  <defs>
    <filter id="organic" x="-5%" y="-5%" width="110%" height="110%">
    <feTurbulence type="fractalNoise" baseFrequency="0.04" numOctaves="3" seed="1" result="noise"/>
    <feDisplacementMap in="SourceGraphic" in2="noise" scale="2" xChannelSelector="R" yChannelSelector="G"/>
  </filter>
  </defs>
  <g>
    <path d="M 95.6,86.05198170992074 Q 94.6,128.02599085496036 94.72,170 L 105.28,170 Q 105.4,128.02599085496036 104.4,86.05198170992074 Z" fill="#979bc4" filter="url(#organic)"/>
    <ellipse cx="100" cy="111.23638719694452" rx="6.6000000000000005" ry="1.98" fill="none" stroke="currentColor" stroke-width="1.5" opacity="0.6"/>
    <path d="M 67.84,86.05198170992074 L 65.914,98.89198170992074 M 72.128,86.05198170992074 L 70.4588,98.89198170992074 M 76.416,86.05198170992074 L 75.00359999999999,98.89198170992074 M 80.70400000000001,86.05198170992074 L 79.5484,98.89198170992074 M 84.992,86.05198170992074 L 84.09320000000001,98.89198170992074 M 89.28,86.05198170992074 L 88.638,98.89198170992074 M 93.56800000000001,86.05198170992074 L 93.18280000000001,98.89198170992074 M 97.85600000000001,86.05198170992074 L 97.72760000000001,98.89198170992074 M 102.144,86.05198170992074 L 102.2724,98.89198170992074 M 106.43200000000002,86.05198170992074 L 106.81720000000001,98.89198170992074 M 110.72,86.05198170992074 L 111.362,98.89198170992074 M 115.00800000000001,86.05198170992074 L 115.9068,98.89198170992074 M 119.29600000000002,86.05198170992074 L 120.45160000000003,98.89198170992074 M 123.584,86.05198170992074 L 124.99640000000001,98.89198170992074 M 127.87200000000001,86.05198170992074 L 129.5412,98.89198170992074 M 132.16000000000003,86.05198170992074 L 134.086,98.89198170992074" stroke="#979bc4" stroke-width="0.8" fill="none" opacity="0.7"/>
    <path d="M 59.8,86.05198170992074 Q 59.8,76.42198170992074 100,73.21198170992074 Q 140.2,76.42198170992074 140.2,86.05198170992074" fill="#3275b4" filter="url(#organic)"/>
  </g>
</svg>