<svg xmlns="http://www.w3.org/2000/svg" viewBox="0 0 200 200" width="200" height="200">
  <defs>
    <filter id="organic" x="-5%" y="-5%" width="110%" height="110%">
    <feTurbulence type="fractalNoise" baseFrequency="0.04" numOctaves="3" seed="1" result="noise"/>
    <feDisplacementMap in="SourceGraphic" in2="noise" scale="2" xChannelSelector="R" yChannelSelector="G"/>
  </filter>
  </defs>
  <g>
    <path d="M 95.6,110.9090909090909 Q 94.6,140.45454545454544 94.72,170 L 105.28,170 Q 105.4,140.45454545454544 104.4,110.9090909090909 Z" fill="#979bc4" filter="url(#organic)"/>
    <path d="M 67.84,110.9090909090909 L 66.319,121.0490909090909 M 72.128,110.9090909090909 L 70.8098,121.0490909090909 M 76.416,110.9090909090909 L 75.3006,121.0490909090909 M 80.70400000000001,110.9090909090909 L 79.79140000000001,121.0490909090909 M 84.992,110.9090909090909 L 84.2822,121.0490909090909 M 89.28,110.9090909090909 L 88.773,121.0490909090909 M 93.56800000000001,110.9090909090909 L 93.26380000000002,121.0490909090909 M 97.85600000000001,110.9090909090909 L 97.75460000000001,121.0490909090909 M 102.144,110.9090909090909 L 102.2454,121.0490909090909 M 106.43200000000002,110.9090909090909 L 106.73620000000001,121.0490909090909 M 110.72,110.9090909090909 L 111.227,121.0490909090909 M 115.00800000000001,110.9090909090909 L 115.71780000000001,121.0490909090909 M 119.29600000000002,110.9090909090909 L 120.20860000000002,121.0490909090909 M 123.584,110.9090909090909 L 124.6994,121.0490909090909 M 127.87200000000001,110.9090909090909 L 129.1902,121.0490909090909 M 132.16000000000003,110.9090909090909 L 133.681,121.0490909090909" stroke="#979bc4" stroke-width="0.8" fill="none" opacity="0.7"/>
    <path d="M 59.8,110.9090909090909 Q 67.84,93.16409090909092 100,85.55909090909091 Q 132.16,93.16409090909092 140.2,110.9090909090909" fill="#3275b4" filter="url(#organic)"/>
  </g>
</svg>