<svg xmlns="http://www.w3.org/2000/svg" viewBox="0 0 200 200" width="200" height="200">
  <defs>
    <filter id="organic" x="-5%" y="-5%" width="110%" height="110%">
    <feTurbulence type="fractalNoise" baseFrequency="0.04" numOctaves="3" seed="1" result="noise"/>
    <feDisplacementMap in="SourceGraphic" in2="noise" scale="2" xChannelSelector="R" yChannelSelector="G"/>
  </filter>
  </defs>
  <g>
    <path d="M 96,98.34239669408583 Q 95,134.17119834704292 95.2,170 L 104.8,170 Q 105,134.17119834704292 104,98.34239669408583 Z" fill="#979bc4" filter="url(#organic)"/>
    <ellipse cx="100" cy="119.83967768586008" rx="6" ry="1.7999999999999998" fill="none" stroke="currentColor" stroke-width="1.5" opacity="0.6"/>
    <path d="M 69.8,98.34239669408583 L 67.955,110.64239669408583 M 74.44615384615385,98.34239669408583 L 72.885,110.64239669408583 M 79.09230769230768,98.34239669408583 L 77.815,110.64239669408583 M 83.73846153846154,98.34239669408583 L 82.745,110.64239669408583 M 88.38461538461539,98.34239669408583 L 87.675,110.64239669408583 M 93.03076923076924,98.34239669408583 L 92.605,110.64239669408583 M 97.67692307692307,98.34239669408583 L 97.535,110.64239669408583 M 102.32307692307691,98.34239669408583 L 102.46499999999999,110.64239669408583 M 106.96923076923076,98.34239669408583 L 107.395,110.64239669408583 M 111.61538461538461,98.34239669408583 L 112.325,110.64239669408583 M 116.26153846153846,98.34239669408583 L 117.25500000000001,110.64239669408583 M 120.90769230769232,98.34239669408583 L 122.185,110.64239669408583 M 125.55384615384615,98.34239669408583 L 127.115,110.64239669408583 M 130.2,98.34239669408583 L 132.045,110.64239669408583" stroke="#979bc4" stroke-width="0.8" fill="none" opacity="0.7"/>
    <path d="M 62.25,98.34239669408583 Q 62.25,89.11739669408584 100,86.04239669408584 Q 137.75,89.11739669408584 137.75,98.34239669408583" fill="#3275b4" filter="url(#organic)"/>
  </g>
</svg>