<svg xmlns="http://www.w3.org/2000/svg" viewBox="0 0 200 200" width="200" height="200">
  <defs>
    <filter id="organic" x="-5%" y="-5%" width="110%" height="110%">
    <feTurbulence type="fractalNoise" baseFrequency="0.04" numOctaves="3" seed="1" result="noise"/>
    <feDisplacementMap in="SourceGraphic" in2="noise" scale="2" xChannelSelector="R" yChannelSelector="G"/>
  </filter>
  </defs>
  <g>
    <path d="M 96,92.67058443491857 Q 95,131.33529221745928 95.2,170 L 104.8,170 Q 105,131.33529221745928 104,92.67058443491857 Z" fill="#979bc4" filter="url(#organic)"/>
    <path d="M 69.8,92.67058443491857 L 68.279,102.81058443491857 M 74.44615384615385,92.67058443491857 L 73.15915384615384,102.81058443491857 M 79.09230769230768,92.67058443491857 L 78.03930769230769,102.81058443491857 M 83.73846153846154,92.67058443491857 L 82.91946153846153,102.81058443491857 M 88.38461538461539,92.67058443491857 L 87.7996153846154,102.81058443491857 M 93.03076923076924,92.67058443491857 L 92.67976923076924,102.81058443491857 M 97.67692307692307,92.67058443491857 L 97.55992307692307,102.81058443491857 M 102.32307692307691,92.67058443491857 L 102.44007692307692,102.81058443491857 M 106.96923076923076,92.67058443491857 L 107.32023076923076,102.81058443491857 M 111.61538461538461,92.67058443491857 L 112.2003846153846,102.81058443491857 M 116.26153846153846,92.67058443491857 L 117.08053846153847,102.81058443491857 M 120.90769230769232,92.67058443491857 L 121.96069230769231,102.81058443491857 M 125.55384615384615,92.67058443491857 L 126.84084615384616,102.81058443491857 M 130.2,92.67058443491857 L 131.72099999999998,102.81058443491857" stroke="#979bc4" stroke-width="0.8" fill="none" opacity="0.7"/>
    <path d="M 62.25,92.67058443491857 Q 62.25,85.06558443491858 100,82.53058443491858 Q 137.75,85.06558443491858 137.75,92.67058443491857" fill="#3275b4" filter="url(#organic)"/>
    <circle cx="81.1" cy="74.9" r="3" fill="white" opacity="0.85"/>
    <circle cx="111.3" cy="72.4" r="2.5" fill="white" opacity="0.85"/>
    <circle cx="96.2" cy="71.1" r="2" fill="white" opacity="0.85"/>
    <circle cx="122.7" cy="77.5" r="2" fill="white" opacity="0.85"/>
    <circle cx="77.3" cy="80.0" r="1.5" fill="white" opacity="0.85"/>
    <circle cx="103.8" cy="80.0" r="2.5" fill="white" opacity="0.85"/>
  </g>
</svg>