<svg xmlns="http://www.w3.org/2000/svg" viewBox="0 0 200 200" width="200" height="200">
  <defs>
    <filter id="organic" x="-5%" y="-5%" width="110%" height="110%">
    <feTurbulence type="fractalNoise" baseFrequency="0.04" numOctaves="3" seed="1" result="noise"/>
    <feDisplacementMap in="SourceGraphic" in2="noise" scale="2" xChannelSelector="R" yChannelSelector="G"/>
  </filter>
  </defs>
  <g>
    <path d="M 96,82.98760881384041 Q 95,126.4938044069202 95.2,170 L 104.8,170 Q 105,126.4938044069202 104,82.98760881384041 Z" fill="#979bc4" filter="url(#organic)"/>
    <path d="M 69.8,82.98760881384041 L 67.145,100.68760881384041 M 74.44615384615385,82.98760881384041 L 72.19961538461538,100.68760881384041 M 79.09230769230768,82.98760881384041 L 77.25423076923076,100.68760881384041 M 83.73846153846154,82.98760881384041 L 82.30884615384615,100.68760881384041 M 88.38461538461539,82.98760881384041 L 87.36346153846154,100.68760881384041 M 93.03076923076924,82.98760881384041 L 92.41807692307692,100.68760881384041 M 97.67692307692307,82.98760881384041 L 97.4726923076923,100.68760881384041 M 102.32307692307691,82.98760881384041 L 102.52730769230769,100.68760881384041 M 106.96923076923076,82.98760881384041 L 107.58192307692308,100.68760881384041 M 111.61538461538461,82.98760881384041 L 112.63653846153846,100.68760881384041 M 116.26153846153846,82.98760881384041 L 117.69115384615385,100.68760881384041 M 120.90769230769232,82.98760881384041 L 122.74576923076924,100.68760881384041 M 125.55384615384615,82.98760881384041 L 127.80038461538462,100.68760881384041 M 130.2,82.98760881384041 L 132.855,100.68760881384041" stroke="#979bc4" stroke-width="0.8" fill="none" opacity="0.7"/>
    <path d="M 62.25,82.98760881384041 Q 62.25,69.7126088138404 100,65.28760881384041 Q 137.75,69.7126088138404 137.75,82.98760881384041" fill="#3275b4" filter="url(#organic)"/>
  </g>
</svg>