<svg xmlns="http://www.w3.org/2000/svg" viewBox="0 0 200 200" width="200" height="200">
  <defs>
    <filter id="glow" x="-50%" y="-50%" width="200%" height="200%">
    <feGaussianBlur in="SourceGraphic" stdDeviation="3" result="blur"/>
    <feMerge>
      <feMergeNode in="blur"/>
      <feMergeNode in="blur"/>
      <feMergeNode in="SourceGraphic"/>
    </feMerge>
  </filter>
    <filter id="organic" x="-5%" y="-5%" width="110%" height="110%">
    <feTurbulence type="fractalNoise" baseFrequency="0.04" numOctaves="3" seed="1" result="noise"/>
    <feDisplacementMap in="SourceGraphic" in2="noise" scale="2" xChannelSelector="R" yChannelSelector="G"/>
  </filter>
  </defs>
  <g filter="url(#glow)">
    <path d="M 92,67.4275602974083 Q 91,118.71378014870416 90.4,170 L 109.6,170 Q 109,118.71378014870416 108,67.4275602974083 Z" fill="#979bc4" filter="url(#organic)"/>
    <ellipse cx="100" cy="98.19929220818581" rx="12" ry="3.5999999999999996" fill="none" stroke="currentColor" stroke-width="1.5" opacity="0.6"/>
    <path d="M 60,67.4275602974083 L 56.4,91.4275602974083 M 63.47826086956522,67.4275602974083 L 60.19130434782609,91.4275602974083 M 66.95652173913044,67.4275602974083 L 63.982608695652175,91.4275602974083 M 70.43478260869566,67.4275602974083 L 67.77391304347826,91.4275602974083 M 73.91304347826087,67.4275602974083 L 71.56521739130436,91.4275602974083 M 77.3913043478261,67.4275602974083 L 75.35652173913044,91.4275602974083 M 80.86956521739131,67.4275602974083 L 79.14782608695653,91.4275602974083 M 84.34782608695653,67.4275602974083 L 82.93913043478261,91.4275602974083 M 87.82608695652173,67.4275602974083 L 86.7304347826087,91.4275602974083 M 91.30434782608695,67.4275602974083 L 90.52173913043478,91.4275602974083 M 94.78260869565219,67.4275602974083 L 94.31304347826088,91.4275602974083 M 98.2608695652174,67.4275602974083 L 98.10434782608696,91.4275602974083 M 101.73913043478261,67.4275602974083 L 101.89565217391305,91.4275602974083 M 105.21739130434783,67.4275602974083 L 105.68695652173913,91.4275602974083 M 108.69565217391306,67.4275602974083 L 109.47826086956523,91.4275602974083 M 112.17391304347827,67.4275602974083 L 113.2695652173913,91.4275602974083 M 115.65217391304347,67.4275602974083 L 117.06086956521739,91.4275602974083 M 119.13043478260869,67.4275602974083 L 120.85217391304347,91.4275602974083 M 122.6086956521739,67.4275602974083 L 124.64347826086956,91.4275602974083 M 126.08695652173913,67.4275602974083 L 128.43478260869566,91.4275602974083 M 129.56521739130437,67.4275602974083 L 132.22608695652175,91.4275602974083 M 133.04347826086956,67.4275602974083 L 136.01739130434783,91.4275602974083 M 136.5217391304348,67.4275602974083 L 139.80869565217395,91.4275602974083 M 140,67.4275602974083 L 143.6,91.4275602974083" stroke="#979bc4" stroke-width="0.8" fill="none" opacity="0.7"/>
    <path d="M 50,43.427560297408306 Q 65,67.4275602974083 100,55.427560297408306 Q 135,67.4275602974083 150,43.427560297408306" fill="#3275b4" filter="url(#organic)"/>
  </g>
</svg>