<svg xmlns="http://www.w3.org/2000/svg" viewBox="0 0 200 200" width="200" height="200">
  <defs>
    <filter id="organic" x="-5%" y="-5%" width="110%" height="110%">
    <feTurbulence type="fractalNoise" baseFrequency="0.04" numOctaves="3" seed="1" result="noise"/>
    <feDisplacementMap in="SourceGraphic" in2="noise" scale="2" xChannelSelector="R" yChannelSelector="G"/>
  </filter>
  </defs>
  <g>
    <path d="M 96,85.92997652627837 Q 95,127.96498826313919 95.2,170 L 104.8,170 Q 105,127.96498826313919 104,85.92997652627837 Z" fill="#979bc4" filter="url(#organic)"/>
    <ellipse cx="100" cy="111.15098356839485" rx="6" ry="1.7999999999999998" fill="none" stroke="currentColor" stroke-width="1.5" opacity="0.6"/>
    <path d="M 69.8,85.92997652627837 L 67.79299999999999,99.30997652627838 M 74.44615384615385,85.92997652627837 L 72.74792307692307,99.30997652627838 M 79.09230769230768,85.92997652627837 L 77.70284615384615,99.30997652627838 M 83.73846153846154,85.92997652627837 L 82.65776923076923,99.30997652627838 M 88.38461538461539,85.92997652627837 L 87.61269230769231,99.30997652627838 M 93.03076923076924,85.92997652627837 L 92.5676153846154,99.30997652627838 M 97.67692307692307,85.92997652627837 L 97.52253846153846,99.30997652627838 M 102.32307692307691,85.92997652627837 L 102.47746153846153,99.30997652627838 M 106.96923076923076,85.92997652627837 L 107.4323846153846,99.30997652627838 M 111.61538461538461,85.92997652627837 L 112.38730769230769,99.30997652627838 M 116.26153846153846,85.92997652627837 L 117.34223076923077,99.30997652627838 M 120.90769230769232,85.92997652627837 L 122.29715384615385,99.30997652627838 M 125.55384615384615,85.92997652627837 L 127.25207692307693,99.30997652627838 M 130.2,85.92997652627837 L 132.207,99.30997652627838" stroke="#979bc4" stroke-width="0.8" fill="none" opacity="0.7"/>
    <path d="M 62.25,85.92997652627837 Q 62.25,75.89497652627836 100,72.54997652627836 Q 137.75,75.89497652627836 137.75,85.92997652627837" fill="#3275b4" filter="url(#organic)"/>
    <circle cx="81.1" cy="62.5" r="3" fill="white" opacity="0.85"/>
    <circle cx="111.3" cy="59.2" r="2.5" fill="white" opacity="0.85"/>
    <circle cx="96.2" cy="57.5" r="2" fill="white" opacity="0.85"/>
    <circle cx="122.7" cy="65.9" r="2" fill="white" opacity="0.85"/>
    <circle cx="77.3" cy="69.2" r="1.5" fill="white" opacity="0.85"/>
    <circle cx="103.8" cy="69.2" r="2.5" fill="white" opacity="0.85"/>
  </g>
</svg>