<svg xmlns="http://www.w3.org/2000/svg" viewBox="0 0 200 200" width="200" height="200">
  <defs>
    <filter id="organic" x="-5%" y="-5%" width="110%" height="110%">
    <feTurbulence type="fractalNoise" baseFrequency="0.04" numOctaves="3" seed="1" result="noise"/>
    <feDisplacementMap in="SourceGraphic" in2="noise" scale="2" xChannelSelector="R" yChannelSelector="G"/>
  </filter>
  </defs>
  <g>
    <path d="M 96.4,80.87794169494569 Q 95.4,125.43897084747285 95.68,170 L 104.32,170 Q 104.6,125.43897084747285 103.6,80.87794169494569 Z" fill="#979bc4" filter="url(#organic)"/>
    <path d="M 71.75999999999999,80.87794169494569 L 68.16,104.87794169494569 M 76.89454545454545,80.87794169494569 L 73.9490909090909,104.87794169494569 M 82.0290909090909,80.87794169494569 L 79.7381818181818,104.87794169494569 M 87.16363636363636,80.87794169494569 L 85.52727272727272,104.87794169494569 M 92.29818181818182,80.87794169494569 L 91.31636363636363,104.87794169494569 M 97.43272727272726,80.87794169494569 L 97.10545454545453,104.87794169494569 M 102.56727272727272,80.87794169494569 L 102.89454545454545,104.87794169494569 M 107.70181818181817,80.87794169494569 L 108.68363636363635,104.87794169494569 M 112.83636363636364,80.87794169494569 L 114.47272727272728,104.87794169494569 M 117.97090909090909,80.87794169494569 L 120.26181818181819,104.87794169494569 M 123.10545454545453,80.87794169494569 L 126.05090909090907,104.87794169494569 M 128.24,80.87794169494569 L 131.84,104.87794169494569" stroke="#979bc4" stroke-width="0.8" fill="none" opacity="0.7"/>
    <path d="M 64.69999999999999,80.87794169494569 Q 64.69999999999999,56.87794169494569 89.41,44.87794169494569 L 100,20.87794169494569 L 110.59,44.87794169494569 Q 135.3,56.87794169494569 135.3,80.87794169494569" fill="#3275b4" filter="url(#organic)"/>
  </g>
</svg>