<svg xmlns="http://www.w3.org/2000/svg" viewBox="0 0 200 200" width="200" height="200">
  <defs>
    <filter id="organic" x="-5%" y="-5%" width="110%" height="110%">
    <feTurbulence type="fractalNoise" baseFrequency="0.04" numOctaves="3" seed="1" result="noise"/>
    <feDisplacementMap in="SourceGraphic" in2="noise" scale="2" xChannelSelector="R" yChannelSelector="G"/>
  </filter>
  </defs>
  <g>
    <path d="M 97.4,90.68102026527521 Q 96.4,130.3405101326376 96.88,170 L 103.12,170 Q 103.6,130.3405101326376 102.6,90.68102026527521 Z" fill="#979bc4" filter="url(#organic)"/>
    <path d="M 77.64,90.68102026527521 L 75.39,105.68102026527521 M 86.584,90.68102026527521 L 85.23400000000001,105.68102026527521 M 95.528,90.68102026527521 L 95.078,105.68102026527521 M 104.47200000000001,90.68102026527521 L 104.92200000000001,105.68102026527521 M 113.416,90.68102026527521 L 114.76599999999999,105.68102026527521 M 122.36,90.68102026527521 L 124.61,105.68102026527521" stroke="#979bc4" stroke-width="0.8" fill="none" opacity="0.7"/>
    <path d="M 72.05,90.68102026527521 Q 72.05,53.18102026527521 100,53.18102026527521 Q 127.95,53.18102026527521 127.95,90.68102026527521" fill="#3275b4" filter="url(#organic)"/>
    <circle cx="86.0" cy="64.4" r="3" fill="white" opacity="0.85"/>
    <circle cx="108.4" cy="60.7" r="2.5" fill="white" opacity="0.85"/>
    <circle cx="97.2" cy="58.8" r="2" fill="white" opacity="0.85"/>
    <circle cx="116.8" cy="68.2" r="2" fill="white" opacity="0.85"/>
    <circle cx="83.2" cy="71.9" r="1.5" fill="white" opacity="0.85"/>
    <circle cx="102.8" cy="71.9" r="2.5" fill="white" opacity="0.85"/>
  </g>
</svg>