<svg xmlns="http://www.w3.org/2000/svg" viewBox="0 0 200 200" width="200" height="200">
  <defs>
    <filter id="organic" x="-5%" y="-5%" width="110%" height="110%">
    <feTurbulence type="fractalNoise" baseFrequency="0.04" numOctaves="3" seed="1" result="noise"/>
    <feDisplacementMap in="SourceGraphic" in2="noise" scale="2" xChannelSelector="R" yChannelSelector="G"/>
  </filter>
  </defs>
  <g>
    <path d="M 92,83.50411400162236 Q 91,126.75205700081118 90.4,170 L 109.6,170 Q 109,126.75205700081118 108,83.50411400162236 Z" fill="#979bc4" filter="url(#organic)"/>
    <path d="M 60,83.50411400162236 L 57.183,102.28411400162236 M 63.47826086956522,83.50411400162236 L 60.90621739130435,102.28411400162236 M 66.95652173913044,83.50411400162236 L 64.6294347826087,102.28411400162236 M 70.43478260869566,83.50411400162236 L 68.35265217391304,102.28411400162236 M 73.91304347826087,83.50411400162236 L 72.0758695652174,102.28411400162236 M 77.3913043478261,83.50411400162236 L 75.79908695652175,102.28411400162236 M 80.86956521739131,83.50411400162236 L 79.5223043478261,102.28411400162236 M 84.34782608695653,83.50411400162236 L 83.24552173913044,102.28411400162236 M 87.82608695652173,83.50411400162236 L 86.96873913043478,102.28411400162236 M 91.30434782608695,83.50411400162236 L 90.69195652173913,102.28411400162236 M 94.78260869565219,83.50411400162236 L 94.41517391304349,102.28411400162236 M 98.2608695652174,83.50411400162236 L 98.13839130434783,102.28411400162236 M 101.73913043478261,83.50411400162236 L 101.86160869565218,102.28411400162236 M 105.21739130434783,83.50411400162236 L 105.58482608695653,102.28411400162236 M 108.69565217391306,83.50411400162236 L 109.30804347826088,102.28411400162236 M 112.17391304347827,83.50411400162236 L 113.03126086956522,102.28411400162236 M 115.65217391304347,83.50411400162236 L 116.75447826086956,102.28411400162236 M 119.13043478260869,83.50411400162236 L 120.4776956521739,102.28411400162236 M 122.6086956521739,83.50411400162236 L 124.20091304347825,102.28411400162236 M 126.08695652173913,83.50411400162236 L 127.9241304347826,102.28411400162236 M 129.56521739130437,83.50411400162236 L 131.64734782608699,102.28411400162236 M 133.04347826086956,83.50411400162236 L 135.3705652173913,102.28411400162236 M 136.5217391304348,83.50411400162236 L 139.09378260869568,102.28411400162236 M 140,83.50411400162236 L 142.817,102.28411400162236" stroke="#979bc4" stroke-width="0.8" fill="none" opacity="0.7"/>
    <path d="M 50,64.72411400162235 Q 65,83.50411400162236 100,74.11411400162235 Q 135,83.50411400162236 150,64.72411400162235" fill="#3275b4" filter="url(#organic)"/>
    <circle cx="75.0" cy="50.6" r="3" fill="white" opacity="0.85"/>
    <circle cx="115.0" cy="45.9" r="2.5" fill="white" opacity="0.85"/>
    <circle cx="95.0" cy="43.6" r="2" fill="white" opacity="0.85"/>
    <circle cx="130.0" cy="55.3" r="2" fill="white" opacity="0.85"/>
    <circle cx="70.0" cy="60.0" r="1.5" fill="white" opacity="0.85"/>
    <circle cx="105.0" cy="60.0" r="2.5" fill="white" opacity="0.85"/>
  </g>
</svg>