<svg xmlns="http://www.w3.org/2000/svg" viewBox="0 0 200 200" width="200" height="200">
  <defs>
    <filter id="organic" x="-5%" y="-5%" width="110%" height="110%">
    <feTurbulence type="fractalNoise" baseFrequency="0.04" numOctaves="3" seed="1" result="noise"/>
    <feDisplacementMap in="SourceGraphic" in2="noise" scale="2" xChannelSelector="R" yChannelSelector="G"/>
  </filter>
  </defs>
  <g>
    <path d="M 95.2,114.84049731900147 Q 94.2,142.42024865950074 94.24,170 L 105.76,170 Q 105.8,142.42024865950074 104.8,114.84049731900147 Z" fill="#979bc4" filter="url(#organic)"/>
    <ellipse cx="100" cy="131.38834812330103" rx="7.199999999999999" ry="2.1599999999999997" fill="none" stroke="currentColor" stroke-width="1.5" opacity="0.6"/>
    <path d="M 65.88,114.84049731900147 L 64.359,124.98049731900147 M 69.89411764705882,114.84049731900147 L 68.5520588235294,124.98049731900147 M 73.90823529411765,114.84049731900147 L 72.74511764705882,124.98049731900147 M 77.92235294117647,114.84049731900147 L 76.93817647058823,124.98049731900147 M 81.9364705882353,114.84049731900147 L 81.13123529411764,124.98049731900147 M 85.95058823529412,114.84049731900147 L 85.32429411764706,124.98049731900147 M 89.96470588235294,114.84049731900147 L 89.51735294117647,124.98049731900147 M 93.97882352941176,114.84049731900147 L 93.71041176470587,124.98049731900147 M 97.9929411764706,114.84049731900147 L 97.9034705882353,124.98049731900147 M 102.0070588235294,114.84049731900147 L 102.0965294117647,124.98049731900147 M 106.02117647058824,114.84049731900147 L 106.28958823529413,124.98049731900147 M 110.03529411764706,114.84049731900147 L 110.48264705882353,124.98049731900147 M 114.0494117647059,114.84049731900147 L 114.67570588235296,124.98049731900147 M 118.0635294117647,114.84049731900147 L 118.86876470588236,124.98049731900147 M 122.07764705882353,114.84049731900147 L 123.06182352941177,124.98049731900147 M 126.09176470588235,114.84049731900147 L 127.25488235294118,124.98049731900147 M 130.1058823529412,114.84049731900147 L 131.4479411764706,124.98049731900147 M 134.12,114.84049731900147 L 135.641,124.98049731900147" stroke="#979bc4" stroke-width="0.8" fill="none" opacity="0.7"/>
    <path d="M 57.349999999999994,114.84049731900146 Q 57.349999999999994,89.49049731900146 100,89.49049731900146 Q 142.65,89.49049731900146 142.65,114.84049731900146" fill="#3275b4" filter="url(#organic)"/>
    <circle cx="78.7" cy="97.1" r="3" fill="white" opacity="0.85"/>
    <circle cx="112.8" cy="94.6" r="2.5" fill="white" opacity="0.85"/>
    <circle cx="95.7" cy="93.3" r="2" fill="white" opacity="0.85"/>
    <circle cx="125.6" cy="99.6" r="2" fill="white" opacity="0.85"/>
    <circle cx="74.4" cy="102.2" r="1.5" fill="white" opacity="0.85"/>
    <circle cx="104.3" cy="102.2" r="2.5" fill="white" opacity="0.85"/>
  </g>
</svg>