<svg xmlns="http://www.w3.org/2000/svg" viewBox="0 0 200 200" width="200" height="200">
  <defs>
    <filter id="organic" x="-5%" y="-5%" width="110%" height="110%">
    <feTurbulence type="fractalNoise" baseFrequency="0.04" numOctaves="3" seed="1" result="noise"/>
    <feDisplacementMap in="SourceGraphic" in2="noise" scale="2" xChannelSelector="R" yChannelSelector="G"/>
  </filter>
  </defs>
  <g>
    <path d="M 92,92.10936363111887 Q 91,131.05468181555943 90.4,170 L 109.6,170 Q 109,131.05468181555943 108,92.10936363111887 Z" fill="#979bc4" filter="url(#organic)"/>
    <ellipse cx="100" cy="115.4765545417832" rx="12" ry="3.5999999999999996" fill="none" stroke="currentColor" stroke-width="1.5" opacity="0.6"/>
    <path d="M 60,92.10936363111887 L 57.831,106.56936363111888 M 63.47826086956522,92.10936363111887 L 61.49786956521739,106.56936363111888 M 66.95652173913044,92.10936363111887 L 65.16473913043478,106.56936363111888 M 70.43478260869566,92.10936363111887 L 68.83160869565218,106.56936363111888 M 73.91304347826087,92.10936363111887 L 72.49847826086958,106.56936363111888 M 77.3913043478261,92.10936363111887 L 76.16534782608696,106.56936363111888 M 80.86956521739131,92.10936363111887 L 79.83221739130435,106.56936363111888 M 84.34782608695653,92.10936363111887 L 83.49908695652175,106.56936363111888 M 87.82608695652173,92.10936363111887 L 87.16595652173912,106.56936363111888 M 91.30434782608695,92.10936363111887 L 90.83282608695652,106.56936363111888 M 94.78260869565219,92.10936363111887 L 94.49969565217393,106.56936363111888 M 98.2608695652174,92.10936363111887 L 98.16656521739132,106.56936363111888 M 101.73913043478261,92.10936363111887 L 101.83343478260869,106.56936363111888 M 105.21739130434783,92.10936363111887 L 105.50030434782609,106.56936363111888 M 108.69565217391306,92.10936363111887 L 109.1671739130435,106.56936363111888 M 112.17391304347827,92.10936363111887 L 112.83404347826088,106.56936363111888 M 115.65217391304347,92.10936363111887 L 116.50091304347825,106.56936363111888 M 119.13043478260869,92.10936363111887 L 120.16778260869565,106.56936363111888 M 122.6086956521739,92.10936363111887 L 123.83465217391304,106.56936363111888 M 126.08695652173913,92.10936363111887 L 127.50152173913042,106.56936363111888 M 129.56521739130437,92.10936363111887 L 131.16839130434786,106.56936363111888 M 133.04347826086956,92.10936363111887 L 134.83526086956522,106.56936363111888 M 136.5217391304348,92.10936363111887 L 138.50213043478263,106.56936363111888 M 140,92.10936363111887 L 142.169,106.56936363111888" stroke="#979bc4" stroke-width="0.8" fill="none" opacity="0.7"/>
    <path d="M 50,92.10936363111887 Q 50,81.26436363111887 100,77.64936363111886 Q 150,81.26436363111887 150,92.10936363111887" fill="#3275b4" filter="url(#organic)"/>
  </g>
</svg>