<svg xmlns="http://www.w3.org/2000/svg" viewBox="0 0 200 200" width="200" height="200">
  <defs>
    <filter id="organic" x="-5%" y="-5%" width="110%" height="110%">
    <feTurbulence type="fractalNoise" baseFrequency="0.04" numOctaves="3" seed="1" result="noise"/>
    <feDisplacementMap in="SourceGraphic" in2="noise" scale="2" xChannelSelector="R" yChannelSelector="G"/>
  </filter>
  </defs>
  <g>
    <path d="M 94.4,82.15129956082274 Q 93.4,126.07564978041137 93.28,170 L 106.72,170 Q 106.6,126.07564978041137 105.6,82.15129956082274 Z" fill="#979bc4" filter="url(#organic)"/>
    <ellipse cx="100" cy="108.50590969257591" rx="8.399999999999999" ry="2.5199999999999996" fill="none" stroke="currentColor" stroke-width="1.5" opacity="0.6"/>
    <path d="M 61.959999999999994,82.15129956082274 L 58.980999999999995,102.01129956082274 M 65.58285714285714,82.15129956082274 L 62.88757142857142,102.01129956082274 M 69.20571428571428,82.15129956082274 L 66.79414285714284,102.01129956082274 M 72.82857142857142,82.15129956082274 L 70.70071428571428,102.01129956082274 M 76.45142857142856,82.15129956082274 L 74.60728571428571,102.01129956082274 M 80.07428571428571,82.15129956082274 L 78.51385714285713,102.01129956082274 M 83.69714285714285,82.15129956082274 L 82.42042857142856,102.01129956082274 M 87.32,82.15129956082274 L 86.327,102.01129956082274 M 90.94285714285714,82.15129956082274 L 90.23357142857142,102.01129956082274 M 94.56571428571428,82.15129956082274 L 94.14014285714285,102.01129956082274 M 98.18857142857142,82.15129956082274 L 98.04671428571427,102.01129956082274 M 101.81142857142858,82.15129956082274 L 101.95328571428573,102.01129956082274 M 105.4342857142857,82.15129956082274 L 105.85985714285714,102.01129956082274 M 109.05714285714286,82.15129956082274 L 109.76642857142858,102.01129956082274 M 112.68,82.15129956082274 L 113.673,102.01129956082274 M 116.30285714285714,82.15129956082274 L 117.57957142857143,102.01129956082274 M 119.92571428571428,82.15129956082274 L 121.48614285714285,102.01129956082274 M 123.54857142857144,82.15129956082274 L 125.39271428571429,102.01129956082274 M 127.17142857142858,82.15129956082274 L 129.29928571428573,102.01129956082274 M 130.7942857142857,82.15129956082274 L 133.20585714285713,102.01129956082274 M 134.41714285714284,82.15129956082274 L 137.11242857142855,102.01129956082274 M 138.04000000000002,82.15129956082274 L 141.01900000000003,102.01129956082274" stroke="#979bc4" stroke-width="0.8" fill="none" opacity="0.7"/>
    <path d="M 52.449999999999996,82.15129956082274 Q 52.449999999999996,67.25629956082273 100,62.291299560822736 Q 147.55,67.25629956082273 147.55,82.15129956082274" fill="#3275b4" filter="url(#organic)"/>
  </g>
</svg>