<svg xmlns="http://www.w3.org/2000/svg" viewBox="0 0 200 200" width="200" height="200">
  <defs>
    <filter id="organic" x="-5%" y="-5%" width="110%" height="110%">
    <feTurbulence type="fractalNoise" baseFrequency="0.04" numOctaves="3" seed="1" result="noise"/>
    <feDisplacementMap in="SourceGraphic" in2="noise" scale="2" xChannelSelector="R" yChannelSelector="G"/>
  </filter>
  </defs>
  <g>
    <path d="M 92,92.44248137375976 Q 91,131.22124068687987 90.4,170 L 109.6,170 Q 109,131.22124068687987 108,92.44248137375976 Z" fill="#979bc4" filter="url(#organic)"/>
    <ellipse cx="100" cy="115.70973696163183" rx="12" ry="3.5999999999999996" fill="none" stroke="currentColor" stroke-width="1.5" opacity="0.6"/>
    <path d="M 60,92.44248137375976 L 58.074,105.28248137375977 M 63.47826086956522,92.44248137375976 L 61.71973913043478,105.28248137375977 M 66.95652173913044,92.44248137375976 L 65.36547826086957,105.28248137375977 M 70.43478260869566,92.44248137375976 L 69.01121739130436,105.28248137375977 M 73.91304347826087,92.44248137375976 L 72.65695652173913,105.28248137375977 M 77.3913043478261,92.44248137375976 L 76.30269565217392,105.28248137375977 M 80.86956521739131,92.44248137375976 L 79.9484347826087,105.28248137375977 M 84.34782608695653,92.44248137375976 L 83.59417391304349,105.28248137375977 M 87.82608695652173,92.44248137375976 L 87.23991304347825,105.28248137375977 M 91.30434782608695,92.44248137375976 L 90.88565217391304,105.28248137375977 M 94.78260869565219,92.44248137375976 L 94.53139130434784,105.28248137375977 M 98.2608695652174,92.44248137375976 L 98.17713043478263,105.28248137375977 M 101.73913043478261,92.44248137375976 L 101.82286956521739,105.28248137375977 M 105.21739130434783,92.44248137375976 L 105.46860869565218,105.28248137375977 M 108.69565217391306,92.44248137375976 L 109.11434782608697,105.28248137375977 M 112.17391304347827,92.44248137375976 L 112.76008695652175,105.28248137375977 M 115.65217391304347,92.44248137375976 L 116.40582608695651,105.28248137375977 M 119.13043478260869,92.44248137375976 L 120.0515652173913,105.28248137375977 M 122.6086956521739,92.44248137375976 L 123.69730434782608,105.28248137375977 M 126.08695652173913,92.44248137375976 L 127.34304347826087,105.28248137375977 M 129.56521739130437,92.44248137375976 L 130.9887826086957,105.28248137375977 M 133.04347826086956,92.44248137375976 L 134.63452173913043,105.28248137375977 M 136.5217391304348,92.44248137375976 L 138.28026086956524,105.28248137375977 M 140,92.44248137375976 L 141.926,105.28248137375977" stroke="#979bc4" stroke-width="0.8" fill="none" opacity="0.7"/>
    <path d="M 50,92.44248137375976 Q 50,82.81248137375977 100,79.60248137375976 Q 150,82.81248137375977 150,92.44248137375976" fill="#3275b4" filter="url(#organic)"/>
  </g>
</svg>