<svg xmlns="http://www.w3.org/2000/svg" viewBox="0 0 200 200" width="200" height="200">
  <defs>
    <filter id="organic" x="-5%" y="-5%" width="110%" height="110%">
    <feTurbulence type="fractalNoise" baseFrequency="0.04" numOctaves="3" seed="1" result="noise"/>
    <feDisplacementMap in="SourceGraphic" in2="noise" scale="2" xChannelSelector="R" yChannelSelector="G"/>
  </filter>
  </defs>
  <g>
    <path d="M 92,89.85587081230587 Q 91,129.92793540615293 90.4,170 L 109.6,170 Q 109,129.92793540615293 108,89.85587081230587 Z" fill="#979bc4" filter="url(#organic)"/>
    <ellipse cx="100" cy="113.89910956861411" rx="12" ry="3.5999999999999996" fill="none" stroke="currentColor" stroke-width="1.5" opacity="0.6"/>
    <path d="M 60,89.85587081230587 L 58.479,99.99587081230587 M 63.47826086956522,89.85587081230587 L 62.08952173913043,99.99587081230587 M 66.95652173913044,89.85587081230587 L 65.70004347826087,99.99587081230587 M 70.43478260869566,89.85587081230587 L 69.31056521739131,99.99587081230587 M 73.91304347826087,89.85587081230587 L 72.92108695652175,99.99587081230587 M 77.3913043478261,89.85587081230587 L 76.53160869565218,99.99587081230587 M 80.86956521739131,89.85587081230587 L 80.14213043478262,99.99587081230587 M 84.34782608695653,89.85587081230587 L 83.75265217391305,99.99587081230587 M 87.82608695652173,89.85587081230587 L 87.36317391304347,99.99587081230587 M 91.30434782608695,89.85587081230587 L 90.97369565217392,99.99587081230587 M 94.78260869565219,89.85587081230587 L 94.58421739130436,99.99587081230587 M 98.2608695652174,89.85587081230587 L 98.1947391304348,99.99587081230587 M 101.73913043478261,89.85587081230587 L 101.80526086956522,99.99587081230587 M 105.21739130434783,89.85587081230587 L 105.41578260869565,99.99587081230587 M 108.69565217391306,89.85587081230587 L 109.0263043478261,99.99587081230587 M 112.17391304347827,89.85587081230587 L 112.63682608695653,99.99587081230587 M 115.65217391304347,89.85587081230587 L 116.24734782608695,99.99587081230587 M 119.13043478260869,89.85587081230587 L 119.85786956521738,99.99587081230587 M 122.6086956521739,89.85587081230587 L 123.46839130434782,99.99587081230587 M 126.08695652173913,89.85587081230587 L 127.07891304347825,99.99587081230587 M 129.56521739130437,89.85587081230587 L 130.6894347826087,99.99587081230587 M 133.04347826086956,89.85587081230587 L 134.29995652173912,99.99587081230587 M 136.5217391304348,89.85587081230587 L 137.91047826086958,99.99587081230587 M 140,89.85587081230587 L 141.521,99.99587081230587" stroke="#979bc4" stroke-width="0.8" fill="none" opacity="0.7"/>
    <path d="M 50,79.71587081230587 Q 65,89.85587081230585 100,84.78587081230586 Q 135,89.85587081230585 150,79.71587081230587" fill="#3275b4" filter="url(#organic)"/>
    <circle cx="75.0" cy="72.1" r="3" fill="white" opacity="0.85"/>
    <circle cx="115.0" cy="69.6" r="2.5" fill="white" opacity="0.85"/>
    <circle cx="95.0" cy="68.3" r="2" fill="white" opacity="0.85"/>
    <circle cx="130.0" cy="74.6" r="2" fill="white" opacity="0.85"/>
    <circle cx="70.0" cy="77.2" r="1.5" fill="white" opacity="0.85"/>
    <circle cx="105.0" cy="77.2" r="2.5" fill="white" opacity="0.85"/>
  </g>
</svg>