<svg xmlns="http://www.w3.org/2000/svg" viewBox="0 0 200 200" width="200" height="200">
  <defs>
    <filter id="organic" x="-5%" y="-5%" width="110%" height="110%">
    <feTurbulence type="fractalNoise" baseFrequency="0.04" numOctaves="3" seed="1" result="noise"/>
    <feDisplacementMap in="SourceGraphic" in2="noise" scale="2" xChannelSelector="R" yChannelSelector="G"/>
  </filter>
  </defs>
  <g>
    <path d="M 96.8,108.05587328888174 Q 95.8,139.02793664444087 96.16,170 L 103.84,170 Q 104.2,139.02793664444087 103.2,108.05587328888174 Z" fill="#73aba3" filter="url(#organic)"/>
    <ellipse cx="100" cy="126.63911130221722" rx="4.800000000000001" ry="1.4400000000000002" fill="none" stroke="currentColor" stroke-width="1.5" opacity="0.6"/>
    <path d="M 73.72,108.05587328888174 L 72.28,117.65587328888174 M 79.56,108.05587328888174 L 78.44,117.65587328888174 M 85.4,108.05587328888174 L 84.60000000000001,117.65587328888174 M 91.24,108.05587328888174 L 90.75999999999999,117.65587328888174 M 97.08,108.05587328888174 L 96.92,117.65587328888174 M 102.92,108.05587328888174 L 103.08,117.65587328888174 M 108.75999999999999,108.05587328888174 L 109.24,117.65587328888174 M 114.6,108.05587328888174 L 115.39999999999999,117.65587328888174 M 120.44,108.05587328888174 L 121.56,117.65587328888174 M 126.28,108.05587328888174 L 127.72,117.65587328888174" stroke="#73aba3" stroke-width="0.8" fill="none" opacity="0.7"/>
    <path d="M 67.15,108.05587328888174 Q 67.15,84.05587328888174 100,84.05587328888174 Q 132.85,84.05587328888174 132.85,108.05587328888174" fill="#258651" filter="url(#organic)"/>
  </g>
</svg>