<svg xmlns="http://www.w3.org/2000/svg" viewBox="0 0 200 200" width="200" height="200">
  <defs>
    <filter id="organic" x="-5%" y="-5%" width="110%" height="110%">
    <feTurbulence type="fractalNoise" baseFrequency="0.04" numOctaves="3" seed="1" result="noise"/>
    <feDisplacementMap in="SourceGraphic" in2="noise" scale="2" xChannelSelector="R" yChannelSelector="G"/>
  </filter>
  </defs>
  <g>
    <path d="M 92,107.10136759231263 Q 91,138.5506837961563 90.4,170 L 109.6,170 Q 109,138.5506837961563 108,107.10136759231263 Z" fill="#73aba3" filter="url(#organic)"/>
    <path d="M 60,107.10136759231263 L 58.56,116.70136759231264 M 63.47826086956522,107.10136759231263 L 62.16347826086957,116.70136759231264 M 66.95652173913044,107.10136759231263 L 65.76695652173913,116.70136759231264 M 70.43478260869566,107.10136759231263 L 69.3704347826087,116.70136759231264 M 73.91304347826087,107.10136759231263 L 72.97391304347826,116.70136759231264 M 77.3913043478261,107.10136759231263 L 76.57739130434783,116.70136759231264 M 80.86956521739131,107.10136759231263 L 80.18086956521739,116.70136759231264 M 84.34782608695653,107.10136759231263 L 83.78434782608697,116.70136759231264 M 87.82608695652173,107.10136759231263 L 87.38782608695652,116.70136759231264 M 91.30434782608695,107.10136759231263 L 90.99130434782609,116.70136759231264 M 94.78260869565219,107.10136759231263 L 94.59478260869567,116.70136759231264 M 98.2608695652174,107.10136759231263 L 98.19826086956523,116.70136759231264 M 101.73913043478261,107.10136759231263 L 101.80173913043478,116.70136759231264 M 105.21739130434783,107.10136759231263 L 105.40521739130435,116.70136759231264 M 108.69565217391306,107.10136759231263 L 109.00869565217393,116.70136759231264 M 112.17391304347827,107.10136759231263 L 112.61217391304348,116.70136759231264 M 115.65217391304347,107.10136759231263 L 116.21565217391303,116.70136759231264 M 119.13043478260869,107.10136759231263 L 119.81913043478261,116.70136759231264 M 122.6086956521739,107.10136759231263 L 123.42260869565217,116.70136759231264 M 126.08695652173913,107.10136759231263 L 127.02608695652174,116.70136759231264 M 129.56521739130437,107.10136759231263 L 130.62956521739133,116.70136759231264 M 133.04347826086956,107.10136759231263 L 134.23304347826087,116.70136759231264 M 136.5217391304348,107.10136759231263 L 137.83652173913046,116.70136759231264 M 140,107.10136759231263 L 141.44,116.70136759231264" stroke="#73aba3" stroke-width="0.8" fill="none" opacity="0.7"/>
    <path d="M 50,97.50136759231262 Q 65,107.10136759231263 100,102.30136759231263 Q 135,107.10136759231263 150,97.50136759231262" fill="#258651" filter="url(#organic)"/>
  </g>
</svg>