<svg xmlns="http://www.w3.org/2000/svg" viewBox="0 0 200 200" width="200" height="200">
  <defs>
    <filter id="organic" x="-5%" y="-5%" width="110%" height="110%">
    <feTurbulence type="fractalNoise" baseFrequency="0.04" numOctaves="3" seed="1" result="noise"/>
    <feDisplacementMap in="SourceGraphic" in2="noise" scale="2" xChannelSelector="R" yChannelSelector="G"/>
  </filter>
  </defs>
  <g>
    <path d="M 92,88.00183913087504 Q 91,129.00091956543753 90.4,170 L 109.6,170 Q 109,129.00091956543753 108,88.00183913087504 Z" fill="#979bc4" filter="url(#organic)"/>
    <path d="M 60,88.00183913087504 L 57.021,107.86183913087504 M 63.47826086956522,88.00183913087504 L 60.75830434782609,107.86183913087504 M 66.95652173913044,88.00183913087504 L 64.49560869565218,107.86183913087504 M 70.43478260869566,88.00183913087504 L 68.23291304347826,107.86183913087504 M 73.91304347826087,88.00183913087504 L 71.97021739130436,107.86183913087504 M 77.3913043478261,88.00183913087504 L 75.70752173913044,107.86183913087504 M 80.86956521739131,88.00183913087504 L 79.44482608695652,107.86183913087504 M 84.34782608695653,88.00183913087504 L 83.18213043478262,107.86183913087504 M 87.82608695652173,88.00183913087504 L 86.91943478260869,107.86183913087504 M 91.30434782608695,88.00183913087504 L 90.65673913043479,107.86183913087504 M 94.78260869565219,88.00183913087504 L 94.39404347826088,107.86183913087504 M 98.2608695652174,88.00183913087504 L 98.13134782608697,107.86183913087504 M 101.73913043478261,88.00183913087504 L 101.86865217391305,107.86183913087504 M 105.21739130434783,88.00183913087504 L 105.60595652173913,107.86183913087504 M 108.69565217391306,88.00183913087504 L 109.34326086956524,107.86183913087504 M 112.17391304347827,88.00183913087504 L 113.08056521739131,107.86183913087504 M 115.65217391304347,88.00183913087504 L 116.81786956521738,107.86183913087504 M 119.13043478260869,88.00183913087504 L 120.55517391304348,107.86183913087504 M 122.6086956521739,88.00183913087504 L 124.29247826086956,107.86183913087504 M 126.08695652173913,88.00183913087504 L 128.02978260869565,107.86183913087504 M 129.56521739130437,88.00183913087504 L 131.76708695652175,107.86183913087504 M 133.04347826086956,88.00183913087504 L 135.50439130434782,107.86183913087504 M 136.5217391304348,88.00183913087504 L 139.24169565217395,107.86183913087504 M 140,88.00183913087504 L 142.979,107.86183913087504" stroke="#979bc4" stroke-width="0.8" fill="none" opacity="0.7"/>
    <path d="M 50,68.14183913087504 Q 65,88.00183913087504 100,78.07183913087505 Q 135,88.00183913087504 150,68.14183913087504" fill="#3275b4" filter="url(#organic)"/>
  </g>
</svg>