<svg xmlns="http://www.w3.org/2000/svg" viewBox="0 0 200 200" width="200" height="200">
  <defs>
    <filter id="organic" x="-5%" y="-5%" width="110%" height="110%">
    <feTurbulence type="fractalNoise" baseFrequency="0.04" numOctaves="3" seed="1" result="noise"/>
    <feDisplacementMap in="SourceGraphic" in2="noise" scale="2" xChannelSelector="R" yChannelSelector="G"/>
  </filter>
  </defs>
  <g>
    <path d="M 96,98.7459975129346 Q 95,134.3729987564673 95.2,170 L 104.8,170 Q 105,134.3729987564673 104,98.7459975129346 Z" fill="#979bc4" filter="url(#organic)"/>
    <ellipse cx="100" cy="120.12219825905422" rx="6" ry="1.7999999999999998" fill="none" stroke="currentColor" stroke-width="1.5" opacity="0.6"/>
    <path d="M 69.8,98.7459975129346 L 68.279,108.8859975129346 M 74.44615384615385,98.7459975129346 L 73.15915384615384,108.8859975129346 M 79.09230769230768,98.7459975129346 L 78.03930769230769,108.8859975129346 M 83.73846153846154,98.7459975129346 L 82.91946153846153,108.8859975129346 M 88.38461538461539,98.7459975129346 L 87.7996153846154,108.8859975129346 M 93.03076923076924,98.7459975129346 L 92.67976923076924,108.8859975129346 M 97.67692307692307,98.7459975129346 L 97.55992307692307,108.8859975129346 M 102.32307692307691,98.7459975129346 L 102.44007692307692,108.8859975129346 M 106.96923076923076,98.7459975129346 L 107.32023076923076,108.8859975129346 M 111.61538461538461,98.7459975129346 L 112.2003846153846,108.8859975129346 M 116.26153846153846,98.7459975129346 L 117.08053846153847,108.8859975129346 M 120.90769230769232,98.7459975129346 L 121.96069230769231,108.8859975129346 M 125.55384615384615,98.7459975129346 L 126.84084615384616,108.8859975129346 M 130.2,98.7459975129346 L 131.72099999999998,108.8859975129346" stroke="#979bc4" stroke-width="0.8" fill="none" opacity="0.7"/>
    <path d="M 62.25,98.7459975129346 Q 62.25,91.1409975129346 100,88.60599751293461 Q 137.75,91.1409975129346 137.75,98.7459975129346" fill="#3275b4" filter="url(#organic)"/>
  </g>
</svg>