<svg xmlns="http://www.w3.org/2000/svg" viewBox="0 0 200 200" width="200" height="200">
  <defs>
    <filter id="organic" x="-5%" y="-5%" width="110%" height="110%">
    <feTurbulence type="fractalNoise" baseFrequency="0.04" numOctaves="3" seed="1" result="noise"/>
    <feDisplacementMap in="SourceGraphic" in2="noise" scale="2" xChannelSelector="R" yChannelSelector="G"/>
  </filter>
  </defs>
  <g>
    <path d="M 92,83.03352716971096 Q 91,126.51676358485548 90.4,170 L 109.6,170 Q 109,126.51676358485548 108,83.03352716971096 Z" fill="#979bc4" filter="url(#organic)"/>
    <path d="M 60,83.03352716971096 L 58.479,93.17352716971097 M 63.47826086956522,83.03352716971096 L 62.08952173913043,93.17352716971097 M 66.95652173913044,83.03352716971096 L 65.70004347826087,93.17352716971097 M 70.43478260869566,83.03352716971096 L 69.31056521739131,93.17352716971097 M 73.91304347826087,83.03352716971096 L 72.92108695652175,93.17352716971097 M 77.3913043478261,83.03352716971096 L 76.53160869565218,93.17352716971097 M 80.86956521739131,83.03352716971096 L 80.14213043478262,93.17352716971097 M 84.34782608695653,83.03352716971096 L 83.75265217391305,93.17352716971097 M 87.82608695652173,83.03352716971096 L 87.36317391304347,93.17352716971097 M 91.30434782608695,83.03352716971096 L 90.97369565217392,93.17352716971097 M 94.78260869565219,83.03352716971096 L 94.58421739130436,93.17352716971097 M 98.2608695652174,83.03352716971096 L 98.1947391304348,93.17352716971097 M 101.73913043478261,83.03352716971096 L 101.80526086956522,93.17352716971097 M 105.21739130434783,83.03352716971096 L 105.41578260869565,93.17352716971097 M 108.69565217391306,83.03352716971096 L 109.0263043478261,93.17352716971097 M 112.17391304347827,83.03352716971096 L 112.63682608695653,93.17352716971097 M 115.65217391304347,83.03352716971096 L 116.24734782608695,93.17352716971097 M 119.13043478260869,83.03352716971096 L 119.85786956521738,93.17352716971097 M 122.6086956521739,83.03352716971096 L 123.46839130434782,93.17352716971097 M 126.08695652173913,83.03352716971096 L 127.07891304347825,93.17352716971097 M 129.56521739130437,83.03352716971096 L 130.6894347826087,93.17352716971097 M 133.04347826086956,83.03352716971096 L 134.29995652173912,93.17352716971097 M 136.5217391304348,83.03352716971096 L 137.91047826086958,93.17352716971097 M 140,83.03352716971096 L 141.521,93.17352716971097" stroke="#979bc4" stroke-width="0.8" fill="none" opacity="0.7"/>
    <path d="M 50,72.89352716971096 Q 65,83.03352716971096 100,77.96352716971097 Q 135,83.03352716971096 150,72.89352716971096" fill="#3275b4" filter="url(#organic)"/>
    <circle cx="75.0" cy="65.3" r="3" fill="white" opacity="0.85"/>
    <circle cx="115.0" cy="62.8" r="2.5" fill="white" opacity="0.85"/>
    <circle cx="95.0" cy="61.5" r="2" fill="white" opacity="0.85"/>
    <circle cx="130.0" cy="67.8" r="2" fill="white" opacity="0.85"/>
    <circle cx="70.0" cy="70.4" r="1.5" fill="white" opacity="0.85"/>
    <circle cx="105.0" cy="70.4" r="2.5" fill="white" opacity="0.85"/>
  </g>
</svg>