<svg xmlns="http://www.w3.org/2000/svg" viewBox="0 0 200 200" width="200" height="200">
  <defs>
    <filter id="organic" x="-5%" y="-5%" width="110%" height="110%">
    <feTurbulence type="fractalNoise" baseFrequency="0.04" numOctaves="3" seed="1" result="noise"/>
    <feDisplacementMap in="SourceGraphic" in2="noise" scale="2" xChannelSelector="R" yChannelSelector="G"/>
  </filter>
  </defs>
  <g>
    <path d="M 92,91.78649730851193 Q 91,130.89324865425596 90.4,170 L 109.6,170 Q 109,130.89324865425596 108,91.78649730851193 Z" fill="#979bc4" filter="url(#organic)"/>
    <path d="M 60,91.78649730851193 L 58.479,101.92649730851193 M 63.47826086956522,91.78649730851193 L 62.08952173913043,101.92649730851193 M 66.95652173913044,91.78649730851193 L 65.70004347826087,101.92649730851193 M 70.43478260869566,91.78649730851193 L 69.31056521739131,101.92649730851193 M 73.91304347826087,91.78649730851193 L 72.92108695652175,101.92649730851193 M 77.3913043478261,91.78649730851193 L 76.53160869565218,101.92649730851193 M 80.86956521739131,91.78649730851193 L 80.14213043478262,101.92649730851193 M 84.34782608695653,91.78649730851193 L 83.75265217391305,101.92649730851193 M 87.82608695652173,91.78649730851193 L 87.36317391304347,101.92649730851193 M 91.30434782608695,91.78649730851193 L 90.97369565217392,101.92649730851193 M 94.78260869565219,91.78649730851193 L 94.58421739130436,101.92649730851193 M 98.2608695652174,91.78649730851193 L 98.1947391304348,101.92649730851193 M 101.73913043478261,91.78649730851193 L 101.80526086956522,101.92649730851193 M 105.21739130434783,91.78649730851193 L 105.41578260869565,101.92649730851193 M 108.69565217391306,91.78649730851193 L 109.0263043478261,101.92649730851193 M 112.17391304347827,91.78649730851193 L 112.63682608695653,101.92649730851193 M 115.65217391304347,91.78649730851193 L 116.24734782608695,101.92649730851193 M 119.13043478260869,91.78649730851193 L 119.85786956521738,101.92649730851193 M 122.6086956521739,91.78649730851193 L 123.46839130434782,101.92649730851193 M 126.08695652173913,91.78649730851193 L 127.07891304347825,101.92649730851193 M 129.56521739130437,91.78649730851193 L 130.6894347826087,101.92649730851193 M 133.04347826086956,91.78649730851193 L 134.29995652173912,101.92649730851193 M 136.5217391304348,91.78649730851193 L 137.91047826086958,101.92649730851193 M 140,91.78649730851193 L 141.521,101.92649730851193" stroke="#979bc4" stroke-width="0.8" fill="none" opacity="0.7"/>
    <path d="M 50,81.64649730851193 Q 65,91.78649730851191 100,86.71649730851192 Q 135,91.78649730851191 150,81.64649730851193" fill="#3275b4" filter="url(#organic)"/>
    <circle cx="75.0" cy="74.0" r="3" fill="white" opacity="0.85"/>
    <circle cx="115.0" cy="71.5" r="2.5" fill="white" opacity="0.85"/>
    <circle cx="95.0" cy="70.2" r="2" fill="white" opacity="0.85"/>
    <circle cx="130.0" cy="76.6" r="2" fill="white" opacity="0.85"/>
    <circle cx="70.0" cy="79.1" r="1.5" fill="white" opacity="0.85"/>
    <circle cx="105.0" cy="79.1" r="2.5" fill="white" opacity="0.85"/>
  </g>
</svg>