<svg xmlns="http://www.w3.org/2000/svg" viewBox="0 0 200 200" width="200" height="200">
  <defs>
    <filter id="organic" x="-5%" y="-5%" width="110%" height="110%">
    <feTurbulence type="fractalNoise" baseFrequency="0.04" numOctaves="3" seed="1" result="noise"/>
    <feDisplacementMap in="SourceGraphic" in2="noise" scale="2" xChannelSelector="R" yChannelSelector="G"/>
  </filter>
  </defs>
  <g>
    <path d="M 96,86.23769147069993 Q 95,128.11884573534996 95.2,170 L 104.8,170 Q 105,128.11884573534996 104,86.23769147069993 Z" fill="#979bc4" filter="url(#organic)"/>
    <ellipse cx="100" cy="111.36638402948995" rx="6" ry="1.7999999999999998" fill="none" stroke="currentColor" stroke-width="1.5" opacity="0.6"/>
    <path d="M 69.8,86.23769147069993 L 67.226,103.39769147069993 M 74.44615384615385,86.23769147069993 L 72.26815384615385,103.39769147069993 M 79.09230769230768,86.23769147069993 L 77.31030769230769,103.39769147069993 M 83.73846153846154,86.23769147069993 L 82.35246153846154,103.39769147069993 M 88.38461538461539,86.23769147069993 L 87.39461538461539,103.39769147069993 M 93.03076923076924,86.23769147069993 L 92.43676923076924,103.39769147069993 M 97.67692307692307,86.23769147069993 L 97.47892307692308,103.39769147069993 M 102.32307692307691,86.23769147069993 L 102.5210769230769,103.39769147069993 M 106.96923076923076,86.23769147069993 L 107.56323076923076,103.39769147069993 M 111.61538461538461,86.23769147069993 L 112.60538461538461,103.39769147069993 M 116.26153846153846,86.23769147069993 L 117.64753846153846,103.39769147069993 M 120.90769230769232,86.23769147069993 L 122.68969230769231,103.39769147069993 M 125.55384615384615,86.23769147069993 L 127.73184615384615,103.39769147069993 M 130.2,86.23769147069993 L 132.774,103.39769147069993" stroke="#979bc4" stroke-width="0.8" fill="none" opacity="0.7"/>
    <path d="M 62.25,86.23769147069993 Q 69.8,56.20769147069993 100,43.33769147069993 Q 130.2,56.20769147069993 137.75,86.23769147069993" fill="#3275b4" filter="url(#organic)"/>
  </g>
</svg>