<svg xmlns="http://www.w3.org/2000/svg" viewBox="0 0 200 200" width="200" height="200">
  <defs>
    <filter id="organic" x="-5%" y="-5%" width="110%" height="110%">
    <feTurbulence type="fractalNoise" baseFrequency="0.04" numOctaves="3" seed="1" result="noise"/>
    <feDisplacementMap in="SourceGraphic" in2="noise" scale="2" xChannelSelector="R" yChannelSelector="G"/>
  </filter>
  </defs>
  <g>
    <path d="M 96.4,93.02231550081966 Q 95.4,131.51115775040984 95.68,170 L 104.32,170 Q 104.6,131.51115775040984 103.6,93.02231550081966 Z" fill="#82a2c3" filter="url(#organic)"/>
    <ellipse cx="100" cy="116.11562085057376" rx="5.4" ry="1.62" fill="none" stroke="currentColor" stroke-width="1.5" opacity="0.6"/>
    <path d="M 71.75999999999999,93.02231550081966 L 70.32,102.62231550081967 M 76.89454545454545,93.02231550081966 L 75.71636363636364,102.62231550081967 M 82.0290909090909,93.02231550081966 L 81.11272727272726,102.62231550081967 M 87.16363636363636,93.02231550081966 L 86.5090909090909,102.62231550081967 M 92.29818181818182,93.02231550081966 L 91.90545454545455,102.62231550081967 M 97.43272727272726,93.02231550081966 L 97.30181818181818,102.62231550081967 M 102.56727272727272,93.02231550081966 L 102.69818181818181,102.62231550081967 M 107.70181818181817,93.02231550081966 L 108.09454545454544,102.62231550081967 M 112.83636363636364,93.02231550081966 L 113.4909090909091,102.62231550081967 M 117.97090909090909,93.02231550081966 L 118.88727272727273,102.62231550081967 M 123.10545454545453,93.02231550081966 L 124.28363636363635,102.62231550081967 M 128.24,93.02231550081966 L 129.68,102.62231550081967" stroke="#82a2c3" stroke-width="0.8" fill="none" opacity="0.7"/>
    <path d="M 64.69999999999999,93.02231550081966 Q 64.69999999999999,85.82231550081966 100,83.42231550081965 Q 135.3,85.82231550081966 135.3,93.02231550081966" fill="#0080a2" filter="url(#organic)"/>
  </g>
</svg>