<svg xmlns="http://www.w3.org/2000/svg" viewBox="0 0 200 200" width="200" height="200">
  <defs>
    <filter id="organic" x="-5%" y="-5%" width="110%" height="110%">
    <feTurbulence type="fractalNoise" baseFrequency="0.04" numOctaves="3" seed="1" result="noise"/>
    <feDisplacementMap in="SourceGraphic" in2="noise" scale="2" xChannelSelector="R" yChannelSelector="G"/>
  </filter>
  </defs>
  <g>
    <path d="M 96,79.9120374882169 Q 95,124.95601874410845 95.2,170 L 104.8,170 Q 105,124.95601874410845 104,79.9120374882169 Z" fill="#979bc4" filter="url(#organic)"/>
    <ellipse cx="100" cy="106.93842624175183" rx="6" ry="1.7999999999999998" fill="none" stroke="currentColor" stroke-width="1.5" opacity="0.6"/>
    <path d="M 69.8,79.9120374882169 L 68.279,90.0520374882169 M 74.44615384615385,79.9120374882169 L 73.15915384615384,90.0520374882169 M 79.09230769230768,79.9120374882169 L 78.03930769230769,90.0520374882169 M 83.73846153846154,79.9120374882169 L 82.91946153846153,90.0520374882169 M 88.38461538461539,79.9120374882169 L 87.7996153846154,90.0520374882169 M 93.03076923076924,79.9120374882169 L 92.67976923076924,90.0520374882169 M 97.67692307692307,79.9120374882169 L 97.55992307692307,90.0520374882169 M 102.32307692307691,79.9120374882169 L 102.44007692307692,90.0520374882169 M 106.96923076923076,79.9120374882169 L 107.32023076923076,90.0520374882169 M 111.61538461538461,79.9120374882169 L 112.2003846153846,90.0520374882169 M 116.26153846153846,79.9120374882169 L 117.08053846153847,90.0520374882169 M 120.90769230769232,79.9120374882169 L 121.96069230769231,90.0520374882169 M 125.55384615384615,79.9120374882169 L 126.84084615384616,90.0520374882169 M 130.2,79.9120374882169 L 131.72099999999998,90.0520374882169" stroke="#979bc4" stroke-width="0.8" fill="none" opacity="0.7"/>
    <path d="M 62.25,79.9120374882169 Q 62.25,72.30703748821689 100,69.7720374882169 Q 137.75,72.30703748821689 137.75,79.9120374882169" fill="#3275b4" filter="url(#organic)"/>
  </g>
</svg>