<svg xmlns="http://www.w3.org/2000/svg" viewBox="0 0 200 200" width="200" height="200">
  <defs>
    <filter id="organic" x="-5%" y="-5%" width="110%" height="110%">
    <feTurbulence type="fractalNoise" baseFrequency="0.04" numOctaves="3" seed="1" result="noise"/>
    <feDisplacementMap in="SourceGraphic" in2="noise" scale="2" xChannelSelector="R" yChannelSelector="G"/>
  </filter>
  </defs>
  <g>
    <path d="M 92,113.92754544930068 Q 91,141.96377272465034 90.4,170 L 109.6,170 Q 109,141.96377272465034 108,113.92754544930068 Z" fill="#979bc4" filter="url(#organic)"/>
    <ellipse cx="100" cy="130.74928181451048" rx="12" ry="3.5999999999999996" fill="none" stroke="currentColor" stroke-width="1.5" opacity="0.6"/>
    <path d="M 60,113.92754544930068 L 58.479,124.06754544930068 M 63.47826086956522,113.92754544930068 L 62.08952173913043,124.06754544930068 M 66.95652173913044,113.92754544930068 L 65.70004347826087,124.06754544930068 M 70.43478260869566,113.92754544930068 L 69.31056521739131,124.06754544930068 M 73.91304347826087,113.92754544930068 L 72.92108695652175,124.06754544930068 M 77.3913043478261,113.92754544930068 L 76.53160869565218,124.06754544930068 M 80.86956521739131,113.92754544930068 L 80.14213043478262,124.06754544930068 M 84.34782608695653,113.92754544930068 L 83.75265217391305,124.06754544930068 M 87.82608695652173,113.92754544930068 L 87.36317391304347,124.06754544930068 M 91.30434782608695,113.92754544930068 L 90.97369565217392,124.06754544930068 M 94.78260869565219,113.92754544930068 L 94.58421739130436,124.06754544930068 M 98.2608695652174,113.92754544930068 L 98.1947391304348,124.06754544930068 M 101.73913043478261,113.92754544930068 L 101.80526086956522,124.06754544930068 M 105.21739130434783,113.92754544930068 L 105.41578260869565,124.06754544930068 M 108.69565217391306,113.92754544930068 L 109.0263043478261,124.06754544930068 M 112.17391304347827,113.92754544930068 L 112.63682608695653,124.06754544930068 M 115.65217391304347,113.92754544930068 L 116.24734782608695,124.06754544930068 M 119.13043478260869,113.92754544930068 L 119.85786956521738,124.06754544930068 M 122.6086956521739,113.92754544930068 L 123.46839130434782,124.06754544930068 M 126.08695652173913,113.92754544930068 L 127.07891304347825,124.06754544930068 M 129.56521739130437,113.92754544930068 L 130.6894347826087,124.06754544930068 M 133.04347826086956,113.92754544930068 L 134.29995652173912,124.06754544930068 M 136.5217391304348,113.92754544930068 L 137.91047826086958,124.06754544930068 M 140,113.92754544930068 L 141.521,124.06754544930068" stroke="#979bc4" stroke-width="0.8" fill="none" opacity="0.7"/>
    <path d="M 50,113.92754544930068 Q 60,96.18254544930069 100,88.57754544930069 Q 140,96.18254544930069 150,113.92754544930068" fill="#3275b4" filter="url(#organic)"/>
  </g>
</svg>