<svg xmlns="http://www.w3.org/2000/svg" viewBox="0 0 200 200" width="200" height="200">
  <defs>
    <filter id="organic" x="-5%" y="-5%" width="110%" height="110%">
    <feTurbulence type="fractalNoise" baseFrequency="0.04" numOctaves="3" seed="1" result="noise"/>
    <feDisplacementMap in="SourceGraphic" in2="noise" scale="2" xChannelSelector="R" yChannelSelector="G"/>
  </filter>
  </defs>
  <g>
    <path d="M 96.8,96.20096135979307 Q 95.8,133.10048067989652 96.16,170 L 103.84,170 Q 104.2,133.10048067989652 103.2,96.20096135979307 Z" fill="#a496bf" filter="url(#organic)"/>
    <path d="M 73.72,96.20096135979307 L 72.28,105.80096135979306 M 79.56,96.20096135979307 L 78.44,105.80096135979306 M 85.4,96.20096135979307 L 84.60000000000001,105.80096135979306 M 91.24,96.20096135979307 L 90.75999999999999,105.80096135979306 M 97.08,96.20096135979307 L 96.92,105.80096135979306 M 102.92,96.20096135979307 L 103.08,105.80096135979306 M 108.75999999999999,96.20096135979307 L 109.24,105.80096135979306 M 114.6,96.20096135979307 L 115.39999999999999,105.80096135979306 M 120.44,96.20096135979307 L 121.56,105.80096135979306 M 126.28,96.20096135979307 L 127.72,105.80096135979306" stroke="#a496bf" stroke-width="0.8" fill="none" opacity="0.7"/>
    <path d="M 67.15,96.20096135979307 Q 67.15,72.20096135979307 100,72.20096135979307 Q 132.85,72.20096135979307 132.85,96.20096135979307" fill="#576cb7" filter="url(#organic)"/>
  </g>
</svg>