<svg xmlns="http://www.w3.org/2000/svg" viewBox="0 0 200 200" width="200" height="200">
  <defs>
    <filter id="organic" x="-5%" y="-5%" width="110%" height="110%">
    <feTurbulence type="fractalNoise" baseFrequency="0.04" numOctaves="3" seed="1" result="noise"/>
    <feDisplacementMap in="SourceGraphic" in2="noise" scale="2" xChannelSelector="R" yChannelSelector="G"/>
  </filter>
  </defs>
  <g>
    <path d="M 94.8,105.03741874867197 Q 93.8,137.51870937433597 93.76,170 L 106.24,170 Q 106.2,137.51870937433597 105.2,105.03741874867197 Z" fill="#979bc4" filter="url(#organic)"/>
    <ellipse cx="100" cy="124.52619312407037" rx="7.800000000000001" ry="2.3400000000000003" fill="none" stroke="currentColor" stroke-width="1.5" opacity="0.6"/>
    <path d="M 63.919999999999995,105.03741874867197 L 62.398999999999994,115.17741874867197 M 67.7178947368421,105.03741874867197 L 66.357,115.17741874867197 M 71.51578947368421,105.03741874867197 L 70.315,115.17741874867197 M 75.3136842105263,105.03741874867197 L 74.27299999999998,115.17741874867197 M 79.11157894736841,105.03741874867197 L 78.231,115.17741874867197 M 82.90947368421052,105.03741874867197 L 82.189,115.17741874867197 M 86.70736842105262,105.03741874867197 L 86.14699999999999,115.17741874867197 M 90.50526315789475,105.03741874867197 L 90.105,115.17741874867197 M 94.30315789473684,105.03741874867197 L 94.063,115.17741874867197 M 98.10105263157894,105.03741874867197 L 98.02099999999999,115.17741874867197 M 101.89894736842106,105.03741874867197 L 101.97900000000001,115.17741874867197 M 105.69684210526316,105.03741874867197 L 105.937,115.17741874867197 M 109.49473684210525,105.03741874867197 L 109.895,115.17741874867197 M 113.29263157894738,105.03741874867197 L 113.85300000000001,115.17741874867197 M 117.09052631578948,105.03741874867197 L 117.811,115.17741874867197 M 120.8884210526316,105.03741874867197 L 121.76900000000002,115.17741874867197 M 124.6863157894737,105.03741874867197 L 125.72700000000002,115.17741874867197 M 128.4842105263158,105.03741874867197 L 129.685,115.17741874867197 M 132.2821052631579,105.03741874867197 L 133.643,115.17741874867197 M 136.08,105.03741874867197 L 137.601,115.17741874867197" stroke="#979bc4" stroke-width="0.8" fill="none" opacity="0.7"/>
    <path d="M 54.89999999999999,105.03741874867197 Q 54.89999999999999,79.68741874867197 100,79.68741874867197 Q 145.10000000000002,79.68741874867197 145.10000000000002,105.03741874867197" fill="#3275b4" filter="url(#organic)"/>
    <circle cx="77.4" cy="87.3" r="3" fill="white" opacity="0.85"/>
    <circle cx="113.5" cy="84.8" r="2.5" fill="white" opacity="0.85"/>
    <circle cx="95.5" cy="83.5" r="2" fill="white" opacity="0.85"/>
    <circle cx="127.1" cy="89.8" r="2" fill="white" opacity="0.85"/>
    <circle cx="72.9" cy="92.4" r="1.5" fill="white" opacity="0.85"/>
    <circle cx="104.5" cy="92.4" r="2.5" fill="white" opacity="0.85"/>
  </g>
</svg>