<svg xmlns="http://www.w3.org/2000/svg" viewBox="0 0 200 200" width="200" height="200">
  <defs>
    <filter id="organic" x="-5%" y="-5%" width="110%" height="110%">
    <feTurbulence type="fractalNoise" baseFrequency="0.04" numOctaves="3" seed="1" result="noise"/>
    <feDisplacementMap in="SourceGraphic" in2="noise" scale="2" xChannelSelector="R" yChannelSelector="G"/>
  </filter>
  </defs>
  <g>
    <path d="M 96,84.62029204279848 Q 95,127.31014602139925 95.2,170 L 104.8,170 Q 105,127.31014602139925 104,84.62029204279848 Z" fill="#979bc4" filter="url(#organic)"/>
    <ellipse cx="100" cy="110.23420442995894" rx="6" ry="1.7999999999999998" fill="none" stroke="currentColor" stroke-width="1.5" opacity="0.6"/>
    <path d="M 69.8,84.62029204279848 L 67.064,102.86029204279848 M 74.44615384615385,84.62029204279848 L 72.13107692307693,102.86029204279848 M 79.09230769230768,84.62029204279848 L 77.19815384615384,102.86029204279848 M 83.73846153846154,84.62029204279848 L 82.26523076923077,102.86029204279848 M 88.38461538461539,84.62029204279848 L 87.3323076923077,102.86029204279848 M 93.03076923076924,84.62029204279848 L 92.39938461538462,102.86029204279848 M 97.67692307692307,84.62029204279848 L 97.46646153846153,102.86029204279848 M 102.32307692307691,84.62029204279848 L 102.53353846153846,102.86029204279848 M 106.96923076923076,84.62029204279848 L 107.60061538461538,102.86029204279848 M 111.61538461538461,84.62029204279848 L 112.6676923076923,102.86029204279848 M 116.26153846153846,84.62029204279848 L 117.73476923076923,102.86029204279848 M 120.90769230769232,84.62029204279848 L 122.80184615384616,102.86029204279848 M 125.55384615384615,84.62029204279848 L 127.86892307692308,102.86029204279848 M 130.2,84.62029204279848 L 132.93599999999998,102.86029204279848" stroke="#979bc4" stroke-width="0.8" fill="none" opacity="0.7"/>
    <path d="M 62.25,84.62029204279848 Q 62.25,66.38029204279849 88.675,57.26029204279848 L 100,39.02029204279849 L 111.325,57.26029204279848 Q 137.75,66.38029204279849 137.75,84.62029204279848" fill="#3275b4" filter="url(#organic)"/>
    <circle cx="81.1" cy="52.7" r="3" fill="white" opacity="0.85"/>
    <circle cx="111.3" cy="48.1" r="2.5" fill="white" opacity="0.85"/>
    <circle cx="96.2" cy="45.9" r="2" fill="white" opacity="0.85"/>
    <circle cx="122.7" cy="57.3" r="2" fill="white" opacity="0.85"/>
    <circle cx="77.3" cy="61.8" r="1.5" fill="white" opacity="0.85"/>
    <circle cx="103.8" cy="61.8" r="2.5" fill="white" opacity="0.85"/>
  </g>
</svg>