<svg xmlns="http://www.w3.org/2000/svg" viewBox="0 0 200 200" width="200" height="200">
  <defs>
    <filter id="organic" x="-5%" y="-5%" width="110%" height="110%">
    <feTurbulence type="fractalNoise" baseFrequency="0.04" numOctaves="3" seed="1" result="noise"/>
    <feDisplacementMap in="SourceGraphic" in2="noise" scale="2" xChannelSelector="R" yChannelSelector="G"/>
  </filter>
  </defs>
  <g>
    <path d="M 92,78.27025429946872 Q 91,124.13512714973436 90.4,170 L 109.6,170 Q 109,124.13512714973436 108,78.27025429946872 Z" fill="#78a6bd" filter="url(#organic)"/>
    <ellipse cx="100" cy="105.7891780096281" rx="12" ry="3.5999999999999996" fill="none" stroke="currentColor" stroke-width="1.5" opacity="0.6"/>
    <path d="M 60,78.27025429946872 L 58.56,87.87025429946871 M 63.47826086956522,78.27025429946872 L 62.16347826086957,87.87025429946871 M 66.95652173913044,78.27025429946872 L 65.76695652173913,87.87025429946871 M 70.43478260869566,78.27025429946872 L 69.3704347826087,87.87025429946871 M 73.91304347826087,78.27025429946872 L 72.97391304347826,87.87025429946871 M 77.3913043478261,78.27025429946872 L 76.57739130434783,87.87025429946871 M 80.86956521739131,78.27025429946872 L 80.18086956521739,87.87025429946871 M 84.34782608695653,78.27025429946872 L 83.78434782608697,87.87025429946871 M 87.82608695652173,78.27025429946872 L 87.38782608695652,87.87025429946871 M 91.30434782608695,78.27025429946872 L 90.99130434782609,87.87025429946871 M 94.78260869565219,78.27025429946872 L 94.59478260869567,87.87025429946871 M 98.2608695652174,78.27025429946872 L 98.19826086956523,87.87025429946871 M 101.73913043478261,78.27025429946872 L 101.80173913043478,87.87025429946871 M 105.21739130434783,78.27025429946872 L 105.40521739130435,87.87025429946871 M 108.69565217391306,78.27025429946872 L 109.00869565217393,87.87025429946871 M 112.17391304347827,78.27025429946872 L 112.61217391304348,87.87025429946871 M 115.65217391304347,78.27025429946872 L 116.21565217391303,87.87025429946871 M 119.13043478260869,78.27025429946872 L 119.81913043478261,87.87025429946871 M 122.6086956521739,78.27025429946872 L 123.42260869565217,87.87025429946871 M 126.08695652173913,78.27025429946872 L 127.02608695652174,87.87025429946871 M 129.56521739130437,78.27025429946872 L 130.62956521739133,87.87025429946871 M 133.04347826086956,78.27025429946872 L 134.23304347826087,87.87025429946871 M 136.5217391304348,78.27025429946872 L 137.83652173913046,87.87025429946871 M 140,78.27025429946872 L 141.44,87.87025429946871" stroke="#78a6bd" stroke-width="0.8" fill="none" opacity="0.7"/>
    <path d="M 50,78.27025429946872 Q 50,71.07025429946871 100,68.67025429946872 Q 150,71.07025429946871 150,78.27025429946872" fill="#00858d" filter="url(#organic)"/>
  </g>
</svg>