<svg xmlns="http://www.w3.org/2000/svg" viewBox="0 0 200 200" width="200" height="200">
  <defs>
    <filter id="organic" x="-5%" y="-5%" width="110%" height="110%">
    <feTurbulence type="fractalNoise" baseFrequency="0.04" numOctaves="3" seed="1" result="noise"/>
    <feDisplacementMap in="SourceGraphic" in2="noise" scale="2" xChannelSelector="R" yChannelSelector="G"/>
  </filter>
  </defs>
  <g>
    <path d="M 92,78.21196344082057 Q 91,124.10598172041028 90.4,170 L 109.6,170 Q 109,124.10598172041028 108,78.21196344082057 Z" fill="#979bc4" filter="url(#organic)"/>
    <path d="M 60,78.21196344082057 L 58.074,91.05196344082057 M 63.47826086956522,78.21196344082057 L 61.71973913043478,91.05196344082057 M 66.95652173913044,78.21196344082057 L 65.36547826086957,91.05196344082057 M 70.43478260869566,78.21196344082057 L 69.01121739130436,91.05196344082057 M 73.91304347826087,78.21196344082057 L 72.65695652173913,91.05196344082057 M 77.3913043478261,78.21196344082057 L 76.30269565217392,91.05196344082057 M 80.86956521739131,78.21196344082057 L 79.9484347826087,91.05196344082057 M 84.34782608695653,78.21196344082057 L 83.59417391304349,91.05196344082057 M 87.82608695652173,78.21196344082057 L 87.23991304347825,91.05196344082057 M 91.30434782608695,78.21196344082057 L 90.88565217391304,91.05196344082057 M 94.78260869565219,78.21196344082057 L 94.53139130434784,91.05196344082057 M 98.2608695652174,78.21196344082057 L 98.17713043478263,91.05196344082057 M 101.73913043478261,78.21196344082057 L 101.82286956521739,91.05196344082057 M 105.21739130434783,78.21196344082057 L 105.46860869565218,91.05196344082057 M 108.69565217391306,78.21196344082057 L 109.11434782608697,91.05196344082057 M 112.17391304347827,78.21196344082057 L 112.76008695652175,91.05196344082057 M 115.65217391304347,78.21196344082057 L 116.40582608695651,91.05196344082057 M 119.13043478260869,78.21196344082057 L 120.0515652173913,91.05196344082057 M 122.6086956521739,78.21196344082057 L 123.69730434782608,91.05196344082057 M 126.08695652173913,78.21196344082057 L 127.34304347826087,91.05196344082057 M 129.56521739130437,78.21196344082057 L 130.9887826086957,91.05196344082057 M 133.04347826086956,78.21196344082057 L 134.63452173913043,91.05196344082057 M 136.5217391304348,78.21196344082057 L 138.28026086956524,91.05196344082057 M 140,78.21196344082057 L 141.926,91.05196344082057" stroke="#979bc4" stroke-width="0.8" fill="none" opacity="0.7"/>
    <path d="M 50,78.21196344082057 Q 50,68.58196344082057 100,65.37196344082056 Q 150,68.58196344082057 150,78.21196344082057" fill="#3275b4" filter="url(#organic)"/>
  </g>
</svg>