<svg xmlns="http://www.w3.org/2000/svg" viewBox="0 0 200 200" width="200" height="200">
  <defs>
    <filter id="organic" x="-5%" y="-5%" width="110%" height="110%">
    <feTurbulence type="fractalNoise" baseFrequency="0.04" numOctaves="3" seed="1" result="noise"/>
    <feDisplacementMap in="SourceGraphic" in2="noise" scale="2" xChannelSelector="R" yChannelSelector="G"/>
  </filter>
  </defs>
  <g>
    <path d="M 92,123.113250219001 Q 91,146.5566251095005 90.4,170 L 109.6,170 Q 109,146.5566251095005 108,123.113250219001 Z" fill="#979bc4" filter="url(#organic)"/>
    <path d="M 60,123.113250219001 L 58.479,133.25325021900102 M 63.47826086956522,123.113250219001 L 62.08952173913043,133.25325021900102 M 66.95652173913044,123.113250219001 L 65.70004347826087,133.25325021900102 M 70.43478260869566,123.113250219001 L 69.31056521739131,133.25325021900102 M 73.91304347826087,123.113250219001 L 72.92108695652175,133.25325021900102 M 77.3913043478261,123.113250219001 L 76.53160869565218,133.25325021900102 M 80.86956521739131,123.113250219001 L 80.14213043478262,133.25325021900102 M 84.34782608695653,123.113250219001 L 83.75265217391305,133.25325021900102 M 87.82608695652173,123.113250219001 L 87.36317391304347,133.25325021900102 M 91.30434782608695,123.113250219001 L 90.97369565217392,133.25325021900102 M 94.78260869565219,123.113250219001 L 94.58421739130436,133.25325021900102 M 98.2608695652174,123.113250219001 L 98.1947391304348,133.25325021900102 M 101.73913043478261,123.113250219001 L 101.80526086956522,133.25325021900102 M 105.21739130434783,123.113250219001 L 105.41578260869565,133.25325021900102 M 108.69565217391306,123.113250219001 L 109.0263043478261,133.25325021900102 M 112.17391304347827,123.113250219001 L 112.63682608695653,133.25325021900102 M 115.65217391304347,123.113250219001 L 116.24734782608695,133.25325021900102 M 119.13043478260869,123.113250219001 L 119.85786956521738,133.25325021900102 M 122.6086956521739,123.113250219001 L 123.46839130434782,133.25325021900102 M 126.08695652173913,123.113250219001 L 127.07891304347825,133.25325021900102 M 129.56521739130437,123.113250219001 L 130.6894347826087,133.25325021900102 M 133.04347826086956,123.113250219001 L 134.29995652173912,133.25325021900102 M 136.5217391304348,123.113250219001 L 137.91047826086958,133.25325021900102 M 140,123.113250219001 L 141.521,133.25325021900102" stroke="#979bc4" stroke-width="0.8" fill="none" opacity="0.7"/>
    <path d="M 50,112.97325021900102 Q 65,123.113250219001 100,118.04325021900101 Q 135,123.113250219001 150,112.97325021900102" fill="#3275b4" filter="url(#organic)"/>
    <circle cx="75.0" cy="105.4" r="3" fill="white" opacity="0.85"/>
    <circle cx="115.0" cy="102.8" r="2.5" fill="white" opacity="0.85"/>
    <circle cx="95.0" cy="101.6" r="2" fill="white" opacity="0.85"/>
    <circle cx="130.0" cy="107.9" r="2" fill="white" opacity="0.85"/>
    <circle cx="70.0" cy="110.4" r="1.5" fill="white" opacity="0.85"/>
    <circle cx="105.0" cy="110.4" r="2.5" fill="white" opacity="0.85"/>
  </g>
</svg>