<svg xmlns="http://www.w3.org/2000/svg" viewBox="0 0 200 200" width="200" height="200">
  <defs>
    <filter id="organic" x="-5%" y="-5%" width="110%" height="110%">
    <feTurbulence type="fractalNoise" baseFrequency="0.04" numOctaves="3" seed="1" result="noise"/>
    <feDisplacementMap in="SourceGraphic" in2="noise" scale="2" xChannelSelector="R" yChannelSelector="G"/>
  </filter>
  </defs>
  <g>
    <path d="M 92,82.27899680725403 Q 91,126.13949840362702 90.4,170 L 109.6,170 Q 109,126.13949840362702 108,82.27899680725403 Z" fill="#a496bf" filter="url(#organic)"/>
    <path d="M 60,82.27899680725403 L 58.56,91.87899680725403 M 63.47826086956522,82.27899680725403 L 62.16347826086957,91.87899680725403 M 66.95652173913044,82.27899680725403 L 65.76695652173913,91.87899680725403 M 70.43478260869566,82.27899680725403 L 69.3704347826087,91.87899680725403 M 73.91304347826087,82.27899680725403 L 72.97391304347826,91.87899680725403 M 77.3913043478261,82.27899680725403 L 76.57739130434783,91.87899680725403 M 80.86956521739131,82.27899680725403 L 80.18086956521739,91.87899680725403 M 84.34782608695653,82.27899680725403 L 83.78434782608697,91.87899680725403 M 87.82608695652173,82.27899680725403 L 87.38782608695652,91.87899680725403 M 91.30434782608695,82.27899680725403 L 90.99130434782609,91.87899680725403 M 94.78260869565219,82.27899680725403 L 94.59478260869567,91.87899680725403 M 98.2608695652174,82.27899680725403 L 98.19826086956523,91.87899680725403 M 101.73913043478261,82.27899680725403 L 101.80173913043478,91.87899680725403 M 105.21739130434783,82.27899680725403 L 105.40521739130435,91.87899680725403 M 108.69565217391306,82.27899680725403 L 109.00869565217393,91.87899680725403 M 112.17391304347827,82.27899680725403 L 112.61217391304348,91.87899680725403 M 115.65217391304347,82.27899680725403 L 116.21565217391303,91.87899680725403 M 119.13043478260869,82.27899680725403 L 119.81913043478261,91.87899680725403 M 122.6086956521739,82.27899680725403 L 123.42260869565217,91.87899680725403 M 126.08695652173913,82.27899680725403 L 127.02608695652174,91.87899680725403 M 129.56521739130437,82.27899680725403 L 130.62956521739133,91.87899680725403 M 133.04347826086956,82.27899680725403 L 134.23304347826087,91.87899680725403 M 136.5217391304348,82.27899680725403 L 137.83652173913046,91.87899680725403 M 140,82.27899680725403 L 141.44,91.87899680725403" stroke="#a496bf" stroke-width="0.8" fill="none" opacity="0.7"/>
    <path d="M 50,82.27899680725403 Q 50,75.07899680725403 100,72.67899680725404 Q 150,75.07899680725403 150,82.27899680725403" fill="#576cb7" filter="url(#organic)"/>
  </g>
</svg>