<svg xmlns="http://www.w3.org/2000/svg" viewBox="0 0 200 200" width="200" height="200">
  <defs>
    <filter id="glow" x="-50%" y="-50%" width="200%" height="200%">
    <feGaussianBlur in="SourceGraphic" stdDeviation="3" result="blur"/>
    <feMerge>
      <feMergeNode in="blur"/>
      <feMergeNode in="blur"/>
      <feMergeNode in="SourceGraphic"/>
    </feMerge>
  </filter>
    <filter id="organic" x="-5%" y="-5%" width="110%" height="110%">
    <feTurbulence type="fractalNoise" baseFrequency="0.04" numOctaves="3" seed="1" result="noise"/>
    <feDisplacementMap in="SourceGraphic" in2="noise" scale="2" xChannelSelector="R" yChannelSelector="G"/>
  </filter>
  </defs>
  <g filter="url(#glow)">
    <path d="M 92,75.02770432762011 Q 91,122.51385216381006 90.4,170 L 109.6,170 Q 109,122.51385216381006 108,75.02770432762011 Z" fill="#979bc4" filter="url(#organic)"/>
    <path d="M 60,75.02770432762011 L 56.4,99.02770432762011 M 63.47826086956522,75.02770432762011 L 60.19130434782609,99.02770432762011 M 66.95652173913044,75.02770432762011 L 63.982608695652175,99.02770432762011 M 70.43478260869566,75.02770432762011 L 67.77391304347826,99.02770432762011 M 73.91304347826087,75.02770432762011 L 71.56521739130436,99.02770432762011 M 77.3913043478261,75.02770432762011 L 75.35652173913044,99.02770432762011 M 80.86956521739131,75.02770432762011 L 79.14782608695653,99.02770432762011 M 84.34782608695653,75.02770432762011 L 82.93913043478261,99.02770432762011 M 87.82608695652173,75.02770432762011 L 86.7304347826087,99.02770432762011 M 91.30434782608695,75.02770432762011 L 90.52173913043478,99.02770432762011 M 94.78260869565219,75.02770432762011 L 94.31304347826088,99.02770432762011 M 98.2608695652174,75.02770432762011 L 98.10434782608696,99.02770432762011 M 101.73913043478261,75.02770432762011 L 101.89565217391305,99.02770432762011 M 105.21739130434783,75.02770432762011 L 105.68695652173913,99.02770432762011 M 108.69565217391306,75.02770432762011 L 109.47826086956523,99.02770432762011 M 112.17391304347827,75.02770432762011 L 113.2695652173913,99.02770432762011 M 115.65217391304347,75.02770432762011 L 117.06086956521739,99.02770432762011 M 119.13043478260869,75.02770432762011 L 120.85217391304347,99.02770432762011 M 122.6086956521739,75.02770432762011 L 124.64347826086956,99.02770432762011 M 126.08695652173913,75.02770432762011 L 128.43478260869566,99.02770432762011 M 129.56521739130437,75.02770432762011 L 132.22608695652175,99.02770432762011 M 133.04347826086956,75.02770432762011 L 136.01739130434783,99.02770432762011 M 136.5217391304348,75.02770432762011 L 139.80869565217395,99.02770432762011 M 140,75.02770432762011 L 143.6,99.02770432762011" stroke="#979bc4" stroke-width="0.8" fill="none" opacity="0.7"/>
    <path d="M 50,75.02770432762011 Q 50,51.027704327620114 85,39.027704327620114 L 100,15.027704327620114 L 115,39.027704327620114 Q 150,51.027704327620114 150,75.02770432762011" fill="#3275b4" filter="url(#organic)"/>
  </g>
</svg>