<svg xmlns="http://www.w3.org/2000/svg" viewBox="0 0 200 200" width="200" height="200">
  <defs>
    <filter id="organic" x="-5%" y="-5%" width="110%" height="110%">
    <feTurbulence type="fractalNoise" baseFrequency="0.04" numOctaves="3" seed="1" result="noise"/>
    <feDisplacementMap in="SourceGraphic" in2="noise" scale="2" xChannelSelector="R" yChannelSelector="G"/>
  </filter>
  </defs>
  <g>
    <path d="M 92,77.86885948905282 Q 91,123.93442974452641 90.4,170 L 109.6,170 Q 109,123.93442974452641 108,77.86885948905282 Z" fill="#979bc4" filter="url(#organic)"/>
    <ellipse cx="100" cy="105.50820164233697" rx="12" ry="3.5999999999999996" fill="none" stroke="currentColor" stroke-width="1.5" opacity="0.6"/>
    <path d="M 60,77.86885948905282 L 56.454,101.50885948905282 M 63.47826086956522,77.86885948905282 L 60.24060869565218,101.50885948905282 M 66.95652173913044,77.86885948905282 L 64.02721739130435,101.50885948905282 M 70.43478260869566,77.86885948905282 L 67.81382608695652,101.50885948905282 M 73.91304347826087,77.86885948905282 L 71.6004347826087,101.50885948905282 M 77.3913043478261,77.86885948905282 L 75.38704347826088,101.50885948905282 M 80.86956521739131,77.86885948905282 L 79.17365217391306,101.50885948905282 M 84.34782608695653,77.86885948905282 L 82.96026086956523,101.50885948905282 M 87.82608695652173,77.86885948905282 L 86.74686956521738,101.50885948905282 M 91.30434782608695,77.86885948905282 L 90.53347826086956,101.50885948905282 M 94.78260869565219,77.86885948905282 L 94.32008695652175,101.50885948905282 M 98.2608695652174,77.86885948905282 L 98.10669565217393,101.50885948905282 M 101.73913043478261,77.86885948905282 L 101.89330434782609,101.50885948905282 M 105.21739130434783,77.86885948905282 L 105.67991304347827,101.50885948905282 M 108.69565217391306,77.86885948905282 L 109.46652173913046,101.50885948905282 M 112.17391304347827,77.86885948905282 L 113.25313043478262,101.50885948905282 M 115.65217391304347,77.86885948905282 L 117.03973913043477,101.50885948905282 M 119.13043478260869,77.86885948905282 L 120.82634782608694,101.50885948905282 M 122.6086956521739,77.86885948905282 L 124.61295652173912,101.50885948905282 M 126.08695652173913,77.86885948905282 L 128.3995652173913,101.50885948905282 M 129.56521739130437,77.86885948905282 L 132.1861739130435,101.50885948905282 M 133.04347826086956,77.86885948905282 L 135.97278260869564,101.50885948905282 M 136.5217391304348,77.86885948905282 L 139.75939130434784,101.50885948905282 M 140,77.86885948905282 L 143.546,101.50885948905282" stroke="#979bc4" stroke-width="0.8" fill="none" opacity="0.7"/>
    <path d="M 50,77.86885948905282 Q 50,54.22885948905282 85,42.40885948905282 L 100,18.768859489052822 L 115,42.40885948905282 Q 150,54.22885948905282 150,77.86885948905282" fill="#3275b4" filter="url(#organic)"/>
  </g>
</svg>