<svg xmlns="http://www.w3.org/2000/svg" viewBox="0 0 200 200" width="200" height="200">
  <defs>
    <filter id="organic" x="-5%" y="-5%" width="110%" height="110%">
    <feTurbulence type="fractalNoise" baseFrequency="0.04" numOctaves="3" seed="1" result="noise"/>
    <feDisplacementMap in="SourceGraphic" in2="noise" scale="2" xChannelSelector="R" yChannelSelector="G"/>
  </filter>
  </defs>
  <g>
    <path d="M 92,92.44248137375976 Q 91,131.22124068687987 90.4,170 L 109.6,170 Q 109,131.22124068687987 108,92.44248137375976 Z" fill="#979bc4" filter="url(#organic)"/>
    <ellipse cx="100" cy="115.70973696163183" rx="12" ry="3.5999999999999996" fill="none" stroke="currentColor" stroke-width="1.5" opacity="0.6"/>
    <path d="M 60,92.44248137375976 L 58.479,102.58248137375976 M 63.47826086956522,92.44248137375976 L 62.08952173913043,102.58248137375976 M 66.95652173913044,92.44248137375976 L 65.70004347826087,102.58248137375976 M 70.43478260869566,92.44248137375976 L 69.31056521739131,102.58248137375976 M 73.91304347826087,92.44248137375976 L 72.92108695652175,102.58248137375976 M 77.3913043478261,92.44248137375976 L 76.53160869565218,102.58248137375976 M 80.86956521739131,92.44248137375976 L 80.14213043478262,102.58248137375976 M 84.34782608695653,92.44248137375976 L 83.75265217391305,102.58248137375976 M 87.82608695652173,92.44248137375976 L 87.36317391304347,102.58248137375976 M 91.30434782608695,92.44248137375976 L 90.97369565217392,102.58248137375976 M 94.78260869565219,92.44248137375976 L 94.58421739130436,102.58248137375976 M 98.2608695652174,92.44248137375976 L 98.1947391304348,102.58248137375976 M 101.73913043478261,92.44248137375976 L 101.80526086956522,102.58248137375976 M 105.21739130434783,92.44248137375976 L 105.41578260869565,102.58248137375976 M 108.69565217391306,92.44248137375976 L 109.0263043478261,102.58248137375976 M 112.17391304347827,92.44248137375976 L 112.63682608695653,102.58248137375976 M 115.65217391304347,92.44248137375976 L 116.24734782608695,102.58248137375976 M 119.13043478260869,92.44248137375976 L 119.85786956521738,102.58248137375976 M 122.6086956521739,92.44248137375976 L 123.46839130434782,102.58248137375976 M 126.08695652173913,92.44248137375976 L 127.07891304347825,102.58248137375976 M 129.56521739130437,92.44248137375976 L 130.6894347826087,102.58248137375976 M 133.04347826086956,92.44248137375976 L 134.29995652173912,102.58248137375976 M 136.5217391304348,92.44248137375976 L 137.91047826086958,102.58248137375976 M 140,92.44248137375976 L 141.521,102.58248137375976" stroke="#979bc4" stroke-width="0.8" fill="none" opacity="0.7"/>
    <path d="M 50,92.44248137375976 Q 50,84.83748137375977 100,82.30248137375978 Q 150,84.83748137375977 150,92.44248137375976" fill="#3275b4" filter="url(#organic)"/>
  </g>
</svg>