<svg xmlns="http://www.w3.org/2000/svg" viewBox="0 0 200 200" width="200" height="200">
  <defs>
    <filter id="organic" x="-5%" y="-5%" width="110%" height="110%">
    <feTurbulence type="fractalNoise" baseFrequency="0.04" numOctaves="3" seed="1" result="noise"/>
    <feDisplacementMap in="SourceGraphic" in2="noise" scale="2" xChannelSelector="R" yChannelSelector="G"/>
  </filter>
  </defs>
  <g>
    <path d="M 92.4,83.17250042751246 Q 91.4,126.58625021375623 90.88,170 L 109.12,170 Q 108.6,126.58625021375623 107.6,83.17250042751246 Z" fill="#979bc4" filter="url(#organic)"/>
    <ellipse cx="100" cy="109.22075029925873" rx="11.399999999999999" ry="3.4199999999999995" fill="none" stroke="currentColor" stroke-width="1.5" opacity="0.6"/>
    <path d="M 60,83.17250042751246 L 57.345,100.87250042751246 M 63.47826086956522,83.17250042751246 L 61.05413043478261,100.87250042751246 M 66.95652173913044,83.17250042751246 L 64.76326086956522,100.87250042751246 M 70.43478260869566,83.17250042751246 L 68.47239130434782,100.87250042751246 M 73.91304347826087,83.17250042751246 L 72.18152173913045,100.87250042751246 M 77.3913043478261,83.17250042751246 L 75.89065217391305,100.87250042751246 M 80.86956521739131,83.17250042751246 L 79.59978260869566,100.87250042751246 M 84.34782608695653,83.17250042751246 L 83.30891304347827,100.87250042751246 M 87.82608695652173,83.17250042751246 L 87.01804347826086,100.87250042751246 M 91.30434782608695,83.17250042751246 L 90.72717391304347,100.87250042751246 M 94.78260869565219,83.17250042751246 L 94.4363043478261,100.87250042751246 M 98.2608695652174,83.17250042751246 L 98.1454347826087,100.87250042751246 M 101.73913043478261,83.17250042751246 L 101.85456521739131,100.87250042751246 M 105.21739130434783,83.17250042751246 L 105.56369565217392,100.87250042751246 M 108.69565217391306,83.17250042751246 L 109.27282608695654,100.87250042751246 M 112.17391304347827,83.17250042751246 L 112.98195652173914,100.87250042751246 M 115.65217391304347,83.17250042751246 L 116.69108695652173,100.87250042751246 M 119.13043478260869,83.17250042751246 L 120.40021739130434,100.87250042751246 M 122.6086956521739,83.17250042751246 L 124.10934782608695,100.87250042751246 M 126.08695652173913,83.17250042751246 L 127.81847826086955,100.87250042751246 M 129.56521739130437,83.17250042751246 L 131.5276086956522,100.87250042751246 M 133.04347826086956,83.17250042751246 L 135.23673913043478,100.87250042751246 M 136.5217391304348,83.17250042751246 L 138.9458695652174,100.87250042751246 M 140,83.17250042751246 L 142.655,100.87250042751246" stroke="#979bc4" stroke-width="0.8" fill="none" opacity="0.7"/>
    <path d="M 50,65.47250042751246 Q 65,83.17250042751246 100,74.32250042751247 Q 135,83.17250042751246 150,65.47250042751246" fill="#3275b4" filter="url(#organic)"/>
  </g>
</svg>