<svg xmlns="http://www.w3.org/2000/svg" viewBox="0 0 200 200" width="200" height="200">
  <defs>
    <filter id="organic" x="-5%" y="-5%" width="110%" height="110%">
    <feTurbulence type="fractalNoise" baseFrequency="0.04" numOctaves="3" seed="1" result="noise"/>
    <feDisplacementMap in="SourceGraphic" in2="noise" scale="2" xChannelSelector="R" yChannelSelector="G"/>
  </filter>
  </defs>
  <g>
    <path d="M 94,104.66922912634493 Q 93,137.33461456317247 92.8,170 L 107.2,170 Q 107,137.33461456317247 106,104.66922912634493 Z" fill="#979bc4" filter="url(#organic)"/>
    <ellipse cx="100" cy="124.26846038844145" rx="9" ry="2.6999999999999997" fill="none" stroke="currentColor" stroke-width="1.5" opacity="0.6"/>
    <path d="M 60,104.66922912634493 L 58.479,114.80922912634493 M 63.47826086956522,104.66922912634493 L 62.08952173913043,114.80922912634493 M 66.95652173913044,104.66922912634493 L 65.70004347826087,114.80922912634493 M 70.43478260869566,104.66922912634493 L 69.31056521739131,114.80922912634493 M 73.91304347826087,104.66922912634493 L 72.92108695652175,114.80922912634493 M 77.3913043478261,104.66922912634493 L 76.53160869565218,114.80922912634493 M 80.86956521739131,104.66922912634493 L 80.14213043478262,114.80922912634493 M 84.34782608695653,104.66922912634493 L 83.75265217391305,114.80922912634493 M 87.82608695652173,104.66922912634493 L 87.36317391304347,114.80922912634493 M 91.30434782608695,104.66922912634493 L 90.97369565217392,114.80922912634493 M 94.78260869565219,104.66922912634493 L 94.58421739130436,114.80922912634493 M 98.2608695652174,104.66922912634493 L 98.1947391304348,114.80922912634493 M 101.73913043478261,104.66922912634493 L 101.80526086956522,114.80922912634493 M 105.21739130434783,104.66922912634493 L 105.41578260869565,114.80922912634493 M 108.69565217391306,104.66922912634493 L 109.0263043478261,114.80922912634493 M 112.17391304347827,104.66922912634493 L 112.63682608695653,114.80922912634493 M 115.65217391304347,104.66922912634493 L 116.24734782608695,114.80922912634493 M 119.13043478260869,104.66922912634493 L 119.85786956521738,114.80922912634493 M 122.6086956521739,104.66922912634493 L 123.46839130434782,114.80922912634493 M 126.08695652173913,104.66922912634493 L 127.07891304347825,114.80922912634493 M 129.56521739130437,104.66922912634493 L 130.6894347826087,114.80922912634493 M 133.04347826086956,104.66922912634493 L 134.29995652173912,114.80922912634493 M 136.5217391304348,104.66922912634493 L 137.91047826086958,114.80922912634493 M 140,104.66922912634493 L 141.521,114.80922912634493" stroke="#979bc4" stroke-width="0.8" fill="none" opacity="0.7"/>
    <path d="M 50,104.66922912634493 Q 60,86.92422912634494 100,79.31922912634494 Q 140,86.92422912634494 150,104.66922912634493" fill="#3275b4" filter="url(#organic)"/>
  </g>
</svg>