<svg xmlns="http://www.w3.org/2000/svg" viewBox="0 0 200 200" width="200" height="200">
  <defs>
    <filter id="organic" x="-5%" y="-5%" width="110%" height="110%">
    <feTurbulence type="fractalNoise" baseFrequency="0.04" numOctaves="3" seed="1" result="noise"/>
    <feDisplacementMap in="SourceGraphic" in2="noise" scale="2" xChannelSelector="R" yChannelSelector="G"/>
  </filter>
  </defs>
  <g>
    <path d="M 96,82.58314353957859 Q 95,126.2915717697893 95.2,170 L 104.8,170 Q 105,126.2915717697893 104,82.58314353957859 Z" fill="#979bc4" filter="url(#organic)"/>
    <path d="M 69.8,82.58314353957859 L 66.497,104.60314353957858 M 74.44615384615385,82.58314353957859 L 71.6513076923077,104.60314353957858 M 79.09230769230768,82.58314353957859 L 76.80561538461538,104.60314353957858 M 83.73846153846154,82.58314353957859 L 81.95992307692308,104.60314353957858 M 88.38461538461539,82.58314353957859 L 87.11423076923077,104.60314353957858 M 93.03076923076924,82.58314353957859 L 92.26853846153847,104.60314353957858 M 97.67692307692307,82.58314353957859 L 97.42284615384615,104.60314353957858 M 102.32307692307691,82.58314353957859 L 102.57715384615383,104.60314353957858 M 106.96923076923076,82.58314353957859 L 107.73146153846153,104.60314353957858 M 111.61538461538461,82.58314353957859 L 112.88576923076923,104.60314353957858 M 116.26153846153846,82.58314353957859 L 118.04007692307692,104.60314353957858 M 120.90769230769232,82.58314353957859 L 123.19438461538462,104.60314353957858 M 125.55384615384615,82.58314353957859 L 128.34869230769232,104.60314353957858 M 130.2,82.58314353957859 L 133.503,104.60314353957858" stroke="#979bc4" stroke-width="0.8" fill="none" opacity="0.7"/>
    <path d="M 62.25,82.58314353957859 Q 62.25,60.56314353957858 88.675,49.553143539578585 L 100,27.53314353957859 L 111.325,49.553143539578585 Q 137.75,60.56314353957858 137.75,82.58314353957859" fill="#3275b4" filter="url(#organic)"/>
  </g>
</svg>