<svg xmlns="http://www.w3.org/2000/svg" viewBox="0 0 200 200" width="200" height="200">
  <defs>
    <filter id="organic" x="-5%" y="-5%" width="110%" height="110%">
    <feTurbulence type="fractalNoise" baseFrequency="0.04" numOctaves="3" seed="1" result="noise"/>
    <feDisplacementMap in="SourceGraphic" in2="noise" scale="2" xChannelSelector="R" yChannelSelector="G"/>
  </filter>
  </defs>
  <g>
    <path d="M 94.8,85.57224889262358 Q 93.8,127.78612444631179 93.76,170 L 106.24,170 Q 106.2,127.78612444631179 105.2,85.57224889262358 Z" fill="#979bc4" filter="url(#organic)"/>
    <ellipse cx="100" cy="110.9005742248365" rx="7.800000000000001" ry="2.3400000000000003" fill="none" stroke="currentColor" stroke-width="1.5" opacity="0.6"/>
    <path d="M 63.919999999999995,85.57224889262358 L 61.346,102.73224889262357 M 67.7178947368421,85.57224889262358 L 65.41484210526315,102.73224889262357 M 71.51578947368421,85.57224889262358 L 69.48368421052632,102.73224889262357 M 75.3136842105263,85.57224889262358 L 73.55252631578946,102.73224889262357 M 79.11157894736841,85.57224889262358 L 77.62136842105262,102.73224889262357 M 82.90947368421052,85.57224889262358 L 81.6902105263158,102.73224889262357 M 86.70736842105262,85.57224889262358 L 85.75905263157894,102.73224889262357 M 90.50526315789475,85.57224889262358 L 89.82789473684211,102.73224889262357 M 94.30315789473684,85.57224889262358 L 93.89673684210526,102.73224889262357 M 98.10105263157894,85.57224889262358 L 97.96557894736841,102.73224889262357 M 101.89894736842106,85.57224889262358 L 102.03442105263159,102.73224889262357 M 105.69684210526316,85.57224889262358 L 106.10326315789474,102.73224889262357 M 109.49473684210525,85.57224889262358 L 110.17210526315789,102.73224889262357 M 113.29263157894738,85.57224889262358 L 114.24094736842106,102.73224889262357 M 117.09052631578948,85.57224889262358 L 118.3097894736842,102.73224889262357 M 120.8884210526316,85.57224889262358 L 122.37863157894739,102.73224889262357 M 124.6863157894737,85.57224889262358 L 126.44747368421054,102.73224889262357 M 128.4842105263158,85.57224889262358 L 130.51631578947368,102.73224889262357 M 132.2821052631579,85.57224889262358 L 134.58515789473682,102.73224889262357 M 136.08,85.57224889262358 L 138.65400000000002,102.73224889262357" stroke="#979bc4" stroke-width="0.8" fill="none" opacity="0.7"/>
    <path d="M 54.89999999999999,85.57224889262358 Q 63.919999999999995,55.542248892623576 100,42.67224889262358 Q 136.08,55.542248892623576 145.10000000000002,85.57224889262358" fill="#3275b4" filter="url(#organic)"/>
    <circle cx="77.4" cy="55.5" r="3" fill="white" opacity="0.85"/>
    <circle cx="113.5" cy="51.3" r="2.5" fill="white" opacity="0.85"/>
    <circle cx="95.5" cy="49.1" r="2" fill="white" opacity="0.85"/>
    <circle cx="127.1" cy="59.8" r="2" fill="white" opacity="0.85"/>
    <circle cx="72.9" cy="64.1" r="1.5" fill="white" opacity="0.85"/>
    <circle cx="104.5" cy="64.1" r="2.5" fill="white" opacity="0.85"/>
  </g>
</svg>