<svg xmlns="http://www.w3.org/2000/svg" viewBox="0 0 200 200" width="200" height="200">
  <defs>
    <filter id="organic" x="-5%" y="-5%" width="110%" height="110%">
    <feTurbulence type="fractalNoise" baseFrequency="0.04" numOctaves="3" seed="1" result="noise"/>
    <feDisplacementMap in="SourceGraphic" in2="noise" scale="2" xChannelSelector="R" yChannelSelector="G"/>
  </filter>
  </defs>
  <g>
    <path d="M 92,95.57436758706785 Q 91,132.78718379353393 90.4,170 L 109.6,170 Q 109,132.78718379353393 108,95.57436758706785 Z" fill="#979bc4" filter="url(#organic)"/>
    <ellipse cx="100" cy="117.9020573109475" rx="12" ry="3.5999999999999996" fill="none" stroke="currentColor" stroke-width="1.5" opacity="0.6"/>
    <path d="M 60,95.57436758706785 L 58.398,106.25436758706786 M 63.47826086956522,95.57436758706785 L 62.015565217391305,106.25436758706786 M 66.95652173913044,95.57436758706785 L 65.63313043478261,106.25436758706786 M 70.43478260869566,95.57436758706785 L 69.25069565217392,106.25436758706786 M 73.91304347826087,95.57436758706785 L 72.86826086956522,106.25436758706786 M 77.3913043478261,95.57436758706785 L 76.48582608695652,106.25436758706786 M 80.86956521739131,95.57436758706785 L 80.10339130434784,106.25436758706786 M 84.34782608695653,95.57436758706785 L 83.72095652173914,106.25436758706786 M 87.82608695652173,95.57436758706785 L 87.33852173913043,106.25436758706786 M 91.30434782608695,95.57436758706785 L 90.95608695652173,106.25436758706786 M 94.78260869565219,95.57436758706785 L 94.57365217391306,106.25436758706786 M 98.2608695652174,95.57436758706785 L 98.19121739130436,106.25436758706786 M 101.73913043478261,95.57436758706785 L 101.80878260869565,106.25436758706786 M 105.21739130434783,95.57436758706785 L 105.42634782608695,106.25436758706786 M 108.69565217391306,95.57436758706785 L 109.04391304347828,106.25436758706786 M 112.17391304347827,95.57436758706785 L 112.66147826086957,106.25436758706786 M 115.65217391304347,95.57436758706785 L 116.27904347826086,106.25436758706786 M 119.13043478260869,95.57436758706785 L 119.89660869565216,106.25436758706786 M 122.6086956521739,95.57436758706785 L 123.51417391304348,106.25436758706786 M 126.08695652173913,95.57436758706785 L 127.13173913043478,106.25436758706786 M 129.56521739130437,95.57436758706785 L 130.74930434782613,106.25436758706786 M 133.04347826086956,95.57436758706785 L 134.3668695652174,106.25436758706786 M 136.5217391304348,95.57436758706785 L 137.98443478260873,106.25436758706786 M 140,95.57436758706785 L 141.602,106.25436758706786" stroke="#979bc4" stroke-width="0.8" fill="none" opacity="0.7"/>
    <path d="M 50,84.89436758706785 Q 65,95.57436758706785 100,90.23436758706785 Q 135,95.57436758706785 150,84.89436758706785" fill="#3275b4" filter="url(#organic)"/>
    <circle cx="75.0" cy="76.9" r="3" fill="white" opacity="0.85"/>
    <circle cx="115.0" cy="74.2" r="2.5" fill="white" opacity="0.85"/>
    <circle cx="95.0" cy="72.9" r="2" fill="white" opacity="0.85"/>
    <circle cx="130.0" cy="79.6" r="2" fill="white" opacity="0.85"/>
    <circle cx="70.0" cy="82.2" r="1.5" fill="white" opacity="0.85"/>
    <circle cx="105.0" cy="82.2" r="2.5" fill="white" opacity="0.85"/>
  </g>
</svg>