<svg xmlns="http://www.w3.org/2000/svg" viewBox="0 0 200 200" width="200" height="200">
  <defs>
    <filter id="organic" x="-5%" y="-5%" width="110%" height="110%">
    <feTurbulence type="fractalNoise" baseFrequency="0.04" numOctaves="3" seed="1" result="noise"/>
    <feDisplacementMap in="SourceGraphic" in2="noise" scale="2" xChannelSelector="R" yChannelSelector="G"/>
  </filter>
  </defs>
  <g>
    <path d="M 95.6,92.90375686569892 Q 94.6,131.45187843284947 94.72,170 L 105.28,170 Q 105.4,131.45187843284947 104.4,92.90375686569892 Z" fill="#979bc4" filter="url(#organic)"/>
    <ellipse cx="100" cy="116.03262980598925" rx="6.6000000000000005" ry="1.98" fill="none" stroke="currentColor" stroke-width="1.5" opacity="0.6"/>
    <path d="M 67.84,92.90375686569892 L 66.319,103.04375686569892 M 72.128,92.90375686569892 L 70.8098,103.04375686569892 M 76.416,92.90375686569892 L 75.3006,103.04375686569892 M 80.70400000000001,92.90375686569892 L 79.79140000000001,103.04375686569892 M 84.992,92.90375686569892 L 84.2822,103.04375686569892 M 89.28,92.90375686569892 L 88.773,103.04375686569892 M 93.56800000000001,92.90375686569892 L 93.26380000000002,103.04375686569892 M 97.85600000000001,92.90375686569892 L 97.75460000000001,103.04375686569892 M 102.144,92.90375686569892 L 102.2454,103.04375686569892 M 106.43200000000002,92.90375686569892 L 106.73620000000001,103.04375686569892 M 110.72,92.90375686569892 L 111.227,103.04375686569892 M 115.00800000000001,92.90375686569892 L 115.71780000000001,103.04375686569892 M 119.29600000000002,92.90375686569892 L 120.20860000000002,103.04375686569892 M 123.584,92.90375686569892 L 124.6994,103.04375686569892 M 127.87200000000001,92.90375686569892 L 129.1902,103.04375686569892 M 132.16000000000003,92.90375686569892 L 133.681,103.04375686569892" stroke="#979bc4" stroke-width="0.8" fill="none" opacity="0.7"/>
    <path d="M 59.8,92.90375686569891 Q 59.8,85.29875686569892 100,82.76375686569892 Q 140.2,85.29875686569892 140.2,92.90375686569891" fill="#3275b4" filter="url(#organic)"/>
  </g>
</svg>