<svg xmlns="http://www.w3.org/2000/svg" viewBox="0 0 200 200" width="200" height="200">
  <defs>
    <filter id="organic" x="-5%" y="-5%" width="110%" height="110%">
    <feTurbulence type="fractalNoise" baseFrequency="0.04" numOctaves="3" seed="1" result="noise"/>
    <feDisplacementMap in="SourceGraphic" in2="noise" scale="2" xChannelSelector="R" yChannelSelector="G"/>
  </filter>
  </defs>
  <g>
    <path d="M 92,81.65550681433851 Q 91,125.82775340716925 90.4,170 L 109.6,170 Q 109,125.82775340716925 108,81.65550681433851 Z" fill="#979bc4" filter="url(#organic)"/>
    <path d="M 60,81.65550681433851 L 57.426,98.8155068143385 M 63.47826086956522,81.65550681433851 L 61.12808695652174,98.8155068143385 M 66.95652173913044,81.65550681433851 L 64.83017391304348,98.8155068143385 M 70.43478260869566,81.65550681433851 L 68.53226086956522,98.8155068143385 M 73.91304347826087,81.65550681433851 L 72.23434782608696,98.8155068143385 M 77.3913043478261,81.65550681433851 L 75.9364347826087,98.8155068143385 M 80.86956521739131,81.65550681433851 L 79.63852173913044,98.8155068143385 M 84.34782608695653,81.65550681433851 L 83.34060869565218,98.8155068143385 M 87.82608695652173,81.65550681433851 L 87.0426956521739,98.8155068143385 M 91.30434782608695,81.65550681433851 L 90.74478260869564,98.8155068143385 M 94.78260869565219,81.65550681433851 L 94.4468695652174,98.8155068143385 M 98.2608695652174,81.65550681433851 L 98.14895652173914,98.8155068143385 M 101.73913043478261,81.65550681433851 L 101.85104347826088,98.8155068143385 M 105.21739130434783,81.65550681433851 L 105.55313043478262,98.8155068143385 M 108.69565217391306,81.65550681433851 L 109.25521739130437,98.8155068143385 M 112.17391304347827,81.65550681433851 L 112.9573043478261,98.8155068143385 M 115.65217391304347,81.65550681433851 L 116.65939130434782,98.8155068143385 M 119.13043478260869,81.65550681433851 L 120.36147826086956,98.8155068143385 M 122.6086956521739,81.65550681433851 L 124.0635652173913,98.8155068143385 M 126.08695652173913,81.65550681433851 L 127.76565217391304,98.8155068143385 M 129.56521739130437,81.65550681433851 L 131.4677391304348,98.8155068143385 M 133.04347826086956,81.65550681433851 L 135.1698260869565,98.8155068143385 M 136.5217391304348,81.65550681433851 L 138.8719130434783,98.8155068143385 M 140,81.65550681433851 L 142.574,98.8155068143385" stroke="#979bc4" stroke-width="0.8" fill="none" opacity="0.7"/>
    <path d="M 50,64.49550681433851 Q 65,81.65550681433851 100,73.07550681433851 Q 135,81.65550681433851 150,64.49550681433851" fill="#3275b4" filter="url(#organic)"/>
  </g>
</svg>