<svg xmlns="http://www.w3.org/2000/svg" viewBox="0 0 200 200" width="200" height="200">
  <defs>
    <filter id="organic" x="-5%" y="-5%" width="110%" height="110%">
    <feTurbulence type="fractalNoise" baseFrequency="0.04" numOctaves="3" seed="1" result="noise"/>
    <feDisplacementMap in="SourceGraphic" in2="noise" scale="2" xChannelSelector="R" yChannelSelector="G"/>
  </filter>
  </defs>
  <g>
    <path d="M 92,107.10136759231263 Q 91,138.5506837961563 90.4,170 L 109.6,170 Q 109,138.5506837961563 108,107.10136759231263 Z" fill="#979bc4" filter="url(#organic)"/>
    <ellipse cx="100" cy="125.97095731461884" rx="12" ry="3.5999999999999996" fill="none" stroke="currentColor" stroke-width="1.5" opacity="0.6"/>
    <path d="M 60,107.10136759231263 L 58.479,117.24136759231263 M 63.47826086956522,107.10136759231263 L 62.08952173913043,117.24136759231263 M 66.95652173913044,107.10136759231263 L 65.70004347826087,117.24136759231263 M 70.43478260869566,107.10136759231263 L 69.31056521739131,117.24136759231263 M 73.91304347826087,107.10136759231263 L 72.92108695652175,117.24136759231263 M 77.3913043478261,107.10136759231263 L 76.53160869565218,117.24136759231263 M 80.86956521739131,107.10136759231263 L 80.14213043478262,117.24136759231263 M 84.34782608695653,107.10136759231263 L 83.75265217391305,117.24136759231263 M 87.82608695652173,107.10136759231263 L 87.36317391304347,117.24136759231263 M 91.30434782608695,107.10136759231263 L 90.97369565217392,117.24136759231263 M 94.78260869565219,107.10136759231263 L 94.58421739130436,117.24136759231263 M 98.2608695652174,107.10136759231263 L 98.1947391304348,117.24136759231263 M 101.73913043478261,107.10136759231263 L 101.80526086956522,117.24136759231263 M 105.21739130434783,107.10136759231263 L 105.41578260869565,117.24136759231263 M 108.69565217391306,107.10136759231263 L 109.0263043478261,117.24136759231263 M 112.17391304347827,107.10136759231263 L 112.63682608695653,117.24136759231263 M 115.65217391304347,107.10136759231263 L 116.24734782608695,117.24136759231263 M 119.13043478260869,107.10136759231263 L 119.85786956521738,117.24136759231263 M 122.6086956521739,107.10136759231263 L 123.46839130434782,117.24136759231263 M 126.08695652173913,107.10136759231263 L 127.07891304347825,117.24136759231263 M 129.56521739130437,107.10136759231263 L 130.6894347826087,117.24136759231263 M 133.04347826086956,107.10136759231263 L 134.29995652173912,117.24136759231263 M 136.5217391304348,107.10136759231263 L 137.91047826086958,117.24136759231263 M 140,107.10136759231263 L 141.521,117.24136759231263" stroke="#979bc4" stroke-width="0.8" fill="none" opacity="0.7"/>
    <path d="M 50,107.10136759231261 Q 60,89.35636759231262 100,81.75136759231262 Q 140,89.35636759231262 150,107.10136759231261" fill="#3275b4" filter="url(#organic)"/>
  </g>
</svg>