<svg xmlns="http://www.w3.org/2000/svg" viewBox="0 0 200 200" width="200" height="200">
  <defs>
    <filter id="organic" x="-5%" y="-5%" width="110%" height="110%">
    <feTurbulence type="fractalNoise" baseFrequency="0.04" numOctaves="3" seed="1" result="noise"/>
    <feDisplacementMap in="SourceGraphic" in2="noise" scale="2" xChannelSelector="R" yChannelSelector="G"/>
  </filter>
  </defs>
  <g>
    <path d="M 96.8,80.43763957178169 Q 95.8,125.21881978589084 96.16,170 L 103.84,170 Q 104.2,125.21881978589084 103.2,80.43763957178169 Z" fill="#979bc4" filter="url(#organic)"/>
    <ellipse cx="100" cy="107.30634770024719" rx="4.800000000000001" ry="1.4400000000000002" fill="none" stroke="currentColor" stroke-width="1.5" opacity="0.6"/>
    <path d="M 73.72,80.43763957178169 L 72.199,90.57763957178169 M 79.56,80.43763957178169 L 78.377,90.57763957178169 M 85.4,80.43763957178169 L 84.555,90.57763957178169 M 91.24,80.43763957178169 L 90.73299999999999,90.57763957178169 M 97.08,80.43763957178169 L 96.911,90.57763957178169 M 102.92,80.43763957178169 L 103.089,90.57763957178169 M 108.75999999999999,80.43763957178169 L 109.267,90.57763957178169 M 114.6,80.43763957178169 L 115.445,90.57763957178169 M 120.44,80.43763957178169 L 121.62299999999999,90.57763957178169 M 126.28,80.43763957178169 L 127.801,90.57763957178169" stroke="#979bc4" stroke-width="0.8" fill="none" opacity="0.7"/>
    <path d="M 67.15,80.43763957178169 Q 67.15,72.83263957178168 100,70.29763957178169 Q 132.85,72.83263957178168 132.85,80.43763957178169" fill="#3275b4" filter="url(#organic)"/>
  </g>
</svg>