<svg xmlns="http://www.w3.org/2000/svg" viewBox="0 0 200 200" width="200" height="200">
  <defs>
    <filter id="organic" x="-5%" y="-5%" width="110%" height="110%">
    <feTurbulence type="fractalNoise" baseFrequency="0.04" numOctaves="3" seed="1" result="noise"/>
    <feDisplacementMap in="SourceGraphic" in2="noise" scale="2" xChannelSelector="R" yChannelSelector="G"/>
  </filter>
  </defs>
  <g>
    <path d="M 95.6,92.3302628968899 Q 94.6,131.16513144844495 94.72,170 L 105.28,170 Q 105.4,131.16513144844495 104.4,92.3302628968899 Z" fill="#979bc4" filter="url(#organic)"/>
    <ellipse cx="100" cy="115.63118402782294" rx="6.6000000000000005" ry="1.98" fill="none" stroke="currentColor" stroke-width="1.5" opacity="0.6"/>
    <path d="M 67.84,92.3302628968899 L 65.914,105.17026289688991 M 72.128,92.3302628968899 L 70.4588,105.17026289688991 M 76.416,92.3302628968899 L 75.00359999999999,105.17026289688991 M 80.70400000000001,92.3302628968899 L 79.5484,105.17026289688991 M 84.992,92.3302628968899 L 84.09320000000001,105.17026289688991 M 89.28,92.3302628968899 L 88.638,105.17026289688991 M 93.56800000000001,92.3302628968899 L 93.18280000000001,105.17026289688991 M 97.85600000000001,92.3302628968899 L 97.72760000000001,105.17026289688991 M 102.144,92.3302628968899 L 102.2724,105.17026289688991 M 106.43200000000002,92.3302628968899 L 106.81720000000001,105.17026289688991 M 110.72,92.3302628968899 L 111.362,105.17026289688991 M 115.00800000000001,92.3302628968899 L 115.9068,105.17026289688991 M 119.29600000000002,92.3302628968899 L 120.45160000000003,105.17026289688991 M 123.584,92.3302628968899 L 124.99640000000001,105.17026289688991 M 127.87200000000001,92.3302628968899 L 129.5412,105.17026289688991 M 132.16000000000003,92.3302628968899 L 134.086,105.17026289688991" stroke="#979bc4" stroke-width="0.8" fill="none" opacity="0.7"/>
    <path d="M 59.8,92.3302628968899 Q 59.8,82.70026289688991 100,79.4902628968899 Q 140.2,82.70026289688991 140.2,92.3302628968899" fill="#3275b4" filter="url(#organic)"/>
    <circle cx="79.9" cy="69.9" r="3" fill="white" opacity="0.85"/>
    <circle cx="112.1" cy="66.7" r="2.5" fill="white" opacity="0.85"/>
    <circle cx="96.0" cy="65.0" r="2" fill="white" opacity="0.85"/>
    <circle cx="124.1" cy="73.1" r="2" fill="white" opacity="0.85"/>
    <circle cx="75.9" cy="76.3" r="1.5" fill="white" opacity="0.85"/>
    <circle cx="104.0" cy="76.3" r="2.5" fill="white" opacity="0.85"/>
  </g>
</svg>