<svg xmlns="http://www.w3.org/2000/svg" viewBox="0 0 200 200" width="200" height="200">
  <defs>
    <filter id="organic" x="-5%" y="-5%" width="110%" height="110%">
    <feTurbulence type="fractalNoise" baseFrequency="0.04" numOctaves="3" seed="1" result="noise"/>
    <feDisplacementMap in="SourceGraphic" in2="noise" scale="2" xChannelSelector="R" yChannelSelector="G"/>
  </filter>
  </defs>
  <g>
    <path d="M 96.4,85.34036481247969 Q 95.4,127.67018240623985 95.68,170 L 104.32,170 Q 104.6,127.67018240623985 103.6,85.34036481247969 Z" fill="#979bc4" filter="url(#organic)"/>
    <ellipse cx="100" cy="110.73825536873578" rx="5.4" ry="1.62" fill="none" stroke="currentColor" stroke-width="1.5" opacity="0.6"/>
    <path d="M 71.75999999999999,85.34036481247969 L 68.94299999999998,104.12036481247969 M 76.89454545454545,85.34036481247969 L 74.58972727272727,104.12036481247969 M 82.0290909090909,85.34036481247969 L 80.23645454545454,104.12036481247969 M 87.16363636363636,85.34036481247969 L 85.88318181818181,104.12036481247969 M 92.29818181818182,85.34036481247969 L 91.52990909090909,104.12036481247969 M 97.43272727272726,85.34036481247969 L 97.17663636363635,104.12036481247969 M 102.56727272727272,85.34036481247969 L 102.82336363636364,104.12036481247969 M 107.70181818181817,85.34036481247969 L 108.4700909090909,104.12036481247969 M 112.83636363636364,85.34036481247969 L 114.11681818181819,104.12036481247969 M 117.97090909090909,85.34036481247969 L 119.76354545454545,104.12036481247969 M 123.10545454545453,85.34036481247969 L 125.41027272727271,104.12036481247969 M 128.24,85.34036481247969 L 131.05700000000002,104.12036481247969" stroke="#979bc4" stroke-width="0.8" fill="none" opacity="0.7"/>
    <path d="M 64.69999999999999,85.34036481247969 Q 64.69999999999999,66.56036481247969 89.41,57.17036481247969 L 100,38.39036481247969 L 110.59,57.17036481247969 Q 135.3,66.56036481247969 135.3,85.34036481247969" fill="#3275b4" filter="url(#organic)"/>
    <circle cx="82.3" cy="52.5" r="3" fill="white" opacity="0.85"/>
    <circle cx="110.6" cy="47.8" r="2.5" fill="white" opacity="0.85"/>
    <circle cx="96.5" cy="45.4" r="2" fill="white" opacity="0.85"/>
    <circle cx="121.2" cy="57.2" r="2" fill="white" opacity="0.85"/>
    <circle cx="78.8" cy="61.9" r="1.5" fill="white" opacity="0.85"/>
    <circle cx="103.5" cy="61.9" r="2.5" fill="white" opacity="0.85"/>
  </g>
</svg>