<svg xmlns="http://www.w3.org/2000/svg" viewBox="0 0 200 200" width="200" height="200">
  <defs>
    <filter id="organic" x="-5%" y="-5%" width="110%" height="110%">
    <feTurbulence type="fractalNoise" baseFrequency="0.04" numOctaves="3" seed="1" result="noise"/>
    <feDisplacementMap in="SourceGraphic" in2="noise" scale="2" xChannelSelector="R" yChannelSelector="G"/>
  </filter>
  </defs>
  <g>
    <path d="M 94.4,92.55591304685808 Q 93.4,131.27795652342905 93.28,170 L 106.72,170 Q 106.6,131.27795652342905 105.6,92.55591304685808 Z" fill="#979bc4" filter="url(#organic)"/>
    <ellipse cx="100" cy="115.78913913280066" rx="8.399999999999999" ry="2.5199999999999996" fill="none" stroke="currentColor" stroke-width="1.5" opacity="0.6"/>
    <path d="M 61.959999999999994,92.55591304685808 L 60.43899999999999,102.69591304685808 M 65.58285714285714,92.55591304685808 L 64.20671428571428,102.69591304685808 M 69.20571428571428,92.55591304685808 L 67.97442857142856,102.69591304685808 M 72.82857142857142,92.55591304685808 L 71.74214285714285,102.69591304685808 M 76.45142857142856,92.55591304685808 L 75.50985714285714,102.69591304685808 M 80.07428571428571,92.55591304685808 L 79.27757142857142,102.69591304685808 M 83.69714285714285,92.55591304685808 L 83.04528571428571,102.69591304685808 M 87.32,92.55591304685808 L 86.81299999999999,102.69591304685808 M 90.94285714285714,92.55591304685808 L 90.58071428571428,102.69591304685808 M 94.56571428571428,92.55591304685808 L 94.34842857142857,102.69591304685808 M 98.18857142857142,92.55591304685808 L 98.11614285714285,102.69591304685808 M 101.81142857142858,92.55591304685808 L 101.88385714285715,102.69591304685808 M 105.4342857142857,92.55591304685808 L 105.65157142857142,102.69591304685808 M 109.05714285714286,92.55591304685808 L 109.41928571428572,102.69591304685808 M 112.68,92.55591304685808 L 113.18700000000001,102.69591304685808 M 116.30285714285714,92.55591304685808 L 116.95471428571427,102.69591304685808 M 119.92571428571428,92.55591304685808 L 120.72242857142857,102.69591304685808 M 123.54857142857144,92.55591304685808 L 124.49014285714286,102.69591304685808 M 127.17142857142858,92.55591304685808 L 128.25785714285715,102.69591304685808 M 130.7942857142857,92.55591304685808 L 132.02557142857142,102.69591304685808 M 134.41714285714284,92.55591304685808 L 135.7932857142857,102.69591304685808 M 138.04000000000002,92.55591304685808 L 139.561,102.69591304685808" stroke="#979bc4" stroke-width="0.8" fill="none" opacity="0.7"/>
    <path d="M 52.449999999999996,92.55591304685808 Q 52.449999999999996,84.95091304685809 100,82.4159130468581 Q 147.55,84.95091304685809 147.55,92.55591304685808" fill="#3275b4" filter="url(#organic)"/>
  </g>
</svg>