<svg xmlns="http://www.w3.org/2000/svg" viewBox="0 0 200 200" width="200" height="200">
  <defs>
    <filter id="organic" x="-5%" y="-5%" width="110%" height="110%">
    <feTurbulence type="fractalNoise" baseFrequency="0.04" numOctaves="3" seed="1" result="noise"/>
    <feDisplacementMap in="SourceGraphic" in2="noise" scale="2" xChannelSelector="R" yChannelSelector="G"/>
  </filter>
  </defs>
  <g>
    <path d="M 96,76.30383116562382 Q 95,123.15191558281191 95.2,170 L 104.8,170 Q 105,123.15191558281191 104,76.30383116562382 Z" fill="#979bc4" filter="url(#organic)"/>
    <ellipse cx="100" cy="104.41268181593668" rx="6" ry="1.7999999999999998" fill="none" stroke="currentColor" stroke-width="1.5" opacity="0.6"/>
    <path d="M 69.8,76.30383116562382 L 68.279,86.44383116562382 M 74.44615384615385,76.30383116562382 L 73.15915384615384,86.44383116562382 M 79.09230769230768,76.30383116562382 L 78.03930769230769,86.44383116562382 M 83.73846153846154,76.30383116562382 L 82.91946153846153,86.44383116562382 M 88.38461538461539,76.30383116562382 L 87.7996153846154,86.44383116562382 M 93.03076923076924,76.30383116562382 L 92.67976923076924,86.44383116562382 M 97.67692307692307,76.30383116562382 L 97.55992307692307,86.44383116562382 M 102.32307692307691,76.30383116562382 L 102.44007692307692,86.44383116562382 M 106.96923076923076,76.30383116562382 L 107.32023076923076,86.44383116562382 M 111.61538461538461,76.30383116562382 L 112.2003846153846,86.44383116562382 M 116.26153846153846,76.30383116562382 L 117.08053846153847,86.44383116562382 M 120.90769230769232,76.30383116562382 L 121.96069230769231,86.44383116562382 M 125.55384615384615,76.30383116562382 L 126.84084615384616,86.44383116562382 M 130.2,76.30383116562382 L 131.72099999999998,86.44383116562382" stroke="#979bc4" stroke-width="0.8" fill="none" opacity="0.7"/>
    <path d="M 62.25,76.30383116562382 Q 62.25,68.69883116562382 100,66.16383116562382 Q 137.75,68.69883116562382 137.75,76.30383116562382" fill="#3275b4" filter="url(#organic)"/>
  </g>
</svg>