<svg xmlns="http://www.w3.org/2000/svg" viewBox="0 0 200 200" width="200" height="200">
  <defs>
    <filter id="organic" x="-5%" y="-5%" width="110%" height="110%">
    <feTurbulence type="fractalNoise" baseFrequency="0.04" numOctaves="3" seed="1" result="noise"/>
    <feDisplacementMap in="SourceGraphic" in2="noise" scale="2" xChannelSelector="R" yChannelSelector="G"/>
  </filter>
  </defs>
  <g>
    <path d="M 92,98.54225659533752 Q 91,134.27112829766875 90.4,170 L 109.6,170 Q 109,134.27112829766875 108,98.54225659533752 Z" fill="#979bc4" filter="url(#organic)"/>
    <path d="M 60,98.54225659533752 L 58.236,110.30225659533752 M 63.47826086956522,98.54225659533752 L 61.867652173913044,110.30225659533752 M 66.95652173913044,98.54225659533752 L 65.49930434782608,110.30225659533752 M 70.43478260869566,98.54225659533752 L 69.13095652173914,110.30225659533752 M 73.91304347826087,98.54225659533752 L 72.76260869565218,110.30225659533752 M 77.3913043478261,98.54225659533752 L 76.39426086956523,110.30225659533752 M 80.86956521739131,98.54225659533752 L 80.02591304347827,110.30225659533752 M 84.34782608695653,98.54225659533752 L 83.65756521739131,110.30225659533752 M 87.82608695652173,98.54225659533752 L 87.28921739130435,110.30225659533752 M 91.30434782608695,98.54225659533752 L 90.92086956521739,110.30225659533752 M 94.78260869565219,98.54225659533752 L 94.55252173913044,110.30225659533752 M 98.2608695652174,98.54225659533752 L 98.1841739130435,110.30225659533752 M 101.73913043478261,98.54225659533752 L 101.81582608695652,110.30225659533752 M 105.21739130434783,98.54225659533752 L 105.44747826086957,110.30225659533752 M 108.69565217391306,98.54225659533752 L 109.07913043478263,110.30225659533752 M 112.17391304347827,98.54225659533752 L 112.71078260869565,110.30225659533752 M 115.65217391304347,98.54225659533752 L 116.34243478260869,110.30225659533752 M 119.13043478260869,98.54225659533752 L 119.97408695652173,110.30225659533752 M 122.6086956521739,98.54225659533752 L 123.60573913043477,110.30225659533752 M 126.08695652173913,98.54225659533752 L 127.23739130434782,110.30225659533752 M 129.56521739130437,98.54225659533752 L 130.8690434782609,110.30225659533752 M 133.04347826086956,98.54225659533752 L 134.5006956521739,110.30225659533752 M 136.5217391304348,98.54225659533752 L 138.13234782608697,110.30225659533752 M 140,98.54225659533752 L 141.764,110.30225659533752" stroke="#979bc4" stroke-width="0.8" fill="none" opacity="0.7"/>
    <path d="M 50,98.54225659533753 Q 50,89.72225659533753 100,86.78225659533753 Q 150,89.72225659533753 150,98.54225659533753" fill="#3275b4" filter="url(#organic)"/>
  </g>
</svg>