<svg xmlns="http://www.w3.org/2000/svg" viewBox="0 0 200 200" width="200" height="200">
  <defs>
    <filter id="organic" x="-5%" y="-5%" width="110%" height="110%">
    <feTurbulence type="fractalNoise" baseFrequency="0.04" numOctaves="3" seed="1" result="noise"/>
    <feDisplacementMap in="SourceGraphic" in2="noise" scale="2" xChannelSelector="R" yChannelSelector="G"/>
  </filter>
  </defs>
  <g>
    <path d="M 95.6,105.81498386806479 Q 94.6,137.9074919340324 94.72,170 L 105.28,170 Q 105.4,137.9074919340324 104.4,105.81498386806479 Z" fill="#979bc4" filter="url(#organic)"/>
    <ellipse cx="100" cy="125.07048870764535" rx="6.6000000000000005" ry="1.98" fill="none" stroke="currentColor" stroke-width="1.5" opacity="0.6"/>
    <path d="M 67.84,105.81498386806479 L 66.238,116.49498386806479 M 72.128,105.81498386806479 L 70.7396,116.49498386806479 M 76.416,105.81498386806479 L 75.24119999999999,116.49498386806479 M 80.70400000000001,105.81498386806479 L 79.7428,116.49498386806479 M 84.992,105.81498386806479 L 84.2444,116.49498386806479 M 89.28,105.81498386806479 L 88.746,116.49498386806479 M 93.56800000000001,105.81498386806479 L 93.2476,116.49498386806479 M 97.85600000000001,105.81498386806479 L 97.7492,116.49498386806479 M 102.144,105.81498386806479 L 102.25080000000001,116.49498386806479 M 106.43200000000002,105.81498386806479 L 106.75240000000002,116.49498386806479 M 110.72,105.81498386806479 L 111.254,116.49498386806479 M 115.00800000000001,105.81498386806479 L 115.75560000000002,116.49498386806479 M 119.29600000000002,105.81498386806479 L 120.25720000000003,116.49498386806479 M 123.584,105.81498386806479 L 124.75880000000001,116.49498386806479 M 127.87200000000001,105.81498386806479 L 129.2604,116.49498386806479 M 132.16000000000003,105.81498386806479 L 133.76200000000003,116.49498386806479" stroke="#979bc4" stroke-width="0.8" fill="none" opacity="0.7"/>
    <path d="M 59.8,105.81498386806479 Q 67.84,87.12498386806479 100,79.11498386806478 Q 132.16,87.12498386806479 140.2,105.81498386806479" fill="#3275b4" filter="url(#organic)"/>
  </g>
</svg>