<svg xmlns="http://www.w3.org/2000/svg" viewBox="0 0 200 200" width="200" height="200">
  <defs>
    <filter id="organic" x="-5%" y="-5%" width="110%" height="110%">
    <feTurbulence type="fractalNoise" baseFrequency="0.04" numOctaves="3" seed="1" result="noise"/>
    <feDisplacementMap in="SourceGraphic" in2="noise" scale="2" xChannelSelector="R" yChannelSelector="G"/>
  </filter>
  </defs>
  <g>
    <path d="M 96.4,99.38209090384615 Q 95.4,134.69104545192306 95.68,170 L 104.32,170 Q 104.6,134.69104545192306 103.6,99.38209090384615 Z" fill="#979bc4" filter="url(#organic)"/>
    <path d="M 71.75999999999999,99.38209090384615 L 70.15799999999999,110.06209090384615 M 76.89454545454545,99.38209090384615 L 75.58381818181817,110.06209090384615 M 82.0290909090909,99.38209090384615 L 81.00963636363635,110.06209090384615 M 87.16363636363636,99.38209090384615 L 86.43545454545453,110.06209090384615 M 92.29818181818182,99.38209090384615 L 91.86127272727272,110.06209090384615 M 97.43272727272726,99.38209090384615 L 97.28709090909089,110.06209090384615 M 102.56727272727272,99.38209090384615 L 102.7129090909091,110.06209090384615 M 107.70181818181817,99.38209090384615 L 108.13872727272727,110.06209090384615 M 112.83636363636364,99.38209090384615 L 113.56454545454547,110.06209090384615 M 117.97090909090909,99.38209090384615 L 118.99036363636364,110.06209090384615 M 123.10545454545453,99.38209090384615 L 124.41618181818181,110.06209090384615 M 128.24,99.38209090384615 L 129.842,110.06209090384615" stroke="#979bc4" stroke-width="0.8" fill="none" opacity="0.7"/>
    <path d="M 64.69999999999999,99.38209090384615 Q 71.75999999999999,80.69209090384615 100,72.68209090384615 Q 128.24,80.69209090384615 135.3,99.38209090384615" fill="#3275b4" filter="url(#organic)"/>
  </g>
</svg>