<svg xmlns="http://www.w3.org/2000/svg" viewBox="0 0 200 200" width="200" height="200">
  <defs>
    <filter id="organic" x="-5%" y="-5%" width="110%" height="110%">
    <feTurbulence type="fractalNoise" baseFrequency="0.04" numOctaves="3" seed="1" result="noise"/>
    <feDisplacementMap in="SourceGraphic" in2="noise" scale="2" xChannelSelector="R" yChannelSelector="G"/>
  </filter>
  </defs>
  <g>
    <path d="M 92,90.77684127434964 Q 91,130.38842063717482 90.4,170 L 109.6,170 Q 109,130.38842063717482 108,90.77684127434964 Z" fill="#979bc4" filter="url(#organic)"/>
    <ellipse cx="100" cy="114.54378889204474" rx="12" ry="3.5999999999999996" fill="none" stroke="currentColor" stroke-width="1.5" opacity="0.6"/>
    <path d="M 60,90.77684127434964 L 58.479,100.91684127434964 M 63.47826086956522,90.77684127434964 L 62.08952173913043,100.91684127434964 M 66.95652173913044,90.77684127434964 L 65.70004347826087,100.91684127434964 M 70.43478260869566,90.77684127434964 L 69.31056521739131,100.91684127434964 M 73.91304347826087,90.77684127434964 L 72.92108695652175,100.91684127434964 M 77.3913043478261,90.77684127434964 L 76.53160869565218,100.91684127434964 M 80.86956521739131,90.77684127434964 L 80.14213043478262,100.91684127434964 M 84.34782608695653,90.77684127434964 L 83.75265217391305,100.91684127434964 M 87.82608695652173,90.77684127434964 L 87.36317391304347,100.91684127434964 M 91.30434782608695,90.77684127434964 L 90.97369565217392,100.91684127434964 M 94.78260869565219,90.77684127434964 L 94.58421739130436,100.91684127434964 M 98.2608695652174,90.77684127434964 L 98.1947391304348,100.91684127434964 M 101.73913043478261,90.77684127434964 L 101.80526086956522,100.91684127434964 M 105.21739130434783,90.77684127434964 L 105.41578260869565,100.91684127434964 M 108.69565217391306,90.77684127434964 L 109.0263043478261,100.91684127434964 M 112.17391304347827,90.77684127434964 L 112.63682608695653,100.91684127434964 M 115.65217391304347,90.77684127434964 L 116.24734782608695,100.91684127434964 M 119.13043478260869,90.77684127434964 L 119.85786956521738,100.91684127434964 M 122.6086956521739,90.77684127434964 L 123.46839130434782,100.91684127434964 M 126.08695652173913,90.77684127434964 L 127.07891304347825,100.91684127434964 M 129.56521739130437,90.77684127434964 L 130.6894347826087,100.91684127434964 M 133.04347826086956,90.77684127434964 L 134.29995652173912,100.91684127434964 M 136.5217391304348,90.77684127434964 L 137.91047826086958,100.91684127434964 M 140,90.77684127434964 L 141.521,100.91684127434964" stroke="#979bc4" stroke-width="0.8" fill="none" opacity="0.7"/>
    <path d="M 50,80.63684127434965 Q 65,90.77684127434964 100,85.70684127434964 Q 135,90.77684127434964 150,80.63684127434965" fill="#3275b4" filter="url(#organic)"/>
    <circle cx="75.0" cy="73.0" r="3" fill="white" opacity="0.85"/>
    <circle cx="115.0" cy="70.5" r="2.5" fill="white" opacity="0.85"/>
    <circle cx="95.0" cy="69.2" r="2" fill="white" opacity="0.85"/>
    <circle cx="130.0" cy="75.6" r="2" fill="white" opacity="0.85"/>
    <circle cx="70.0" cy="78.1" r="1.5" fill="white" opacity="0.85"/>
    <circle cx="105.0" cy="78.1" r="2.5" fill="white" opacity="0.85"/>
  </g>
</svg>