<svg xmlns="http://www.w3.org/2000/svg" viewBox="0 0 200 200" width="200" height="200">
  <defs>
    <filter id="organic" x="-5%" y="-5%" width="110%" height="110%">
    <feTurbulence type="fractalNoise" baseFrequency="0.04" numOctaves="3" seed="1" result="noise"/>
    <feDisplacementMap in="SourceGraphic" in2="noise" scale="2" xChannelSelector="R" yChannelSelector="G"/>
  </filter>
  </defs>
  <g>
    <path d="M 95.6,91.68104589254746 Q 94.6,130.84052294627372 94.72,170 L 105.28,170 Q 105.4,130.84052294627372 104.4,91.68104589254746 Z" fill="#979bc4" filter="url(#organic)"/>
    <ellipse cx="100" cy="115.17673212478323" rx="6.6000000000000005" ry="1.98" fill="none" stroke="currentColor" stroke-width="1.5" opacity="0.6"/>
    <path d="M 67.84,91.68104589254746 L 65.995,103.98104589254746 M 72.128,91.68104589254746 L 70.529,103.98104589254746 M 76.416,91.68104589254746 L 75.063,103.98104589254746 M 80.70400000000001,91.68104589254746 L 79.59700000000001,103.98104589254746 M 84.992,91.68104589254746 L 84.131,103.98104589254746 M 89.28,91.68104589254746 L 88.665,103.98104589254746 M 93.56800000000001,91.68104589254746 L 93.19900000000001,103.98104589254746 M 97.85600000000001,91.68104589254746 L 97.733,103.98104589254746 M 102.144,91.68104589254746 L 102.26700000000001,103.98104589254746 M 106.43200000000002,91.68104589254746 L 106.80100000000002,103.98104589254746 M 110.72,91.68104589254746 L 111.335,103.98104589254746 M 115.00800000000001,91.68104589254746 L 115.86900000000001,103.98104589254746 M 119.29600000000002,91.68104589254746 L 120.40300000000002,103.98104589254746 M 123.584,91.68104589254746 L 124.937,103.98104589254746 M 127.87200000000001,91.68104589254746 L 129.471,103.98104589254746 M 132.16000000000003,91.68104589254746 L 134.00500000000002,103.98104589254746" stroke="#979bc4" stroke-width="0.8" fill="none" opacity="0.7"/>
    <path d="M 59.8,91.68104589254746 Q 59.8,82.45604589254745 100,79.38104589254746 Q 140.2,82.45604589254745 140.2,91.68104589254746" fill="#3275b4" filter="url(#organic)"/>
    <circle cx="79.9" cy="70.2" r="3" fill="white" opacity="0.85"/>
    <circle cx="112.1" cy="67.1" r="2.5" fill="white" opacity="0.85"/>
    <circle cx="96.0" cy="65.5" r="2" fill="white" opacity="0.85"/>
    <circle cx="124.1" cy="73.2" r="2" fill="white" opacity="0.85"/>
    <circle cx="75.9" cy="76.3" r="1.5" fill="white" opacity="0.85"/>
    <circle cx="104.0" cy="76.3" r="2.5" fill="white" opacity="0.85"/>
  </g>
</svg>