<svg xmlns="http://www.w3.org/2000/svg" viewBox="0 0 200 200" width="200" height="200">
  <defs>
    <filter id="organic" x="-5%" y="-5%" width="110%" height="110%">
    <feTurbulence type="fractalNoise" baseFrequency="0.04" numOctaves="3" seed="1" result="noise"/>
    <feDisplacementMap in="SourceGraphic" in2="noise" scale="2" xChannelSelector="R" yChannelSelector="G"/>
  </filter>
  </defs>
  <g>
    <path d="M 92,86.49053087550485 Q 91,128.24526543775244 90.4,170 L 109.6,170 Q 109,128.24526543775244 108,86.49053087550485 Z" fill="#979bc4" filter="url(#organic)"/>
    <path d="M 60,86.49053087550485 L 58.074,99.33053087550485 M 63.47826086956522,86.49053087550485 L 61.71973913043478,99.33053087550485 M 66.95652173913044,86.49053087550485 L 65.36547826086957,99.33053087550485 M 70.43478260869566,86.49053087550485 L 69.01121739130436,99.33053087550485 M 73.91304347826087,86.49053087550485 L 72.65695652173913,99.33053087550485 M 77.3913043478261,86.49053087550485 L 76.30269565217392,99.33053087550485 M 80.86956521739131,86.49053087550485 L 79.9484347826087,99.33053087550485 M 84.34782608695653,86.49053087550485 L 83.59417391304349,99.33053087550485 M 87.82608695652173,86.49053087550485 L 87.23991304347825,99.33053087550485 M 91.30434782608695,86.49053087550485 L 90.88565217391304,99.33053087550485 M 94.78260869565219,86.49053087550485 L 94.53139130434784,99.33053087550485 M 98.2608695652174,86.49053087550485 L 98.17713043478263,99.33053087550485 M 101.73913043478261,86.49053087550485 L 101.82286956521739,99.33053087550485 M 105.21739130434783,86.49053087550485 L 105.46860869565218,99.33053087550485 M 108.69565217391306,86.49053087550485 L 109.11434782608697,99.33053087550485 M 112.17391304347827,86.49053087550485 L 112.76008695652175,99.33053087550485 M 115.65217391304347,86.49053087550485 L 116.40582608695651,99.33053087550485 M 119.13043478260869,86.49053087550485 L 120.0515652173913,99.33053087550485 M 122.6086956521739,86.49053087550485 L 123.69730434782608,99.33053087550485 M 126.08695652173913,86.49053087550485 L 127.34304347826087,99.33053087550485 M 129.56521739130437,86.49053087550485 L 130.9887826086957,99.33053087550485 M 133.04347826086956,86.49053087550485 L 134.63452173913043,99.33053087550485 M 136.5217391304348,86.49053087550485 L 138.28026086956524,99.33053087550485 M 140,86.49053087550485 L 141.926,99.33053087550485" stroke="#979bc4" stroke-width="0.8" fill="none" opacity="0.7"/>
    <path d="M 50,86.49053087550485 Q 50,76.86053087550485 100,73.65053087550484 Q 150,76.86053087550485 150,86.49053087550485" fill="#3275b4" filter="url(#organic)"/>
  </g>
</svg>