<svg xmlns="http://www.w3.org/2000/svg" viewBox="0 0 200 200" width="200" height="200">
  <defs>
    <filter id="organic" x="-5%" y="-5%" width="110%" height="110%">
    <feTurbulence type="fractalNoise" baseFrequency="0.04" numOctaves="3" seed="1" result="noise"/>
    <feDisplacementMap in="SourceGraphic" in2="noise" scale="2" xChannelSelector="R" yChannelSelector="G"/>
  </filter>
  </defs>
  <g>
    <path d="M 92,113.08771114079207 Q 91,141.54385557039603 90.4,170 L 109.6,170 Q 109,141.54385557039603 108,113.08771114079207 Z" fill="#979bc4" filter="url(#organic)"/>
    <ellipse cx="100" cy="130.16139779855445" rx="12" ry="3.5999999999999996" fill="none" stroke="currentColor" stroke-width="1.5" opacity="0.6"/>
    <path d="M 60,113.08771114079207 L 58.479,123.22771114079207 M 63.47826086956522,113.08771114079207 L 62.08952173913043,123.22771114079207 M 66.95652173913044,113.08771114079207 L 65.70004347826087,123.22771114079207 M 70.43478260869566,113.08771114079207 L 69.31056521739131,123.22771114079207 M 73.91304347826087,113.08771114079207 L 72.92108695652175,123.22771114079207 M 77.3913043478261,113.08771114079207 L 76.53160869565218,123.22771114079207 M 80.86956521739131,113.08771114079207 L 80.14213043478262,123.22771114079207 M 84.34782608695653,113.08771114079207 L 83.75265217391305,123.22771114079207 M 87.82608695652173,113.08771114079207 L 87.36317391304347,123.22771114079207 M 91.30434782608695,113.08771114079207 L 90.97369565217392,123.22771114079207 M 94.78260869565219,113.08771114079207 L 94.58421739130436,123.22771114079207 M 98.2608695652174,113.08771114079207 L 98.1947391304348,123.22771114079207 M 101.73913043478261,113.08771114079207 L 101.80526086956522,123.22771114079207 M 105.21739130434783,113.08771114079207 L 105.41578260869565,123.22771114079207 M 108.69565217391306,113.08771114079207 L 109.0263043478261,123.22771114079207 M 112.17391304347827,113.08771114079207 L 112.63682608695653,123.22771114079207 M 115.65217391304347,113.08771114079207 L 116.24734782608695,123.22771114079207 M 119.13043478260869,113.08771114079207 L 119.85786956521738,123.22771114079207 M 122.6086956521739,113.08771114079207 L 123.46839130434782,123.22771114079207 M 126.08695652173913,113.08771114079207 L 127.07891304347825,123.22771114079207 M 129.56521739130437,113.08771114079207 L 130.6894347826087,123.22771114079207 M 133.04347826086956,113.08771114079207 L 134.29995652173912,123.22771114079207 M 136.5217391304348,113.08771114079207 L 137.91047826086958,123.22771114079207 M 140,113.08771114079207 L 141.521,123.22771114079207" stroke="#979bc4" stroke-width="0.8" fill="none" opacity="0.7"/>
    <path d="M 50,102.94771114079208 Q 65,113.08771114079207 100,108.01771114079207 Q 135,113.08771114079207 150,102.94771114079208" fill="#3275b4" filter="url(#organic)"/>
    <circle cx="75.0" cy="95.3" r="3" fill="white" opacity="0.85"/>
    <circle cx="115.0" cy="92.8" r="2.5" fill="white" opacity="0.85"/>
    <circle cx="95.0" cy="91.5" r="2" fill="white" opacity="0.85"/>
    <circle cx="130.0" cy="97.9" r="2" fill="white" opacity="0.85"/>
    <circle cx="70.0" cy="100.4" r="1.5" fill="white" opacity="0.85"/>
    <circle cx="105.0" cy="100.4" r="2.5" fill="white" opacity="0.85"/>
  </g>
</svg>