<svg xmlns="http://www.w3.org/2000/svg" viewBox="0 0 200 200" width="200" height="200">
  <defs>
    <filter id="organic" x="-5%" y="-5%" width="110%" height="110%">
    <feTurbulence type="fractalNoise" baseFrequency="0.04" numOctaves="3" seed="1" result="noise"/>
    <feDisplacementMap in="SourceGraphic" in2="noise" scale="2" xChannelSelector="R" yChannelSelector="G"/>
  </filter>
  </defs>
  <g>
    <path d="M 92,103.3134973137567 Q 91,136.65674865687834 90.4,170 L 109.6,170 Q 109,136.65674865687834 108,103.3134973137567 Z" fill="#a7a074" filter="url(#organic)"/>
    <ellipse cx="100" cy="123.31944811962968" rx="12" ry="3.5999999999999996" fill="none" stroke="currentColor" stroke-width="1.5" opacity="0.6"/>
    <path d="M 60,103.3134973137567 L 58.479,113.4534973137567 M 63.47826086956522,103.3134973137567 L 62.08952173913043,113.4534973137567 M 66.95652173913044,103.3134973137567 L 65.70004347826087,113.4534973137567 M 70.43478260869566,103.3134973137567 L 69.31056521739131,113.4534973137567 M 73.91304347826087,103.3134973137567 L 72.92108695652175,113.4534973137567 M 77.3913043478261,103.3134973137567 L 76.53160869565218,113.4534973137567 M 80.86956521739131,103.3134973137567 L 80.14213043478262,113.4534973137567 M 84.34782608695653,103.3134973137567 L 83.75265217391305,113.4534973137567 M 87.82608695652173,103.3134973137567 L 87.36317391304347,113.4534973137567 M 91.30434782608695,103.3134973137567 L 90.97369565217392,113.4534973137567 M 94.78260869565219,103.3134973137567 L 94.58421739130436,113.4534973137567 M 98.2608695652174,103.3134973137567 L 98.1947391304348,113.4534973137567 M 101.73913043478261,103.3134973137567 L 101.80526086956522,113.4534973137567 M 105.21739130434783,103.3134973137567 L 105.41578260869565,113.4534973137567 M 108.69565217391306,103.3134973137567 L 109.0263043478261,113.4534973137567 M 112.17391304347827,103.3134973137567 L 112.63682608695653,113.4534973137567 M 115.65217391304347,103.3134973137567 L 116.24734782608695,113.4534973137567 M 119.13043478260869,103.3134973137567 L 119.85786956521738,113.4534973137567 M 122.6086956521739,103.3134973137567 L 123.46839130434782,113.4534973137567 M 126.08695652173913,103.3134973137567 L 127.07891304347825,113.4534973137567 M 129.56521739130437,103.3134973137567 L 130.6894347826087,113.4534973137567 M 133.04347826086956,103.3134973137567 L 134.29995652173912,113.4534973137567 M 136.5217391304348,103.3134973137567 L 137.91047826086958,113.4534973137567 M 140,103.3134973137567 L 141.521,113.4534973137567" stroke="#a7a074" stroke-width="0.8" fill="none" opacity="0.7"/>
    <path d="M 50,103.3134973137567 Q 60,85.56849731375671 100,77.9634973137567 Q 140,85.56849731375671 150,103.3134973137567" fill="#9d6300" filter="url(#organic)"/>
  </g>
</svg>