<svg xmlns="http://www.w3.org/2000/svg" viewBox="0 0 200 200" width="200" height="200">
  <defs>
    <filter id="glow" x="-50%" y="-50%" width="200%" height="200%">
    <feGaussianBlur in="SourceGraphic" stdDeviation="3" result="blur"/>
    <feMerge>
      <feMergeNode in="blur"/>
      <feMergeNode in="blur"/>
      <feMergeNode in="SourceGraphic"/>
    </feMerge>
  </filter>
    <filter id="organic" x="-5%" y="-5%" width="110%" height="110%">
    <feTurbulence type="fractalNoise" baseFrequency="0.04" numOctaves="3" seed="1" result="noise"/>
    <feDisplacementMap in="SourceGraphic" in2="noise" scale="2" xChannelSelector="R" yChannelSelector="G"/>
  </filter>
  </defs>
  <g filter="url(#glow)">
    <path d="M 92,86.61927270629363 Q 91,128.3096363531468 90.4,170 L 109.6,170 Q 109,128.3096363531468 108,86.61927270629363 Z" fill="#979bc4" filter="url(#organic)"/>
    <ellipse cx="100" cy="111.63349089440554" rx="12" ry="3.5999999999999996" fill="none" stroke="currentColor" stroke-width="1.5" opacity="0.6"/>
    <path d="M 60,86.61927270629363 L 57.426,103.77927270629363 M 63.47826086956522,86.61927270629363 L 61.12808695652174,103.77927270629363 M 66.95652173913044,86.61927270629363 L 64.83017391304348,103.77927270629363 M 70.43478260869566,86.61927270629363 L 68.53226086956522,103.77927270629363 M 73.91304347826087,86.61927270629363 L 72.23434782608696,103.77927270629363 M 77.3913043478261,86.61927270629363 L 75.9364347826087,103.77927270629363 M 80.86956521739131,86.61927270629363 L 79.63852173913044,103.77927270629363 M 84.34782608695653,86.61927270629363 L 83.34060869565218,103.77927270629363 M 87.82608695652173,86.61927270629363 L 87.0426956521739,103.77927270629363 M 91.30434782608695,86.61927270629363 L 90.74478260869564,103.77927270629363 M 94.78260869565219,86.61927270629363 L 94.4468695652174,103.77927270629363 M 98.2608695652174,86.61927270629363 L 98.14895652173914,103.77927270629363 M 101.73913043478261,86.61927270629363 L 101.85104347826088,103.77927270629363 M 105.21739130434783,86.61927270629363 L 105.55313043478262,103.77927270629363 M 108.69565217391306,86.61927270629363 L 109.25521739130437,103.77927270629363 M 112.17391304347827,86.61927270629363 L 112.9573043478261,103.77927270629363 M 115.65217391304347,86.61927270629363 L 116.65939130434782,103.77927270629363 M 119.13043478260869,86.61927270629363 L 120.36147826086956,103.77927270629363 M 122.6086956521739,86.61927270629363 L 124.0635652173913,103.77927270629363 M 126.08695652173913,86.61927270629363 L 127.76565217391304,103.77927270629363 M 129.56521739130437,86.61927270629363 L 131.4677391304348,103.77927270629363 M 133.04347826086956,86.61927270629363 L 135.1698260869565,103.77927270629363 M 136.5217391304348,86.61927270629363 L 138.8719130434783,103.77927270629363 M 140,86.61927270629363 L 142.574,103.77927270629363" stroke="#979bc4" stroke-width="0.8" fill="none" opacity="0.7"/>
    <path d="M 50,69.45927270629363 Q 65,86.61927270629363 100,78.03927270629363 Q 135,86.61927270629363 150,69.45927270629363" fill="#3275b4" filter="url(#organic)"/>
  </g>
</svg>