<svg xmlns="http://www.w3.org/2000/svg" viewBox="0 0 200 200" width="200" height="200">
  <defs>
    <filter id="organic" x="-5%" y="-5%" width="110%" height="110%">
    <feTurbulence type="fractalNoise" baseFrequency="0.04" numOctaves="3" seed="1" result="noise"/>
    <feDisplacementMap in="SourceGraphic" in2="noise" scale="2" xChannelSelector="R" yChannelSelector="G"/>
  </filter>
  </defs>
  <g>
    <path d="M 94.4,94.42337061312799 Q 93.4,132.211685306564 93.28,170 L 106.72,170 Q 106.6,132.211685306564 105.6,94.42337061312799 Z" fill="#979bc4" filter="url(#organic)"/>
    <ellipse cx="100" cy="117.09635942918959" rx="8.399999999999999" ry="2.5199999999999996" fill="none" stroke="currentColor" stroke-width="1.5" opacity="0.6"/>
    <path d="M 61.959999999999994,94.42337061312799 L 60.358,105.10337061312799 M 65.58285714285714,94.42337061312799 L 64.13342857142857,105.10337061312799 M 69.20571428571428,94.42337061312799 L 67.90885714285713,105.10337061312799 M 72.82857142857142,94.42337061312799 L 71.6842857142857,105.10337061312799 M 76.45142857142856,94.42337061312799 L 75.45971428571428,105.10337061312799 M 80.07428571428571,94.42337061312799 L 79.23514285714285,105.10337061312799 M 83.69714285714285,94.42337061312799 L 83.01057142857142,105.10337061312799 M 87.32,94.42337061312799 L 86.78599999999999,105.10337061312799 M 90.94285714285714,94.42337061312799 L 90.56142857142856,105.10337061312799 M 94.56571428571428,94.42337061312799 L 94.33685714285714,105.10337061312799 M 98.18857142857142,94.42337061312799 L 98.1122857142857,105.10337061312799 M 101.81142857142858,94.42337061312799 L 101.8877142857143,105.10337061312799 M 105.4342857142857,94.42337061312799 L 105.66314285714284,105.10337061312799 M 109.05714285714286,94.42337061312799 L 109.43857142857144,105.10337061312799 M 112.68,94.42337061312799 L 113.21400000000001,105.10337061312799 M 116.30285714285714,94.42337061312799 L 116.98942857142856,105.10337061312799 M 119.92571428571428,94.42337061312799 L 120.76485714285714,105.10337061312799 M 123.54857142857144,94.42337061312799 L 124.54028571428572,105.10337061312799 M 127.17142857142858,94.42337061312799 L 128.31571428571428,105.10337061312799 M 130.7942857142857,94.42337061312799 L 132.09114285714284,105.10337061312799 M 134.41714285714284,94.42337061312799 L 135.8665714285714,105.10337061312799 M 138.04000000000002,94.42337061312799 L 139.64200000000002,105.10337061312799" stroke="#979bc4" stroke-width="0.8" fill="none" opacity="0.7"/>
    <path d="M 52.449999999999996,94.42337061312799 Q 52.449999999999996,86.41337061312798 100,83.74337061312798 Q 147.55,86.41337061312798 147.55,94.42337061312799" fill="#3275b4" filter="url(#organic)"/>
  </g>
</svg>