<svg xmlns="http://www.w3.org/2000/svg" viewBox="0 0 200 200" width="200" height="200">
  <defs>
    <filter id="organic" x="-5%" y="-5%" width="110%" height="110%">
    <feTurbulence type="fractalNoise" baseFrequency="0.04" numOctaves="3" seed="1" result="noise"/>
    <feDisplacementMap in="SourceGraphic" in2="noise" scale="2" xChannelSelector="R" yChannelSelector="G"/>
  </filter>
  </defs>
  <g>
    <path d="M 96.4,88.6888550145368 Q 95.4,129.3444275072684 95.68,170 L 104.32,170 Q 104.6,129.3444275072684 103.6,88.6888550145368 Z" fill="#979bc4" filter="url(#organic)"/>
    <ellipse cx="100" cy="113.08219851017576" rx="5.4" ry="1.62" fill="none" stroke="currentColor" stroke-width="1.5" opacity="0.6"/>
    <path d="M 71.75999999999999,88.6888550145368 L 70.23899999999999,98.8288550145368 M 76.89454545454545,88.6888550145368 L 75.6500909090909,98.8288550145368 M 82.0290909090909,88.6888550145368 L 81.06118181818181,98.8288550145368 M 87.16363636363636,88.6888550145368 L 86.47227272727272,98.8288550145368 M 92.29818181818182,88.6888550145368 L 91.88336363636364,98.8288550145368 M 97.43272727272726,88.6888550145368 L 97.29445454545454,98.8288550145368 M 102.56727272727272,88.6888550145368 L 102.70554545454544,98.8288550145368 M 107.70181818181817,88.6888550145368 L 108.11663636363635,98.8288550145368 M 112.83636363636364,88.6888550145368 L 113.52772727272728,98.8288550145368 M 117.97090909090909,88.6888550145368 L 118.93881818181818,98.8288550145368 M 123.10545454545453,88.6888550145368 L 124.34990909090908,98.8288550145368 M 128.24,88.6888550145368 L 129.761,98.8288550145368" stroke="#979bc4" stroke-width="0.8" fill="none" opacity="0.7"/>
    <path d="M 64.69999999999999,88.6888550145368 Q 64.69999999999999,81.0838550145368 100,78.5488550145368 Q 135.3,81.0838550145368 135.3,88.6888550145368" fill="#3275b4" filter="url(#organic)"/>
  </g>
</svg>