<svg xmlns="http://www.w3.org/2000/svg" viewBox="0 0 200 200" width="200" height="200">
  <defs>
    <filter id="organic" x="-5%" y="-5%" width="110%" height="110%">
    <feTurbulence type="fractalNoise" baseFrequency="0.04" numOctaves="3" seed="1" result="noise"/>
    <feDisplacementMap in="SourceGraphic" in2="noise" scale="2" xChannelSelector="R" yChannelSelector="G"/>
  </filter>
  </defs>
  <g>
    <path d="M 92,83.45609411199146 Q 91,126.72804705599573 90.4,170 L 109.6,170 Q 109,126.72804705599573 108,83.45609411199146 Z" fill="#979bc4" filter="url(#organic)"/>
    <ellipse cx="100" cy="109.41926587839401" rx="12" ry="3.5999999999999996" fill="none" stroke="currentColor" stroke-width="1.5" opacity="0.6"/>
    <path d="M 60,83.45609411199146 L 57.345,101.15609411199146 M 63.47826086956522,83.45609411199146 L 61.05413043478261,101.15609411199146 M 66.95652173913044,83.45609411199146 L 64.76326086956522,101.15609411199146 M 70.43478260869566,83.45609411199146 L 68.47239130434782,101.15609411199146 M 73.91304347826087,83.45609411199146 L 72.18152173913045,101.15609411199146 M 77.3913043478261,83.45609411199146 L 75.89065217391305,101.15609411199146 M 80.86956521739131,83.45609411199146 L 79.59978260869566,101.15609411199146 M 84.34782608695653,83.45609411199146 L 83.30891304347827,101.15609411199146 M 87.82608695652173,83.45609411199146 L 87.01804347826086,101.15609411199146 M 91.30434782608695,83.45609411199146 L 90.72717391304347,101.15609411199146 M 94.78260869565219,83.45609411199146 L 94.4363043478261,101.15609411199146 M 98.2608695652174,83.45609411199146 L 98.1454347826087,101.15609411199146 M 101.73913043478261,83.45609411199146 L 101.85456521739131,101.15609411199146 M 105.21739130434783,83.45609411199146 L 105.56369565217392,101.15609411199146 M 108.69565217391306,83.45609411199146 L 109.27282608695654,101.15609411199146 M 112.17391304347827,83.45609411199146 L 112.98195652173914,101.15609411199146 M 115.65217391304347,83.45609411199146 L 116.69108695652173,101.15609411199146 M 119.13043478260869,83.45609411199146 L 120.40021739130434,101.15609411199146 M 122.6086956521739,83.45609411199146 L 124.10934782608695,101.15609411199146 M 126.08695652173913,83.45609411199146 L 127.81847826086955,101.15609411199146 M 129.56521739130437,83.45609411199146 L 131.5276086956522,101.15609411199146 M 133.04347826086956,83.45609411199146 L 135.23673913043478,101.15609411199146 M 136.5217391304348,83.45609411199146 L 138.9458695652174,101.15609411199146 M 140,83.45609411199146 L 142.655,101.15609411199146" stroke="#979bc4" stroke-width="0.8" fill="none" opacity="0.7"/>
    <path d="M 50,65.75609411199146 Q 65,83.45609411199146 100,74.60609411199147 Q 135,83.45609411199146 150,65.75609411199146" fill="#3275b4" filter="url(#organic)"/>
  </g>
</svg>