<svg xmlns="http://www.w3.org/2000/svg" viewBox="0 0 200 200" width="200" height="200">
  <defs>
    <filter id="organic" x="-5%" y="-5%" width="110%" height="110%">
    <feTurbulence type="fractalNoise" baseFrequency="0.04" numOctaves="3" seed="1" result="noise"/>
    <feDisplacementMap in="SourceGraphic" in2="noise" scale="2" xChannelSelector="R" yChannelSelector="G"/>
  </filter>
  </defs>
  <g>
    <path d="M 92,73.21895015705798 Q 91,121.60947507852899 90.4,170 L 109.6,170 Q 109,121.60947507852899 108,73.21895015705798 Z" fill="#78a6bd" filter="url(#organic)"/>
    <ellipse cx="100" cy="102.25326510994059" rx="12" ry="3.5999999999999996" fill="none" stroke="currentColor" stroke-width="1.5" opacity="0.6"/>
    <path d="M 60,73.21895015705798 L 58.56,82.81895015705797 M 63.47826086956522,73.21895015705798 L 62.16347826086957,82.81895015705797 M 66.95652173913044,73.21895015705798 L 65.76695652173913,82.81895015705797 M 70.43478260869566,73.21895015705798 L 69.3704347826087,82.81895015705797 M 73.91304347826087,73.21895015705798 L 72.97391304347826,82.81895015705797 M 77.3913043478261,73.21895015705798 L 76.57739130434783,82.81895015705797 M 80.86956521739131,73.21895015705798 L 80.18086956521739,82.81895015705797 M 84.34782608695653,73.21895015705798 L 83.78434782608697,82.81895015705797 M 87.82608695652173,73.21895015705798 L 87.38782608695652,82.81895015705797 M 91.30434782608695,73.21895015705798 L 90.99130434782609,82.81895015705797 M 94.78260869565219,73.21895015705798 L 94.59478260869567,82.81895015705797 M 98.2608695652174,73.21895015705798 L 98.19826086956523,82.81895015705797 M 101.73913043478261,73.21895015705798 L 101.80173913043478,82.81895015705797 M 105.21739130434783,73.21895015705798 L 105.40521739130435,82.81895015705797 M 108.69565217391306,73.21895015705798 L 109.00869565217393,82.81895015705797 M 112.17391304347827,73.21895015705798 L 112.61217391304348,82.81895015705797 M 115.65217391304347,73.21895015705798 L 116.21565217391303,82.81895015705797 M 119.13043478260869,73.21895015705798 L 119.81913043478261,82.81895015705797 M 122.6086956521739,73.21895015705798 L 123.42260869565217,82.81895015705797 M 126.08695652173913,73.21895015705798 L 127.02608695652174,82.81895015705797 M 129.56521739130437,73.21895015705798 L 130.62956521739133,82.81895015705797 M 133.04347826086956,73.21895015705798 L 134.23304347826087,82.81895015705797 M 136.5217391304348,73.21895015705798 L 137.83652173913046,82.81895015705797 M 140,73.21895015705798 L 141.44,82.81895015705797" stroke="#78a6bd" stroke-width="0.8" fill="none" opacity="0.7"/>
    <path d="M 50,63.618950157057974 Q 65,73.21895015705798 100,68.41895015705798 Q 135,73.21895015705798 150,63.618950157057974" fill="#00858d" filter="url(#organic)"/>
  </g>
</svg>