<svg xmlns="http://www.w3.org/2000/svg" viewBox="0 0 200 200" width="200" height="200">
  <defs>
    <filter id="glow" x="-50%" y="-50%" width="200%" height="200%">
    <feGaussianBlur in="SourceGraphic" stdDeviation="3" result="blur"/>
    <feMerge>
      <feMergeNode in="blur"/>
      <feMergeNode in="blur"/>
      <feMergeNode in="SourceGraphic"/>
    </feMerge>
  </filter>
    <filter id="organic" x="-5%" y="-5%" width="110%" height="110%">
    <feTurbulence type="fractalNoise" baseFrequency="0.04" numOctaves="3" seed="1" result="noise"/>
    <feDisplacementMap in="SourceGraphic" in2="noise" scale="2" xChannelSelector="R" yChannelSelector="G"/>
  </filter>
  </defs>
  <g filter="url(#glow)">
    <path d="M 92.8,81.49531549557489 Q 91.8,125.74765774778744 79.264,170 L 120.736,170 Q 108.2,125.74765774778744 107.2,81.49531549557489 Z" fill="#979bc4" filter="url(#organic)"/>
    <path d="M 60,81.49531549557489 L 57.426,98.65531549557488 M 63.47826086956522,81.49531549557489 L 61.12808695652174,98.65531549557488 M 66.95652173913044,81.49531549557489 L 64.83017391304348,98.65531549557488 M 70.43478260869566,81.49531549557489 L 68.53226086956522,98.65531549557488 M 73.91304347826087,81.49531549557489 L 72.23434782608696,98.65531549557488 M 77.3913043478261,81.49531549557489 L 75.9364347826087,98.65531549557488 M 80.86956521739131,81.49531549557489 L 79.63852173913044,98.65531549557488 M 84.34782608695653,81.49531549557489 L 83.34060869565218,98.65531549557488 M 87.82608695652173,81.49531549557489 L 87.0426956521739,98.65531549557488 M 91.30434782608695,81.49531549557489 L 90.74478260869564,98.65531549557488 M 94.78260869565219,81.49531549557489 L 94.4468695652174,98.65531549557488 M 98.2608695652174,81.49531549557489 L 98.14895652173914,98.65531549557488 M 101.73913043478261,81.49531549557489 L 101.85104347826088,98.65531549557488 M 105.21739130434783,81.49531549557489 L 105.55313043478262,98.65531549557488 M 108.69565217391306,81.49531549557489 L 109.25521739130437,98.65531549557488 M 112.17391304347827,81.49531549557489 L 112.9573043478261,98.65531549557488 M 115.65217391304347,81.49531549557489 L 116.65939130434782,98.65531549557488 M 119.13043478260869,81.49531549557489 L 120.36147826086956,98.65531549557488 M 122.6086956521739,81.49531549557489 L 124.0635652173913,98.65531549557488 M 126.08695652173913,81.49531549557489 L 127.76565217391304,98.65531549557488 M 129.56521739130437,81.49531549557489 L 131.4677391304348,98.65531549557488 M 133.04347826086956,81.49531549557489 L 135.1698260869565,98.65531549557488 M 136.5217391304348,81.49531549557489 L 138.8719130434783,98.65531549557488 M 140,81.49531549557489 L 142.574,98.65531549557488" stroke="#979bc4" stroke-width="0.8" fill="none" opacity="0.7"/>
    <path d="M 50,64.33531549557489 Q 65,81.49531549557489 100,72.91531549557489 Q 135,81.49531549557489 150,64.33531549557489" fill="#3275b4" filter="url(#organic)"/>
    <circle cx="75.0" cy="51.5" r="3" fill="white" opacity="0.85"/>
    <circle cx="115.0" cy="47.2" r="2.5" fill="white" opacity="0.85"/>
    <circle cx="95.0" cy="45.0" r="2" fill="white" opacity="0.85"/>
    <circle cx="130.0" cy="55.8" r="2" fill="white" opacity="0.85"/>
    <circle cx="70.0" cy="60.0" r="1.5" fill="white" opacity="0.85"/>
    <circle cx="105.0" cy="60.0" r="2.5" fill="white" opacity="0.85"/>
  </g>
</svg>