<svg xmlns="http://www.w3.org/2000/svg" viewBox="0 0 200 200" width="200" height="200">
  <defs>
    <filter id="organic" x="-5%" y="-5%" width="110%" height="110%">
    <feTurbulence type="fractalNoise" baseFrequency="0.04" numOctaves="3" seed="1" result="noise"/>
    <feDisplacementMap in="SourceGraphic" in2="noise" scale="2" xChannelSelector="R" yChannelSelector="G"/>
  </filter>
  </defs>
  <g>
    <path d="M 95.6,106.226500438002 Q 94.6,138.113250219001 94.72,170 L 105.28,170 Q 105.4,138.113250219001 104.4,106.226500438002 Z" fill="#979bc4" filter="url(#organic)"/>
    <ellipse cx="100" cy="125.3585503066014" rx="6.6000000000000005" ry="1.98" fill="none" stroke="currentColor" stroke-width="1.5" opacity="0.6"/>
    <path d="M 67.84,106.226500438002 L 66.319,116.366500438002 M 72.128,106.226500438002 L 70.8098,116.366500438002 M 76.416,106.226500438002 L 75.3006,116.366500438002 M 80.70400000000001,106.226500438002 L 79.79140000000001,116.366500438002 M 84.992,106.226500438002 L 84.2822,116.366500438002 M 89.28,106.226500438002 L 88.773,116.366500438002 M 93.56800000000001,106.226500438002 L 93.26380000000002,116.366500438002 M 97.85600000000001,106.226500438002 L 97.75460000000001,116.366500438002 M 102.144,106.226500438002 L 102.2454,116.366500438002 M 106.43200000000002,106.226500438002 L 106.73620000000001,116.366500438002 M 110.72,106.226500438002 L 111.227,116.366500438002 M 115.00800000000001,106.226500438002 L 115.71780000000001,116.366500438002 M 119.29600000000002,106.226500438002 L 120.20860000000002,116.366500438002 M 123.584,106.226500438002 L 124.6994,116.366500438002 M 127.87200000000001,106.226500438002 L 129.1902,116.366500438002 M 132.16000000000003,106.226500438002 L 133.681,116.366500438002" stroke="#979bc4" stroke-width="0.8" fill="none" opacity="0.7"/>
    <path d="M 59.8,106.226500438002 Q 67.84,88.48150043800202 100,80.87650043800201 Q 132.16,88.48150043800202 140.2,106.226500438002" fill="#3275b4" filter="url(#organic)"/>
  </g>
</svg>