<svg xmlns="http://www.w3.org/2000/svg" viewBox="0 0 200 200" width="200" height="200">
  <defs>
    <filter id="organic" x="-5%" y="-5%" width="110%" height="110%">
    <feTurbulence type="fractalNoise" baseFrequency="0.04" numOctaves="3" seed="1" result="noise"/>
    <feDisplacementMap in="SourceGraphic" in2="noise" scale="2" xChannelSelector="R" yChannelSelector="G"/>
  </filter>
  </defs>
  <g>
    <path d="M 97.2,85.8093737321285 Q 96.2,127.90468686606425 96.64,170 L 103.36,170 Q 103.8,127.90468686606425 102.8,85.8093737321285 Z" fill="#78a6bd" filter="url(#organic)"/>
    <path d="M 75.68,85.8093737321285 L 74.24000000000001,95.4093737321285 M 82.62857142857143,85.8093737321285 L 81.60000000000001,95.4093737321285 M 89.57714285714286,85.8093737321285 L 88.96000000000001,95.4093737321285 M 96.52571428571429,85.8093737321285 L 96.32000000000001,95.4093737321285 M 103.47428571428571,85.8093737321285 L 103.67999999999999,95.4093737321285 M 110.42285714285715,85.8093737321285 L 111.04,95.4093737321285 M 117.37142857142857,85.8093737321285 L 118.39999999999999,95.4093737321285 M 124.32000000000001,85.8093737321285 L 125.76,95.4093737321285" stroke="#78a6bd" stroke-width="0.8" fill="none" opacity="0.7"/>
    <path d="M 69.6,85.8093737321285 Q 69.6,61.809373732128506 100,61.809373732128506 Q 130.4,61.809373732128506 130.4,85.8093737321285" fill="#00858d" filter="url(#organic)"/>
  </g>
</svg>