<svg xmlns="http://www.w3.org/2000/svg" viewBox="0 0 200 200" width="200" height="200">
  <defs>
    <filter id="organic" x="-5%" y="-5%" width="110%" height="110%">
    <feTurbulence type="fractalNoise" baseFrequency="0.04" numOctaves="3" seed="1" result="noise"/>
    <feDisplacementMap in="SourceGraphic" in2="noise" scale="2" xChannelSelector="R" yChannelSelector="G"/>
  </filter>
  </defs>
  <g>
    <path d="M 92,105.03741874867197 Q 91,137.51870937433597 90.4,170 L 109.6,170 Q 109,137.51870937433597 108,105.03741874867197 Z" fill="#979bc4" filter="url(#organic)"/>
    <ellipse cx="100" cy="124.52619312407037" rx="12" ry="3.5999999999999996" fill="none" stroke="currentColor" stroke-width="1.5" opacity="0.6"/>
    <path d="M 60,105.03741874867197 L 58.479,115.17741874867197 M 63.47826086956522,105.03741874867197 L 62.08952173913043,115.17741874867197 M 66.95652173913044,105.03741874867197 L 65.70004347826087,115.17741874867197 M 70.43478260869566,105.03741874867197 L 69.31056521739131,115.17741874867197 M 73.91304347826087,105.03741874867197 L 72.92108695652175,115.17741874867197 M 77.3913043478261,105.03741874867197 L 76.53160869565218,115.17741874867197 M 80.86956521739131,105.03741874867197 L 80.14213043478262,115.17741874867197 M 84.34782608695653,105.03741874867197 L 83.75265217391305,115.17741874867197 M 87.82608695652173,105.03741874867197 L 87.36317391304347,115.17741874867197 M 91.30434782608695,105.03741874867197 L 90.97369565217392,115.17741874867197 M 94.78260869565219,105.03741874867197 L 94.58421739130436,115.17741874867197 M 98.2608695652174,105.03741874867197 L 98.1947391304348,115.17741874867197 M 101.73913043478261,105.03741874867197 L 101.80526086956522,115.17741874867197 M 105.21739130434783,105.03741874867197 L 105.41578260869565,115.17741874867197 M 108.69565217391306,105.03741874867197 L 109.0263043478261,115.17741874867197 M 112.17391304347827,105.03741874867197 L 112.63682608695653,115.17741874867197 M 115.65217391304347,105.03741874867197 L 116.24734782608695,115.17741874867197 M 119.13043478260869,105.03741874867197 L 119.85786956521738,115.17741874867197 M 122.6086956521739,105.03741874867197 L 123.46839130434782,115.17741874867197 M 126.08695652173913,105.03741874867197 L 127.07891304347825,115.17741874867197 M 129.56521739130437,105.03741874867197 L 130.6894347826087,115.17741874867197 M 133.04347826086956,105.03741874867197 L 134.29995652173912,115.17741874867197 M 136.5217391304348,105.03741874867197 L 137.91047826086958,115.17741874867197 M 140,105.03741874867197 L 141.521,115.17741874867197" stroke="#979bc4" stroke-width="0.8" fill="none" opacity="0.7"/>
    <path d="M 50,105.03741874867197 Q 60,87.29241874867198 100,79.68741874867197 Q 140,87.29241874867198 150,105.03741874867197" fill="#3275b4" filter="url(#organic)"/>
  </g>
</svg>