<svg xmlns="http://www.w3.org/2000/svg" viewBox="0 0 200 200" width="200" height="200">
  <defs>
    <filter id="organic" x="-5%" y="-5%" width="110%" height="110%">
    <feTurbulence type="fractalNoise" baseFrequency="0.04" numOctaves="3" seed="1" result="noise"/>
    <feDisplacementMap in="SourceGraphic" in2="noise" scale="2" xChannelSelector="R" yChannelSelector="G"/>
  </filter>
  </defs>
  <g>
    <path d="M 96,77.78480835143537 Q 95,123.89240417571769 95.2,170 L 104.8,170 Q 105,123.89240417571769 104,77.78480835143537 Z" fill="#979bc4" filter="url(#organic)"/>
    <path d="M 69.8,77.78480835143537 L 66.2,101.78480835143537 M 74.44615384615385,77.78480835143537 L 71.4,101.78480835143537 M 79.09230769230768,77.78480835143537 L 76.6,101.78480835143537 M 83.73846153846154,77.78480835143537 L 81.8,101.78480835143537 M 88.38461538461539,77.78480835143537 L 87,101.78480835143537 M 93.03076923076924,77.78480835143537 L 92.2,101.78480835143537 M 97.67692307692307,77.78480835143537 L 97.39999999999999,101.78480835143537 M 102.32307692307691,77.78480835143537 L 102.6,101.78480835143537 M 106.96923076923076,77.78480835143537 L 107.8,101.78480835143537 M 111.61538461538461,77.78480835143537 L 113,101.78480835143537 M 116.26153846153846,77.78480835143537 L 118.2,101.78480835143537 M 120.90769230769232,77.78480835143537 L 123.4,101.78480835143537 M 125.55384615384615,77.78480835143537 L 128.6,101.78480835143537 M 130.2,77.78480835143537 L 133.79999999999998,101.78480835143537" stroke="#979bc4" stroke-width="0.8" fill="none" opacity="0.7"/>
    <path d="M 62.25,77.78480835143537 Q 62.25,53.78480835143537 88.675,41.78480835143537 L 100,17.784808351435373 L 111.325,41.78480835143537 Q 137.75,53.78480835143537 137.75,77.78480835143537" fill="#3275b4" filter="url(#organic)"/>
  </g>
</svg>