<svg xmlns="http://www.w3.org/2000/svg" viewBox="0 0 200 200" width="200" height="200">
  <defs>
    <filter id="organic" x="-5%" y="-5%" width="110%" height="110%">
    <feTurbulence type="fractalNoise" baseFrequency="0.04" numOctaves="3" seed="1" result="noise"/>
    <feDisplacementMap in="SourceGraphic" in2="noise" scale="2" xChannelSelector="R" yChannelSelector="G"/>
  </filter>
  </defs>
  <g>
    <path d="M 92,95.42339624040025 Q 91,132.71169812020014 90.4,170 L 109.6,170 Q 109,132.71169812020014 108,95.42339624040025 Z" fill="#a7a074" filter="url(#organic)"/>
    <ellipse cx="100" cy="117.79637736828018" rx="12" ry="3.5999999999999996" fill="none" stroke="currentColor" stroke-width="1.5" opacity="0.6"/>
    <path d="M 60,95.42339624040025 L 58.398,106.10339624040026 M 63.47826086956522,95.42339624040025 L 62.015565217391305,106.10339624040026 M 66.95652173913044,95.42339624040025 L 65.63313043478261,106.10339624040026 M 70.43478260869566,95.42339624040025 L 69.25069565217392,106.10339624040026 M 73.91304347826087,95.42339624040025 L 72.86826086956522,106.10339624040026 M 77.3913043478261,95.42339624040025 L 76.48582608695652,106.10339624040026 M 80.86956521739131,95.42339624040025 L 80.10339130434784,106.10339624040026 M 84.34782608695653,95.42339624040025 L 83.72095652173914,106.10339624040026 M 87.82608695652173,95.42339624040025 L 87.33852173913043,106.10339624040026 M 91.30434782608695,95.42339624040025 L 90.95608695652173,106.10339624040026 M 94.78260869565219,95.42339624040025 L 94.57365217391306,106.10339624040026 M 98.2608695652174,95.42339624040025 L 98.19121739130436,106.10339624040026 M 101.73913043478261,95.42339624040025 L 101.80878260869565,106.10339624040026 M 105.21739130434783,95.42339624040025 L 105.42634782608695,106.10339624040026 M 108.69565217391306,95.42339624040025 L 109.04391304347828,106.10339624040026 M 112.17391304347827,95.42339624040025 L 112.66147826086957,106.10339624040026 M 115.65217391304347,95.42339624040025 L 116.27904347826086,106.10339624040026 M 119.13043478260869,95.42339624040025 L 119.89660869565216,106.10339624040026 M 122.6086956521739,95.42339624040025 L 123.51417391304348,106.10339624040026 M 126.08695652173913,95.42339624040025 L 127.13173913043478,106.10339624040026 M 129.56521739130437,95.42339624040025 L 130.74930434782613,106.10339624040026 M 133.04347826086956,95.42339624040025 L 134.3668695652174,106.10339624040026 M 136.5217391304348,95.42339624040025 L 137.98443478260873,106.10339624040026 M 140,95.42339624040025 L 141.602,106.10339624040026" stroke="#a7a074" stroke-width="0.8" fill="none" opacity="0.7"/>
    <path d="M 50,95.42339624040025 Q 50,87.41339624040025 100,84.74339624040024 Q 150,87.41339624040025 150,95.42339624040025" fill="#9d6300" filter="url(#organic)"/>
  </g>
</svg>