<svg xmlns="http://www.w3.org/2000/svg" viewBox="0 0 200 200" width="200" height="200">
  <defs>
    <filter id="organic" x="-5%" y="-5%" width="110%" height="110%">
    <feTurbulence type="fractalNoise" baseFrequency="0.04" numOctaves="3" seed="1" result="noise"/>
    <feDisplacementMap in="SourceGraphic" in2="noise" scale="2" xChannelSelector="R" yChannelSelector="G"/>
  </filter>
  </defs>
  <g>
    <path d="M 95.6,95.88298770576165 Q 94.6,132.94149385288082 94.72,170 L 105.28,170 Q 105.4,132.94149385288082 104.4,95.88298770576165 Z" fill="#979bc4" filter="url(#organic)"/>
    <ellipse cx="100" cy="118.11809139403316" rx="6.6000000000000005" ry="1.98" fill="none" stroke="currentColor" stroke-width="1.5" opacity="0.6"/>
    <path d="M 67.84,95.88298770576165 L 66.319,106.02298770576165 M 72.128,95.88298770576165 L 70.8098,106.02298770576165 M 76.416,95.88298770576165 L 75.3006,106.02298770576165 M 80.70400000000001,95.88298770576165 L 79.79140000000001,106.02298770576165 M 84.992,95.88298770576165 L 84.2822,106.02298770576165 M 89.28,95.88298770576165 L 88.773,106.02298770576165 M 93.56800000000001,95.88298770576165 L 93.26380000000002,106.02298770576165 M 97.85600000000001,95.88298770576165 L 97.75460000000001,106.02298770576165 M 102.144,95.88298770576165 L 102.2454,106.02298770576165 M 106.43200000000002,95.88298770576165 L 106.73620000000001,106.02298770576165 M 110.72,95.88298770576165 L 111.227,106.02298770576165 M 115.00800000000001,95.88298770576165 L 115.71780000000001,106.02298770576165 M 119.29600000000002,95.88298770576165 L 120.20860000000002,106.02298770576165 M 123.584,95.88298770576165 L 124.6994,106.02298770576165 M 127.87200000000001,95.88298770576165 L 129.1902,106.02298770576165 M 132.16000000000003,95.88298770576165 L 133.681,106.02298770576165" stroke="#979bc4" stroke-width="0.8" fill="none" opacity="0.7"/>
    <path d="M 59.8,95.88298770576165 Q 59.8,88.27798770576166 100,85.74298770576166 Q 140.2,88.27798770576166 140.2,95.88298770576165" fill="#3275b4" filter="url(#organic)"/>
    <circle cx="79.9" cy="78.1" r="3" fill="white" opacity="0.85"/>
    <circle cx="112.1" cy="75.6" r="2.5" fill="white" opacity="0.85"/>
    <circle cx="96.0" cy="74.3" r="2" fill="white" opacity="0.85"/>
    <circle cx="124.1" cy="80.7" r="2" fill="white" opacity="0.85"/>
    <circle cx="75.9" cy="83.2" r="1.5" fill="white" opacity="0.85"/>
    <circle cx="104.0" cy="83.2" r="2.5" fill="white" opacity="0.85"/>
  </g>
</svg>