<svg xmlns="http://www.w3.org/2000/svg" viewBox="0 0 200 200" width="200" height="200">
  <defs>
    <filter id="organic" x="-5%" y="-5%" width="110%" height="110%">
    <feTurbulence type="fractalNoise" baseFrequency="0.04" numOctaves="3" seed="1" result="noise"/>
    <feDisplacementMap in="SourceGraphic" in2="noise" scale="2" xChannelSelector="R" yChannelSelector="G"/>
  </filter>
  </defs>
  <g>
    <path d="M 96.8,85.74958822809238 Q 95.8,127.87479411404618 96.16,170 L 103.84,170 Q 104.2,127.87479411404618 103.2,85.74958822809238 Z" fill="#979bc4" filter="url(#organic)"/>
    <ellipse cx="100" cy="111.02471175966467" rx="4.800000000000001" ry="1.4400000000000002" fill="none" stroke="currentColor" stroke-width="1.5" opacity="0.6"/>
    <path d="M 73.72,85.74958822809238 L 72.118,96.42958822809238 M 79.56,85.74958822809238 L 78.31400000000001,96.42958822809238 M 85.4,85.74958822809238 L 84.51,96.42958822809238 M 91.24,85.74958822809238 L 90.70599999999999,96.42958822809238 M 97.08,85.74958822809238 L 96.902,96.42958822809238 M 102.92,85.74958822809238 L 103.098,96.42958822809238 M 108.75999999999999,85.74958822809238 L 109.294,96.42958822809238 M 114.6,85.74958822809238 L 115.49,96.42958822809238 M 120.44,85.74958822809238 L 121.68599999999999,96.42958822809238 M 126.28,85.74958822809238 L 127.882,96.42958822809238" stroke="#979bc4" stroke-width="0.8" fill="none" opacity="0.7"/>
    <path d="M 67.15,85.74958822809238 Q 67.15,59.049588228092375 100,59.049588228092375 Q 132.85,59.049588228092375 132.85,85.74958822809238" fill="#3275b4" filter="url(#organic)"/>
  </g>
</svg>