<svg xmlns="http://www.w3.org/2000/svg" viewBox="0 0 200 200" width="200" height="200">
  <defs>
    <filter id="organic" x="-5%" y="-5%" width="110%" height="110%">
    <feTurbulence type="fractalNoise" baseFrequency="0.04" numOctaves="3" seed="1" result="noise"/>
    <feDisplacementMap in="SourceGraphic" in2="noise" scale="2" xChannelSelector="R" yChannelSelector="G"/>
  </filter>
  </defs>
  <g>
    <path d="M 92,76.45023811185098 Q 91,123.22511905592549 90.4,170 L 109.6,170 Q 109,123.22511905592549 108,76.45023811185098 Z" fill="#979bc4" filter="url(#organic)"/>
    <path d="M 60,76.45023811185098 L 58.317,87.67023811185098 M 63.47826086956522,76.45023811185098 L 61.94160869565218,87.67023811185098 M 66.95652173913044,76.45023811185098 L 65.56621739130435,87.67023811185098 M 70.43478260869566,76.45023811185098 L 69.19082608695652,87.67023811185098 M 73.91304347826087,76.45023811185098 L 72.8154347826087,87.67023811185098 M 77.3913043478261,76.45023811185098 L 76.44004347826088,87.67023811185098 M 80.86956521739131,76.45023811185098 L 80.06465217391305,87.67023811185098 M 84.34782608695653,76.45023811185098 L 83.68926086956523,87.67023811185098 M 87.82608695652173,76.45023811185098 L 87.31386956521739,87.67023811185098 M 91.30434782608695,76.45023811185098 L 90.93847826086956,87.67023811185098 M 94.78260869565219,76.45023811185098 L 94.56308695652176,87.67023811185098 M 98.2608695652174,76.45023811185098 L 98.18769565217393,87.67023811185098 M 101.73913043478261,76.45023811185098 L 101.81230434782609,87.67023811185098 M 105.21739130434783,76.45023811185098 L 105.43691304347826,87.67023811185098 M 108.69565217391306,76.45023811185098 L 109.06152173913046,87.67023811185098 M 112.17391304347827,76.45023811185098 L 112.68613043478261,87.67023811185098 M 115.65217391304347,76.45023811185098 L 116.31073913043477,87.67023811185098 M 119.13043478260869,76.45023811185098 L 119.93534782608695,87.67023811185098 M 122.6086956521739,76.45023811185098 L 123.55995652173912,87.67023811185098 M 126.08695652173913,76.45023811185098 L 127.1845652173913,87.67023811185098 M 129.56521739130437,76.45023811185098 L 130.8091739130435,87.67023811185098 M 133.04347826086956,76.45023811185098 L 134.43378260869565,87.67023811185098 M 136.5217391304348,76.45023811185098 L 138.05839130434785,87.67023811185098 M 140,76.45023811185098 L 141.683,87.67023811185098" stroke="#979bc4" stroke-width="0.8" fill="none" opacity="0.7"/>
    <path d="M 50,76.45023811185098 Q 50,68.03523811185099 100,65.23023811185098 Q 150,68.03523811185099 150,76.45023811185098" fill="#3275b4" filter="url(#organic)"/>
  </g>
</svg>