<svg xmlns="http://www.w3.org/2000/svg" viewBox="0 0 200 200" width="200" height="200">
  <defs>
    <filter id="organic" x="-5%" y="-5%" width="110%" height="110%">
    <feTurbulence type="fractalNoise" baseFrequency="0.04" numOctaves="3" seed="1" result="noise"/>
    <feDisplacementMap in="SourceGraphic" in2="noise" scale="2" xChannelSelector="R" yChannelSelector="G"/>
  </filter>
  </defs>
  <g>
    <path d="M 95.2,91.37090525684931 Q 94.2,130.68545262842466 94.24,170 L 105.76,170 Q 105.8,130.68545262842466 104.8,91.37090525684931 Z" fill="#71a9b3" filter="url(#organic)"/>
    <ellipse cx="100" cy="114.95963367979452" rx="7.199999999999999" ry="2.1599999999999997" fill="none" stroke="currentColor" stroke-width="1.5" opacity="0.6"/>
    <path d="M 65.88,91.37090525684931 L 64.44,100.9709052568493 M 69.89411764705882,91.37090525684931 L 68.62352941176471,100.9709052568493 M 73.90823529411765,91.37090525684931 L 72.80705882352942,100.9709052568493 M 77.92235294117647,91.37090525684931 L 76.99058823529411,100.9709052568493 M 81.9364705882353,91.37090525684931 L 81.17411764705882,100.9709052568493 M 85.95058823529412,91.37090525684931 L 85.35764705882353,100.9709052568493 M 89.96470588235294,91.37090525684931 L 89.54117647058824,100.9709052568493 M 93.97882352941176,91.37090525684931 L 93.72470588235294,100.9709052568493 M 97.9929411764706,91.37090525684931 L 97.90823529411766,100.9709052568493 M 102.0070588235294,91.37090525684931 L 102.09176470588234,100.9709052568493 M 106.02117647058824,91.37090525684931 L 106.27529411764706,100.9709052568493 M 110.03529411764706,91.37090525684931 L 110.45882352941176,100.9709052568493 M 114.0494117647059,91.37090525684931 L 114.64235294117648,100.9709052568493 M 118.0635294117647,91.37090525684931 L 118.82588235294118,100.9709052568493 M 122.07764705882353,91.37090525684931 L 123.00941176470589,100.9709052568493 M 126.09176470588235,91.37090525684931 L 127.19294117647058,100.9709052568493 M 130.1058823529412,91.37090525684931 L 131.37647058823532,100.9709052568493 M 134.12,91.37090525684931 L 135.56,100.9709052568493" stroke="#71a9b3" stroke-width="0.8" fill="none" opacity="0.7"/>
    <path d="M 57.349999999999994,91.37090525684931 Q 57.349999999999994,84.17090525684931 100,81.77090525684932 Q 142.65,84.17090525684931 142.65,91.37090525684931" fill="#008774" filter="url(#organic)"/>
  </g>
</svg>