<svg xmlns="http://www.w3.org/2000/svg" viewBox="0 0 200 200" width="200" height="200">
  <defs>
    <filter id="organic" x="-5%" y="-5%" width="110%" height="110%">
    <feTurbulence type="fractalNoise" baseFrequency="0.04" numOctaves="3" seed="1" result="noise"/>
    <feDisplacementMap in="SourceGraphic" in2="noise" scale="2" xChannelSelector="R" yChannelSelector="G"/>
  </filter>
  </defs>
  <g>
    <path d="M 96.4,73.03989585325431 Q 95.4,121.51994792662715 95.68,170 L 104.32,170 Q 104.6,121.51994792662715 103.6,73.03989585325431 Z" fill="#78a6bd" filter="url(#organic)"/>
    <ellipse cx="100" cy="102.12792709727802" rx="5.4" ry="1.62" fill="none" stroke="currentColor" stroke-width="1.5" opacity="0.6"/>
    <path d="M 71.75999999999999,73.03989585325431 L 70.32,82.6398958532543 M 76.89454545454545,73.03989585325431 L 75.71636363636364,82.6398958532543 M 82.0290909090909,73.03989585325431 L 81.11272727272726,82.6398958532543 M 87.16363636363636,73.03989585325431 L 86.5090909090909,82.6398958532543 M 92.29818181818182,73.03989585325431 L 91.90545454545455,82.6398958532543 M 97.43272727272726,73.03989585325431 L 97.30181818181818,82.6398958532543 M 102.56727272727272,73.03989585325431 L 102.69818181818181,82.6398958532543 M 107.70181818181817,73.03989585325431 L 108.09454545454544,82.6398958532543 M 112.83636363636364,73.03989585325431 L 113.4909090909091,82.6398958532543 M 117.97090909090909,73.03989585325431 L 118.88727272727273,82.6398958532543 M 123.10545454545453,73.03989585325431 L 124.28363636363635,82.6398958532543 M 128.24,73.03989585325431 L 129.68,82.6398958532543" stroke="#78a6bd" stroke-width="0.8" fill="none" opacity="0.7"/>
    <path d="M 64.69999999999999,73.03989585325431 Q 64.69999999999999,65.8398958532543 100,63.439895853254306 Q 135.3,65.8398958532543 135.3,73.03989585325431" fill="#00858d" filter="url(#organic)"/>
  </g>
</svg>