<svg xmlns="http://www.w3.org/2000/svg" viewBox="0 0 200 200" width="200" height="200">
  <defs>
    <filter id="organic" x="-5%" y="-5%" width="110%" height="110%">
    <feTurbulence type="fractalNoise" baseFrequency="0.04" numOctaves="3" seed="1" result="noise"/>
    <feDisplacementMap in="SourceGraphic" in2="noise" scale="2" xChannelSelector="R" yChannelSelector="G"/>
  </filter>
  </defs>
  <g>
    <path d="M 95.2,91.16912350788274 Q 94.2,130.5845617539414 94.24,170 L 105.76,170 Q 105.8,130.5845617539414 104.8,91.16912350788274 Z" fill="#979bc4" filter="url(#organic)"/>
    <ellipse cx="100" cy="114.81838645551792" rx="7.199999999999999" ry="2.1599999999999997" fill="none" stroke="currentColor" stroke-width="1.5" opacity="0.6"/>
    <path d="M 65.88,91.16912350788274 L 64.27799999999999,101.84912350788275 M 69.89411764705882,91.16912350788274 L 68.48058823529412,101.84912350788275 M 73.90823529411765,91.16912350788274 L 72.68317647058824,101.84912350788275 M 77.92235294117647,91.16912350788274 L 76.88576470588235,101.84912350788275 M 81.9364705882353,91.16912350788274 L 81.08835294117647,101.84912350788275 M 85.95058823529412,91.16912350788274 L 85.2909411764706,101.84912350788275 M 89.96470588235294,91.16912350788274 L 89.49352941176471,101.84912350788275 M 93.97882352941176,91.16912350788274 L 93.69611764705881,101.84912350788275 M 97.9929411764706,91.16912350788274 L 97.89870588235294,101.84912350788275 M 102.0070588235294,91.16912350788274 L 102.10129411764706,101.84912350788275 M 106.02117647058824,91.16912350788274 L 106.30388235294119,101.84912350788275 M 110.03529411764706,91.16912350788274 L 110.50647058823529,101.84912350788275 M 114.0494117647059,91.16912350788274 L 114.70905882352942,101.84912350788275 M 118.0635294117647,91.16912350788274 L 118.91164705882353,101.84912350788275 M 122.07764705882353,91.16912350788274 L 123.11423529411765,101.84912350788275 M 126.09176470588235,91.16912350788274 L 127.31682352941176,101.84912350788275 M 130.1058823529412,91.16912350788274 L 131.5194117647059,101.84912350788275 M 134.12,91.16912350788274 L 135.722,101.84912350788275" stroke="#979bc4" stroke-width="0.8" fill="none" opacity="0.7"/>
    <path d="M 57.349999999999994,91.16912350788274 Q 57.349999999999994,83.15912350788274 100,80.48912350788274 Q 142.65,83.15912350788274 142.65,91.16912350788274" fill="#3275b4" filter="url(#organic)"/>
    <circle cx="78.7" cy="72.5" r="3" fill="white" opacity="0.85"/>
    <circle cx="112.8" cy="69.8" r="2.5" fill="white" opacity="0.85"/>
    <circle cx="95.7" cy="68.5" r="2" fill="white" opacity="0.85"/>
    <circle cx="125.6" cy="75.1" r="2" fill="white" opacity="0.85"/>
    <circle cx="74.4" cy="77.8" r="1.5" fill="white" opacity="0.85"/>
    <circle cx="104.3" cy="77.8" r="2.5" fill="white" opacity="0.85"/>
  </g>
</svg>