<svg xmlns="http://www.w3.org/2000/svg" viewBox="0 0 200 200" width="200" height="200">
  <defs>
    <filter id="organic" x="-5%" y="-5%" width="110%" height="110%">
    <feTurbulence type="fractalNoise" baseFrequency="0.04" numOctaves="3" seed="1" result="noise"/>
    <feDisplacementMap in="SourceGraphic" in2="noise" scale="2" xChannelSelector="R" yChannelSelector="G"/>
  </filter>
  </defs>
  <g>
    <path d="M 92,77.67377739395673 Q 91,123.83688869697836 90.4,170 L 109.6,170 Q 109,123.83688869697836 108,77.67377739395673 Z" fill="#bc957b" filter="url(#organic)"/>
    <path d="M 60,77.67377739395673 L 58.56,87.27377739395672 M 63.47826086956522,77.67377739395673 L 62.16347826086957,87.27377739395672 M 66.95652173913044,77.67377739395673 L 65.76695652173913,87.27377739395672 M 70.43478260869566,77.67377739395673 L 69.3704347826087,87.27377739395672 M 73.91304347826087,77.67377739395673 L 72.97391304347826,87.27377739395672 M 77.3913043478261,77.67377739395673 L 76.57739130434783,87.27377739395672 M 80.86956521739131,77.67377739395673 L 80.18086956521739,87.27377739395672 M 84.34782608695653,77.67377739395673 L 83.78434782608697,87.27377739395672 M 87.82608695652173,77.67377739395673 L 87.38782608695652,87.27377739395672 M 91.30434782608695,77.67377739395673 L 90.99130434782609,87.27377739395672 M 94.78260869565219,77.67377739395673 L 94.59478260869567,87.27377739395672 M 98.2608695652174,77.67377739395673 L 98.19826086956523,87.27377739395672 M 101.73913043478261,77.67377739395673 L 101.80173913043478,87.27377739395672 M 105.21739130434783,77.67377739395673 L 105.40521739130435,87.27377739395672 M 108.69565217391306,77.67377739395673 L 109.00869565217393,87.27377739395672 M 112.17391304347827,77.67377739395673 L 112.61217391304348,87.27377739395672 M 115.65217391304347,77.67377739395673 L 116.21565217391303,87.27377739395672 M 119.13043478260869,77.67377739395673 L 119.81913043478261,87.27377739395672 M 122.6086956521739,77.67377739395673 L 123.42260869565217,87.27377739395672 M 126.08695652173913,77.67377739395673 L 127.02608695652174,87.27377739395672 M 129.56521739130437,77.67377739395673 L 130.62956521739133,87.27377739395672 M 133.04347826086956,77.67377739395673 L 134.23304347826087,87.27377739395672 M 136.5217391304348,77.67377739395673 L 137.83652173913046,87.27377739395672 M 140,77.67377739395673 L 141.44,87.27377739395672" stroke="#bc957b" stroke-width="0.8" fill="none" opacity="0.7"/>
    <path d="M 50,77.67377739395673 Q 50,70.47377739395672 100,68.07377739395673 Q 150,70.47377739395672 150,77.67377739395673" fill="#ad524d" filter="url(#organic)"/>
  </g>
</svg>