<svg xmlns="http://www.w3.org/2000/svg" viewBox="0 0 200 200" width="200" height="200">
  <defs>
    <filter id="organic" x="-5%" y="-5%" width="110%" height="110%">
    <feTurbulence type="fractalNoise" baseFrequency="0.04" numOctaves="3" seed="1" result="noise"/>
    <feDisplacementMap in="SourceGraphic" in2="noise" scale="2" xChannelSelector="R" yChannelSelector="G"/>
  </filter>
  </defs>
  <g>
    <path d="M 96.8,128.47299999475524 Q 95.8,149.23649999737762 96.16,170 L 103.84,170 Q 104.2,149.23649999737762 103.2,128.47299999475524 Z" fill="#b59a75" filter="url(#organic)"/>
    <ellipse cx="100" cy="140.93109999632867" rx="4.800000000000001" ry="1.4400000000000002" fill="none" stroke="currentColor" stroke-width="1.5" opacity="0.6"/>
    <path d="M 73.72,128.47299999475524 L 72.28,138.07299999475524 M 79.56,128.47299999475524 L 78.44,138.07299999475524 M 85.4,128.47299999475524 L 84.60000000000001,138.07299999475524 M 91.24,128.47299999475524 L 90.75999999999999,138.07299999475524 M 97.08,128.47299999475524 L 96.92,138.07299999475524 M 102.92,128.47299999475524 L 103.08,138.07299999475524 M 108.75999999999999,128.47299999475524 L 109.24,138.07299999475524 M 114.6,128.47299999475524 L 115.39999999999999,138.07299999475524 M 120.44,128.47299999475524 L 121.56,138.07299999475524 M 126.28,128.47299999475524 L 127.72,138.07299999475524" stroke="#b59a75" stroke-width="0.8" fill="none" opacity="0.7"/>
    <path d="M 67.15,128.47299999475524 Q 73.72,111.67299999475524 100,104.47299999475524 Q 126.28,111.67299999475524 132.85,128.47299999475524" fill="#aa5830" filter="url(#organic)"/>
  </g>
</svg>