<svg xmlns="http://www.w3.org/2000/svg" viewBox="0 0 200 200" width="200" height="200">
  <defs>
    <filter id="organic" x="-5%" y="-5%" width="110%" height="110%">
    <feTurbulence type="fractalNoise" baseFrequency="0.04" numOctaves="3" seed="1" result="noise"/>
    <feDisplacementMap in="SourceGraphic" in2="noise" scale="2" xChannelSelector="R" yChannelSelector="G"/>
  </filter>
  </defs>
  <g>
    <path d="M 92,116.94599998951045 Q 91,143.47299999475524 90.4,170 L 109.6,170 Q 109,143.47299999475524 108,116.94599998951045 Z" fill="#979bc4" filter="url(#organic)"/>
    <ellipse cx="100" cy="132.8621999926573" rx="12" ry="3.5999999999999996" fill="none" stroke="currentColor" stroke-width="1.5" opacity="0.6"/>
    <path d="M 60,116.94599998951045 L 58.479,127.08599998951046 M 63.47826086956522,116.94599998951045 L 62.08952173913043,127.08599998951046 M 66.95652173913044,116.94599998951045 L 65.70004347826087,127.08599998951046 M 70.43478260869566,116.94599998951045 L 69.31056521739131,127.08599998951046 M 73.91304347826087,116.94599998951045 L 72.92108695652175,127.08599998951046 M 77.3913043478261,116.94599998951045 L 76.53160869565218,127.08599998951046 M 80.86956521739131,116.94599998951045 L 80.14213043478262,127.08599998951046 M 84.34782608695653,116.94599998951045 L 83.75265217391305,127.08599998951046 M 87.82608695652173,116.94599998951045 L 87.36317391304347,127.08599998951046 M 91.30434782608695,116.94599998951045 L 90.97369565217392,127.08599998951046 M 94.78260869565219,116.94599998951045 L 94.58421739130436,127.08599998951046 M 98.2608695652174,116.94599998951045 L 98.1947391304348,127.08599998951046 M 101.73913043478261,116.94599998951045 L 101.80526086956522,127.08599998951046 M 105.21739130434783,116.94599998951045 L 105.41578260869565,127.08599998951046 M 108.69565217391306,116.94599998951045 L 109.0263043478261,127.08599998951046 M 112.17391304347827,116.94599998951045 L 112.63682608695653,127.08599998951046 M 115.65217391304347,116.94599998951045 L 116.24734782608695,127.08599998951046 M 119.13043478260869,116.94599998951045 L 119.85786956521738,127.08599998951046 M 122.6086956521739,116.94599998951045 L 123.46839130434782,127.08599998951046 M 126.08695652173913,116.94599998951045 L 127.07891304347825,127.08599998951046 M 129.56521739130437,116.94599998951045 L 130.6894347826087,127.08599998951046 M 133.04347826086956,116.94599998951045 L 134.29995652173912,127.08599998951046 M 136.5217391304348,116.94599998951045 L 137.91047826086958,127.08599998951046 M 140,116.94599998951045 L 141.521,127.08599998951046" stroke="#979bc4" stroke-width="0.8" fill="none" opacity="0.7"/>
    <path d="M 50,106.80599998951047 Q 65,116.94599998951045 100,111.87599998951046 Q 135,116.94599998951045 150,106.80599998951047" fill="#3275b4" filter="url(#organic)"/>
    <circle cx="75.0" cy="99.2" r="3" fill="white" opacity="0.85"/>
    <circle cx="115.0" cy="96.7" r="2.5" fill="white" opacity="0.85"/>
    <circle cx="95.0" cy="95.4" r="2" fill="white" opacity="0.85"/>
    <circle cx="130.0" cy="101.7" r="2" fill="white" opacity="0.85"/>
    <circle cx="70.0" cy="104.3" r="1.5" fill="white" opacity="0.85"/>
    <circle cx="105.0" cy="104.3" r="2.5" fill="white" opacity="0.85"/>
  </g>
</svg>