<svg xmlns="http://www.w3.org/2000/svg" viewBox="0 0 200 200" width="200" height="200">
  <defs>
    <filter id="organic" x="-5%" y="-5%" width="110%" height="110%">
    <feTurbulence type="fractalNoise" baseFrequency="0.04" numOctaves="3" seed="1" result="noise"/>
    <feDisplacementMap in="SourceGraphic" in2="noise" scale="2" xChannelSelector="R" yChannelSelector="G"/>
  </filter>
  </defs>
  <g>
    <path d="M 96.8,105.41899998426568 Q 95.8,137.70949999213283 96.16,170 L 103.84,170 Q 104.2,137.70949999213283 103.2,105.41899998426568 Z" fill="#979bc4" filter="url(#organic)"/>
    <ellipse cx="100" cy="124.79329998898598" rx="4.800000000000001" ry="1.4400000000000002" fill="none" stroke="currentColor" stroke-width="1.5" opacity="0.6"/>
    <path d="M 73.72,105.41899998426568 L 72.199,115.55899998426568 M 79.56,105.41899998426568 L 78.377,115.55899998426568 M 85.4,105.41899998426568 L 84.555,115.55899998426568 M 91.24,105.41899998426568 L 90.73299999999999,115.55899998426568 M 97.08,105.41899998426568 L 96.911,115.55899998426568 M 102.92,105.41899998426568 L 103.089,115.55899998426568 M 108.75999999999999,105.41899998426568 L 109.267,115.55899998426568 M 114.6,105.41899998426568 L 115.445,115.55899998426568 M 120.44,105.41899998426568 L 121.62299999999999,115.55899998426568 M 126.28,105.41899998426568 L 127.801,115.55899998426568" stroke="#979bc4" stroke-width="0.8" fill="none" opacity="0.7"/>
    <path d="M 67.15,105.41899998426567 Q 73.72,87.67399998426568 100,80.06899998426567 Q 126.28,87.67399998426568 132.85,105.41899998426567" fill="#3275b4" filter="url(#organic)"/>
  </g>
</svg>