<svg xmlns="http://www.w3.org/2000/svg" viewBox="0 0 200 200" width="200" height="200">
  <defs>
    <filter id="organic" x="-5%" y="-5%" width="110%" height="110%">
    <feTurbulence type="fractalNoise" baseFrequency="0.04" numOctaves="3" seed="1" result="noise"/>
    <feDisplacementMap in="SourceGraphic" in2="noise" scale="2" xChannelSelector="R" yChannelSelector="G"/>
  </filter>
  </defs>
  <g>
    <path d="M 92,91.57664376180513 Q 91,130.78832188090257 90.4,170 L 109.6,170 Q 109,130.78832188090257 108,91.57664376180513 Z" fill="#a496bf" filter="url(#organic)"/>
    <ellipse cx="100" cy="115.10365063326358" rx="12" ry="3.5999999999999996" fill="none" stroke="currentColor" stroke-width="1.5" opacity="0.6"/>
    <path d="M 60,91.57664376180513 L 58.56,101.17664376180514 M 63.47826086956522,91.57664376180513 L 62.16347826086957,101.17664376180514 M 66.95652173913044,91.57664376180513 L 65.76695652173913,101.17664376180514 M 70.43478260869566,91.57664376180513 L 69.3704347826087,101.17664376180514 M 73.91304347826087,91.57664376180513 L 72.97391304347826,101.17664376180514 M 77.3913043478261,91.57664376180513 L 76.57739130434783,101.17664376180514 M 80.86956521739131,91.57664376180513 L 80.18086956521739,101.17664376180514 M 84.34782608695653,91.57664376180513 L 83.78434782608697,101.17664376180514 M 87.82608695652173,91.57664376180513 L 87.38782608695652,101.17664376180514 M 91.30434782608695,91.57664376180513 L 90.99130434782609,101.17664376180514 M 94.78260869565219,91.57664376180513 L 94.59478260869567,101.17664376180514 M 98.2608695652174,91.57664376180513 L 98.19826086956523,101.17664376180514 M 101.73913043478261,91.57664376180513 L 101.80173913043478,101.17664376180514 M 105.21739130434783,91.57664376180513 L 105.40521739130435,101.17664376180514 M 108.69565217391306,91.57664376180513 L 109.00869565217393,101.17664376180514 M 112.17391304347827,91.57664376180513 L 112.61217391304348,101.17664376180514 M 115.65217391304347,91.57664376180513 L 116.21565217391303,101.17664376180514 M 119.13043478260869,91.57664376180513 L 119.81913043478261,101.17664376180514 M 122.6086956521739,91.57664376180513 L 123.42260869565217,101.17664376180514 M 126.08695652173913,91.57664376180513 L 127.02608695652174,101.17664376180514 M 129.56521739130437,91.57664376180513 L 130.62956521739133,101.17664376180514 M 133.04347826086956,91.57664376180513 L 134.23304347826087,101.17664376180514 M 136.5217391304348,91.57664376180513 L 137.83652173913046,101.17664376180514 M 140,91.57664376180513 L 141.44,101.17664376180514" stroke="#a496bf" stroke-width="0.8" fill="none" opacity="0.7"/>
    <path d="M 50,91.57664376180513 Q 50,84.37664376180513 100,81.97664376180512 Q 150,84.37664376180513 150,91.57664376180513" fill="#576cb7" filter="url(#organic)"/>
  </g>
</svg>