<svg xmlns="http://www.w3.org/2000/svg" viewBox="0 0 200 200" width="200" height="200">
  <defs>
    <filter id="organic" x="-5%" y="-5%" width="110%" height="110%">
    <feTurbulence type="fractalNoise" baseFrequency="0.04" numOctaves="3" seed="1" result="noise"/>
    <feDisplacementMap in="SourceGraphic" in2="noise" scale="2" xChannelSelector="R" yChannelSelector="G"/>
  </filter>
  </defs>
  <g>
    <path d="M 92,94.15432183143925 Q 91,132.07716091571962 90.4,170 L 109.6,170 Q 109,132.07716091571962 108,94.15432183143925 Z" fill="#979bc4" filter="url(#organic)"/>
    <path d="M 60,94.15432183143925 L 58.398,104.83432183143925 M 63.47826086956522,94.15432183143925 L 62.015565217391305,104.83432183143925 M 66.95652173913044,94.15432183143925 L 65.63313043478261,104.83432183143925 M 70.43478260869566,94.15432183143925 L 69.25069565217392,104.83432183143925 M 73.91304347826087,94.15432183143925 L 72.86826086956522,104.83432183143925 M 77.3913043478261,94.15432183143925 L 76.48582608695652,104.83432183143925 M 80.86956521739131,94.15432183143925 L 80.10339130434784,104.83432183143925 M 84.34782608695653,94.15432183143925 L 83.72095652173914,104.83432183143925 M 87.82608695652173,94.15432183143925 L 87.33852173913043,104.83432183143925 M 91.30434782608695,94.15432183143925 L 90.95608695652173,104.83432183143925 M 94.78260869565219,94.15432183143925 L 94.57365217391306,104.83432183143925 M 98.2608695652174,94.15432183143925 L 98.19121739130436,104.83432183143925 M 101.73913043478261,94.15432183143925 L 101.80878260869565,104.83432183143925 M 105.21739130434783,94.15432183143925 L 105.42634782608695,104.83432183143925 M 108.69565217391306,94.15432183143925 L 109.04391304347828,104.83432183143925 M 112.17391304347827,94.15432183143925 L 112.66147826086957,104.83432183143925 M 115.65217391304347,94.15432183143925 L 116.27904347826086,104.83432183143925 M 119.13043478260869,94.15432183143925 L 119.89660869565216,104.83432183143925 M 122.6086956521739,94.15432183143925 L 123.51417391304348,104.83432183143925 M 126.08695652173913,94.15432183143925 L 127.13173913043478,104.83432183143925 M 129.56521739130437,94.15432183143925 L 130.74930434782613,104.83432183143925 M 133.04347826086956,94.15432183143925 L 134.3668695652174,104.83432183143925 M 136.5217391304348,94.15432183143925 L 137.98443478260873,104.83432183143925 M 140,94.15432183143925 L 141.602,104.83432183143925" stroke="#979bc4" stroke-width="0.8" fill="none" opacity="0.7"/>
    <path d="M 50,83.47432183143924 Q 65,94.15432183143925 100,88.81432183143924 Q 135,94.15432183143925 150,83.47432183143924" fill="#3275b4" filter="url(#organic)"/>
    <circle cx="75.0" cy="75.5" r="3" fill="white" opacity="0.85"/>
    <circle cx="115.0" cy="72.8" r="2.5" fill="white" opacity="0.85"/>
    <circle cx="95.0" cy="71.5" r="2" fill="white" opacity="0.85"/>
    <circle cx="130.0" cy="78.1" r="2" fill="white" opacity="0.85"/>
    <circle cx="70.0" cy="80.8" r="1.5" fill="white" opacity="0.85"/>
    <circle cx="105.0" cy="80.8" r="2.5" fill="white" opacity="0.85"/>
  </g>
</svg>