<svg xmlns="http://www.w3.org/2000/svg" viewBox="0 0 200 200" width="200" height="200">
  <defs>
    <filter id="organic" x="-5%" y="-5%" width="110%" height="110%">
    <feTurbulence type="fractalNoise" baseFrequency="0.04" numOctaves="3" seed="1" result="noise"/>
    <feDisplacementMap in="SourceGraphic" in2="noise" scale="2" xChannelSelector="R" yChannelSelector="G"/>
  </filter>
  </defs>
  <g>
    <path d="M 92,102.40054544405591 Q 91,136.20027272202796 90.4,170 L 109.6,170 Q 109,136.20027272202796 108,102.40054544405591 Z" fill="#73aba3" filter="url(#organic)"/>
    <path d="M 60,102.40054544405591 L 58.56,112.00054544405592 M 63.47826086956522,102.40054544405591 L 62.16347826086957,112.00054544405592 M 66.95652173913044,102.40054544405591 L 65.76695652173913,112.00054544405592 M 70.43478260869566,102.40054544405591 L 69.3704347826087,112.00054544405592 M 73.91304347826087,102.40054544405591 L 72.97391304347826,112.00054544405592 M 77.3913043478261,102.40054544405591 L 76.57739130434783,112.00054544405592 M 80.86956521739131,102.40054544405591 L 80.18086956521739,112.00054544405592 M 84.34782608695653,102.40054544405591 L 83.78434782608697,112.00054544405592 M 87.82608695652173,102.40054544405591 L 87.38782608695652,112.00054544405592 M 91.30434782608695,102.40054544405591 L 90.99130434782609,112.00054544405592 M 94.78260869565219,102.40054544405591 L 94.59478260869567,112.00054544405592 M 98.2608695652174,102.40054544405591 L 98.19826086956523,112.00054544405592 M 101.73913043478261,102.40054544405591 L 101.80173913043478,112.00054544405592 M 105.21739130434783,102.40054544405591 L 105.40521739130435,112.00054544405592 M 108.69565217391306,102.40054544405591 L 109.00869565217393,112.00054544405592 M 112.17391304347827,102.40054544405591 L 112.61217391304348,112.00054544405592 M 115.65217391304347,102.40054544405591 L 116.21565217391303,112.00054544405592 M 119.13043478260869,102.40054544405591 L 119.81913043478261,112.00054544405592 M 122.6086956521739,102.40054544405591 L 123.42260869565217,112.00054544405592 M 126.08695652173913,102.40054544405591 L 127.02608695652174,112.00054544405592 M 129.56521739130437,102.40054544405591 L 130.62956521739133,112.00054544405592 M 133.04347826086956,102.40054544405591 L 134.23304347826087,112.00054544405592 M 136.5217391304348,102.40054544405591 L 137.83652173913046,112.00054544405592 M 140,102.40054544405591 L 141.44,112.00054544405592" stroke="#73aba3" stroke-width="0.8" fill="none" opacity="0.7"/>
    <path d="M 50,92.8005454440559 Q 65,102.40054544405591 100,97.60054544405591 Q 135,102.40054544405591 150,92.8005454440559" fill="#258651" filter="url(#organic)"/>
  </g>
</svg>