<svg xmlns="http://www.w3.org/2000/svg" viewBox="0 0 200 200" width="200" height="200">
  <defs>
    <filter id="organic" x="-5%" y="-5%" width="110%" height="110%">
    <feTurbulence type="fractalNoise" baseFrequency="0.04" numOctaves="3" seed="1" result="noise"/>
    <feDisplacementMap in="SourceGraphic" in2="noise" scale="2" xChannelSelector="R" yChannelSelector="G"/>
  </filter>
  </defs>
  <g>
    <path d="M 94.4,95.42339624040025 Q 93.4,132.71169812020014 93.28,170 L 106.72,170 Q 106.6,132.71169812020014 105.6,95.42339624040025 Z" fill="#979bc4" filter="url(#organic)"/>
    <ellipse cx="100" cy="117.79637736828018" rx="8.399999999999999" ry="2.5199999999999996" fill="none" stroke="currentColor" stroke-width="1.5" opacity="0.6"/>
    <path d="M 61.959999999999994,95.42339624040025 L 60.43899999999999,105.56339624040025 M 65.58285714285714,95.42339624040025 L 64.20671428571428,105.56339624040025 M 69.20571428571428,95.42339624040025 L 67.97442857142856,105.56339624040025 M 72.82857142857142,95.42339624040025 L 71.74214285714285,105.56339624040025 M 76.45142857142856,95.42339624040025 L 75.50985714285714,105.56339624040025 M 80.07428571428571,95.42339624040025 L 79.27757142857142,105.56339624040025 M 83.69714285714285,95.42339624040025 L 83.04528571428571,105.56339624040025 M 87.32,95.42339624040025 L 86.81299999999999,105.56339624040025 M 90.94285714285714,95.42339624040025 L 90.58071428571428,105.56339624040025 M 94.56571428571428,95.42339624040025 L 94.34842857142857,105.56339624040025 M 98.18857142857142,95.42339624040025 L 98.11614285714285,105.56339624040025 M 101.81142857142858,95.42339624040025 L 101.88385714285715,105.56339624040025 M 105.4342857142857,95.42339624040025 L 105.65157142857142,105.56339624040025 M 109.05714285714286,95.42339624040025 L 109.41928571428572,105.56339624040025 M 112.68,95.42339624040025 L 113.18700000000001,105.56339624040025 M 116.30285714285714,95.42339624040025 L 116.95471428571427,105.56339624040025 M 119.92571428571428,95.42339624040025 L 120.72242857142857,105.56339624040025 M 123.54857142857144,95.42339624040025 L 124.49014285714286,105.56339624040025 M 127.17142857142858,95.42339624040025 L 128.25785714285715,105.56339624040025 M 130.7942857142857,95.42339624040025 L 132.02557142857142,105.56339624040025 M 134.41714285714284,95.42339624040025 L 135.7932857142857,105.56339624040025 M 138.04000000000002,95.42339624040025 L 139.561,105.56339624040025" stroke="#979bc4" stroke-width="0.8" fill="none" opacity="0.7"/>
    <path d="M 52.449999999999996,95.42339624040025 Q 52.449999999999996,87.81839624040026 100,85.28339624040026 Q 147.55,87.81839624040026 147.55,95.42339624040025" fill="#3275b4" filter="url(#organic)"/>
  </g>
</svg>