<svg xmlns="http://www.w3.org/2000/svg" viewBox="0 0 200 200" width="200" height="200">
  <defs>
    <filter id="organic" x="-5%" y="-5%" width="110%" height="110%">
    <feTurbulence type="fractalNoise" baseFrequency="0.04" numOctaves="3" seed="1" result="noise"/>
    <feDisplacementMap in="SourceGraphic" in2="noise" scale="2" xChannelSelector="R" yChannelSelector="G"/>
  </filter>
  </defs>
  <g>
    <path d="M 92,97.57898171516553 Q 91,133.78949085758276 90.4,170 L 109.6,170 Q 109,133.78949085758276 108,97.57898171516553 Z" fill="#979bc4" filter="url(#organic)"/>
    <path d="M 60,97.57898171516553 L 57.75,112.57898171516553 M 63.47826086956522,97.57898171516553 L 61.423913043478265,112.57898171516553 M 66.95652173913044,97.57898171516553 L 65.09782608695653,112.57898171516553 M 70.43478260869566,97.57898171516553 L 68.77173913043478,112.57898171516553 M 73.91304347826087,97.57898171516553 L 72.44565217391305,112.57898171516553 M 77.3913043478261,97.57898171516553 L 76.11956521739131,112.57898171516553 M 80.86956521739131,97.57898171516553 L 79.79347826086958,112.57898171516553 M 84.34782608695653,97.57898171516553 L 83.46739130434783,112.57898171516553 M 87.82608695652173,97.57898171516553 L 87.14130434782608,112.57898171516553 M 91.30434782608695,97.57898171516553 L 90.81521739130434,112.57898171516553 M 94.78260869565219,97.57898171516553 L 94.48913043478262,112.57898171516553 M 98.2608695652174,97.57898171516553 L 98.16304347826089,112.57898171516553 M 101.73913043478261,97.57898171516553 L 101.83695652173913,112.57898171516553 M 105.21739130434783,97.57898171516553 L 105.51086956521739,112.57898171516553 M 108.69565217391306,97.57898171516553 L 109.18478260869567,112.57898171516553 M 112.17391304347827,97.57898171516553 L 112.85869565217392,112.57898171516553 M 115.65217391304347,97.57898171516553 L 116.53260869565217,112.57898171516553 M 119.13043478260869,97.57898171516553 L 120.20652173913042,112.57898171516553 M 122.6086956521739,97.57898171516553 L 123.88043478260869,112.57898171516553 M 126.08695652173913,97.57898171516553 L 127.55434782608695,112.57898171516553 M 129.56521739130437,97.57898171516553 L 131.22826086956525,112.57898171516553 M 133.04347826086956,97.57898171516553 L 134.90217391304347,112.57898171516553 M 136.5217391304348,97.57898171516553 L 138.57608695652178,112.57898171516553 M 140,97.57898171516553 L 142.25,112.57898171516553" stroke="#979bc4" stroke-width="0.8" fill="none" opacity="0.7"/>
    <path d="M 50,82.57898171516553 Q 65,97.57898171516553 100,90.07898171516553 Q 135,97.57898171516553 150,82.57898171516553" fill="#3275b4" filter="url(#organic)"/>
    <circle cx="75.0" cy="71.3" r="3" fill="white" opacity="0.85"/>
    <circle cx="115.0" cy="67.6" r="2.5" fill="white" opacity="0.85"/>
    <circle cx="95.0" cy="65.7" r="2" fill="white" opacity="0.85"/>
    <circle cx="130.0" cy="75.1" r="2" fill="white" opacity="0.85"/>
    <circle cx="70.0" cy="78.8" r="1.5" fill="white" opacity="0.85"/>
    <circle cx="105.0" cy="78.8" r="2.5" fill="white" opacity="0.85"/>
  </g>
</svg>