<svg xmlns="http://www.w3.org/2000/svg" viewBox="0 0 200 200" width="200" height="200">
  <defs>
    <filter id="organic" x="-5%" y="-5%" width="110%" height="110%">
    <feTurbulence type="fractalNoise" baseFrequency="0.04" numOctaves="3" seed="1" result="noise"/>
    <feDisplacementMap in="SourceGraphic" in2="noise" scale="2" xChannelSelector="R" yChannelSelector="G"/>
  </filter>
  </defs>
  <g>
    <path d="M 95.6,104.66922912634493 Q 94.6,137.33461456317247 94.72,170 L 105.28,170 Q 105.4,137.33461456317247 104.4,104.66922912634493 Z" fill="#979bc4" filter="url(#organic)"/>
    <ellipse cx="100" cy="124.26846038844145" rx="6.6000000000000005" ry="1.98" fill="none" stroke="currentColor" stroke-width="1.5" opacity="0.6"/>
    <path d="M 67.84,104.66922912634493 L 66.319,114.80922912634493 M 72.128,104.66922912634493 L 70.8098,114.80922912634493 M 76.416,104.66922912634493 L 75.3006,114.80922912634493 M 80.70400000000001,104.66922912634493 L 79.79140000000001,114.80922912634493 M 84.992,104.66922912634493 L 84.2822,114.80922912634493 M 89.28,104.66922912634493 L 88.773,114.80922912634493 M 93.56800000000001,104.66922912634493 L 93.26380000000002,114.80922912634493 M 97.85600000000001,104.66922912634493 L 97.75460000000001,114.80922912634493 M 102.144,104.66922912634493 L 102.2454,114.80922912634493 M 106.43200000000002,104.66922912634493 L 106.73620000000001,114.80922912634493 M 110.72,104.66922912634493 L 111.227,114.80922912634493 M 115.00800000000001,104.66922912634493 L 115.71780000000001,114.80922912634493 M 119.29600000000002,104.66922912634493 L 120.20860000000002,114.80922912634493 M 123.584,104.66922912634493 L 124.6994,114.80922912634493 M 127.87200000000001,104.66922912634493 L 129.1902,114.80922912634493 M 132.16000000000003,104.66922912634493 L 133.681,114.80922912634493" stroke="#979bc4" stroke-width="0.8" fill="none" opacity="0.7"/>
    <path d="M 59.8,104.66922912634493 Q 59.8,79.31922912634494 100,79.31922912634494 Q 140.2,79.31922912634494 140.2,104.66922912634493" fill="#3275b4" filter="url(#organic)"/>
    <circle cx="79.9" cy="86.9" r="3" fill="white" opacity="0.85"/>
    <circle cx="112.1" cy="84.4" r="2.5" fill="white" opacity="0.85"/>
    <circle cx="96.0" cy="83.1" r="2" fill="white" opacity="0.85"/>
    <circle cx="124.1" cy="89.5" r="2" fill="white" opacity="0.85"/>
    <circle cx="75.9" cy="92.0" r="1.5" fill="white" opacity="0.85"/>
    <circle cx="104.0" cy="92.0" r="2.5" fill="white" opacity="0.85"/>
  </g>
</svg>