<svg xmlns="http://www.w3.org/2000/svg" viewBox="0 0 200 200" width="200" height="200">
  <defs>
    <filter id="organic" x="-5%" y="-5%" width="110%" height="110%">
    <feTurbulence type="fractalNoise" baseFrequency="0.04" numOctaves="3" seed="1" result="noise"/>
    <feDisplacementMap in="SourceGraphic" in2="noise" scale="2" xChannelSelector="R" yChannelSelector="G"/>
  </filter>
  </defs>
  <g>
    <path d="M 96,91.68104589254746 Q 95,130.84052294627372 95.2,170 L 104.8,170 Q 105,130.84052294627372 104,91.68104589254746 Z" fill="#979bc4" filter="url(#organic)"/>
    <ellipse cx="100" cy="115.17673212478323" rx="6" ry="1.7999999999999998" fill="none" stroke="currentColor" stroke-width="1.5" opacity="0.6"/>
    <path d="M 69.8,91.68104589254746 L 66.74,112.08104589254746 M 74.44615384615385,91.68104589254746 L 71.85692307692308,112.08104589254746 M 79.09230769230768,91.68104589254746 L 76.97384615384615,112.08104589254746 M 83.73846153846154,91.68104589254746 L 82.09076923076923,112.08104589254746 M 88.38461538461539,91.68104589254746 L 87.20769230769231,112.08104589254746 M 93.03076923076924,91.68104589254746 L 92.32461538461538,112.08104589254746 M 97.67692307692307,91.68104589254746 L 97.44153846153846,112.08104589254746 M 102.32307692307691,91.68104589254746 L 102.55846153846153,112.08104589254746 M 106.96923076923076,91.68104589254746 L 107.67538461538462,112.08104589254746 M 111.61538461538461,91.68104589254746 L 112.79230769230769,112.08104589254746 M 116.26153846153846,91.68104589254746 L 117.90923076923077,112.08104589254746 M 120.90769230769232,91.68104589254746 L 123.02615384615385,112.08104589254746 M 125.55384615384615,91.68104589254746 L 128.14307692307693,112.08104589254746 M 130.2,91.68104589254746 L 133.26,112.08104589254746" stroke="#979bc4" stroke-width="0.8" fill="none" opacity="0.7"/>
    <path d="M 62.25,91.68104589254746 Q 62.25,71.28104589254745 88.675,61.081045892547465 L 100,40.68104589254746 L 111.325,61.081045892547465 Q 137.75,71.28104589254745 137.75,91.68104589254746" fill="#3275b4" filter="url(#organic)"/>
    <circle cx="81.1" cy="56.0" r="3" fill="white" opacity="0.85"/>
    <circle cx="111.3" cy="50.9" r="2.5" fill="white" opacity="0.85"/>
    <circle cx="96.2" cy="48.3" r="2" fill="white" opacity="0.85"/>
    <circle cx="122.7" cy="61.1" r="2" fill="white" opacity="0.85"/>
    <circle cx="77.3" cy="66.2" r="1.5" fill="white" opacity="0.85"/>
    <circle cx="103.8" cy="66.2" r="2.5" fill="white" opacity="0.85"/>
  </g>
</svg>