<svg xmlns="http://www.w3.org/2000/svg" viewBox="0 0 200 200" width="200" height="200">
  <defs>
    <filter id="organic" x="-5%" y="-5%" width="110%" height="110%">
    <feTurbulence type="fractalNoise" baseFrequency="0.04" numOctaves="3" seed="1" result="noise"/>
    <feDisplacementMap in="SourceGraphic" in2="noise" scale="2" xChannelSelector="R" yChannelSelector="G"/>
  </filter>
  </defs>
  <g>
    <path d="M 97.2,98.34239669408583 Q 96.2,134.17119834704292 96.64,170 L 103.36,170 Q 103.8,134.17119834704292 102.8,98.34239669408583 Z" fill="#979bc4" filter="url(#organic)"/>
    <path d="M 75.68,98.34239669408583 L 73.59200000000001,112.26239669408584 M 82.62857142857143,98.34239669408583 L 81.13714285714286,112.26239669408584 M 89.57714285714286,98.34239669408583 L 88.68228571428571,112.26239669408584 M 96.52571428571429,98.34239669408583 L 96.22742857142858,112.26239669408584 M 103.47428571428571,98.34239669408583 L 103.77257142857142,112.26239669408584 M 110.42285714285715,98.34239669408583 L 111.3177142857143,112.26239669408584 M 117.37142857142857,98.34239669408583 L 118.86285714285714,112.26239669408584 M 124.32000000000001,98.34239669408583 L 126.408,112.26239669408584" stroke="#979bc4" stroke-width="0.8" fill="none" opacity="0.7"/>
    <path d="M 69.6,98.34239669408583 Q 69.6,63.54239669408584 100,63.54239669408584 Q 130.4,63.54239669408584 130.4,98.34239669408583" fill="#3275b4" filter="url(#organic)"/>
  </g>
</svg>