<svg xmlns="http://www.w3.org/2000/svg" viewBox="0 0 200 200" width="200" height="200">
  <defs>
    <filter id="organic" x="-5%" y="-5%" width="110%" height="110%">
    <feTurbulence type="fractalNoise" baseFrequency="0.04" numOctaves="3" seed="1" result="noise"/>
    <feDisplacementMap in="SourceGraphic" in2="noise" scale="2" xChannelSelector="R" yChannelSelector="G"/>
  </filter>
  </defs>
  <g>
    <path d="M 96.8,83.21923693049015 Q 95.8,126.60961846524508 96.16,170 L 103.84,170 Q 104.2,126.60961846524508 103.2,83.21923693049015 Z" fill="#aa94bb" filter="url(#organic)"/>
    <ellipse cx="100" cy="109.25346585134311" rx="4.800000000000001" ry="1.4400000000000002" fill="none" stroke="currentColor" stroke-width="1.5" opacity="0.6"/>
    <path d="M 73.72,83.21923693049015 L 72.28,92.81923693049015 M 79.56,83.21923693049015 L 78.44,92.81923693049015 M 85.4,83.21923693049015 L 84.60000000000001,92.81923693049015 M 91.24,83.21923693049015 L 90.75999999999999,92.81923693049015 M 97.08,83.21923693049015 L 96.92,92.81923693049015 M 102.92,83.21923693049015 L 103.08,92.81923693049015 M 108.75999999999999,83.21923693049015 L 109.24,92.81923693049015 M 114.6,83.21923693049015 L 115.39999999999999,92.81923693049015 M 120.44,83.21923693049015 L 121.56,92.81923693049015 M 126.28,83.21923693049015 L 127.72,92.81923693049015" stroke="#aa94bb" stroke-width="0.8" fill="none" opacity="0.7"/>
    <path d="M 67.15,83.21923693049015 Q 67.15,76.01923693049015 100,73.61923693049016 Q 132.85,76.01923693049015 132.85,83.21923693049015" fill="#6568b6" filter="url(#organic)"/>
  </g>
</svg>