<svg xmlns="http://www.w3.org/2000/svg" viewBox="0 0 200 200" width="200" height="200">
  <defs>
    <filter id="organic" x="-5%" y="-5%" width="110%" height="110%">
    <feTurbulence type="fractalNoise" baseFrequency="0.04" numOctaves="3" seed="1" result="noise"/>
    <feDisplacementMap in="SourceGraphic" in2="noise" scale="2" xChannelSelector="R" yChannelSelector="G"/>
  </filter>
  </defs>
  <g>
    <path d="M 92,83.125971182435 Q 91,126.5629855912175 90.4,170 L 109.6,170 Q 109,126.5629855912175 108,83.125971182435 Z" fill="#979bc4" filter="url(#organic)"/>
    <ellipse cx="100" cy="109.18817982770449" rx="12" ry="3.5999999999999996" fill="none" stroke="currentColor" stroke-width="1.5" opacity="0.6"/>
    <path d="M 60,83.125971182435 L 57.264,101.36597118243499 M 63.47826086956522,83.125971182435 L 60.98017391304348,101.36597118243499 M 66.95652173913044,83.125971182435 L 64.69634782608696,101.36597118243499 M 70.43478260869566,83.125971182435 L 68.41252173913044,101.36597118243499 M 73.91304347826087,83.125971182435 L 72.12869565217392,101.36597118243499 M 77.3913043478261,83.125971182435 L 75.8448695652174,101.36597118243499 M 80.86956521739131,83.125971182435 L 79.56104347826087,101.36597118243499 M 84.34782608695653,83.125971182435 L 83.27721739130436,101.36597118243499 M 87.82608695652173,83.125971182435 L 86.99339130434782,101.36597118243499 M 91.30434782608695,83.125971182435 L 90.7095652173913,101.36597118243499 M 94.78260869565219,83.125971182435 L 94.42573913043479,101.36597118243499 M 98.2608695652174,83.125971182435 L 98.14191304347827,101.36597118243499 M 101.73913043478261,83.125971182435 L 101.85808695652175,101.36597118243499 M 105.21739130434783,83.125971182435 L 105.57426086956522,101.36597118243499 M 108.69565217391306,83.125971182435 L 109.29043478260871,101.36597118243499 M 112.17391304347827,83.125971182435 L 113.00660869565218,101.36597118243499 M 115.65217391304347,83.125971182435 L 116.72278260869564,101.36597118243499 M 119.13043478260869,83.125971182435 L 120.43895652173913,101.36597118243499 M 122.6086956521739,83.125971182435 L 124.1551304347826,101.36597118243499 M 126.08695652173913,83.125971182435 L 127.87130434782608,101.36597118243499 M 129.56521739130437,83.125971182435 L 131.5874782608696,101.36597118243499 M 133.04347826086956,83.125971182435 L 135.30365217391304,101.36597118243499 M 136.5217391304348,83.125971182435 L 139.01982608695656,101.36597118243499 M 140,83.125971182435 L 142.736,101.36597118243499" stroke="#979bc4" stroke-width="0.8" fill="none" opacity="0.7"/>
    <path d="M 50,64.885971182435 Q 65,83.125971182435 100,74.00597118243499 Q 135,83.125971182435 150,64.885971182435" fill="#3275b4" filter="url(#organic)"/>
    <circle cx="75.0" cy="51.2" r="3" fill="white" opacity="0.85"/>
    <circle cx="115.0" cy="46.6" r="2.5" fill="white" opacity="0.85"/>
    <circle cx="95.0" cy="44.4" r="2" fill="white" opacity="0.85"/>
    <circle cx="130.0" cy="55.8" r="2" fill="white" opacity="0.85"/>
    <circle cx="70.0" cy="60.3" r="1.5" fill="white" opacity="0.85"/>
    <circle cx="105.0" cy="60.3" r="2.5" fill="white" opacity="0.85"/>
  </g>
</svg>