<svg xmlns="http://www.w3.org/2000/svg" viewBox="0 0 200 200" width="200" height="200">
  <defs>
    <filter id="organic" x="-5%" y="-5%" width="110%" height="110%">
    <feTurbulence type="fractalNoise" baseFrequency="0.04" numOctaves="3" seed="1" result="noise"/>
    <feDisplacementMap in="SourceGraphic" in2="noise" scale="2" xChannelSelector="R" yChannelSelector="G"/>
  </filter>
  </defs>
  <g>
    <path d="M 92,83.84655135485684 Q 91,126.92327567742842 90.4,170 L 109.6,170 Q 109,126.92327567742842 108,83.84655135485684 Z" fill="#979bc4" filter="url(#organic)"/>
    <ellipse cx="100" cy="109.6925859483998" rx="12" ry="3.5999999999999996" fill="none" stroke="currentColor" stroke-width="1.5" opacity="0.6"/>
    <path d="M 60,83.84655135485684 L 57.669,99.38655135485685 M 63.47826086956522,83.84655135485684 L 61.34995652173913,99.38655135485685 M 66.95652173913044,83.84655135485684 L 65.03091304347826,99.38655135485685 M 70.43478260869566,83.84655135485684 L 68.7118695652174,99.38655135485685 M 73.91304347826087,83.84655135485684 L 72.39282608695653,99.38655135485685 M 77.3913043478261,83.84655135485684 L 76.07378260869565,99.38655135485685 M 80.86956521739131,83.84655135485684 L 79.75473913043479,99.38655135485685 M 84.34782608695653,83.84655135485684 L 83.43569565217392,99.38655135485685 M 87.82608695652173,83.84655135485684 L 87.11665217391304,99.38655135485685 M 91.30434782608695,83.84655135485684 L 90.79760869565217,99.38655135485685 M 94.78260869565219,83.84655135485684 L 94.47856521739132,99.38655135485685 M 98.2608695652174,83.84655135485684 L 98.15952173913045,99.38655135485685 M 101.73913043478261,83.84655135485684 L 101.84047826086956,99.38655135485685 M 105.21739130434783,83.84655135485684 L 105.5214347826087,99.38655135485685 M 108.69565217391306,83.84655135485684 L 109.20239130434784,99.38655135485685 M 112.17391304347827,83.84655135485684 L 112.88334782608696,99.38655135485685 M 115.65217391304347,83.84655135485684 L 116.56430434782608,99.38655135485685 M 119.13043478260869,83.84655135485684 L 120.24526086956521,99.38655135485685 M 122.6086956521739,83.84655135485684 L 123.92621739130435,99.38655135485685 M 126.08695652173913,83.84655135485684 L 127.60717391304347,99.38655135485685 M 129.56521739130437,83.84655135485684 L 131.28813043478263,99.38655135485685 M 133.04347826086956,83.84655135485684 L 134.96908695652175,99.38655135485685 M 136.5217391304348,83.84655135485684 L 138.6500434782609,99.38655135485685 M 140,83.84655135485684 L 142.331,99.38655135485685" stroke="#979bc4" stroke-width="0.8" fill="none" opacity="0.7"/>
    <path d="M 50,68.30655135485684 Q 65,83.84655135485684 100,76.07655135485685 Q 135,83.84655135485684 150,68.30655135485684" fill="#3275b4" filter="url(#organic)"/>
  </g>
</svg>