<svg xmlns="http://www.w3.org/2000/svg" viewBox="0 0 200 200" width="200" height="200">
  <defs>
    <filter id="organic" x="-5%" y="-5%" width="110%" height="110%">
    <feTurbulence type="fractalNoise" baseFrequency="0.04" numOctaves="3" seed="1" result="noise"/>
    <feDisplacementMap in="SourceGraphic" in2="noise" scale="2" xChannelSelector="R" yChannelSelector="G"/>
  </filter>
  </defs>
  <g>
    <path d="M 92,101.03598542095939 Q 91,135.5179927104797 90.4,170 L 109.6,170 Q 109,135.5179927104797 108,101.03598542095939 Z" fill="#979bc4" filter="url(#organic)"/>
    <path d="M 60,101.03598542095939 L 58.479,111.17598542095939 M 63.47826086956522,101.03598542095939 L 62.08952173913043,111.17598542095939 M 66.95652173913044,101.03598542095939 L 65.70004347826087,111.17598542095939 M 70.43478260869566,101.03598542095939 L 69.31056521739131,111.17598542095939 M 73.91304347826087,101.03598542095939 L 72.92108695652175,111.17598542095939 M 77.3913043478261,101.03598542095939 L 76.53160869565218,111.17598542095939 M 80.86956521739131,101.03598542095939 L 80.14213043478262,111.17598542095939 M 84.34782608695653,101.03598542095939 L 83.75265217391305,111.17598542095939 M 87.82608695652173,101.03598542095939 L 87.36317391304347,111.17598542095939 M 91.30434782608695,101.03598542095939 L 90.97369565217392,111.17598542095939 M 94.78260869565219,101.03598542095939 L 94.58421739130436,111.17598542095939 M 98.2608695652174,101.03598542095939 L 98.1947391304348,111.17598542095939 M 101.73913043478261,101.03598542095939 L 101.80526086956522,111.17598542095939 M 105.21739130434783,101.03598542095939 L 105.41578260869565,111.17598542095939 M 108.69565217391306,101.03598542095939 L 109.0263043478261,111.17598542095939 M 112.17391304347827,101.03598542095939 L 112.63682608695653,111.17598542095939 M 115.65217391304347,101.03598542095939 L 116.24734782608695,111.17598542095939 M 119.13043478260869,101.03598542095939 L 119.85786956521738,111.17598542095939 M 122.6086956521739,101.03598542095939 L 123.46839130434782,111.17598542095939 M 126.08695652173913,101.03598542095939 L 127.07891304347825,111.17598542095939 M 129.56521739130437,101.03598542095939 L 130.6894347826087,111.17598542095939 M 133.04347826086956,101.03598542095939 L 134.29995652173912,111.17598542095939 M 136.5217391304348,101.03598542095939 L 137.91047826086958,111.17598542095939 M 140,101.03598542095939 L 141.521,111.17598542095939" stroke="#979bc4" stroke-width="0.8" fill="none" opacity="0.7"/>
    <path d="M 50,101.03598542095938 Q 60,83.29098542095939 100,75.68598542095938 Q 140,83.29098542095939 150,101.03598542095938" fill="#3275b4" filter="url(#organic)"/>
  </g>
</svg>