<svg xmlns="http://www.w3.org/2000/svg" viewBox="0 0 200 200" width="200" height="200">
  <defs>
    <filter id="organic" x="-5%" y="-5%" width="110%" height="110%">
    <feTurbulence type="fractalNoise" baseFrequency="0.04" numOctaves="3" seed="1" result="noise"/>
    <feDisplacementMap in="SourceGraphic" in2="noise" scale="2" xChannelSelector="R" yChannelSelector="G"/>
  </filter>
  </defs>
  <g>
    <path d="M 97.2,108.56779567354646 Q 96.2,139.28389783677324 96.64,170 L 103.36,170 Q 103.8,139.28389783677324 102.8,108.56779567354646 Z" fill="#979bc4" filter="url(#organic)"/>
    <path d="M 75.68,108.56779567354646 L 74.159,118.70779567354646 M 82.62857142857143,108.56779567354646 L 81.54214285714286,118.70779567354646 M 89.57714285714286,108.56779567354646 L 88.92528571428572,118.70779567354646 M 96.52571428571429,108.56779567354646 L 96.30842857142858,118.70779567354646 M 103.47428571428571,108.56779567354646 L 103.69157142857142,118.70779567354646 M 110.42285714285715,108.56779567354646 L 111.0747142857143,118.70779567354646 M 117.37142857142857,108.56779567354646 L 118.45785714285714,118.70779567354646 M 124.32000000000001,108.56779567354646 L 125.84100000000001,118.70779567354646" stroke="#979bc4" stroke-width="0.8" fill="none" opacity="0.7"/>
    <path d="M 69.6,108.56779567354644 Q 75.67999999999999,90.82279567354645 100,83.21779567354645 Q 124.32000000000001,90.82279567354645 130.4,108.56779567354644" fill="#3275b4" filter="url(#organic)"/>
  </g>
</svg>