<svg xmlns="http://www.w3.org/2000/svg" viewBox="0 0 200 200" width="200" height="200">
  <defs>
    <filter id="organic" x="-5%" y="-5%" width="110%" height="110%">
    <feTurbulence type="fractalNoise" baseFrequency="0.04" numOctaves="3" seed="1" result="noise"/>
    <feDisplacementMap in="SourceGraphic" in2="noise" scale="2" xChannelSelector="R" yChannelSelector="G"/>
  </filter>
  </defs>
  <g>
    <path d="M 95.2,82.53915048741274 Q 94.2,126.26957524370637 94.24,170 L 105.76,170 Q 105.8,126.26957524370637 104.8,82.53915048741274 Z" fill="#979bc4" filter="url(#organic)"/>
    <ellipse cx="100" cy="108.77740534118891" rx="7.199999999999999" ry="2.1599999999999997" fill="none" stroke="currentColor" stroke-width="1.5" opacity="0.6"/>
    <path d="M 65.88,82.53915048741274 L 62.577,104.55915048741274 M 69.89411764705882,82.53915048741274 L 66.97970588235293,104.55915048741274 M 73.90823529411765,82.53915048741274 L 71.38241176470588,104.55915048741274 M 77.92235294117647,82.53915048741274 L 75.78511764705883,104.55915048741274 M 81.9364705882353,82.53915048741274 L 80.18782352941176,104.55915048741274 M 85.95058823529412,82.53915048741274 L 84.5905294117647,104.55915048741274 M 89.96470588235294,82.53915048741274 L 88.99323529411765,104.55915048741274 M 93.97882352941176,82.53915048741274 L 93.39594117647057,104.55915048741274 M 97.9929411764706,82.53915048741274 L 97.79864705882353,104.55915048741274 M 102.0070588235294,82.53915048741274 L 102.20135294117647,104.55915048741274 M 106.02117647058824,82.53915048741274 L 106.60405882352943,104.55915048741274 M 110.03529411764706,82.53915048741274 L 111.00676470588235,104.55915048741274 M 114.0494117647059,82.53915048741274 L 115.40947058823531,104.55915048741274 M 118.0635294117647,82.53915048741274 L 119.81217647058823,104.55915048741274 M 122.07764705882353,82.53915048741274 L 124.21488235294117,104.55915048741274 M 126.09176470588235,82.53915048741274 L 128.6175882352941,104.55915048741274 M 130.1058823529412,82.53915048741274 L 133.02029411764707,104.55915048741274 M 134.12,82.53915048741274 L 137.423,104.55915048741274" stroke="#979bc4" stroke-width="0.8" fill="none" opacity="0.7"/>
    <path d="M 57.349999999999994,82.53915048741274 Q 57.349999999999994,60.51915048741274 87.205,49.50915048741274 L 100,27.489150487412743 L 112.795,49.50915048741274 Q 142.65,60.51915048741274 142.65,82.53915048741274" fill="#3275b4" filter="url(#organic)"/>
  </g>
</svg>