<svg xmlns="http://www.w3.org/2000/svg" viewBox="0 0 200 200" width="200" height="200">
  <defs>
    <filter id="organic" x="-5%" y="-5%" width="110%" height="110%">
    <feTurbulence type="fractalNoise" baseFrequency="0.04" numOctaves="3" seed="1" result="noise"/>
    <feDisplacementMap in="SourceGraphic" in2="noise" scale="2" xChannelSelector="R" yChannelSelector="G"/>
  </filter>
  </defs>
  <g>
    <path d="M 96.4,86.5547043328649 Q 95.4,128.27735216643245 95.68,170 L 104.32,170 Q 104.6,128.27735216643245 103.6,86.5547043328649 Z" fill="#78a6bd" filter="url(#organic)"/>
    <ellipse cx="100" cy="111.58829303300543" rx="5.4" ry="1.62" fill="none" stroke="currentColor" stroke-width="1.5" opacity="0.6"/>
    <path d="M 71.75999999999999,86.5547043328649 L 70.32,96.1547043328649 M 76.89454545454545,86.5547043328649 L 75.71636363636364,96.1547043328649 M 82.0290909090909,86.5547043328649 L 81.11272727272726,96.1547043328649 M 87.16363636363636,86.5547043328649 L 86.5090909090909,96.1547043328649 M 92.29818181818182,86.5547043328649 L 91.90545454545455,96.1547043328649 M 97.43272727272726,86.5547043328649 L 97.30181818181818,96.1547043328649 M 102.56727272727272,86.5547043328649 L 102.69818181818181,96.1547043328649 M 107.70181818181817,86.5547043328649 L 108.09454545454544,96.1547043328649 M 112.83636363636364,86.5547043328649 L 113.4909090909091,96.1547043328649 M 117.97090909090909,86.5547043328649 L 118.88727272727273,96.1547043328649 M 123.10545454545453,86.5547043328649 L 124.28363636363635,96.1547043328649 M 128.24,86.5547043328649 L 129.68,96.1547043328649" stroke="#78a6bd" stroke-width="0.8" fill="none" opacity="0.7"/>
    <path d="M 64.69999999999999,86.5547043328649 Q 64.69999999999999,79.3547043328649 100,76.9547043328649 Q 135.3,79.3547043328649 135.3,86.5547043328649" fill="#00858d" filter="url(#organic)"/>
  </g>
</svg>