<svg xmlns="http://www.w3.org/2000/svg" viewBox="0 0 200 200" width="200" height="200">
  <defs>
    <filter id="organic" x="-5%" y="-5%" width="110%" height="110%">
    <feTurbulence type="fractalNoise" baseFrequency="0.04" numOctaves="3" seed="1" result="noise"/>
    <feDisplacementMap in="SourceGraphic" in2="noise" scale="2" xChannelSelector="R" yChannelSelector="G"/>
  </filter>
  </defs>
  <g>
    <path d="M 92,84.83663635839159 Q 91,127.4183181791958 90.4,170 L 109.6,170 Q 109,127.4183181791958 108,84.83663635839159 Z" fill="#979bc4" filter="url(#organic)"/>
    <ellipse cx="100" cy="110.38564545087411" rx="12" ry="3.5999999999999996" fill="none" stroke="currentColor" stroke-width="1.5" opacity="0.6"/>
    <path d="M 60,84.83663635839159 L 57.183,103.61663635839159 M 63.47826086956522,84.83663635839159 L 60.90621739130435,103.61663635839159 M 66.95652173913044,84.83663635839159 L 64.6294347826087,103.61663635839159 M 70.43478260869566,84.83663635839159 L 68.35265217391304,103.61663635839159 M 73.91304347826087,84.83663635839159 L 72.0758695652174,103.61663635839159 M 77.3913043478261,84.83663635839159 L 75.79908695652175,103.61663635839159 M 80.86956521739131,84.83663635839159 L 79.5223043478261,103.61663635839159 M 84.34782608695653,84.83663635839159 L 83.24552173913044,103.61663635839159 M 87.82608695652173,84.83663635839159 L 86.96873913043478,103.61663635839159 M 91.30434782608695,84.83663635839159 L 90.69195652173913,103.61663635839159 M 94.78260869565219,84.83663635839159 L 94.41517391304349,103.61663635839159 M 98.2608695652174,84.83663635839159 L 98.13839130434783,103.61663635839159 M 101.73913043478261,84.83663635839159 L 101.86160869565218,103.61663635839159 M 105.21739130434783,84.83663635839159 L 105.58482608695653,103.61663635839159 M 108.69565217391306,84.83663635839159 L 109.30804347826088,103.61663635839159 M 112.17391304347827,84.83663635839159 L 113.03126086956522,103.61663635839159 M 115.65217391304347,84.83663635839159 L 116.75447826086956,103.61663635839159 M 119.13043478260869,84.83663635839159 L 120.4776956521739,103.61663635839159 M 122.6086956521739,84.83663635839159 L 124.20091304347825,103.61663635839159 M 126.08695652173913,84.83663635839159 L 127.9241304347826,103.61663635839159 M 129.56521739130437,84.83663635839159 L 131.64734782608699,103.61663635839159 M 133.04347826086956,84.83663635839159 L 135.3705652173913,103.61663635839159 M 136.5217391304348,84.83663635839159 L 139.09378260869568,103.61663635839159 M 140,84.83663635839159 L 142.817,103.61663635839159" stroke="#979bc4" stroke-width="0.8" fill="none" opacity="0.7"/>
    <path d="M 50,66.05663635839159 Q 65,84.83663635839159 100,75.44663635839159 Q 135,84.83663635839159 150,66.05663635839159" fill="#3275b4" filter="url(#organic)"/>
  </g>
</svg>