<svg xmlns="http://www.w3.org/2000/svg" viewBox="0 0 200 200" width="200" height="200">
  <defs>
    <filter id="organic" x="-5%" y="-5%" width="110%" height="110%">
    <feTurbulence type="fractalNoise" baseFrequency="0.04" numOctaves="3" seed="1" result="noise"/>
    <feDisplacementMap in="SourceGraphic" in2="noise" scale="2" xChannelSelector="R" yChannelSelector="G"/>
  </filter>
  </defs>
  <g>
    <path d="M 93.2,96.04077004102943 Q 92.2,133.0203850205147 91.84,170 L 108.16,170 Q 107.8,133.0203850205147 106.8,96.04077004102943 Z" fill="#979bc4" filter="url(#organic)"/>
    <ellipse cx="100" cy="118.2285390287206" rx="10.200000000000001" ry="3.06" fill="none" stroke="currentColor" stroke-width="1.5" opacity="0.6"/>
    <path d="M 60,96.04077004102943 L 58.155,108.34077004102943 M 63.47826086956522,96.04077004102943 L 61.793695652173916,108.34077004102943 M 66.95652173913044,96.04077004102943 L 65.43239130434783,108.34077004102943 M 70.43478260869566,96.04077004102943 L 69.07108695652174,108.34077004102943 M 73.91304347826087,96.04077004102943 L 72.70978260869566,108.34077004102943 M 77.3913043478261,96.04077004102943 L 76.34847826086957,108.34077004102943 M 80.86956521739131,96.04077004102943 L 79.98717391304349,108.34077004102943 M 84.34782608695653,96.04077004102943 L 83.6258695652174,108.34077004102943 M 87.82608695652173,96.04077004102943 L 87.2645652173913,108.34077004102943 M 91.30434782608695,96.04077004102943 L 90.90326086956522,108.34077004102943 M 94.78260869565219,96.04077004102943 L 94.54195652173914,108.34077004102943 M 98.2608695652174,96.04077004102943 L 98.18065217391306,108.34077004102943 M 101.73913043478261,96.04077004102943 L 101.81934782608695,108.34077004102943 M 105.21739130434783,96.04077004102943 L 105.45804347826088,108.34077004102943 M 108.69565217391306,96.04077004102943 L 109.0967391304348,108.34077004102943 M 112.17391304347827,96.04077004102943 L 112.7354347826087,108.34077004102943 M 115.65217391304347,96.04077004102943 L 116.3741304347826,108.34077004102943 M 119.13043478260869,96.04077004102943 L 120.01282608695651,108.34077004102943 M 122.6086956521739,96.04077004102943 L 123.65152173913043,108.34077004102943 M 126.08695652173913,96.04077004102943 L 127.29021739130434,108.34077004102943 M 129.56521739130437,96.04077004102943 L 130.92891304347827,108.34077004102943 M 133.04347826086956,96.04077004102943 L 134.56760869565218,108.34077004102943 M 136.5217391304348,96.04077004102943 L 138.20630434782612,108.34077004102943 M 140,96.04077004102943 L 141.845,108.34077004102943" stroke="#979bc4" stroke-width="0.8" fill="none" opacity="0.7"/>
    <path d="M 50,96.04077004102943 Q 50,86.81577004102942 100,83.74077004102944 Q 150,86.81577004102942 150,96.04077004102943" fill="#3275b4" filter="url(#organic)"/>
  </g>
</svg>