<svg xmlns="http://www.w3.org/2000/svg" viewBox="0 0 200 200" width="200" height="200">
  <defs>
    <filter id="organic" x="-5%" y="-5%" width="110%" height="110%">
    <feTurbulence type="fractalNoise" baseFrequency="0.04" numOctaves="3" seed="1" result="noise"/>
    <feDisplacementMap in="SourceGraphic" in2="noise" scale="2" xChannelSelector="R" yChannelSelector="G"/>
  </filter>
  </defs>
  <g>
    <path d="M 92,95.72754297272482 Q 91,132.8637714863624 90.4,170 L 109.6,170 Q 109,132.8637714863624 108,95.72754297272482 Z" fill="#979bc4" filter="url(#organic)"/>
    <ellipse cx="100" cy="118.00928008090737" rx="12" ry="3.5999999999999996" fill="none" stroke="currentColor" stroke-width="1.5" opacity="0.6"/>
    <path d="M 60,95.72754297272482 L 58.479,105.86754297272482 M 63.47826086956522,95.72754297272482 L 62.08952173913043,105.86754297272482 M 66.95652173913044,95.72754297272482 L 65.70004347826087,105.86754297272482 M 70.43478260869566,95.72754297272482 L 69.31056521739131,105.86754297272482 M 73.91304347826087,95.72754297272482 L 72.92108695652175,105.86754297272482 M 77.3913043478261,95.72754297272482 L 76.53160869565218,105.86754297272482 M 80.86956521739131,95.72754297272482 L 80.14213043478262,105.86754297272482 M 84.34782608695653,95.72754297272482 L 83.75265217391305,105.86754297272482 M 87.82608695652173,95.72754297272482 L 87.36317391304347,105.86754297272482 M 91.30434782608695,95.72754297272482 L 90.97369565217392,105.86754297272482 M 94.78260869565219,95.72754297272482 L 94.58421739130436,105.86754297272482 M 98.2608695652174,95.72754297272482 L 98.1947391304348,105.86754297272482 M 101.73913043478261,95.72754297272482 L 101.80526086956522,105.86754297272482 M 105.21739130434783,95.72754297272482 L 105.41578260869565,105.86754297272482 M 108.69565217391306,95.72754297272482 L 109.0263043478261,105.86754297272482 M 112.17391304347827,95.72754297272482 L 112.63682608695653,105.86754297272482 M 115.65217391304347,95.72754297272482 L 116.24734782608695,105.86754297272482 M 119.13043478260869,95.72754297272482 L 119.85786956521738,105.86754297272482 M 122.6086956521739,95.72754297272482 L 123.46839130434782,105.86754297272482 M 126.08695652173913,95.72754297272482 L 127.07891304347825,105.86754297272482 M 129.56521739130437,95.72754297272482 L 130.6894347826087,105.86754297272482 M 133.04347826086956,95.72754297272482 L 134.29995652173912,105.86754297272482 M 136.5217391304348,95.72754297272482 L 137.91047826086958,105.86754297272482 M 140,95.72754297272482 L 141.521,105.86754297272482" stroke="#979bc4" stroke-width="0.8" fill="none" opacity="0.7"/>
    <path d="M 50,95.72754297272482 Q 50,88.12254297272483 100,85.58754297272483 Q 150,88.12254297272483 150,95.72754297272482" fill="#3275b4" filter="url(#organic)"/>
  </g>
</svg>