<svg xmlns="http://www.w3.org/2000/svg" viewBox="0 0 200 200" width="200" height="200">
  <defs>
    <filter id="organic" x="-5%" y="-5%" width="110%" height="110%">
    <feTurbulence type="fractalNoise" baseFrequency="0.04" numOctaves="3" seed="1" result="noise"/>
    <feDisplacementMap in="SourceGraphic" in2="noise" scale="2" xChannelSelector="R" yChannelSelector="G"/>
  </filter>
  </defs>
  <g>
    <path d="M 92,91.16912350788274 Q 91,130.5845617539414 90.4,170 L 109.6,170 Q 109,130.5845617539414 108,91.16912350788274 Z" fill="#979bc4" filter="url(#organic)"/>
    <path d="M 60,91.16912350788274 L 58.398,101.84912350788275 M 63.47826086956522,91.16912350788274 L 62.015565217391305,101.84912350788275 M 66.95652173913044,91.16912350788274 L 65.63313043478261,101.84912350788275 M 70.43478260869566,91.16912350788274 L 69.25069565217392,101.84912350788275 M 73.91304347826087,91.16912350788274 L 72.86826086956522,101.84912350788275 M 77.3913043478261,91.16912350788274 L 76.48582608695652,101.84912350788275 M 80.86956521739131,91.16912350788274 L 80.10339130434784,101.84912350788275 M 84.34782608695653,91.16912350788274 L 83.72095652173914,101.84912350788275 M 87.82608695652173,91.16912350788274 L 87.33852173913043,101.84912350788275 M 91.30434782608695,91.16912350788274 L 90.95608695652173,101.84912350788275 M 94.78260869565219,91.16912350788274 L 94.57365217391306,101.84912350788275 M 98.2608695652174,91.16912350788274 L 98.19121739130436,101.84912350788275 M 101.73913043478261,91.16912350788274 L 101.80878260869565,101.84912350788275 M 105.21739130434783,91.16912350788274 L 105.42634782608695,101.84912350788275 M 108.69565217391306,91.16912350788274 L 109.04391304347828,101.84912350788275 M 112.17391304347827,91.16912350788274 L 112.66147826086957,101.84912350788275 M 115.65217391304347,91.16912350788274 L 116.27904347826086,101.84912350788275 M 119.13043478260869,91.16912350788274 L 119.89660869565216,101.84912350788275 M 122.6086956521739,91.16912350788274 L 123.51417391304348,101.84912350788275 M 126.08695652173913,91.16912350788274 L 127.13173913043478,101.84912350788275 M 129.56521739130437,91.16912350788274 L 130.74930434782613,101.84912350788275 M 133.04347826086956,91.16912350788274 L 134.3668695652174,101.84912350788275 M 136.5217391304348,91.16912350788274 L 137.98443478260873,101.84912350788275 M 140,91.16912350788274 L 141.602,101.84912350788275" stroke="#979bc4" stroke-width="0.8" fill="none" opacity="0.7"/>
    <path d="M 50,80.48912350788274 Q 65,91.16912350788274 100,85.82912350788274 Q 135,91.16912350788274 150,80.48912350788274" fill="#3275b4" filter="url(#organic)"/>
    <circle cx="75.0" cy="72.5" r="3" fill="white" opacity="0.85"/>
    <circle cx="115.0" cy="69.8" r="2.5" fill="white" opacity="0.85"/>
    <circle cx="95.0" cy="68.5" r="2" fill="white" opacity="0.85"/>
    <circle cx="130.0" cy="75.1" r="2" fill="white" opacity="0.85"/>
    <circle cx="70.0" cy="77.8" r="1.5" fill="white" opacity="0.85"/>
    <circle cx="105.0" cy="77.8" r="2.5" fill="white" opacity="0.85"/>
  </g>
</svg>