<svg xmlns="http://www.w3.org/2000/svg" viewBox="0 0 200 200" width="200" height="200">
  <defs>
    <filter id="organic" x="-5%" y="-5%" width="110%" height="110%">
    <feTurbulence type="fractalNoise" baseFrequency="0.04" numOctaves="3" seed="1" result="noise"/>
    <feDisplacementMap in="SourceGraphic" in2="noise" scale="2" xChannelSelector="R" yChannelSelector="G"/>
  </filter>
  </defs>
  <g>
    <path d="M 94.4,81.69593972591596 Q 93.4,125.84796986295798 93.28,170 L 106.72,170 Q 106.6,125.84796986295798 105.6,81.69593972591596 Z" fill="#979bc4" filter="url(#organic)"/>
    <ellipse cx="100" cy="108.18715780814117" rx="8.399999999999999" ry="2.5199999999999996" fill="none" stroke="currentColor" stroke-width="1.5" opacity="0.6"/>
    <path d="M 61.959999999999994,81.69593972591596 L 60.43899999999999,91.83593972591596 M 65.58285714285714,81.69593972591596 L 64.20671428571428,91.83593972591596 M 69.20571428571428,81.69593972591596 L 67.97442857142856,91.83593972591596 M 72.82857142857142,81.69593972591596 L 71.74214285714285,91.83593972591596 M 76.45142857142856,81.69593972591596 L 75.50985714285714,91.83593972591596 M 80.07428571428571,81.69593972591596 L 79.27757142857142,91.83593972591596 M 83.69714285714285,81.69593972591596 L 83.04528571428571,91.83593972591596 M 87.32,81.69593972591596 L 86.81299999999999,91.83593972591596 M 90.94285714285714,81.69593972591596 L 90.58071428571428,91.83593972591596 M 94.56571428571428,81.69593972591596 L 94.34842857142857,91.83593972591596 M 98.18857142857142,81.69593972591596 L 98.11614285714285,91.83593972591596 M 101.81142857142858,81.69593972591596 L 101.88385714285715,91.83593972591596 M 105.4342857142857,81.69593972591596 L 105.65157142857142,91.83593972591596 M 109.05714285714286,81.69593972591596 L 109.41928571428572,91.83593972591596 M 112.68,81.69593972591596 L 113.18700000000001,91.83593972591596 M 116.30285714285714,81.69593972591596 L 116.95471428571427,91.83593972591596 M 119.92571428571428,81.69593972591596 L 120.72242857142857,91.83593972591596 M 123.54857142857144,81.69593972591596 L 124.49014285714286,91.83593972591596 M 127.17142857142858,81.69593972591596 L 128.25785714285715,91.83593972591596 M 130.7942857142857,81.69593972591596 L 132.02557142857142,91.83593972591596 M 134.41714285714284,81.69593972591596 L 135.7932857142857,91.83593972591596 M 138.04000000000002,81.69593972591596 L 139.561,91.83593972591596" stroke="#979bc4" stroke-width="0.8" fill="none" opacity="0.7"/>
    <path d="M 52.449999999999996,81.69593972591596 Q 52.449999999999996,74.09093972591596 100,71.55593972591596 Q 147.55,74.09093972591596 147.55,81.69593972591596" fill="#3275b4" filter="url(#organic)"/>
  </g>
</svg>