<svg xmlns="http://www.w3.org/2000/svg" viewBox="0 0 200 200" width="200" height="200">
  <defs>
    <filter id="organic" x="-5%" y="-5%" width="110%" height="110%">
    <feTurbulence type="fractalNoise" baseFrequency="0.04" numOctaves="3" seed="1" result="noise"/>
    <feDisplacementMap in="SourceGraphic" in2="noise" scale="2" xChannelSelector="R" yChannelSelector="G"/>
  </filter>
  </defs>
  <g>
    <path d="M 95.6,92.55591304685808 Q 94.6,131.27795652342905 94.72,170 L 105.28,170 Q 105.4,131.27795652342905 104.4,92.55591304685808 Z" fill="#979bc4" filter="url(#organic)"/>
    <ellipse cx="100" cy="115.78913913280066" rx="6.6000000000000005" ry="1.98" fill="none" stroke="currentColor" stroke-width="1.5" opacity="0.6"/>
    <path d="M 67.84,92.55591304685808 L 66.319,102.69591304685808 M 72.128,92.55591304685808 L 70.8098,102.69591304685808 M 76.416,92.55591304685808 L 75.3006,102.69591304685808 M 80.70400000000001,92.55591304685808 L 79.79140000000001,102.69591304685808 M 84.992,92.55591304685808 L 84.2822,102.69591304685808 M 89.28,92.55591304685808 L 88.773,102.69591304685808 M 93.56800000000001,92.55591304685808 L 93.26380000000002,102.69591304685808 M 97.85600000000001,92.55591304685808 L 97.75460000000001,102.69591304685808 M 102.144,92.55591304685808 L 102.2454,102.69591304685808 M 106.43200000000002,92.55591304685808 L 106.73620000000001,102.69591304685808 M 110.72,92.55591304685808 L 111.227,102.69591304685808 M 115.00800000000001,92.55591304685808 L 115.71780000000001,102.69591304685808 M 119.29600000000002,92.55591304685808 L 120.20860000000002,102.69591304685808 M 123.584,92.55591304685808 L 124.6994,102.69591304685808 M 127.87200000000001,92.55591304685808 L 129.1902,102.69591304685808 M 132.16000000000003,92.55591304685808 L 133.681,102.69591304685808" stroke="#979bc4" stroke-width="0.8" fill="none" opacity="0.7"/>
    <path d="M 59.8,92.55591304685808 Q 59.8,84.95091304685809 100,82.4159130468581 Q 140.2,84.95091304685809 140.2,92.55591304685808" fill="#3275b4" filter="url(#organic)"/>
  </g>
</svg>