<svg xmlns="http://www.w3.org/2000/svg" viewBox="0 0 200 200" width="200" height="200">
  <defs>
    <filter id="organic" x="-5%" y="-5%" width="110%" height="110%">
    <feTurbulence type="fractalNoise" baseFrequency="0.04" numOctaves="3" seed="1" result="noise"/>
    <feDisplacementMap in="SourceGraphic" in2="noise" scale="2" xChannelSelector="R" yChannelSelector="G"/>
  </filter>
  </defs>
  <g>
    <path d="M 92,118.18181818181819 Q 91,144.0909090909091 90.4,170 L 109.6,170 Q 109,144.0909090909091 108,118.18181818181819 Z" fill="#73aba3" filter="url(#organic)"/>
    <ellipse cx="100" cy="133.72727272727272" rx="12" ry="3.5999999999999996" fill="none" stroke="currentColor" stroke-width="1.5" opacity="0.6"/>
    <path d="M 60,118.18181818181819 L 58.56,127.78181818181818 M 63.47826086956522,118.18181818181819 L 62.16347826086957,127.78181818181818 M 66.95652173913044,118.18181818181819 L 65.76695652173913,127.78181818181818 M 70.43478260869566,118.18181818181819 L 69.3704347826087,127.78181818181818 M 73.91304347826087,118.18181818181819 L 72.97391304347826,127.78181818181818 M 77.3913043478261,118.18181818181819 L 76.57739130434783,127.78181818181818 M 80.86956521739131,118.18181818181819 L 80.18086956521739,127.78181818181818 M 84.34782608695653,118.18181818181819 L 83.78434782608697,127.78181818181818 M 87.82608695652173,118.18181818181819 L 87.38782608695652,127.78181818181818 M 91.30434782608695,118.18181818181819 L 90.99130434782609,127.78181818181818 M 94.78260869565219,118.18181818181819 L 94.59478260869567,127.78181818181818 M 98.2608695652174,118.18181818181819 L 98.19826086956523,127.78181818181818 M 101.73913043478261,118.18181818181819 L 101.80173913043478,127.78181818181818 M 105.21739130434783,118.18181818181819 L 105.40521739130435,127.78181818181818 M 108.69565217391306,118.18181818181819 L 109.00869565217393,127.78181818181818 M 112.17391304347827,118.18181818181819 L 112.61217391304348,127.78181818181818 M 115.65217391304347,118.18181818181819 L 116.21565217391303,127.78181818181818 M 119.13043478260869,118.18181818181819 L 119.81913043478261,127.78181818181818 M 122.6086956521739,118.18181818181819 L 123.42260869565217,127.78181818181818 M 126.08695652173913,118.18181818181819 L 127.02608695652174,127.78181818181818 M 129.56521739130437,118.18181818181819 L 130.62956521739133,127.78181818181818 M 133.04347826086956,118.18181818181819 L 134.23304347826087,127.78181818181818 M 136.5217391304348,118.18181818181819 L 137.83652173913046,127.78181818181818 M 140,118.18181818181819 L 141.44,127.78181818181818" stroke="#73aba3" stroke-width="0.8" fill="none" opacity="0.7"/>
    <path d="M 50,118.18181818181819 Q 60,101.38181818181819 100,94.18181818181819 Q 140,101.38181818181819 150,118.18181818181819" fill="#258651" filter="url(#organic)"/>
  </g>
</svg>