<svg xmlns="http://www.w3.org/2000/svg" viewBox="0 0 200 200" width="200" height="200">
  <defs>
    <filter id="organic" x="-5%" y="-5%" width="110%" height="110%">
    <feTurbulence type="fractalNoise" baseFrequency="0.04" numOctaves="3" seed="1" result="noise"/>
    <feDisplacementMap in="SourceGraphic" in2="noise" scale="2" xChannelSelector="R" yChannelSelector="G"/>
  </filter>
  </defs>
  <g>
    <path d="M 95.2,81.90047500529334 Q 94.2,125.95023750264667 94.24,170 L 105.76,170 Q 105.8,125.95023750264667 104.8,81.90047500529334 Z" fill="#979bc4" filter="url(#organic)"/>
    <ellipse cx="100" cy="108.33033250370534" rx="7.199999999999999" ry="2.1599999999999997" fill="none" stroke="currentColor" stroke-width="1.5" opacity="0.6"/>
    <path d="M 65.88,81.90047500529334 L 62.279999999999994,105.90047500529334 M 69.89411764705882,81.90047500529334 L 66.71764705882353,105.90047500529334 M 73.90823529411765,81.90047500529334 L 71.15529411764706,105.90047500529334 M 77.92235294117647,81.90047500529334 L 75.59294117647059,105.90047500529334 M 81.9364705882353,81.90047500529334 L 80.03058823529412,105.90047500529334 M 85.95058823529412,81.90047500529334 L 84.46823529411765,105.90047500529334 M 89.96470588235294,81.90047500529334 L 88.90588235294118,105.90047500529334 M 93.97882352941176,81.90047500529334 L 93.34352941176469,105.90047500529334 M 97.9929411764706,81.90047500529334 L 97.78117647058824,105.90047500529334 M 102.0070588235294,81.90047500529334 L 102.21882352941176,105.90047500529334 M 106.02117647058824,81.90047500529334 L 106.65647058823531,105.90047500529334 M 110.03529411764706,81.90047500529334 L 111.09411764705882,105.90047500529334 M 114.0494117647059,81.90047500529334 L 115.53176470588237,105.90047500529334 M 118.0635294117647,81.90047500529334 L 119.96941176470588,105.90047500529334 M 122.07764705882353,81.90047500529334 L 124.40705882352941,105.90047500529334 M 126.09176470588235,81.90047500529334 L 128.84470588235294,105.90047500529334 M 130.1058823529412,81.90047500529334 L 133.2823529411765,105.90047500529334 M 134.12,81.90047500529334 L 137.72,105.90047500529334" stroke="#979bc4" stroke-width="0.8" fill="none" opacity="0.7"/>
    <path d="M 57.349999999999994,81.90047500529334 Q 57.349999999999994,57.900475005293345 87.205,45.900475005293345 L 100,21.900475005293345 L 112.795,45.900475005293345 Q 142.65,57.900475005293345 142.65,81.90047500529334" fill="#3275b4" filter="url(#organic)"/>
  </g>
</svg>