<svg xmlns="http://www.w3.org/2000/svg" viewBox="0 0 200 200" width="200" height="200">
  <defs>
    <filter id="organic" x="-5%" y="-5%" width="110%" height="110%">
    <feTurbulence type="fractalNoise" baseFrequency="0.04" numOctaves="3" seed="1" result="noise"/>
    <feDisplacementMap in="SourceGraphic" in2="noise" scale="2" xChannelSelector="R" yChannelSelector="G"/>
  </filter>
  </defs>
  <g>
    <path d="M 95.2,93.76325814823213 Q 94.2,131.88162907411606 94.24,170 L 105.76,170 Q 105.8,131.88162907411606 104.8,93.76325814823213 Z" fill="#979bc4" filter="url(#organic)"/>
    <ellipse cx="100" cy="116.63428070376249" rx="7.199999999999999" ry="2.1599999999999997" fill="none" stroke="currentColor" stroke-width="1.5" opacity="0.6"/>
    <path d="M 65.88,93.76325814823213 L 64.116,105.52325814823213 M 69.89411764705882,93.76325814823213 L 68.33764705882352,105.52325814823213 M 73.90823529411765,93.76325814823213 L 72.55929411764706,105.52325814823213 M 77.92235294117647,93.76325814823213 L 76.78094117647059,105.52325814823213 M 81.9364705882353,93.76325814823213 L 81.00258823529411,105.52325814823213 M 85.95058823529412,93.76325814823213 L 85.22423529411765,105.52325814823213 M 89.96470588235294,93.76325814823213 L 89.44588235294118,105.52325814823213 M 93.97882352941176,93.76325814823213 L 93.66752941176469,105.52325814823213 M 97.9929411764706,93.76325814823213 L 97.88917647058824,105.52325814823213 M 102.0070588235294,93.76325814823213 L 102.11082352941176,105.52325814823213 M 106.02117647058824,93.76325814823213 L 106.33247058823531,105.52325814823213 M 110.03529411764706,93.76325814823213 L 110.55411764705882,105.52325814823213 M 114.0494117647059,93.76325814823213 L 114.77576470588237,105.52325814823213 M 118.0635294117647,93.76325814823213 L 118.99741176470589,105.52325814823213 M 122.07764705882353,93.76325814823213 L 123.21905882352941,105.52325814823213 M 126.09176470588235,93.76325814823213 L 127.44070588235294,105.52325814823213 M 130.1058823529412,93.76325814823213 L 131.6623529411765,105.52325814823213 M 134.12,93.76325814823213 L 135.88400000000001,105.52325814823213" stroke="#979bc4" stroke-width="0.8" fill="none" opacity="0.7"/>
    <path d="M 57.349999999999994,93.76325814823213 Q 57.349999999999994,84.94325814823212 100,82.00325814823212 Q 142.65,84.94325814823212 142.65,93.76325814823213" fill="#3275b4" filter="url(#organic)"/>
  </g>
</svg>