<svg xmlns="http://www.w3.org/2000/svg" viewBox="0 0 200 200" width="200" height="200">
  <defs>
    <filter id="organic" x="-5%" y="-5%" width="110%" height="110%">
    <feTurbulence type="fractalNoise" baseFrequency="0.04" numOctaves="3" seed="1" result="noise"/>
    <feDisplacementMap in="SourceGraphic" in2="noise" scale="2" xChannelSelector="R" yChannelSelector="G"/>
  </filter>
  </defs>
  <g>
    <path d="M 96,91.47327024020731 Q 95,130.73663512010364 95.2,170 L 104.8,170 Q 105,130.73663512010364 104,91.47327024020731 Z" fill="#78a6bd" filter="url(#organic)"/>
    <ellipse cx="100" cy="115.03128916814512" rx="6" ry="1.7999999999999998" fill="none" stroke="currentColor" stroke-width="1.5" opacity="0.6"/>
    <path d="M 69.8,91.47327024020731 L 68.36,101.07327024020731 M 74.44615384615385,91.47327024020731 L 73.22769230769231,101.07327024020731 M 79.09230769230768,91.47327024020731 L 78.0953846153846,101.07327024020731 M 83.73846153846154,91.47327024020731 L 82.96307692307693,101.07327024020731 M 88.38461538461539,91.47327024020731 L 87.83076923076923,101.07327024020731 M 93.03076923076924,91.47327024020731 L 92.69846153846154,101.07327024020731 M 97.67692307692307,91.47327024020731 L 97.56615384615384,101.07327024020731 M 102.32307692307691,91.47327024020731 L 102.43384615384615,101.07327024020731 M 106.96923076923076,91.47327024020731 L 107.30153846153846,101.07327024020731 M 111.61538461538461,91.47327024020731 L 112.16923076923077,101.07327024020731 M 116.26153846153846,91.47327024020731 L 117.03692307692307,101.07327024020731 M 120.90769230769232,91.47327024020731 L 121.9046153846154,101.07327024020731 M 125.55384615384615,91.47327024020731 L 126.77230769230769,101.07327024020731 M 130.2,91.47327024020731 L 131.64,101.07327024020731" stroke="#78a6bd" stroke-width="0.8" fill="none" opacity="0.7"/>
    <path d="M 62.25,91.47327024020731 Q 62.25,84.27327024020731 100,81.87327024020732 Q 137.75,84.27327024020731 137.75,91.47327024020731" fill="#00858d" filter="url(#organic)"/>
  </g>
</svg>