<svg xmlns="http://www.w3.org/2000/svg" viewBox="0 0 200 200" width="200" height="200">
  <defs>
    <filter id="organic" x="-5%" y="-5%" width="110%" height="110%">
    <feTurbulence type="fractalNoise" baseFrequency="0.04" numOctaves="3" seed="1" result="noise"/>
    <feDisplacementMap in="SourceGraphic" in2="noise" scale="2" xChannelSelector="R" yChannelSelector="G"/>
  </filter>
  </defs>
  <g>
    <path d="M 92,101.03598542095939 Q 91,135.5179927104797 90.4,170 L 109.6,170 Q 109,135.5179927104797 108,101.03598542095939 Z" fill="#979bc4" filter="url(#organic)"/>
    <path d="M 60,101.03598542095939 L 58.074,113.8759854209594 M 63.47826086956522,101.03598542095939 L 61.71973913043478,113.8759854209594 M 66.95652173913044,101.03598542095939 L 65.36547826086957,113.8759854209594 M 70.43478260869566,101.03598542095939 L 69.01121739130436,113.8759854209594 M 73.91304347826087,101.03598542095939 L 72.65695652173913,113.8759854209594 M 77.3913043478261,101.03598542095939 L 76.30269565217392,113.8759854209594 M 80.86956521739131,101.03598542095939 L 79.9484347826087,113.8759854209594 M 84.34782608695653,101.03598542095939 L 83.59417391304349,113.8759854209594 M 87.82608695652173,101.03598542095939 L 87.23991304347825,113.8759854209594 M 91.30434782608695,101.03598542095939 L 90.88565217391304,113.8759854209594 M 94.78260869565219,101.03598542095939 L 94.53139130434784,113.8759854209594 M 98.2608695652174,101.03598542095939 L 98.17713043478263,113.8759854209594 M 101.73913043478261,101.03598542095939 L 101.82286956521739,113.8759854209594 M 105.21739130434783,101.03598542095939 L 105.46860869565218,113.8759854209594 M 108.69565217391306,101.03598542095939 L 109.11434782608697,113.8759854209594 M 112.17391304347827,101.03598542095939 L 112.76008695652175,113.8759854209594 M 115.65217391304347,101.03598542095939 L 116.40582608695651,113.8759854209594 M 119.13043478260869,101.03598542095939 L 120.0515652173913,113.8759854209594 M 122.6086956521739,101.03598542095939 L 123.69730434782608,113.8759854209594 M 126.08695652173913,101.03598542095939 L 127.34304347826087,113.8759854209594 M 129.56521739130437,101.03598542095939 L 130.9887826086957,113.8759854209594 M 133.04347826086956,101.03598542095939 L 134.63452173913043,113.8759854209594 M 136.5217391304348,101.03598542095939 L 138.28026086956524,113.8759854209594 M 140,101.03598542095939 L 141.926,113.8759854209594" stroke="#979bc4" stroke-width="0.8" fill="none" opacity="0.7"/>
    <path d="M 50,88.19598542095939 Q 65,101.03598542095938 100,94.61598542095939 Q 135,101.03598542095938 150,88.19598542095939" fill="#3275b4" filter="url(#organic)"/>
    <circle cx="75.0" cy="78.6" r="3" fill="white" opacity="0.85"/>
    <circle cx="115.0" cy="75.4" r="2.5" fill="white" opacity="0.85"/>
    <circle cx="95.0" cy="73.8" r="2" fill="white" opacity="0.85"/>
    <circle cx="130.0" cy="81.8" r="2" fill="white" opacity="0.85"/>
    <circle cx="70.0" cy="85.0" r="1.5" fill="white" opacity="0.85"/>
    <circle cx="105.0" cy="85.0" r="2.5" fill="white" opacity="0.85"/>
  </g>
</svg>