<svg xmlns="http://www.w3.org/2000/svg" viewBox="0 0 200 200" width="200" height="200">
  <defs>
    <filter id="organic" x="-5%" y="-5%" width="110%" height="110%">
    <feTurbulence type="fractalNoise" baseFrequency="0.04" numOctaves="3" seed="1" result="noise"/>
    <feDisplacementMap in="SourceGraphic" in2="noise" scale="2" xChannelSelector="R" yChannelSelector="G"/>
  </filter>
  </defs>
  <g>
    <path d="M 92,89.68099463800294 Q 91,129.84049731900149 90.4,170 L 109.6,170 Q 109,129.84049731900149 108,89.68099463800294 Z" fill="#979bc4" filter="url(#organic)"/>
    <ellipse cx="100" cy="113.77669624660206" rx="12" ry="3.5999999999999996" fill="none" stroke="currentColor" stroke-width="1.5" opacity="0.6"/>
    <path d="M 60,89.68099463800294 L 57.831,104.14099463800295 M 63.47826086956522,89.68099463800294 L 61.49786956521739,104.14099463800295 M 66.95652173913044,89.68099463800294 L 65.16473913043478,104.14099463800295 M 70.43478260869566,89.68099463800294 L 68.83160869565218,104.14099463800295 M 73.91304347826087,89.68099463800294 L 72.49847826086958,104.14099463800295 M 77.3913043478261,89.68099463800294 L 76.16534782608696,104.14099463800295 M 80.86956521739131,89.68099463800294 L 79.83221739130435,104.14099463800295 M 84.34782608695653,89.68099463800294 L 83.49908695652175,104.14099463800295 M 87.82608695652173,89.68099463800294 L 87.16595652173912,104.14099463800295 M 91.30434782608695,89.68099463800294 L 90.83282608695652,104.14099463800295 M 94.78260869565219,89.68099463800294 L 94.49969565217393,104.14099463800295 M 98.2608695652174,89.68099463800294 L 98.16656521739132,104.14099463800295 M 101.73913043478261,89.68099463800294 L 101.83343478260869,104.14099463800295 M 105.21739130434783,89.68099463800294 L 105.50030434782609,104.14099463800295 M 108.69565217391306,89.68099463800294 L 109.1671739130435,104.14099463800295 M 112.17391304347827,89.68099463800294 L 112.83404347826088,104.14099463800295 M 115.65217391304347,89.68099463800294 L 116.50091304347825,104.14099463800295 M 119.13043478260869,89.68099463800294 L 120.16778260869565,104.14099463800295 M 122.6086956521739,89.68099463800294 L 123.83465217391304,104.14099463800295 M 126.08695652173913,89.68099463800294 L 127.50152173913042,104.14099463800295 M 129.56521739130437,89.68099463800294 L 131.16839130434786,104.14099463800295 M 133.04347826086956,89.68099463800294 L 134.83526086956522,104.14099463800295 M 136.5217391304348,89.68099463800294 L 138.50213043478263,104.14099463800295 M 140,89.68099463800294 L 142.169,104.14099463800295" stroke="#979bc4" stroke-width="0.8" fill="none" opacity="0.7"/>
    <path d="M 50,53.53099463800294 Q 65,71.60599463800294 100,89.68099463800294 Q 135,71.60599463800294 150,53.53099463800294" fill="#3275b4" filter="url(#organic)"/>
  </g>
</svg>