<svg xmlns="http://www.w3.org/2000/svg" viewBox="0 0 200 200" width="200" height="200">
  <defs>
    <filter id="organic" x="-5%" y="-5%" width="110%" height="110%">
    <feTurbulence type="fractalNoise" baseFrequency="0.04" numOctaves="3" seed="1" result="noise"/>
    <feDisplacementMap in="SourceGraphic" in2="noise" scale="2" xChannelSelector="R" yChannelSelector="G"/>
  </filter>
  </defs>
  <g>
    <path d="M 93.6,77.86885948905282 Q 92.6,123.93442974452641 92.32000000000001,170 L 107.67999999999999,170 Q 107.4,123.93442974452641 106.4,77.86885948905282 Z" fill="#979bc4" filter="url(#organic)"/>
    <path d="M 60,77.86885948905282 L 57.021,97.72885948905282 M 63.47826086956522,77.86885948905282 L 60.75830434782609,97.72885948905282 M 66.95652173913044,77.86885948905282 L 64.49560869565218,97.72885948905282 M 70.43478260869566,77.86885948905282 L 68.23291304347826,97.72885948905282 M 73.91304347826087,77.86885948905282 L 71.97021739130436,97.72885948905282 M 77.3913043478261,77.86885948905282 L 75.70752173913044,97.72885948905282 M 80.86956521739131,77.86885948905282 L 79.44482608695652,97.72885948905282 M 84.34782608695653,77.86885948905282 L 83.18213043478262,97.72885948905282 M 87.82608695652173,77.86885948905282 L 86.91943478260869,97.72885948905282 M 91.30434782608695,77.86885948905282 L 90.65673913043479,97.72885948905282 M 94.78260869565219,77.86885948905282 L 94.39404347826088,97.72885948905282 M 98.2608695652174,77.86885948905282 L 98.13134782608697,97.72885948905282 M 101.73913043478261,77.86885948905282 L 101.86865217391305,97.72885948905282 M 105.21739130434783,77.86885948905282 L 105.60595652173913,97.72885948905282 M 108.69565217391306,77.86885948905282 L 109.34326086956524,97.72885948905282 M 112.17391304347827,77.86885948905282 L 113.08056521739131,97.72885948905282 M 115.65217391304347,77.86885948905282 L 116.81786956521738,97.72885948905282 M 119.13043478260869,77.86885948905282 L 120.55517391304348,97.72885948905282 M 122.6086956521739,77.86885948905282 L 124.29247826086956,97.72885948905282 M 126.08695652173913,77.86885948905282 L 128.02978260869565,97.72885948905282 M 129.56521739130437,77.86885948905282 L 131.76708695652175,97.72885948905282 M 133.04347826086956,77.86885948905282 L 135.50439130434782,97.72885948905282 M 136.5217391304348,77.86885948905282 L 139.24169565217395,97.72885948905282 M 140,77.86885948905282 L 142.979,97.72885948905282" stroke="#979bc4" stroke-width="0.8" fill="none" opacity="0.7"/>
    <path d="M 50,58.008859489052824 Q 65,77.86885948905282 100,67.93885948905282 Q 135,77.86885948905282 150,58.008859489052824" fill="#3275b4" filter="url(#organic)"/>
    <circle cx="75.0" cy="43.1" r="3" fill="white" opacity="0.85"/>
    <circle cx="115.0" cy="38.1" r="2.5" fill="white" opacity="0.85"/>
    <circle cx="95.0" cy="35.7" r="2" fill="white" opacity="0.85"/>
    <circle cx="130.0" cy="48.1" r="2" fill="white" opacity="0.85"/>
    <circle cx="70.0" cy="53.0" r="1.5" fill="white" opacity="0.85"/>
    <circle cx="105.0" cy="53.0" r="2.5" fill="white" opacity="0.85"/>
  </g>
</svg>