<svg xmlns="http://www.w3.org/2000/svg" viewBox="0 0 200 200" width="200" height="200">
  <defs>
    <filter id="organic" x="-5%" y="-5%" width="110%" height="110%">
    <feTurbulence type="fractalNoise" baseFrequency="0.04" numOctaves="3" seed="1" result="noise"/>
    <feDisplacementMap in="SourceGraphic" in2="noise" scale="2" xChannelSelector="R" yChannelSelector="G"/>
  </filter>
  </defs>
  <g>
    <path d="M 97.2,83.50411400162236 Q 96.2,126.75205700081118 96.64,170 L 103.36,170 Q 103.8,126.75205700081118 102.8,83.50411400162236 Z" fill="#979bc4" filter="url(#organic)"/>
    <path d="M 75.68,83.50411400162236 L 73.91600000000001,95.26411400162236 M 82.62857142857143,83.50411400162236 L 81.36857142857143,95.26411400162236 M 89.57714285714286,83.50411400162236 L 88.82114285714286,95.26411400162236 M 96.52571428571429,83.50411400162236 L 96.27371428571429,95.26411400162236 M 103.47428571428571,83.50411400162236 L 103.72628571428571,95.26411400162236 M 110.42285714285715,83.50411400162236 L 111.17885714285715,95.26411400162236 M 117.37142857142857,83.50411400162236 L 118.63142857142857,95.26411400162236 M 124.32000000000001,83.50411400162236 L 126.084,95.26411400162236" stroke="#979bc4" stroke-width="0.8" fill="none" opacity="0.7"/>
    <path d="M 69.6,83.50411400162236 Q 69.6,74.68411400162236 100,71.74411400162235 Q 130.4,74.68411400162236 130.4,83.50411400162236" fill="#3275b4" filter="url(#organic)"/>
  </g>
</svg>