<svg xmlns="http://www.w3.org/2000/svg" viewBox="0 0 200 200" width="200" height="200">
  <defs>
    <filter id="organic" x="-5%" y="-5%" width="110%" height="110%">
    <feTurbulence type="fractalNoise" baseFrequency="0.04" numOctaves="3" seed="1" result="noise"/>
    <feDisplacementMap in="SourceGraphic" in2="noise" scale="2" xChannelSelector="R" yChannelSelector="G"/>
  </filter>
  </defs>
  <g>
    <path d="M 92,90.30625444243825 Q 91,130.1531272212191 90.4,170 L 109.6,170 Q 109,130.1531272212191 108,90.30625444243825 Z" fill="#979bc4" filter="url(#organic)"/>
    <path d="M 60,90.30625444243825 L 58.479,100.44625444243825 M 63.47826086956522,90.30625444243825 L 62.08952173913043,100.44625444243825 M 66.95652173913044,90.30625444243825 L 65.70004347826087,100.44625444243825 M 70.43478260869566,90.30625444243825 L 69.31056521739131,100.44625444243825 M 73.91304347826087,90.30625444243825 L 72.92108695652175,100.44625444243825 M 77.3913043478261,90.30625444243825 L 76.53160869565218,100.44625444243825 M 80.86956521739131,90.30625444243825 L 80.14213043478262,100.44625444243825 M 84.34782608695653,90.30625444243825 L 83.75265217391305,100.44625444243825 M 87.82608695652173,90.30625444243825 L 87.36317391304347,100.44625444243825 M 91.30434782608695,90.30625444243825 L 90.97369565217392,100.44625444243825 M 94.78260869565219,90.30625444243825 L 94.58421739130436,100.44625444243825 M 98.2608695652174,90.30625444243825 L 98.1947391304348,100.44625444243825 M 101.73913043478261,90.30625444243825 L 101.80526086956522,100.44625444243825 M 105.21739130434783,90.30625444243825 L 105.41578260869565,100.44625444243825 M 108.69565217391306,90.30625444243825 L 109.0263043478261,100.44625444243825 M 112.17391304347827,90.30625444243825 L 112.63682608695653,100.44625444243825 M 115.65217391304347,90.30625444243825 L 116.24734782608695,100.44625444243825 M 119.13043478260869,90.30625444243825 L 119.85786956521738,100.44625444243825 M 122.6086956521739,90.30625444243825 L 123.46839130434782,100.44625444243825 M 126.08695652173913,90.30625444243825 L 127.07891304347825,100.44625444243825 M 129.56521739130437,90.30625444243825 L 130.6894347826087,100.44625444243825 M 133.04347826086956,90.30625444243825 L 134.29995652173912,100.44625444243825 M 136.5217391304348,90.30625444243825 L 137.91047826086958,100.44625444243825 M 140,90.30625444243825 L 141.521,100.44625444243825" stroke="#979bc4" stroke-width="0.8" fill="none" opacity="0.7"/>
    <path d="M 50,80.16625444243826 Q 65,90.30625444243825 100,85.23625444243825 Q 135,90.30625444243825 150,80.16625444243826" fill="#3275b4" filter="url(#organic)"/>
    <circle cx="75.0" cy="72.6" r="3" fill="white" opacity="0.85"/>
    <circle cx="115.0" cy="70.0" r="2.5" fill="white" opacity="0.85"/>
    <circle cx="95.0" cy="68.8" r="2" fill="white" opacity="0.85"/>
    <circle cx="130.0" cy="75.1" r="2" fill="white" opacity="0.85"/>
    <circle cx="70.0" cy="77.6" r="1.5" fill="white" opacity="0.85"/>
    <circle cx="105.0" cy="77.6" r="2.5" fill="white" opacity="0.85"/>
  </g>
</svg>