<svg xmlns="http://www.w3.org/2000/svg" viewBox="0 0 200 200" width="200" height="200">
  <defs>
    <filter id="organic" x="-5%" y="-5%" width="110%" height="110%">
    <feTurbulence type="fractalNoise" baseFrequency="0.04" numOctaves="3" seed="1" result="noise"/>
    <feDisplacementMap in="SourceGraphic" in2="noise" scale="2" xChannelSelector="R" yChannelSelector="G"/>
  </filter>
  </defs>
  <g>
    <path d="M 96.4,79.84390525160455 Q 95.4,124.92195262580228 95.68,170 L 104.32,170 Q 104.6,124.92195262580228 103.6,79.84390525160455 Z" fill="#78a6bd" filter="url(#organic)"/>
    <ellipse cx="100" cy="106.89073367612319" rx="5.4" ry="1.62" fill="none" stroke="currentColor" stroke-width="1.5" opacity="0.6"/>
    <path d="M 71.75999999999999,79.84390525160455 L 70.32,89.44390525160455 M 76.89454545454545,79.84390525160455 L 75.71636363636364,89.44390525160455 M 82.0290909090909,79.84390525160455 L 81.11272727272726,89.44390525160455 M 87.16363636363636,79.84390525160455 L 86.5090909090909,89.44390525160455 M 92.29818181818182,79.84390525160455 L 91.90545454545455,89.44390525160455 M 97.43272727272726,79.84390525160455 L 97.30181818181818,89.44390525160455 M 102.56727272727272,79.84390525160455 L 102.69818181818181,89.44390525160455 M 107.70181818181817,79.84390525160455 L 108.09454545454544,89.44390525160455 M 112.83636363636364,79.84390525160455 L 113.4909090909091,89.44390525160455 M 117.97090909090909,79.84390525160455 L 118.88727272727273,89.44390525160455 M 123.10545454545453,79.84390525160455 L 124.28363636363635,89.44390525160455 M 128.24,79.84390525160455 L 129.68,89.44390525160455" stroke="#78a6bd" stroke-width="0.8" fill="none" opacity="0.7"/>
    <path d="M 64.69999999999999,79.84390525160455 Q 64.69999999999999,72.64390525160455 100,70.24390525160456 Q 135.3,72.64390525160455 135.3,79.84390525160455" fill="#00858d" filter="url(#organic)"/>
  </g>
</svg>