<svg xmlns="http://www.w3.org/2000/svg" viewBox="0 0 200 200" width="200" height="200">
  <defs>
    <filter id="organic" x="-5%" y="-5%" width="110%" height="110%">
    <feTurbulence type="fractalNoise" baseFrequency="0.04" numOctaves="3" seed="1" result="noise"/>
    <feDisplacementMap in="SourceGraphic" in2="noise" scale="2" xChannelSelector="R" yChannelSelector="G"/>
  </filter>
  </defs>
  <g>
    <path d="M 92,86.23769147069993 Q 91,128.11884573534996 90.4,170 L 109.6,170 Q 109,128.11884573534996 108,86.23769147069993 Z" fill="#979bc4" filter="url(#organic)"/>
    <ellipse cx="100" cy="111.36638402948995" rx="12" ry="3.5999999999999996" fill="none" stroke="currentColor" stroke-width="1.5" opacity="0.6"/>
    <path d="M 60,86.23769147069993 L 57.993,99.61769147069992 M 63.47826086956522,86.23769147069993 L 61.645782608695654,99.61769147069992 M 66.95652173913044,86.23769147069993 L 65.29856521739131,99.61769147069992 M 70.43478260869566,86.23769147069993 L 68.95134782608696,99.61769147069992 M 73.91304347826087,86.23769147069993 L 72.60413043478262,99.61769147069992 M 77.3913043478261,86.23769147069993 L 76.25691304347826,99.61769147069992 M 80.86956521739131,86.23769147069993 L 79.90969565217392,99.61769147069992 M 84.34782608695653,86.23769147069993 L 83.56247826086957,99.61769147069992 M 87.82608695652173,86.23769147069993 L 87.21526086956521,99.61769147069992 M 91.30434782608695,86.23769147069993 L 90.86804347826087,99.61769147069992 M 94.78260869565219,86.23769147069993 L 94.52082608695653,99.61769147069992 M 98.2608695652174,86.23769147069993 L 98.17360869565219,99.61769147069992 M 101.73913043478261,86.23769147069993 L 101.82639130434782,99.61769147069992 M 105.21739130434783,86.23769147069993 L 105.47917391304348,99.61769147069992 M 108.69565217391306,86.23769147069993 L 109.13195652173914,99.61769147069992 M 112.17391304347827,86.23769147069993 L 112.78473913043479,99.61769147069992 M 115.65217391304347,86.23769147069993 L 116.43752173913043,99.61769147069992 M 119.13043478260869,86.23769147069993 L 120.09030434782608,99.61769147069992 M 122.6086956521739,86.23769147069993 L 123.74308695652174,99.61769147069992 M 126.08695652173913,86.23769147069993 L 127.39586956521738,99.61769147069992 M 129.56521739130437,86.23769147069993 L 131.04865217391307,99.61769147069992 M 133.04347826086956,86.23769147069993 L 134.7014347826087,99.61769147069992 M 136.5217391304348,86.23769147069993 L 138.3542173913044,99.61769147069992 M 140,86.23769147069993 L 142.007,99.61769147069992" stroke="#979bc4" stroke-width="0.8" fill="none" opacity="0.7"/>
    <path d="M 50,72.85769147069993 Q 65,86.23769147069993 100,79.54769147069993 Q 135,86.23769147069993 150,72.85769147069993" fill="#3275b4" filter="url(#organic)"/>
  </g>
</svg>