<svg xmlns="http://www.w3.org/2000/svg" viewBox="0 0 200 200" width="200" height="200">
  <defs>
    <filter id="organic" x="-5%" y="-5%" width="110%" height="110%">
    <feTurbulence type="fractalNoise" baseFrequency="0.04" numOctaves="3" seed="1" result="noise"/>
    <feDisplacementMap in="SourceGraphic" in2="noise" scale="2" xChannelSelector="R" yChannelSelector="G"/>
  </filter>
  </defs>
  <g>
    <path d="M 96.4,116.94599998951045 Q 95.4,143.47299999475524 95.68,170 L 104.32,170 Q 104.6,143.47299999475524 103.6,116.94599998951045 Z" fill="#979bc4" filter="url(#organic)"/>
    <ellipse cx="100" cy="132.8621999926573" rx="5.4" ry="1.62" fill="none" stroke="currentColor" stroke-width="1.5" opacity="0.6"/>
    <path d="M 71.75999999999999,116.94599998951045 L 70.23899999999999,127.08599998951046 M 76.89454545454545,116.94599998951045 L 75.6500909090909,127.08599998951046 M 82.0290909090909,116.94599998951045 L 81.06118181818181,127.08599998951046 M 87.16363636363636,116.94599998951045 L 86.47227272727272,127.08599998951046 M 92.29818181818182,116.94599998951045 L 91.88336363636364,127.08599998951046 M 97.43272727272726,116.94599998951045 L 97.29445454545454,127.08599998951046 M 102.56727272727272,116.94599998951045 L 102.70554545454544,127.08599998951046 M 107.70181818181817,116.94599998951045 L 108.11663636363635,127.08599998951046 M 112.83636363636364,116.94599998951045 L 113.52772727272728,127.08599998951046 M 117.97090909090909,116.94599998951045 L 118.93881818181818,127.08599998951046 M 123.10545454545453,116.94599998951045 L 124.34990909090908,127.08599998951046 M 128.24,116.94599998951045 L 129.761,127.08599998951046" stroke="#979bc4" stroke-width="0.8" fill="none" opacity="0.7"/>
    <path d="M 64.69999999999999,116.94599998951045 Q 71.75999999999999,99.20099998951046 100,91.59599998951046 Q 128.24,99.20099998951046 135.3,116.94599998951045" fill="#3275b4" filter="url(#organic)"/>
  </g>
</svg>