<svg xmlns="http://www.w3.org/2000/svg" viewBox="0 0 200 200" width="200" height="200">
  <defs>
    <filter id="organic" x="-5%" y="-5%" width="110%" height="110%">
    <feTurbulence type="fractalNoise" baseFrequency="0.04" numOctaves="3" seed="1" result="noise"/>
    <feDisplacementMap in="SourceGraphic" in2="noise" scale="2" xChannelSelector="R" yChannelSelector="G"/>
  </filter>
  </defs>
  <g>
    <path d="M 97.2,85.16975410103251 Q 96.2,127.58487705051625 96.64,170 L 103.36,170 Q 103.8,127.58487705051625 102.8,85.16975410103251 Z" fill="#979bc4" filter="url(#organic)"/>
    <path d="M 75.68,85.16975410103251 L 72.944,103.4097541010325 M 82.62857142857143,85.16975410103251 L 80.67428571428572,103.4097541010325 M 89.57714285714286,85.16975410103251 L 88.40457142857143,103.4097541010325 M 96.52571428571429,85.16975410103251 L 96.13485714285714,103.4097541010325 M 103.47428571428571,85.16975410103251 L 103.86514285714286,103.4097541010325 M 110.42285714285715,85.16975410103251 L 111.59542857142858,103.4097541010325 M 117.37142857142857,85.16975410103251 L 119.32571428571428,103.4097541010325 M 124.32000000000001,85.16975410103251 L 127.05600000000001,103.4097541010325" stroke="#979bc4" stroke-width="0.8" fill="none" opacity="0.7"/>
    <path d="M 69.6,85.16975410103251 Q 69.6,66.92975410103251 90.88,57.80975410103251 L 100,39.569754101032515 L 109.12,57.80975410103251 Q 130.4,66.92975410103251 130.4,85.16975410103251" fill="#3275b4" filter="url(#organic)"/>
    <circle cx="84.8" cy="53.2" r="3" fill="white" opacity="0.85"/>
    <circle cx="109.1" cy="48.7" r="2.5" fill="white" opacity="0.85"/>
    <circle cx="97.0" cy="46.4" r="2" fill="white" opacity="0.85"/>
    <circle cx="118.2" cy="57.8" r="2" fill="white" opacity="0.85"/>
    <circle cx="81.8" cy="62.4" r="1.5" fill="white" opacity="0.85"/>
    <circle cx="103.0" cy="62.4" r="2.5" fill="white" opacity="0.85"/>
  </g>
</svg>