<svg xmlns="http://www.w3.org/2000/svg" viewBox="0 0 200 200" width="200" height="200">
  <defs>
    <filter id="organic" x="-5%" y="-5%" width="110%" height="110%">
    <feTurbulence type="fractalNoise" baseFrequency="0.04" numOctaves="3" seed="1" result="noise"/>
    <feDisplacementMap in="SourceGraphic" in2="noise" scale="2" xChannelSelector="R" yChannelSelector="G"/>
  </filter>
  </defs>
  <g>
    <path d="M 92,128.47299999475524 Q 91,149.23649999737762 90.4,170 L 109.6,170 Q 109,149.23649999737762 108,128.47299999475524 Z" fill="#979bc4" filter="url(#organic)"/>
    <path d="M 60,128.47299999475524 L 58.479,138.61299999475523 M 63.47826086956522,128.47299999475524 L 62.08952173913043,138.61299999475523 M 66.95652173913044,128.47299999475524 L 65.70004347826087,138.61299999475523 M 70.43478260869566,128.47299999475524 L 69.31056521739131,138.61299999475523 M 73.91304347826087,128.47299999475524 L 72.92108695652175,138.61299999475523 M 77.3913043478261,128.47299999475524 L 76.53160869565218,138.61299999475523 M 80.86956521739131,128.47299999475524 L 80.14213043478262,138.61299999475523 M 84.34782608695653,128.47299999475524 L 83.75265217391305,138.61299999475523 M 87.82608695652173,128.47299999475524 L 87.36317391304347,138.61299999475523 M 91.30434782608695,128.47299999475524 L 90.97369565217392,138.61299999475523 M 94.78260869565219,128.47299999475524 L 94.58421739130436,138.61299999475523 M 98.2608695652174,128.47299999475524 L 98.1947391304348,138.61299999475523 M 101.73913043478261,128.47299999475524 L 101.80526086956522,138.61299999475523 M 105.21739130434783,128.47299999475524 L 105.41578260869565,138.61299999475523 M 108.69565217391306,128.47299999475524 L 109.0263043478261,138.61299999475523 M 112.17391304347827,128.47299999475524 L 112.63682608695653,138.61299999475523 M 115.65217391304347,128.47299999475524 L 116.24734782608695,138.61299999475523 M 119.13043478260869,128.47299999475524 L 119.85786956521738,138.61299999475523 M 122.6086956521739,128.47299999475524 L 123.46839130434782,138.61299999475523 M 126.08695652173913,128.47299999475524 L 127.07891304347825,138.61299999475523 M 129.56521739130437,128.47299999475524 L 130.6894347826087,138.61299999475523 M 133.04347826086956,128.47299999475524 L 134.29995652173912,138.61299999475523 M 136.5217391304348,128.47299999475524 L 137.91047826086958,138.61299999475523 M 140,128.47299999475524 L 141.521,138.61299999475523" stroke="#979bc4" stroke-width="0.8" fill="none" opacity="0.7"/>
    <path d="M 50,118.33299999475526 Q 65,128.47299999475524 100,123.40299999475525 Q 135,128.47299999475524 150,118.33299999475526" fill="#3275b4" filter="url(#organic)"/>
    <circle cx="75.0" cy="110.7" r="3" fill="white" opacity="0.85"/>
    <circle cx="115.0" cy="108.2" r="2.5" fill="white" opacity="0.85"/>
    <circle cx="95.0" cy="106.9" r="2" fill="white" opacity="0.85"/>
    <circle cx="130.0" cy="113.3" r="2" fill="white" opacity="0.85"/>
    <circle cx="70.0" cy="115.8" r="1.5" fill="white" opacity="0.85"/>
    <circle cx="105.0" cy="115.8" r="2.5" fill="white" opacity="0.85"/>
  </g>
</svg>