<svg xmlns="http://www.w3.org/2000/svg" viewBox="0 0 200 200" width="200" height="200">
  <defs>
    <filter id="organic" x="-5%" y="-5%" width="110%" height="110%">
    <feTurbulence type="fractalNoise" baseFrequency="0.04" numOctaves="3" seed="1" result="noise"/>
    <feDisplacementMap in="SourceGraphic" in2="noise" scale="2" xChannelSelector="R" yChannelSelector="G"/>
  </filter>
  </defs>
  <g>
    <path d="M 92,110.27299751817935 Q 91,140.13649875908968 90.4,170 L 109.6,170 Q 109,140.13649875908968 108,110.27299751817935 Z" fill="#979bc4" filter="url(#organic)"/>
    <path d="M 60,110.27299751817935 L 58.479,120.41299751817935 M 63.47826086956522,110.27299751817935 L 62.08952173913043,120.41299751817935 M 66.95652173913044,110.27299751817935 L 65.70004347826087,120.41299751817935 M 70.43478260869566,110.27299751817935 L 69.31056521739131,120.41299751817935 M 73.91304347826087,110.27299751817935 L 72.92108695652175,120.41299751817935 M 77.3913043478261,110.27299751817935 L 76.53160869565218,120.41299751817935 M 80.86956521739131,110.27299751817935 L 80.14213043478262,120.41299751817935 M 84.34782608695653,110.27299751817935 L 83.75265217391305,120.41299751817935 M 87.82608695652173,110.27299751817935 L 87.36317391304347,120.41299751817935 M 91.30434782608695,110.27299751817935 L 90.97369565217392,120.41299751817935 M 94.78260869565219,110.27299751817935 L 94.58421739130436,120.41299751817935 M 98.2608695652174,110.27299751817935 L 98.1947391304348,120.41299751817935 M 101.73913043478261,110.27299751817935 L 101.80526086956522,120.41299751817935 M 105.21739130434783,110.27299751817935 L 105.41578260869565,120.41299751817935 M 108.69565217391306,110.27299751817935 L 109.0263043478261,120.41299751817935 M 112.17391304347827,110.27299751817935 L 112.63682608695653,120.41299751817935 M 115.65217391304347,110.27299751817935 L 116.24734782608695,120.41299751817935 M 119.13043478260869,110.27299751817935 L 119.85786956521738,120.41299751817935 M 122.6086956521739,110.27299751817935 L 123.46839130434782,120.41299751817935 M 126.08695652173913,110.27299751817935 L 127.07891304347825,120.41299751817935 M 129.56521739130437,110.27299751817935 L 130.6894347826087,120.41299751817935 M 133.04347826086956,110.27299751817935 L 134.29995652173912,120.41299751817935 M 136.5217391304348,110.27299751817935 L 137.91047826086958,120.41299751817935 M 140,110.27299751817935 L 141.521,120.41299751817935" stroke="#979bc4" stroke-width="0.8" fill="none" opacity="0.7"/>
    <path d="M 50,110.27299751817935 Q 60,92.52799751817936 100,84.92299751817936 Q 140,92.52799751817936 150,110.27299751817935" fill="#3275b4" filter="url(#organic)"/>
  </g>
</svg>