<svg xmlns="http://www.w3.org/2000/svg" viewBox="0 0 200 200" width="200" height="200">
  <defs>
    <filter id="organic" x="-5%" y="-5%" width="110%" height="110%">
    <feTurbulence type="fractalNoise" baseFrequency="0.04" numOctaves="3" seed="1" result="noise"/>
    <feDisplacementMap in="SourceGraphic" in2="noise" scale="2" xChannelSelector="R" yChannelSelector="G"/>
  </filter>
  </defs>
  <g>
    <path d="M 93.2,94.02234112809191 Q 92.2,132.01117056404595 91.84,170 L 108.16,170 Q 107.8,132.01117056404595 106.8,94.02234112809191 Z" fill="#78a6bd" filter="url(#organic)"/>
    <ellipse cx="100" cy="116.81563878966433" rx="10.200000000000001" ry="3.06" fill="none" stroke="currentColor" stroke-width="1.5" opacity="0.6"/>
    <path d="M 60,94.02234112809191 L 58.56,103.6223411280919 M 63.47826086956522,94.02234112809191 L 62.16347826086957,103.6223411280919 M 66.95652173913044,94.02234112809191 L 65.76695652173913,103.6223411280919 M 70.43478260869566,94.02234112809191 L 69.3704347826087,103.6223411280919 M 73.91304347826087,94.02234112809191 L 72.97391304347826,103.6223411280919 M 77.3913043478261,94.02234112809191 L 76.57739130434783,103.6223411280919 M 80.86956521739131,94.02234112809191 L 80.18086956521739,103.6223411280919 M 84.34782608695653,94.02234112809191 L 83.78434782608697,103.6223411280919 M 87.82608695652173,94.02234112809191 L 87.38782608695652,103.6223411280919 M 91.30434782608695,94.02234112809191 L 90.99130434782609,103.6223411280919 M 94.78260869565219,94.02234112809191 L 94.59478260869567,103.6223411280919 M 98.2608695652174,94.02234112809191 L 98.19826086956523,103.6223411280919 M 101.73913043478261,94.02234112809191 L 101.80173913043478,103.6223411280919 M 105.21739130434783,94.02234112809191 L 105.40521739130435,103.6223411280919 M 108.69565217391306,94.02234112809191 L 109.00869565217393,103.6223411280919 M 112.17391304347827,94.02234112809191 L 112.61217391304348,103.6223411280919 M 115.65217391304347,94.02234112809191 L 116.21565217391303,103.6223411280919 M 119.13043478260869,94.02234112809191 L 119.81913043478261,103.6223411280919 M 122.6086956521739,94.02234112809191 L 123.42260869565217,103.6223411280919 M 126.08695652173913,94.02234112809191 L 127.02608695652174,103.6223411280919 M 129.56521739130437,94.02234112809191 L 130.62956521739133,103.6223411280919 M 133.04347826086956,94.02234112809191 L 134.23304347826087,103.6223411280919 M 136.5217391304348,94.02234112809191 L 137.83652173913046,103.6223411280919 M 140,94.02234112809191 L 141.44,103.6223411280919" stroke="#78a6bd" stroke-width="0.8" fill="none" opacity="0.7"/>
    <path d="M 50,84.42234112809192 Q 65,94.02234112809191 100,89.22234112809191 Q 135,94.02234112809191 150,84.42234112809192" fill="#00858d" filter="url(#organic)"/>
    <circle cx="75.0" cy="77.2" r="3" fill="white" opacity="0.85"/>
    <circle cx="115.0" cy="74.8" r="2.5" fill="white" opacity="0.85"/>
    <circle cx="95.0" cy="73.6" r="2" fill="white" opacity="0.85"/>
    <circle cx="130.0" cy="79.6" r="2" fill="white" opacity="0.85"/>
    <circle cx="70.0" cy="82.0" r="1.5" fill="white" opacity="0.85"/>
    <circle cx="105.0" cy="82.0" r="2.5" fill="white" opacity="0.85"/>
  </g>
</svg>