<svg xmlns="http://www.w3.org/2000/svg" viewBox="0 0 200 200" width="200" height="200">
  <defs>
    <filter id="organic" x="-5%" y="-5%" width="110%" height="110%">
    <feTurbulence type="fractalNoise" baseFrequency="0.04" numOctaves="3" seed="1" result="noise"/>
    <feDisplacementMap in="SourceGraphic" in2="noise" scale="2" xChannelSelector="R" yChannelSelector="G"/>
  </filter>
  </defs>
  <g>
    <path d="M 92,62.15342855676609 Q 91,116.07671427838304 90.4,170 L 109.6,170 Q 109,116.07671427838304 108,62.15342855676609 Z" fill="#a496bf" filter="url(#organic)"/>
    <ellipse cx="100" cy="94.50739998973626" rx="12" ry="3.5999999999999996" fill="none" stroke="currentColor" stroke-width="1.5" opacity="0.6"/>
    <path d="M 60,62.15342855676609 L 58.56,71.7534285567661 M 63.47826086956522,62.15342855676609 L 62.16347826086957,71.7534285567661 M 66.95652173913044,62.15342855676609 L 65.76695652173913,71.7534285567661 M 70.43478260869566,62.15342855676609 L 69.3704347826087,71.7534285567661 M 73.91304347826087,62.15342855676609 L 72.97391304347826,71.7534285567661 M 77.3913043478261,62.15342855676609 L 76.57739130434783,71.7534285567661 M 80.86956521739131,62.15342855676609 L 80.18086956521739,71.7534285567661 M 84.34782608695653,62.15342855676609 L 83.78434782608697,71.7534285567661 M 87.82608695652173,62.15342855676609 L 87.38782608695652,71.7534285567661 M 91.30434782608695,62.15342855676609 L 90.99130434782609,71.7534285567661 M 94.78260869565219,62.15342855676609 L 94.59478260869567,71.7534285567661 M 98.2608695652174,62.15342855676609 L 98.19826086956523,71.7534285567661 M 101.73913043478261,62.15342855676609 L 101.80173913043478,71.7534285567661 M 105.21739130434783,62.15342855676609 L 105.40521739130435,71.7534285567661 M 108.69565217391306,62.15342855676609 L 109.00869565217393,71.7534285567661 M 112.17391304347827,62.15342855676609 L 112.61217391304348,71.7534285567661 M 115.65217391304347,62.15342855676609 L 116.21565217391303,71.7534285567661 M 119.13043478260869,62.15342855676609 L 119.81913043478261,71.7534285567661 M 122.6086956521739,62.15342855676609 L 123.42260869565217,71.7534285567661 M 126.08695652173913,62.15342855676609 L 127.02608695652174,71.7534285567661 M 129.56521739130437,62.15342855676609 L 130.62956521739133,71.7534285567661 M 133.04347826086956,62.15342855676609 L 134.23304347826087,71.7534285567661 M 136.5217391304348,62.15342855676609 L 137.83652173913046,71.7534285567661 M 140,62.15342855676609 L 141.44,71.7534285567661" stroke="#a496bf" stroke-width="0.8" fill="none" opacity="0.7"/>
    <path d="M 50,52.553428556766086 Q 65,62.15342855676609 100,57.35342855676609 Q 135,62.15342855676609 150,52.553428556766086" fill="#576cb7" filter="url(#organic)"/>
  </g>
</svg>