<svg xmlns="http://www.w3.org/2000/svg" viewBox="0 0 200 200" width="200" height="200">
  <defs>
    <filter id="organic" x="-5%" y="-5%" width="110%" height="110%">
    <feTurbulence type="fractalNoise" baseFrequency="0.04" numOctaves="3" seed="1" result="noise"/>
    <feDisplacementMap in="SourceGraphic" in2="noise" scale="2" xChannelSelector="R" yChannelSelector="G"/>
  </filter>
  </defs>
  <g>
    <path d="M 92,86.68424088643916 Q 91,128.34212044321959 90.4,170 L 109.6,170 Q 109,128.34212044321959 108,86.68424088643916 Z" fill="#78a6bd" filter="url(#organic)"/>
    <ellipse cx="100" cy="111.6789686205074" rx="12" ry="3.5999999999999996" fill="none" stroke="currentColor" stroke-width="1.5" opacity="0.6"/>
    <path d="M 60,86.68424088643916 L 58.56,96.28424088643916 M 63.47826086956522,86.68424088643916 L 62.16347826086957,96.28424088643916 M 66.95652173913044,86.68424088643916 L 65.76695652173913,96.28424088643916 M 70.43478260869566,86.68424088643916 L 69.3704347826087,96.28424088643916 M 73.91304347826087,86.68424088643916 L 72.97391304347826,96.28424088643916 M 77.3913043478261,86.68424088643916 L 76.57739130434783,96.28424088643916 M 80.86956521739131,86.68424088643916 L 80.18086956521739,96.28424088643916 M 84.34782608695653,86.68424088643916 L 83.78434782608697,96.28424088643916 M 87.82608695652173,86.68424088643916 L 87.38782608695652,96.28424088643916 M 91.30434782608695,86.68424088643916 L 90.99130434782609,96.28424088643916 M 94.78260869565219,86.68424088643916 L 94.59478260869567,96.28424088643916 M 98.2608695652174,86.68424088643916 L 98.19826086956523,96.28424088643916 M 101.73913043478261,86.68424088643916 L 101.80173913043478,96.28424088643916 M 105.21739130434783,86.68424088643916 L 105.40521739130435,96.28424088643916 M 108.69565217391306,86.68424088643916 L 109.00869565217393,96.28424088643916 M 112.17391304347827,86.68424088643916 L 112.61217391304348,96.28424088643916 M 115.65217391304347,86.68424088643916 L 116.21565217391303,96.28424088643916 M 119.13043478260869,86.68424088643916 L 119.81913043478261,96.28424088643916 M 122.6086956521739,86.68424088643916 L 123.42260869565217,96.28424088643916 M 126.08695652173913,86.68424088643916 L 127.02608695652174,96.28424088643916 M 129.56521739130437,86.68424088643916 L 130.62956521739133,96.28424088643916 M 133.04347826086956,86.68424088643916 L 134.23304347826087,96.28424088643916 M 136.5217391304348,86.68424088643916 L 137.83652173913046,96.28424088643916 M 140,86.68424088643916 L 141.44,96.28424088643916" stroke="#78a6bd" stroke-width="0.8" fill="none" opacity="0.7"/>
    <path d="M 50,86.68424088643916 Q 50,79.48424088643915 100,77.08424088643915 Q 150,79.48424088643915 150,86.68424088643916" fill="#00858d" filter="url(#organic)"/>
  </g>
</svg>