<svg xmlns="http://www.w3.org/2000/svg" viewBox="0 0 200 200" width="200" height="200">
  <defs>
    <filter id="glow" x="-50%" y="-50%" width="200%" height="200%">
    <feGaussianBlur in="SourceGraphic" stdDeviation="3" result="blur"/>
    <feMerge>
      <feMergeNode in="blur"/>
      <feMergeNode in="blur"/>
      <feMergeNode in="SourceGraphic"/>
    </feMerge>
  </filter>
    <filter id="organic" x="-5%" y="-5%" width="110%" height="110%">
    <feTurbulence type="fractalNoise" baseFrequency="0.04" numOctaves="3" seed="1" result="noise"/>
    <feDisplacementMap in="SourceGraphic" in2="noise" scale="2" xChannelSelector="R" yChannelSelector="G"/>
  </filter>
  </defs>
  <g filter="url(#glow)">
    <path d="M 92.4,78.15399463275818 Q 91.4,124.07699731637909 90.88,170 L 109.12,170 Q 108.6,124.07699731637909 107.6,78.15399463275818 Z" fill="#979bc4" filter="url(#organic)"/>
    <path d="M 60,78.15399463275818 L 56.4,102.15399463275818 M 63.47826086956522,78.15399463275818 L 60.19130434782609,102.15399463275818 M 66.95652173913044,78.15399463275818 L 63.982608695652175,102.15399463275818 M 70.43478260869566,78.15399463275818 L 67.77391304347826,102.15399463275818 M 73.91304347826087,78.15399463275818 L 71.56521739130436,102.15399463275818 M 77.3913043478261,78.15399463275818 L 75.35652173913044,102.15399463275818 M 80.86956521739131,78.15399463275818 L 79.14782608695653,102.15399463275818 M 84.34782608695653,78.15399463275818 L 82.93913043478261,102.15399463275818 M 87.82608695652173,78.15399463275818 L 86.7304347826087,102.15399463275818 M 91.30434782608695,78.15399463275818 L 90.52173913043478,102.15399463275818 M 94.78260869565219,78.15399463275818 L 94.31304347826088,102.15399463275818 M 98.2608695652174,78.15399463275818 L 98.10434782608696,102.15399463275818 M 101.73913043478261,78.15399463275818 L 101.89565217391305,102.15399463275818 M 105.21739130434783,78.15399463275818 L 105.68695652173913,102.15399463275818 M 108.69565217391306,78.15399463275818 L 109.47826086956523,102.15399463275818 M 112.17391304347827,78.15399463275818 L 113.2695652173913,102.15399463275818 M 115.65217391304347,78.15399463275818 L 117.06086956521739,102.15399463275818 M 119.13043478260869,78.15399463275818 L 120.85217391304347,102.15399463275818 M 122.6086956521739,78.15399463275818 L 124.64347826086956,102.15399463275818 M 126.08695652173913,78.15399463275818 L 128.43478260869566,102.15399463275818 M 129.56521739130437,78.15399463275818 L 132.22608695652175,102.15399463275818 M 133.04347826086956,78.15399463275818 L 136.01739130434783,102.15399463275818 M 136.5217391304348,78.15399463275818 L 139.80869565217395,102.15399463275818 M 140,78.15399463275818 L 143.6,102.15399463275818" stroke="#979bc4" stroke-width="0.8" fill="none" opacity="0.7"/>
    <path d="M 50,78.15399463275818 Q 50,54.153994632758184 85,42.153994632758184 L 100,18.153994632758184 L 115,42.153994632758184 Q 150,54.153994632758184 150,78.15399463275818" fill="#3275b4" filter="url(#organic)"/>
  </g>
</svg>