<svg xmlns="http://www.w3.org/2000/svg" viewBox="0 0 200 200" width="200" height="200">
  <defs>
    <filter id="organic" x="-5%" y="-5%" width="110%" height="110%">
    <feTurbulence type="fractalNoise" baseFrequency="0.04" numOctaves="3" seed="1" result="noise"/>
    <feDisplacementMap in="SourceGraphic" in2="noise" scale="2" xChannelSelector="R" yChannelSelector="G"/>
  </filter>
  </defs>
  <g>
    <path d="M 96,97.2171414591866 Q 95,133.6085707295933 95.2,170 L 104.8,170 Q 105,133.6085707295933 104,97.2171414591866 Z" fill="#78a6bd" filter="url(#organic)"/>
    <ellipse cx="100" cy="119.05199902143062" rx="6" ry="1.7999999999999998" fill="none" stroke="currentColor" stroke-width="1.5" opacity="0.6"/>
    <path d="M 69.8,97.2171414591866 L 68.36,106.81714145918662 M 74.44615384615385,97.2171414591866 L 73.22769230769231,106.81714145918662 M 79.09230769230768,97.2171414591866 L 78.0953846153846,106.81714145918662 M 83.73846153846154,97.2171414591866 L 82.96307692307693,106.81714145918662 M 88.38461538461539,97.2171414591866 L 87.83076923076923,106.81714145918662 M 93.03076923076924,97.2171414591866 L 92.69846153846154,106.81714145918662 M 97.67692307692307,97.2171414591866 L 97.56615384615384,106.81714145918662 M 102.32307692307691,97.2171414591866 L 102.43384615384615,106.81714145918662 M 106.96923076923076,97.2171414591866 L 107.30153846153846,106.81714145918662 M 111.61538461538461,97.2171414591866 L 112.16923076923077,106.81714145918662 M 116.26153846153846,97.2171414591866 L 117.03692307692307,106.81714145918662 M 120.90769230769232,97.2171414591866 L 121.9046153846154,106.81714145918662 M 125.55384615384615,97.2171414591866 L 126.77230769230769,106.81714145918662 M 130.2,97.2171414591866 L 131.64,106.81714145918662" stroke="#78a6bd" stroke-width="0.8" fill="none" opacity="0.7"/>
    <path d="M 62.25,97.2171414591866 Q 62.25,90.0171414591866 100,87.6171414591866 Q 137.75,90.0171414591866 137.75,97.2171414591866" fill="#00858d" filter="url(#organic)"/>
  </g>
</svg>