<svg xmlns="http://www.w3.org/2000/svg" viewBox="0 0 200 200" width="200" height="200">
  <defs>
    <filter id="organic" x="-5%" y="-5%" width="110%" height="110%">
    <feTurbulence type="fractalNoise" baseFrequency="0.04" numOctaves="3" seed="1" result="noise"/>
    <feDisplacementMap in="SourceGraphic" in2="noise" scale="2" xChannelSelector="R" yChannelSelector="G"/>
  </filter>
  </defs>
  <g>
    <path d="M 92,89.5946375449972 Q 91,129.7973187724986 90.4,170 L 109.6,170 Q 109,129.7973187724986 108,89.5946375449972 Z" fill="#979bc4" filter="url(#organic)"/>
    <ellipse cx="100" cy="113.71624628149803" rx="12" ry="3.5999999999999996" fill="none" stroke="currentColor" stroke-width="1.5" opacity="0.6"/>
    <path d="M 60,89.5946375449972 L 58.074,102.4346375449972 M 63.47826086956522,89.5946375449972 L 61.71973913043478,102.4346375449972 M 66.95652173913044,89.5946375449972 L 65.36547826086957,102.4346375449972 M 70.43478260869566,89.5946375449972 L 69.01121739130436,102.4346375449972 M 73.91304347826087,89.5946375449972 L 72.65695652173913,102.4346375449972 M 77.3913043478261,89.5946375449972 L 76.30269565217392,102.4346375449972 M 80.86956521739131,89.5946375449972 L 79.9484347826087,102.4346375449972 M 84.34782608695653,89.5946375449972 L 83.59417391304349,102.4346375449972 M 87.82608695652173,89.5946375449972 L 87.23991304347825,102.4346375449972 M 91.30434782608695,89.5946375449972 L 90.88565217391304,102.4346375449972 M 94.78260869565219,89.5946375449972 L 94.53139130434784,102.4346375449972 M 98.2608695652174,89.5946375449972 L 98.17713043478263,102.4346375449972 M 101.73913043478261,89.5946375449972 L 101.82286956521739,102.4346375449972 M 105.21739130434783,89.5946375449972 L 105.46860869565218,102.4346375449972 M 108.69565217391306,89.5946375449972 L 109.11434782608697,102.4346375449972 M 112.17391304347827,89.5946375449972 L 112.76008695652175,102.4346375449972 M 115.65217391304347,89.5946375449972 L 116.40582608695651,102.4346375449972 M 119.13043478260869,89.5946375449972 L 120.0515652173913,102.4346375449972 M 122.6086956521739,89.5946375449972 L 123.69730434782608,102.4346375449972 M 126.08695652173913,89.5946375449972 L 127.34304347826087,102.4346375449972 M 129.56521739130437,89.5946375449972 L 130.9887826086957,102.4346375449972 M 133.04347826086956,89.5946375449972 L 134.63452173913043,102.4346375449972 M 136.5217391304348,89.5946375449972 L 138.28026086956524,102.4346375449972 M 140,89.5946375449972 L 141.926,102.4346375449972" stroke="#979bc4" stroke-width="0.8" fill="none" opacity="0.7"/>
    <path d="M 50,89.5946375449972 Q 50,79.9646375449972 100,76.7546375449972 Q 150,79.9646375449972 150,89.5946375449972" fill="#3275b4" filter="url(#organic)"/>
  </g>
</svg>