<svg xmlns="http://www.w3.org/2000/svg" viewBox="0 0 200 200" width="200" height="200">
  <defs>
    <filter id="organic" x="-5%" y="-5%" width="110%" height="110%">
    <feTurbulence type="fractalNoise" baseFrequency="0.04" numOctaves="3" seed="1" result="noise"/>
    <feDisplacementMap in="SourceGraphic" in2="noise" scale="2" xChannelSelector="R" yChannelSelector="G"/>
  </filter>
  </defs>
  <g>
    <path d="M 92,98.14627271153842 Q 91,134.0731363557692 90.4,170 L 109.6,170 Q 109,134.0731363557692 108,98.14627271153842 Z" fill="#979bc4" filter="url(#organic)"/>
    <ellipse cx="100" cy="119.70239089807689" rx="12" ry="3.5999999999999996" fill="none" stroke="currentColor" stroke-width="1.5" opacity="0.6"/>
    <path d="M 60,98.14627271153842 L 58.398,108.82627271153842 M 63.47826086956522,98.14627271153842 L 62.015565217391305,108.82627271153842 M 66.95652173913044,98.14627271153842 L 65.63313043478261,108.82627271153842 M 70.43478260869566,98.14627271153842 L 69.25069565217392,108.82627271153842 M 73.91304347826087,98.14627271153842 L 72.86826086956522,108.82627271153842 M 77.3913043478261,98.14627271153842 L 76.48582608695652,108.82627271153842 M 80.86956521739131,98.14627271153842 L 80.10339130434784,108.82627271153842 M 84.34782608695653,98.14627271153842 L 83.72095652173914,108.82627271153842 M 87.82608695652173,98.14627271153842 L 87.33852173913043,108.82627271153842 M 91.30434782608695,98.14627271153842 L 90.95608695652173,108.82627271153842 M 94.78260869565219,98.14627271153842 L 94.57365217391306,108.82627271153842 M 98.2608695652174,98.14627271153842 L 98.19121739130436,108.82627271153842 M 101.73913043478261,98.14627271153842 L 101.80878260869565,108.82627271153842 M 105.21739130434783,98.14627271153842 L 105.42634782608695,108.82627271153842 M 108.69565217391306,98.14627271153842 L 109.04391304347828,108.82627271153842 M 112.17391304347827,98.14627271153842 L 112.66147826086957,108.82627271153842 M 115.65217391304347,98.14627271153842 L 116.27904347826086,108.82627271153842 M 119.13043478260869,98.14627271153842 L 119.89660869565216,108.82627271153842 M 122.6086956521739,98.14627271153842 L 123.51417391304348,108.82627271153842 M 126.08695652173913,98.14627271153842 L 127.13173913043478,108.82627271153842 M 129.56521739130437,98.14627271153842 L 130.74930434782613,108.82627271153842 M 133.04347826086956,98.14627271153842 L 134.3668695652174,108.82627271153842 M 136.5217391304348,98.14627271153842 L 137.98443478260873,108.82627271153842 M 140,98.14627271153842 L 141.602,108.82627271153842" stroke="#979bc4" stroke-width="0.8" fill="none" opacity="0.7"/>
    <path d="M 50,87.46627271153841 Q 65,98.14627271153842 100,92.80627271153841 Q 135,98.14627271153842 150,87.46627271153841" fill="#3275b4" filter="url(#organic)"/>
    <circle cx="75.0" cy="79.5" r="3" fill="white" opacity="0.85"/>
    <circle cx="115.0" cy="76.8" r="2.5" fill="white" opacity="0.85"/>
    <circle cx="95.0" cy="75.5" r="2" fill="white" opacity="0.85"/>
    <circle cx="130.0" cy="82.1" r="2" fill="white" opacity="0.85"/>
    <circle cx="70.0" cy="84.8" r="1.5" fill="white" opacity="0.85"/>
    <circle cx="105.0" cy="84.8" r="2.5" fill="white" opacity="0.85"/>
  </g>
</svg>