<svg xmlns="http://www.w3.org/2000/svg" viewBox="0 0 200 200" width="200" height="200">
  <defs>
    <filter id="organic" x="-5%" y="-5%" width="110%" height="110%">
    <feTurbulence type="fractalNoise" baseFrequency="0.04" numOctaves="3" seed="1" result="noise"/>
    <feDisplacementMap in="SourceGraphic" in2="noise" scale="2" xChannelSelector="R" yChannelSelector="G"/>
  </filter>
  </defs>
  <g>
    <path d="M 96.8,90.77684127434964 Q 95.8,130.38842063717482 96.16,170 L 103.84,170 Q 104.2,130.38842063717482 103.2,90.77684127434964 Z" fill="#82a2c3" filter="url(#organic)"/>
    <ellipse cx="100" cy="114.54378889204474" rx="4.800000000000001" ry="1.4400000000000002" fill="none" stroke="currentColor" stroke-width="1.5" opacity="0.6"/>
    <path d="M 73.72,90.77684127434964 L 72.28,100.37684127434963 M 79.56,90.77684127434964 L 78.44,100.37684127434963 M 85.4,90.77684127434964 L 84.60000000000001,100.37684127434963 M 91.24,90.77684127434964 L 90.75999999999999,100.37684127434963 M 97.08,90.77684127434964 L 96.92,100.37684127434963 M 102.92,90.77684127434964 L 103.08,100.37684127434963 M 108.75999999999999,90.77684127434964 L 109.24,100.37684127434963 M 114.6,90.77684127434964 L 115.39999999999999,100.37684127434963 M 120.44,90.77684127434964 L 121.56,100.37684127434963 M 126.28,90.77684127434964 L 127.72,100.37684127434963" stroke="#82a2c3" stroke-width="0.8" fill="none" opacity="0.7"/>
    <path d="M 67.15,90.77684127434964 Q 67.15,66.77684127434964 100,66.77684127434964 Q 132.85,66.77684127434964 132.85,90.77684127434964" fill="#0080a2" filter="url(#organic)"/>
  </g>
</svg>