<svg xmlns="http://www.w3.org/2000/svg" viewBox="0 0 200 200" width="200" height="200">
  <defs>
    <filter id="organic" x="-5%" y="-5%" width="110%" height="110%">
    <feTurbulence type="fractalNoise" baseFrequency="0.04" numOctaves="3" seed="1" result="noise"/>
    <feDisplacementMap in="SourceGraphic" in2="noise" scale="2" xChannelSelector="R" yChannelSelector="G"/>
  </filter>
  </defs>
  <g>
    <path d="M 94.4,77.48225631894974 Q 93.4,123.74112815947487 93.28,170 L 106.72,170 Q 106.6,123.74112815947487 105.6,77.48225631894974 Z" fill="#979bc4" filter="url(#organic)"/>
    <ellipse cx="100" cy="105.23757942326482" rx="8.399999999999999" ry="2.5199999999999996" fill="none" stroke="currentColor" stroke-width="1.5" opacity="0.6"/>
    <path d="M 61.959999999999994,77.48225631894974 L 58.413999999999994,101.12225631894974 M 65.58285714285714,77.48225631894974 L 62.37457142857142,101.12225631894974 M 69.20571428571428,77.48225631894974 L 66.33514285714286,101.12225631894974 M 72.82857142857142,77.48225631894974 L 70.29571428571428,101.12225631894974 M 76.45142857142856,77.48225631894974 L 74.25628571428571,101.12225631894974 M 80.07428571428571,77.48225631894974 L 78.21685714285714,101.12225631894974 M 83.69714285714285,77.48225631894974 L 82.17742857142856,101.12225631894974 M 87.32,77.48225631894974 L 86.13799999999999,101.12225631894974 M 90.94285714285714,77.48225631894974 L 90.09857142857142,101.12225631894974 M 94.56571428571428,77.48225631894974 L 94.05914285714285,101.12225631894974 M 98.18857142857142,77.48225631894974 L 98.01971428571427,101.12225631894974 M 101.81142857142858,77.48225631894974 L 101.98028571428573,101.12225631894974 M 105.4342857142857,77.48225631894974 L 105.94085714285714,101.12225631894974 M 109.05714285714286,77.48225631894974 L 109.90142857142858,101.12225631894974 M 112.68,77.48225631894974 L 113.86200000000001,101.12225631894974 M 116.30285714285714,77.48225631894974 L 117.82257142857142,101.12225631894974 M 119.92571428571428,77.48225631894974 L 121.78314285714285,101.12225631894974 M 123.54857142857144,77.48225631894974 L 125.74371428571429,101.12225631894974 M 127.17142857142858,77.48225631894974 L 129.70428571428573,101.12225631894974 M 130.7942857142857,77.48225631894974 L 133.66485714285713,101.12225631894974 M 134.41714285714284,77.48225631894974 L 137.62542857142856,101.12225631894974 M 138.04000000000002,77.48225631894974 L 141.586,101.12225631894974" stroke="#979bc4" stroke-width="0.8" fill="none" opacity="0.7"/>
    <path d="M 52.449999999999996,77.48225631894974 Q 52.449999999999996,53.84225631894974 85.735,42.02225631894974 L 100,18.382256318949736 L 114.265,42.02225631894974 Q 147.55,53.84225631894974 147.55,77.48225631894974" fill="#3275b4" filter="url(#organic)"/>
  </g>
</svg>