<svg xmlns="http://www.w3.org/2000/svg" viewBox="0 0 200 200" width="200" height="200">
  <defs>
    <filter id="organic" x="-5%" y="-5%" width="110%" height="110%">
    <feTurbulence type="fractalNoise" baseFrequency="0.04" numOctaves="3" seed="1" result="noise"/>
    <feDisplacementMap in="SourceGraphic" in2="noise" scale="2" xChannelSelector="R" yChannelSelector="G"/>
  </filter>
  </defs>
  <g>
    <path d="M 96,109.67327271678319 Q 95,139.8366363583916 95.2,170 L 104.8,170 Q 105,139.8366363583916 104,109.67327271678319 Z" fill="#bc957b" filter="url(#organic)"/>
    <ellipse cx="100" cy="127.77129090174823" rx="6" ry="1.7999999999999998" fill="none" stroke="currentColor" stroke-width="1.5" opacity="0.6"/>
    <path d="M 69.8,109.67327271678319 L 68.36,119.2732727167832 M 74.44615384615385,109.67327271678319 L 73.22769230769231,119.2732727167832 M 79.09230769230768,109.67327271678319 L 78.0953846153846,119.2732727167832 M 83.73846153846154,109.67327271678319 L 82.96307692307693,119.2732727167832 M 88.38461538461539,109.67327271678319 L 87.83076923076923,119.2732727167832 M 93.03076923076924,109.67327271678319 L 92.69846153846154,119.2732727167832 M 97.67692307692307,109.67327271678319 L 97.56615384615384,119.2732727167832 M 102.32307692307691,109.67327271678319 L 102.43384615384615,119.2732727167832 M 106.96923076923076,109.67327271678319 L 107.30153846153846,119.2732727167832 M 111.61538461538461,109.67327271678319 L 112.16923076923077,119.2732727167832 M 116.26153846153846,109.67327271678319 L 117.03692307692307,119.2732727167832 M 120.90769230769232,109.67327271678319 L 121.9046153846154,119.2732727167832 M 125.55384615384615,109.67327271678319 L 126.77230769230769,119.2732727167832 M 130.2,109.67327271678319 L 131.64,119.2732727167832" stroke="#bc957b" stroke-width="0.8" fill="none" opacity="0.7"/>
    <path d="M 62.25,109.67327271678319 Q 69.8,92.87327271678319 100,85.67327271678319 Q 130.2,92.87327271678319 137.75,109.67327271678319" fill="#ad524d" filter="url(#organic)"/>
  </g>
</svg>