<svg xmlns="http://www.w3.org/2000/svg" viewBox="0 0 200 200" width="200" height="200">
  <defs>
    <filter id="organic" x="-5%" y="-5%" width="110%" height="110%">
    <feTurbulence type="fractalNoise" baseFrequency="0.04" numOctaves="3" seed="1" result="noise"/>
    <feDisplacementMap in="SourceGraphic" in2="noise" scale="2" xChannelSelector="R" yChannelSelector="G"/>
  </filter>
  </defs>
  <g>
    <path d="M 93.6,78.62696834488537 Q 92.6,124.31348417244268 92.32000000000001,170 L 107.67999999999999,170 Q 107.4,124.31348417244268 106.4,78.62696834488537 Z" fill="#979bc4" filter="url(#organic)"/>
    <path d="M 60,78.62696834488537 L 56.94,99.02696834488538 M 63.47826086956522,78.62696834488537 L 60.684347826086956,99.02696834488538 M 66.95652173913044,78.62696834488537 L 64.42869565217391,99.02696834488538 M 70.43478260869566,78.62696834488537 L 68.17304347826088,99.02696834488538 M 73.91304347826087,78.62696834488537 L 71.91739130434783,99.02696834488538 M 77.3913043478261,78.62696834488537 L 75.66173913043478,99.02696834488538 M 80.86956521739131,78.62696834488537 L 79.40608695652175,99.02696834488538 M 84.34782608695653,78.62696834488537 L 83.1504347826087,99.02696834488538 M 87.82608695652173,78.62696834488537 L 86.89478260869565,99.02696834488538 M 91.30434782608695,78.62696834488537 L 90.6391304347826,99.02696834488538 M 94.78260869565219,78.62696834488537 L 94.38347826086958,99.02696834488538 M 98.2608695652174,78.62696834488537 L 98.12782608695653,99.02696834488538 M 101.73913043478261,78.62696834488537 L 101.87217391304348,99.02696834488538 M 105.21739130434783,78.62696834488537 L 105.61652173913043,99.02696834488538 M 108.69565217391306,78.62696834488537 L 109.36086956521741,99.02696834488538 M 112.17391304347827,78.62696834488537 L 113.10521739130435,99.02696834488538 M 115.65217391304347,78.62696834488537 L 116.8495652173913,99.02696834488538 M 119.13043478260869,78.62696834488537 L 120.59391304347825,99.02696834488538 M 122.6086956521739,78.62696834488537 L 124.33826086956522,99.02696834488538 M 126.08695652173913,78.62696834488537 L 128.08260869565217,99.02696834488538 M 129.56521739130437,78.62696834488537 L 131.82695652173916,99.02696834488538 M 133.04347826086956,78.62696834488537 L 135.57130434782607,99.02696834488538 M 136.5217391304348,78.62696834488537 L 139.31565217391307,99.02696834488538 M 140,78.62696834488537 L 143.06,99.02696834488538" stroke="#979bc4" stroke-width="0.8" fill="none" opacity="0.7"/>
    <path d="M 50,58.226968344885364 Q 65,78.62696834488537 100,68.42696834488538 Q 135,78.62696834488537 150,58.226968344885364" fill="#3275b4" filter="url(#organic)"/>
    <circle cx="75.0" cy="42.9" r="3" fill="white" opacity="0.85"/>
    <circle cx="115.0" cy="37.8" r="2.5" fill="white" opacity="0.85"/>
    <circle cx="95.0" cy="35.3" r="2" fill="white" opacity="0.85"/>
    <circle cx="130.0" cy="48.0" r="2" fill="white" opacity="0.85"/>
    <circle cx="70.0" cy="53.1" r="1.5" fill="white" opacity="0.85"/>
    <circle cx="105.0" cy="53.1" r="2.5" fill="white" opacity="0.85"/>
  </g>
</svg>