<svg xmlns="http://www.w3.org/2000/svg" viewBox="0 0 200 200" width="200" height="200">
  <defs>
    <filter id="organic" x="-5%" y="-5%" width="110%" height="110%">
    <feTurbulence type="fractalNoise" baseFrequency="0.04" numOctaves="3" seed="1" result="noise"/>
    <feDisplacementMap in="SourceGraphic" in2="noise" scale="2" xChannelSelector="R" yChannelSelector="G"/>
  </filter>
  </defs>
  <g>
    <path d="M 95.6,91.16912350788274 Q 94.6,130.5845617539414 94.72,170 L 105.28,170 Q 105.4,130.5845617539414 104.4,91.16912350788274 Z" fill="#979bc4" filter="url(#organic)"/>
    <path d="M 67.84,91.16912350788274 L 65.104,109.40912350788274 M 72.128,91.16912350788274 L 69.7568,109.40912350788274 M 76.416,91.16912350788274 L 74.4096,109.40912350788274 M 80.70400000000001,91.16912350788274 L 79.06240000000001,109.40912350788274 M 84.992,91.16912350788274 L 83.71520000000001,109.40912350788274 M 89.28,91.16912350788274 L 88.368,109.40912350788274 M 93.56800000000001,91.16912350788274 L 93.02080000000001,109.40912350788274 M 97.85600000000001,91.16912350788274 L 97.67360000000001,109.40912350788274 M 102.144,91.16912350788274 L 102.3264,109.40912350788274 M 106.43200000000002,91.16912350788274 L 106.97920000000002,109.40912350788274 M 110.72,91.16912350788274 L 111.632,109.40912350788274 M 115.00800000000001,91.16912350788274 L 116.2848,109.40912350788274 M 119.29600000000002,91.16912350788274 L 120.93760000000002,109.40912350788274 M 123.584,91.16912350788274 L 125.5904,109.40912350788274 M 127.87200000000001,91.16912350788274 L 130.2432,109.40912350788274 M 132.16000000000003,91.16912350788274 L 134.89600000000002,109.40912350788274" stroke="#979bc4" stroke-width="0.8" fill="none" opacity="0.7"/>
    <path d="M 59.8,91.16912350788274 Q 59.8,72.92912350788275 87.94,63.809123507882745 L 100,45.56912350788275 L 112.06,63.809123507882745 Q 140.2,72.92912350788275 140.2,91.16912350788274" fill="#3275b4" filter="url(#organic)"/>
    <circle cx="79.9" cy="59.2" r="3" fill="white" opacity="0.85"/>
    <circle cx="112.1" cy="54.7" r="2.5" fill="white" opacity="0.85"/>
    <circle cx="96.0" cy="52.4" r="2" fill="white" opacity="0.85"/>
    <circle cx="124.1" cy="63.8" r="2" fill="white" opacity="0.85"/>
    <circle cx="75.9" cy="68.4" r="1.5" fill="white" opacity="0.85"/>
    <circle cx="104.0" cy="68.4" r="2.5" fill="white" opacity="0.85"/>
  </g>
</svg>