<svg xmlns="http://www.w3.org/2000/svg" viewBox="0 0 200 200" width="200" height="200">
  <defs>
    <filter id="organic" x="-5%" y="-5%" width="110%" height="110%">
    <feTurbulence type="fractalNoise" baseFrequency="0.04" numOctaves="3" seed="1" result="noise"/>
    <feDisplacementMap in="SourceGraphic" in2="noise" scale="2" xChannelSelector="R" yChannelSelector="G"/>
  </filter>
  </defs>
  <g>
    <path d="M 96.8,88.53225020326668 Q 95.8,129.26612510163335 96.16,170 L 103.84,170 Q 104.2,129.26612510163335 103.2,88.53225020326668 Z" fill="#979bc4" filter="url(#organic)"/>
    <path d="M 73.72,88.53225020326668 L 72.03699999999999,99.75225020326668 M 79.56,88.53225020326668 L 78.251,99.75225020326668 M 85.4,88.53225020326668 L 84.465,99.75225020326668 M 91.24,88.53225020326668 L 90.67899999999999,99.75225020326668 M 97.08,88.53225020326668 L 96.893,99.75225020326668 M 102.92,88.53225020326668 L 103.107,99.75225020326668 M 108.75999999999999,88.53225020326668 L 109.321,99.75225020326668 M 114.6,88.53225020326668 L 115.535,99.75225020326668 M 120.44,88.53225020326668 L 121.749,99.75225020326668 M 126.28,88.53225020326668 L 127.96300000000001,99.75225020326668" stroke="#979bc4" stroke-width="0.8" fill="none" opacity="0.7"/>
    <path d="M 67.15,88.53225020326668 Q 67.15,60.48225020326669 100,60.48225020326669 Q 132.85,60.48225020326669 132.85,88.53225020326668" fill="#3275b4" filter="url(#organic)"/>
  </g>
</svg>