<svg xmlns="http://www.w3.org/2000/svg" viewBox="0 0 200 200" width="200" height="200">
  <defs>
    <filter id="organic" x="-5%" y="-5%" width="110%" height="110%">
    <feTurbulence type="fractalNoise" baseFrequency="0.04" numOctaves="3" seed="1" result="noise"/>
    <feDisplacementMap in="SourceGraphic" in2="noise" scale="2" xChannelSelector="R" yChannelSelector="G"/>
  </filter>
  </defs>
  <g>
    <path d="M 95.6,110.9090909090909 Q 94.6,140.45454545454544 94.72,170 L 105.28,170 Q 105.4,140.45454545454544 104.4,110.9090909090909 Z" fill="#979bc4" filter="url(#organic)"/>
    <path d="M 67.84,110.9090909090909 L 66.238,121.58909090909091 M 72.128,110.9090909090909 L 70.7396,121.58909090909091 M 76.416,110.9090909090909 L 75.24119999999999,121.58909090909091 M 80.70400000000001,110.9090909090909 L 79.7428,121.58909090909091 M 84.992,110.9090909090909 L 84.2444,121.58909090909091 M 89.28,110.9090909090909 L 88.746,121.58909090909091 M 93.56800000000001,110.9090909090909 L 93.2476,121.58909090909091 M 97.85600000000001,110.9090909090909 L 97.7492,121.58909090909091 M 102.144,110.9090909090909 L 102.25080000000001,121.58909090909091 M 106.43200000000002,110.9090909090909 L 106.75240000000002,121.58909090909091 M 110.72,110.9090909090909 L 111.254,121.58909090909091 M 115.00800000000001,110.9090909090909 L 115.75560000000002,121.58909090909091 M 119.29600000000002,110.9090909090909 L 120.25720000000003,121.58909090909091 M 123.584,110.9090909090909 L 124.75880000000001,121.58909090909091 M 127.87200000000001,110.9090909090909 L 129.2604,121.58909090909091 M 132.16000000000003,110.9090909090909 L 133.76200000000003,121.58909090909091" stroke="#979bc4" stroke-width="0.8" fill="none" opacity="0.7"/>
    <path d="M 59.8,110.9090909090909 Q 67.84,92.21909090909091 100,84.2090909090909 Q 132.16,92.21909090909091 140.2,110.9090909090909" fill="#3275b4" filter="url(#organic)"/>
  </g>
</svg>