<svg xmlns="http://www.w3.org/2000/svg" viewBox="0 0 200 200" width="200" height="200">
  <defs>
    <filter id="organic" x="-5%" y="-5%" width="110%" height="110%">
    <feTurbulence type="fractalNoise" baseFrequency="0.04" numOctaves="3" seed="1" result="noise"/>
    <feDisplacementMap in="SourceGraphic" in2="noise" scale="2" xChannelSelector="R" yChannelSelector="G"/>
  </filter>
  </defs>
  <g>
    <path d="M 92,103.96948137900455 Q 91,136.98474068950227 90.4,170 L 109.6,170 Q 109,136.98474068950227 108,103.96948137900455 Z" fill="#a496bf" filter="url(#organic)"/>
    <ellipse cx="100" cy="123.77863696530318" rx="12" ry="3.5999999999999996" fill="none" stroke="currentColor" stroke-width="1.5" opacity="0.6"/>
    <path d="M 60,103.96948137900455 L 58.56,113.56948137900454 M 63.47826086956522,103.96948137900455 L 62.16347826086957,113.56948137900454 M 66.95652173913044,103.96948137900455 L 65.76695652173913,113.56948137900454 M 70.43478260869566,103.96948137900455 L 69.3704347826087,113.56948137900454 M 73.91304347826087,103.96948137900455 L 72.97391304347826,113.56948137900454 M 77.3913043478261,103.96948137900455 L 76.57739130434783,113.56948137900454 M 80.86956521739131,103.96948137900455 L 80.18086956521739,113.56948137900454 M 84.34782608695653,103.96948137900455 L 83.78434782608697,113.56948137900454 M 87.82608695652173,103.96948137900455 L 87.38782608695652,113.56948137900454 M 91.30434782608695,103.96948137900455 L 90.99130434782609,113.56948137900454 M 94.78260869565219,103.96948137900455 L 94.59478260869567,113.56948137900454 M 98.2608695652174,103.96948137900455 L 98.19826086956523,113.56948137900454 M 101.73913043478261,103.96948137900455 L 101.80173913043478,113.56948137900454 M 105.21739130434783,103.96948137900455 L 105.40521739130435,113.56948137900454 M 108.69565217391306,103.96948137900455 L 109.00869565217393,113.56948137900454 M 112.17391304347827,103.96948137900455 L 112.61217391304348,113.56948137900454 M 115.65217391304347,103.96948137900455 L 116.21565217391303,113.56948137900454 M 119.13043478260869,103.96948137900455 L 119.81913043478261,113.56948137900454 M 122.6086956521739,103.96948137900455 L 123.42260869565217,113.56948137900454 M 126.08695652173913,103.96948137900455 L 127.02608695652174,113.56948137900454 M 129.56521739130437,103.96948137900455 L 130.62956521739133,113.56948137900454 M 133.04347826086956,103.96948137900455 L 134.23304347826087,113.56948137900454 M 136.5217391304348,103.96948137900455 L 137.83652173913046,113.56948137900454 M 140,103.96948137900455 L 141.44,113.56948137900454" stroke="#a496bf" stroke-width="0.8" fill="none" opacity="0.7"/>
    <path d="M 50,103.96948137900455 Q 60,87.16948137900455 100,79.96948137900455 Q 140,87.16948137900455 150,103.96948137900455" fill="#576cb7" filter="url(#organic)"/>
  </g>
</svg>