<svg xmlns="http://www.w3.org/2000/svg" viewBox="0 0 200 200" width="200" height="200">
  <defs>
    <filter id="organic" x="-5%" y="-5%" width="110%" height="110%">
    <feTurbulence type="fractalNoise" baseFrequency="0.04" numOctaves="3" seed="1" result="noise"/>
    <feDisplacementMap in="SourceGraphic" in2="noise" scale="2" xChannelSelector="R" yChannelSelector="G"/>
  </filter>
  </defs>
  <g>
    <path d="M 92,87.78247934534593 Q 91,128.89123967267295 90.4,170 L 109.6,170 Q 109,128.89123967267295 108,87.78247934534593 Z" fill="#979bc4" filter="url(#organic)"/>
    <path d="M 60,87.78247934534593 L 57.912,101.70247934534594 M 63.47826086956522,87.78247934534593 L 61.57182608695652,101.70247934534594 M 66.95652173913044,87.78247934534593 L 65.23165217391305,101.70247934534594 M 70.43478260869566,87.78247934534593 L 68.89147826086958,101.70247934534594 M 73.91304347826087,87.78247934534593 L 72.55130434782609,101.70247934534594 M 77.3913043478261,87.78247934534593 L 76.21113043478262,101.70247934534594 M 80.86956521739131,87.78247934534593 L 79.87095652173913,101.70247934534594 M 84.34782608695653,87.78247934534593 L 83.53078260869566,101.70247934534594 M 87.82608695652173,87.78247934534593 L 87.19060869565217,101.70247934534594 M 91.30434782608695,87.78247934534593 L 90.85043478260869,101.70247934534594 M 94.78260869565219,87.78247934534593 L 94.51026086956523,101.70247934534594 M 98.2608695652174,87.78247934534593 L 98.17008695652176,101.70247934534594 M 101.73913043478261,87.78247934534593 L 101.82991304347826,101.70247934534594 M 105.21739130434783,87.78247934534593 L 105.48973913043478,101.70247934534594 M 108.69565217391306,87.78247934534593 L 109.14956521739133,101.70247934534594 M 112.17391304347827,87.78247934534593 L 112.80939130434783,101.70247934534594 M 115.65217391304347,87.78247934534593 L 116.46921739130434,101.70247934534594 M 119.13043478260869,87.78247934534593 L 120.12904347826087,101.70247934534594 M 122.6086956521739,87.78247934534593 L 123.78886956521738,101.70247934534594 M 126.08695652173913,87.78247934534593 L 127.44869565217391,101.70247934534594 M 129.56521739130437,87.78247934534593 L 131.10852173913045,101.70247934534594 M 133.04347826086956,87.78247934534593 L 134.76834782608697,101.70247934534594 M 136.5217391304348,87.78247934534593 L 138.4281739130435,101.70247934534594 M 140,87.78247934534593 L 142.088,101.70247934534594" stroke="#979bc4" stroke-width="0.8" fill="none" opacity="0.7"/>
    <path d="M 50,73.86247934534593 Q 65,87.78247934534593 100,80.82247934534594 Q 135,87.78247934534593 150,73.86247934534593" fill="#3275b4" filter="url(#organic)"/>
    <circle cx="75.0" cy="63.4" r="3" fill="white" opacity="0.85"/>
    <circle cx="115.0" cy="59.9" r="2.5" fill="white" opacity="0.85"/>
    <circle cx="95.0" cy="58.2" r="2" fill="white" opacity="0.85"/>
    <circle cx="130.0" cy="66.9" r="2" fill="white" opacity="0.85"/>
    <circle cx="70.0" cy="70.4" r="1.5" fill="white" opacity="0.85"/>
    <circle cx="105.0" cy="70.4" r="2.5" fill="white" opacity="0.85"/>
  </g>
</svg>