<svg xmlns="http://www.w3.org/2000/svg" viewBox="0 0 200 200" width="200" height="200">
  <defs>
    <filter id="organic" x="-5%" y="-5%" width="110%" height="110%">
    <feTurbulence type="fractalNoise" baseFrequency="0.04" numOctaves="3" seed="1" result="noise"/>
    <feDisplacementMap in="SourceGraphic" in2="noise" scale="2" xChannelSelector="R" yChannelSelector="G"/>
  </filter>
  </defs>
  <g>
    <path d="M 92,99.38209090384615 Q 91,134.69104545192306 90.4,170 L 109.6,170 Q 109,134.69104545192306 108,99.38209090384615 Z" fill="#979bc4" filter="url(#organic)"/>
    <ellipse cx="100" cy="120.5674636326923" rx="12" ry="3.5999999999999996" fill="none" stroke="currentColor" stroke-width="1.5" opacity="0.6"/>
    <path d="M 60,99.38209090384615 L 58.236,111.14209090384615 M 63.47826086956522,99.38209090384615 L 61.867652173913044,111.14209090384615 M 66.95652173913044,99.38209090384615 L 65.49930434782608,111.14209090384615 M 70.43478260869566,99.38209090384615 L 69.13095652173914,111.14209090384615 M 73.91304347826087,99.38209090384615 L 72.76260869565218,111.14209090384615 M 77.3913043478261,99.38209090384615 L 76.39426086956523,111.14209090384615 M 80.86956521739131,99.38209090384615 L 80.02591304347827,111.14209090384615 M 84.34782608695653,99.38209090384615 L 83.65756521739131,111.14209090384615 M 87.82608695652173,99.38209090384615 L 87.28921739130435,111.14209090384615 M 91.30434782608695,99.38209090384615 L 90.92086956521739,111.14209090384615 M 94.78260869565219,99.38209090384615 L 94.55252173913044,111.14209090384615 M 98.2608695652174,99.38209090384615 L 98.1841739130435,111.14209090384615 M 101.73913043478261,99.38209090384615 L 101.81582608695652,111.14209090384615 M 105.21739130434783,99.38209090384615 L 105.44747826086957,111.14209090384615 M 108.69565217391306,99.38209090384615 L 109.07913043478263,111.14209090384615 M 112.17391304347827,99.38209090384615 L 112.71078260869565,111.14209090384615 M 115.65217391304347,99.38209090384615 L 116.34243478260869,111.14209090384615 M 119.13043478260869,99.38209090384615 L 119.97408695652173,111.14209090384615 M 122.6086956521739,99.38209090384615 L 123.60573913043477,111.14209090384615 M 126.08695652173913,99.38209090384615 L 127.23739130434782,111.14209090384615 M 129.56521739130437,99.38209090384615 L 130.8690434782609,111.14209090384615 M 133.04347826086956,99.38209090384615 L 134.5006956521739,111.14209090384615 M 136.5217391304348,99.38209090384615 L 138.13234782608697,111.14209090384615 M 140,99.38209090384615 L 141.764,111.14209090384615" stroke="#979bc4" stroke-width="0.8" fill="none" opacity="0.7"/>
    <path d="M 50,99.38209090384615 Q 60,78.80209090384614 100,69.98209090384614 Q 140,78.80209090384614 150,99.38209090384615" fill="#3275b4" filter="url(#organic)"/>
  </g>
</svg>