<svg xmlns="http://www.w3.org/2000/svg" viewBox="0 0 200 200" width="200" height="200">
  <defs>
    <filter id="organic" x="-5%" y="-5%" width="110%" height="110%">
    <feTurbulence type="fractalNoise" baseFrequency="0.04" numOctaves="3" seed="1" result="noise"/>
    <feDisplacementMap in="SourceGraphic" in2="noise" scale="2" xChannelSelector="R" yChannelSelector="G"/>
  </filter>
  </defs>
  <g>
    <path d="M 92,96.52887328363697 Q 91,133.2644366418185 90.4,170 L 109.6,170 Q 109,133.2644366418185 108,96.52887328363697 Z" fill="#78a6bd" filter="url(#organic)"/>
    <ellipse cx="100" cy="118.57021129854587" rx="12" ry="3.5999999999999996" fill="none" stroke="currentColor" stroke-width="1.5" opacity="0.6"/>
    <path d="M 60,96.52887328363697 L 58.56,106.12887328363698 M 63.47826086956522,96.52887328363697 L 62.16347826086957,106.12887328363698 M 66.95652173913044,96.52887328363697 L 65.76695652173913,106.12887328363698 M 70.43478260869566,96.52887328363697 L 69.3704347826087,106.12887328363698 M 73.91304347826087,96.52887328363697 L 72.97391304347826,106.12887328363698 M 77.3913043478261,96.52887328363697 L 76.57739130434783,106.12887328363698 M 80.86956521739131,96.52887328363697 L 80.18086956521739,106.12887328363698 M 84.34782608695653,96.52887328363697 L 83.78434782608697,106.12887328363698 M 87.82608695652173,96.52887328363697 L 87.38782608695652,106.12887328363698 M 91.30434782608695,96.52887328363697 L 90.99130434782609,106.12887328363698 M 94.78260869565219,96.52887328363697 L 94.59478260869567,106.12887328363698 M 98.2608695652174,96.52887328363697 L 98.19826086956523,106.12887328363698 M 101.73913043478261,96.52887328363697 L 101.80173913043478,106.12887328363698 M 105.21739130434783,96.52887328363697 L 105.40521739130435,106.12887328363698 M 108.69565217391306,96.52887328363697 L 109.00869565217393,106.12887328363698 M 112.17391304347827,96.52887328363697 L 112.61217391304348,106.12887328363698 M 115.65217391304347,96.52887328363697 L 116.21565217391303,106.12887328363698 M 119.13043478260869,96.52887328363697 L 119.81913043478261,106.12887328363698 M 122.6086956521739,96.52887328363697 L 123.42260869565217,106.12887328363698 M 126.08695652173913,96.52887328363697 L 127.02608695652174,106.12887328363698 M 129.56521739130437,96.52887328363697 L 130.62956521739133,106.12887328363698 M 133.04347826086956,96.52887328363697 L 134.23304347826087,106.12887328363698 M 136.5217391304348,96.52887328363697 L 137.83652173913046,106.12887328363698 M 140,96.52887328363697 L 141.44,106.12887328363698" stroke="#78a6bd" stroke-width="0.8" fill="none" opacity="0.7"/>
    <path d="M 50,96.52887328363697 Q 50,89.32887328363697 100,86.92887328363696 Q 150,89.32887328363697 150,96.52887328363697" fill="#00858d" filter="url(#organic)"/>
  </g>
</svg>