<svg xmlns="http://www.w3.org/2000/svg" viewBox="0 0 200 200" width="200" height="200">
  <defs>
    <filter id="organic" x="-5%" y="-5%" width="110%" height="110%">
    <feTurbulence type="fractalNoise" baseFrequency="0.04" numOctaves="3" seed="1" result="noise"/>
    <feDisplacementMap in="SourceGraphic" in2="noise" scale="2" xChannelSelector="R" yChannelSelector="G"/>
  </filter>
  </defs>
  <g>
    <path d="M 92.4,92.21923193941129 Q 91.4,131.10961596970566 90.88,170 L 109.12,170 Q 108.6,131.10961596970566 107.6,92.21923193941129 Z" fill="#979bc4" filter="url(#organic)"/>
    <path d="M 60,92.21923193941129 L 58.398,102.8992319394113 M 63.47826086956522,92.21923193941129 L 62.015565217391305,102.8992319394113 M 66.95652173913044,92.21923193941129 L 65.63313043478261,102.8992319394113 M 70.43478260869566,92.21923193941129 L 69.25069565217392,102.8992319394113 M 73.91304347826087,92.21923193941129 L 72.86826086956522,102.8992319394113 M 77.3913043478261,92.21923193941129 L 76.48582608695652,102.8992319394113 M 80.86956521739131,92.21923193941129 L 80.10339130434784,102.8992319394113 M 84.34782608695653,92.21923193941129 L 83.72095652173914,102.8992319394113 M 87.82608695652173,92.21923193941129 L 87.33852173913043,102.8992319394113 M 91.30434782608695,92.21923193941129 L 90.95608695652173,102.8992319394113 M 94.78260869565219,92.21923193941129 L 94.57365217391306,102.8992319394113 M 98.2608695652174,92.21923193941129 L 98.19121739130436,102.8992319394113 M 101.73913043478261,92.21923193941129 L 101.80878260869565,102.8992319394113 M 105.21739130434783,92.21923193941129 L 105.42634782608695,102.8992319394113 M 108.69565217391306,92.21923193941129 L 109.04391304347828,102.8992319394113 M 112.17391304347827,92.21923193941129 L 112.66147826086957,102.8992319394113 M 115.65217391304347,92.21923193941129 L 116.27904347826086,102.8992319394113 M 119.13043478260869,92.21923193941129 L 119.89660869565216,102.8992319394113 M 122.6086956521739,92.21923193941129 L 123.51417391304348,102.8992319394113 M 126.08695652173913,92.21923193941129 L 127.13173913043478,102.8992319394113 M 129.56521739130437,92.21923193941129 L 130.74930434782613,102.8992319394113 M 133.04347826086956,92.21923193941129 L 134.3668695652174,102.8992319394113 M 136.5217391304348,92.21923193941129 L 137.98443478260873,102.8992319394113 M 140,92.21923193941129 L 141.602,102.8992319394113" stroke="#979bc4" stroke-width="0.8" fill="none" opacity="0.7"/>
    <path d="M 50,92.21923193941129 Q 50,84.20923193941128 100,81.53923193941128 Q 150,84.20923193941128 150,92.21923193941129" fill="#3275b4" filter="url(#organic)"/>
  </g>
</svg>