<svg xmlns="http://www.w3.org/2000/svg" viewBox="0 0 200 200" width="200" height="200">
  <defs>
    <filter id="organic" x="-5%" y="-5%" width="110%" height="110%">
    <feTurbulence type="fractalNoise" baseFrequency="0.04" numOctaves="3" seed="1" result="noise"/>
    <feDisplacementMap in="SourceGraphic" in2="noise" scale="2" xChannelSelector="R" yChannelSelector="G"/>
  </filter>
  </defs>
  <g>
    <path d="M 93.6,104.31352294102895 Q 92.6,137.15676147051448 92.32000000000001,170 L 107.67999999999999,170 Q 107.4,137.15676147051448 106.4,104.31352294102895 Z" fill="#84a98b" filter="url(#organic)"/>
    <ellipse cx="100" cy="124.01946605872027" rx="9.6" ry="2.88" fill="none" stroke="currentColor" stroke-width="1.5" opacity="0.6"/>
    <path d="M 60,104.31352294102895 L 58.56,113.91352294102896 M 63.47826086956522,104.31352294102895 L 62.16347826086957,113.91352294102896 M 66.95652173913044,104.31352294102895 L 65.76695652173913,113.91352294102896 M 70.43478260869566,104.31352294102895 L 69.3704347826087,113.91352294102896 M 73.91304347826087,104.31352294102895 L 72.97391304347826,113.91352294102896 M 77.3913043478261,104.31352294102895 L 76.57739130434783,113.91352294102896 M 80.86956521739131,104.31352294102895 L 80.18086956521739,113.91352294102896 M 84.34782608695653,104.31352294102895 L 83.78434782608697,113.91352294102896 M 87.82608695652173,104.31352294102895 L 87.38782608695652,113.91352294102896 M 91.30434782608695,104.31352294102895 L 90.99130434782609,113.91352294102896 M 94.78260869565219,104.31352294102895 L 94.59478260869567,113.91352294102896 M 98.2608695652174,104.31352294102895 L 98.19826086956523,113.91352294102896 M 101.73913043478261,104.31352294102895 L 101.80173913043478,113.91352294102896 M 105.21739130434783,104.31352294102895 L 105.40521739130435,113.91352294102896 M 108.69565217391306,104.31352294102895 L 109.00869565217393,113.91352294102896 M 112.17391304347827,104.31352294102895 L 112.61217391304348,113.91352294102896 M 115.65217391304347,104.31352294102895 L 116.21565217391303,113.91352294102896 M 119.13043478260869,104.31352294102895 L 119.81913043478261,113.91352294102896 M 122.6086956521739,104.31352294102895 L 123.42260869565217,113.91352294102896 M 126.08695652173913,104.31352294102895 L 127.02608695652174,113.91352294102896 M 129.56521739130437,104.31352294102895 L 130.62956521739133,113.91352294102896 M 133.04347826086956,104.31352294102895 L 134.23304347826087,113.91352294102896 M 136.5217391304348,104.31352294102895 L 137.83652173913046,113.91352294102896 M 140,104.31352294102895 L 141.44,113.91352294102896" stroke="#84a98b" stroke-width="0.8" fill="none" opacity="0.7"/>
    <path d="M 50,104.31352294102895 Q 60,87.51352294102895 100,80.31352294102895 Q 140,87.51352294102895 150,104.31352294102895" fill="#697b1a" filter="url(#organic)"/>
  </g>
</svg>