<svg xmlns="http://www.w3.org/2000/svg" viewBox="0 0 200 200" width="200" height="200">
  <defs>
    <filter id="organic" x="-5%" y="-5%" width="110%" height="110%">
    <feTurbulence type="fractalNoise" baseFrequency="0.04" numOctaves="3" seed="1" result="noise"/>
    <feDisplacementMap in="SourceGraphic" in2="noise" scale="2" xChannelSelector="R" yChannelSelector="G"/>
  </filter>
  </defs>
  <g>
    <path d="M 92,91.57664376180513 Q 91,130.78832188090257 90.4,170 L 109.6,170 Q 109,130.78832188090257 108,91.57664376180513 Z" fill="#979bc4" filter="url(#organic)"/>
    <ellipse cx="100" cy="115.10365063326358" rx="12" ry="3.5999999999999996" fill="none" stroke="currentColor" stroke-width="1.5" opacity="0.6"/>
    <path d="M 60,91.57664376180513 L 57.912,105.49664376180513 M 63.47826086956522,91.57664376180513 L 61.57182608695652,105.49664376180513 M 66.95652173913044,91.57664376180513 L 65.23165217391305,105.49664376180513 M 70.43478260869566,91.57664376180513 L 68.89147826086958,105.49664376180513 M 73.91304347826087,91.57664376180513 L 72.55130434782609,105.49664376180513 M 77.3913043478261,91.57664376180513 L 76.21113043478262,105.49664376180513 M 80.86956521739131,91.57664376180513 L 79.87095652173913,105.49664376180513 M 84.34782608695653,91.57664376180513 L 83.53078260869566,105.49664376180513 M 87.82608695652173,91.57664376180513 L 87.19060869565217,105.49664376180513 M 91.30434782608695,91.57664376180513 L 90.85043478260869,105.49664376180513 M 94.78260869565219,91.57664376180513 L 94.51026086956523,105.49664376180513 M 98.2608695652174,91.57664376180513 L 98.17008695652176,105.49664376180513 M 101.73913043478261,91.57664376180513 L 101.82991304347826,105.49664376180513 M 105.21739130434783,91.57664376180513 L 105.48973913043478,105.49664376180513 M 108.69565217391306,91.57664376180513 L 109.14956521739133,105.49664376180513 M 112.17391304347827,91.57664376180513 L 112.80939130434783,105.49664376180513 M 115.65217391304347,91.57664376180513 L 116.46921739130434,105.49664376180513 M 119.13043478260869,91.57664376180513 L 120.12904347826087,105.49664376180513 M 122.6086956521739,91.57664376180513 L 123.78886956521738,105.49664376180513 M 126.08695652173913,91.57664376180513 L 127.44869565217391,105.49664376180513 M 129.56521739130437,91.57664376180513 L 131.10852173913045,105.49664376180513 M 133.04347826086956,91.57664376180513 L 134.76834782608697,105.49664376180513 M 136.5217391304348,91.57664376180513 L 138.4281739130435,105.49664376180513 M 140,91.57664376180513 L 142.088,105.49664376180513" stroke="#979bc4" stroke-width="0.8" fill="none" opacity="0.7"/>
    <path d="M 50,91.57664376180513 Q 50,81.13664376180513 100,77.65664376180513 Q 150,81.13664376180513 150,91.57664376180513" fill="#3275b4" filter="url(#organic)"/>
  </g>
</svg>