<svg xmlns="http://www.w3.org/2000/svg" viewBox="0 0 200 200" width="200" height="200">
  <defs>
    <filter id="organic" x="-5%" y="-5%" width="110%" height="110%">
    <feTurbulence type="fractalNoise" baseFrequency="0.04" numOctaves="3" seed="1" result="noise"/>
    <feDisplacementMap in="SourceGraphic" in2="noise" scale="2" xChannelSelector="R" yChannelSelector="G"/>
  </filter>
  </defs>
  <g>
    <path d="M 92,108.05587328888174 Q 91,139.02793664444087 90.4,170 L 109.6,170 Q 109,139.02793664444087 108,108.05587328888174 Z" fill="#979bc4" filter="url(#organic)"/>
    <ellipse cx="100" cy="126.63911130221722" rx="12" ry="3.5999999999999996" fill="none" stroke="currentColor" stroke-width="1.5" opacity="0.6"/>
    <path d="M 60,108.05587328888174 L 58.479,118.19587328888174 M 63.47826086956522,108.05587328888174 L 62.08952173913043,118.19587328888174 M 66.95652173913044,108.05587328888174 L 65.70004347826087,118.19587328888174 M 70.43478260869566,108.05587328888174 L 69.31056521739131,118.19587328888174 M 73.91304347826087,108.05587328888174 L 72.92108695652175,118.19587328888174 M 77.3913043478261,108.05587328888174 L 76.53160869565218,118.19587328888174 M 80.86956521739131,108.05587328888174 L 80.14213043478262,118.19587328888174 M 84.34782608695653,108.05587328888174 L 83.75265217391305,118.19587328888174 M 87.82608695652173,108.05587328888174 L 87.36317391304347,118.19587328888174 M 91.30434782608695,108.05587328888174 L 90.97369565217392,118.19587328888174 M 94.78260869565219,108.05587328888174 L 94.58421739130436,118.19587328888174 M 98.2608695652174,108.05587328888174 L 98.1947391304348,118.19587328888174 M 101.73913043478261,108.05587328888174 L 101.80526086956522,118.19587328888174 M 105.21739130434783,108.05587328888174 L 105.41578260869565,118.19587328888174 M 108.69565217391306,108.05587328888174 L 109.0263043478261,118.19587328888174 M 112.17391304347827,108.05587328888174 L 112.63682608695653,118.19587328888174 M 115.65217391304347,108.05587328888174 L 116.24734782608695,118.19587328888174 M 119.13043478260869,108.05587328888174 L 119.85786956521738,118.19587328888174 M 122.6086956521739,108.05587328888174 L 123.46839130434782,118.19587328888174 M 126.08695652173913,108.05587328888174 L 127.07891304347825,118.19587328888174 M 129.56521739130437,108.05587328888174 L 130.6894347826087,118.19587328888174 M 133.04347826086956,108.05587328888174 L 134.29995652173912,118.19587328888174 M 136.5217391304348,108.05587328888174 L 137.91047826086958,118.19587328888174 M 140,108.05587328888174 L 141.521,118.19587328888174" stroke="#979bc4" stroke-width="0.8" fill="none" opacity="0.7"/>
    <path d="M 50,108.05587328888174 Q 60,90.31087328888175 100,82.70587328888175 Q 140,90.31087328888175 150,108.05587328888174" fill="#3275b4" filter="url(#organic)"/>
  </g>
</svg>