<svg xmlns="http://www.w3.org/2000/svg" viewBox="0 0 200 200" width="200" height="200">
  <defs>
    <filter id="organic" x="-5%" y="-5%" width="110%" height="110%">
    <feTurbulence type="fractalNoise" baseFrequency="0.04" numOctaves="3" seed="1" result="noise"/>
    <feDisplacementMap in="SourceGraphic" in2="noise" scale="2" xChannelSelector="R" yChannelSelector="G"/>
  </filter>
  </defs>
  <g>
    <path d="M 94.4,82.71624038861819 Q 93.4,126.3581201943091 93.28,170 L 106.72,170 Q 106.6,126.3581201943091 105.6,82.71624038861819 Z" fill="#73aba3" filter="url(#organic)"/>
    <ellipse cx="100" cy="108.90136827203273" rx="8.399999999999999" ry="2.5199999999999996" fill="none" stroke="currentColor" stroke-width="1.5" opacity="0.6"/>
    <path d="M 61.959999999999994,82.71624038861819 L 60.519999999999996,92.31624038861818 M 65.58285714285714,82.71624038861819 L 64.27999999999999,92.31624038861818 M 69.20571428571428,82.71624038861819 L 68.03999999999999,92.31624038861818 M 72.82857142857142,82.71624038861819 L 71.8,92.31624038861818 M 76.45142857142856,82.71624038861819 L 75.55999999999999,92.31624038861818 M 80.07428571428571,82.71624038861819 L 79.32,92.31624038861818 M 83.69714285714285,82.71624038861819 L 83.08,92.31624038861818 M 87.32,82.71624038861819 L 86.83999999999999,92.31624038861818 M 90.94285714285714,82.71624038861819 L 90.6,92.31624038861818 M 94.56571428571428,82.71624038861819 L 94.36,92.31624038861818 M 98.18857142857142,82.71624038861819 L 98.11999999999999,92.31624038861818 M 101.81142857142858,82.71624038861819 L 101.88000000000001,92.31624038861818 M 105.4342857142857,82.71624038861819 L 105.63999999999999,92.31624038861818 M 109.05714285714286,82.71624038861819 L 109.4,92.31624038861818 M 112.68,82.71624038861819 L 113.16000000000001,92.31624038861818 M 116.30285714285714,82.71624038861819 L 116.91999999999999,92.31624038861818 M 119.92571428571428,82.71624038861819 L 120.67999999999999,92.31624038861818 M 123.54857142857144,82.71624038861819 L 124.44000000000001,92.31624038861818 M 127.17142857142858,82.71624038861819 L 128.20000000000002,92.31624038861818 M 130.7942857142857,82.71624038861819 L 131.95999999999998,92.31624038861818 M 134.41714285714284,82.71624038861819 L 135.71999999999997,92.31624038861818 M 138.04000000000002,82.71624038861819 L 139.48000000000002,92.31624038861818" stroke="#73aba3" stroke-width="0.8" fill="none" opacity="0.7"/>
    <path d="M 52.449999999999996,82.71624038861819 Q 52.449999999999996,75.51624038861819 100,73.1162403886182 Q 147.55,75.51624038861819 147.55,82.71624038861819" fill="#258651" filter="url(#organic)"/>
  </g>
</svg>