<svg xmlns="http://www.w3.org/2000/svg" viewBox="0 0 200 200" width="200" height="200">
  <defs>
    <filter id="organic" x="-5%" y="-5%" width="110%" height="110%">
    <feTurbulence type="fractalNoise" baseFrequency="0.04" numOctaves="3" seed="1" result="noise"/>
    <feDisplacementMap in="SourceGraphic" in2="noise" scale="2" xChannelSelector="R" yChannelSelector="G"/>
  </filter>
  </defs>
  <g>
    <path d="M 92,113.08771114079207 Q 91,141.54385557039603 90.4,170 L 109.6,170 Q 109,141.54385557039603 108,113.08771114079207 Z" fill="#73aba3" filter="url(#organic)"/>
    <ellipse cx="100" cy="130.16139779855445" rx="12" ry="3.5999999999999996" fill="none" stroke="currentColor" stroke-width="1.5" opacity="0.6"/>
    <path d="M 60,113.08771114079207 L 58.56,122.68771114079206 M 63.47826086956522,113.08771114079207 L 62.16347826086957,122.68771114079206 M 66.95652173913044,113.08771114079207 L 65.76695652173913,122.68771114079206 M 70.43478260869566,113.08771114079207 L 69.3704347826087,122.68771114079206 M 73.91304347826087,113.08771114079207 L 72.97391304347826,122.68771114079206 M 77.3913043478261,113.08771114079207 L 76.57739130434783,122.68771114079206 M 80.86956521739131,113.08771114079207 L 80.18086956521739,122.68771114079206 M 84.34782608695653,113.08771114079207 L 83.78434782608697,122.68771114079206 M 87.82608695652173,113.08771114079207 L 87.38782608695652,122.68771114079206 M 91.30434782608695,113.08771114079207 L 90.99130434782609,122.68771114079206 M 94.78260869565219,113.08771114079207 L 94.59478260869567,122.68771114079206 M 98.2608695652174,113.08771114079207 L 98.19826086956523,122.68771114079206 M 101.73913043478261,113.08771114079207 L 101.80173913043478,122.68771114079206 M 105.21739130434783,113.08771114079207 L 105.40521739130435,122.68771114079206 M 108.69565217391306,113.08771114079207 L 109.00869565217393,122.68771114079206 M 112.17391304347827,113.08771114079207 L 112.61217391304348,122.68771114079206 M 115.65217391304347,113.08771114079207 L 116.21565217391303,122.68771114079206 M 119.13043478260869,113.08771114079207 L 119.81913043478261,122.68771114079206 M 122.6086956521739,113.08771114079207 L 123.42260869565217,122.68771114079206 M 126.08695652173913,113.08771114079207 L 127.02608695652174,122.68771114079206 M 129.56521739130437,113.08771114079207 L 130.62956521739133,122.68771114079206 M 133.04347826086956,113.08771114079207 L 134.23304347826087,122.68771114079206 M 136.5217391304348,113.08771114079207 L 137.83652173913046,122.68771114079206 M 140,113.08771114079207 L 141.44,122.68771114079206" stroke="#73aba3" stroke-width="0.8" fill="none" opacity="0.7"/>
    <path d="M 50,113.08771114079207 Q 60,96.28771114079207 100,89.08771114079207 Q 140,96.28771114079207 150,113.08771114079207" fill="#258651" filter="url(#organic)"/>
  </g>
</svg>