<svg xmlns="http://www.w3.org/2000/svg" viewBox="0 0 200 200" width="200" height="200">
  <defs>
    <filter id="organic" x="-5%" y="-5%" width="110%" height="110%">
    <feTurbulence type="fractalNoise" baseFrequency="0.04" numOctaves="3" seed="1" result="noise"/>
    <feDisplacementMap in="SourceGraphic" in2="noise" scale="2" xChannelSelector="R" yChannelSelector="G"/>
  </filter>
  </defs>
  <g>
    <path d="M 95.6,89.7680683955744 Q 94.6,129.8840341977872 94.72,170 L 105.28,170 Q 105.4,129.8840341977872 104.4,89.7680683955744 Z" fill="#78a6bd" filter="url(#organic)"/>
    <ellipse cx="100" cy="113.83764787690208" rx="6.6000000000000005" ry="1.98" fill="none" stroke="currentColor" stroke-width="1.5" opacity="0.6"/>
    <path d="M 67.84,89.7680683955744 L 66.4,99.3680683955744 M 72.128,89.7680683955744 L 70.88,99.3680683955744 M 76.416,89.7680683955744 L 75.36,99.3680683955744 M 80.70400000000001,89.7680683955744 L 79.84,99.3680683955744 M 84.992,89.7680683955744 L 84.32000000000001,99.3680683955744 M 89.28,89.7680683955744 L 88.8,99.3680683955744 M 93.56800000000001,89.7680683955744 L 93.28000000000002,99.3680683955744 M 97.85600000000001,89.7680683955744 L 97.76,99.3680683955744 M 102.144,89.7680683955744 L 102.24000000000001,99.3680683955744 M 106.43200000000002,89.7680683955744 L 106.72000000000001,99.3680683955744 M 110.72,89.7680683955744 L 111.2,99.3680683955744 M 115.00800000000001,89.7680683955744 L 115.68,99.3680683955744 M 119.29600000000002,89.7680683955744 L 120.16000000000003,99.3680683955744 M 123.584,89.7680683955744 L 124.64,99.3680683955744 M 127.87200000000001,89.7680683955744 L 129.12,99.3680683955744 M 132.16000000000003,89.7680683955744 L 133.60000000000002,99.3680683955744" stroke="#78a6bd" stroke-width="0.8" fill="none" opacity="0.7"/>
    <path d="M 59.8,89.7680683955744 Q 59.8,82.5680683955744 100,80.16806839557441 Q 140.2,82.5680683955744 140.2,89.7680683955744" fill="#00858d" filter="url(#organic)"/>
  </g>
</svg>