<svg xmlns="http://www.w3.org/2000/svg" viewBox="0 0 200 200" width="200" height="200">
  <defs>
    <filter id="organic" x="-5%" y="-5%" width="110%" height="110%">
    <feTurbulence type="fractalNoise" baseFrequency="0.04" numOctaves="3" seed="1" result="noise"/>
    <feDisplacementMap in="SourceGraphic" in2="noise" scale="2" xChannelSelector="R" yChannelSelector="G"/>
  </filter>
  </defs>
  <g>
    <path d="M 92,93.38624773718035 Q 91,131.6931238685902 90.4,170 L 109.6,170 Q 109,131.6931238685902 108,93.38624773718035 Z" fill="#979bc4" filter="url(#organic)"/>
    <ellipse cx="100" cy="116.37037341602624" rx="12" ry="3.5999999999999996" fill="none" stroke="currentColor" stroke-width="1.5" opacity="0.6"/>
    <path d="M 60,93.38624773718035 L 58.398,104.06624773718036 M 63.47826086956522,93.38624773718035 L 62.015565217391305,104.06624773718036 M 66.95652173913044,93.38624773718035 L 65.63313043478261,104.06624773718036 M 70.43478260869566,93.38624773718035 L 69.25069565217392,104.06624773718036 M 73.91304347826087,93.38624773718035 L 72.86826086956522,104.06624773718036 M 77.3913043478261,93.38624773718035 L 76.48582608695652,104.06624773718036 M 80.86956521739131,93.38624773718035 L 80.10339130434784,104.06624773718036 M 84.34782608695653,93.38624773718035 L 83.72095652173914,104.06624773718036 M 87.82608695652173,93.38624773718035 L 87.33852173913043,104.06624773718036 M 91.30434782608695,93.38624773718035 L 90.95608695652173,104.06624773718036 M 94.78260869565219,93.38624773718035 L 94.57365217391306,104.06624773718036 M 98.2608695652174,93.38624773718035 L 98.19121739130436,104.06624773718036 M 101.73913043478261,93.38624773718035 L 101.80878260869565,104.06624773718036 M 105.21739130434783,93.38624773718035 L 105.42634782608695,104.06624773718036 M 108.69565217391306,93.38624773718035 L 109.04391304347828,104.06624773718036 M 112.17391304347827,93.38624773718035 L 112.66147826086957,104.06624773718036 M 115.65217391304347,93.38624773718035 L 116.27904347826086,104.06624773718036 M 119.13043478260869,93.38624773718035 L 119.89660869565216,104.06624773718036 M 122.6086956521739,93.38624773718035 L 123.51417391304348,104.06624773718036 M 126.08695652173913,93.38624773718035 L 127.13173913043478,104.06624773718036 M 129.56521739130437,93.38624773718035 L 130.74930434782613,104.06624773718036 M 133.04347826086956,93.38624773718035 L 134.3668695652174,104.06624773718036 M 136.5217391304348,93.38624773718035 L 137.98443478260873,104.06624773718036 M 140,93.38624773718035 L 141.602,104.06624773718036" stroke="#979bc4" stroke-width="0.8" fill="none" opacity="0.7"/>
    <path d="M 50,66.68624773718035 Q 65,80.03624773718036 100,93.38624773718035 Q 135,80.03624773718036 150,66.68624773718035" fill="#3275b4" filter="url(#organic)"/>
  </g>
</svg>