<svg xmlns="http://www.w3.org/2000/svg" viewBox="0 0 200 200" width="200" height="200">
  <defs>
    <filter id="organic" x="-5%" y="-5%" width="110%" height="110%">
    <feTurbulence type="fractalNoise" baseFrequency="0.04" numOctaves="3" seed="1" result="noise"/>
    <feDisplacementMap in="SourceGraphic" in2="noise" scale="2" xChannelSelector="R" yChannelSelector="G"/>
  </filter>
  </defs>
  <g>
    <path d="M 92,98.34239669408583 Q 91,134.17119834704292 90.4,170 L 109.6,170 Q 109,134.17119834704292 108,98.34239669408583 Z" fill="#979bc4" filter="url(#organic)"/>
    <path d="M 60,98.34239669408583 L 58.398,109.02239669408584 M 63.47826086956522,98.34239669408583 L 62.015565217391305,109.02239669408584 M 66.95652173913044,98.34239669408583 L 65.63313043478261,109.02239669408584 M 70.43478260869566,98.34239669408583 L 69.25069565217392,109.02239669408584 M 73.91304347826087,98.34239669408583 L 72.86826086956522,109.02239669408584 M 77.3913043478261,98.34239669408583 L 76.48582608695652,109.02239669408584 M 80.86956521739131,98.34239669408583 L 80.10339130434784,109.02239669408584 M 84.34782608695653,98.34239669408583 L 83.72095652173914,109.02239669408584 M 87.82608695652173,98.34239669408583 L 87.33852173913043,109.02239669408584 M 91.30434782608695,98.34239669408583 L 90.95608695652173,109.02239669408584 M 94.78260869565219,98.34239669408583 L 94.57365217391306,109.02239669408584 M 98.2608695652174,98.34239669408583 L 98.19121739130436,109.02239669408584 M 101.73913043478261,98.34239669408583 L 101.80878260869565,109.02239669408584 M 105.21739130434783,98.34239669408583 L 105.42634782608695,109.02239669408584 M 108.69565217391306,98.34239669408583 L 109.04391304347828,109.02239669408584 M 112.17391304347827,98.34239669408583 L 112.66147826086957,109.02239669408584 M 115.65217391304347,98.34239669408583 L 116.27904347826086,109.02239669408584 M 119.13043478260869,98.34239669408583 L 119.89660869565216,109.02239669408584 M 122.6086956521739,98.34239669408583 L 123.51417391304348,109.02239669408584 M 126.08695652173913,98.34239669408583 L 127.13173913043478,109.02239669408584 M 129.56521739130437,98.34239669408583 L 130.74930434782613,109.02239669408584 M 133.04347826086956,98.34239669408583 L 134.3668695652174,109.02239669408584 M 136.5217391304348,98.34239669408583 L 137.98443478260873,109.02239669408584 M 140,98.34239669408583 L 141.602,109.02239669408584" stroke="#979bc4" stroke-width="0.8" fill="none" opacity="0.7"/>
    <path d="M 50,98.34239669408583 Q 50,90.33239669408583 100,87.66239669408583 Q 150,90.33239669408583 150,98.34239669408583" fill="#3275b4" filter="url(#organic)"/>
  </g>
</svg>