<svg xmlns="http://www.w3.org/2000/svg" viewBox="0 0 200 200" width="200" height="200">
  <defs>
    <filter id="organic" x="-5%" y="-5%" width="110%" height="110%">
    <feTurbulence type="fractalNoise" baseFrequency="0.04" numOctaves="3" seed="1" result="noise"/>
    <feDisplacementMap in="SourceGraphic" in2="noise" scale="2" xChannelSelector="R" yChannelSelector="G"/>
  </filter>
  </defs>
  <g>
    <path d="M 92,79.57571614444066 Q 91,124.78785807222033 90.4,170 L 109.6,170 Q 109,124.78785807222033 108,79.57571614444066 Z" fill="#a496bf" filter="url(#organic)"/>
    <ellipse cx="100" cy="106.70300130110846" rx="12" ry="3.5999999999999996" fill="none" stroke="currentColor" stroke-width="1.5" opacity="0.6"/>
    <path d="M 60,79.57571614444066 L 58.56,89.17571614444066 M 63.47826086956522,79.57571614444066 L 62.16347826086957,89.17571614444066 M 66.95652173913044,79.57571614444066 L 65.76695652173913,89.17571614444066 M 70.43478260869566,79.57571614444066 L 69.3704347826087,89.17571614444066 M 73.91304347826087,79.57571614444066 L 72.97391304347826,89.17571614444066 M 77.3913043478261,79.57571614444066 L 76.57739130434783,89.17571614444066 M 80.86956521739131,79.57571614444066 L 80.18086956521739,89.17571614444066 M 84.34782608695653,79.57571614444066 L 83.78434782608697,89.17571614444066 M 87.82608695652173,79.57571614444066 L 87.38782608695652,89.17571614444066 M 91.30434782608695,79.57571614444066 L 90.99130434782609,89.17571614444066 M 94.78260869565219,79.57571614444066 L 94.59478260869567,89.17571614444066 M 98.2608695652174,79.57571614444066 L 98.19826086956523,89.17571614444066 M 101.73913043478261,79.57571614444066 L 101.80173913043478,89.17571614444066 M 105.21739130434783,79.57571614444066 L 105.40521739130435,89.17571614444066 M 108.69565217391306,79.57571614444066 L 109.00869565217393,89.17571614444066 M 112.17391304347827,79.57571614444066 L 112.61217391304348,89.17571614444066 M 115.65217391304347,79.57571614444066 L 116.21565217391303,89.17571614444066 M 119.13043478260869,79.57571614444066 L 119.81913043478261,89.17571614444066 M 122.6086956521739,79.57571614444066 L 123.42260869565217,89.17571614444066 M 126.08695652173913,79.57571614444066 L 127.02608695652174,89.17571614444066 M 129.56521739130437,79.57571614444066 L 130.62956521739133,89.17571614444066 M 133.04347826086956,79.57571614444066 L 134.23304347826087,89.17571614444066 M 136.5217391304348,79.57571614444066 L 137.83652173913046,89.17571614444066 M 140,79.57571614444066 L 141.44,89.17571614444066" stroke="#a496bf" stroke-width="0.8" fill="none" opacity="0.7"/>
    <path d="M 50,79.57571614444066 Q 50,72.37571614444066 100,69.97571614444067 Q 150,72.37571614444066 150,79.57571614444066" fill="#576cb7" filter="url(#organic)"/>
  </g>
</svg>