<svg xmlns="http://www.w3.org/2000/svg" viewBox="0 0 200 200" width="200" height="200">
  <defs>
    <filter id="organic" x="-5%" y="-5%" width="110%" height="110%">
    <feTurbulence type="fractalNoise" baseFrequency="0.04" numOctaves="3" seed="1" result="noise"/>
    <feDisplacementMap in="SourceGraphic" in2="noise" scale="2" xChannelSelector="R" yChannelSelector="G"/>
  </filter>
  </defs>
  <g>
    <path d="M 94.4,86.61927270629363 Q 93.4,128.3096363531468 93.28,170 L 106.72,170 Q 106.6,128.3096363531468 105.6,86.61927270629363 Z" fill="#979bc4" filter="url(#organic)"/>
    <path d="M 61.959999999999994,86.61927270629363 L 60.43899999999999,96.75927270629363 M 65.58285714285714,86.61927270629363 L 64.20671428571428,96.75927270629363 M 69.20571428571428,86.61927270629363 L 67.97442857142856,96.75927270629363 M 72.82857142857142,86.61927270629363 L 71.74214285714285,96.75927270629363 M 76.45142857142856,86.61927270629363 L 75.50985714285714,96.75927270629363 M 80.07428571428571,86.61927270629363 L 79.27757142857142,96.75927270629363 M 83.69714285714285,86.61927270629363 L 83.04528571428571,96.75927270629363 M 87.32,86.61927270629363 L 86.81299999999999,96.75927270629363 M 90.94285714285714,86.61927270629363 L 90.58071428571428,96.75927270629363 M 94.56571428571428,86.61927270629363 L 94.34842857142857,96.75927270629363 M 98.18857142857142,86.61927270629363 L 98.11614285714285,96.75927270629363 M 101.81142857142858,86.61927270629363 L 101.88385714285715,96.75927270629363 M 105.4342857142857,86.61927270629363 L 105.65157142857142,96.75927270629363 M 109.05714285714286,86.61927270629363 L 109.41928571428572,96.75927270629363 M 112.68,86.61927270629363 L 113.18700000000001,96.75927270629363 M 116.30285714285714,86.61927270629363 L 116.95471428571427,96.75927270629363 M 119.92571428571428,86.61927270629363 L 120.72242857142857,96.75927270629363 M 123.54857142857144,86.61927270629363 L 124.49014285714286,96.75927270629363 M 127.17142857142858,86.61927270629363 L 128.25785714285715,96.75927270629363 M 130.7942857142857,86.61927270629363 L 132.02557142857142,96.75927270629363 M 134.41714285714284,86.61927270629363 L 135.7932857142857,96.75927270629363 M 138.04000000000002,86.61927270629363 L 139.561,96.75927270629363" stroke="#979bc4" stroke-width="0.8" fill="none" opacity="0.7"/>
    <path d="M 52.449999999999996,86.61927270629363 Q 52.449999999999996,79.01427270629362 100,76.47927270629363 Q 147.55,79.01427270629362 147.55,86.61927270629363" fill="#3275b4" filter="url(#organic)"/>
  </g>
</svg>