<svg xmlns="http://www.w3.org/2000/svg" viewBox="0 0 200 200" width="200" height="200">
  <defs>
    <filter id="organic" x="-5%" y="-5%" width="110%" height="110%">
    <feTurbulence type="fractalNoise" baseFrequency="0.04" numOctaves="3" seed="1" result="noise"/>
    <feDisplacementMap in="SourceGraphic" in2="noise" scale="2" xChannelSelector="R" yChannelSelector="G"/>
  </filter>
  </defs>
  <g>
    <path d="M 94,89.0909090909091 Q 93,129.54545454545456 92.8,170 L 107.2,170 Q 107,129.54545454545456 106,89.0909090909091 Z" fill="#979bc4" filter="url(#organic)"/>
    <ellipse cx="100" cy="113.36363636363636" rx="9" ry="2.6999999999999997" fill="none" stroke="currentColor" stroke-width="1.5" opacity="0.6"/>
    <path d="M 60,89.0909090909091 L 58.236,100.8509090909091 M 63.47826086956522,89.0909090909091 L 61.867652173913044,100.8509090909091 M 66.95652173913044,89.0909090909091 L 65.49930434782608,100.8509090909091 M 70.43478260869566,89.0909090909091 L 69.13095652173914,100.8509090909091 M 73.91304347826087,89.0909090909091 L 72.76260869565218,100.8509090909091 M 77.3913043478261,89.0909090909091 L 76.39426086956523,100.8509090909091 M 80.86956521739131,89.0909090909091 L 80.02591304347827,100.8509090909091 M 84.34782608695653,89.0909090909091 L 83.65756521739131,100.8509090909091 M 87.82608695652173,89.0909090909091 L 87.28921739130435,100.8509090909091 M 91.30434782608695,89.0909090909091 L 90.92086956521739,100.8509090909091 M 94.78260869565219,89.0909090909091 L 94.55252173913044,100.8509090909091 M 98.2608695652174,89.0909090909091 L 98.1841739130435,100.8509090909091 M 101.73913043478261,89.0909090909091 L 101.81582608695652,100.8509090909091 M 105.21739130434783,89.0909090909091 L 105.44747826086957,100.8509090909091 M 108.69565217391306,89.0909090909091 L 109.07913043478263,100.8509090909091 M 112.17391304347827,89.0909090909091 L 112.71078260869565,100.8509090909091 M 115.65217391304347,89.0909090909091 L 116.34243478260869,100.8509090909091 M 119.13043478260869,89.0909090909091 L 119.97408695652173,100.8509090909091 M 122.6086956521739,89.0909090909091 L 123.60573913043477,100.8509090909091 M 126.08695652173913,89.0909090909091 L 127.23739130434782,100.8509090909091 M 129.56521739130437,89.0909090909091 L 130.8690434782609,100.8509090909091 M 133.04347826086956,89.0909090909091 L 134.5006956521739,100.8509090909091 M 136.5217391304348,89.0909090909091 L 138.13234782608697,100.8509090909091 M 140,89.0909090909091 L 141.764,100.8509090909091" stroke="#979bc4" stroke-width="0.8" fill="none" opacity="0.7"/>
    <path d="M 50,77.33090909090909 Q 65,89.0909090909091 100,83.2109090909091 Q 135,89.0909090909091 150,77.33090909090909" fill="#3275b4" filter="url(#organic)"/>
    <circle cx="75.0" cy="68.5" r="3" fill="white" opacity="0.85"/>
    <circle cx="115.0" cy="65.6" r="2.5" fill="white" opacity="0.85"/>
    <circle cx="95.0" cy="64.1" r="2" fill="white" opacity="0.85"/>
    <circle cx="130.0" cy="71.5" r="2" fill="white" opacity="0.85"/>
    <circle cx="70.0" cy="74.4" r="1.5" fill="white" opacity="0.85"/>
    <circle cx="105.0" cy="74.4" r="2.5" fill="white" opacity="0.85"/>
  </g>
</svg>