<svg xmlns="http://www.w3.org/2000/svg" viewBox="0 0 200 200" width="200" height="200">
  <defs>
    <filter id="organic" x="-5%" y="-5%" width="110%" height="110%">
    <feTurbulence type="fractalNoise" baseFrequency="0.04" numOctaves="3" seed="1" result="noise"/>
    <feDisplacementMap in="SourceGraphic" in2="noise" scale="2" xChannelSelector="R" yChannelSelector="G"/>
  </filter>
  </defs>
  <g>
    <path d="M 94.8,99.82864031958536 Q 93.8,134.91432015979268 93.76,170 L 106.24,170 Q 106.2,134.91432015979268 105.2,99.82864031958536 Z" fill="#979bc4" filter="url(#organic)"/>
    <ellipse cx="100" cy="120.88004822370975" rx="7.800000000000001" ry="2.3400000000000003" fill="none" stroke="currentColor" stroke-width="1.5" opacity="0.6"/>
    <path d="M 63.919999999999995,99.82864031958536 L 62.398999999999994,109.96864031958536 M 67.7178947368421,99.82864031958536 L 66.357,109.96864031958536 M 71.51578947368421,99.82864031958536 L 70.315,109.96864031958536 M 75.3136842105263,99.82864031958536 L 74.27299999999998,109.96864031958536 M 79.11157894736841,99.82864031958536 L 78.231,109.96864031958536 M 82.90947368421052,99.82864031958536 L 82.189,109.96864031958536 M 86.70736842105262,99.82864031958536 L 86.14699999999999,109.96864031958536 M 90.50526315789475,99.82864031958536 L 90.105,109.96864031958536 M 94.30315789473684,99.82864031958536 L 94.063,109.96864031958536 M 98.10105263157894,99.82864031958536 L 98.02099999999999,109.96864031958536 M 101.89894736842106,99.82864031958536 L 101.97900000000001,109.96864031958536 M 105.69684210526316,99.82864031958536 L 105.937,109.96864031958536 M 109.49473684210525,99.82864031958536 L 109.895,109.96864031958536 M 113.29263157894738,99.82864031958536 L 113.85300000000001,109.96864031958536 M 117.09052631578948,99.82864031958536 L 117.811,109.96864031958536 M 120.8884210526316,99.82864031958536 L 121.76900000000002,109.96864031958536 M 124.6863157894737,99.82864031958536 L 125.72700000000002,109.96864031958536 M 128.4842105263158,99.82864031958536 L 129.685,109.96864031958536 M 132.2821052631579,99.82864031958536 L 133.643,109.96864031958536 M 136.08,99.82864031958536 L 137.601,109.96864031958536" stroke="#979bc4" stroke-width="0.8" fill="none" opacity="0.7"/>
    <path d="M 54.89999999999999,99.82864031958536 Q 63.919999999999995,82.08364031958537 100,74.47864031958537 Q 136.08,82.08364031958537 145.10000000000002,99.82864031958536" fill="#3275b4" filter="url(#organic)"/>
  </g>
</svg>