<svg xmlns="http://www.w3.org/2000/svg" viewBox="0 0 200 200" width="200" height="200">
  <defs>
    <filter id="organic" x="-5%" y="-5%" width="110%" height="110%">
    <feTurbulence type="fractalNoise" baseFrequency="0.04" numOctaves="3" seed="1" result="noise"/>
    <feDisplacementMap in="SourceGraphic" in2="noise" scale="2" xChannelSelector="R" yChannelSelector="G"/>
  </filter>
  </defs>
  <g>
    <path d="M 94.4,77.05719251979659 Q 93.4,123.5285962598983 93.28,170 L 106.72,170 Q 106.6,123.5285962598983 105.6,77.05719251979659 Z" fill="#979bc4" filter="url(#organic)"/>
    <path d="M 61.959999999999994,77.05719251979659 L 58.657,99.07719251979658 M 65.58285714285714,77.05719251979659 L 62.594428571428566,99.07719251979658 M 69.20571428571428,77.05719251979659 L 66.53185714285713,99.07719251979658 M 72.82857142857142,77.05719251979659 L 70.4692857142857,99.07719251979658 M 76.45142857142856,77.05719251979659 L 74.40671428571427,99.07719251979658 M 80.07428571428571,77.05719251979659 L 78.34414285714286,99.07719251979658 M 83.69714285714285,77.05719251979659 L 82.28157142857143,99.07719251979658 M 87.32,77.05719251979659 L 86.219,99.07719251979658 M 90.94285714285714,77.05719251979659 L 90.15642857142856,99.07719251979658 M 94.56571428571428,77.05719251979659 L 94.09385714285713,99.07719251979658 M 98.18857142857142,77.05719251979659 L 98.0312857142857,99.07719251979658 M 101.81142857142858,77.05719251979659 L 101.9687142857143,99.07719251979658 M 105.4342857142857,77.05719251979659 L 105.90614285714285,99.07719251979658 M 109.05714285714286,77.05719251979659 L 109.84357142857144,99.07719251979658 M 112.68,77.05719251979659 L 113.781,99.07719251979658 M 116.30285714285714,77.05719251979659 L 117.71842857142856,99.07719251979658 M 119.92571428571428,77.05719251979659 L 121.65585714285713,99.07719251979658 M 123.54857142857144,77.05719251979659 L 125.59328571428573,99.07719251979658 M 127.17142857142858,77.05719251979659 L 129.53071428571428,99.07719251979658 M 130.7942857142857,77.05719251979659 L 133.46814285714285,99.07719251979658 M 134.41714285714284,77.05719251979659 L 137.40557142857142,99.07719251979658 M 138.04000000000002,77.05719251979659 L 141.34300000000002,99.07719251979658" stroke="#979bc4" stroke-width="0.8" fill="none" opacity="0.7"/>
    <path d="M 52.449999999999996,77.05719251979659 Q 52.449999999999996,55.037192519796584 85.735,44.027192519796586 L 100,22.00719251979659 L 114.265,44.027192519796586 Q 147.55,55.037192519796584 147.55,77.05719251979659" fill="#3275b4" filter="url(#organic)"/>
  </g>
</svg>