<svg xmlns="http://www.w3.org/2000/svg" viewBox="0 0 200 200" width="200" height="200">
  <defs>
    <filter id="organic" x="-5%" y="-5%" width="110%" height="110%">
    <feTurbulence type="fractalNoise" baseFrequency="0.04" numOctaves="3" seed="1" result="noise"/>
    <feDisplacementMap in="SourceGraphic" in2="noise" scale="2" xChannelSelector="R" yChannelSelector="G"/>
  </filter>
  </defs>
  <g>
    <path d="M 97.2,95.72754297272482 Q 96.2,132.8637714863624 96.64,170 L 103.36,170 Q 103.8,132.8637714863624 102.8,95.72754297272482 Z" fill="#979bc4" filter="url(#organic)"/>
    <path d="M 75.68,95.72754297272482 L 74.078,106.40754297272483 M 82.62857142857143,95.72754297272482 L 81.48428571428572,106.40754297272483 M 89.57714285714286,95.72754297272482 L 88.89057142857143,106.40754297272483 M 96.52571428571429,95.72754297272482 L 96.29685714285715,106.40754297272483 M 103.47428571428571,95.72754297272482 L 103.70314285714285,106.40754297272483 M 110.42285714285715,95.72754297272482 L 111.10942857142858,106.40754297272483 M 117.37142857142857,95.72754297272482 L 118.51571428571428,106.40754297272483 M 124.32000000000001,95.72754297272482 L 125.92200000000001,106.40754297272483" stroke="#979bc4" stroke-width="0.8" fill="none" opacity="0.7"/>
    <path d="M 69.6,95.72754297272482 Q 69.6,69.02754297272482 100,69.02754297272482 Q 130.4,69.02754297272482 130.4,95.72754297272482" fill="#3275b4" filter="url(#organic)"/>
  </g>
</svg>