<svg xmlns="http://www.w3.org/2000/svg" viewBox="0 0 200 200" width="200" height="200">
  <defs>
    <filter id="organic" x="-5%" y="-5%" width="110%" height="110%">
    <feTurbulence type="fractalNoise" baseFrequency="0.04" numOctaves="3" seed="1" result="noise"/>
    <feDisplacementMap in="SourceGraphic" in2="noise" scale="2" xChannelSelector="R" yChannelSelector="G"/>
  </filter>
  </defs>
  <g>
    <path d="M 96.8,84.89142670519456 Q 95.8,127.44571335259728 96.16,170 L 103.84,170 Q 104.2,127.44571335259728 103.2,84.89142670519456 Z" fill="#78a6bd" filter="url(#organic)"/>
    <path d="M 73.72,84.89142670519456 L 72.28,94.49142670519456 M 79.56,84.89142670519456 L 78.44,94.49142670519456 M 85.4,84.89142670519456 L 84.60000000000001,94.49142670519456 M 91.24,84.89142670519456 L 90.75999999999999,94.49142670519456 M 97.08,84.89142670519456 L 96.92,94.49142670519456 M 102.92,84.89142670519456 L 103.08,94.49142670519456 M 108.75999999999999,84.89142670519456 L 109.24,94.49142670519456 M 114.6,84.89142670519456 L 115.39999999999999,94.49142670519456 M 120.44,84.89142670519456 L 121.56,94.49142670519456 M 126.28,84.89142670519456 L 127.72,94.49142670519456" stroke="#78a6bd" stroke-width="0.8" fill="none" opacity="0.7"/>
    <path d="M 67.15,84.89142670519456 Q 67.15,60.89142670519456 100,60.89142670519456 Q 132.85,60.89142670519456 132.85,84.89142670519456" fill="#00858d" filter="url(#organic)"/>
  </g>
</svg>