<svg xmlns="http://www.w3.org/2000/svg" viewBox="0 0 200 200" width="200" height="200">
  <defs>
    <filter id="organic" x="-5%" y="-5%" width="110%" height="110%">
    <feTurbulence type="fractalNoise" baseFrequency="0.04" numOctaves="3" seed="1" result="noise"/>
    <feDisplacementMap in="SourceGraphic" in2="noise" scale="2" xChannelSelector="R" yChannelSelector="G"/>
  </filter>
  </defs>
  <g>
    <path d="M 96.4,92.67058443491857 Q 95.4,131.33529221745928 95.68,170 L 104.32,170 Q 104.6,131.33529221745928 103.6,92.67058443491857 Z" fill="#979bc4" filter="url(#organic)"/>
    <ellipse cx="100" cy="115.869409104443" rx="5.4" ry="1.62" fill="none" stroke="currentColor" stroke-width="1.5" opacity="0.6"/>
    <path d="M 71.75999999999999,92.67058443491857 L 70.23899999999999,102.81058443491857 M 76.89454545454545,92.67058443491857 L 75.6500909090909,102.81058443491857 M 82.0290909090909,92.67058443491857 L 81.06118181818181,102.81058443491857 M 87.16363636363636,92.67058443491857 L 86.47227272727272,102.81058443491857 M 92.29818181818182,92.67058443491857 L 91.88336363636364,102.81058443491857 M 97.43272727272726,92.67058443491857 L 97.29445454545454,102.81058443491857 M 102.56727272727272,92.67058443491857 L 102.70554545454544,102.81058443491857 M 107.70181818181817,92.67058443491857 L 108.11663636363635,102.81058443491857 M 112.83636363636364,92.67058443491857 L 113.52772727272728,102.81058443491857 M 117.97090909090909,92.67058443491857 L 118.93881818181818,102.81058443491857 M 123.10545454545453,92.67058443491857 L 124.34990909090908,102.81058443491857 M 128.24,92.67058443491857 L 129.761,102.81058443491857" stroke="#979bc4" stroke-width="0.8" fill="none" opacity="0.7"/>
    <path d="M 64.69999999999999,92.67058443491857 Q 64.69999999999999,85.06558443491858 100,82.53058443491858 Q 135.3,85.06558443491858 135.3,92.67058443491857" fill="#3275b4" filter="url(#organic)"/>
    <circle cx="82.3" cy="74.9" r="3" fill="white" opacity="0.85"/>
    <circle cx="110.6" cy="72.4" r="2.5" fill="white" opacity="0.85"/>
    <circle cx="96.5" cy="71.1" r="2" fill="white" opacity="0.85"/>
    <circle cx="121.2" cy="77.5" r="2" fill="white" opacity="0.85"/>
    <circle cx="78.8" cy="80.0" r="1.5" fill="white" opacity="0.85"/>
    <circle cx="103.5" cy="80.0" r="2.5" fill="white" opacity="0.85"/>
  </g>
</svg>