<svg xmlns="http://www.w3.org/2000/svg" viewBox="0 0 200 200" width="200" height="200">
  <defs>
    <filter id="organic" x="-5%" y="-5%" width="110%" height="110%">
    <feTurbulence type="fractalNoise" baseFrequency="0.04" numOctaves="3" seed="1" result="noise"/>
    <feDisplacementMap in="SourceGraphic" in2="noise" scale="2" xChannelSelector="R" yChannelSelector="G"/>
  </filter>
  </defs>
  <g>
    <path d="M 96.8,87.85509089860136 Q 95.8,128.92754544930068 96.16,170 L 103.84,170 Q 104.2,128.92754544930068 103.2,87.85509089860136 Z" fill="#979bc4" filter="url(#organic)"/>
    <path d="M 73.72,87.85509089860136 L 71.227,104.47509089860137 M 79.56,87.85509089860136 L 77.62100000000001,104.47509089860137 M 85.4,87.85509089860136 L 84.015,104.47509089860137 M 91.24,87.85509089860136 L 90.40899999999999,104.47509089860137 M 97.08,87.85509089860136 L 96.803,104.47509089860137 M 102.92,87.85509089860136 L 103.197,104.47509089860137 M 108.75999999999999,87.85509089860136 L 109.591,104.47509089860137 M 114.6,87.85509089860136 L 115.985,104.47509089860137 M 120.44,87.85509089860136 L 122.37899999999999,104.47509089860137 M 126.28,87.85509089860136 L 128.773,104.47509089860137" stroke="#979bc4" stroke-width="0.8" fill="none" opacity="0.7"/>
    <path d="M 67.15,87.85509089860136 Q 73.72,58.77009089860136 100,46.30509089860136 Q 126.28,58.77009089860136 132.85,87.85509089860136" fill="#3275b4" filter="url(#organic)"/>
  </g>
</svg>