<svg xmlns="http://www.w3.org/2000/svg" viewBox="0 0 200 200" width="200" height="200">
  <defs>
    <filter id="organic" x="-5%" y="-5%" width="110%" height="110%">
    <feTurbulence type="fractalNoise" baseFrequency="0.04" numOctaves="3" seed="1" result="noise"/>
    <feDisplacementMap in="SourceGraphic" in2="noise" scale="2" xChannelSelector="R" yChannelSelector="G"/>
  </filter>
  </defs>
  <g>
    <path d="M 96.8,95.27456640360231 Q 95.8,132.63728320180115 96.16,170 L 103.84,170 Q 104.2,132.63728320180115 103.2,95.27456640360231 Z" fill="#a496bf" filter="url(#organic)"/>
    <path d="M 73.72,95.27456640360231 L 72.28,104.8745664036023 M 79.56,95.27456640360231 L 78.44,104.8745664036023 M 85.4,95.27456640360231 L 84.60000000000001,104.8745664036023 M 91.24,95.27456640360231 L 90.75999999999999,104.8745664036023 M 97.08,95.27456640360231 L 96.92,104.8745664036023 M 102.92,95.27456640360231 L 103.08,104.8745664036023 M 108.75999999999999,95.27456640360231 L 109.24,104.8745664036023 M 114.6,95.27456640360231 L 115.39999999999999,104.8745664036023 M 120.44,95.27456640360231 L 121.56,104.8745664036023 M 126.28,95.27456640360231 L 127.72,104.8745664036023" stroke="#a496bf" stroke-width="0.8" fill="none" opacity="0.7"/>
    <path d="M 67.15,95.27456640360231 Q 67.15,71.27456640360231 100,71.27456640360231 Q 132.85,71.27456640360231 132.85,95.27456640360231" fill="#576cb7" filter="url(#organic)"/>
  </g>
</svg>