<svg xmlns="http://www.w3.org/2000/svg" viewBox="0 0 200 200" width="200" height="200">
  <defs>
    <filter id="organic" x="-5%" y="-5%" width="110%" height="110%">
    <feTurbulence type="fractalNoise" baseFrequency="0.04" numOctaves="3" seed="1" result="noise"/>
    <feDisplacementMap in="SourceGraphic" in2="noise" scale="2" xChannelSelector="R" yChannelSelector="G"/>
  </filter>
  </defs>
  <g>
    <path d="M 94,83.99680204988297 Q 93,126.99840102494149 92.8,170 L 107.2,170 Q 107,126.99840102494149 106,83.99680204988297 Z" fill="#979bc4" filter="url(#organic)"/>
    <path d="M 60,83.99680204988297 L 56.94,104.39680204988298 M 63.47826086956522,83.99680204988297 L 60.684347826086956,104.39680204988298 M 66.95652173913044,83.99680204988297 L 64.42869565217391,104.39680204988298 M 70.43478260869566,83.99680204988297 L 68.17304347826088,104.39680204988298 M 73.91304347826087,83.99680204988297 L 71.91739130434783,104.39680204988298 M 77.3913043478261,83.99680204988297 L 75.66173913043478,104.39680204988298 M 80.86956521739131,83.99680204988297 L 79.40608695652175,104.39680204988298 M 84.34782608695653,83.99680204988297 L 83.1504347826087,104.39680204988298 M 87.82608695652173,83.99680204988297 L 86.89478260869565,104.39680204988298 M 91.30434782608695,83.99680204988297 L 90.6391304347826,104.39680204988298 M 94.78260869565219,83.99680204988297 L 94.38347826086958,104.39680204988298 M 98.2608695652174,83.99680204988297 L 98.12782608695653,104.39680204988298 M 101.73913043478261,83.99680204988297 L 101.87217391304348,104.39680204988298 M 105.21739130434783,83.99680204988297 L 105.61652173913043,104.39680204988298 M 108.69565217391306,83.99680204988297 L 109.36086956521741,104.39680204988298 M 112.17391304347827,83.99680204988297 L 113.10521739130435,104.39680204988298 M 115.65217391304347,83.99680204988297 L 116.8495652173913,104.39680204988298 M 119.13043478260869,83.99680204988297 L 120.59391304347825,104.39680204988298 M 122.6086956521739,83.99680204988297 L 124.33826086956522,104.39680204988298 M 126.08695652173913,83.99680204988297 L 128.08260869565217,104.39680204988298 M 129.56521739130437,83.99680204988297 L 131.82695652173916,104.39680204988298 M 133.04347826086956,83.99680204988297 L 135.57130434782607,104.39680204988298 M 136.5217391304348,83.99680204988297 L 139.31565217391307,104.39680204988298 M 140,83.99680204988297 L 143.06,104.39680204988298" stroke="#979bc4" stroke-width="0.8" fill="none" opacity="0.7"/>
    <path d="M 50,63.59680204988297 Q 65,83.99680204988297 100,73.79680204988298 Q 135,83.99680204988297 150,63.59680204988297" fill="#3275b4" filter="url(#organic)"/>
    <circle cx="75.0" cy="48.3" r="3" fill="white" opacity="0.85"/>
    <circle cx="115.0" cy="43.2" r="2.5" fill="white" opacity="0.85"/>
    <circle cx="95.0" cy="40.6" r="2" fill="white" opacity="0.85"/>
    <circle cx="130.0" cy="53.4" r="2" fill="white" opacity="0.85"/>
    <circle cx="70.0" cy="58.5" r="1.5" fill="white" opacity="0.85"/>
    <circle cx="105.0" cy="58.5" r="2.5" fill="white" opacity="0.85"/>
  </g>
</svg>