<svg xmlns="http://www.w3.org/2000/svg" viewBox="0 0 200 200" width="200" height="200">
  <defs>
    <filter id="organic" x="-5%" y="-5%" width="110%" height="110%">
    <feTurbulence type="fractalNoise" baseFrequency="0.04" numOctaves="3" seed="1" result="noise"/>
    <feDisplacementMap in="SourceGraphic" in2="noise" scale="2" xChannelSelector="R" yChannelSelector="G"/>
  </filter>
  </defs>
  <g>
    <path d="M 92,94.69950043275723 Q 91,132.34975021637862 90.4,170 L 109.6,170 Q 109,132.34975021637862 108,94.69950043275723 Z" fill="#979bc4" filter="url(#organic)"/>
    <ellipse cx="100" cy="117.28965030293006" rx="12" ry="3.5999999999999996" fill="none" stroke="currentColor" stroke-width="1.5" opacity="0.6"/>
    <path d="M 60,94.69950043275723 L 58.398,105.37950043275724 M 63.47826086956522,94.69950043275723 L 62.015565217391305,105.37950043275724 M 66.95652173913044,94.69950043275723 L 65.63313043478261,105.37950043275724 M 70.43478260869566,94.69950043275723 L 69.25069565217392,105.37950043275724 M 73.91304347826087,94.69950043275723 L 72.86826086956522,105.37950043275724 M 77.3913043478261,94.69950043275723 L 76.48582608695652,105.37950043275724 M 80.86956521739131,94.69950043275723 L 80.10339130434784,105.37950043275724 M 84.34782608695653,94.69950043275723 L 83.72095652173914,105.37950043275724 M 87.82608695652173,94.69950043275723 L 87.33852173913043,105.37950043275724 M 91.30434782608695,94.69950043275723 L 90.95608695652173,105.37950043275724 M 94.78260869565219,94.69950043275723 L 94.57365217391306,105.37950043275724 M 98.2608695652174,94.69950043275723 L 98.19121739130436,105.37950043275724 M 101.73913043478261,94.69950043275723 L 101.80878260869565,105.37950043275724 M 105.21739130434783,94.69950043275723 L 105.42634782608695,105.37950043275724 M 108.69565217391306,94.69950043275723 L 109.04391304347828,105.37950043275724 M 112.17391304347827,94.69950043275723 L 112.66147826086957,105.37950043275724 M 115.65217391304347,94.69950043275723 L 116.27904347826086,105.37950043275724 M 119.13043478260869,94.69950043275723 L 119.89660869565216,105.37950043275724 M 122.6086956521739,94.69950043275723 L 123.51417391304348,105.37950043275724 M 126.08695652173913,94.69950043275723 L 127.13173913043478,105.37950043275724 M 129.56521739130437,94.69950043275723 L 130.74930434782613,105.37950043275724 M 133.04347826086956,94.69950043275723 L 134.3668695652174,105.37950043275724 M 136.5217391304348,94.69950043275723 L 137.98443478260873,105.37950043275724 M 140,94.69950043275723 L 141.602,105.37950043275724" stroke="#979bc4" stroke-width="0.8" fill="none" opacity="0.7"/>
    <path d="M 50,94.69950043275723 Q 50,86.68950043275723 100,84.01950043275723 Q 150,86.68950043275723 150,94.69950043275723" fill="#3275b4" filter="url(#organic)"/>
  </g>
</svg>