<svg xmlns="http://www.w3.org/2000/svg" viewBox="0 0 200 200" width="200" height="200">
  <defs>
    <filter id="organic" x="-5%" y="-5%" width="110%" height="110%">
    <feTurbulence type="fractalNoise" baseFrequency="0.04" numOctaves="3" seed="1" result="noise"/>
    <feDisplacementMap in="SourceGraphic" in2="noise" scale="2" xChannelSelector="R" yChannelSelector="G"/>
  </filter>
  </defs>
  <g>
    <path d="M 96.4,92.21923193941129 Q 95.4,131.10961596970566 95.68,170 L 104.32,170 Q 104.6,131.10961596970566 103.6,92.21923193941129 Z" fill="#979bc4" filter="url(#organic)"/>
    <ellipse cx="100" cy="115.5534623575879" rx="5.4" ry="1.62" fill="none" stroke="currentColor" stroke-width="1.5" opacity="0.6"/>
    <path d="M 71.75999999999999,92.21923193941129 L 69.672,106.13923193941129 M 76.89454545454545,92.21923193941129 L 75.18618181818181,106.13923193941129 M 82.0290909090909,92.21923193941129 L 80.70036363636362,106.13923193941129 M 87.16363636363636,92.21923193941129 L 86.21454545454544,106.13923193941129 M 92.29818181818182,92.21923193941129 L 91.72872727272727,106.13923193941129 M 97.43272727272726,92.21923193941129 L 97.24290909090908,106.13923193941129 M 102.56727272727272,92.21923193941129 L 102.7570909090909,106.13923193941129 M 107.70181818181817,92.21923193941129 L 108.27127272727272,106.13923193941129 M 112.83636363636364,92.21923193941129 L 113.78545454545456,106.13923193941129 M 117.97090909090909,92.21923193941129 L 119.29963636363637,106.13923193941129 M 123.10545454545453,92.21923193941129 L 124.81381818181818,106.13923193941129 M 128.24,92.21923193941129 L 130.328,106.13923193941129" stroke="#979bc4" stroke-width="0.8" fill="none" opacity="0.7"/>
    <path d="M 64.69999999999999,92.21923193941129 Q 64.69999999999999,81.77923193941129 100,78.29923193941129 Q 135.3,81.77923193941129 135.3,92.21923193941129" fill="#3275b4" filter="url(#organic)"/>
  </g>
</svg>