<svg xmlns="http://www.w3.org/2000/svg" viewBox="0 0 200 200" width="200" height="200">
  <defs>
    <filter id="organic" x="-5%" y="-5%" width="110%" height="110%">
    <feTurbulence type="fractalNoise" baseFrequency="0.04" numOctaves="3" seed="1" result="noise"/>
    <feDisplacementMap in="SourceGraphic" in2="noise" scale="2" xChannelSelector="R" yChannelSelector="G"/>
  </filter>
  </defs>
  <g>
    <path d="M 96.4,78.38781662260331 Q 95.4,124.19390831130166 95.68,170 L 104.32,170 Q 104.6,124.19390831130166 103.6,78.38781662260331 Z" fill="#979bc4" filter="url(#organic)"/>
    <path d="M 71.75999999999999,78.38781662260331 L 69.91499999999999,90.68781662260331 M 76.89454545454545,78.38781662260331 L 75.38499999999999,90.68781662260331 M 82.0290909090909,78.38781662260331 L 80.85499999999999,90.68781662260331 M 87.16363636363636,78.38781662260331 L 86.32499999999999,90.68781662260331 M 92.29818181818182,78.38781662260331 L 91.795,90.68781662260331 M 97.43272727272726,78.38781662260331 L 97.26499999999999,90.68781662260331 M 102.56727272727272,78.38781662260331 L 102.735,90.68781662260331 M 107.70181818181817,78.38781662260331 L 108.20499999999998,90.68781662260331 M 112.83636363636364,78.38781662260331 L 113.67500000000001,90.68781662260331 M 117.97090909090909,78.38781662260331 L 119.145,90.68781662260331 M 123.10545454545453,78.38781662260331 L 124.615,90.68781662260331 M 128.24,78.38781662260331 L 130.085,90.68781662260331" stroke="#979bc4" stroke-width="0.8" fill="none" opacity="0.7"/>
    <path d="M 64.69999999999999,78.38781662260331 Q 64.69999999999999,69.16281662260332 100,66.08781662260331 Q 135.3,69.16281662260332 135.3,78.38781662260331" fill="#3275b4" filter="url(#organic)"/>
  </g>
</svg>