<svg xmlns="http://www.w3.org/2000/svg" viewBox="0 0 200 200" width="200" height="200">
  <defs>
    <filter id="organic" x="-5%" y="-5%" width="110%" height="110%">
    <feTurbulence type="fractalNoise" baseFrequency="0.04" numOctaves="3" seed="1" result="noise"/>
    <feDisplacementMap in="SourceGraphic" in2="noise" scale="2" xChannelSelector="R" yChannelSelector="G"/>
  </filter>
  </defs>
  <g>
    <path d="M 95.6,97.95374753800246 Q 94.6,133.97687376900123 94.72,170 L 105.28,170 Q 105.4,133.97687376900123 104.4,97.95374753800246 Z" fill="#979bc4" filter="url(#organic)"/>
    <ellipse cx="100" cy="119.56762327660172" rx="6.6000000000000005" ry="1.98" fill="none" stroke="currentColor" stroke-width="1.5" opacity="0.6"/>
    <path d="M 67.84,97.95374753800246 L 66.319,108.09374753800246 M 72.128,97.95374753800246 L 70.8098,108.09374753800246 M 76.416,97.95374753800246 L 75.3006,108.09374753800246 M 80.70400000000001,97.95374753800246 L 79.79140000000001,108.09374753800246 M 84.992,97.95374753800246 L 84.2822,108.09374753800246 M 89.28,97.95374753800246 L 88.773,108.09374753800246 M 93.56800000000001,97.95374753800246 L 93.26380000000002,108.09374753800246 M 97.85600000000001,97.95374753800246 L 97.75460000000001,108.09374753800246 M 102.144,97.95374753800246 L 102.2454,108.09374753800246 M 106.43200000000002,97.95374753800246 L 106.73620000000001,108.09374753800246 M 110.72,97.95374753800246 L 111.227,108.09374753800246 M 115.00800000000001,97.95374753800246 L 115.71780000000001,108.09374753800246 M 119.29600000000002,97.95374753800246 L 120.20860000000002,108.09374753800246 M 123.584,97.95374753800246 L 124.6994,108.09374753800246 M 127.87200000000001,97.95374753800246 L 129.1902,108.09374753800246 M 132.16000000000003,97.95374753800246 L 133.681,108.09374753800246" stroke="#979bc4" stroke-width="0.8" fill="none" opacity="0.7"/>
    <path d="M 59.8,97.95374753800246 Q 59.8,90.34874753800247 100,87.81374753800247 Q 140.2,90.34874753800247 140.2,97.95374753800246" fill="#3275b4" filter="url(#organic)"/>
    <circle cx="79.9" cy="80.2" r="3" fill="white" opacity="0.85"/>
    <circle cx="112.1" cy="77.7" r="2.5" fill="white" opacity="0.85"/>
    <circle cx="96.0" cy="76.4" r="2" fill="white" opacity="0.85"/>
    <circle cx="124.1" cy="82.7" r="2" fill="white" opacity="0.85"/>
    <circle cx="75.9" cy="85.3" r="1.5" fill="white" opacity="0.85"/>
    <circle cx="104.0" cy="85.3" r="2.5" fill="white" opacity="0.85"/>
  </g>
</svg>