<svg xmlns="http://www.w3.org/2000/svg" viewBox="0 0 200 200" width="200" height="200">
  <defs>
    <filter id="organic" x="-5%" y="-5%" width="110%" height="110%">
    <feTurbulence type="fractalNoise" baseFrequency="0.04" numOctaves="3" seed="1" result="noise"/>
    <feDisplacementMap in="SourceGraphic" in2="noise" scale="2" xChannelSelector="R" yChannelSelector="G"/>
  </filter>
  </defs>
  <g>
    <path d="M 96.8,91.06966942135855 Q 95.8,130.53483471067926 96.16,170 L 103.84,170 Q 104.2,130.53483471067926 103.2,91.06966942135855 Z" fill="#78a6bd" filter="url(#organic)"/>
    <path d="M 73.72,91.06966942135855 L 72.28,100.66966942135855 M 79.56,91.06966942135855 L 78.44,100.66966942135855 M 85.4,91.06966942135855 L 84.60000000000001,100.66966942135855 M 91.24,91.06966942135855 L 90.75999999999999,100.66966942135855 M 97.08,91.06966942135855 L 96.92,100.66966942135855 M 102.92,91.06966942135855 L 103.08,100.66966942135855 M 108.75999999999999,91.06966942135855 L 109.24,100.66966942135855 M 114.6,91.06966942135855 L 115.39999999999999,100.66966942135855 M 120.44,91.06966942135855 L 121.56,100.66966942135855 M 126.28,91.06966942135855 L 127.72,100.66966942135855" stroke="#78a6bd" stroke-width="0.8" fill="none" opacity="0.7"/>
    <path d="M 67.15,91.06966942135855 Q 67.15,67.06966942135855 100,67.06966942135855 Q 132.85,67.06966942135855 132.85,91.06966942135855" fill="#00858d" filter="url(#organic)"/>
  </g>
</svg>