<svg xmlns="http://www.w3.org/2000/svg" viewBox="0 0 200 200" width="200" height="200">
  <defs>
    <filter id="organic" x="-5%" y="-5%" width="110%" height="110%">
    <feTurbulence type="fractalNoise" baseFrequency="0.04" numOctaves="3" seed="1" result="noise"/>
    <feDisplacementMap in="SourceGraphic" in2="noise" scale="2" xChannelSelector="R" yChannelSelector="G"/>
  </filter>
  </defs>
  <g>
    <path d="M 96.8,84.62029204279848 Q 95.8,127.31014602139925 96.16,170 L 103.84,170 Q 104.2,127.31014602139925 103.2,84.62029204279848 Z" fill="#82a2c3" filter="url(#organic)"/>
    <ellipse cx="100" cy="110.23420442995894" rx="4.800000000000001" ry="1.4400000000000002" fill="none" stroke="currentColor" stroke-width="1.5" opacity="0.6"/>
    <path d="M 73.72,84.62029204279848 L 72.28,94.22029204279849 M 79.56,84.62029204279848 L 78.44,94.22029204279849 M 85.4,84.62029204279848 L 84.60000000000001,94.22029204279849 M 91.24,84.62029204279848 L 90.75999999999999,94.22029204279849 M 97.08,84.62029204279848 L 96.92,94.22029204279849 M 102.92,84.62029204279848 L 103.08,94.22029204279849 M 108.75999999999999,84.62029204279848 L 109.24,94.22029204279849 M 114.6,84.62029204279848 L 115.39999999999999,94.22029204279849 M 120.44,84.62029204279848 L 121.56,94.22029204279849 M 126.28,84.62029204279848 L 127.72,94.22029204279849" stroke="#82a2c3" stroke-width="0.8" fill="none" opacity="0.7"/>
    <path d="M 67.15,84.62029204279848 Q 67.15,60.62029204279848 100,60.62029204279848 Q 132.85,60.62029204279848 132.85,84.62029204279848" fill="#0080a2" filter="url(#organic)"/>
  </g>
</svg>