<svg xmlns="http://www.w3.org/2000/svg" viewBox="0 0 200 200" width="200" height="200">
  <defs>
    <filter id="organic" x="-5%" y="-5%" width="110%" height="110%">
    <feTurbulence type="fractalNoise" baseFrequency="0.04" numOctaves="3" seed="1" result="noise"/>
    <feDisplacementMap in="SourceGraphic" in2="noise" scale="2" xChannelSelector="R" yChannelSelector="G"/>
  </filter>
  </defs>
  <g>
    <path d="M 92,92.90375686569892 Q 91,131.45187843284947 90.4,170 L 109.6,170 Q 109,131.45187843284947 108,92.90375686569892 Z" fill="#979bc4" filter="url(#organic)"/>
    <path d="M 60,92.90375686569892 L 58.236,104.66375686569893 M 63.47826086956522,92.90375686569892 L 61.867652173913044,104.66375686569893 M 66.95652173913044,92.90375686569892 L 65.49930434782608,104.66375686569893 M 70.43478260869566,92.90375686569892 L 69.13095652173914,104.66375686569893 M 73.91304347826087,92.90375686569892 L 72.76260869565218,104.66375686569893 M 77.3913043478261,92.90375686569892 L 76.39426086956523,104.66375686569893 M 80.86956521739131,92.90375686569892 L 80.02591304347827,104.66375686569893 M 84.34782608695653,92.90375686569892 L 83.65756521739131,104.66375686569893 M 87.82608695652173,92.90375686569892 L 87.28921739130435,104.66375686569893 M 91.30434782608695,92.90375686569892 L 90.92086956521739,104.66375686569893 M 94.78260869565219,92.90375686569892 L 94.55252173913044,104.66375686569893 M 98.2608695652174,92.90375686569892 L 98.1841739130435,104.66375686569893 M 101.73913043478261,92.90375686569892 L 101.81582608695652,104.66375686569893 M 105.21739130434783,92.90375686569892 L 105.44747826086957,104.66375686569893 M 108.69565217391306,92.90375686569892 L 109.07913043478263,104.66375686569893 M 112.17391304347827,92.90375686569892 L 112.71078260869565,104.66375686569893 M 115.65217391304347,92.90375686569892 L 116.34243478260869,104.66375686569893 M 119.13043478260869,92.90375686569892 L 119.97408695652173,104.66375686569893 M 122.6086956521739,92.90375686569892 L 123.60573913043477,104.66375686569893 M 126.08695652173913,92.90375686569892 L 127.23739130434782,104.66375686569893 M 129.56521739130437,92.90375686569892 L 130.8690434782609,104.66375686569893 M 133.04347826086956,92.90375686569892 L 134.5006956521739,104.66375686569893 M 136.5217391304348,92.90375686569892 L 138.13234782608697,104.66375686569893 M 140,92.90375686569892 L 141.764,104.66375686569893" stroke="#979bc4" stroke-width="0.8" fill="none" opacity="0.7"/>
    <path d="M 50,81.14375686569892 Q 65,92.90375686569892 100,87.02375686569893 Q 135,92.90375686569892 150,81.14375686569892" fill="#3275b4" filter="url(#organic)"/>
    <circle cx="75.0" cy="72.3" r="3" fill="white" opacity="0.85"/>
    <circle cx="115.0" cy="69.4" r="2.5" fill="white" opacity="0.85"/>
    <circle cx="95.0" cy="67.9" r="2" fill="white" opacity="0.85"/>
    <circle cx="130.0" cy="75.3" r="2" fill="white" opacity="0.85"/>
    <circle cx="70.0" cy="78.2" r="1.5" fill="white" opacity="0.85"/>
    <circle cx="105.0" cy="78.2" r="2.5" fill="white" opacity="0.85"/>
  </g>
</svg>