<svg xmlns="http://www.w3.org/2000/svg" viewBox="0 0 200 200" width="200" height="200">
  <defs>
    <filter id="organic" x="-5%" y="-5%" width="110%" height="110%">
    <feTurbulence type="fractalNoise" baseFrequency="0.04" numOctaves="3" seed="1" result="noise"/>
    <feDisplacementMap in="SourceGraphic" in2="noise" scale="2" xChannelSelector="R" yChannelSelector="G"/>
  </filter>
  </defs>
  <g>
    <path d="M 96.4,91.06966942135855 Q 95.4,130.53483471067926 95.68,170 L 104.32,170 Q 104.6,130.53483471067926 103.6,91.06966942135855 Z" fill="#979bc4" filter="url(#organic)"/>
    <ellipse cx="100" cy="114.74876859495099" rx="5.4" ry="1.62" fill="none" stroke="currentColor" stroke-width="1.5" opacity="0.6"/>
    <path d="M 71.75999999999999,91.06966942135855 L 69.672,104.98966942135856 M 76.89454545454545,91.06966942135855 L 75.18618181818181,104.98966942135856 M 82.0290909090909,91.06966942135855 L 80.70036363636362,104.98966942135856 M 87.16363636363636,91.06966942135855 L 86.21454545454544,104.98966942135856 M 92.29818181818182,91.06966942135855 L 91.72872727272727,104.98966942135856 M 97.43272727272726,91.06966942135855 L 97.24290909090908,104.98966942135856 M 102.56727272727272,91.06966942135855 L 102.7570909090909,104.98966942135856 M 107.70181818181817,91.06966942135855 L 108.27127272727272,104.98966942135856 M 112.83636363636364,91.06966942135855 L 113.78545454545456,104.98966942135856 M 117.97090909090909,91.06966942135855 L 119.29963636363637,104.98966942135856 M 123.10545454545453,91.06966942135855 L 124.81381818181818,104.98966942135856 M 128.24,91.06966942135855 L 130.328,104.98966942135856" stroke="#979bc4" stroke-width="0.8" fill="none" opacity="0.7"/>
    <path d="M 64.69999999999999,91.06966942135855 Q 64.69999999999999,80.62966942135856 100,77.14966942135855 Q 135.3,80.62966942135856 135.3,91.06966942135855" fill="#3275b4" filter="url(#organic)"/>
  </g>
</svg>