<svg xmlns="http://www.w3.org/2000/svg" viewBox="0 0 200 200" width="200" height="200">
  <defs>
    <filter id="organic" x="-5%" y="-5%" width="110%" height="110%">
    <feTurbulence type="fractalNoise" baseFrequency="0.04" numOctaves="3" seed="1" result="noise"/>
    <feDisplacementMap in="SourceGraphic" in2="noise" scale="2" xChannelSelector="R" yChannelSelector="G"/>
  </filter>
  </defs>
  <g>
    <path d="M 92,106.65481817657341 Q 91,138.32740908828671 90.4,170 L 109.6,170 Q 109,138.32740908828671 108,106.65481817657341 Z" fill="#979bc4" filter="url(#organic)"/>
    <path d="M 60,106.65481817657341 L 58.479,116.79481817657341 M 63.47826086956522,106.65481817657341 L 62.08952173913043,116.79481817657341 M 66.95652173913044,106.65481817657341 L 65.70004347826087,116.79481817657341 M 70.43478260869566,106.65481817657341 L 69.31056521739131,116.79481817657341 M 73.91304347826087,106.65481817657341 L 72.92108695652175,116.79481817657341 M 77.3913043478261,106.65481817657341 L 76.53160869565218,116.79481817657341 M 80.86956521739131,106.65481817657341 L 80.14213043478262,116.79481817657341 M 84.34782608695653,106.65481817657341 L 83.75265217391305,116.79481817657341 M 87.82608695652173,106.65481817657341 L 87.36317391304347,116.79481817657341 M 91.30434782608695,106.65481817657341 L 90.97369565217392,116.79481817657341 M 94.78260869565219,106.65481817657341 L 94.58421739130436,116.79481817657341 M 98.2608695652174,106.65481817657341 L 98.1947391304348,116.79481817657341 M 101.73913043478261,106.65481817657341 L 101.80526086956522,116.79481817657341 M 105.21739130434783,106.65481817657341 L 105.41578260869565,116.79481817657341 M 108.69565217391306,106.65481817657341 L 109.0263043478261,116.79481817657341 M 112.17391304347827,106.65481817657341 L 112.63682608695653,116.79481817657341 M 115.65217391304347,106.65481817657341 L 116.24734782608695,116.79481817657341 M 119.13043478260869,106.65481817657341 L 119.85786956521738,116.79481817657341 M 122.6086956521739,106.65481817657341 L 123.46839130434782,116.79481817657341 M 126.08695652173913,106.65481817657341 L 127.07891304347825,116.79481817657341 M 129.56521739130437,106.65481817657341 L 130.6894347826087,116.79481817657341 M 133.04347826086956,106.65481817657341 L 134.29995652173912,116.79481817657341 M 136.5217391304348,106.65481817657341 L 137.91047826086958,116.79481817657341 M 140,106.65481817657341 L 141.521,116.79481817657341" stroke="#979bc4" stroke-width="0.8" fill="none" opacity="0.7"/>
    <path d="M 50,106.6548181765734 Q 60,88.90981817657341 100,81.3048181765734 Q 140,88.90981817657341 150,106.6548181765734" fill="#3275b4" filter="url(#organic)"/>
  </g>
</svg>