<svg xmlns="http://www.w3.org/2000/svg" viewBox="0 0 200 200" width="200" height="200">
  <defs>
    <filter id="organic" x="-5%" y="-5%" width="110%" height="110%">
    <feTurbulence type="fractalNoise" baseFrequency="0.04" numOctaves="3" seed="1" result="noise"/>
    <feDisplacementMap in="SourceGraphic" in2="noise" scale="2" xChannelSelector="R" yChannelSelector="G"/>
  </filter>
  </defs>
  <g>
    <path d="M 95.6,94.69950043275723 Q 94.6,132.34975021637862 94.72,170 L 105.28,170 Q 105.4,132.34975021637862 104.4,94.69950043275723 Z" fill="#979bc4" filter="url(#organic)"/>
    <ellipse cx="100" cy="117.28965030293006" rx="6.6000000000000005" ry="1.98" fill="none" stroke="currentColor" stroke-width="1.5" opacity="0.6"/>
    <path d="M 67.84,94.69950043275723 L 66.238,105.37950043275724 M 72.128,94.69950043275723 L 70.7396,105.37950043275724 M 76.416,94.69950043275723 L 75.24119999999999,105.37950043275724 M 80.70400000000001,94.69950043275723 L 79.7428,105.37950043275724 M 84.992,94.69950043275723 L 84.2444,105.37950043275724 M 89.28,94.69950043275723 L 88.746,105.37950043275724 M 93.56800000000001,94.69950043275723 L 93.2476,105.37950043275724 M 97.85600000000001,94.69950043275723 L 97.7492,105.37950043275724 M 102.144,94.69950043275723 L 102.25080000000001,105.37950043275724 M 106.43200000000002,94.69950043275723 L 106.75240000000002,105.37950043275724 M 110.72,94.69950043275723 L 111.254,105.37950043275724 M 115.00800000000001,94.69950043275723 L 115.75560000000002,105.37950043275724 M 119.29600000000002,94.69950043275723 L 120.25720000000003,105.37950043275724 M 123.584,94.69950043275723 L 124.75880000000001,105.37950043275724 M 127.87200000000001,94.69950043275723 L 129.2604,105.37950043275724 M 132.16000000000003,94.69950043275723 L 133.76200000000003,105.37950043275724" stroke="#979bc4" stroke-width="0.8" fill="none" opacity="0.7"/>
    <path d="M 59.8,94.69950043275723 Q 59.8,86.68950043275723 100,84.01950043275723 Q 140.2,86.68950043275723 140.2,94.69950043275723" fill="#3275b4" filter="url(#organic)"/>
  </g>
</svg>