<svg xmlns="http://www.w3.org/2000/svg" viewBox="0 0 200 200" width="200" height="200">
  <defs>
    <filter id="organic" x="-5%" y="-5%" width="110%" height="110%">
    <feTurbulence type="fractalNoise" baseFrequency="0.04" numOctaves="3" seed="1" result="noise"/>
    <feDisplacementMap in="SourceGraphic" in2="noise" scale="2" xChannelSelector="R" yChannelSelector="G"/>
  </filter>
  </defs>
  <g>
    <path d="M 92,97.39650185361766 Q 91,133.69825092680884 90.4,170 L 109.6,170 Q 109,133.69825092680884 108,97.39650185361766 Z" fill="#a7a074" filter="url(#organic)"/>
    <ellipse cx="100" cy="119.17755129753236" rx="12" ry="3.5999999999999996" fill="none" stroke="currentColor" stroke-width="1.5" opacity="0.6"/>
    <path d="M 60,97.39650185361766 L 58.479,107.53650185361766 M 63.47826086956522,97.39650185361766 L 62.08952173913043,107.53650185361766 M 66.95652173913044,97.39650185361766 L 65.70004347826087,107.53650185361766 M 70.43478260869566,97.39650185361766 L 69.31056521739131,107.53650185361766 M 73.91304347826087,97.39650185361766 L 72.92108695652175,107.53650185361766 M 77.3913043478261,97.39650185361766 L 76.53160869565218,107.53650185361766 M 80.86956521739131,97.39650185361766 L 80.14213043478262,107.53650185361766 M 84.34782608695653,97.39650185361766 L 83.75265217391305,107.53650185361766 M 87.82608695652173,97.39650185361766 L 87.36317391304347,107.53650185361766 M 91.30434782608695,97.39650185361766 L 90.97369565217392,107.53650185361766 M 94.78260869565219,97.39650185361766 L 94.58421739130436,107.53650185361766 M 98.2608695652174,97.39650185361766 L 98.1947391304348,107.53650185361766 M 101.73913043478261,97.39650185361766 L 101.80526086956522,107.53650185361766 M 105.21739130434783,97.39650185361766 L 105.41578260869565,107.53650185361766 M 108.69565217391306,97.39650185361766 L 109.0263043478261,107.53650185361766 M 112.17391304347827,97.39650185361766 L 112.63682608695653,107.53650185361766 M 115.65217391304347,97.39650185361766 L 116.24734782608695,107.53650185361766 M 119.13043478260869,97.39650185361766 L 119.85786956521738,107.53650185361766 M 122.6086956521739,97.39650185361766 L 123.46839130434782,107.53650185361766 M 126.08695652173913,97.39650185361766 L 127.07891304347825,107.53650185361766 M 129.56521739130437,97.39650185361766 L 130.6894347826087,107.53650185361766 M 133.04347826086956,97.39650185361766 L 134.29995652173912,107.53650185361766 M 136.5217391304348,97.39650185361766 L 137.91047826086958,107.53650185361766 M 140,97.39650185361766 L 141.521,107.53650185361766" stroke="#a7a074" stroke-width="0.8" fill="none" opacity="0.7"/>
    <path d="M 50,97.39650185361765 Q 50,89.79150185361766 100,87.25650185361766 Q 150,89.79150185361766 150,97.39650185361765" fill="#9d6300" filter="url(#organic)"/>
  </g>
</svg>