<svg xmlns="http://www.w3.org/2000/svg" viewBox="0 0 200 200" width="200" height="200">
  <defs>
    <filter id="organic" x="-5%" y="-5%" width="110%" height="110%">
    <feTurbulence type="fractalNoise" baseFrequency="0.04" numOctaves="3" seed="1" result="noise"/>
    <feDisplacementMap in="SourceGraphic" in2="noise" scale="2" xChannelSelector="R" yChannelSelector="G"/>
  </filter>
  </defs>
  <g>
    <path d="M 92,85.51379566305691 Q 91,127.75689783152845 90.4,170 L 109.6,170 Q 109,127.75689783152845 108,85.51379566305691 Z" fill="#979bc4" filter="url(#organic)"/>
    <path d="M 60,85.51379566305691 L 56.697,107.5337956630569 M 63.47826086956522,85.51379566305691 L 60.46247826086957,107.5337956630569 M 66.95652173913044,85.51379566305691 L 64.22795652173913,107.5337956630569 M 70.43478260869566,85.51379566305691 L 67.9934347826087,107.5337956630569 M 73.91304347826087,85.51379566305691 L 71.75891304347826,107.5337956630569 M 77.3913043478261,85.51379566305691 L 75.52439130434783,107.5337956630569 M 80.86956521739131,85.51379566305691 L 79.2898695652174,107.5337956630569 M 84.34782608695653,85.51379566305691 L 83.05534782608697,107.5337956630569 M 87.82608695652173,85.51379566305691 L 86.82082608695652,107.5337956630569 M 91.30434782608695,85.51379566305691 L 90.58630434782609,107.5337956630569 M 94.78260869565219,85.51379566305691 L 94.35178260869566,107.5337956630569 M 98.2608695652174,85.51379566305691 L 98.11726086956523,107.5337956630569 M 101.73913043478261,85.51379566305691 L 101.88273913043479,107.5337956630569 M 105.21739130434783,85.51379566305691 L 105.64821739130434,107.5337956630569 M 108.69565217391306,85.51379566305691 L 109.41369565217393,107.5337956630569 M 112.17391304347827,85.51379566305691 L 113.17917391304348,107.5337956630569 M 115.65217391304347,85.51379566305691 L 116.94465217391303,107.5337956630569 M 119.13043478260869,85.51379566305691 L 120.7101304347826,107.5337956630569 M 122.6086956521739,85.51379566305691 L 124.47560869565217,107.5337956630569 M 126.08695652173913,85.51379566305691 L 128.24108695652174,107.5337956630569 M 129.56521739130437,85.51379566305691 L 132.00656521739134,107.5337956630569 M 133.04347826086956,85.51379566305691 L 135.77204347826085,107.5337956630569 M 136.5217391304348,85.51379566305691 L 139.53752173913045,107.5337956630569 M 140,85.51379566305691 L 143.303,107.5337956630569" stroke="#979bc4" stroke-width="0.8" fill="none" opacity="0.7"/>
    <path d="M 50,85.51379566305691 Q 50,63.49379566305691 85,52.48379566305691 L 100,30.463795663056914 L 115,52.48379566305691 Q 150,63.49379566305691 150,85.51379566305691" fill="#3275b4" filter="url(#organic)"/>
  </g>
</svg>