<svg xmlns="http://www.w3.org/2000/svg" viewBox="0 0 200 200" width="200" height="200">
  <defs>
    <filter id="organic" x="-5%" y="-5%" width="110%" height="110%">
    <feTurbulence type="fractalNoise" baseFrequency="0.04" numOctaves="3" seed="1" result="noise"/>
    <feDisplacementMap in="SourceGraphic" in2="noise" scale="2" xChannelSelector="R" yChannelSelector="G"/>
  </filter>
  </defs>
  <g>
    <path d="M 92,93.02231550081966 Q 91,131.51115775040984 90.4,170 L 109.6,170 Q 109,131.51115775040984 108,93.02231550081966 Z" fill="#979bc4" filter="url(#organic)"/>
    <ellipse cx="100" cy="116.11562085057376" rx="12" ry="3.5999999999999996" fill="none" stroke="currentColor" stroke-width="1.5" opacity="0.6"/>
    <path d="M 60,93.02231550081966 L 58.317,104.24231550081966 M 63.47826086956522,93.02231550081966 L 61.94160869565218,104.24231550081966 M 66.95652173913044,93.02231550081966 L 65.56621739130435,104.24231550081966 M 70.43478260869566,93.02231550081966 L 69.19082608695652,104.24231550081966 M 73.91304347826087,93.02231550081966 L 72.8154347826087,104.24231550081966 M 77.3913043478261,93.02231550081966 L 76.44004347826088,104.24231550081966 M 80.86956521739131,93.02231550081966 L 80.06465217391305,104.24231550081966 M 84.34782608695653,93.02231550081966 L 83.68926086956523,104.24231550081966 M 87.82608695652173,93.02231550081966 L 87.31386956521739,104.24231550081966 M 91.30434782608695,93.02231550081966 L 90.93847826086956,104.24231550081966 M 94.78260869565219,93.02231550081966 L 94.56308695652176,104.24231550081966 M 98.2608695652174,93.02231550081966 L 98.18769565217393,104.24231550081966 M 101.73913043478261,93.02231550081966 L 101.81230434782609,104.24231550081966 M 105.21739130434783,93.02231550081966 L 105.43691304347826,104.24231550081966 M 108.69565217391306,93.02231550081966 L 109.06152173913046,104.24231550081966 M 112.17391304347827,93.02231550081966 L 112.68613043478261,104.24231550081966 M 115.65217391304347,93.02231550081966 L 116.31073913043477,104.24231550081966 M 119.13043478260869,93.02231550081966 L 119.93534782608695,104.24231550081966 M 122.6086956521739,93.02231550081966 L 123.55995652173912,104.24231550081966 M 126.08695652173913,93.02231550081966 L 127.1845652173913,104.24231550081966 M 129.56521739130437,93.02231550081966 L 130.8091739130435,104.24231550081966 M 133.04347826086956,93.02231550081966 L 134.43378260869565,104.24231550081966 M 136.5217391304348,93.02231550081966 L 138.05839130434785,104.24231550081966 M 140,93.02231550081966 L 141.683,104.24231550081966" stroke="#979bc4" stroke-width="0.8" fill="none" opacity="0.7"/>
    <path d="M 50,81.80231550081966 Q 65,93.02231550081966 100,87.41231550081966 Q 135,93.02231550081966 150,81.80231550081966" fill="#3275b4" filter="url(#organic)"/>
    <circle cx="75.0" cy="73.4" r="3" fill="white" opacity="0.85"/>
    <circle cx="115.0" cy="70.6" r="2.5" fill="white" opacity="0.85"/>
    <circle cx="95.0" cy="69.2" r="2" fill="white" opacity="0.85"/>
    <circle cx="130.0" cy="76.2" r="2" fill="white" opacity="0.85"/>
    <circle cx="70.0" cy="79.0" r="1.5" fill="white" opacity="0.85"/>
    <circle cx="105.0" cy="79.0" r="2.5" fill="white" opacity="0.85"/>
  </g>
</svg>