<svg xmlns="http://www.w3.org/2000/svg" viewBox="0 0 200 200" width="200" height="200">
  <defs>
    <filter id="organic" x="-5%" y="-5%" width="110%" height="110%">
    <feTurbulence type="fractalNoise" baseFrequency="0.04" numOctaves="3" seed="1" result="noise"/>
    <feDisplacementMap in="SourceGraphic" in2="noise" scale="2" xChannelSelector="R" yChannelSelector="G"/>
  </filter>
  </defs>
  <g>
    <path d="M 96.4,87.28779990222847 Q 95.4,128.64389995111424 95.68,170 L 104.32,170 Q 104.6,128.64389995111424 103.6,87.28779990222847 Z" fill="#979bc4" filter="url(#organic)"/>
    <path d="M 71.75999999999999,87.28779990222847 L 69.75299999999999,100.66779990222847 M 76.89454545454545,87.28779990222847 L 75.25245454545454,100.66779990222847 M 82.0290909090909,87.28779990222847 L 80.75190909090908,100.66779990222847 M 87.16363636363636,87.28779990222847 L 86.25136363636364,100.66779990222847 M 92.29818181818182,87.28779990222847 L 91.75081818181818,100.66779990222847 M 97.43272727272726,87.28779990222847 L 97.25027272727272,100.66779990222847 M 102.56727272727272,87.28779990222847 L 102.74972727272727,100.66779990222847 M 107.70181818181817,87.28779990222847 L 108.24918181818181,100.66779990222847 M 112.83636363636364,87.28779990222847 L 113.74863636363636,100.66779990222847 M 117.97090909090909,87.28779990222847 L 119.2480909090909,100.66779990222847 M 123.10545454545453,87.28779990222847 L 124.74754545454545,100.66779990222847 M 128.24,87.28779990222847 L 130.247,100.66779990222847" stroke="#979bc4" stroke-width="0.8" fill="none" opacity="0.7"/>
    <path d="M 64.69999999999999,87.28779990222847 Q 64.69999999999999,77.25279990222847 100,73.90779990222848 Q 135.3,77.25279990222847 135.3,87.28779990222847" fill="#3275b4" filter="url(#organic)"/>
    <circle cx="82.3" cy="63.9" r="3" fill="white" opacity="0.85"/>
    <circle cx="110.6" cy="60.5" r="2.5" fill="white" opacity="0.85"/>
    <circle cx="96.5" cy="58.9" r="2" fill="white" opacity="0.85"/>
    <circle cx="121.2" cy="67.2" r="2" fill="white" opacity="0.85"/>
    <circle cx="78.8" cy="70.6" r="1.5" fill="white" opacity="0.85"/>
    <circle cx="103.5" cy="70.6" r="2.5" fill="white" opacity="0.85"/>
  </g>
</svg>