<svg xmlns="http://www.w3.org/2000/svg" viewBox="0 0 200 200" width="200" height="200">
  <defs>
    <filter id="organic" x="-5%" y="-5%" width="110%" height="110%">
    <feTurbulence type="fractalNoise" baseFrequency="0.04" numOctaves="3" seed="1" result="noise"/>
    <feDisplacementMap in="SourceGraphic" in2="noise" scale="2" xChannelSelector="R" yChannelSelector="G"/>
  </filter>
  </defs>
  <g>
    <path d="M 96.8,85.34036481247969 Q 95.8,127.67018240623985 96.16,170 L 103.84,170 Q 104.2,127.67018240623985 103.2,85.34036481247969 Z" fill="#979bc4" filter="url(#organic)"/>
    <path d="M 73.72,85.34036481247969 L 71.875,97.64036481247969 M 79.56,85.34036481247969 L 78.125,97.64036481247969 M 85.4,85.34036481247969 L 84.375,97.64036481247969 M 91.24,85.34036481247969 L 90.625,97.64036481247969 M 97.08,85.34036481247969 L 96.875,97.64036481247969 M 102.92,85.34036481247969 L 103.125,97.64036481247969 M 108.75999999999999,85.34036481247969 L 109.37499999999999,97.64036481247969 M 114.6,85.34036481247969 L 115.625,97.64036481247969 M 120.44,85.34036481247969 L 121.875,97.64036481247969 M 126.28,85.34036481247969 L 128.125,97.64036481247969" stroke="#979bc4" stroke-width="0.8" fill="none" opacity="0.7"/>
    <path d="M 67.15,54.59036481247969 Q 77.00500000000001,69.96536481247969 100,85.34036481247969 Q 122.99499999999999,69.96536481247969 132.85,54.59036481247969" fill="#3275b4" filter="url(#organic)"/>
  </g>
</svg>