<svg xmlns="http://www.w3.org/2000/svg" viewBox="0 0 200 200" width="200" height="200">
  <defs>
    <filter id="organic" x="-5%" y="-5%" width="110%" height="110%">
    <feTurbulence type="fractalNoise" baseFrequency="0.04" numOctaves="3" seed="1" result="noise"/>
    <feDisplacementMap in="SourceGraphic" in2="noise" scale="2" xChannelSelector="R" yChannelSelector="G"/>
  </filter>
  </defs>
  <g>
    <path d="M 96.4,85.57224889262358 Q 95.4,127.78612444631179 95.68,170 L 104.32,170 Q 104.6,127.78612444631179 103.6,85.57224889262358 Z" fill="#979bc4" filter="url(#organic)"/>
    <path d="M 71.75999999999999,85.57224889262358 L 69.10499999999999,103.27224889262358 M 76.89454545454545,85.57224889262358 L 74.72227272727272,103.27224889262358 M 82.0290909090909,85.57224889262358 L 80.33954545454544,103.27224889262358 M 87.16363636363636,85.57224889262358 L 85.95681818181818,103.27224889262358 M 92.29818181818182,85.57224889262358 L 91.57409090909091,103.27224889262358 M 97.43272727272726,85.57224889262358 L 97.19136363636363,103.27224889262358 M 102.56727272727272,85.57224889262358 L 102.80863636363635,103.27224889262358 M 107.70181818181817,85.57224889262358 L 108.42590909090907,103.27224889262358 M 112.83636363636364,85.57224889262358 L 114.04318181818182,103.27224889262358 M 117.97090909090909,85.57224889262358 L 119.66045454545454,103.27224889262358 M 123.10545454545453,85.57224889262358 L 125.27772727272726,103.27224889262358 M 128.24,85.57224889262358 L 130.895,103.27224889262358" stroke="#979bc4" stroke-width="0.8" fill="none" opacity="0.7"/>
    <path d="M 64.69999999999999,85.57224889262358 Q 71.75999999999999,54.597248892623576 100,41.32224889262358 Q 128.24,54.597248892623576 135.3,85.57224889262358" fill="#3275b4" filter="url(#organic)"/>
    <circle cx="82.3" cy="54.6" r="3" fill="white" opacity="0.85"/>
    <circle cx="110.6" cy="50.2" r="2.5" fill="white" opacity="0.85"/>
    <circle cx="96.5" cy="48.0" r="2" fill="white" opacity="0.85"/>
    <circle cx="121.2" cy="59.0" r="2" fill="white" opacity="0.85"/>
    <circle cx="78.8" cy="63.4" r="1.5" fill="white" opacity="0.85"/>
    <circle cx="103.5" cy="63.4" r="2.5" fill="white" opacity="0.85"/>
  </g>
</svg>