<svg xmlns="http://www.w3.org/2000/svg" viewBox="0 0 200 200" width="200" height="200">
  <defs>
    <filter id="organic" x="-5%" y="-5%" width="110%" height="110%">
    <feTurbulence type="fractalNoise" baseFrequency="0.04" numOctaves="3" seed="1" result="noise"/>
    <feDisplacementMap in="SourceGraphic" in2="noise" scale="2" xChannelSelector="R" yChannelSelector="G"/>
  </filter>
  </defs>
  <g>
    <path d="M 94,81.10522121483254 Q 93,125.55261060741627 92.8,170 L 107.2,170 Q 107,125.55261060741627 106,81.10522121483254 Z" fill="#979bc4" filter="url(#organic)"/>
    <ellipse cx="100" cy="107.77365485038277" rx="9" ry="2.6999999999999997" fill="none" stroke="currentColor" stroke-width="1.5" opacity="0.6"/>
    <path d="M 60,81.10522121483254 L 58.398,91.78522121483255 M 63.47826086956522,81.10522121483254 L 62.015565217391305,91.78522121483255 M 66.95652173913044,81.10522121483254 L 65.63313043478261,91.78522121483255 M 70.43478260869566,81.10522121483254 L 69.25069565217392,91.78522121483255 M 73.91304347826087,81.10522121483254 L 72.86826086956522,91.78522121483255 M 77.3913043478261,81.10522121483254 L 76.48582608695652,91.78522121483255 M 80.86956521739131,81.10522121483254 L 80.10339130434784,91.78522121483255 M 84.34782608695653,81.10522121483254 L 83.72095652173914,91.78522121483255 M 87.82608695652173,81.10522121483254 L 87.33852173913043,91.78522121483255 M 91.30434782608695,81.10522121483254 L 90.95608695652173,91.78522121483255 M 94.78260869565219,81.10522121483254 L 94.57365217391306,91.78522121483255 M 98.2608695652174,81.10522121483254 L 98.19121739130436,91.78522121483255 M 101.73913043478261,81.10522121483254 L 101.80878260869565,91.78522121483255 M 105.21739130434783,81.10522121483254 L 105.42634782608695,91.78522121483255 M 108.69565217391306,81.10522121483254 L 109.04391304347828,91.78522121483255 M 112.17391304347827,81.10522121483254 L 112.66147826086957,91.78522121483255 M 115.65217391304347,81.10522121483254 L 116.27904347826086,91.78522121483255 M 119.13043478260869,81.10522121483254 L 119.89660869565216,91.78522121483255 M 122.6086956521739,81.10522121483254 L 123.51417391304348,91.78522121483255 M 126.08695652173913,81.10522121483254 L 127.13173913043478,91.78522121483255 M 129.56521739130437,81.10522121483254 L 130.74930434782613,91.78522121483255 M 133.04347826086956,81.10522121483254 L 134.3668695652174,91.78522121483255 M 136.5217391304348,81.10522121483254 L 137.98443478260873,91.78522121483255 M 140,81.10522121483254 L 141.602,91.78522121483255" stroke="#979bc4" stroke-width="0.8" fill="none" opacity="0.7"/>
    <path d="M 50,70.42522121483253 Q 65,81.10522121483254 100,75.76522121483254 Q 135,81.10522121483254 150,70.42522121483253" fill="#3275b4" filter="url(#organic)"/>
    <circle cx="75.0" cy="62.4" r="3" fill="white" opacity="0.85"/>
    <circle cx="115.0" cy="59.7" r="2.5" fill="white" opacity="0.85"/>
    <circle cx="95.0" cy="58.4" r="2" fill="white" opacity="0.85"/>
    <circle cx="130.0" cy="65.1" r="2" fill="white" opacity="0.85"/>
    <circle cx="70.0" cy="67.8" r="1.5" fill="white" opacity="0.85"/>
    <circle cx="105.0" cy="67.8" r="2.5" fill="white" opacity="0.85"/>
  </g>
</svg>