<svg xmlns="http://www.w3.org/2000/svg" viewBox="0 0 200 200" width="200" height="200">
  <defs>
    <filter id="organic" x="-5%" y="-5%" width="110%" height="110%">
    <feTurbulence type="fractalNoise" baseFrequency="0.04" numOctaves="3" seed="1" result="noise"/>
    <feDisplacementMap in="SourceGraphic" in2="noise" scale="2" xChannelSelector="R" yChannelSelector="G"/>
  </filter>
  </defs>
  <g>
    <path d="M 92,82.58314353957859 Q 91,126.2915717697893 90.4,170 L 109.6,170 Q 109,126.2915717697893 108,82.58314353957859 Z" fill="#a496bf" filter="url(#organic)"/>
    <path d="M 60,82.58314353957859 L 58.56,92.1831435395786 M 63.47826086956522,82.58314353957859 L 62.16347826086957,92.1831435395786 M 66.95652173913044,82.58314353957859 L 65.76695652173913,92.1831435395786 M 70.43478260869566,82.58314353957859 L 69.3704347826087,92.1831435395786 M 73.91304347826087,82.58314353957859 L 72.97391304347826,92.1831435395786 M 77.3913043478261,82.58314353957859 L 76.57739130434783,92.1831435395786 M 80.86956521739131,82.58314353957859 L 80.18086956521739,92.1831435395786 M 84.34782608695653,82.58314353957859 L 83.78434782608697,92.1831435395786 M 87.82608695652173,82.58314353957859 L 87.38782608695652,92.1831435395786 M 91.30434782608695,82.58314353957859 L 90.99130434782609,92.1831435395786 M 94.78260869565219,82.58314353957859 L 94.59478260869567,92.1831435395786 M 98.2608695652174,82.58314353957859 L 98.19826086956523,92.1831435395786 M 101.73913043478261,82.58314353957859 L 101.80173913043478,92.1831435395786 M 105.21739130434783,82.58314353957859 L 105.40521739130435,92.1831435395786 M 108.69565217391306,82.58314353957859 L 109.00869565217393,92.1831435395786 M 112.17391304347827,82.58314353957859 L 112.61217391304348,92.1831435395786 M 115.65217391304347,82.58314353957859 L 116.21565217391303,92.1831435395786 M 119.13043478260869,82.58314353957859 L 119.81913043478261,92.1831435395786 M 122.6086956521739,82.58314353957859 L 123.42260869565217,92.1831435395786 M 126.08695652173913,82.58314353957859 L 127.02608695652174,92.1831435395786 M 129.56521739130437,82.58314353957859 L 130.62956521739133,92.1831435395786 M 133.04347826086956,82.58314353957859 L 134.23304347826087,92.1831435395786 M 136.5217391304348,82.58314353957859 L 137.83652173913046,92.1831435395786 M 140,82.58314353957859 L 141.44,92.1831435395786" stroke="#a496bf" stroke-width="0.8" fill="none" opacity="0.7"/>
    <path d="M 50,82.58314353957859 Q 50,75.38314353957858 100,72.98314353957858 Q 150,75.38314353957858 150,82.58314353957859" fill="#576cb7" filter="url(#organic)"/>
  </g>
</svg>