<svg xmlns="http://www.w3.org/2000/svg" viewBox="0 0 200 200" width="200" height="200">
  <defs>
    <filter id="organic" x="-5%" y="-5%" width="110%" height="110%">
    <feTurbulence type="fractalNoise" baseFrequency="0.04" numOctaves="3" seed="1" result="noise"/>
    <feDisplacementMap in="SourceGraphic" in2="noise" scale="2" xChannelSelector="R" yChannelSelector="G"/>
  </filter>
  </defs>
  <g>
    <path d="M 92,86.94821273533363 Q 91,128.47410636766682 90.4,170 L 109.6,170 Q 109,128.47410636766682 108,86.94821273533363 Z" fill="#979bc4" filter="url(#organic)"/>
    <ellipse cx="100" cy="111.86374891473353" rx="12" ry="3.5999999999999996" fill="none" stroke="currentColor" stroke-width="1.5" opacity="0.6"/>
    <path d="M 60,86.94821273533363 L 58.317,98.16821273533363 M 63.47826086956522,86.94821273533363 L 61.94160869565218,98.16821273533363 M 66.95652173913044,86.94821273533363 L 65.56621739130435,98.16821273533363 M 70.43478260869566,86.94821273533363 L 69.19082608695652,98.16821273533363 M 73.91304347826087,86.94821273533363 L 72.8154347826087,98.16821273533363 M 77.3913043478261,86.94821273533363 L 76.44004347826088,98.16821273533363 M 80.86956521739131,86.94821273533363 L 80.06465217391305,98.16821273533363 M 84.34782608695653,86.94821273533363 L 83.68926086956523,98.16821273533363 M 87.82608695652173,86.94821273533363 L 87.31386956521739,98.16821273533363 M 91.30434782608695,86.94821273533363 L 90.93847826086956,98.16821273533363 M 94.78260869565219,86.94821273533363 L 94.56308695652176,98.16821273533363 M 98.2608695652174,86.94821273533363 L 98.18769565217393,98.16821273533363 M 101.73913043478261,86.94821273533363 L 101.81230434782609,98.16821273533363 M 105.21739130434783,86.94821273533363 L 105.43691304347826,98.16821273533363 M 108.69565217391306,86.94821273533363 L 109.06152173913046,98.16821273533363 M 112.17391304347827,86.94821273533363 L 112.68613043478261,98.16821273533363 M 115.65217391304347,86.94821273533363 L 116.31073913043477,98.16821273533363 M 119.13043478260869,86.94821273533363 L 119.93534782608695,98.16821273533363 M 122.6086956521739,86.94821273533363 L 123.55995652173912,98.16821273533363 M 126.08695652173913,86.94821273533363 L 127.1845652173913,98.16821273533363 M 129.56521739130437,86.94821273533363 L 130.8091739130435,98.16821273533363 M 133.04347826086956,86.94821273533363 L 134.43378260869565,98.16821273533363 M 136.5217391304348,86.94821273533363 L 138.05839130434785,98.16821273533363 M 140,86.94821273533363 L 141.683,98.16821273533363" stroke="#979bc4" stroke-width="0.8" fill="none" opacity="0.7"/>
    <path d="M 50,86.94821273533363 Q 50,78.53321273533362 100,75.72821273533363 Q 150,78.53321273533362 150,86.94821273533363" fill="#3275b4" filter="url(#organic)"/>
  </g>
</svg>