<svg xmlns="http://www.w3.org/2000/svg" viewBox="0 0 200 200" width="200" height="200">
  <defs>
    <filter id="organic" x="-5%" y="-5%" width="110%" height="110%">
    <feTurbulence type="fractalNoise" baseFrequency="0.04" numOctaves="3" seed="1" result="noise"/>
    <feDisplacementMap in="SourceGraphic" in2="noise" scale="2" xChannelSelector="R" yChannelSelector="G"/>
  </filter>
  </defs>
  <g>
    <path d="M 92,102.11306643178945 Q 91,136.05653321589472 90.4,170 L 109.6,170 Q 109,136.05653321589472 108,102.11306643178945 Z" fill="#73aba3" filter="url(#organic)"/>
    <ellipse cx="100" cy="122.47914650225262" rx="12" ry="3.5999999999999996" fill="none" stroke="currentColor" stroke-width="1.5" opacity="0.6"/>
    <path d="M 60,102.11306643178945 L 58.56,111.71306643178946 M 63.47826086956522,102.11306643178945 L 62.16347826086957,111.71306643178946 M 66.95652173913044,102.11306643178945 L 65.76695652173913,111.71306643178946 M 70.43478260869566,102.11306643178945 L 69.3704347826087,111.71306643178946 M 73.91304347826087,102.11306643178945 L 72.97391304347826,111.71306643178946 M 77.3913043478261,102.11306643178945 L 76.57739130434783,111.71306643178946 M 80.86956521739131,102.11306643178945 L 80.18086956521739,111.71306643178946 M 84.34782608695653,102.11306643178945 L 83.78434782608697,111.71306643178946 M 87.82608695652173,102.11306643178945 L 87.38782608695652,111.71306643178946 M 91.30434782608695,102.11306643178945 L 90.99130434782609,111.71306643178946 M 94.78260869565219,102.11306643178945 L 94.59478260869567,111.71306643178946 M 98.2608695652174,102.11306643178945 L 98.19826086956523,111.71306643178946 M 101.73913043478261,102.11306643178945 L 101.80173913043478,111.71306643178946 M 105.21739130434783,102.11306643178945 L 105.40521739130435,111.71306643178946 M 108.69565217391306,102.11306643178945 L 109.00869565217393,111.71306643178946 M 112.17391304347827,102.11306643178945 L 112.61217391304348,111.71306643178946 M 115.65217391304347,102.11306643178945 L 116.21565217391303,111.71306643178946 M 119.13043478260869,102.11306643178945 L 119.81913043478261,111.71306643178946 M 122.6086956521739,102.11306643178945 L 123.42260869565217,111.71306643178946 M 126.08695652173913,102.11306643178945 L 127.02608695652174,111.71306643178946 M 129.56521739130437,102.11306643178945 L 130.62956521739133,111.71306643178946 M 133.04347826086956,102.11306643178945 L 134.23304347826087,111.71306643178946 M 136.5217391304348,102.11306643178945 L 137.83652173913046,111.71306643178946 M 140,102.11306643178945 L 141.44,111.71306643178946" stroke="#73aba3" stroke-width="0.8" fill="none" opacity="0.7"/>
    <path d="M 50,92.51306643178944 Q 65,102.11306643178945 100,97.31306643178945 Q 135,102.11306643178945 150,92.51306643178944" fill="#258651" filter="url(#organic)"/>
  </g>
</svg>