<svg xmlns="http://www.w3.org/2000/svg" viewBox="0 0 200 200" width="200" height="200">
  <defs>
    <filter id="organic" x="-5%" y="-5%" width="110%" height="110%">
    <feTurbulence type="fractalNoise" baseFrequency="0.04" numOctaves="3" seed="1" result="noise"/>
    <feDisplacementMap in="SourceGraphic" in2="noise" scale="2" xChannelSelector="R" yChannelSelector="G"/>
  </filter>
  </defs>
  <g>
    <path d="M 96.8,92.44248137375976 Q 95.8,131.22124068687987 96.16,170 L 103.84,170 Q 104.2,131.22124068687987 103.2,92.44248137375976 Z" fill="#979bc4" filter="url(#organic)"/>
    <path d="M 73.72,92.44248137375976 L 71.875,104.74248137375976 M 79.56,92.44248137375976 L 78.125,104.74248137375976 M 85.4,92.44248137375976 L 84.375,104.74248137375976 M 91.24,92.44248137375976 L 90.625,104.74248137375976 M 97.08,92.44248137375976 L 96.875,104.74248137375976 M 102.92,92.44248137375976 L 103.125,104.74248137375976 M 108.75999999999999,92.44248137375976 L 109.37499999999999,104.74248137375976 M 114.6,92.44248137375976 L 115.625,104.74248137375976 M 120.44,92.44248137375976 L 121.875,104.74248137375976 M 126.28,92.44248137375976 L 128.125,104.74248137375976" stroke="#979bc4" stroke-width="0.8" fill="none" opacity="0.7"/>
    <path d="M 67.15,92.44248137375976 Q 67.15,61.69248137375976 100,61.69248137375976 Q 132.85,61.69248137375976 132.85,92.44248137375976" fill="#3275b4" filter="url(#organic)"/>
  </g>
</svg>