<svg xmlns="http://www.w3.org/2000/svg" viewBox="0 0 200 200" width="200" height="200">
  <defs>
    <filter id="organic" x="-5%" y="-5%" width="110%" height="110%">
    <feTurbulence type="fractalNoise" baseFrequency="0.04" numOctaves="3" seed="1" result="noise"/>
    <feDisplacementMap in="SourceGraphic" in2="noise" scale="2" xChannelSelector="R" yChannelSelector="G"/>
  </filter>
  </defs>
  <g>
    <path d="M 94.4,106.226500438002 Q 93.4,138.113250219001 93.28,170 L 106.72,170 Q 106.6,138.113250219001 105.6,106.226500438002 Z" fill="#a7a074" filter="url(#organic)"/>
    <path d="M 61.959999999999994,106.226500438002 L 60.358,116.90650043800201 M 65.58285714285714,106.226500438002 L 64.13342857142857,116.90650043800201 M 69.20571428571428,106.226500438002 L 67.90885714285713,116.90650043800201 M 72.82857142857142,106.226500438002 L 71.6842857142857,116.90650043800201 M 76.45142857142856,106.226500438002 L 75.45971428571428,116.90650043800201 M 80.07428571428571,106.226500438002 L 79.23514285714285,116.90650043800201 M 83.69714285714285,106.226500438002 L 83.01057142857142,116.90650043800201 M 87.32,106.226500438002 L 86.78599999999999,116.90650043800201 M 90.94285714285714,106.226500438002 L 90.56142857142856,116.90650043800201 M 94.56571428571428,106.226500438002 L 94.33685714285714,116.90650043800201 M 98.18857142857142,106.226500438002 L 98.1122857142857,116.90650043800201 M 101.81142857142858,106.226500438002 L 101.8877142857143,116.90650043800201 M 105.4342857142857,106.226500438002 L 105.66314285714284,116.90650043800201 M 109.05714285714286,106.226500438002 L 109.43857142857144,116.90650043800201 M 112.68,106.226500438002 L 113.21400000000001,116.90650043800201 M 116.30285714285714,106.226500438002 L 116.98942857142856,116.90650043800201 M 119.92571428571428,106.226500438002 L 120.76485714285714,116.90650043800201 M 123.54857142857144,106.226500438002 L 124.54028571428572,116.90650043800201 M 127.17142857142858,106.226500438002 L 128.31571428571428,116.90650043800201 M 130.7942857142857,106.226500438002 L 132.09114285714284,116.90650043800201 M 134.41714285714284,106.226500438002 L 135.8665714285714,116.90650043800201 M 138.04000000000002,106.226500438002 L 139.64200000000002,116.90650043800201" stroke="#a7a074" stroke-width="0.8" fill="none" opacity="0.7"/>
    <path d="M 52.449999999999996,106.226500438002 Q 61.959999999999994,87.53650043800201 100,79.526500438002 Q 138.04000000000002,87.53650043800201 147.55,106.226500438002" fill="#9d6300" filter="url(#organic)"/>
  </g>
</svg>