<svg xmlns="http://www.w3.org/2000/svg" viewBox="0 0 200 200" width="200" height="200">
  <defs>
    <filter id="organic" x="-5%" y="-5%" width="110%" height="110%">
    <feTurbulence type="fractalNoise" baseFrequency="0.04" numOctaves="3" seed="1" result="noise"/>
    <feDisplacementMap in="SourceGraphic" in2="noise" scale="2" xChannelSelector="R" yChannelSelector="G"/>
  </filter>
  </defs>
  <g>
    <path d="M 94.8,84.72790660227544 Q 93.8,127.36395330113771 93.76,170 L 106.24,170 Q 106.2,127.36395330113771 105.2,84.72790660227544 Z" fill="#979bc4" filter="url(#organic)"/>
    <path d="M 63.919999999999995,84.72790660227544 L 61.02199999999999,104.04790660227545 M 67.7178947368421,84.72790660227544 L 65.12494736842105,104.04790660227545 M 71.51578947368421,84.72790660227544 L 69.2278947368421,104.04790660227545 M 75.3136842105263,84.72790660227544 L 73.33084210526314,104.04790660227545 M 79.11157894736841,84.72790660227544 L 77.4337894736842,104.04790660227545 M 82.90947368421052,84.72790660227544 L 81.53673684210526,104.04790660227545 M 86.70736842105262,84.72790660227544 L 85.63968421052631,104.04790660227545 M 90.50526315789475,84.72790660227544 L 89.74263157894738,104.04790660227545 M 94.30315789473684,84.72790660227544 L 93.84557894736842,104.04790660227545 M 98.10105263157894,84.72790660227544 L 97.94852631578947,104.04790660227545 M 101.89894736842106,84.72790660227544 L 102.05147368421053,104.04790660227545 M 105.69684210526316,84.72790660227544 L 106.15442105263158,104.04790660227545 M 109.49473684210525,84.72790660227544 L 110.25736842105262,104.04790660227545 M 113.29263157894738,84.72790660227544 L 114.36031578947369,104.04790660227545 M 117.09052631578948,84.72790660227544 L 118.46326315789474,104.04790660227545 M 120.8884210526316,84.72790660227544 L 122.56621052631581,104.04790660227545 M 124.6863157894737,84.72790660227544 L 126.66915789473686,104.04790660227545 M 128.4842105263158,84.72790660227544 L 130.7721052631579,104.04790660227545 M 132.2821052631579,84.72790660227544 L 134.87505263157894,104.04790660227545 M 136.08,84.72790660227544 L 138.978,104.04790660227545" stroke="#979bc4" stroke-width="0.8" fill="none" opacity="0.7"/>
    <path d="M 54.89999999999999,84.72790660227544 Q 54.89999999999999,65.40790660227543 86.47,55.74790660227544 L 100,36.42790660227544 L 113.53,55.74790660227544 Q 145.10000000000002,65.40790660227543 145.10000000000002,84.72790660227544" fill="#3275b4" filter="url(#organic)"/>
    <circle cx="77.4" cy="50.9" r="3" fill="white" opacity="0.85"/>
    <circle cx="113.5" cy="46.1" r="2.5" fill="white" opacity="0.85"/>
    <circle cx="95.5" cy="43.7" r="2" fill="white" opacity="0.85"/>
    <circle cx="127.1" cy="55.7" r="2" fill="white" opacity="0.85"/>
    <circle cx="72.9" cy="60.6" r="1.5" fill="white" opacity="0.85"/>
    <circle cx="104.5" cy="60.6" r="2.5" fill="white" opacity="0.85"/>
  </g>
</svg>