<svg xmlns="http://www.w3.org/2000/svg" viewBox="0 0 200 200" width="200" height="200">
  <defs>
    <filter id="organic" x="-5%" y="-5%" width="110%" height="110%">
    <feTurbulence type="fractalNoise" baseFrequency="0.04" numOctaves="3" seed="1" result="noise"/>
    <feDisplacementMap in="SourceGraphic" in2="noise" scale="2" xChannelSelector="R" yChannelSelector="G"/>
  </filter>
  </defs>
  <g>
    <path d="M 96.4,85.45566627575852 Q 95.4,127.72783313787926 95.68,170 L 104.32,170 Q 104.6,127.72783313787926 103.6,85.45566627575852 Z" fill="#979bc4" filter="url(#organic)"/>
    <ellipse cx="100" cy="110.81896639303096" rx="5.4" ry="1.62" fill="none" stroke="currentColor" stroke-width="1.5" opacity="0.6"/>
    <path d="M 71.75999999999999,85.45566627575852 L 69.672,99.37566627575852 M 76.89454545454545,85.45566627575852 L 75.18618181818181,99.37566627575852 M 82.0290909090909,85.45566627575852 L 80.70036363636362,99.37566627575852 M 87.16363636363636,85.45566627575852 L 86.21454545454544,99.37566627575852 M 92.29818181818182,85.45566627575852 L 91.72872727272727,99.37566627575852 M 97.43272727272726,85.45566627575852 L 97.24290909090908,99.37566627575852 M 102.56727272727272,85.45566627575852 L 102.7570909090909,99.37566627575852 M 107.70181818181817,85.45566627575852 L 108.27127272727272,99.37566627575852 M 112.83636363636364,85.45566627575852 L 113.78545454545456,99.37566627575852 M 117.97090909090909,85.45566627575852 L 119.29963636363637,99.37566627575852 M 123.10545454545453,85.45566627575852 L 124.81381818181818,99.37566627575852 M 128.24,85.45566627575852 L 130.328,99.37566627575852" stroke="#979bc4" stroke-width="0.8" fill="none" opacity="0.7"/>
    <path d="M 64.69999999999999,85.45566627575852 Q 64.69999999999999,75.01566627575852 100,71.53566627575852 Q 135.3,75.01566627575852 135.3,85.45566627575852" fill="#3275b4" filter="url(#organic)"/>
    <circle cx="82.3" cy="61.1" r="3" fill="white" opacity="0.85"/>
    <circle cx="110.6" cy="57.6" r="2.5" fill="white" opacity="0.85"/>
    <circle cx="96.5" cy="55.9" r="2" fill="white" opacity="0.85"/>
    <circle cx="121.2" cy="64.6" r="2" fill="white" opacity="0.85"/>
    <circle cx="78.8" cy="68.1" r="1.5" fill="white" opacity="0.85"/>
    <circle cx="103.5" cy="68.1" r="2.5" fill="white" opacity="0.85"/>
  </g>
</svg>