<svg xmlns="http://www.w3.org/2000/svg" viewBox="0 0 200 200" width="200" height="200">
  <defs>
    <filter id="organic" x="-5%" y="-5%" width="110%" height="110%">
    <feTurbulence type="fractalNoise" baseFrequency="0.04" numOctaves="3" seed="1" result="noise"/>
    <feDisplacementMap in="SourceGraphic" in2="noise" scale="2" xChannelSelector="R" yChannelSelector="G"/>
  </filter>
  </defs>
  <g>
    <path d="M 92,82.62732182619447 Q 91,126.31366091309724 90.4,170 L 109.6,170 Q 109,126.31366091309724 108,82.62732182619447 Z" fill="#979bc4" filter="url(#organic)"/>
    <path d="M 60,82.62732182619447 L 57.345,100.32732182619448 M 63.47826086956522,82.62732182619447 L 61.05413043478261,100.32732182619448 M 66.95652173913044,82.62732182619447 L 64.76326086956522,100.32732182619448 M 70.43478260869566,82.62732182619447 L 68.47239130434782,100.32732182619448 M 73.91304347826087,82.62732182619447 L 72.18152173913045,100.32732182619448 M 77.3913043478261,82.62732182619447 L 75.89065217391305,100.32732182619448 M 80.86956521739131,82.62732182619447 L 79.59978260869566,100.32732182619448 M 84.34782608695653,82.62732182619447 L 83.30891304347827,100.32732182619448 M 87.82608695652173,82.62732182619447 L 87.01804347826086,100.32732182619448 M 91.30434782608695,82.62732182619447 L 90.72717391304347,100.32732182619448 M 94.78260869565219,82.62732182619447 L 94.4363043478261,100.32732182619448 M 98.2608695652174,82.62732182619447 L 98.1454347826087,100.32732182619448 M 101.73913043478261,82.62732182619447 L 101.85456521739131,100.32732182619448 M 105.21739130434783,82.62732182619447 L 105.56369565217392,100.32732182619448 M 108.69565217391306,82.62732182619447 L 109.27282608695654,100.32732182619448 M 112.17391304347827,82.62732182619447 L 112.98195652173914,100.32732182619448 M 115.65217391304347,82.62732182619447 L 116.69108695652173,100.32732182619448 M 119.13043478260869,82.62732182619447 L 120.40021739130434,100.32732182619448 M 122.6086956521739,82.62732182619447 L 124.10934782608695,100.32732182619448 M 126.08695652173913,82.62732182619447 L 127.81847826086955,100.32732182619448 M 129.56521739130437,82.62732182619447 L 131.5276086956522,100.32732182619448 M 133.04347826086956,82.62732182619447 L 135.23673913043478,100.32732182619448 M 136.5217391304348,82.62732182619447 L 138.9458695652174,100.32732182619448 M 140,82.62732182619447 L 142.655,100.32732182619448" stroke="#979bc4" stroke-width="0.8" fill="none" opacity="0.7"/>
    <path d="M 50,64.92732182619447 Q 65,82.62732182619447 100,73.77732182619448 Q 135,82.62732182619447 150,64.92732182619447" fill="#3275b4" filter="url(#organic)"/>
  </g>
</svg>