<svg xmlns="http://www.w3.org/2000/svg" viewBox="0 0 200 200" width="200" height="200">
  <defs>
    <filter id="organic" x="-5%" y="-5%" width="110%" height="110%">
    <feTurbulence type="fractalNoise" baseFrequency="0.04" numOctaves="3" seed="1" result="noise"/>
    <feDisplacementMap in="SourceGraphic" in2="noise" scale="2" xChannelSelector="R" yChannelSelector="G"/>
  </filter>
  </defs>
  <g>
    <path d="M 92,86.23769147069993 Q 91,128.11884573534996 90.4,170 L 109.6,170 Q 109,128.11884573534996 108,86.23769147069993 Z" fill="#979bc4" filter="url(#organic)"/>
    <path d="M 60,86.23769147069993 L 57.831,100.69769147069994 M 63.47826086956522,86.23769147069993 L 61.49786956521739,100.69769147069994 M 66.95652173913044,86.23769147069993 L 65.16473913043478,100.69769147069994 M 70.43478260869566,86.23769147069993 L 68.83160869565218,100.69769147069994 M 73.91304347826087,86.23769147069993 L 72.49847826086958,100.69769147069994 M 77.3913043478261,86.23769147069993 L 76.16534782608696,100.69769147069994 M 80.86956521739131,86.23769147069993 L 79.83221739130435,100.69769147069994 M 84.34782608695653,86.23769147069993 L 83.49908695652175,100.69769147069994 M 87.82608695652173,86.23769147069993 L 87.16595652173912,100.69769147069994 M 91.30434782608695,86.23769147069993 L 90.83282608695652,100.69769147069994 M 94.78260869565219,86.23769147069993 L 94.49969565217393,100.69769147069994 M 98.2608695652174,86.23769147069993 L 98.16656521739132,100.69769147069994 M 101.73913043478261,86.23769147069993 L 101.83343478260869,100.69769147069994 M 105.21739130434783,86.23769147069993 L 105.50030434782609,100.69769147069994 M 108.69565217391306,86.23769147069993 L 109.1671739130435,100.69769147069994 M 112.17391304347827,86.23769147069993 L 112.83404347826088,100.69769147069994 M 115.65217391304347,86.23769147069993 L 116.50091304347825,100.69769147069994 M 119.13043478260869,86.23769147069993 L 120.16778260869565,100.69769147069994 M 122.6086956521739,86.23769147069993 L 123.83465217391304,100.69769147069994 M 126.08695652173913,86.23769147069993 L 127.50152173913042,100.69769147069994 M 129.56521739130437,86.23769147069993 L 131.16839130434786,100.69769147069994 M 133.04347826086956,86.23769147069993 L 134.83526086956522,100.69769147069994 M 136.5217391304348,86.23769147069993 L 138.50213043478263,100.69769147069994 M 140,86.23769147069993 L 142.169,100.69769147069994" stroke="#979bc4" stroke-width="0.8" fill="none" opacity="0.7"/>
    <path d="M 50,71.77769147069992 Q 65,86.23769147069993 100,79.00769147069992 Q 135,86.23769147069993 150,71.77769147069992" fill="#3275b4" filter="url(#organic)"/>
    <circle cx="75.0" cy="60.9" r="3" fill="white" opacity="0.85"/>
    <circle cx="115.0" cy="57.3" r="2.5" fill="white" opacity="0.85"/>
    <circle cx="95.0" cy="55.5" r="2" fill="white" opacity="0.85"/>
    <circle cx="130.0" cy="64.5" r="2" fill="white" opacity="0.85"/>
    <circle cx="70.0" cy="68.2" r="1.5" fill="white" opacity="0.85"/>
    <circle cx="105.0" cy="68.2" r="2.5" fill="white" opacity="0.85"/>
  </g>
</svg>