<svg xmlns="http://www.w3.org/2000/svg" viewBox="0 0 200 200" width="200" height="200">
  <defs>
    <filter id="organic" x="-5%" y="-5%" width="110%" height="110%">
    <feTurbulence type="fractalNoise" baseFrequency="0.04" numOctaves="3" seed="1" result="noise"/>
    <feDisplacementMap in="SourceGraphic" in2="noise" scale="2" xChannelSelector="R" yChannelSelector="G"/>
  </filter>
  </defs>
  <g>
    <path d="M 92,118.18181818181819 Q 91,144.0909090909091 90.4,170 L 109.6,170 Q 109,144.0909090909091 108,118.18181818181819 Z" fill="#979bc4" filter="url(#organic)"/>
    <path d="M 60,118.18181818181819 L 58.479,128.32181818181817 M 63.47826086956522,118.18181818181819 L 62.08952173913043,128.32181818181817 M 66.95652173913044,118.18181818181819 L 65.70004347826087,128.32181818181817 M 70.43478260869566,118.18181818181819 L 69.31056521739131,128.32181818181817 M 73.91304347826087,118.18181818181819 L 72.92108695652175,128.32181818181817 M 77.3913043478261,118.18181818181819 L 76.53160869565218,128.32181818181817 M 80.86956521739131,118.18181818181819 L 80.14213043478262,128.32181818181817 M 84.34782608695653,118.18181818181819 L 83.75265217391305,128.32181818181817 M 87.82608695652173,118.18181818181819 L 87.36317391304347,128.32181818181817 M 91.30434782608695,118.18181818181819 L 90.97369565217392,128.32181818181817 M 94.78260869565219,118.18181818181819 L 94.58421739130436,128.32181818181817 M 98.2608695652174,118.18181818181819 L 98.1947391304348,128.32181818181817 M 101.73913043478261,118.18181818181819 L 101.80526086956522,128.32181818181817 M 105.21739130434783,118.18181818181819 L 105.41578260869565,128.32181818181817 M 108.69565217391306,118.18181818181819 L 109.0263043478261,128.32181818181817 M 112.17391304347827,118.18181818181819 L 112.63682608695653,128.32181818181817 M 115.65217391304347,118.18181818181819 L 116.24734782608695,128.32181818181817 M 119.13043478260869,118.18181818181819 L 119.85786956521738,128.32181818181817 M 122.6086956521739,118.18181818181819 L 123.46839130434782,128.32181818181817 M 126.08695652173913,118.18181818181819 L 127.07891304347825,128.32181818181817 M 129.56521739130437,118.18181818181819 L 130.6894347826087,128.32181818181817 M 133.04347826086956,118.18181818181819 L 134.29995652173912,128.32181818181817 M 136.5217391304348,118.18181818181819 L 137.91047826086958,128.32181818181817 M 140,118.18181818181819 L 141.521,128.32181818181817" stroke="#979bc4" stroke-width="0.8" fill="none" opacity="0.7"/>
    <path d="M 50,108.0418181818182 Q 65,118.18181818181819 100,113.1118181818182 Q 135,118.18181818181819 150,108.0418181818182" fill="#3275b4" filter="url(#organic)"/>
    <circle cx="75.0" cy="100.4" r="3" fill="white" opacity="0.85"/>
    <circle cx="115.0" cy="97.9" r="2.5" fill="white" opacity="0.85"/>
    <circle cx="95.0" cy="96.6" r="2" fill="white" opacity="0.85"/>
    <circle cx="130.0" cy="103.0" r="2" fill="white" opacity="0.85"/>
    <circle cx="70.0" cy="105.5" r="1.5" fill="white" opacity="0.85"/>
    <circle cx="105.0" cy="105.5" r="2.5" fill="white" opacity="0.85"/>
  </g>
</svg>