<svg xmlns="http://www.w3.org/2000/svg" viewBox="0 0 200 200" width="200" height="200">
  <defs>
    <filter id="organic" x="-5%" y="-5%" width="110%" height="110%">
    <feTurbulence type="fractalNoise" baseFrequency="0.04" numOctaves="3" seed="1" result="noise"/>
    <feDisplacementMap in="SourceGraphic" in2="noise" scale="2" xChannelSelector="R" yChannelSelector="G"/>
  </filter>
  </defs>
  <g>
    <path d="M 95.6,99.82864031958536 Q 94.6,134.91432015979268 94.72,170 L 105.28,170 Q 105.4,134.91432015979268 104.4,99.82864031958536 Z" fill="#979bc4" filter="url(#organic)"/>
    <path d="M 67.84,99.82864031958536 L 66.07600000000001,111.58864031958537 M 72.128,99.82864031958536 L 70.5992,111.58864031958537 M 76.416,99.82864031958536 L 75.1224,111.58864031958537 M 80.70400000000001,99.82864031958536 L 79.6456,111.58864031958537 M 84.992,99.82864031958536 L 84.1688,111.58864031958537 M 89.28,99.82864031958536 L 88.69200000000001,111.58864031958537 M 93.56800000000001,99.82864031958536 L 93.21520000000001,111.58864031958537 M 97.85600000000001,99.82864031958536 L 97.73840000000001,111.58864031958537 M 102.144,99.82864031958536 L 102.2616,111.58864031958537 M 106.43200000000002,99.82864031958536 L 106.78480000000002,111.58864031958537 M 110.72,99.82864031958536 L 111.30799999999999,111.58864031958537 M 115.00800000000001,99.82864031958536 L 115.83120000000001,111.58864031958537 M 119.29600000000002,99.82864031958536 L 120.35440000000003,111.58864031958537 M 123.584,99.82864031958536 L 124.8776,111.58864031958537 M 127.87200000000001,99.82864031958536 L 129.4008,111.58864031958537 M 132.16000000000003,99.82864031958536 L 133.92400000000004,111.58864031958537" stroke="#979bc4" stroke-width="0.8" fill="none" opacity="0.7"/>
    <path d="M 59.8,99.82864031958536 Q 59.8,91.00864031958535 100,88.06864031958536 Q 140.2,91.00864031958535 140.2,99.82864031958536" fill="#3275b4" filter="url(#organic)"/>
  </g>
</svg>