<svg xmlns="http://www.w3.org/2000/svg" viewBox="0 0 200 200" width="200" height="200">
  <defs>
    <filter id="organic" x="-5%" y="-5%" width="110%" height="110%">
    <feTurbulence type="fractalNoise" baseFrequency="0.04" numOctaves="3" seed="1" result="noise"/>
    <feDisplacementMap in="SourceGraphic" in2="noise" scale="2" xChannelSelector="R" yChannelSelector="G"/>
  </filter>
  </defs>
  <g>
    <path d="M 96.8,69.81053315506233 Q 95.8,119.90526657753117 96.16,170 L 103.84,170 Q 104.2,119.90526657753117 103.2,69.81053315506233 Z" fill="#78a6bd" filter="url(#organic)"/>
    <ellipse cx="100" cy="99.86737320854363" rx="4.800000000000001" ry="1.4400000000000002" fill="none" stroke="currentColor" stroke-width="1.5" opacity="0.6"/>
    <path d="M 73.72,69.81053315506233 L 72.28,79.41053315506232 M 79.56,69.81053315506233 L 78.44,79.41053315506232 M 85.4,69.81053315506233 L 84.60000000000001,79.41053315506232 M 91.24,69.81053315506233 L 90.75999999999999,79.41053315506232 M 97.08,69.81053315506233 L 96.92,79.41053315506232 M 102.92,69.81053315506233 L 103.08,79.41053315506232 M 108.75999999999999,69.81053315506233 L 109.24,79.41053315506232 M 114.6,69.81053315506233 L 115.39999999999999,79.41053315506232 M 120.44,69.81053315506233 L 121.56,79.41053315506232 M 126.28,69.81053315506233 L 127.72,79.41053315506232" stroke="#78a6bd" stroke-width="0.8" fill="none" opacity="0.7"/>
    <path d="M 67.15,69.81053315506233 Q 67.15,62.61053315506233 100,60.21053315506233 Q 132.85,62.61053315506233 132.85,69.81053315506233" fill="#00858d" filter="url(#organic)"/>
  </g>
</svg>