<svg xmlns="http://www.w3.org/2000/svg" viewBox="0 0 200 200" width="200" height="200">
  <defs>
    <filter id="organic" x="-5%" y="-5%" width="110%" height="110%">
    <feTurbulence type="fractalNoise" baseFrequency="0.04" numOctaves="3" seed="1" result="noise"/>
    <feDisplacementMap in="SourceGraphic" in2="noise" scale="2" xChannelSelector="R" yChannelSelector="G"/>
  </filter>
  </defs>
  <g>
    <path d="M 97.2,88.0759901643724 Q 96.2,129.0379950821862 96.64,170 L 103.36,170 Q 103.8,129.0379950821862 102.8,88.0759901643724 Z" fill="#979bc4" filter="url(#organic)"/>
    <path d="M 75.68,88.0759901643724 L 72.863,106.8559901643724 M 82.62857142857143,88.0759901643724 L 80.61642857142857,106.8559901643724 M 89.57714285714286,88.0759901643724 L 88.36985714285714,106.8559901643724 M 96.52571428571429,88.0759901643724 L 96.12328571428571,106.8559901643724 M 103.47428571428571,88.0759901643724 L 103.87671428571429,106.8559901643724 M 110.42285714285715,88.0759901643724 L 111.63014285714287,106.8559901643724 M 117.37142857142857,88.0759901643724 L 119.38357142857143,106.8559901643724 M 124.32000000000001,88.0759901643724 L 127.137,106.8559901643724" stroke="#979bc4" stroke-width="0.8" fill="none" opacity="0.7"/>
    <path d="M 69.6,88.0759901643724 Q 69.6,69.2959901643724 90.88,59.9059901643724 L 100,41.125990164372396 L 109.12,59.9059901643724 Q 130.4,69.2959901643724 130.4,88.0759901643724" fill="#3275b4" filter="url(#organic)"/>
  </g>
</svg>