<svg xmlns="http://www.w3.org/2000/svg" viewBox="0 0 200 200" width="200" height="200">
  <defs>
    <filter id="organic" x="-5%" y="-5%" width="110%" height="110%">
    <feTurbulence type="fractalNoise" baseFrequency="0.04" numOctaves="3" seed="1" result="noise"/>
    <feDisplacementMap in="SourceGraphic" in2="noise" scale="2" xChannelSelector="R" yChannelSelector="G"/>
  </filter>
  </defs>
  <g>
    <path d="M 95.6,90.39869845516228 Q 94.6,130.19934922758114 94.72,170 L 105.28,170 Q 105.4,130.19934922758114 104.4,90.39869845516228 Z" fill="#979bc4" filter="url(#organic)"/>
    <ellipse cx="100" cy="114.2790889186136" rx="6.6000000000000005" ry="1.98" fill="none" stroke="currentColor" stroke-width="1.5" opacity="0.6"/>
    <path d="M 67.84,90.39869845516228 L 66.157,101.61869845516227 M 72.128,90.39869845516228 L 70.6694,101.61869845516227 M 76.416,90.39869845516228 L 75.1818,101.61869845516227 M 80.70400000000001,90.39869845516228 L 79.69420000000001,101.61869845516227 M 84.992,90.39869845516228 L 84.20660000000001,101.61869845516227 M 89.28,90.39869845516228 L 88.719,101.61869845516227 M 93.56800000000001,90.39869845516228 L 93.23140000000001,101.61869845516227 M 97.85600000000001,90.39869845516228 L 97.74380000000001,101.61869845516227 M 102.144,90.39869845516228 L 102.2562,101.61869845516227 M 106.43200000000002,90.39869845516228 L 106.76860000000002,101.61869845516227 M 110.72,90.39869845516228 L 111.281,101.61869845516227 M 115.00800000000001,90.39869845516228 L 115.7934,101.61869845516227 M 119.29600000000002,90.39869845516228 L 120.30580000000002,101.61869845516227 M 123.584,90.39869845516228 L 124.8182,101.61869845516227 M 127.87200000000001,90.39869845516228 L 129.3306,101.61869845516227 M 132.16000000000003,90.39869845516228 L 133.84300000000002,101.61869845516227" stroke="#979bc4" stroke-width="0.8" fill="none" opacity="0.7"/>
    <path d="M 59.8,90.39869845516228 Q 59.8,81.98369845516228 100,79.17869845516228 Q 140.2,81.98369845516228 140.2,90.39869845516228" fill="#3275b4" filter="url(#organic)"/>
    <circle cx="79.9" cy="70.8" r="3" fill="white" opacity="0.85"/>
    <circle cx="112.1" cy="68.0" r="2.5" fill="white" opacity="0.85"/>
    <circle cx="96.0" cy="66.6" r="2" fill="white" opacity="0.85"/>
    <circle cx="124.1" cy="73.6" r="2" fill="white" opacity="0.85"/>
    <circle cx="75.9" cy="76.4" r="1.5" fill="white" opacity="0.85"/>
    <circle cx="104.0" cy="76.4" r="2.5" fill="white" opacity="0.85"/>
  </g>
</svg>