<svg xmlns="http://www.w3.org/2000/svg" viewBox="0 0 200 200" width="200" height="200">
  <defs>
    <filter id="organic" x="-5%" y="-5%" width="110%" height="110%">
    <feTurbulence type="fractalNoise" baseFrequency="0.04" numOctaves="3" seed="1" result="noise"/>
    <feDisplacementMap in="SourceGraphic" in2="noise" scale="2" xChannelSelector="R" yChannelSelector="G"/>
  </filter>
  </defs>
  <g>
    <path d="M 92,90.58606642654468 Q 91,130.29303321327234 90.4,170 L 109.6,170 Q 109,130.29303321327234 108,90.58606642654468 Z" fill="#979bc4" filter="url(#organic)"/>
    <path d="M 60,90.58606642654468 L 58.236,102.34606642654468 M 63.47826086956522,90.58606642654468 L 61.867652173913044,102.34606642654468 M 66.95652173913044,90.58606642654468 L 65.49930434782608,102.34606642654468 M 70.43478260869566,90.58606642654468 L 69.13095652173914,102.34606642654468 M 73.91304347826087,90.58606642654468 L 72.76260869565218,102.34606642654468 M 77.3913043478261,90.58606642654468 L 76.39426086956523,102.34606642654468 M 80.86956521739131,90.58606642654468 L 80.02591304347827,102.34606642654468 M 84.34782608695653,90.58606642654468 L 83.65756521739131,102.34606642654468 M 87.82608695652173,90.58606642654468 L 87.28921739130435,102.34606642654468 M 91.30434782608695,90.58606642654468 L 90.92086956521739,102.34606642654468 M 94.78260869565219,90.58606642654468 L 94.55252173913044,102.34606642654468 M 98.2608695652174,90.58606642654468 L 98.1841739130435,102.34606642654468 M 101.73913043478261,90.58606642654468 L 101.81582608695652,102.34606642654468 M 105.21739130434783,90.58606642654468 L 105.44747826086957,102.34606642654468 M 108.69565217391306,90.58606642654468 L 109.07913043478263,102.34606642654468 M 112.17391304347827,90.58606642654468 L 112.71078260869565,102.34606642654468 M 115.65217391304347,90.58606642654468 L 116.34243478260869,102.34606642654468 M 119.13043478260869,90.58606642654468 L 119.97408695652173,102.34606642654468 M 122.6086956521739,90.58606642654468 L 123.60573913043477,102.34606642654468 M 126.08695652173913,90.58606642654468 L 127.23739130434782,102.34606642654468 M 129.56521739130437,90.58606642654468 L 130.8690434782609,102.34606642654468 M 133.04347826086956,90.58606642654468 L 134.5006956521739,102.34606642654468 M 136.5217391304348,90.58606642654468 L 138.13234782608697,102.34606642654468 M 140,90.58606642654468 L 141.764,102.34606642654468" stroke="#979bc4" stroke-width="0.8" fill="none" opacity="0.7"/>
    <path d="M 50,90.58606642654468 Q 50,81.76606642654468 100,78.82606642654467 Q 150,81.76606642654468 150,90.58606642654468" fill="#3275b4" filter="url(#organic)"/>
  </g>
</svg>