<svg xmlns="http://www.w3.org/2000/svg" viewBox="0 0 200 200" width="200" height="200">
  <defs>
    <filter id="organic" x="-5%" y="-5%" width="110%" height="110%">
    <feTurbulence type="fractalNoise" baseFrequency="0.04" numOctaves="3" seed="1" result="noise"/>
    <feDisplacementMap in="SourceGraphic" in2="noise" scale="2" xChannelSelector="R" yChannelSelector="G"/>
  </filter>
  </defs>
  <g>
    <path d="M 92,84.30391648907786 Q 91,127.15195824453893 90.4,170 L 109.6,170 Q 109,127.15195824453893 108,84.30391648907786 Z" fill="#979bc4" filter="url(#organic)"/>
    <ellipse cx="100" cy="110.0127415423545" rx="12" ry="3.5999999999999996" fill="none" stroke="currentColor" stroke-width="1.5" opacity="0.6"/>
    <path d="M 60,84.30391648907786 L 56.535,107.40391648907786 M 63.47826086956522,84.30391648907786 L 60.314565217391305,107.40391648907786 M 66.95652173913044,84.30391648907786 L 64.09413043478261,107.40391648907786 M 70.43478260869566,84.30391648907786 L 67.87369565217392,107.40391648907786 M 73.91304347826087,84.30391648907786 L 71.65326086956522,107.40391648907786 M 77.3913043478261,84.30391648907786 L 75.43282608695652,107.40391648907786 M 80.86956521739131,84.30391648907786 L 79.21239130434783,107.40391648907786 M 84.34782608695653,84.30391648907786 L 82.99195652173914,107.40391648907786 M 87.82608695652173,84.30391648907786 L 86.77152173913043,107.40391648907786 M 91.30434782608695,84.30391648907786 L 90.55108695652174,107.40391648907786 M 94.78260869565219,84.30391648907786 L 94.33065217391305,107.40391648907786 M 98.2608695652174,84.30391648907786 L 98.11021739130436,107.40391648907786 M 101.73913043478261,84.30391648907786 L 101.88978260869565,107.40391648907786 M 105.21739130434783,84.30391648907786 L 105.66934782608696,107.40391648907786 M 108.69565217391306,84.30391648907786 L 109.44891304347829,107.40391648907786 M 112.17391304347827,84.30391648907786 L 113.22847826086957,107.40391648907786 M 115.65217391304347,84.30391648907786 L 117.00804347826086,107.40391648907786 M 119.13043478260869,84.30391648907786 L 120.78760869565217,107.40391648907786 M 122.6086956521739,84.30391648907786 L 124.56717391304348,107.40391648907786 M 126.08695652173913,84.30391648907786 L 128.34673913043477,107.40391648907786 M 129.56521739130437,84.30391648907786 L 132.1263043478261,107.40391648907786 M 133.04347826086956,84.30391648907786 L 135.9058695652174,107.40391648907786 M 136.5217391304348,84.30391648907786 L 139.68543478260872,107.40391648907786 M 140,84.30391648907786 L 143.465,107.40391648907786" stroke="#979bc4" stroke-width="0.8" fill="none" opacity="0.7"/>
    <path d="M 50,84.30391648907786 Q 50,61.20391648907786 85,49.653916489077865 L 100,26.553916489077864 L 115,49.653916489077865 Q 150,61.20391648907786 150,84.30391648907786" fill="#3275b4" filter="url(#organic)"/>
  </g>
</svg>