<svg xmlns="http://www.w3.org/2000/svg" viewBox="0 0 200 200" width="200" height="200">
  <defs>
    <filter id="organic" x="-5%" y="-5%" width="110%" height="110%">
    <feTurbulence type="fractalNoise" baseFrequency="0.04" numOctaves="3" seed="1" result="noise"/>
    <feDisplacementMap in="SourceGraphic" in2="noise" scale="2" xChannelSelector="R" yChannelSelector="G"/>
  </filter>
  </defs>
  <g>
    <path d="M 92,99.82864031958536 Q 91,134.91432015979268 90.4,170 L 109.6,170 Q 109,134.91432015979268 108,99.82864031958536 Z" fill="#979bc4" filter="url(#organic)"/>
    <path d="M 60,99.82864031958536 L 58.479,109.96864031958536 M 63.47826086956522,99.82864031958536 L 62.08952173913043,109.96864031958536 M 66.95652173913044,99.82864031958536 L 65.70004347826087,109.96864031958536 M 70.43478260869566,99.82864031958536 L 69.31056521739131,109.96864031958536 M 73.91304347826087,99.82864031958536 L 72.92108695652175,109.96864031958536 M 77.3913043478261,99.82864031958536 L 76.53160869565218,109.96864031958536 M 80.86956521739131,99.82864031958536 L 80.14213043478262,109.96864031958536 M 84.34782608695653,99.82864031958536 L 83.75265217391305,109.96864031958536 M 87.82608695652173,99.82864031958536 L 87.36317391304347,109.96864031958536 M 91.30434782608695,99.82864031958536 L 90.97369565217392,109.96864031958536 M 94.78260869565219,99.82864031958536 L 94.58421739130436,109.96864031958536 M 98.2608695652174,99.82864031958536 L 98.1947391304348,109.96864031958536 M 101.73913043478261,99.82864031958536 L 101.80526086956522,109.96864031958536 M 105.21739130434783,99.82864031958536 L 105.41578260869565,109.96864031958536 M 108.69565217391306,99.82864031958536 L 109.0263043478261,109.96864031958536 M 112.17391304347827,99.82864031958536 L 112.63682608695653,109.96864031958536 M 115.65217391304347,99.82864031958536 L 116.24734782608695,109.96864031958536 M 119.13043478260869,99.82864031958536 L 119.85786956521738,109.96864031958536 M 122.6086956521739,99.82864031958536 L 123.46839130434782,109.96864031958536 M 126.08695652173913,99.82864031958536 L 127.07891304347825,109.96864031958536 M 129.56521739130437,99.82864031958536 L 130.6894347826087,109.96864031958536 M 133.04347826086956,99.82864031958536 L 134.29995652173912,109.96864031958536 M 136.5217391304348,99.82864031958536 L 137.91047826086958,109.96864031958536 M 140,99.82864031958536 L 141.521,109.96864031958536" stroke="#979bc4" stroke-width="0.8" fill="none" opacity="0.7"/>
    <path d="M 50,99.82864031958536 Q 60,82.08364031958537 100,74.47864031958537 Q 140,82.08364031958537 150,99.82864031958536" fill="#3275b4" filter="url(#organic)"/>
  </g>
</svg>