<svg xmlns="http://www.w3.org/2000/svg" viewBox="0 0 200 200" width="200" height="200">
  <defs>
    <filter id="organic" x="-5%" y="-5%" width="110%" height="110%">
    <feTurbulence type="fractalNoise" baseFrequency="0.04" numOctaves="3" seed="1" result="noise"/>
    <feDisplacementMap in="SourceGraphic" in2="noise" scale="2" xChannelSelector="R" yChannelSelector="G"/>
  </filter>
  </defs>
  <g>
    <path d="M 92,80.84053585293873 Q 91,125.42026792646936 90.4,170 L 109.6,170 Q 109,125.42026792646936 108,80.84053585293873 Z" fill="#979bc4" filter="url(#organic)"/>
    <path d="M 60,80.84053585293873 L 57.183,99.62053585293873 M 63.47826086956522,80.84053585293873 L 60.90621739130435,99.62053585293873 M 66.95652173913044,80.84053585293873 L 64.6294347826087,99.62053585293873 M 70.43478260869566,80.84053585293873 L 68.35265217391304,99.62053585293873 M 73.91304347826087,80.84053585293873 L 72.0758695652174,99.62053585293873 M 77.3913043478261,80.84053585293873 L 75.79908695652175,99.62053585293873 M 80.86956521739131,80.84053585293873 L 79.5223043478261,99.62053585293873 M 84.34782608695653,80.84053585293873 L 83.24552173913044,99.62053585293873 M 87.82608695652173,80.84053585293873 L 86.96873913043478,99.62053585293873 M 91.30434782608695,80.84053585293873 L 90.69195652173913,99.62053585293873 M 94.78260869565219,80.84053585293873 L 94.41517391304349,99.62053585293873 M 98.2608695652174,80.84053585293873 L 98.13839130434783,99.62053585293873 M 101.73913043478261,80.84053585293873 L 101.86160869565218,99.62053585293873 M 105.21739130434783,80.84053585293873 L 105.58482608695653,99.62053585293873 M 108.69565217391306,80.84053585293873 L 109.30804347826088,99.62053585293873 M 112.17391304347827,80.84053585293873 L 113.03126086956522,99.62053585293873 M 115.65217391304347,80.84053585293873 L 116.75447826086956,99.62053585293873 M 119.13043478260869,80.84053585293873 L 120.4776956521739,99.62053585293873 M 122.6086956521739,80.84053585293873 L 124.20091304347825,99.62053585293873 M 126.08695652173913,80.84053585293873 L 127.9241304347826,99.62053585293873 M 129.56521739130437,80.84053585293873 L 131.64734782608699,99.62053585293873 M 133.04347826086956,80.84053585293873 L 135.3705652173913,99.62053585293873 M 136.5217391304348,80.84053585293873 L 139.09378260869568,99.62053585293873 M 140,80.84053585293873 L 142.817,99.62053585293873" stroke="#979bc4" stroke-width="0.8" fill="none" opacity="0.7"/>
    <path d="M 50,62.06053585293873 Q 65,80.84053585293873 100,71.45053585293873 Q 135,80.84053585293873 150,62.06053585293873" fill="#3275b4" filter="url(#organic)"/>
    <circle cx="75.0" cy="48.0" r="3" fill="white" opacity="0.85"/>
    <circle cx="115.0" cy="43.3" r="2.5" fill="white" opacity="0.85"/>
    <circle cx="95.0" cy="40.9" r="2" fill="white" opacity="0.85"/>
    <circle cx="130.0" cy="52.7" r="2" fill="white" opacity="0.85"/>
    <circle cx="70.0" cy="57.4" r="1.5" fill="white" opacity="0.85"/>
    <circle cx="105.0" cy="57.4" r="2.5" fill="white" opacity="0.85"/>
  </g>
</svg>