<svg xmlns="http://www.w3.org/2000/svg" viewBox="0 0 200 200" width="200" height="200">
  <defs>
    <filter id="organic" x="-5%" y="-5%" width="110%" height="110%">
    <feTurbulence type="fractalNoise" baseFrequency="0.04" numOctaves="3" seed="1" result="noise"/>
    <feDisplacementMap in="SourceGraphic" in2="noise" scale="2" xChannelSelector="R" yChannelSelector="G"/>
  </filter>
  </defs>
  <g>
    <path d="M 92,114.84049731900147 Q 91,142.42024865950074 90.4,170 L 109.6,170 Q 109,142.42024865950074 108,114.84049731900147 Z" fill="#979bc4" filter="url(#organic)"/>
    <ellipse cx="100" cy="131.38834812330103" rx="12" ry="3.5999999999999996" fill="none" stroke="currentColor" stroke-width="1.5" opacity="0.6"/>
    <path d="M 60,114.84049731900147 L 58.479,124.98049731900147 M 63.47826086956522,114.84049731900147 L 62.08952173913043,124.98049731900147 M 66.95652173913044,114.84049731900147 L 65.70004347826087,124.98049731900147 M 70.43478260869566,114.84049731900147 L 69.31056521739131,124.98049731900147 M 73.91304347826087,114.84049731900147 L 72.92108695652175,124.98049731900147 M 77.3913043478261,114.84049731900147 L 76.53160869565218,124.98049731900147 M 80.86956521739131,114.84049731900147 L 80.14213043478262,124.98049731900147 M 84.34782608695653,114.84049731900147 L 83.75265217391305,124.98049731900147 M 87.82608695652173,114.84049731900147 L 87.36317391304347,124.98049731900147 M 91.30434782608695,114.84049731900147 L 90.97369565217392,124.98049731900147 M 94.78260869565219,114.84049731900147 L 94.58421739130436,124.98049731900147 M 98.2608695652174,114.84049731900147 L 98.1947391304348,124.98049731900147 M 101.73913043478261,114.84049731900147 L 101.80526086956522,124.98049731900147 M 105.21739130434783,114.84049731900147 L 105.41578260869565,124.98049731900147 M 108.69565217391306,114.84049731900147 L 109.0263043478261,124.98049731900147 M 112.17391304347827,114.84049731900147 L 112.63682608695653,124.98049731900147 M 115.65217391304347,114.84049731900147 L 116.24734782608695,124.98049731900147 M 119.13043478260869,114.84049731900147 L 119.85786956521738,124.98049731900147 M 122.6086956521739,114.84049731900147 L 123.46839130434782,124.98049731900147 M 126.08695652173913,114.84049731900147 L 127.07891304347825,124.98049731900147 M 129.56521739130437,114.84049731900147 L 130.6894347826087,124.98049731900147 M 133.04347826086956,114.84049731900147 L 134.29995652173912,124.98049731900147 M 136.5217391304348,114.84049731900147 L 137.91047826086958,124.98049731900147 M 140,114.84049731900147 L 141.521,124.98049731900147" stroke="#979bc4" stroke-width="0.8" fill="none" opacity="0.7"/>
    <path d="M 50,104.70049731900147 Q 65,114.84049731900146 100,109.77049731900146 Q 135,114.84049731900146 150,104.70049731900147" fill="#3275b4" filter="url(#organic)"/>
    <circle cx="75.0" cy="97.1" r="3" fill="white" opacity="0.85"/>
    <circle cx="115.0" cy="94.6" r="2.5" fill="white" opacity="0.85"/>
    <circle cx="95.0" cy="93.3" r="2" fill="white" opacity="0.85"/>
    <circle cx="130.0" cy="99.6" r="2" fill="white" opacity="0.85"/>
    <circle cx="70.0" cy="102.2" r="1.5" fill="white" opacity="0.85"/>
    <circle cx="105.0" cy="102.2" r="2.5" fill="white" opacity="0.85"/>
  </g>
</svg>