<svg xmlns="http://www.w3.org/2000/svg" viewBox="0 0 200 200" width="200" height="200">
  <defs>
    <filter id="organic" x="-5%" y="-5%" width="110%" height="110%">
    <feTurbulence type="fractalNoise" baseFrequency="0.04" numOctaves="3" seed="1" result="noise"/>
    <feDisplacementMap in="SourceGraphic" in2="noise" scale="2" xChannelSelector="R" yChannelSelector="G"/>
  </filter>
  </defs>
  <g>
    <path d="M 94.8,87.5676118863349 Q 93.8,128.78380594316747 93.76,170 L 106.24,170 Q 106.2,128.78380594316747 105.2,87.5676118863349 Z" fill="#979bc4" filter="url(#organic)"/>
    <ellipse cx="100" cy="112.29732832043443" rx="7.800000000000001" ry="2.3400000000000003" fill="none" stroke="currentColor" stroke-width="1.5" opacity="0.6"/>
    <path d="M 63.919999999999995,87.5676118863349 L 62.236999999999995,98.7876118863349 M 67.7178947368421,87.5676118863349 L 66.21205263157894,98.7876118863349 M 71.51578947368421,87.5676118863349 L 70.18710526315789,98.7876118863349 M 75.3136842105263,87.5676118863349 L 74.16215789473684,98.7876118863349 M 79.11157894736841,87.5676118863349 L 78.13721052631578,98.7876118863349 M 82.90947368421052,87.5676118863349 L 82.11226315789473,98.7876118863349 M 86.70736842105262,87.5676118863349 L 86.08731578947368,98.7876118863349 M 90.50526315789475,87.5676118863349 L 90.06236842105264,98.7876118863349 M 94.30315789473684,87.5676118863349 L 94.03742105263157,98.7876118863349 M 98.10105263157894,87.5676118863349 L 98.01247368421052,98.7876118863349 M 101.89894736842106,87.5676118863349 L 101.98752631578948,98.7876118863349 M 105.69684210526316,87.5676118863349 L 105.96257894736843,98.7876118863349 M 109.49473684210525,87.5676118863349 L 109.93763157894736,98.7876118863349 M 113.29263157894738,87.5676118863349 L 113.91268421052632,98.7876118863349 M 117.09052631578948,87.5676118863349 L 117.88773684210527,98.7876118863349 M 120.8884210526316,87.5676118863349 L 121.86278947368423,98.7876118863349 M 124.6863157894737,87.5676118863349 L 125.83784210526316,98.7876118863349 M 128.4842105263158,87.5676118863349 L 129.8128947368421,98.7876118863349 M 132.2821052631579,87.5676118863349 L 133.78794736842104,98.7876118863349 M 136.08,87.5676118863349 L 137.763,98.7876118863349" stroke="#979bc4" stroke-width="0.8" fill="none" opacity="0.7"/>
    <path d="M 54.89999999999999,87.5676118863349 Q 54.89999999999999,79.15261188633491 100,76.3476118863349 Q 145.10000000000002,79.15261188633491 145.10000000000002,87.5676118863349" fill="#3275b4" filter="url(#organic)"/>
    <circle cx="77.4" cy="67.9" r="3" fill="white" opacity="0.85"/>
    <circle cx="113.5" cy="65.1" r="2.5" fill="white" opacity="0.85"/>
    <circle cx="95.5" cy="63.7" r="2" fill="white" opacity="0.85"/>
    <circle cx="127.1" cy="70.7" r="2" fill="white" opacity="0.85"/>
    <circle cx="72.9" cy="73.5" r="1.5" fill="white" opacity="0.85"/>
    <circle cx="104.5" cy="73.5" r="2.5" fill="white" opacity="0.85"/>
  </g>
</svg>