<svg xmlns="http://www.w3.org/2000/svg" viewBox="0 0 200 200" width="200" height="200">
  <defs>
    <filter id="organic" x="-5%" y="-5%" width="110%" height="110%">
    <feTurbulence type="fractalNoise" baseFrequency="0.04" numOctaves="3" seed="1" result="noise"/>
    <feDisplacementMap in="SourceGraphic" in2="noise" scale="2" xChannelSelector="R" yChannelSelector="G"/>
  </filter>
  </defs>
  <g>
    <path d="M 96,93.02231550081966 Q 95,131.51115775040984 95.2,170 L 104.8,170 Q 105,131.51115775040984 104,93.02231550081966 Z" fill="#979bc4" filter="url(#organic)"/>
    <ellipse cx="100" cy="116.11562085057376" rx="6" ry="1.7999999999999998" fill="none" stroke="currentColor" stroke-width="1.5" opacity="0.6"/>
    <path d="M 69.8,93.02231550081966 L 68.036,104.78231550081966 M 74.44615384615385,93.02231550081966 L 72.95353846153846,104.78231550081966 M 79.09230769230768,93.02231550081966 L 77.87107692307691,104.78231550081966 M 83.73846153846154,93.02231550081966 L 82.78861538461538,104.78231550081966 M 88.38461538461539,93.02231550081966 L 87.70615384615385,104.78231550081966 M 93.03076923076924,93.02231550081966 L 92.62369230769231,104.78231550081966 M 97.67692307692307,93.02231550081966 L 97.54123076923076,104.78231550081966 M 102.32307692307691,93.02231550081966 L 102.45876923076922,104.78231550081966 M 106.96923076923076,93.02231550081966 L 107.37630769230769,104.78231550081966 M 111.61538461538461,93.02231550081966 L 112.29384615384615,104.78231550081966 M 116.26153846153846,93.02231550081966 L 117.21138461538462,104.78231550081966 M 120.90769230769232,93.02231550081966 L 122.12892307692309,104.78231550081966 M 125.55384615384615,93.02231550081966 L 127.04646153846154,104.78231550081966 M 130.2,93.02231550081966 L 131.964,104.78231550081966" stroke="#979bc4" stroke-width="0.8" fill="none" opacity="0.7"/>
    <path d="M 62.25,63.62231550081966 Q 73.575,78.32231550081966 100,93.02231550081966 Q 126.425,78.32231550081966 137.75,63.62231550081966" fill="#3275b4" filter="url(#organic)"/>
  </g>
</svg>