<svg xmlns="http://www.w3.org/2000/svg" viewBox="0 0 200 200" width="200" height="200">
  <defs>
    <filter id="organic" x="-5%" y="-5%" width="110%" height="110%">
    <feTurbulence type="fractalNoise" baseFrequency="0.04" numOctaves="3" seed="1" result="noise"/>
    <feDisplacementMap in="SourceGraphic" in2="noise" scale="2" xChannelSelector="R" yChannelSelector="G"/>
  </filter>
  </defs>
  <g>
    <path d="M 92,80.36601931028099 Q 91,125.1830096551405 90.4,170 L 109.6,170 Q 109,125.1830096551405 108,80.36601931028099 Z" fill="#979bc4" filter="url(#organic)"/>
    <ellipse cx="100" cy="107.2562135171967" rx="12" ry="3.5999999999999996" fill="none" stroke="currentColor" stroke-width="1.5" opacity="0.6"/>
    <path d="M 60,80.36601931028099 L 57.75,95.36601931028099 M 63.47826086956522,80.36601931028099 L 61.423913043478265,95.36601931028099 M 66.95652173913044,80.36601931028099 L 65.09782608695653,95.36601931028099 M 70.43478260869566,80.36601931028099 L 68.77173913043478,95.36601931028099 M 73.91304347826087,80.36601931028099 L 72.44565217391305,95.36601931028099 M 77.3913043478261,80.36601931028099 L 76.11956521739131,95.36601931028099 M 80.86956521739131,80.36601931028099 L 79.79347826086958,95.36601931028099 M 84.34782608695653,80.36601931028099 L 83.46739130434783,95.36601931028099 M 87.82608695652173,80.36601931028099 L 87.14130434782608,95.36601931028099 M 91.30434782608695,80.36601931028099 L 90.81521739130434,95.36601931028099 M 94.78260869565219,80.36601931028099 L 94.48913043478262,95.36601931028099 M 98.2608695652174,80.36601931028099 L 98.16304347826089,95.36601931028099 M 101.73913043478261,80.36601931028099 L 101.83695652173913,95.36601931028099 M 105.21739130434783,80.36601931028099 L 105.51086956521739,95.36601931028099 M 108.69565217391306,80.36601931028099 L 109.18478260869567,95.36601931028099 M 112.17391304347827,80.36601931028099 L 112.85869565217392,95.36601931028099 M 115.65217391304347,80.36601931028099 L 116.53260869565217,95.36601931028099 M 119.13043478260869,80.36601931028099 L 120.20652173913042,95.36601931028099 M 122.6086956521739,80.36601931028099 L 123.88043478260869,95.36601931028099 M 126.08695652173913,80.36601931028099 L 127.55434782608695,95.36601931028099 M 129.56521739130437,80.36601931028099 L 131.22826086956525,95.36601931028099 M 133.04347826086956,80.36601931028099 L 134.90217391304347,95.36601931028099 M 136.5217391304348,80.36601931028099 L 138.57608695652178,95.36601931028099 M 140,80.36601931028099 L 142.25,95.36601931028099" stroke="#979bc4" stroke-width="0.8" fill="none" opacity="0.7"/>
    <path d="M 50,80.36601931028099 Q 50,69.11601931028099 100,65.36601931028099 Q 150,69.11601931028099 150,80.36601931028099" fill="#3275b4" filter="url(#organic)"/>
  </g>
</svg>