<svg xmlns="http://www.w3.org/2000/svg" viewBox="0 0 200 200" width="200" height="200">
  <defs>
    <filter id="organic" x="-5%" y="-5%" width="110%" height="110%">
    <feTurbulence type="fractalNoise" baseFrequency="0.04" numOctaves="3" seed="1" result="noise"/>
    <feDisplacementMap in="SourceGraphic" in2="noise" scale="2" xChannelSelector="R" yChannelSelector="G"/>
  </filter>
  </defs>
  <g>
    <path d="M 96,76.20734931272293 Q 95,123.10367465636146 95.2,170 L 104.8,170 Q 105,123.10367465636146 104,76.20734931272293 Z" fill="#979bc4" filter="url(#organic)"/>
    <ellipse cx="100" cy="104.34514451890604" rx="6" ry="1.7999999999999998" fill="none" stroke="currentColor" stroke-width="1.5" opacity="0.6"/>
    <path d="M 69.8,76.20734931272293 L 68.11699999999999,87.42734931272292 M 74.44615384615385,76.20734931272293 L 73.02207692307692,87.42734931272292 M 79.09230769230768,76.20734931272293 L 77.92715384615384,87.42734931272292 M 83.73846153846154,76.20734931272293 L 82.83223076923076,87.42734931272292 M 88.38461538461539,76.20734931272293 L 87.7373076923077,87.42734931272292 M 93.03076923076924,76.20734931272293 L 92.64238461538463,87.42734931272292 M 97.67692307692307,76.20734931272293 L 97.54746153846153,87.42734931272292 M 102.32307692307691,76.20734931272293 L 102.45253846153845,87.42734931272292 M 106.96923076923076,76.20734931272293 L 107.35761538461537,87.42734931272292 M 111.61538461538461,76.20734931272293 L 112.2626923076923,87.42734931272292 M 116.26153846153846,76.20734931272293 L 117.16776923076924,87.42734931272292 M 120.90769230769232,76.20734931272293 L 122.07284615384616,87.42734931272292 M 125.55384615384615,76.20734931272293 L 126.97792307692308,87.42734931272292 M 130.2,76.20734931272293 L 131.88299999999998,87.42734931272292" stroke="#979bc4" stroke-width="0.8" fill="none" opacity="0.7"/>
    <path d="M 62.25,76.20734931272293 Q 62.25,67.79234931272293 100,64.98734931272293 Q 137.75,67.79234931272293 137.75,76.20734931272293" fill="#3275b4" filter="url(#organic)"/>
  </g>
</svg>