<svg xmlns="http://www.w3.org/2000/svg" viewBox="0 0 200 200" width="200" height="200">
  <defs>
    <filter id="organic" x="-5%" y="-5%" width="110%" height="110%">
    <feTurbulence type="fractalNoise" baseFrequency="0.04" numOctaves="3" seed="1" result="noise"/>
    <feDisplacementMap in="SourceGraphic" in2="noise" scale="2" xChannelSelector="R" yChannelSelector="G"/>
  </filter>
  </defs>
  <g>
    <path d="M 96.8,109.10598172041028 Q 95.8,139.55299086020514 96.16,170 L 103.84,170 Q 104.2,139.55299086020514 103.2,109.10598172041028 Z" fill="#73aba3" filter="url(#organic)"/>
    <path d="M 73.72,109.10598172041028 L 72.28,118.70598172041028 M 79.56,109.10598172041028 L 78.44,118.70598172041028 M 85.4,109.10598172041028 L 84.60000000000001,118.70598172041028 M 91.24,109.10598172041028 L 90.75999999999999,118.70598172041028 M 97.08,109.10598172041028 L 96.92,118.70598172041028 M 102.92,109.10598172041028 L 103.08,118.70598172041028 M 108.75999999999999,109.10598172041028 L 109.24,118.70598172041028 M 114.6,109.10598172041028 L 115.39999999999999,118.70598172041028 M 120.44,109.10598172041028 L 121.56,118.70598172041028 M 126.28,109.10598172041028 L 127.72,118.70598172041028" stroke="#73aba3" stroke-width="0.8" fill="none" opacity="0.7"/>
    <path d="M 67.15,109.10598172041028 Q 67.15,85.10598172041028 100,85.10598172041028 Q 132.85,85.10598172041028 132.85,109.10598172041028" fill="#258651" filter="url(#organic)"/>
  </g>
</svg>