<svg xmlns="http://www.w3.org/2000/svg" viewBox="0 0 200 200" width="200" height="200">
  <defs>
    <filter id="organic" x="-5%" y="-5%" width="110%" height="110%">
    <feTurbulence type="fractalNoise" baseFrequency="0.04" numOctaves="3" seed="1" result="noise"/>
    <feDisplacementMap in="SourceGraphic" in2="noise" scale="2" xChannelSelector="R" yChannelSelector="G"/>
  </filter>
  </defs>
  <g>
    <path d="M 95.6,96.36363636363637 Q 94.6,133.1818181818182 94.72,170 L 105.28,170 Q 105.4,133.1818181818182 104.4,96.36363636363637 Z" fill="#979bc4" filter="url(#organic)"/>
    <ellipse cx="100" cy="118.45454545454547" rx="6.6000000000000005" ry="1.98" fill="none" stroke="currentColor" stroke-width="1.5" opacity="0.6"/>
    <path d="M 67.84,96.36363636363637 L 66.238,107.04363636363638 M 72.128,96.36363636363637 L 70.7396,107.04363636363638 M 76.416,96.36363636363637 L 75.24119999999999,107.04363636363638 M 80.70400000000001,96.36363636363637 L 79.7428,107.04363636363638 M 84.992,96.36363636363637 L 84.2444,107.04363636363638 M 89.28,96.36363636363637 L 88.746,107.04363636363638 M 93.56800000000001,96.36363636363637 L 93.2476,107.04363636363638 M 97.85600000000001,96.36363636363637 L 97.7492,107.04363636363638 M 102.144,96.36363636363637 L 102.25080000000001,107.04363636363638 M 106.43200000000002,96.36363636363637 L 106.75240000000002,107.04363636363638 M 110.72,96.36363636363637 L 111.254,107.04363636363638 M 115.00800000000001,96.36363636363637 L 115.75560000000002,107.04363636363638 M 119.29600000000002,96.36363636363637 L 120.25720000000003,107.04363636363638 M 123.584,96.36363636363637 L 124.75880000000001,107.04363636363638 M 127.87200000000001,96.36363636363637 L 129.2604,107.04363636363638 M 132.16000000000003,96.36363636363637 L 133.76200000000003,107.04363636363638" stroke="#979bc4" stroke-width="0.8" fill="none" opacity="0.7"/>
    <path d="M 59.8,96.36363636363637 Q 59.8,88.35363636363637 100,85.68363636363637 Q 140.2,88.35363636363637 140.2,96.36363636363637" fill="#3275b4" filter="url(#organic)"/>
    <circle cx="79.9" cy="77.7" r="3" fill="white" opacity="0.85"/>
    <circle cx="112.1" cy="75.0" r="2.5" fill="white" opacity="0.85"/>
    <circle cx="96.0" cy="73.7" r="2" fill="white" opacity="0.85"/>
    <circle cx="124.1" cy="80.3" r="2" fill="white" opacity="0.85"/>
    <circle cx="75.9" cy="83.0" r="1.5" fill="white" opacity="0.85"/>
    <circle cx="104.0" cy="83.0" r="2.5" fill="white" opacity="0.85"/>
  </g>
</svg>