<svg xmlns="http://www.w3.org/2000/svg" viewBox="0 0 200 200" width="200" height="200">
  <defs>
    <filter id="organic" x="-5%" y="-5%" width="110%" height="110%">
    <feTurbulence type="fractalNoise" baseFrequency="0.04" numOctaves="3" seed="1" result="noise"/>
    <feDisplacementMap in="SourceGraphic" in2="noise" scale="2" xChannelSelector="R" yChannelSelector="G"/>
  </filter>
  </defs>
  <g>
    <path d="M 95.6,95.12781817132864 Q 94.6,132.5639090856643 94.72,170 L 105.28,170 Q 105.4,132.5639090856643 104.4,95.12781817132864 Z" fill="#979bc4" filter="url(#organic)"/>
    <ellipse cx="100" cy="117.58947271993004" rx="6.6000000000000005" ry="1.98" fill="none" stroke="currentColor" stroke-width="1.5" opacity="0.6"/>
    <path d="M 67.84,95.12781817132864 L 66.238,105.80781817132865 M 72.128,95.12781817132864 L 70.7396,105.80781817132865 M 76.416,95.12781817132864 L 75.24119999999999,105.80781817132865 M 80.70400000000001,95.12781817132864 L 79.7428,105.80781817132865 M 84.992,95.12781817132864 L 84.2444,105.80781817132865 M 89.28,95.12781817132864 L 88.746,105.80781817132865 M 93.56800000000001,95.12781817132864 L 93.2476,105.80781817132865 M 97.85600000000001,95.12781817132864 L 97.7492,105.80781817132865 M 102.144,95.12781817132864 L 102.25080000000001,105.80781817132865 M 106.43200000000002,95.12781817132864 L 106.75240000000002,105.80781817132865 M 110.72,95.12781817132864 L 111.254,105.80781817132865 M 115.00800000000001,95.12781817132864 L 115.75560000000002,105.80781817132865 M 119.29600000000002,95.12781817132864 L 120.25720000000003,105.80781817132865 M 123.584,95.12781817132864 L 124.75880000000001,105.80781817132865 M 127.87200000000001,95.12781817132864 L 129.2604,105.80781817132865 M 132.16000000000003,95.12781817132864 L 133.76200000000003,105.80781817132865" stroke="#979bc4" stroke-width="0.8" fill="none" opacity="0.7"/>
    <path d="M 59.8,95.12781817132864 Q 59.8,87.11781817132864 100,84.44781817132863 Q 140.2,87.11781817132864 140.2,95.12781817132864" fill="#3275b4" filter="url(#organic)"/>
    <circle cx="79.9" cy="76.4" r="3" fill="white" opacity="0.85"/>
    <circle cx="112.1" cy="73.8" r="2.5" fill="white" opacity="0.85"/>
    <circle cx="96.0" cy="72.4" r="2" fill="white" opacity="0.85"/>
    <circle cx="124.1" cy="79.1" r="2" fill="white" opacity="0.85"/>
    <circle cx="75.9" cy="81.8" r="1.5" fill="white" opacity="0.85"/>
    <circle cx="104.0" cy="81.8" r="2.5" fill="white" opacity="0.85"/>
  </g>
</svg>