<svg xmlns="http://www.w3.org/2000/svg" viewBox="0 0 200 200" width="200" height="200">
  <defs>
    <filter id="organic" x="-5%" y="-5%" width="110%" height="110%">
    <feTurbulence type="fractalNoise" baseFrequency="0.04" numOctaves="3" seed="1" result="noise"/>
    <feDisplacementMap in="SourceGraphic" in2="noise" scale="2" xChannelSelector="R" yChannelSelector="G"/>
  </filter>
  </defs>
  <g>
    <path d="M 92.8,90.58606642654468 Q 91.8,130.29303321327234 91.36,170 L 108.64,170 Q 108.2,130.29303321327234 107.2,90.58606642654468 Z" fill="#979bc4" filter="url(#organic)"/>
    <ellipse cx="100" cy="114.41024649858127" rx="10.8" ry="3.24" fill="none" stroke="currentColor" stroke-width="1.5" opacity="0.6"/>
    <path d="M 60,90.58606642654468 L 58.155,102.88606642654467 M 63.47826086956522,90.58606642654468 L 61.793695652173916,102.88606642654467 M 66.95652173913044,90.58606642654468 L 65.43239130434783,102.88606642654467 M 70.43478260869566,90.58606642654468 L 69.07108695652174,102.88606642654467 M 73.91304347826087,90.58606642654468 L 72.70978260869566,102.88606642654467 M 77.3913043478261,90.58606642654468 L 76.34847826086957,102.88606642654467 M 80.86956521739131,90.58606642654468 L 79.98717391304349,102.88606642654467 M 84.34782608695653,90.58606642654468 L 83.6258695652174,102.88606642654467 M 87.82608695652173,90.58606642654468 L 87.2645652173913,102.88606642654467 M 91.30434782608695,90.58606642654468 L 90.90326086956522,102.88606642654467 M 94.78260869565219,90.58606642654468 L 94.54195652173914,102.88606642654467 M 98.2608695652174,90.58606642654468 L 98.18065217391306,102.88606642654467 M 101.73913043478261,90.58606642654468 L 101.81934782608695,102.88606642654467 M 105.21739130434783,90.58606642654468 L 105.45804347826088,102.88606642654467 M 108.69565217391306,90.58606642654468 L 109.0967391304348,102.88606642654467 M 112.17391304347827,90.58606642654468 L 112.7354347826087,102.88606642654467 M 115.65217391304347,90.58606642654468 L 116.3741304347826,102.88606642654467 M 119.13043478260869,90.58606642654468 L 120.01282608695651,102.88606642654467 M 122.6086956521739,90.58606642654468 L 123.65152173913043,102.88606642654467 M 126.08695652173913,90.58606642654468 L 127.29021739130434,102.88606642654467 M 129.56521739130437,90.58606642654468 L 130.92891304347827,102.88606642654467 M 133.04347826086956,90.58606642654468 L 134.56760869565218,102.88606642654467 M 136.5217391304348,90.58606642654468 L 138.20630434782612,102.88606642654467 M 140,90.58606642654468 L 141.845,102.88606642654467" stroke="#979bc4" stroke-width="0.8" fill="none" opacity="0.7"/>
    <path d="M 50,90.58606642654468 Q 50,81.36106642654468 100,78.28606642654468 Q 150,81.36106642654468 150,90.58606642654468" fill="#3275b4" filter="url(#organic)"/>
  </g>
</svg>