<svg xmlns="http://www.w3.org/2000/svg" viewBox="0 0 200 200" width="200" height="200">
  <defs>
    <filter id="organic" x="-5%" y="-5%" width="110%" height="110%">
    <feTurbulence type="fractalNoise" baseFrequency="0.04" numOctaves="3" seed="1" result="noise"/>
    <feDisplacementMap in="SourceGraphic" in2="noise" scale="2" xChannelSelector="R" yChannelSelector="G"/>
  </filter>
  </defs>
  <g>
    <path d="M 92,85.34036481247969 Q 91,127.67018240623985 90.4,170 L 109.6,170 Q 109,127.67018240623985 108,85.34036481247969 Z" fill="#979bc4" filter="url(#organic)"/>
    <path d="M 60,85.34036481247969 L 56.94,105.7403648124797 M 63.47826086956522,85.34036481247969 L 60.684347826086956,105.7403648124797 M 66.95652173913044,85.34036481247969 L 64.42869565217391,105.7403648124797 M 70.43478260869566,85.34036481247969 L 68.17304347826088,105.7403648124797 M 73.91304347826087,85.34036481247969 L 71.91739130434783,105.7403648124797 M 77.3913043478261,85.34036481247969 L 75.66173913043478,105.7403648124797 M 80.86956521739131,85.34036481247969 L 79.40608695652175,105.7403648124797 M 84.34782608695653,85.34036481247969 L 83.1504347826087,105.7403648124797 M 87.82608695652173,85.34036481247969 L 86.89478260869565,105.7403648124797 M 91.30434782608695,85.34036481247969 L 90.6391304347826,105.7403648124797 M 94.78260869565219,85.34036481247969 L 94.38347826086958,105.7403648124797 M 98.2608695652174,85.34036481247969 L 98.12782608695653,105.7403648124797 M 101.73913043478261,85.34036481247969 L 101.87217391304348,105.7403648124797 M 105.21739130434783,85.34036481247969 L 105.61652173913043,105.7403648124797 M 108.69565217391306,85.34036481247969 L 109.36086956521741,105.7403648124797 M 112.17391304347827,85.34036481247969 L 113.10521739130435,105.7403648124797 M 115.65217391304347,85.34036481247969 L 116.8495652173913,105.7403648124797 M 119.13043478260869,85.34036481247969 L 120.59391304347825,105.7403648124797 M 122.6086956521739,85.34036481247969 L 124.33826086956522,105.7403648124797 M 126.08695652173913,85.34036481247969 L 128.08260869565217,105.7403648124797 M 129.56521739130437,85.34036481247969 L 131.82695652173916,105.7403648124797 M 133.04347826086956,85.34036481247969 L 135.57130434782607,105.7403648124797 M 136.5217391304348,85.34036481247969 L 139.31565217391307,105.7403648124797 M 140,85.34036481247969 L 143.06,105.7403648124797" stroke="#979bc4" stroke-width="0.8" fill="none" opacity="0.7"/>
    <path d="M 50,64.94036481247969 Q 65,85.34036481247969 100,75.1403648124797 Q 135,85.34036481247969 150,64.94036481247969" fill="#3275b4" filter="url(#organic)"/>
  </g>
</svg>