<svg xmlns="http://www.w3.org/2000/svg" viewBox="0 0 200 200" width="200" height="200">
  <defs>
    <filter id="organic" x="-5%" y="-5%" width="110%" height="110%">
    <feTurbulence type="fractalNoise" baseFrequency="0.04" numOctaves="3" seed="1" result="noise"/>
    <feDisplacementMap in="SourceGraphic" in2="noise" scale="2" xChannelSelector="R" yChannelSelector="G"/>
  </filter>
  </defs>
  <g>
    <path d="M 94,79.9120374882169 Q 93,124.95601874410845 92.8,170 L 107.2,170 Q 107,124.95601874410845 106,79.9120374882169 Z" fill="#979bc4" filter="url(#organic)"/>
    <ellipse cx="100" cy="106.93842624175183" rx="9" ry="2.6999999999999997" fill="none" stroke="currentColor" stroke-width="1.5" opacity="0.6"/>
    <path d="M 60,79.9120374882169 L 56.4,103.9120374882169 M 63.47826086956522,79.9120374882169 L 60.19130434782609,103.9120374882169 M 66.95652173913044,79.9120374882169 L 63.982608695652175,103.9120374882169 M 70.43478260869566,79.9120374882169 L 67.77391304347826,103.9120374882169 M 73.91304347826087,79.9120374882169 L 71.56521739130436,103.9120374882169 M 77.3913043478261,79.9120374882169 L 75.35652173913044,103.9120374882169 M 80.86956521739131,79.9120374882169 L 79.14782608695653,103.9120374882169 M 84.34782608695653,79.9120374882169 L 82.93913043478261,103.9120374882169 M 87.82608695652173,79.9120374882169 L 86.7304347826087,103.9120374882169 M 91.30434782608695,79.9120374882169 L 90.52173913043478,103.9120374882169 M 94.78260869565219,79.9120374882169 L 94.31304347826088,103.9120374882169 M 98.2608695652174,79.9120374882169 L 98.10434782608696,103.9120374882169 M 101.73913043478261,79.9120374882169 L 101.89565217391305,103.9120374882169 M 105.21739130434783,79.9120374882169 L 105.68695652173913,103.9120374882169 M 108.69565217391306,79.9120374882169 L 109.47826086956523,103.9120374882169 M 112.17391304347827,79.9120374882169 L 113.2695652173913,103.9120374882169 M 115.65217391304347,79.9120374882169 L 117.06086956521739,103.9120374882169 M 119.13043478260869,79.9120374882169 L 120.85217391304347,103.9120374882169 M 122.6086956521739,79.9120374882169 L 124.64347826086956,103.9120374882169 M 126.08695652173913,79.9120374882169 L 128.43478260869566,103.9120374882169 M 129.56521739130437,79.9120374882169 L 132.22608695652175,103.9120374882169 M 133.04347826086956,79.9120374882169 L 136.01739130434783,103.9120374882169 M 136.5217391304348,79.9120374882169 L 139.80869565217395,103.9120374882169 M 140,79.9120374882169 L 143.6,103.9120374882169" stroke="#979bc4" stroke-width="0.8" fill="none" opacity="0.7"/>
    <path d="M 50,79.9120374882169 Q 50,55.912037488216896 85,43.912037488216896 L 100,19.912037488216896 L 115,43.912037488216896 Q 150,55.912037488216896 150,79.9120374882169" fill="#3275b4" filter="url(#organic)"/>
  </g>
</svg>