<svg xmlns="http://www.w3.org/2000/svg" viewBox="0 0 200 200" width="200" height="200">
  <defs>
    <filter id="organic" x="-5%" y="-5%" width="110%" height="110%">
    <feTurbulence type="fractalNoise" baseFrequency="0.04" numOctaves="3" seed="1" result="noise"/>
    <feDisplacementMap in="SourceGraphic" in2="noise" scale="2" xChannelSelector="R" yChannelSelector="G"/>
  </filter>
  </defs>
  <g>
    <path d="M 96.8,80.3303916781876 Q 95.8,125.1651958390938 96.16,170 L 103.84,170 Q 104.2,125.1651958390938 103.2,80.3303916781876 Z" fill="#979bc4" filter="url(#organic)"/>
    <ellipse cx="100" cy="107.23127417473131" rx="4.800000000000001" ry="1.4400000000000002" fill="none" stroke="currentColor" stroke-width="1.5" opacity="0.6"/>
    <path d="M 73.72,80.3303916781876 L 71.389,95.8703916781876 M 79.56,80.3303916781876 L 77.747,95.8703916781876 M 85.4,80.3303916781876 L 84.105,95.8703916781876 M 91.24,80.3303916781876 L 90.463,95.8703916781876 M 97.08,80.3303916781876 L 96.821,95.8703916781876 M 102.92,80.3303916781876 L 103.179,95.8703916781876 M 108.75999999999999,80.3303916781876 L 109.53699999999999,95.8703916781876 M 114.6,80.3303916781876 L 115.895,95.8703916781876 M 120.44,80.3303916781876 L 122.253,95.8703916781876 M 126.28,80.3303916781876 L 128.611,95.8703916781876" stroke="#979bc4" stroke-width="0.8" fill="none" opacity="0.7"/>
    <path d="M 67.15,80.3303916781876 Q 67.15,68.6753916781876 100,64.79039167818759 Q 132.85,68.6753916781876 132.85,80.3303916781876" fill="#3275b4" filter="url(#organic)"/>
  </g>
</svg>