<svg xmlns="http://www.w3.org/2000/svg" viewBox="0 0 200 200" width="200" height="200">
  <defs>
    <filter id="organic" x="-5%" y="-5%" width="110%" height="110%">
    <feTurbulence type="fractalNoise" baseFrequency="0.04" numOctaves="3" seed="1" result="noise"/>
    <feDisplacementMap in="SourceGraphic" in2="noise" scale="2" xChannelSelector="R" yChannelSelector="G"/>
  </filter>
  </defs>
  <g>
    <path d="M 92,85.11349483718082 Q 91,127.55674741859042 90.4,170 L 109.6,170 Q 109,127.55674741859042 108,85.11349483718082 Z" fill="#78a6bd" filter="url(#organic)"/>
    <ellipse cx="100" cy="110.57944638602658" rx="12" ry="3.5999999999999996" fill="none" stroke="currentColor" stroke-width="1.5" opacity="0.6"/>
    <path d="M 60,85.11349483718082 L 58.56,94.71349483718083 M 63.47826086956522,85.11349483718082 L 62.16347826086957,94.71349483718083 M 66.95652173913044,85.11349483718082 L 65.76695652173913,94.71349483718083 M 70.43478260869566,85.11349483718082 L 69.3704347826087,94.71349483718083 M 73.91304347826087,85.11349483718082 L 72.97391304347826,94.71349483718083 M 77.3913043478261,85.11349483718082 L 76.57739130434783,94.71349483718083 M 80.86956521739131,85.11349483718082 L 80.18086956521739,94.71349483718083 M 84.34782608695653,85.11349483718082 L 83.78434782608697,94.71349483718083 M 87.82608695652173,85.11349483718082 L 87.38782608695652,94.71349483718083 M 91.30434782608695,85.11349483718082 L 90.99130434782609,94.71349483718083 M 94.78260869565219,85.11349483718082 L 94.59478260869567,94.71349483718083 M 98.2608695652174,85.11349483718082 L 98.19826086956523,94.71349483718083 M 101.73913043478261,85.11349483718082 L 101.80173913043478,94.71349483718083 M 105.21739130434783,85.11349483718082 L 105.40521739130435,94.71349483718083 M 108.69565217391306,85.11349483718082 L 109.00869565217393,94.71349483718083 M 112.17391304347827,85.11349483718082 L 112.61217391304348,94.71349483718083 M 115.65217391304347,85.11349483718082 L 116.21565217391303,94.71349483718083 M 119.13043478260869,85.11349483718082 L 119.81913043478261,94.71349483718083 M 122.6086956521739,85.11349483718082 L 123.42260869565217,94.71349483718083 M 126.08695652173913,85.11349483718082 L 127.02608695652174,94.71349483718083 M 129.56521739130437,85.11349483718082 L 130.62956521739133,94.71349483718083 M 133.04347826086956,85.11349483718082 L 134.23304347826087,94.71349483718083 M 136.5217391304348,85.11349483718082 L 137.83652173913046,94.71349483718083 M 140,85.11349483718082 L 141.44,94.71349483718083" stroke="#78a6bd" stroke-width="0.8" fill="none" opacity="0.7"/>
    <path d="M 50,85.11349483718082 Q 50,77.91349483718082 100,75.51349483718082 Q 150,77.91349483718082 150,85.11349483718082" fill="#00858d" filter="url(#organic)"/>
  </g>
</svg>