<svg xmlns="http://www.w3.org/2000/svg" viewBox="0 0 200 200" width="200" height="200">
  <defs>
    <filter id="organic" x="-5%" y="-5%" width="110%" height="110%">
    <feTurbulence type="fractalNoise" baseFrequency="0.04" numOctaves="3" seed="1" result="noise"/>
    <feDisplacementMap in="SourceGraphic" in2="noise" scale="2" xChannelSelector="R" yChannelSelector="G"/>
  </filter>
  </defs>
  <g>
    <path d="M 92,96.52887328363697 Q 91,133.2644366418185 90.4,170 L 109.6,170 Q 109,133.2644366418185 108,96.52887328363697 Z" fill="#979bc4" filter="url(#organic)"/>
    <path d="M 60,96.52887328363697 L 58.479,106.66887328363697 M 63.47826086956522,96.52887328363697 L 62.08952173913043,106.66887328363697 M 66.95652173913044,96.52887328363697 L 65.70004347826087,106.66887328363697 M 70.43478260869566,96.52887328363697 L 69.31056521739131,106.66887328363697 M 73.91304347826087,96.52887328363697 L 72.92108695652175,106.66887328363697 M 77.3913043478261,96.52887328363697 L 76.53160869565218,106.66887328363697 M 80.86956521739131,96.52887328363697 L 80.14213043478262,106.66887328363697 M 84.34782608695653,96.52887328363697 L 83.75265217391305,106.66887328363697 M 87.82608695652173,96.52887328363697 L 87.36317391304347,106.66887328363697 M 91.30434782608695,96.52887328363697 L 90.97369565217392,106.66887328363697 M 94.78260869565219,96.52887328363697 L 94.58421739130436,106.66887328363697 M 98.2608695652174,96.52887328363697 L 98.1947391304348,106.66887328363697 M 101.73913043478261,96.52887328363697 L 101.80526086956522,106.66887328363697 M 105.21739130434783,96.52887328363697 L 105.41578260869565,106.66887328363697 M 108.69565217391306,96.52887328363697 L 109.0263043478261,106.66887328363697 M 112.17391304347827,96.52887328363697 L 112.63682608695653,106.66887328363697 M 115.65217391304347,96.52887328363697 L 116.24734782608695,106.66887328363697 M 119.13043478260869,96.52887328363697 L 119.85786956521738,106.66887328363697 M 122.6086956521739,96.52887328363697 L 123.46839130434782,106.66887328363697 M 126.08695652173913,96.52887328363697 L 127.07891304347825,106.66887328363697 M 129.56521739130437,96.52887328363697 L 130.6894347826087,106.66887328363697 M 133.04347826086956,96.52887328363697 L 134.29995652173912,106.66887328363697 M 136.5217391304348,96.52887328363697 L 137.91047826086958,106.66887328363697 M 140,96.52887328363697 L 141.521,106.66887328363697" stroke="#979bc4" stroke-width="0.8" fill="none" opacity="0.7"/>
    <path d="M 50,86.38887328363697 Q 65,96.52887328363695 100,91.45887328363696 Q 135,96.52887328363695 150,86.38887328363697" fill="#3275b4" filter="url(#organic)"/>
    <circle cx="75.0" cy="78.8" r="3" fill="white" opacity="0.85"/>
    <circle cx="115.0" cy="76.2" r="2.5" fill="white" opacity="0.85"/>
    <circle cx="95.0" cy="75.0" r="2" fill="white" opacity="0.85"/>
    <circle cx="130.0" cy="81.3" r="2" fill="white" opacity="0.85"/>
    <circle cx="70.0" cy="83.9" r="1.5" fill="white" opacity="0.85"/>
    <circle cx="105.0" cy="83.9" r="2.5" fill="white" opacity="0.85"/>
  </g>
</svg>