<svg xmlns="http://www.w3.org/2000/svg" viewBox="0 0 200 200" width="200" height="200">
  <defs>
    <filter id="organic" x="-5%" y="-5%" width="110%" height="110%">
    <feTurbulence type="fractalNoise" baseFrequency="0.04" numOctaves="3" seed="1" result="noise"/>
    <feDisplacementMap in="SourceGraphic" in2="noise" scale="2" xChannelSelector="R" yChannelSelector="G"/>
  </filter>
  </defs>
  <g>
    <path d="M 92,82.80591894796886 Q 91,126.40295947398442 90.4,170 L 109.6,170 Q 109,126.40295947398442 108,82.80591894796886 Z" fill="#979bc4" filter="url(#organic)"/>
    <path d="M 60,82.80591894796886 L 58.479,92.94591894796886 M 63.47826086956522,82.80591894796886 L 62.08952173913043,92.94591894796886 M 66.95652173913044,82.80591894796886 L 65.70004347826087,92.94591894796886 M 70.43478260869566,82.80591894796886 L 69.31056521739131,92.94591894796886 M 73.91304347826087,82.80591894796886 L 72.92108695652175,92.94591894796886 M 77.3913043478261,82.80591894796886 L 76.53160869565218,92.94591894796886 M 80.86956521739131,82.80591894796886 L 80.14213043478262,92.94591894796886 M 84.34782608695653,82.80591894796886 L 83.75265217391305,92.94591894796886 M 87.82608695652173,82.80591894796886 L 87.36317391304347,92.94591894796886 M 91.30434782608695,82.80591894796886 L 90.97369565217392,92.94591894796886 M 94.78260869565219,82.80591894796886 L 94.58421739130436,92.94591894796886 M 98.2608695652174,82.80591894796886 L 98.1947391304348,92.94591894796886 M 101.73913043478261,82.80591894796886 L 101.80526086956522,92.94591894796886 M 105.21739130434783,82.80591894796886 L 105.41578260869565,92.94591894796886 M 108.69565217391306,82.80591894796886 L 109.0263043478261,92.94591894796886 M 112.17391304347827,82.80591894796886 L 112.63682608695653,92.94591894796886 M 115.65217391304347,82.80591894796886 L 116.24734782608695,92.94591894796886 M 119.13043478260869,82.80591894796886 L 119.85786956521738,92.94591894796886 M 122.6086956521739,82.80591894796886 L 123.46839130434782,92.94591894796886 M 126.08695652173913,82.80591894796886 L 127.07891304347825,92.94591894796886 M 129.56521739130437,82.80591894796886 L 130.6894347826087,92.94591894796886 M 133.04347826086956,82.80591894796886 L 134.29995652173912,92.94591894796886 M 136.5217391304348,82.80591894796886 L 137.91047826086958,92.94591894796886 M 140,82.80591894796886 L 141.521,92.94591894796886" stroke="#979bc4" stroke-width="0.8" fill="none" opacity="0.7"/>
    <path d="M 50,82.80591894796886 Q 50,75.20091894796886 100,72.66591894796886 Q 150,75.20091894796886 150,82.80591894796886" fill="#3275b4" filter="url(#organic)"/>
  </g>
</svg>