<svg xmlns="http://www.w3.org/2000/svg" viewBox="0 0 200 200" width="200" height="200">
  <defs>
    <filter id="glow" x="-50%" y="-50%" width="200%" height="200%">
    <feGaussianBlur in="SourceGraphic" stdDeviation="3" result="blur"/>
    <feMerge>
      <feMergeNode in="blur"/>
      <feMergeNode in="blur"/>
      <feMergeNode in="SourceGraphic"/>
    </feMerge>
  </filter>
    <filter id="organic" x="-5%" y="-5%" width="110%" height="110%">
    <feTurbulence type="fractalNoise" baseFrequency="0.04" numOctaves="3" seed="1" result="noise"/>
    <feDisplacementMap in="SourceGraphic" in2="noise" scale="2" xChannelSelector="R" yChannelSelector="G"/>
  </filter>
  </defs>
  <g filter="url(#glow)">
    <path d="M 92,81.57510544336401 Q 91,125.787552721682 90.4,170 L 109.6,170 Q 109,125.787552721682 108,81.57510544336401 Z" fill="#979bc4" filter="url(#organic)"/>
    <path d="M 60,81.57510544336401 L 57.021,101.43510544336401 M 63.47826086956522,81.57510544336401 L 60.75830434782609,101.43510544336401 M 66.95652173913044,81.57510544336401 L 64.49560869565218,101.43510544336401 M 70.43478260869566,81.57510544336401 L 68.23291304347826,101.43510544336401 M 73.91304347826087,81.57510544336401 L 71.97021739130436,101.43510544336401 M 77.3913043478261,81.57510544336401 L 75.70752173913044,101.43510544336401 M 80.86956521739131,81.57510544336401 L 79.44482608695652,101.43510544336401 M 84.34782608695653,81.57510544336401 L 83.18213043478262,101.43510544336401 M 87.82608695652173,81.57510544336401 L 86.91943478260869,101.43510544336401 M 91.30434782608695,81.57510544336401 L 90.65673913043479,101.43510544336401 M 94.78260869565219,81.57510544336401 L 94.39404347826088,101.43510544336401 M 98.2608695652174,81.57510544336401 L 98.13134782608697,101.43510544336401 M 101.73913043478261,81.57510544336401 L 101.86865217391305,101.43510544336401 M 105.21739130434783,81.57510544336401 L 105.60595652173913,101.43510544336401 M 108.69565217391306,81.57510544336401 L 109.34326086956524,101.43510544336401 M 112.17391304347827,81.57510544336401 L 113.08056521739131,101.43510544336401 M 115.65217391304347,81.57510544336401 L 116.81786956521738,101.43510544336401 M 119.13043478260869,81.57510544336401 L 120.55517391304348,101.43510544336401 M 122.6086956521739,81.57510544336401 L 124.29247826086956,101.43510544336401 M 126.08695652173913,81.57510544336401 L 128.02978260869565,101.43510544336401 M 129.56521739130437,81.57510544336401 L 131.76708695652175,101.43510544336401 M 133.04347826086956,81.57510544336401 L 135.50439130434782,101.43510544336401 M 136.5217391304348,81.57510544336401 L 139.24169565217395,101.43510544336401 M 140,81.57510544336401 L 142.979,101.43510544336401" stroke="#979bc4" stroke-width="0.8" fill="none" opacity="0.7"/>
    <path d="M 50,61.71510544336401 Q 65,81.57510544336401 100,71.645105443364 Q 135,81.57510544336401 150,61.71510544336401" fill="#3275b4" filter="url(#organic)"/>
    <circle cx="75.0" cy="46.8" r="3" fill="white" opacity="0.85"/>
    <circle cx="115.0" cy="41.9" r="2.5" fill="white" opacity="0.85"/>
    <circle cx="95.0" cy="39.4" r="2" fill="white" opacity="0.85"/>
    <circle cx="130.0" cy="51.8" r="2" fill="white" opacity="0.85"/>
    <circle cx="70.0" cy="56.8" r="1.5" fill="white" opacity="0.85"/>
    <circle cx="105.0" cy="56.8" r="2.5" fill="white" opacity="0.85"/>
  </g>
</svg>