<svg xmlns="http://www.w3.org/2000/svg" viewBox="0 0 200 200" width="200" height="200">
  <defs>
    <filter id="organic" x="-5%" y="-5%" width="110%" height="110%">
    <feTurbulence type="fractalNoise" baseFrequency="0.04" numOctaves="3" seed="1" result="noise"/>
    <feDisplacementMap in="SourceGraphic" in2="noise" scale="2" xChannelSelector="R" yChannelSelector="G"/>
  </filter>
  </defs>
  <g>
    <path d="M 96.4,83.36070865897142 Q 95.4,126.68035432948571 95.68,170 L 104.32,170 Q 104.6,126.68035432948571 103.6,83.36070865897142 Z" fill="#979bc4" filter="url(#organic)"/>
    <ellipse cx="100" cy="109.35249606128" rx="5.4" ry="1.62" fill="none" stroke="currentColor" stroke-width="1.5" opacity="0.6"/>
    <path d="M 71.75999999999999,83.36070865897142 L 69.18599999999999,100.52070865897142 M 76.89454545454545,83.36070865897142 L 74.78854545454546,100.52070865897142 M 82.0290909090909,83.36070865897142 L 80.39109090909089,100.52070865897142 M 87.16363636363636,83.36070865897142 L 85.99363636363636,100.52070865897142 M 92.29818181818182,83.36070865897142 L 91.59618181818182,100.52070865897142 M 97.43272727272726,83.36070865897142 L 97.19872727272727,100.52070865897142 M 102.56727272727272,83.36070865897142 L 102.80127272727272,100.52070865897142 M 107.70181818181817,83.36070865897142 L 108.40381818181817,100.52070865897142 M 112.83636363636364,83.36070865897142 L 114.00636363636364,100.52070865897142 M 117.97090909090909,83.36070865897142 L 119.6089090909091,100.52070865897142 M 123.10545454545453,83.36070865897142 L 125.21145454545453,100.52070865897142 M 128.24,83.36070865897142 L 130.81400000000002,100.52070865897142" stroke="#979bc4" stroke-width="0.8" fill="none" opacity="0.7"/>
    <path d="M 64.69999999999999,83.36070865897142 Q 64.69999999999999,70.49070865897141 100,66.20070865897142 Q 135.3,70.49070865897141 135.3,83.36070865897142" fill="#3275b4" filter="url(#organic)"/>
  </g>
</svg>