<svg xmlns="http://www.w3.org/2000/svg" viewBox="0 0 200 200" width="200" height="200">
  <defs>
    <filter id="organic" x="-5%" y="-5%" width="110%" height="110%">
    <feTurbulence type="fractalNoise" baseFrequency="0.04" numOctaves="3" seed="1" result="noise"/>
    <feDisplacementMap in="SourceGraphic" in2="noise" scale="2" xChannelSelector="R" yChannelSelector="G"/>
  </filter>
  </defs>
  <g>
    <path d="M 95.6,94.15432183143925 Q 94.6,132.07716091571962 94.72,170 L 105.28,170 Q 105.4,132.07716091571962 104.4,94.15432183143925 Z" fill="#a496bf" filter="url(#organic)"/>
    <ellipse cx="100" cy="116.90802528200747" rx="6.6000000000000005" ry="1.98" fill="none" stroke="currentColor" stroke-width="1.5" opacity="0.6"/>
    <path d="M 67.84,94.15432183143925 L 66.4,103.75432183143926 M 72.128,94.15432183143925 L 70.88,103.75432183143926 M 76.416,94.15432183143925 L 75.36,103.75432183143926 M 80.70400000000001,94.15432183143925 L 79.84,103.75432183143926 M 84.992,94.15432183143925 L 84.32000000000001,103.75432183143926 M 89.28,94.15432183143925 L 88.8,103.75432183143926 M 93.56800000000001,94.15432183143925 L 93.28000000000002,103.75432183143926 M 97.85600000000001,94.15432183143925 L 97.76,103.75432183143926 M 102.144,94.15432183143925 L 102.24000000000001,103.75432183143926 M 106.43200000000002,94.15432183143925 L 106.72000000000001,103.75432183143926 M 110.72,94.15432183143925 L 111.2,103.75432183143926 M 115.00800000000001,94.15432183143925 L 115.68,103.75432183143926 M 119.29600000000002,94.15432183143925 L 120.16000000000003,103.75432183143926 M 123.584,94.15432183143925 L 124.64,103.75432183143926 M 127.87200000000001,94.15432183143925 L 129.12,103.75432183143926 M 132.16000000000003,94.15432183143925 L 133.60000000000002,103.75432183143926" stroke="#a496bf" stroke-width="0.8" fill="none" opacity="0.7"/>
    <path d="M 59.8,94.15432183143925 Q 59.8,86.95432183143924 100,84.55432183143924 Q 140.2,86.95432183143924 140.2,94.15432183143925" fill="#576cb7" filter="url(#organic)"/>
  </g>
</svg>