<svg xmlns="http://www.w3.org/2000/svg" viewBox="0 0 200 200" width="200" height="200">
  <defs>
    <filter id="organic" x="-5%" y="-5%" width="110%" height="110%">
    <feTurbulence type="fractalNoise" baseFrequency="0.04" numOctaves="3" seed="1" result="noise"/>
    <feDisplacementMap in="SourceGraphic" in2="noise" scale="2" xChannelSelector="R" yChannelSelector="G"/>
  </filter>
  </defs>
  <g>
    <path d="M 96.8,86.74961385536463 Q 95.8,128.3748069276823 96.16,170 L 103.84,170 Q 104.2,128.3748069276823 103.2,86.74961385536463 Z" fill="#78a6bd" filter="url(#organic)"/>
    <ellipse cx="100" cy="111.72472969875524" rx="4.800000000000001" ry="1.4400000000000002" fill="none" stroke="currentColor" stroke-width="1.5" opacity="0.6"/>
    <path d="M 73.72,86.74961385536463 L 72.28,96.34961385536462 M 79.56,86.74961385536463 L 78.44,96.34961385536462 M 85.4,86.74961385536463 L 84.60000000000001,96.34961385536462 M 91.24,86.74961385536463 L 90.75999999999999,96.34961385536462 M 97.08,86.74961385536463 L 96.92,96.34961385536462 M 102.92,86.74961385536463 L 103.08,96.34961385536462 M 108.75999999999999,86.74961385536463 L 109.24,96.34961385536462 M 114.6,86.74961385536463 L 115.39999999999999,96.34961385536462 M 120.44,86.74961385536463 L 121.56,96.34961385536462 M 126.28,86.74961385536463 L 127.72,96.34961385536462" stroke="#78a6bd" stroke-width="0.8" fill="none" opacity="0.7"/>
    <path d="M 67.15,86.74961385536463 Q 67.15,62.74961385536463 100,62.74961385536463 Q 132.85,62.74961385536463 132.85,86.74961385536463" fill="#00858d" filter="url(#organic)"/>
  </g>
</svg>