<svg xmlns="http://www.w3.org/2000/svg" viewBox="0 0 200 200" width="200" height="200">
  <defs>
    <filter id="glow" x="-50%" y="-50%" width="200%" height="200%">
    <feGaussianBlur in="SourceGraphic" stdDeviation="3" result="blur"/>
    <feMerge>
      <feMergeNode in="blur"/>
      <feMergeNode in="blur"/>
      <feMergeNode in="SourceGraphic"/>
    </feMerge>
  </filter>
    <filter id="organic" x="-5%" y="-5%" width="110%" height="110%">
    <feTurbulence type="fractalNoise" baseFrequency="0.04" numOctaves="3" seed="1" result="noise"/>
    <feDisplacementMap in="SourceGraphic" in2="noise" scale="2" xChannelSelector="R" yChannelSelector="G"/>
  </filter>
  </defs>
  <g filter="url(#glow)">
    <path d="M 92,83.79694214863127 Q 91,126.89847107431564 90.4,170 L 109.6,170 Q 109,126.89847107431564 108,83.79694214863127 Z" fill="#979bc4" filter="url(#organic)"/>
    <ellipse cx="100" cy="109.6578595040419" rx="12" ry="3.5999999999999996" fill="none" stroke="currentColor" stroke-width="1.5" opacity="0.6"/>
    <path d="M 60,83.79694214863127 L 57.102,103.11694214863127 M 63.47826086956522,83.79694214863127 L 60.83226086956522,103.11694214863127 M 66.95652173913044,83.79694214863127 L 64.56252173913043,103.11694214863127 M 70.43478260869566,83.79694214863127 L 68.29278260869566,103.11694214863127 M 73.91304347826087,83.79694214863127 L 72.02304347826087,103.11694214863127 M 77.3913043478261,83.79694214863127 L 75.75330434782609,103.11694214863127 M 80.86956521739131,83.79694214863127 L 79.48356521739132,103.11694214863127 M 84.34782608695653,83.79694214863127 L 83.21382608695653,103.11694214863127 M 87.82608695652173,83.79694214863127 L 86.94408695652173,103.11694214863127 M 91.30434782608695,83.79694214863127 L 90.67434782608696,103.11694214863127 M 94.78260869565219,83.79694214863127 L 94.40460869565219,103.11694214863127 M 98.2608695652174,83.79694214863127 L 98.1348695652174,103.11694214863127 M 101.73913043478261,83.79694214863127 L 101.86513043478261,103.11694214863127 M 105.21739130434783,83.79694214863127 L 105.59539130434783,103.11694214863127 M 108.69565217391306,83.79694214863127 L 109.32565217391306,103.11694214863127 M 112.17391304347827,83.79694214863127 L 113.05591304347827,103.11694214863127 M 115.65217391304347,83.79694214863127 L 116.78617391304347,103.11694214863127 M 119.13043478260869,83.79694214863127 L 120.51643478260868,103.11694214863127 M 122.6086956521739,83.79694214863127 L 124.24669565217391,103.11694214863127 M 126.08695652173913,83.79694214863127 L 127.97695652173913,103.11694214863127 M 129.56521739130437,83.79694214863127 L 131.70721739130437,103.11694214863127 M 133.04347826086956,83.79694214863127 L 135.43747826086957,103.11694214863127 M 136.5217391304348,83.79694214863127 L 139.1677391304348,103.11694214863127 M 140,83.79694214863127 L 142.898,103.11694214863127" stroke="#979bc4" stroke-width="0.8" fill="none" opacity="0.7"/>
    <path d="M 50,64.47694214863128 Q 65,83.79694214863127 100,74.13694214863128 Q 135,83.79694214863127 150,64.47694214863128" fill="#3275b4" filter="url(#organic)"/>
    <circle cx="75.0" cy="50.0" r="3" fill="white" opacity="0.85"/>
    <circle cx="115.0" cy="45.2" r="2.5" fill="white" opacity="0.85"/>
    <circle cx="95.0" cy="42.7" r="2" fill="white" opacity="0.85"/>
    <circle cx="130.0" cy="54.8" r="2" fill="white" opacity="0.85"/>
    <circle cx="70.0" cy="59.6" r="1.5" fill="white" opacity="0.85"/>
    <circle cx="105.0" cy="59.6" r="2.5" fill="white" opacity="0.85"/>
  </g>
</svg>