<svg xmlns="http://www.w3.org/2000/svg" viewBox="0 0 200 200" width="200" height="200">
  <defs>
    <filter id="organic" x="-5%" y="-5%" width="110%" height="110%">
    <feTurbulence type="fractalNoise" baseFrequency="0.04" numOctaves="3" seed="1" result="noise"/>
    <feDisplacementMap in="SourceGraphic" in2="noise" scale="2" xChannelSelector="R" yChannelSelector="G"/>
  </filter>
  </defs>
  <g>
    <path d="M 92,92.90375686569892 Q 91,131.45187843284947 90.4,170 L 109.6,170 Q 109,131.45187843284947 108,92.90375686569892 Z" fill="#979bc4" filter="url(#organic)"/>
    <path d="M 60,92.90375686569892 L 58.317,104.12375686569892 M 63.47826086956522,92.90375686569892 L 61.94160869565218,104.12375686569892 M 66.95652173913044,92.90375686569892 L 65.56621739130435,104.12375686569892 M 70.43478260869566,92.90375686569892 L 69.19082608695652,104.12375686569892 M 73.91304347826087,92.90375686569892 L 72.8154347826087,104.12375686569892 M 77.3913043478261,92.90375686569892 L 76.44004347826088,104.12375686569892 M 80.86956521739131,92.90375686569892 L 80.06465217391305,104.12375686569892 M 84.34782608695653,92.90375686569892 L 83.68926086956523,104.12375686569892 M 87.82608695652173,92.90375686569892 L 87.31386956521739,104.12375686569892 M 91.30434782608695,92.90375686569892 L 90.93847826086956,104.12375686569892 M 94.78260869565219,92.90375686569892 L 94.56308695652176,104.12375686569892 M 98.2608695652174,92.90375686569892 L 98.18769565217393,104.12375686569892 M 101.73913043478261,92.90375686569892 L 101.81230434782609,104.12375686569892 M 105.21739130434783,92.90375686569892 L 105.43691304347826,104.12375686569892 M 108.69565217391306,92.90375686569892 L 109.06152173913046,104.12375686569892 M 112.17391304347827,92.90375686569892 L 112.68613043478261,104.12375686569892 M 115.65217391304347,92.90375686569892 L 116.31073913043477,104.12375686569892 M 119.13043478260869,92.90375686569892 L 119.93534782608695,104.12375686569892 M 122.6086956521739,92.90375686569892 L 123.55995652173912,104.12375686569892 M 126.08695652173913,92.90375686569892 L 127.1845652173913,104.12375686569892 M 129.56521739130437,92.90375686569892 L 130.8091739130435,104.12375686569892 M 133.04347826086956,92.90375686569892 L 134.43378260869565,104.12375686569892 M 136.5217391304348,92.90375686569892 L 138.05839130434785,104.12375686569892 M 140,92.90375686569892 L 141.683,104.12375686569892" stroke="#979bc4" stroke-width="0.8" fill="none" opacity="0.7"/>
    <path d="M 50,92.90375686569892 Q 50,84.48875686569892 100,81.68375686569892 Q 150,84.48875686569892 150,92.90375686569892" fill="#3275b4" filter="url(#organic)"/>
  </g>
</svg>