<svg xmlns="http://www.w3.org/2000/svg" viewBox="0 0 200 200" width="200" height="200">
  <defs>
    <filter id="organic" x="-5%" y="-5%" width="110%" height="110%">
    <feTurbulence type="fractalNoise" baseFrequency="0.04" numOctaves="3" seed="1" result="noise"/>
    <feDisplacementMap in="SourceGraphic" in2="noise" scale="2" xChannelSelector="R" yChannelSelector="G"/>
  </filter>
  </defs>
  <g>
    <path d="M 92,99.60299016961719 Q 91,134.8014950848086 90.4,170 L 109.6,170 Q 109,134.8014950848086 108,99.60299016961719 Z" fill="#73aba3" filter="url(#organic)"/>
    <ellipse cx="100" cy="120.72209311873203" rx="12" ry="3.5999999999999996" fill="none" stroke="currentColor" stroke-width="1.5" opacity="0.6"/>
    <path d="M 60,99.60299016961719 L 58.56,109.20299016961718 M 63.47826086956522,99.60299016961719 L 62.16347826086957,109.20299016961718 M 66.95652173913044,99.60299016961719 L 65.76695652173913,109.20299016961718 M 70.43478260869566,99.60299016961719 L 69.3704347826087,109.20299016961718 M 73.91304347826087,99.60299016961719 L 72.97391304347826,109.20299016961718 M 77.3913043478261,99.60299016961719 L 76.57739130434783,109.20299016961718 M 80.86956521739131,99.60299016961719 L 80.18086956521739,109.20299016961718 M 84.34782608695653,99.60299016961719 L 83.78434782608697,109.20299016961718 M 87.82608695652173,99.60299016961719 L 87.38782608695652,109.20299016961718 M 91.30434782608695,99.60299016961719 L 90.99130434782609,109.20299016961718 M 94.78260869565219,99.60299016961719 L 94.59478260869567,109.20299016961718 M 98.2608695652174,99.60299016961719 L 98.19826086956523,109.20299016961718 M 101.73913043478261,99.60299016961719 L 101.80173913043478,109.20299016961718 M 105.21739130434783,99.60299016961719 L 105.40521739130435,109.20299016961718 M 108.69565217391306,99.60299016961719 L 109.00869565217393,109.20299016961718 M 112.17391304347827,99.60299016961719 L 112.61217391304348,109.20299016961718 M 115.65217391304347,99.60299016961719 L 116.21565217391303,109.20299016961718 M 119.13043478260869,99.60299016961719 L 119.81913043478261,109.20299016961718 M 122.6086956521739,99.60299016961719 L 123.42260869565217,109.20299016961718 M 126.08695652173913,99.60299016961719 L 127.02608695652174,109.20299016961718 M 129.56521739130437,99.60299016961719 L 130.62956521739133,109.20299016961718 M 133.04347826086956,99.60299016961719 L 134.23304347826087,109.20299016961718 M 136.5217391304348,99.60299016961719 L 137.83652173913046,109.20299016961718 M 140,99.60299016961719 L 141.44,109.20299016961718" stroke="#73aba3" stroke-width="0.8" fill="none" opacity="0.7"/>
    <path d="M 50,99.60299016961719 Q 60,82.80299016961719 100,75.60299016961719 Q 140,82.80299016961719 150,99.60299016961719" fill="#258651" filter="url(#organic)"/>
  </g>
</svg>