<svg xmlns="http://www.w3.org/2000/svg" viewBox="0 0 200 200" width="200" height="200">
  <defs>
    <filter id="organic" x="-5%" y="-5%" width="110%" height="110%">
    <feTurbulence type="fractalNoise" baseFrequency="0.04" numOctaves="3" seed="1" result="noise"/>
    <feDisplacementMap in="SourceGraphic" in2="noise" scale="2" xChannelSelector="R" yChannelSelector="G"/>
  </filter>
  </defs>
  <g>
    <path d="M 96,102.11306643178945 Q 95,136.05653321589472 95.2,170 L 104.8,170 Q 105,136.05653321589472 104,102.11306643178945 Z" fill="#979bc4" filter="url(#organic)"/>
    <ellipse cx="100" cy="122.47914650225262" rx="6" ry="1.7999999999999998" fill="none" stroke="currentColor" stroke-width="1.5" opacity="0.6"/>
    <path d="M 69.8,102.11306643178945 L 68.279,112.25306643178945 M 74.44615384615385,102.11306643178945 L 73.15915384615384,112.25306643178945 M 79.09230769230768,102.11306643178945 L 78.03930769230769,112.25306643178945 M 83.73846153846154,102.11306643178945 L 82.91946153846153,112.25306643178945 M 88.38461538461539,102.11306643178945 L 87.7996153846154,112.25306643178945 M 93.03076923076924,102.11306643178945 L 92.67976923076924,112.25306643178945 M 97.67692307692307,102.11306643178945 L 97.55992307692307,112.25306643178945 M 102.32307692307691,102.11306643178945 L 102.44007692307692,112.25306643178945 M 106.96923076923076,102.11306643178945 L 107.32023076923076,112.25306643178945 M 111.61538461538461,102.11306643178945 L 112.2003846153846,112.25306643178945 M 116.26153846153846,102.11306643178945 L 117.08053846153847,112.25306643178945 M 120.90769230769232,102.11306643178945 L 121.96069230769231,112.25306643178945 M 125.55384615384615,102.11306643178945 L 126.84084615384616,112.25306643178945 M 130.2,102.11306643178945 L 131.72099999999998,112.25306643178945" stroke="#979bc4" stroke-width="0.8" fill="none" opacity="0.7"/>
    <path d="M 62.25,102.11306643178943 Q 69.8,84.36806643178944 100,76.76306643178944 Q 130.2,84.36806643178944 137.75,102.11306643178943" fill="#3275b4" filter="url(#organic)"/>
  </g>
</svg>