<svg xmlns="http://www.w3.org/2000/svg" viewBox="0 0 200 200" width="200" height="200">
  <defs>
    <filter id="organic" x="-5%" y="-5%" width="110%" height="110%">
    <feTurbulence type="fractalNoise" baseFrequency="0.04" numOctaves="3" seed="1" result="noise"/>
    <feDisplacementMap in="SourceGraphic" in2="noise" scale="2" xChannelSelector="R" yChannelSelector="G"/>
  </filter>
  </defs>
  <g>
    <path d="M 95.2,95.72754297272482 Q 94.2,132.8637714863624 94.24,170 L 105.76,170 Q 105.8,132.8637714863624 104.8,95.72754297272482 Z" fill="#71a9b3" filter="url(#organic)"/>
    <ellipse cx="100" cy="118.00928008090737" rx="7.199999999999999" ry="2.1599999999999997" fill="none" stroke="currentColor" stroke-width="1.5" opacity="0.6"/>
    <path d="M 65.88,95.72754297272482 L 64.44,105.32754297272481 M 69.89411764705882,95.72754297272482 L 68.62352941176471,105.32754297272481 M 73.90823529411765,95.72754297272482 L 72.80705882352942,105.32754297272481 M 77.92235294117647,95.72754297272482 L 76.99058823529411,105.32754297272481 M 81.9364705882353,95.72754297272482 L 81.17411764705882,105.32754297272481 M 85.95058823529412,95.72754297272482 L 85.35764705882353,105.32754297272481 M 89.96470588235294,95.72754297272482 L 89.54117647058824,105.32754297272481 M 93.97882352941176,95.72754297272482 L 93.72470588235294,105.32754297272481 M 97.9929411764706,95.72754297272482 L 97.90823529411766,105.32754297272481 M 102.0070588235294,95.72754297272482 L 102.09176470588234,105.32754297272481 M 106.02117647058824,95.72754297272482 L 106.27529411764706,105.32754297272481 M 110.03529411764706,95.72754297272482 L 110.45882352941176,105.32754297272481 M 114.0494117647059,95.72754297272482 L 114.64235294117648,105.32754297272481 M 118.0635294117647,95.72754297272482 L 118.82588235294118,105.32754297272481 M 122.07764705882353,95.72754297272482 L 123.00941176470589,105.32754297272481 M 126.09176470588235,95.72754297272482 L 127.19294117647058,105.32754297272481 M 130.1058823529412,95.72754297272482 L 131.37647058823532,105.32754297272481 M 134.12,95.72754297272482 L 135.56,105.32754297272481" stroke="#71a9b3" stroke-width="0.8" fill="none" opacity="0.7"/>
    <path d="M 57.349999999999994,95.72754297272482 Q 57.349999999999994,88.52754297272482 100,86.12754297272483 Q 142.65,88.52754297272482 142.65,95.72754297272482" fill="#008774" filter="url(#organic)"/>
  </g>
</svg>