<svg xmlns="http://www.w3.org/2000/svg" viewBox="0 0 200 200" width="200" height="200">
  <defs>
    <filter id="organic" x="-5%" y="-5%" width="110%" height="110%">
    <feTurbulence type="fractalNoise" baseFrequency="0.04" numOctaves="3" seed="1" result="noise"/>
    <feDisplacementMap in="SourceGraphic" in2="noise" scale="2" xChannelSelector="R" yChannelSelector="G"/>
  </filter>
  </defs>
  <g>
    <path d="M 92,76.72407477715569 Q 91,123.36203738857785 90.4,170 L 109.6,170 Q 109,123.36203738857785 108,76.72407477715569 Z" fill="#78a6bd" filter="url(#organic)"/>
    <ellipse cx="100" cy="104.70685234400898" rx="12" ry="3.5999999999999996" fill="none" stroke="currentColor" stroke-width="1.5" opacity="0.6"/>
    <path d="M 60,76.72407477715569 L 58.56,86.32407477715569 M 63.47826086956522,76.72407477715569 L 62.16347826086957,86.32407477715569 M 66.95652173913044,76.72407477715569 L 65.76695652173913,86.32407477715569 M 70.43478260869566,76.72407477715569 L 69.3704347826087,86.32407477715569 M 73.91304347826087,76.72407477715569 L 72.97391304347826,86.32407477715569 M 77.3913043478261,76.72407477715569 L 76.57739130434783,86.32407477715569 M 80.86956521739131,76.72407477715569 L 80.18086956521739,86.32407477715569 M 84.34782608695653,76.72407477715569 L 83.78434782608697,86.32407477715569 M 87.82608695652173,76.72407477715569 L 87.38782608695652,86.32407477715569 M 91.30434782608695,76.72407477715569 L 90.99130434782609,86.32407477715569 M 94.78260869565219,76.72407477715569 L 94.59478260869567,86.32407477715569 M 98.2608695652174,76.72407477715569 L 98.19826086956523,86.32407477715569 M 101.73913043478261,76.72407477715569 L 101.80173913043478,86.32407477715569 M 105.21739130434783,76.72407477715569 L 105.40521739130435,86.32407477715569 M 108.69565217391306,76.72407477715569 L 109.00869565217393,86.32407477715569 M 112.17391304347827,76.72407477715569 L 112.61217391304348,86.32407477715569 M 115.65217391304347,76.72407477715569 L 116.21565217391303,86.32407477715569 M 119.13043478260869,76.72407477715569 L 119.81913043478261,86.32407477715569 M 122.6086956521739,76.72407477715569 L 123.42260869565217,86.32407477715569 M 126.08695652173913,76.72407477715569 L 127.02608695652174,86.32407477715569 M 129.56521739130437,76.72407477715569 L 130.62956521739133,86.32407477715569 M 133.04347826086956,76.72407477715569 L 134.23304347826087,86.32407477715569 M 136.5217391304348,76.72407477715569 L 137.83652173913046,86.32407477715569 M 140,76.72407477715569 L 141.44,86.32407477715569" stroke="#78a6bd" stroke-width="0.8" fill="none" opacity="0.7"/>
    <path d="M 50,76.72407477715569 Q 50,69.52407477715569 100,67.1240747771557 Q 150,69.52407477715569 150,76.72407477715569" fill="#00858d" filter="url(#organic)"/>
  </g>
</svg>