<svg xmlns="http://www.w3.org/2000/svg" viewBox="0 0 200 200" width="200" height="200">
  <defs>
    <filter id="organic" x="-5%" y="-5%" width="110%" height="110%">
    <feTurbulence type="fractalNoise" baseFrequency="0.04" numOctaves="3" seed="1" result="noise"/>
    <feDisplacementMap in="SourceGraphic" in2="noise" scale="2" xChannelSelector="R" yChannelSelector="G"/>
  </filter>
  </defs>
  <g>
    <path d="M 92,97.95374753800246 Q 91,133.97687376900123 90.4,170 L 109.6,170 Q 109,133.97687376900123 108,97.95374753800246 Z" fill="#979bc4" filter="url(#organic)"/>
    <ellipse cx="100" cy="119.56762327660172" rx="12" ry="3.5999999999999996" fill="none" stroke="currentColor" stroke-width="1.5" opacity="0.6"/>
    <path d="M 60,97.95374753800246 L 58.479,108.09374753800246 M 63.47826086956522,97.95374753800246 L 62.08952173913043,108.09374753800246 M 66.95652173913044,97.95374753800246 L 65.70004347826087,108.09374753800246 M 70.43478260869566,97.95374753800246 L 69.31056521739131,108.09374753800246 M 73.91304347826087,97.95374753800246 L 72.92108695652175,108.09374753800246 M 77.3913043478261,97.95374753800246 L 76.53160869565218,108.09374753800246 M 80.86956521739131,97.95374753800246 L 80.14213043478262,108.09374753800246 M 84.34782608695653,97.95374753800246 L 83.75265217391305,108.09374753800246 M 87.82608695652173,97.95374753800246 L 87.36317391304347,108.09374753800246 M 91.30434782608695,97.95374753800246 L 90.97369565217392,108.09374753800246 M 94.78260869565219,97.95374753800246 L 94.58421739130436,108.09374753800246 M 98.2608695652174,97.95374753800246 L 98.1947391304348,108.09374753800246 M 101.73913043478261,97.95374753800246 L 101.80526086956522,108.09374753800246 M 105.21739130434783,97.95374753800246 L 105.41578260869565,108.09374753800246 M 108.69565217391306,97.95374753800246 L 109.0263043478261,108.09374753800246 M 112.17391304347827,97.95374753800246 L 112.63682608695653,108.09374753800246 M 115.65217391304347,97.95374753800246 L 116.24734782608695,108.09374753800246 M 119.13043478260869,97.95374753800246 L 119.85786956521738,108.09374753800246 M 122.6086956521739,97.95374753800246 L 123.46839130434782,108.09374753800246 M 126.08695652173913,97.95374753800246 L 127.07891304347825,108.09374753800246 M 129.56521739130437,97.95374753800246 L 130.6894347826087,108.09374753800246 M 133.04347826086956,97.95374753800246 L 134.29995652173912,108.09374753800246 M 136.5217391304348,97.95374753800246 L 137.91047826086958,108.09374753800246 M 140,97.95374753800246 L 141.521,108.09374753800246" stroke="#979bc4" stroke-width="0.8" fill="none" opacity="0.7"/>
    <path d="M 50,97.95374753800246 Q 50,90.34874753800247 100,87.81374753800247 Q 150,90.34874753800247 150,97.95374753800246" fill="#3275b4" filter="url(#organic)"/>
  </g>
</svg>