<svg xmlns="http://www.w3.org/2000/svg" viewBox="0 0 200 200" width="200" height="200">
  <defs>
    <filter id="organic" x="-5%" y="-5%" width="110%" height="110%">
    <feTurbulence type="fractalNoise" baseFrequency="0.04" numOctaves="3" seed="1" result="noise"/>
    <feDisplacementMap in="SourceGraphic" in2="noise" scale="2" xChannelSelector="R" yChannelSelector="G"/>
  </filter>
  </defs>
  <g>
    <path d="M 92,84.62029204279848 Q 91,127.31014602139925 90.4,170 L 109.6,170 Q 109,127.31014602139925 108,84.62029204279848 Z" fill="#979bc4" filter="url(#organic)"/>
    <path d="M 60,84.62029204279848 L 57.345,102.32029204279848 M 63.47826086956522,84.62029204279848 L 61.05413043478261,102.32029204279848 M 66.95652173913044,84.62029204279848 L 64.76326086956522,102.32029204279848 M 70.43478260869566,84.62029204279848 L 68.47239130434782,102.32029204279848 M 73.91304347826087,84.62029204279848 L 72.18152173913045,102.32029204279848 M 77.3913043478261,84.62029204279848 L 75.89065217391305,102.32029204279848 M 80.86956521739131,84.62029204279848 L 79.59978260869566,102.32029204279848 M 84.34782608695653,84.62029204279848 L 83.30891304347827,102.32029204279848 M 87.82608695652173,84.62029204279848 L 87.01804347826086,102.32029204279848 M 91.30434782608695,84.62029204279848 L 90.72717391304347,102.32029204279848 M 94.78260869565219,84.62029204279848 L 94.4363043478261,102.32029204279848 M 98.2608695652174,84.62029204279848 L 98.1454347826087,102.32029204279848 M 101.73913043478261,84.62029204279848 L 101.85456521739131,102.32029204279848 M 105.21739130434783,84.62029204279848 L 105.56369565217392,102.32029204279848 M 108.69565217391306,84.62029204279848 L 109.27282608695654,102.32029204279848 M 112.17391304347827,84.62029204279848 L 112.98195652173914,102.32029204279848 M 115.65217391304347,84.62029204279848 L 116.69108695652173,102.32029204279848 M 119.13043478260869,84.62029204279848 L 120.40021739130434,102.32029204279848 M 122.6086956521739,84.62029204279848 L 124.10934782608695,102.32029204279848 M 126.08695652173913,84.62029204279848 L 127.81847826086955,102.32029204279848 M 129.56521739130437,84.62029204279848 L 131.5276086956522,102.32029204279848 M 133.04347826086956,84.62029204279848 L 135.23673913043478,102.32029204279848 M 136.5217391304348,84.62029204279848 L 138.9458695652174,102.32029204279848 M 140,84.62029204279848 L 142.655,102.32029204279848" stroke="#979bc4" stroke-width="0.8" fill="none" opacity="0.7"/>
    <path d="M 50,66.92029204279848 Q 65,84.62029204279848 100,75.77029204279847 Q 135,84.62029204279848 150,66.92029204279848" fill="#3275b4" filter="url(#organic)"/>
  </g>
</svg>