<svg xmlns="http://www.w3.org/2000/svg" viewBox="0 0 200 200" width="200" height="200">
  <defs>
    <filter id="organic" x="-5%" y="-5%" width="110%" height="110%">
    <feTurbulence type="fractalNoise" baseFrequency="0.04" numOctaves="3" seed="1" result="noise"/>
    <feDisplacementMap in="SourceGraphic" in2="noise" scale="2" xChannelSelector="R" yChannelSelector="G"/>
  </filter>
  </defs>
  <g>
    <path d="M 92,87.08273159800555 Q 91,128.5413657990028 90.4,170 L 109.6,170 Q 109,128.5413657990028 108,87.08273159800555 Z" fill="#979bc4" filter="url(#organic)"/>
    <path d="M 60,87.08273159800555 L 56.4,111.08273159800555 M 63.47826086956522,87.08273159800555 L 60.19130434782609,111.08273159800555 M 66.95652173913044,87.08273159800555 L 63.982608695652175,111.08273159800555 M 70.43478260869566,87.08273159800555 L 67.77391304347826,111.08273159800555 M 73.91304347826087,87.08273159800555 L 71.56521739130436,111.08273159800555 M 77.3913043478261,87.08273159800555 L 75.35652173913044,111.08273159800555 M 80.86956521739131,87.08273159800555 L 79.14782608695653,111.08273159800555 M 84.34782608695653,87.08273159800555 L 82.93913043478261,111.08273159800555 M 87.82608695652173,87.08273159800555 L 86.7304347826087,111.08273159800555 M 91.30434782608695,87.08273159800555 L 90.52173913043478,111.08273159800555 M 94.78260869565219,87.08273159800555 L 94.31304347826088,111.08273159800555 M 98.2608695652174,87.08273159800555 L 98.10434782608696,111.08273159800555 M 101.73913043478261,87.08273159800555 L 101.89565217391305,111.08273159800555 M 105.21739130434783,87.08273159800555 L 105.68695652173913,111.08273159800555 M 108.69565217391306,87.08273159800555 L 109.47826086956523,111.08273159800555 M 112.17391304347827,87.08273159800555 L 113.2695652173913,111.08273159800555 M 115.65217391304347,87.08273159800555 L 117.06086956521739,111.08273159800555 M 119.13043478260869,87.08273159800555 L 120.85217391304347,111.08273159800555 M 122.6086956521739,87.08273159800555 L 124.64347826086956,111.08273159800555 M 126.08695652173913,87.08273159800555 L 128.43478260869566,111.08273159800555 M 129.56521739130437,87.08273159800555 L 132.22608695652175,111.08273159800555 M 133.04347826086956,87.08273159800555 L 136.01739130434783,111.08273159800555 M 136.5217391304348,87.08273159800555 L 139.80869565217395,111.08273159800555 M 140,87.08273159800555 L 143.6,111.08273159800555" stroke="#979bc4" stroke-width="0.8" fill="none" opacity="0.7"/>
    <path d="M 50,87.08273159800555 Q 50,63.08273159800555 85,51.08273159800555 L 100,27.08273159800555 L 115,51.08273159800555 Q 150,63.08273159800555 150,87.08273159800555" fill="#3275b4" filter="url(#organic)"/>
  </g>
</svg>