<svg xmlns="http://www.w3.org/2000/svg" viewBox="0 0 200 200" width="200" height="200">
  <defs>
    <filter id="organic" x="-5%" y="-5%" width="110%" height="110%">
    <feTurbulence type="fractalNoise" baseFrequency="0.04" numOctaves="3" seed="1" result="noise"/>
    <feDisplacementMap in="SourceGraphic" in2="noise" scale="2" xChannelSelector="R" yChannelSelector="G"/>
  </filter>
  </defs>
  <g>
    <path d="M 94.8,94.42337061312799 Q 93.8,132.211685306564 93.76,170 L 106.24,170 Q 106.2,132.211685306564 105.2,94.42337061312799 Z" fill="#979bc4" filter="url(#organic)"/>
    <ellipse cx="100" cy="117.09635942918959" rx="7.800000000000001" ry="2.3400000000000003" fill="none" stroke="currentColor" stroke-width="1.5" opacity="0.6"/>
    <path d="M 63.919999999999995,94.42337061312799 L 62.398999999999994,104.56337061312799 M 67.7178947368421,94.42337061312799 L 66.357,104.56337061312799 M 71.51578947368421,94.42337061312799 L 70.315,104.56337061312799 M 75.3136842105263,94.42337061312799 L 74.27299999999998,104.56337061312799 M 79.11157894736841,94.42337061312799 L 78.231,104.56337061312799 M 82.90947368421052,94.42337061312799 L 82.189,104.56337061312799 M 86.70736842105262,94.42337061312799 L 86.14699999999999,104.56337061312799 M 90.50526315789475,94.42337061312799 L 90.105,104.56337061312799 M 94.30315789473684,94.42337061312799 L 94.063,104.56337061312799 M 98.10105263157894,94.42337061312799 L 98.02099999999999,104.56337061312799 M 101.89894736842106,94.42337061312799 L 101.97900000000001,104.56337061312799 M 105.69684210526316,94.42337061312799 L 105.937,104.56337061312799 M 109.49473684210525,94.42337061312799 L 109.895,104.56337061312799 M 113.29263157894738,94.42337061312799 L 113.85300000000001,104.56337061312799 M 117.09052631578948,94.42337061312799 L 117.811,104.56337061312799 M 120.8884210526316,94.42337061312799 L 121.76900000000002,104.56337061312799 M 124.6863157894737,94.42337061312799 L 125.72700000000002,104.56337061312799 M 128.4842105263158,94.42337061312799 L 129.685,104.56337061312799 M 132.2821052631579,94.42337061312799 L 133.643,104.56337061312799 M 136.08,94.42337061312799 L 137.601,104.56337061312799" stroke="#979bc4" stroke-width="0.8" fill="none" opacity="0.7"/>
    <path d="M 54.89999999999999,94.42337061312799 Q 54.89999999999999,86.818370613128 100,84.283370613128 Q 145.10000000000002,86.818370613128 145.10000000000002,94.42337061312799" fill="#3275b4" filter="url(#organic)"/>
    <circle cx="77.4" cy="76.7" r="3" fill="white" opacity="0.85"/>
    <circle cx="113.5" cy="74.1" r="2.5" fill="white" opacity="0.85"/>
    <circle cx="95.5" cy="72.9" r="2" fill="white" opacity="0.85"/>
    <circle cx="127.1" cy="79.2" r="2" fill="white" opacity="0.85"/>
    <circle cx="72.9" cy="81.7" r="1.5" fill="white" opacity="0.85"/>
    <circle cx="104.5" cy="81.7" r="2.5" fill="white" opacity="0.85"/>
  </g>
</svg>