<svg xmlns="http://www.w3.org/2000/svg" viewBox="0 0 200 200" width="200" height="200">
  <defs>
    <filter id="organic" x="-5%" y="-5%" width="110%" height="110%">
    <feTurbulence type="fractalNoise" baseFrequency="0.04" numOctaves="3" seed="1" result="noise"/>
    <feDisplacementMap in="SourceGraphic" in2="noise" scale="2" xChannelSelector="R" yChannelSelector="G"/>
  </filter>
  </defs>
  <g>
    <path d="M 95.2,92.55591304685808 Q 94.2,131.27795652342905 94.24,170 L 105.76,170 Q 105.8,131.27795652342905 104.8,92.55591304685808 Z" fill="#979bc4" filter="url(#organic)"/>
    <path d="M 65.88,92.55591304685808 L 63.38699999999999,109.17591304685808 M 69.89411764705882,92.55591304685808 L 67.69441176470588,109.17591304685808 M 73.90823529411765,92.55591304685808 L 72.00182352941177,109.17591304685808 M 77.92235294117647,92.55591304685808 L 76.30923529411764,109.17591304685808 M 81.9364705882353,92.55591304685808 L 80.61664705882353,109.17591304685808 M 85.95058823529412,92.55591304685808 L 84.9240588235294,109.17591304685808 M 89.96470588235294,92.55591304685808 L 89.2314705882353,109.17591304685808 M 93.97882352941176,92.55591304685808 L 93.53888235294117,109.17591304685808 M 97.9929411764706,92.55591304685808 L 97.84629411764706,109.17591304685808 M 102.0070588235294,92.55591304685808 L 102.15370588235294,109.17591304685808 M 106.02117647058824,92.55591304685808 L 106.46111764705883,109.17591304685808 M 110.03529411764706,92.55591304685808 L 110.7685294117647,109.17591304685808 M 114.0494117647059,92.55591304685808 L 115.07594117647061,109.17591304685808 M 118.0635294117647,92.55591304685808 L 119.38335294117647,109.17591304685808 M 122.07764705882353,92.55591304685808 L 123.69076470588236,109.17591304685808 M 126.09176470588235,92.55591304685808 L 127.99817647058823,109.17591304685808 M 130.1058823529412,92.55591304685808 L 132.30558823529412,109.17591304685808 M 134.12,92.55591304685808 L 136.613,109.17591304685808" stroke="#979bc4" stroke-width="0.8" fill="none" opacity="0.7"/>
    <path d="M 57.349999999999994,92.55591304685808 Q 57.349999999999994,80.09091304685808 100,75.93591304685808 Q 142.65,80.09091304685808 142.65,92.55591304685808" fill="#3275b4" filter="url(#organic)"/>
  </g>
</svg>