<svg xmlns="http://www.w3.org/2000/svg" viewBox="0 0 200 200" width="200" height="200">
  <defs>
    <filter id="organic" x="-5%" y="-5%" width="110%" height="110%">
    <feTurbulence type="fractalNoise" baseFrequency="0.04" numOctaves="3" seed="1" result="noise"/>
    <feDisplacementMap in="SourceGraphic" in2="noise" scale="2" xChannelSelector="R" yChannelSelector="G"/>
  </filter>
  </defs>
  <g>
    <path d="M 92,86.30033241837054 Q 91,128.15016620918527 90.4,170 L 109.6,170 Q 109,128.15016620918527 108,86.30033241837054 Z" fill="#979bc4" filter="url(#organic)"/>
    <ellipse cx="100" cy="111.41023269285938" rx="12" ry="3.5999999999999996" fill="none" stroke="currentColor" stroke-width="1.5" opacity="0.6"/>
    <path d="M 60,86.30033241837054 L 57.75,101.30033241837054 M 63.47826086956522,86.30033241837054 L 61.423913043478265,101.30033241837054 M 66.95652173913044,86.30033241837054 L 65.09782608695653,101.30033241837054 M 70.43478260869566,86.30033241837054 L 68.77173913043478,101.30033241837054 M 73.91304347826087,86.30033241837054 L 72.44565217391305,101.30033241837054 M 77.3913043478261,86.30033241837054 L 76.11956521739131,101.30033241837054 M 80.86956521739131,86.30033241837054 L 79.79347826086958,101.30033241837054 M 84.34782608695653,86.30033241837054 L 83.46739130434783,101.30033241837054 M 87.82608695652173,86.30033241837054 L 87.14130434782608,101.30033241837054 M 91.30434782608695,86.30033241837054 L 90.81521739130434,101.30033241837054 M 94.78260869565219,86.30033241837054 L 94.48913043478262,101.30033241837054 M 98.2608695652174,86.30033241837054 L 98.16304347826089,101.30033241837054 M 101.73913043478261,86.30033241837054 L 101.83695652173913,101.30033241837054 M 105.21739130434783,86.30033241837054 L 105.51086956521739,101.30033241837054 M 108.69565217391306,86.30033241837054 L 109.18478260869567,101.30033241837054 M 112.17391304347827,86.30033241837054 L 112.85869565217392,101.30033241837054 M 115.65217391304347,86.30033241837054 L 116.53260869565217,101.30033241837054 M 119.13043478260869,86.30033241837054 L 120.20652173913042,101.30033241837054 M 122.6086956521739,86.30033241837054 L 123.88043478260869,101.30033241837054 M 126.08695652173913,86.30033241837054 L 127.55434782608695,101.30033241837054 M 129.56521739130437,86.30033241837054 L 131.22826086956525,101.30033241837054 M 133.04347826086956,86.30033241837054 L 134.90217391304347,101.30033241837054 M 136.5217391304348,86.30033241837054 L 138.57608695652178,101.30033241837054 M 140,86.30033241837054 L 142.25,101.30033241837054" stroke="#979bc4" stroke-width="0.8" fill="none" opacity="0.7"/>
    <path d="M 50,86.30033241837054 Q 50,75.05033241837054 100,71.30033241837054 Q 150,75.05033241837054 150,86.30033241837054" fill="#3275b4" filter="url(#organic)"/>
  </g>
</svg>