<svg xmlns="http://www.w3.org/2000/svg" viewBox="0 0 200 200" width="200" height="200">
  <defs>
    <filter id="organic" x="-5%" y="-5%" width="110%" height="110%">
    <feTurbulence type="fractalNoise" baseFrequency="0.04" numOctaves="3" seed="1" result="noise"/>
    <feDisplacementMap in="SourceGraphic" in2="noise" scale="2" xChannelSelector="R" yChannelSelector="G"/>
  </filter>
  </defs>
  <g>
    <path d="M 96.4,83.07964736515699 Q 95.4,126.53982368257849 95.68,170 L 104.32,170 Q 104.6,126.53982368257849 103.6,83.07964736515699 Z" fill="#979bc4" filter="url(#organic)"/>
    <ellipse cx="100" cy="109.15575315560989" rx="5.4" ry="1.62" fill="none" stroke="currentColor" stroke-width="1.5" opacity="0.6"/>
    <path d="M 71.75999999999999,83.07964736515699 L 68.16,107.07964736515699 M 76.89454545454545,83.07964736515699 L 73.9490909090909,107.07964736515699 M 82.0290909090909,83.07964736515699 L 79.7381818181818,107.07964736515699 M 87.16363636363636,83.07964736515699 L 85.52727272727272,107.07964736515699 M 92.29818181818182,83.07964736515699 L 91.31636363636363,107.07964736515699 M 97.43272727272726,83.07964736515699 L 97.10545454545453,107.07964736515699 M 102.56727272727272,83.07964736515699 L 102.89454545454545,107.07964736515699 M 107.70181818181817,83.07964736515699 L 108.68363636363635,107.07964736515699 M 112.83636363636364,83.07964736515699 L 114.47272727272728,107.07964736515699 M 117.97090909090909,83.07964736515699 L 120.26181818181819,107.07964736515699 M 123.10545454545453,83.07964736515699 L 126.05090909090907,107.07964736515699 M 128.24,83.07964736515699 L 131.84,107.07964736515699" stroke="#979bc4" stroke-width="0.8" fill="none" opacity="0.7"/>
    <path d="M 64.69999999999999,83.07964736515699 Q 64.69999999999999,59.07964736515699 89.41,47.07964736515699 L 100,23.079647365156987 L 110.59,47.07964736515699 Q 135.3,59.07964736515699 135.3,83.07964736515699" fill="#3275b4" filter="url(#organic)"/>
  </g>
</svg>