<svg xmlns="http://www.w3.org/2000/svg" viewBox="0 0 200 200" width="200" height="200">
  <defs>
    <filter id="organic" x="-5%" y="-5%" width="110%" height="110%">
    <feTurbulence type="fractalNoise" baseFrequency="0.04" numOctaves="3" seed="1" result="noise"/>
    <feDisplacementMap in="SourceGraphic" in2="noise" scale="2" xChannelSelector="R" yChannelSelector="G"/>
  </filter>
  </defs>
  <g>
    <path d="M 96,77.78480835143537 Q 95,123.89240417571769 95.2,170 L 104.8,170 Q 105,123.89240417571769 104,77.78480835143537 Z" fill="#979bc4" filter="url(#organic)"/>
    <ellipse cx="100" cy="105.44936584600475" rx="6" ry="1.7999999999999998" fill="none" stroke="currentColor" stroke-width="1.5" opacity="0.6"/>
    <path d="M 69.8,77.78480835143537 L 67.631,92.24480835143538 M 74.44615384615385,77.78480835143537 L 72.61084615384615,92.24480835143538 M 79.09230769230768,77.78480835143537 L 77.5906923076923,92.24480835143538 M 83.73846153846154,77.78480835143537 L 82.57053846153846,92.24480835143538 M 88.38461538461539,77.78480835143537 L 87.55038461538462,92.24480835143538 M 93.03076923076924,77.78480835143537 L 92.53023076923077,92.24480835143538 M 97.67692307692307,77.78480835143537 L 97.51007692307692,92.24480835143538 M 102.32307692307691,77.78480835143537 L 102.48992307692306,92.24480835143538 M 106.96923076923076,77.78480835143537 L 107.46976923076923,92.24480835143538 M 111.61538461538461,77.78480835143537 L 112.44961538461538,92.24480835143538 M 116.26153846153846,77.78480835143537 L 117.42946153846154,92.24480835143538 M 120.90769230769232,77.78480835143537 L 122.4093076923077,92.24480835143538 M 125.55384615384615,77.78480835143537 L 127.38915384615385,92.24480835143538 M 130.2,77.78480835143537 L 132.369,92.24480835143538" stroke="#979bc4" stroke-width="0.8" fill="none" opacity="0.7"/>
    <path d="M 62.25,77.78480835143537 Q 62.25,66.93980835143537 100,63.324808351435365 Q 137.75,66.93980835143537 137.75,77.78480835143537" fill="#3275b4" filter="url(#organic)"/>
  </g>
</svg>