<svg xmlns="http://www.w3.org/2000/svg" viewBox="0 0 200 200" width="200" height="200">
  <defs>
    <filter id="organic" x="-5%" y="-5%" width="110%" height="110%">
    <feTurbulence type="fractalNoise" baseFrequency="0.04" numOctaves="3" seed="1" result="noise"/>
    <feDisplacementMap in="SourceGraphic" in2="noise" scale="2" xChannelSelector="R" yChannelSelector="G"/>
  </filter>
  </defs>
  <g>
    <path d="M 92,74.48415547585032 Q 91,122.24207773792516 90.4,170 L 109.6,170 Q 109,122.24207773792516 108,74.48415547585032 Z" fill="#78a6bd" filter="url(#organic)"/>
    <ellipse cx="100" cy="103.13890883309521" rx="12" ry="3.5999999999999996" fill="none" stroke="currentColor" stroke-width="1.5" opacity="0.6"/>
    <path d="M 60,74.48415547585032 L 58.56,84.08415547585031 M 63.47826086956522,74.48415547585032 L 62.16347826086957,84.08415547585031 M 66.95652173913044,74.48415547585032 L 65.76695652173913,84.08415547585031 M 70.43478260869566,74.48415547585032 L 69.3704347826087,84.08415547585031 M 73.91304347826087,74.48415547585032 L 72.97391304347826,84.08415547585031 M 77.3913043478261,74.48415547585032 L 76.57739130434783,84.08415547585031 M 80.86956521739131,74.48415547585032 L 80.18086956521739,84.08415547585031 M 84.34782608695653,74.48415547585032 L 83.78434782608697,84.08415547585031 M 87.82608695652173,74.48415547585032 L 87.38782608695652,84.08415547585031 M 91.30434782608695,74.48415547585032 L 90.99130434782609,84.08415547585031 M 94.78260869565219,74.48415547585032 L 94.59478260869567,84.08415547585031 M 98.2608695652174,74.48415547585032 L 98.19826086956523,84.08415547585031 M 101.73913043478261,74.48415547585032 L 101.80173913043478,84.08415547585031 M 105.21739130434783,74.48415547585032 L 105.40521739130435,84.08415547585031 M 108.69565217391306,74.48415547585032 L 109.00869565217393,84.08415547585031 M 112.17391304347827,74.48415547585032 L 112.61217391304348,84.08415547585031 M 115.65217391304347,74.48415547585032 L 116.21565217391303,84.08415547585031 M 119.13043478260869,74.48415547585032 L 119.81913043478261,84.08415547585031 M 122.6086956521739,74.48415547585032 L 123.42260869565217,84.08415547585031 M 126.08695652173913,74.48415547585032 L 127.02608695652174,84.08415547585031 M 129.56521739130437,74.48415547585032 L 130.62956521739133,84.08415547585031 M 133.04347826086956,74.48415547585032 L 134.23304347826087,84.08415547585031 M 136.5217391304348,74.48415547585032 L 137.83652173913046,84.08415547585031 M 140,74.48415547585032 L 141.44,84.08415547585031" stroke="#78a6bd" stroke-width="0.8" fill="none" opacity="0.7"/>
    <path d="M 50,64.88415547585032 Q 65,74.48415547585032 100,69.68415547585032 Q 135,74.48415547585032 150,64.88415547585032" fill="#00858d" filter="url(#organic)"/>
  </g>
</svg>