<svg xmlns="http://www.w3.org/2000/svg" viewBox="0 0 200 200" width="200" height="200">
  <defs>
    <filter id="organic" x="-5%" y="-5%" width="110%" height="110%">
    <feTurbulence type="fractalNoise" baseFrequency="0.04" numOctaves="3" seed="1" result="noise"/>
    <feDisplacementMap in="SourceGraphic" in2="noise" scale="2" xChannelSelector="R" yChannelSelector="G"/>
  </filter>
  </defs>
  <g>
    <path d="M 92,92.55591304685808 Q 91,131.27795652342905 90.4,170 L 109.6,170 Q 109,131.27795652342905 108,92.55591304685808 Z" fill="#979bc4" filter="url(#organic)"/>
    <path d="M 60,92.55591304685808 L 57.912,106.47591304685808 M 63.47826086956522,92.55591304685808 L 61.57182608695652,106.47591304685808 M 66.95652173913044,92.55591304685808 L 65.23165217391305,106.47591304685808 M 70.43478260869566,92.55591304685808 L 68.89147826086958,106.47591304685808 M 73.91304347826087,92.55591304685808 L 72.55130434782609,106.47591304685808 M 77.3913043478261,92.55591304685808 L 76.21113043478262,106.47591304685808 M 80.86956521739131,92.55591304685808 L 79.87095652173913,106.47591304685808 M 84.34782608695653,92.55591304685808 L 83.53078260869566,106.47591304685808 M 87.82608695652173,92.55591304685808 L 87.19060869565217,106.47591304685808 M 91.30434782608695,92.55591304685808 L 90.85043478260869,106.47591304685808 M 94.78260869565219,92.55591304685808 L 94.51026086956523,106.47591304685808 M 98.2608695652174,92.55591304685808 L 98.17008695652176,106.47591304685808 M 101.73913043478261,92.55591304685808 L 101.82991304347826,106.47591304685808 M 105.21739130434783,92.55591304685808 L 105.48973913043478,106.47591304685808 M 108.69565217391306,92.55591304685808 L 109.14956521739133,106.47591304685808 M 112.17391304347827,92.55591304685808 L 112.80939130434783,106.47591304685808 M 115.65217391304347,92.55591304685808 L 116.46921739130434,106.47591304685808 M 119.13043478260869,92.55591304685808 L 120.12904347826087,106.47591304685808 M 122.6086956521739,92.55591304685808 L 123.78886956521738,106.47591304685808 M 126.08695652173913,92.55591304685808 L 127.44869565217391,106.47591304685808 M 129.56521739130437,92.55591304685808 L 131.10852173913045,106.47591304685808 M 133.04347826086956,92.55591304685808 L 134.76834782608697,106.47591304685808 M 136.5217391304348,92.55591304685808 L 138.4281739130435,106.47591304685808 M 140,92.55591304685808 L 142.088,106.47591304685808" stroke="#979bc4" stroke-width="0.8" fill="none" opacity="0.7"/>
    <path d="M 50,92.55591304685808 Q 50,82.11591304685808 100,78.63591304685808 Q 150,82.11591304685808 150,92.55591304685808" fill="#3275b4" filter="url(#organic)"/>
  </g>
</svg>