<svg xmlns="http://www.w3.org/2000/svg" viewBox="0 0 200 200" width="200" height="200">
  <defs>
    <filter id="organic" x="-5%" y="-5%" width="110%" height="110%">
    <feTurbulence type="fractalNoise" baseFrequency="0.04" numOctaves="3" seed="1" result="noise"/>
    <feDisplacementMap in="SourceGraphic" in2="noise" scale="2" xChannelSelector="R" yChannelSelector="G"/>
  </filter>
  </defs>
  <g>
    <path d="M 93.6,80.50975207261865 Q 92.6,125.25487603630933 92.32000000000001,170 L 107.67999999999999,170 Q 107.4,125.25487603630933 106.4,80.50975207261865 Z" fill="#979bc4" filter="url(#organic)"/>
    <path d="M 60,80.50975207261865 L 56.454,104.14975207261865 M 63.47826086956522,80.50975207261865 L 60.24060869565218,104.14975207261865 M 66.95652173913044,80.50975207261865 L 64.02721739130435,104.14975207261865 M 70.43478260869566,80.50975207261865 L 67.81382608695652,104.14975207261865 M 73.91304347826087,80.50975207261865 L 71.6004347826087,104.14975207261865 M 77.3913043478261,80.50975207261865 L 75.38704347826088,104.14975207261865 M 80.86956521739131,80.50975207261865 L 79.17365217391306,104.14975207261865 M 84.34782608695653,80.50975207261865 L 82.96026086956523,104.14975207261865 M 87.82608695652173,80.50975207261865 L 86.74686956521738,104.14975207261865 M 91.30434782608695,80.50975207261865 L 90.53347826086956,104.14975207261865 M 94.78260869565219,80.50975207261865 L 94.32008695652175,104.14975207261865 M 98.2608695652174,80.50975207261865 L 98.10669565217393,104.14975207261865 M 101.73913043478261,80.50975207261865 L 101.89330434782609,104.14975207261865 M 105.21739130434783,80.50975207261865 L 105.67991304347827,104.14975207261865 M 108.69565217391306,80.50975207261865 L 109.46652173913046,104.14975207261865 M 112.17391304347827,80.50975207261865 L 113.25313043478262,104.14975207261865 M 115.65217391304347,80.50975207261865 L 117.03973913043477,104.14975207261865 M 119.13043478260869,80.50975207261865 L 120.82634782608694,104.14975207261865 M 122.6086956521739,80.50975207261865 L 124.61295652173912,104.14975207261865 M 126.08695652173913,80.50975207261865 L 128.3995652173913,104.14975207261865 M 129.56521739130437,80.50975207261865 L 132.1861739130435,104.14975207261865 M 133.04347826086956,80.50975207261865 L 135.97278260869564,104.14975207261865 M 136.5217391304348,80.50975207261865 L 139.75939130434784,104.14975207261865 M 140,80.50975207261865 L 143.546,104.14975207261865" stroke="#979bc4" stroke-width="0.8" fill="none" opacity="0.7"/>
    <path d="M 50,80.50975207261865 Q 50,56.86975207261865 85,45.04975207261865 L 100,21.40975207261865 L 115,45.04975207261865 Q 150,56.86975207261865 150,80.50975207261865" fill="#3275b4" filter="url(#organic)"/>
  </g>
</svg>