<svg xmlns="http://www.w3.org/2000/svg" viewBox="0 0 200 200" width="200" height="200">
  <defs>
    <filter id="organic" x="-5%" y="-5%" width="110%" height="110%">
    <feTurbulence type="fractalNoise" baseFrequency="0.04" numOctaves="3" seed="1" result="noise"/>
    <feDisplacementMap in="SourceGraphic" in2="noise" scale="2" xChannelSelector="R" yChannelSelector="G"/>
  </filter>
  </defs>
  <g>
    <path d="M 96.8,107.10136759231263 Q 95.8,138.5506837961563 96.16,170 L 103.84,170 Q 104.2,138.5506837961563 103.2,107.10136759231263 Z" fill="#979bc4" filter="url(#organic)"/>
    <ellipse cx="100" cy="125.97095731461884" rx="4.800000000000001" ry="1.4400000000000002" fill="none" stroke="currentColor" stroke-width="1.5" opacity="0.6"/>
    <path d="M 73.72,107.10136759231263 L 72.118,117.78136759231263 M 79.56,107.10136759231263 L 78.31400000000001,117.78136759231263 M 85.4,107.10136759231263 L 84.51,117.78136759231263 M 91.24,107.10136759231263 L 90.70599999999999,117.78136759231263 M 97.08,107.10136759231263 L 96.902,117.78136759231263 M 102.92,107.10136759231263 L 103.098,117.78136759231263 M 108.75999999999999,107.10136759231263 L 109.294,117.78136759231263 M 114.6,107.10136759231263 L 115.49,117.78136759231263 M 120.44,107.10136759231263 L 121.68599999999999,117.78136759231263 M 126.28,107.10136759231263 L 127.882,117.78136759231263" stroke="#979bc4" stroke-width="0.8" fill="none" opacity="0.7"/>
    <path d="M 67.15,107.10136759231263 Q 73.72,88.41136759231263 100,80.40136759231262 Q 126.28,88.41136759231263 132.85,107.10136759231263" fill="#3275b4" filter="url(#organic)"/>
  </g>
</svg>