<svg xmlns="http://www.w3.org/2000/svg" viewBox="0 0 200 200" width="200" height="200">
  <defs>
    <filter id="organic" x="-5%" y="-5%" width="110%" height="110%">
    <feTurbulence type="fractalNoise" baseFrequency="0.04" numOctaves="3" seed="1" result="noise"/>
    <feDisplacementMap in="SourceGraphic" in2="noise" scale="2" xChannelSelector="R" yChannelSelector="G"/>
  </filter>
  </defs>
  <g>
    <path d="M 96.4,98.34239669408583 Q 95.4,134.17119834704292 95.68,170 L 104.32,170 Q 104.6,134.17119834704292 103.6,98.34239669408583 Z" fill="#979bc4" filter="url(#organic)"/>
    <ellipse cx="100" cy="119.83967768586008" rx="5.4" ry="1.62" fill="none" stroke="currentColor" stroke-width="1.5" opacity="0.6"/>
    <path d="M 71.75999999999999,98.34239669408583 L 70.23899999999999,108.48239669408584 M 76.89454545454545,98.34239669408583 L 75.6500909090909,108.48239669408584 M 82.0290909090909,98.34239669408583 L 81.06118181818181,108.48239669408584 M 87.16363636363636,98.34239669408583 L 86.47227272727272,108.48239669408584 M 92.29818181818182,98.34239669408583 L 91.88336363636364,108.48239669408584 M 97.43272727272726,98.34239669408583 L 97.29445454545454,108.48239669408584 M 102.56727272727272,98.34239669408583 L 102.70554545454544,108.48239669408584 M 107.70181818181817,98.34239669408583 L 108.11663636363635,108.48239669408584 M 112.83636363636364,98.34239669408583 L 113.52772727272728,108.48239669408584 M 117.97090909090909,98.34239669408583 L 118.93881818181818,108.48239669408584 M 123.10545454545453,98.34239669408583 L 124.34990909090908,108.48239669408584 M 128.24,98.34239669408583 L 129.761,108.48239669408584" stroke="#979bc4" stroke-width="0.8" fill="none" opacity="0.7"/>
    <path d="M 64.69999999999999,98.34239669408583 Q 64.69999999999999,72.99239669408584 100,72.99239669408584 Q 135.3,72.99239669408584 135.3,98.34239669408583" fill="#3275b4" filter="url(#organic)"/>
    <circle cx="82.3" cy="80.6" r="3" fill="white" opacity="0.85"/>
    <circle cx="110.6" cy="78.1" r="2.5" fill="white" opacity="0.85"/>
    <circle cx="96.5" cy="76.8" r="2" fill="white" opacity="0.85"/>
    <circle cx="121.2" cy="83.1" r="2" fill="white" opacity="0.85"/>
    <circle cx="78.8" cy="85.7" r="1.5" fill="white" opacity="0.85"/>
    <circle cx="103.5" cy="85.7" r="2.5" fill="white" opacity="0.85"/>
  </g>
</svg>