<svg xmlns="http://www.w3.org/2000/svg" viewBox="0 0 200 200" width="200" height="200">
  <defs>
    <filter id="organic" x="-5%" y="-5%" width="110%" height="110%">
    <feTurbulence type="fractalNoise" baseFrequency="0.04" numOctaves="3" seed="1" result="noise"/>
    <feDisplacementMap in="SourceGraphic" in2="noise" scale="2" xChannelSelector="R" yChannelSelector="G"/>
  </filter>
  </defs>
  <g>
    <path d="M 95.6,101.03598542095939 Q 94.6,135.5179927104797 94.72,170 L 105.28,170 Q 105.4,135.5179927104797 104.4,101.03598542095939 Z" fill="#979bc4" filter="url(#organic)"/>
    <ellipse cx="100" cy="121.72518979467158" rx="6.6000000000000005" ry="1.98" fill="none" stroke="currentColor" stroke-width="1.5" opacity="0.6"/>
    <path d="M 67.84,101.03598542095939 L 66.238,111.7159854209594 M 72.128,101.03598542095939 L 70.7396,111.7159854209594 M 76.416,101.03598542095939 L 75.24119999999999,111.7159854209594 M 80.70400000000001,101.03598542095939 L 79.7428,111.7159854209594 M 84.992,101.03598542095939 L 84.2444,111.7159854209594 M 89.28,101.03598542095939 L 88.746,111.7159854209594 M 93.56800000000001,101.03598542095939 L 93.2476,111.7159854209594 M 97.85600000000001,101.03598542095939 L 97.7492,111.7159854209594 M 102.144,101.03598542095939 L 102.25080000000001,111.7159854209594 M 106.43200000000002,101.03598542095939 L 106.75240000000002,111.7159854209594 M 110.72,101.03598542095939 L 111.254,111.7159854209594 M 115.00800000000001,101.03598542095939 L 115.75560000000002,111.7159854209594 M 119.29600000000002,101.03598542095939 L 120.25720000000003,111.7159854209594 M 123.584,101.03598542095939 L 124.75880000000001,111.7159854209594 M 127.87200000000001,101.03598542095939 L 129.2604,111.7159854209594 M 132.16000000000003,101.03598542095939 L 133.76200000000003,111.7159854209594" stroke="#979bc4" stroke-width="0.8" fill="none" opacity="0.7"/>
    <path d="M 59.8,101.03598542095939 Q 67.84,82.3459854209594 100,74.33598542095939 Q 132.16,82.3459854209594 140.2,101.03598542095939" fill="#3275b4" filter="url(#organic)"/>
  </g>
</svg>