<svg xmlns="http://www.w3.org/2000/svg" viewBox="0 0 200 200" width="200" height="200">
  <defs>
    <filter id="organic" x="-5%" y="-5%" width="110%" height="110%">
    <feTurbulence type="fractalNoise" baseFrequency="0.04" numOctaves="3" seed="1" result="noise"/>
    <feDisplacementMap in="SourceGraphic" in2="noise" scale="2" xChannelSelector="R" yChannelSelector="G"/>
  </filter>
  </defs>
  <g>
    <path d="M 92,71.02679434716904 Q 91,120.51339717358452 90.4,170 L 109.6,170 Q 109,120.51339717358452 108,71.02679434716904 Z" fill="#78a6bd" filter="url(#organic)"/>
    <ellipse cx="100" cy="100.71875604301833" rx="12" ry="3.5999999999999996" fill="none" stroke="currentColor" stroke-width="1.5" opacity="0.6"/>
    <path d="M 60,71.02679434716904 L 58.56,80.62679434716904 M 63.47826086956522,71.02679434716904 L 62.16347826086957,80.62679434716904 M 66.95652173913044,71.02679434716904 L 65.76695652173913,80.62679434716904 M 70.43478260869566,71.02679434716904 L 69.3704347826087,80.62679434716904 M 73.91304347826087,71.02679434716904 L 72.97391304347826,80.62679434716904 M 77.3913043478261,71.02679434716904 L 76.57739130434783,80.62679434716904 M 80.86956521739131,71.02679434716904 L 80.18086956521739,80.62679434716904 M 84.34782608695653,71.02679434716904 L 83.78434782608697,80.62679434716904 M 87.82608695652173,71.02679434716904 L 87.38782608695652,80.62679434716904 M 91.30434782608695,71.02679434716904 L 90.99130434782609,80.62679434716904 M 94.78260869565219,71.02679434716904 L 94.59478260869567,80.62679434716904 M 98.2608695652174,71.02679434716904 L 98.19826086956523,80.62679434716904 M 101.73913043478261,71.02679434716904 L 101.80173913043478,80.62679434716904 M 105.21739130434783,71.02679434716904 L 105.40521739130435,80.62679434716904 M 108.69565217391306,71.02679434716904 L 109.00869565217393,80.62679434716904 M 112.17391304347827,71.02679434716904 L 112.61217391304348,80.62679434716904 M 115.65217391304347,71.02679434716904 L 116.21565217391303,80.62679434716904 M 119.13043478260869,71.02679434716904 L 119.81913043478261,80.62679434716904 M 122.6086956521739,71.02679434716904 L 123.42260869565217,80.62679434716904 M 126.08695652173913,71.02679434716904 L 127.02608695652174,80.62679434716904 M 129.56521739130437,71.02679434716904 L 130.62956521739133,80.62679434716904 M 133.04347826086956,71.02679434716904 L 134.23304347826087,80.62679434716904 M 136.5217391304348,71.02679434716904 L 137.83652173913046,80.62679434716904 M 140,71.02679434716904 L 141.44,80.62679434716904" stroke="#78a6bd" stroke-width="0.8" fill="none" opacity="0.7"/>
    <path d="M 50,61.42679434716904 Q 65,71.02679434716904 100,66.22679434716905 Q 135,71.02679434716904 150,61.42679434716904" fill="#00858d" filter="url(#organic)"/>
  </g>
</svg>