<svg xmlns="http://www.w3.org/2000/svg" viewBox="0 0 200 200" width="200" height="200">
  <defs>
    <filter id="organic" x="-5%" y="-5%" width="110%" height="110%">
    <feTurbulence type="fractalNoise" baseFrequency="0.04" numOctaves="3" seed="1" result="noise"/>
    <feDisplacementMap in="SourceGraphic" in2="noise" scale="2" xChannelSelector="R" yChannelSelector="G"/>
  </filter>
  </defs>
  <g>
    <path d="M 92,89.94441418645934 Q 91,129.97220709322966 90.4,170 L 109.6,170 Q 109,129.97220709322966 108,89.94441418645934 Z" fill="#a496bf" filter="url(#organic)"/>
    <ellipse cx="100" cy="113.96108993052154" rx="12" ry="3.5999999999999996" fill="none" stroke="currentColor" stroke-width="1.5" opacity="0.6"/>
    <path d="M 60,89.94441418645934 L 58.56,99.54441418645933 M 63.47826086956522,89.94441418645934 L 62.16347826086957,99.54441418645933 M 66.95652173913044,89.94441418645934 L 65.76695652173913,99.54441418645933 M 70.43478260869566,89.94441418645934 L 69.3704347826087,99.54441418645933 M 73.91304347826087,89.94441418645934 L 72.97391304347826,99.54441418645933 M 77.3913043478261,89.94441418645934 L 76.57739130434783,99.54441418645933 M 80.86956521739131,89.94441418645934 L 80.18086956521739,99.54441418645933 M 84.34782608695653,89.94441418645934 L 83.78434782608697,99.54441418645933 M 87.82608695652173,89.94441418645934 L 87.38782608695652,99.54441418645933 M 91.30434782608695,89.94441418645934 L 90.99130434782609,99.54441418645933 M 94.78260869565219,89.94441418645934 L 94.59478260869567,99.54441418645933 M 98.2608695652174,89.94441418645934 L 98.19826086956523,99.54441418645933 M 101.73913043478261,89.94441418645934 L 101.80173913043478,99.54441418645933 M 105.21739130434783,89.94441418645934 L 105.40521739130435,99.54441418645933 M 108.69565217391306,89.94441418645934 L 109.00869565217393,99.54441418645933 M 112.17391304347827,89.94441418645934 L 112.61217391304348,99.54441418645933 M 115.65217391304347,89.94441418645934 L 116.21565217391303,99.54441418645933 M 119.13043478260869,89.94441418645934 L 119.81913043478261,99.54441418645933 M 122.6086956521739,89.94441418645934 L 123.42260869565217,99.54441418645933 M 126.08695652173913,89.94441418645934 L 127.02608695652174,99.54441418645933 M 129.56521739130437,89.94441418645934 L 130.62956521739133,99.54441418645933 M 133.04347826086956,89.94441418645934 L 134.23304347826087,99.54441418645933 M 136.5217391304348,89.94441418645934 L 137.83652173913046,99.54441418645933 M 140,89.94441418645934 L 141.44,99.54441418645933" stroke="#a496bf" stroke-width="0.8" fill="none" opacity="0.7"/>
    <path d="M 50,89.94441418645934 Q 50,82.74441418645934 100,80.34441418645935 Q 150,82.74441418645934 150,89.94441418645934" fill="#576cb7" filter="url(#organic)"/>
  </g>
</svg>