<svg xmlns="http://www.w3.org/2000/svg" viewBox="0 0 200 200" width="200" height="200">
  <defs>
    <filter id="organic" x="-5%" y="-5%" width="110%" height="110%">
    <feTurbulence type="fractalNoise" baseFrequency="0.04" numOctaves="3" seed="1" result="noise"/>
    <feDisplacementMap in="SourceGraphic" in2="noise" scale="2" xChannelSelector="R" yChannelSelector="G"/>
  </filter>
  </defs>
  <g>
    <path d="M 96.8,81.41612774180953 Q 95.8,125.70806387090477 96.16,170 L 103.84,170 Q 104.2,125.70806387090477 103.2,81.41612774180953 Z" fill="#979bc4" filter="url(#organic)"/>
    <ellipse cx="100" cy="107.99128941926668" rx="4.800000000000001" ry="1.4400000000000002" fill="none" stroke="currentColor" stroke-width="1.5" opacity="0.6"/>
    <path d="M 73.72,81.41612774180953 L 70.498,102.89612774180954 M 79.56,81.41612774180953 L 77.054,102.89612774180954 M 85.4,81.41612774180953 L 83.61,102.89612774180954 M 91.24,81.41612774180953 L 90.166,102.89612774180954 M 97.08,81.41612774180953 L 96.722,102.89612774180954 M 102.92,81.41612774180953 L 103.278,102.89612774180954 M 108.75999999999999,81.41612774180953 L 109.83399999999999,102.89612774180954 M 114.6,81.41612774180953 L 116.39,102.89612774180954 M 120.44,81.41612774180953 L 122.946,102.89612774180954 M 126.28,81.41612774180953 L 129.502,102.89612774180954" stroke="#979bc4" stroke-width="0.8" fill="none" opacity="0.7"/>
    <path d="M 67.15,81.41612774180953 Q 67.15,59.936127741809536 90.145,49.19612774180953 L 100,27.716127741809537 L 109.855,49.19612774180953 Q 132.85,59.936127741809536 132.85,81.41612774180953" fill="#3275b4" filter="url(#organic)"/>
  </g>
</svg>