<svg xmlns="http://www.w3.org/2000/svg" viewBox="0 0 200 200" width="200" height="200">
  <defs>
    <filter id="organic" x="-5%" y="-5%" width="110%" height="110%">
    <feTurbulence type="fractalNoise" baseFrequency="0.04" numOctaves="3" seed="1" result="noise"/>
    <feDisplacementMap in="SourceGraphic" in2="noise" scale="2" xChannelSelector="R" yChannelSelector="G"/>
  </filter>
  </defs>
  <g>
    <path d="M 96.8,85.22631665079047 Q 95.8,127.61315832539523 96.16,170 L 103.84,170 Q 104.2,127.61315832539523 103.2,85.22631665079047 Z" fill="#979bc4" filter="url(#organic)"/>
    <ellipse cx="100" cy="110.65842165555333" rx="4.800000000000001" ry="1.4400000000000002" fill="none" stroke="currentColor" stroke-width="1.5" opacity="0.6"/>
    <path d="M 73.72,85.22631665079047 L 71.227,101.84631665079047 M 79.56,85.22631665079047 L 77.62100000000001,101.84631665079047 M 85.4,85.22631665079047 L 84.015,101.84631665079047 M 91.24,85.22631665079047 L 90.40899999999999,101.84631665079047 M 97.08,85.22631665079047 L 96.803,101.84631665079047 M 102.92,85.22631665079047 L 103.197,101.84631665079047 M 108.75999999999999,85.22631665079047 L 109.591,101.84631665079047 M 114.6,85.22631665079047 L 115.985,101.84631665079047 M 120.44,85.22631665079047 L 122.37899999999999,101.84631665079047 M 126.28,85.22631665079047 L 128.773,101.84631665079047" stroke="#979bc4" stroke-width="0.8" fill="none" opacity="0.7"/>
    <path d="M 67.15,85.22631665079047 Q 73.72,56.141316650790465 100,43.67631665079046 Q 126.28,56.141316650790465 132.85,85.22631665079047" fill="#3275b4" filter="url(#organic)"/>
  </g>
</svg>