<svg xmlns="http://www.w3.org/2000/svg" viewBox="0 0 200 200" width="200" height="200">
  <defs>
    <filter id="organic" x="-5%" y="-5%" width="110%" height="110%">
    <feTurbulence type="fractalNoise" baseFrequency="0.04" numOctaves="3" seed="1" result="noise"/>
    <feDisplacementMap in="SourceGraphic" in2="noise" scale="2" xChannelSelector="R" yChannelSelector="G"/>
  </filter>
  </defs>
  <g>
    <path d="M 96.8,83.125971182435 Q 95.8,126.5629855912175 96.16,170 L 103.84,170 Q 104.2,126.5629855912175 103.2,83.125971182435 Z" fill="#979bc4" filter="url(#organic)"/>
    <path d="M 73.72,83.125971182435 L 71.875,95.42597118243499 M 79.56,83.125971182435 L 78.125,95.42597118243499 M 85.4,83.125971182435 L 84.375,95.42597118243499 M 91.24,83.125971182435 L 90.625,95.42597118243499 M 97.08,83.125971182435 L 96.875,95.42597118243499 M 102.92,83.125971182435 L 103.125,95.42597118243499 M 108.75999999999999,83.125971182435 L 109.37499999999999,95.42597118243499 M 114.6,83.125971182435 L 115.625,95.42597118243499 M 120.44,83.125971182435 L 121.875,95.42597118243499 M 126.28,83.125971182435 L 128.125,95.42597118243499" stroke="#979bc4" stroke-width="0.8" fill="none" opacity="0.7"/>
    <path d="M 67.15,83.125971182435 Q 67.15,73.900971182435 100,70.825971182435 Q 132.85,73.900971182435 132.85,83.125971182435" fill="#3275b4" filter="url(#organic)"/>
  </g>
</svg>