<svg xmlns="http://www.w3.org/2000/svg" viewBox="0 0 200 200" width="200" height="200">
  <defs>
    <filter id="organic" x="-5%" y="-5%" width="110%" height="110%">
    <feTurbulence type="fractalNoise" baseFrequency="0.04" numOctaves="3" seed="1" result="noise"/>
    <feDisplacementMap in="SourceGraphic" in2="noise" scale="2" xChannelSelector="R" yChannelSelector="G"/>
  </filter>
  </defs>
  <g>
    <path d="M 96.4,90.97114918980984 Q 95.4,130.4855745949049 95.68,170 L 104.32,170 Q 104.6,130.4855745949049 103.6,90.97114918980984 Z" fill="#979bc4" filter="url(#organic)"/>
    <ellipse cx="100" cy="114.67980443286689" rx="5.4" ry="1.62" fill="none" stroke="currentColor" stroke-width="1.5" opacity="0.6"/>
    <path d="M 71.75999999999999,90.97114918980984 L 70.15799999999999,101.65114918980984 M 76.89454545454545,90.97114918980984 L 75.58381818181817,101.65114918980984 M 82.0290909090909,90.97114918980984 L 81.00963636363635,101.65114918980984 M 87.16363636363636,90.97114918980984 L 86.43545454545453,101.65114918980984 M 92.29818181818182,90.97114918980984 L 91.86127272727272,101.65114918980984 M 97.43272727272726,90.97114918980984 L 97.28709090909089,101.65114918980984 M 102.56727272727272,90.97114918980984 L 102.7129090909091,101.65114918980984 M 107.70181818181817,90.97114918980984 L 108.13872727272727,101.65114918980984 M 112.83636363636364,90.97114918980984 L 113.56454545454547,101.65114918980984 M 117.97090909090909,90.97114918980984 L 118.99036363636364,101.65114918980984 M 123.10545454545453,90.97114918980984 L 124.41618181818181,101.65114918980984 M 128.24,90.97114918980984 L 129.842,101.65114918980984" stroke="#979bc4" stroke-width="0.8" fill="none" opacity="0.7"/>
    <path d="M 64.69999999999999,90.97114918980984 Q 64.69999999999999,82.96114918980983 100,80.29114918980983 Q 135.3,82.96114918980983 135.3,90.97114918980984" fill="#3275b4" filter="url(#organic)"/>
    <circle cx="82.3" cy="72.3" r="3" fill="white" opacity="0.85"/>
    <circle cx="110.6" cy="69.6" r="2.5" fill="white" opacity="0.85"/>
    <circle cx="96.5" cy="68.3" r="2" fill="white" opacity="0.85"/>
    <circle cx="121.2" cy="75.0" r="2" fill="white" opacity="0.85"/>
    <circle cx="78.8" cy="77.6" r="1.5" fill="white" opacity="0.85"/>
    <circle cx="103.5" cy="77.6" r="2.5" fill="white" opacity="0.85"/>
  </g>
</svg>