<svg xmlns="http://www.w3.org/2000/svg" viewBox="0 0 200 200" width="200" height="200">
  <defs>
    <filter id="organic" x="-5%" y="-5%" width="110%" height="110%">
    <feTurbulence type="fractalNoise" baseFrequency="0.04" numOctaves="3" seed="1" result="noise"/>
    <feDisplacementMap in="SourceGraphic" in2="noise" scale="2" xChannelSelector="R" yChannelSelector="G"/>
  </filter>
  </defs>
  <g>
    <path d="M 95.6,97.39650185361766 Q 94.6,133.69825092680884 94.72,170 L 105.28,170 Q 105.4,133.69825092680884 104.4,97.39650185361766 Z" fill="#979bc4" filter="url(#organic)"/>
    <ellipse cx="100" cy="119.17755129753236" rx="6.6000000000000005" ry="1.98" fill="none" stroke="currentColor" stroke-width="1.5" opacity="0.6"/>
    <path d="M 67.84,97.39650185361766 L 66.238,108.07650185361767 M 72.128,97.39650185361766 L 70.7396,108.07650185361767 M 76.416,97.39650185361766 L 75.24119999999999,108.07650185361767 M 80.70400000000001,97.39650185361766 L 79.7428,108.07650185361767 M 84.992,97.39650185361766 L 84.2444,108.07650185361767 M 89.28,97.39650185361766 L 88.746,108.07650185361767 M 93.56800000000001,97.39650185361766 L 93.2476,108.07650185361767 M 97.85600000000001,97.39650185361766 L 97.7492,108.07650185361767 M 102.144,97.39650185361766 L 102.25080000000001,108.07650185361767 M 106.43200000000002,97.39650185361766 L 106.75240000000002,108.07650185361767 M 110.72,97.39650185361766 L 111.254,108.07650185361767 M 115.00800000000001,97.39650185361766 L 115.75560000000002,108.07650185361767 M 119.29600000000002,97.39650185361766 L 120.25720000000003,108.07650185361767 M 123.584,97.39650185361766 L 124.75880000000001,108.07650185361767 M 127.87200000000001,97.39650185361766 L 129.2604,108.07650185361767 M 132.16000000000003,97.39650185361766 L 133.76200000000003,108.07650185361767" stroke="#979bc4" stroke-width="0.8" fill="none" opacity="0.7"/>
    <path d="M 59.8,97.39650185361766 Q 59.8,89.38650185361766 100,86.71650185361766 Q 140.2,89.38650185361766 140.2,97.39650185361766" fill="#3275b4" filter="url(#organic)"/>
    <circle cx="79.9" cy="78.7" r="3" fill="white" opacity="0.85"/>
    <circle cx="112.1" cy="76.0" r="2.5" fill="white" opacity="0.85"/>
    <circle cx="96.0" cy="74.7" r="2" fill="white" opacity="0.85"/>
    <circle cx="124.1" cy="81.4" r="2" fill="white" opacity="0.85"/>
    <circle cx="75.9" cy="84.0" r="1.5" fill="white" opacity="0.85"/>
    <circle cx="104.0" cy="84.0" r="2.5" fill="white" opacity="0.85"/>
  </g>
</svg>