<svg xmlns="http://www.w3.org/2000/svg" viewBox="0 0 200 200" width="200" height="200">
  <defs>
    <filter id="organic" x="-5%" y="-5%" width="110%" height="110%">
    <feTurbulence type="fractalNoise" baseFrequency="0.04" numOctaves="3" seed="1" result="noise"/>
    <feDisplacementMap in="SourceGraphic" in2="noise" scale="2" xChannelSelector="R" yChannelSelector="G"/>
  </filter>
  </defs>
  <g>
    <path d="M 92,98.54225659533752 Q 91,134.27112829766875 90.4,170 L 109.6,170 Q 109,134.27112829766875 108,98.54225659533752 Z" fill="#979bc4" filter="url(#organic)"/>
    <path d="M 60,98.54225659533752 L 58.398,109.22225659533753 M 63.47826086956522,98.54225659533752 L 62.015565217391305,109.22225659533753 M 66.95652173913044,98.54225659533752 L 65.63313043478261,109.22225659533753 M 70.43478260869566,98.54225659533752 L 69.25069565217392,109.22225659533753 M 73.91304347826087,98.54225659533752 L 72.86826086956522,109.22225659533753 M 77.3913043478261,98.54225659533752 L 76.48582608695652,109.22225659533753 M 80.86956521739131,98.54225659533752 L 80.10339130434784,109.22225659533753 M 84.34782608695653,98.54225659533752 L 83.72095652173914,109.22225659533753 M 87.82608695652173,98.54225659533752 L 87.33852173913043,109.22225659533753 M 91.30434782608695,98.54225659533752 L 90.95608695652173,109.22225659533753 M 94.78260869565219,98.54225659533752 L 94.57365217391306,109.22225659533753 M 98.2608695652174,98.54225659533752 L 98.19121739130436,109.22225659533753 M 101.73913043478261,98.54225659533752 L 101.80878260869565,109.22225659533753 M 105.21739130434783,98.54225659533752 L 105.42634782608695,109.22225659533753 M 108.69565217391306,98.54225659533752 L 109.04391304347828,109.22225659533753 M 112.17391304347827,98.54225659533752 L 112.66147826086957,109.22225659533753 M 115.65217391304347,98.54225659533752 L 116.27904347826086,109.22225659533753 M 119.13043478260869,98.54225659533752 L 119.89660869565216,109.22225659533753 M 122.6086956521739,98.54225659533752 L 123.51417391304348,109.22225659533753 M 126.08695652173913,98.54225659533752 L 127.13173913043478,109.22225659533753 M 129.56521739130437,98.54225659533752 L 130.74930434782613,109.22225659533753 M 133.04347826086956,98.54225659533752 L 134.3668695652174,109.22225659533753 M 136.5217391304348,98.54225659533752 L 137.98443478260873,109.22225659533753 M 140,98.54225659533752 L 141.602,109.22225659533753" stroke="#979bc4" stroke-width="0.8" fill="none" opacity="0.7"/>
    <path d="M 50,98.54225659533752 Q 50,90.53225659533751 100,87.86225659533751 Q 150,90.53225659533751 150,98.54225659533752" fill="#3275b4" filter="url(#organic)"/>
  </g>
</svg>