<svg xmlns="http://www.w3.org/2000/svg" viewBox="0 0 200 200" width="200" height="200">
  <defs>
    <filter id="organic" x="-5%" y="-5%" width="110%" height="110%">
    <feTurbulence type="fractalNoise" baseFrequency="0.04" numOctaves="3" seed="1" result="noise"/>
    <feDisplacementMap in="SourceGraphic" in2="noise" scale="2" xChannelSelector="R" yChannelSelector="G"/>
  </filter>
  </defs>
  <g>
    <path d="M 96,84.89142670519456 Q 95,127.44571335259728 95.2,170 L 104.8,170 Q 105,127.44571335259728 104,84.89142670519456 Z" fill="#979bc4" filter="url(#organic)"/>
    <ellipse cx="100" cy="110.4239986936362" rx="6" ry="1.7999999999999998" fill="none" stroke="currentColor" stroke-width="1.5" opacity="0.6"/>
    <path d="M 69.8,84.89142670519456 L 67.955,97.19142670519456 M 74.44615384615385,84.89142670519456 L 72.885,97.19142670519456 M 79.09230769230768,84.89142670519456 L 77.815,97.19142670519456 M 83.73846153846154,84.89142670519456 L 82.745,97.19142670519456 M 88.38461538461539,84.89142670519456 L 87.675,97.19142670519456 M 93.03076923076924,84.89142670519456 L 92.605,97.19142670519456 M 97.67692307692307,84.89142670519456 L 97.535,97.19142670519456 M 102.32307692307691,84.89142670519456 L 102.46499999999999,97.19142670519456 M 106.96923076923076,84.89142670519456 L 107.395,97.19142670519456 M 111.61538461538461,84.89142670519456 L 112.325,97.19142670519456 M 116.26153846153846,84.89142670519456 L 117.25500000000001,97.19142670519456 M 120.90769230769232,84.89142670519456 L 122.185,97.19142670519456 M 125.55384615384615,84.89142670519456 L 127.115,97.19142670519456 M 130.2,84.89142670519456 L 132.045,97.19142670519456" stroke="#979bc4" stroke-width="0.8" fill="none" opacity="0.7"/>
    <path d="M 62.25,84.89142670519456 Q 62.25,75.66642670519457 100,72.59142670519456 Q 137.75,75.66642670519457 137.75,84.89142670519456" fill="#3275b4" filter="url(#organic)"/>
    <circle cx="81.1" cy="63.4" r="3" fill="white" opacity="0.85"/>
    <circle cx="111.3" cy="60.3" r="2.5" fill="white" opacity="0.85"/>
    <circle cx="96.2" cy="58.8" r="2" fill="white" opacity="0.85"/>
    <circle cx="122.7" cy="66.4" r="2" fill="white" opacity="0.85"/>
    <circle cx="77.3" cy="69.5" r="1.5" fill="white" opacity="0.85"/>
    <circle cx="103.8" cy="69.5" r="2.5" fill="white" opacity="0.85"/>
  </g>
</svg>