<svg xmlns="http://www.w3.org/2000/svg" viewBox="0 0 200 200" width="200" height="200">
  <defs>
    <filter id="organic" x="-5%" y="-5%" width="110%" height="110%">
    <feTurbulence type="fractalNoise" baseFrequency="0.04" numOctaves="3" seed="1" result="noise"/>
    <feDisplacementMap in="SourceGraphic" in2="noise" scale="2" xChannelSelector="R" yChannelSelector="G"/>
  </filter>
  </defs>
  <g>
    <path d="M 92,109.10598172041028 Q 91,139.55299086020514 90.4,170 L 109.6,170 Q 109,139.55299086020514 108,109.10598172041028 Z" fill="#a7a074" filter="url(#organic)"/>
    <ellipse cx="100" cy="127.3741872042872" rx="12" ry="3.5999999999999996" fill="none" stroke="currentColor" stroke-width="1.5" opacity="0.6"/>
    <path d="M 60,109.10598172041028 L 58.479,119.24598172041028 M 63.47826086956522,109.10598172041028 L 62.08952173913043,119.24598172041028 M 66.95652173913044,109.10598172041028 L 65.70004347826087,119.24598172041028 M 70.43478260869566,109.10598172041028 L 69.31056521739131,119.24598172041028 M 73.91304347826087,109.10598172041028 L 72.92108695652175,119.24598172041028 M 77.3913043478261,109.10598172041028 L 76.53160869565218,119.24598172041028 M 80.86956521739131,109.10598172041028 L 80.14213043478262,119.24598172041028 M 84.34782608695653,109.10598172041028 L 83.75265217391305,119.24598172041028 M 87.82608695652173,109.10598172041028 L 87.36317391304347,119.24598172041028 M 91.30434782608695,109.10598172041028 L 90.97369565217392,119.24598172041028 M 94.78260869565219,109.10598172041028 L 94.58421739130436,119.24598172041028 M 98.2608695652174,109.10598172041028 L 98.1947391304348,119.24598172041028 M 101.73913043478261,109.10598172041028 L 101.80526086956522,119.24598172041028 M 105.21739130434783,109.10598172041028 L 105.41578260869565,119.24598172041028 M 108.69565217391306,109.10598172041028 L 109.0263043478261,119.24598172041028 M 112.17391304347827,109.10598172041028 L 112.63682608695653,119.24598172041028 M 115.65217391304347,109.10598172041028 L 116.24734782608695,119.24598172041028 M 119.13043478260869,109.10598172041028 L 119.85786956521738,119.24598172041028 M 122.6086956521739,109.10598172041028 L 123.46839130434782,119.24598172041028 M 126.08695652173913,109.10598172041028 L 127.07891304347825,119.24598172041028 M 129.56521739130437,109.10598172041028 L 130.6894347826087,119.24598172041028 M 133.04347826086956,109.10598172041028 L 134.29995652173912,119.24598172041028 M 136.5217391304348,109.10598172041028 L 137.91047826086958,119.24598172041028 M 140,109.10598172041028 L 141.521,119.24598172041028" stroke="#a7a074" stroke-width="0.8" fill="none" opacity="0.7"/>
    <path d="M 50,109.10598172041028 Q 60,91.3609817204103 100,83.75598172041029 Q 140,91.3609817204103 150,109.10598172041028" fill="#9d6300" filter="url(#organic)"/>
  </g>
</svg>