<svg xmlns="http://www.w3.org/2000/svg" viewBox="0 0 200 200" width="200" height="200">
  <defs>
    <filter id="organic" x="-5%" y="-5%" width="110%" height="110%">
    <feTurbulence type="fractalNoise" baseFrequency="0.04" numOctaves="3" seed="1" result="noise"/>
    <feDisplacementMap in="SourceGraphic" in2="noise" scale="2" xChannelSelector="R" yChannelSelector="G"/>
  </filter>
  </defs>
  <g>
    <path d="M 96.4,101.29506840081918 Q 95.4,135.64753420040958 95.68,170 L 104.32,170 Q 104.6,135.64753420040958 103.6,101.29506840081918 Z" fill="#979bc4" filter="url(#organic)"/>
    <ellipse cx="100" cy="121.90654788057343" rx="5.4" ry="1.62" fill="none" stroke="currentColor" stroke-width="1.5" opacity="0.6"/>
    <path d="M 71.75999999999999,101.29506840081918 L 69.42899999999999,116.83506840081918 M 76.89454545454545,101.29506840081918 L 74.98736363636364,116.83506840081918 M 82.0290909090909,101.29506840081918 L 80.54572727272726,116.83506840081918 M 87.16363636363636,101.29506840081918 L 86.1040909090909,116.83506840081918 M 92.29818181818182,101.29506840081918 L 91.66245454545455,116.83506840081918 M 97.43272727272726,101.29506840081918 L 97.22081818181817,116.83506840081918 M 102.56727272727272,101.29506840081918 L 102.77918181818181,116.83506840081918 M 107.70181818181817,101.29506840081918 L 108.33754545454543,116.83506840081918 M 112.83636363636364,101.29506840081918 L 113.8959090909091,116.83506840081918 M 117.97090909090909,101.29506840081918 L 119.45427272727272,116.83506840081918 M 123.10545454545453,101.29506840081918 L 125.01263636363635,116.83506840081918 M 128.24,101.29506840081918 L 130.571,116.83506840081918" stroke="#979bc4" stroke-width="0.8" fill="none" opacity="0.7"/>
    <path d="M 64.69999999999999,101.29506840081918 Q 71.75999999999999,74.10006840081917 100,62.445068400819174 Q 128.24,74.10006840081917 135.3,101.29506840081918" fill="#3275b4" filter="url(#organic)"/>
  </g>
</svg>