<svg xmlns="http://www.w3.org/2000/svg" viewBox="0 0 200 200" width="200" height="200">
  <defs>
    <filter id="organic" x="-5%" y="-5%" width="110%" height="110%">
    <feTurbulence type="fractalNoise" baseFrequency="0.04" numOctaves="3" seed="1" result="noise"/>
    <feDisplacementMap in="SourceGraphic" in2="noise" scale="2" xChannelSelector="R" yChannelSelector="G"/>
  </filter>
  </defs>
  <g>
    <path d="M 92,108.56779567354646 Q 91,139.28389783677324 90.4,170 L 109.6,170 Q 109,139.28389783677324 108,108.56779567354646 Z" fill="#979bc4" filter="url(#organic)"/>
    <ellipse cx="100" cy="126.99745697148252" rx="12" ry="3.5999999999999996" fill="none" stroke="currentColor" stroke-width="1.5" opacity="0.6"/>
    <path d="M 60,108.56779567354646 L 58.479,118.70779567354646 M 63.47826086956522,108.56779567354646 L 62.08952173913043,118.70779567354646 M 66.95652173913044,108.56779567354646 L 65.70004347826087,118.70779567354646 M 70.43478260869566,108.56779567354646 L 69.31056521739131,118.70779567354646 M 73.91304347826087,108.56779567354646 L 72.92108695652175,118.70779567354646 M 77.3913043478261,108.56779567354646 L 76.53160869565218,118.70779567354646 M 80.86956521739131,108.56779567354646 L 80.14213043478262,118.70779567354646 M 84.34782608695653,108.56779567354646 L 83.75265217391305,118.70779567354646 M 87.82608695652173,108.56779567354646 L 87.36317391304347,118.70779567354646 M 91.30434782608695,108.56779567354646 L 90.97369565217392,118.70779567354646 M 94.78260869565219,108.56779567354646 L 94.58421739130436,118.70779567354646 M 98.2608695652174,108.56779567354646 L 98.1947391304348,118.70779567354646 M 101.73913043478261,108.56779567354646 L 101.80526086956522,118.70779567354646 M 105.21739130434783,108.56779567354646 L 105.41578260869565,118.70779567354646 M 108.69565217391306,108.56779567354646 L 109.0263043478261,118.70779567354646 M 112.17391304347827,108.56779567354646 L 112.63682608695653,118.70779567354646 M 115.65217391304347,108.56779567354646 L 116.24734782608695,118.70779567354646 M 119.13043478260869,108.56779567354646 L 119.85786956521738,118.70779567354646 M 122.6086956521739,108.56779567354646 L 123.46839130434782,118.70779567354646 M 126.08695652173913,108.56779567354646 L 127.07891304347825,118.70779567354646 M 129.56521739130437,108.56779567354646 L 130.6894347826087,118.70779567354646 M 133.04347826086956,108.56779567354646 L 134.29995652173912,118.70779567354646 M 136.5217391304348,108.56779567354646 L 137.91047826086958,118.70779567354646 M 140,108.56779567354646 L 141.521,118.70779567354646" stroke="#979bc4" stroke-width="0.8" fill="none" opacity="0.7"/>
    <path d="M 50,98.42779567354646 Q 65,108.56779567354644 100,103.49779567354645 Q 135,108.56779567354644 150,98.42779567354646" fill="#3275b4" filter="url(#organic)"/>
    <circle cx="75.0" cy="90.8" r="3" fill="white" opacity="0.85"/>
    <circle cx="115.0" cy="88.3" r="2.5" fill="white" opacity="0.85"/>
    <circle cx="95.0" cy="87.0" r="2" fill="white" opacity="0.85"/>
    <circle cx="130.0" cy="93.4" r="2" fill="white" opacity="0.85"/>
    <circle cx="70.0" cy="95.9" r="1.5" fill="white" opacity="0.85"/>
    <circle cx="105.0" cy="95.9" r="2.5" fill="white" opacity="0.85"/>
  </g>
</svg>