<svg xmlns="http://www.w3.org/2000/svg" viewBox="0 0 200 200" width="200" height="200">
  <defs>
    <filter id="organic" x="-5%" y="-5%" width="110%" height="110%">
    <feTurbulence type="fractalNoise" baseFrequency="0.04" numOctaves="3" seed="1" result="noise"/>
    <feDisplacementMap in="SourceGraphic" in2="noise" scale="2" xChannelSelector="R" yChannelSelector="G"/>
  </filter>
  </defs>
  <g>
    <path d="M 92,87.01525659009275 Q 91,128.50762829504637 90.4,170 L 109.6,170 Q 109,128.50762829504637 108,87.01525659009275 Z" fill="#979bc4" filter="url(#organic)"/>
    <ellipse cx="100" cy="111.91067961306493" rx="12" ry="3.5999999999999996" fill="none" stroke="currentColor" stroke-width="1.5" opacity="0.6"/>
    <path d="M 60,87.01525659009275 L 57.912,100.93525659009275 M 63.47826086956522,87.01525659009275 L 61.57182608695652,100.93525659009275 M 66.95652173913044,87.01525659009275 L 65.23165217391305,100.93525659009275 M 70.43478260869566,87.01525659009275 L 68.89147826086958,100.93525659009275 M 73.91304347826087,87.01525659009275 L 72.55130434782609,100.93525659009275 M 77.3913043478261,87.01525659009275 L 76.21113043478262,100.93525659009275 M 80.86956521739131,87.01525659009275 L 79.87095652173913,100.93525659009275 M 84.34782608695653,87.01525659009275 L 83.53078260869566,100.93525659009275 M 87.82608695652173,87.01525659009275 L 87.19060869565217,100.93525659009275 M 91.30434782608695,87.01525659009275 L 90.85043478260869,100.93525659009275 M 94.78260869565219,87.01525659009275 L 94.51026086956523,100.93525659009275 M 98.2608695652174,87.01525659009275 L 98.17008695652176,100.93525659009275 M 101.73913043478261,87.01525659009275 L 101.82991304347826,100.93525659009275 M 105.21739130434783,87.01525659009275 L 105.48973913043478,100.93525659009275 M 108.69565217391306,87.01525659009275 L 109.14956521739133,100.93525659009275 M 112.17391304347827,87.01525659009275 L 112.80939130434783,100.93525659009275 M 115.65217391304347,87.01525659009275 L 116.46921739130434,100.93525659009275 M 119.13043478260869,87.01525659009275 L 120.12904347826087,100.93525659009275 M 122.6086956521739,87.01525659009275 L 123.78886956521738,100.93525659009275 M 126.08695652173913,87.01525659009275 L 127.44869565217391,100.93525659009275 M 129.56521739130437,87.01525659009275 L 131.10852173913045,100.93525659009275 M 133.04347826086956,87.01525659009275 L 134.76834782608697,100.93525659009275 M 136.5217391304348,87.01525659009275 L 138.4281739130435,100.93525659009275 M 140,87.01525659009275 L 142.088,100.93525659009275" stroke="#979bc4" stroke-width="0.8" fill="none" opacity="0.7"/>
    <path d="M 50,73.09525659009275 Q 65,87.01525659009275 100,80.05525659009275 Q 135,87.01525659009275 150,73.09525659009275" fill="#3275b4" filter="url(#organic)"/>
    <circle cx="75.0" cy="62.7" r="3" fill="white" opacity="0.85"/>
    <circle cx="115.0" cy="59.2" r="2.5" fill="white" opacity="0.85"/>
    <circle cx="95.0" cy="57.4" r="2" fill="white" opacity="0.85"/>
    <circle cx="130.0" cy="66.1" r="2" fill="white" opacity="0.85"/>
    <circle cx="70.0" cy="69.6" r="1.5" fill="white" opacity="0.85"/>
    <circle cx="105.0" cy="69.6" r="2.5" fill="white" opacity="0.85"/>
  </g>
</svg>