<svg xmlns="http://www.w3.org/2000/svg" viewBox="0 0 200 200" width="200" height="200">
  <defs>
    <filter id="organic" x="-5%" y="-5%" width="110%" height="110%">
    <feTurbulence type="fractalNoise" baseFrequency="0.04" numOctaves="3" seed="1" result="noise"/>
    <feDisplacementMap in="SourceGraphic" in2="noise" scale="2" xChannelSelector="R" yChannelSelector="G"/>
  </filter>
  </defs>
  <g>
    <path d="M 95.6,87.63874658300826 Q 94.6,128.81937329150412 94.72,170 L 105.28,170 Q 105.4,128.81937329150412 104.4,87.63874658300826 Z" fill="#979bc4" filter="url(#organic)"/>
    <ellipse cx="100" cy="112.34712260810578" rx="6.6000000000000005" ry="1.98" fill="none" stroke="currentColor" stroke-width="1.5" opacity="0.6"/>
    <path d="M 67.84,87.63874658300826 L 65.104,105.87874658300825 M 72.128,87.63874658300826 L 69.7568,105.87874658300825 M 76.416,87.63874658300826 L 74.4096,105.87874658300825 M 80.70400000000001,87.63874658300826 L 79.06240000000001,105.87874658300825 M 84.992,87.63874658300826 L 83.71520000000001,105.87874658300825 M 89.28,87.63874658300826 L 88.368,105.87874658300825 M 93.56800000000001,87.63874658300826 L 93.02080000000001,105.87874658300825 M 97.85600000000001,87.63874658300826 L 97.67360000000001,105.87874658300825 M 102.144,87.63874658300826 L 102.3264,105.87874658300825 M 106.43200000000002,87.63874658300826 L 106.97920000000002,105.87874658300825 M 110.72,87.63874658300826 L 111.632,105.87874658300825 M 115.00800000000001,87.63874658300826 L 116.2848,105.87874658300825 M 119.29600000000002,87.63874658300826 L 120.93760000000002,105.87874658300825 M 123.584,87.63874658300826 L 125.5904,105.87874658300825 M 127.87200000000001,87.63874658300826 L 130.2432,105.87874658300825 M 132.16000000000003,87.63874658300826 L 134.89600000000002,105.87874658300825" stroke="#979bc4" stroke-width="0.8" fill="none" opacity="0.7"/>
    <path d="M 59.8,87.63874658300826 Q 59.8,69.39874658300826 87.94,60.27874658300826 L 100,42.03874658300826 L 112.06,60.27874658300826 Q 140.2,69.39874658300826 140.2,87.63874658300826" fill="#3275b4" filter="url(#organic)"/>
    <circle cx="79.9" cy="55.7" r="3" fill="white" opacity="0.85"/>
    <circle cx="112.1" cy="51.2" r="2.5" fill="white" opacity="0.85"/>
    <circle cx="96.0" cy="48.9" r="2" fill="white" opacity="0.85"/>
    <circle cx="124.1" cy="60.3" r="2" fill="white" opacity="0.85"/>
    <circle cx="75.9" cy="64.8" r="1.5" fill="white" opacity="0.85"/>
    <circle cx="104.0" cy="64.8" r="2.5" fill="white" opacity="0.85"/>
  </g>
</svg>