<svg xmlns="http://www.w3.org/2000/svg" viewBox="0 0 200 200" width="200" height="200">
  <defs>
    <filter id="organic" x="-5%" y="-5%" width="110%" height="110%">
    <feTurbulence type="fractalNoise" baseFrequency="0.04" numOctaves="3" seed="1" result="noise"/>
    <feDisplacementMap in="SourceGraphic" in2="noise" scale="2" xChannelSelector="R" yChannelSelector="G"/>
  </filter>
  </defs>
  <g>
    <path d="M 92.8,82.15129956082274 Q 91.8,126.07564978041137 91.36,170 L 108.64,170 Q 108.2,126.07564978041137 107.2,82.15129956082274 Z" fill="#979bc4" filter="url(#organic)"/>
    <path d="M 60,82.15129956082274 L 57.507,98.77129956082274 M 63.47826086956522,82.15129956082274 L 61.20204347826087,98.77129956082274 M 66.95652173913044,82.15129956082274 L 64.89708695652175,98.77129956082274 M 70.43478260869566,82.15129956082274 L 68.59213043478262,98.77129956082274 M 73.91304347826087,82.15129956082274 L 72.28717391304349,98.77129956082274 M 77.3913043478261,82.15129956082274 L 75.98221739130436,98.77129956082274 M 80.86956521739131,82.15129956082274 L 79.67726086956523,98.77129956082274 M 84.34782608695653,82.15129956082274 L 83.3723043478261,98.77129956082274 M 87.82608695652173,82.15129956082274 L 87.06734782608696,98.77129956082274 M 91.30434782608695,82.15129956082274 L 90.76239130434783,98.77129956082274 M 94.78260869565219,82.15129956082274 L 94.45743478260871,98.77129956082274 M 98.2608695652174,82.15129956082274 L 98.15247826086959,98.77129956082274 M 101.73913043478261,82.15129956082274 L 101.84752173913043,98.77129956082274 M 105.21739130434783,82.15129956082274 L 105.5425652173913,98.77129956082274 M 108.69565217391306,82.15129956082274 L 109.23760869565218,98.77129956082274 M 112.17391304347827,82.15129956082274 L 112.93265217391304,98.77129956082274 M 115.65217391304347,82.15129956082274 L 116.6276956521739,98.77129956082274 M 119.13043478260869,82.15129956082274 L 120.32273913043477,98.77129956082274 M 122.6086956521739,82.15129956082274 L 124.01778260869564,98.77129956082274 M 126.08695652173913,82.15129956082274 L 127.71282608695651,98.77129956082274 M 129.56521739130437,82.15129956082274 L 131.40786956521742,98.77129956082274 M 133.04347826086956,82.15129956082274 L 135.10291304347825,98.77129956082274 M 136.5217391304348,82.15129956082274 L 138.79795652173917,98.77129956082274 M 140,82.15129956082274 L 142.493,98.77129956082274" stroke="#979bc4" stroke-width="0.8" fill="none" opacity="0.7"/>
    <path d="M 50,65.53129956082273 Q 65,82.15129956082274 100,73.84129956082273 Q 135,82.15129956082274 150,65.53129956082273" fill="#3275b4" filter="url(#organic)"/>
  </g>
</svg>