<svg xmlns="http://www.w3.org/2000/svg" viewBox="0 0 200 200" width="200" height="200">
  <defs>
    <filter id="organic" x="-5%" y="-5%" width="110%" height="110%">
    <feTurbulence type="fractalNoise" baseFrequency="0.04" numOctaves="3" seed="1" result="noise"/>
    <feDisplacementMap in="SourceGraphic" in2="noise" scale="2" xChannelSelector="R" yChannelSelector="G"/>
  </filter>
  </defs>
  <g>
    <path d="M 96,90.49196420321744 Q 95,130.24598210160872 95.2,170 L 104.8,170 Q 105,130.24598210160872 104,90.49196420321744 Z" fill="#979bc4" filter="url(#organic)"/>
    <ellipse cx="100" cy="114.3443749422522" rx="6" ry="1.7999999999999998" fill="none" stroke="currentColor" stroke-width="1.5" opacity="0.6"/>
    <path d="M 69.8,90.49196420321744 L 67.469,106.03196420321744 M 74.44615384615385,90.49196420321744 L 72.47376923076924,106.03196420321744 M 79.09230769230768,90.49196420321744 L 77.47853846153845,106.03196420321744 M 83.73846153846154,90.49196420321744 L 82.48330769230769,106.03196420321744 M 88.38461538461539,90.49196420321744 L 87.48807692307693,106.03196420321744 M 93.03076923076924,90.49196420321744 L 92.49284615384616,106.03196420321744 M 97.67692307692307,90.49196420321744 L 97.49761538461539,106.03196420321744 M 102.32307692307691,90.49196420321744 L 102.5023846153846,106.03196420321744 M 106.96923076923076,90.49196420321744 L 107.50715384615384,106.03196420321744 M 111.61538461538461,90.49196420321744 L 112.51192307692307,106.03196420321744 M 116.26153846153846,90.49196420321744 L 117.51669230769231,106.03196420321744 M 120.90769230769232,90.49196420321744 L 122.52146153846155,106.03196420321744 M 125.55384615384615,90.49196420321744 L 127.52623076923076,106.03196420321744 M 130.2,90.49196420321744 L 132.53099999999998,106.03196420321744" stroke="#979bc4" stroke-width="0.8" fill="none" opacity="0.7"/>
    <path d="M 62.25,90.49196420321744 Q 69.8,63.296964203217435 100,51.641964203217434 Q 130.2,63.296964203217435 137.75,90.49196420321744" fill="#3275b4" filter="url(#organic)"/>
  </g>
</svg>