<svg xmlns="http://www.w3.org/2000/svg" viewBox="0 0 200 200" width="200" height="200">
  <defs>
    <filter id="organic" x="-5%" y="-5%" width="110%" height="110%">
    <feTurbulence type="fractalNoise" baseFrequency="0.04" numOctaves="3" seed="1" result="noise"/>
    <feDisplacementMap in="SourceGraphic" in2="noise" scale="2" xChannelSelector="R" yChannelSelector="G"/>
  </filter>
  </defs>
  <g>
    <path d="M 92,85.45566627575852 Q 91,127.72783313787926 90.4,170 L 109.6,170 Q 109,127.72783313787926 108,85.45566627575852 Z" fill="#979bc4" filter="url(#organic)"/>
    <ellipse cx="100" cy="110.81896639303096" rx="12" ry="3.5999999999999996" fill="none" stroke="currentColor" stroke-width="1.5" opacity="0.6"/>
    <path d="M 60,85.45566627575852 L 58.155,97.75566627575851 M 63.47826086956522,85.45566627575852 L 61.793695652173916,97.75566627575851 M 66.95652173913044,85.45566627575852 L 65.43239130434783,97.75566627575851 M 70.43478260869566,85.45566627575852 L 69.07108695652174,97.75566627575851 M 73.91304347826087,85.45566627575852 L 72.70978260869566,97.75566627575851 M 77.3913043478261,85.45566627575852 L 76.34847826086957,97.75566627575851 M 80.86956521739131,85.45566627575852 L 79.98717391304349,97.75566627575851 M 84.34782608695653,85.45566627575852 L 83.6258695652174,97.75566627575851 M 87.82608695652173,85.45566627575852 L 87.2645652173913,97.75566627575851 M 91.30434782608695,85.45566627575852 L 90.90326086956522,97.75566627575851 M 94.78260869565219,85.45566627575852 L 94.54195652173914,97.75566627575851 M 98.2608695652174,85.45566627575852 L 98.18065217391306,97.75566627575851 M 101.73913043478261,85.45566627575852 L 101.81934782608695,97.75566627575851 M 105.21739130434783,85.45566627575852 L 105.45804347826088,97.75566627575851 M 108.69565217391306,85.45566627575852 L 109.0967391304348,97.75566627575851 M 112.17391304347827,85.45566627575852 L 112.7354347826087,97.75566627575851 M 115.65217391304347,85.45566627575852 L 116.3741304347826,97.75566627575851 M 119.13043478260869,85.45566627575852 L 120.01282608695651,97.75566627575851 M 122.6086956521739,85.45566627575852 L 123.65152173913043,97.75566627575851 M 126.08695652173913,85.45566627575852 L 127.29021739130434,97.75566627575851 M 129.56521739130437,85.45566627575852 L 130.92891304347827,97.75566627575851 M 133.04347826086956,85.45566627575852 L 134.56760869565218,97.75566627575851 M 136.5217391304348,85.45566627575852 L 138.20630434782612,97.75566627575851 M 140,85.45566627575852 L 141.845,97.75566627575851" stroke="#979bc4" stroke-width="0.8" fill="none" opacity="0.7"/>
    <path d="M 50,73.15566627575852 Q 65,85.45566627575852 100,79.30566627575851 Q 135,85.45566627575852 150,73.15566627575852" fill="#3275b4" filter="url(#organic)"/>
  </g>
</svg>