<svg xmlns="http://www.w3.org/2000/svg" viewBox="0 0 200 200" width="200" height="200">
  <defs>
    <filter id="organic" x="-5%" y="-5%" width="110%" height="110%">
    <feTurbulence type="fractalNoise" baseFrequency="0.04" numOctaves="3" seed="1" result="noise"/>
    <feDisplacementMap in="SourceGraphic" in2="noise" scale="2" xChannelSelector="R" yChannelSelector="G"/>
  </filter>
  </defs>
  <g>
    <path d="M 92.8,90.39869845516228 Q 91.8,130.19934922758114 91.36,170 L 108.64,170 Q 108.2,130.19934922758114 107.2,90.39869845516228 Z" fill="#aa94bb" filter="url(#organic)"/>
    <ellipse cx="100" cy="114.2790889186136" rx="10.8" ry="3.24" fill="none" stroke="currentColor" stroke-width="1.5" opacity="0.6"/>
    <path d="M 60,90.39869845516228 L 58.56,99.99869845516227 M 63.47826086956522,90.39869845516228 L 62.16347826086957,99.99869845516227 M 66.95652173913044,90.39869845516228 L 65.76695652173913,99.99869845516227 M 70.43478260869566,90.39869845516228 L 69.3704347826087,99.99869845516227 M 73.91304347826087,90.39869845516228 L 72.97391304347826,99.99869845516227 M 77.3913043478261,90.39869845516228 L 76.57739130434783,99.99869845516227 M 80.86956521739131,90.39869845516228 L 80.18086956521739,99.99869845516227 M 84.34782608695653,90.39869845516228 L 83.78434782608697,99.99869845516227 M 87.82608695652173,90.39869845516228 L 87.38782608695652,99.99869845516227 M 91.30434782608695,90.39869845516228 L 90.99130434782609,99.99869845516227 M 94.78260869565219,90.39869845516228 L 94.59478260869567,99.99869845516227 M 98.2608695652174,90.39869845516228 L 98.19826086956523,99.99869845516227 M 101.73913043478261,90.39869845516228 L 101.80173913043478,99.99869845516227 M 105.21739130434783,90.39869845516228 L 105.40521739130435,99.99869845516227 M 108.69565217391306,90.39869845516228 L 109.00869565217393,99.99869845516227 M 112.17391304347827,90.39869845516228 L 112.61217391304348,99.99869845516227 M 115.65217391304347,90.39869845516228 L 116.21565217391303,99.99869845516227 M 119.13043478260869,90.39869845516228 L 119.81913043478261,99.99869845516227 M 122.6086956521739,90.39869845516228 L 123.42260869565217,99.99869845516227 M 126.08695652173913,90.39869845516228 L 127.02608695652174,99.99869845516227 M 129.56521739130437,90.39869845516228 L 130.62956521739133,99.99869845516227 M 133.04347826086956,90.39869845516228 L 134.23304347826087,99.99869845516227 M 136.5217391304348,90.39869845516228 L 137.83652173913046,99.99869845516227 M 140,90.39869845516228 L 141.44,99.99869845516227" stroke="#aa94bb" stroke-width="0.8" fill="none" opacity="0.7"/>
    <path d="M 50,90.39869845516228 Q 50,83.19869845516227 100,80.79869845516228 Q 150,83.19869845516227 150,90.39869845516228" fill="#6568b6" filter="url(#organic)"/>
  </g>
</svg>