<svg xmlns="http://www.w3.org/2000/svg" viewBox="0 0 200 200" width="200" height="200">
  <defs>
    <filter id="organic" x="-5%" y="-5%" width="110%" height="110%">
    <feTurbulence type="fractalNoise" baseFrequency="0.04" numOctaves="3" seed="1" result="noise"/>
    <feDisplacementMap in="SourceGraphic" in2="noise" scale="2" xChannelSelector="R" yChannelSelector="G"/>
  </filter>
  </defs>
  <g>
    <path d="M 96.4,91.78649730851193 Q 95.4,130.89324865425596 95.68,170 L 104.32,170 Q 104.6,130.89324865425596 103.6,91.78649730851193 Z" fill="#78a6bd" filter="url(#organic)"/>
    <ellipse cx="100" cy="115.25054811595835" rx="5.4" ry="1.62" fill="none" stroke="currentColor" stroke-width="1.5" opacity="0.6"/>
    <path d="M 71.75999999999999,91.78649730851193 L 70.32,101.38649730851193 M 76.89454545454545,91.78649730851193 L 75.71636363636364,101.38649730851193 M 82.0290909090909,91.78649730851193 L 81.11272727272726,101.38649730851193 M 87.16363636363636,91.78649730851193 L 86.5090909090909,101.38649730851193 M 92.29818181818182,91.78649730851193 L 91.90545454545455,101.38649730851193 M 97.43272727272726,91.78649730851193 L 97.30181818181818,101.38649730851193 M 102.56727272727272,91.78649730851193 L 102.69818181818181,101.38649730851193 M 107.70181818181817,91.78649730851193 L 108.09454545454544,101.38649730851193 M 112.83636363636364,91.78649730851193 L 113.4909090909091,101.38649730851193 M 117.97090909090909,91.78649730851193 L 118.88727272727273,101.38649730851193 M 123.10545454545453,91.78649730851193 L 124.28363636363635,101.38649730851193 M 128.24,91.78649730851193 L 129.68,101.38649730851193" stroke="#78a6bd" stroke-width="0.8" fill="none" opacity="0.7"/>
    <path d="M 64.69999999999999,91.78649730851193 Q 64.69999999999999,84.58649730851192 100,82.18649730851192 Q 135.3,84.58649730851192 135.3,91.78649730851193" fill="#00858d" filter="url(#organic)"/>
  </g>
</svg>