<svg xmlns="http://www.w3.org/2000/svg" viewBox="0 0 200 200" width="200" height="200">
  <defs>
    <filter id="organic" x="-5%" y="-5%" width="110%" height="110%">
    <feTurbulence type="fractalNoise" baseFrequency="0.04" numOctaves="3" seed="1" result="noise"/>
    <feDisplacementMap in="SourceGraphic" in2="noise" scale="2" xChannelSelector="R" yChannelSelector="G"/>
  </filter>
  </defs>
  <g>
    <path d="M 92.8,89.17320227802063 Q 91.8,129.58660113901033 91.36,170 L 108.64,170 Q 108.2,129.58660113901033 107.2,89.17320227802063 Z" fill="#979bc4" filter="url(#organic)"/>
    <ellipse cx="100" cy="113.42124159461443" rx="10.8" ry="3.24" fill="none" stroke="currentColor" stroke-width="1.5" opacity="0.6"/>
    <path d="M 60,89.17320227802063 L 58.155,101.47320227802062 M 63.47826086956522,89.17320227802063 L 61.793695652173916,101.47320227802062 M 66.95652173913044,89.17320227802063 L 65.43239130434783,101.47320227802062 M 70.43478260869566,89.17320227802063 L 69.07108695652174,101.47320227802062 M 73.91304347826087,89.17320227802063 L 72.70978260869566,101.47320227802062 M 77.3913043478261,89.17320227802063 L 76.34847826086957,101.47320227802062 M 80.86956521739131,89.17320227802063 L 79.98717391304349,101.47320227802062 M 84.34782608695653,89.17320227802063 L 83.6258695652174,101.47320227802062 M 87.82608695652173,89.17320227802063 L 87.2645652173913,101.47320227802062 M 91.30434782608695,89.17320227802063 L 90.90326086956522,101.47320227802062 M 94.78260869565219,89.17320227802063 L 94.54195652173914,101.47320227802062 M 98.2608695652174,89.17320227802063 L 98.18065217391306,101.47320227802062 M 101.73913043478261,89.17320227802063 L 101.81934782608695,101.47320227802062 M 105.21739130434783,89.17320227802063 L 105.45804347826088,101.47320227802062 M 108.69565217391306,89.17320227802063 L 109.0967391304348,101.47320227802062 M 112.17391304347827,89.17320227802063 L 112.7354347826087,101.47320227802062 M 115.65217391304347,89.17320227802063 L 116.3741304347826,101.47320227802062 M 119.13043478260869,89.17320227802063 L 120.01282608695651,101.47320227802062 M 122.6086956521739,89.17320227802063 L 123.65152173913043,101.47320227802062 M 126.08695652173913,89.17320227802063 L 127.29021739130434,101.47320227802062 M 129.56521739130437,89.17320227802063 L 130.92891304347827,101.47320227802062 M 133.04347826086956,89.17320227802063 L 134.56760869565218,101.47320227802062 M 136.5217391304348,89.17320227802063 L 138.20630434782612,101.47320227802062 M 140,89.17320227802063 L 141.845,101.47320227802062" stroke="#979bc4" stroke-width="0.8" fill="none" opacity="0.7"/>
    <path d="M 50,89.17320227802063 Q 50,79.94820227802063 100,76.87320227802063 Q 150,79.94820227802063 150,89.17320227802063" fill="#3275b4" filter="url(#organic)"/>
  </g>
</svg>