<svg xmlns="http://www.w3.org/2000/svg" viewBox="0 0 200 200" width="200" height="200">
  <defs>
    <filter id="organic" x="-5%" y="-5%" width="110%" height="110%">
    <feTurbulence type="fractalNoise" baseFrequency="0.04" numOctaves="3" seed="1" result="noise"/>
    <feDisplacementMap in="SourceGraphic" in2="noise" scale="2" xChannelSelector="R" yChannelSelector="G"/>
  </filter>
  </defs>
  <g>
    <path d="M 96.4,90.58606642654468 Q 95.4,130.29303321327234 95.68,170 L 104.32,170 Q 104.6,130.29303321327234 103.6,90.58606642654468 Z" fill="#979bc4" filter="url(#organic)"/>
    <ellipse cx="100" cy="114.41024649858127" rx="5.4" ry="1.62" fill="none" stroke="currentColor" stroke-width="1.5" opacity="0.6"/>
    <path d="M 71.75999999999999,90.58606642654468 L 69.75299999999999,103.96606642654467 M 76.89454545454545,90.58606642654468 L 75.25245454545454,103.96606642654467 M 82.0290909090909,90.58606642654468 L 80.75190909090908,103.96606642654467 M 87.16363636363636,90.58606642654468 L 86.25136363636364,103.96606642654467 M 92.29818181818182,90.58606642654468 L 91.75081818181818,103.96606642654467 M 97.43272727272726,90.58606642654468 L 97.25027272727272,103.96606642654467 M 102.56727272727272,90.58606642654468 L 102.74972727272727,103.96606642654467 M 107.70181818181817,90.58606642654468 L 108.24918181818181,103.96606642654467 M 112.83636363636364,90.58606642654468 L 113.74863636363636,103.96606642654467 M 117.97090909090909,90.58606642654468 L 119.2480909090909,103.96606642654467 M 123.10545454545453,90.58606642654468 L 124.74754545454545,103.96606642654467 M 128.24,90.58606642654468 L 130.247,103.96606642654467" stroke="#979bc4" stroke-width="0.8" fill="none" opacity="0.7"/>
    <path d="M 64.69999999999999,90.58606642654468 Q 64.69999999999999,80.55106642654468 100,77.20606642654468 Q 135.3,80.55106642654468 135.3,90.58606642654468" fill="#3275b4" filter="url(#organic)"/>
  </g>
</svg>