<svg xmlns="http://www.w3.org/2000/svg" viewBox="0 0 200 200" width="200" height="200">
  <defs>
    <filter id="organic" x="-5%" y="-5%" width="110%" height="110%">
    <feTurbulence type="fractalNoise" baseFrequency="0.04" numOctaves="3" seed="1" result="noise"/>
    <feDisplacementMap in="SourceGraphic" in2="noise" scale="2" xChannelSelector="R" yChannelSelector="G"/>
  </filter>
  </defs>
  <g>
    <path d="M 94.4,87.85509089860136 Q 93.4,128.92754544930068 93.28,170 L 106.72,170 Q 106.6,128.92754544930068 105.6,87.85509089860136 Z" fill="#979bc4" filter="url(#organic)"/>
    <ellipse cx="100" cy="112.49856362902095" rx="8.399999999999999" ry="2.5199999999999996" fill="none" stroke="currentColor" stroke-width="1.5" opacity="0.6"/>
    <path d="M 61.959999999999994,87.85509089860136 L 60.276999999999994,99.07509089860136 M 65.58285714285714,87.85509089860136 L 64.06014285714285,99.07509089860136 M 69.20571428571428,87.85509089860136 L 67.84328571428571,99.07509089860136 M 72.82857142857142,87.85509089860136 L 71.62642857142856,99.07509089860136 M 76.45142857142856,87.85509089860136 L 75.40957142857143,99.07509089860136 M 80.07428571428571,87.85509089860136 L 79.19271428571427,99.07509089860136 M 83.69714285714285,87.85509089860136 L 82.97585714285714,99.07509089860136 M 87.32,87.85509089860136 L 86.75899999999999,99.07509089860136 M 90.94285714285714,87.85509089860136 L 90.54214285714285,99.07509089860136 M 94.56571428571428,87.85509089860136 L 94.32528571428571,99.07509089860136 M 98.18857142857142,87.85509089860136 L 98.10842857142856,99.07509089860136 M 101.81142857142858,87.85509089860136 L 101.89157142857144,99.07509089860136 M 105.4342857142857,87.85509089860136 L 105.67471428571427,99.07509089860136 M 109.05714285714286,87.85509089860136 L 109.45785714285715,99.07509089860136 M 112.68,87.85509089860136 L 113.24100000000001,99.07509089860136 M 116.30285714285714,87.85509089860136 L 117.02414285714285,99.07509089860136 M 119.92571428571428,87.85509089860136 L 120.80728571428571,99.07509089860136 M 123.54857142857144,87.85509089860136 L 124.59042857142857,99.07509089860136 M 127.17142857142858,87.85509089860136 L 128.37357142857144,99.07509089860136 M 130.7942857142857,87.85509089860136 L 132.1567142857143,99.07509089860136 M 134.41714285714284,87.85509089860136 L 135.9398571428571,99.07509089860136 M 138.04000000000002,87.85509089860136 L 139.723,99.07509089860136" stroke="#979bc4" stroke-width="0.8" fill="none" opacity="0.7"/>
    <path d="M 52.449999999999996,87.85509089860136 Q 52.449999999999996,79.44009089860137 100,76.63509089860136 Q 147.55,79.44009089860137 147.55,87.85509089860136" fill="#3275b4" filter="url(#organic)"/>
  </g>
</svg>