<svg xmlns="http://www.w3.org/2000/svg" viewBox="0 0 200 200" width="200" height="200">
  <defs>
    <filter id="organic" x="-5%" y="-5%" width="110%" height="110%">
    <feTurbulence type="fractalNoise" baseFrequency="0.04" numOctaves="3" seed="1" result="noise"/>
    <feDisplacementMap in="SourceGraphic" in2="noise" scale="2" xChannelSelector="R" yChannelSelector="G"/>
  </filter>
  </defs>
  <g>
    <path d="M 92,93.63607686293146 Q 91,131.81803843146574 90.4,170 L 109.6,170 Q 109,131.81803843146574 108,93.63607686293146 Z" fill="#979bc4" filter="url(#organic)"/>
    <ellipse cx="100" cy="116.54525380405202" rx="12" ry="3.5999999999999996" fill="none" stroke="currentColor" stroke-width="1.5" opacity="0.6"/>
    <path d="M 60,93.63607686293146 L 57.75,108.63607686293146 M 63.47826086956522,93.63607686293146 L 61.423913043478265,108.63607686293146 M 66.95652173913044,93.63607686293146 L 65.09782608695653,108.63607686293146 M 70.43478260869566,93.63607686293146 L 68.77173913043478,108.63607686293146 M 73.91304347826087,93.63607686293146 L 72.44565217391305,108.63607686293146 M 77.3913043478261,93.63607686293146 L 76.11956521739131,108.63607686293146 M 80.86956521739131,93.63607686293146 L 79.79347826086958,108.63607686293146 M 84.34782608695653,93.63607686293146 L 83.46739130434783,108.63607686293146 M 87.82608695652173,93.63607686293146 L 87.14130434782608,108.63607686293146 M 91.30434782608695,93.63607686293146 L 90.81521739130434,108.63607686293146 M 94.78260869565219,93.63607686293146 L 94.48913043478262,108.63607686293146 M 98.2608695652174,93.63607686293146 L 98.16304347826089,108.63607686293146 M 101.73913043478261,93.63607686293146 L 101.83695652173913,108.63607686293146 M 105.21739130434783,93.63607686293146 L 105.51086956521739,108.63607686293146 M 108.69565217391306,93.63607686293146 L 109.18478260869567,108.63607686293146 M 112.17391304347827,93.63607686293146 L 112.85869565217392,108.63607686293146 M 115.65217391304347,93.63607686293146 L 116.53260869565217,108.63607686293146 M 119.13043478260869,93.63607686293146 L 120.20652173913042,108.63607686293146 M 122.6086956521739,93.63607686293146 L 123.88043478260869,108.63607686293146 M 126.08695652173913,93.63607686293146 L 127.55434782608695,108.63607686293146 M 129.56521739130437,93.63607686293146 L 131.22826086956525,108.63607686293146 M 133.04347826086956,93.63607686293146 L 134.90217391304347,108.63607686293146 M 136.5217391304348,93.63607686293146 L 138.57608695652178,108.63607686293146 M 140,93.63607686293146 L 142.25,108.63607686293146" stroke="#979bc4" stroke-width="0.8" fill="none" opacity="0.7"/>
    <path d="M 50,93.63607686293146 Q 50,82.38607686293146 100,78.63607686293146 Q 150,82.38607686293146 150,93.63607686293146" fill="#3275b4" filter="url(#organic)"/>
  </g>
</svg>