<svg xmlns="http://www.w3.org/2000/svg" viewBox="0 0 200 200" width="200" height="200">
  <defs>
    <filter id="organic" x="-5%" y="-5%" width="110%" height="110%">
    <feTurbulence type="fractalNoise" baseFrequency="0.04" numOctaves="3" seed="1" result="noise"/>
    <feDisplacementMap in="SourceGraphic" in2="noise" scale="2" xChannelSelector="R" yChannelSelector="G"/>
  </filter>
  </defs>
  <g>
    <path d="M 92,106.226500438002 Q 91,138.113250219001 90.4,170 L 109.6,170 Q 109,138.113250219001 108,106.226500438002 Z" fill="#78a6bd" filter="url(#organic)"/>
    <ellipse cx="100" cy="125.3585503066014" rx="12" ry="3.5999999999999996" fill="none" stroke="currentColor" stroke-width="1.5" opacity="0.6"/>
    <path d="M 60,106.226500438002 L 58.56,115.826500438002 M 63.47826086956522,106.226500438002 L 62.16347826086957,115.826500438002 M 66.95652173913044,106.226500438002 L 65.76695652173913,115.826500438002 M 70.43478260869566,106.226500438002 L 69.3704347826087,115.826500438002 M 73.91304347826087,106.226500438002 L 72.97391304347826,115.826500438002 M 77.3913043478261,106.226500438002 L 76.57739130434783,115.826500438002 M 80.86956521739131,106.226500438002 L 80.18086956521739,115.826500438002 M 84.34782608695653,106.226500438002 L 83.78434782608697,115.826500438002 M 87.82608695652173,106.226500438002 L 87.38782608695652,115.826500438002 M 91.30434782608695,106.226500438002 L 90.99130434782609,115.826500438002 M 94.78260869565219,106.226500438002 L 94.59478260869567,115.826500438002 M 98.2608695652174,106.226500438002 L 98.19826086956523,115.826500438002 M 101.73913043478261,106.226500438002 L 101.80173913043478,115.826500438002 M 105.21739130434783,106.226500438002 L 105.40521739130435,115.826500438002 M 108.69565217391306,106.226500438002 L 109.00869565217393,115.826500438002 M 112.17391304347827,106.226500438002 L 112.61217391304348,115.826500438002 M 115.65217391304347,106.226500438002 L 116.21565217391303,115.826500438002 M 119.13043478260869,106.226500438002 L 119.81913043478261,115.826500438002 M 122.6086956521739,106.226500438002 L 123.42260869565217,115.826500438002 M 126.08695652173913,106.226500438002 L 127.02608695652174,115.826500438002 M 129.56521739130437,106.226500438002 L 130.62956521739133,115.826500438002 M 133.04347826086956,106.226500438002 L 134.23304347826087,115.826500438002 M 136.5217391304348,106.226500438002 L 137.83652173913046,115.826500438002 M 140,106.226500438002 L 141.44,115.826500438002" stroke="#78a6bd" stroke-width="0.8" fill="none" opacity="0.7"/>
    <path d="M 50,106.226500438002 Q 60,89.42650043800201 100,82.226500438002 Q 140,89.42650043800201 150,106.226500438002" fill="#00858d" filter="url(#organic)"/>
  </g>
</svg>