<svg xmlns="http://www.w3.org/2000/svg" viewBox="0 0 200 200" width="200" height="200">
  <defs>
    <filter id="organic" x="-5%" y="-5%" width="110%" height="110%">
    <feTurbulence type="fractalNoise" baseFrequency="0.04" numOctaves="3" seed="1" result="noise"/>
    <feDisplacementMap in="SourceGraphic" in2="noise" scale="2" xChannelSelector="R" yChannelSelector="G"/>
  </filter>
  </defs>
  <g>
    <path d="M 96.8,72.30298887171341 Q 95.8,121.1514944358567 96.16,170 L 103.84,170 Q 104.2,121.1514944358567 103.2,72.30298887171341 Z" fill="#979bc4" filter="url(#organic)"/>
    <ellipse cx="100" cy="101.61209221019939" rx="4.800000000000001" ry="1.4400000000000002" fill="none" stroke="currentColor" stroke-width="1.5" opacity="0.6"/>
    <path d="M 73.72,72.30298887171341 L 71.065,90.00298887171341 M 79.56,72.30298887171341 L 77.495,90.00298887171341 M 85.4,72.30298887171341 L 83.92500000000001,90.00298887171341 M 91.24,72.30298887171341 L 90.35499999999999,90.00298887171341 M 97.08,72.30298887171341 L 96.785,90.00298887171341 M 102.92,72.30298887171341 L 103.215,90.00298887171341 M 108.75999999999999,72.30298887171341 L 109.645,90.00298887171341 M 114.6,72.30298887171341 L 116.07499999999999,90.00298887171341 M 120.44,72.30298887171341 L 122.505,90.00298887171341 M 126.28,72.30298887171341 L 128.935,90.00298887171341" stroke="#979bc4" stroke-width="0.8" fill="none" opacity="0.7"/>
    <path d="M 67.15,72.30298887171341 Q 73.72,41.32798887171341 100,28.05298887171341 Q 126.28,41.32798887171341 132.85,72.30298887171341" fill="#3275b4" filter="url(#organic)"/>
  </g>
</svg>