<svg xmlns="http://www.w3.org/2000/svg" viewBox="0 0 200 200" width="200" height="200">
  <defs>
    <filter id="organic" x="-5%" y="-5%" width="110%" height="110%">
    <feTurbulence type="fractalNoise" baseFrequency="0.04" numOctaves="3" seed="1" result="noise"/>
    <feDisplacementMap in="SourceGraphic" in2="noise" scale="2" xChannelSelector="R" yChannelSelector="G"/>
  </filter>
  </defs>
  <g>
    <path d="M 97.2,62.369510777122315 Q 96.2,116.18475538856116 96.64,170 L 103.36,170 Q 103.8,116.18475538856116 102.8,62.369510777122315 Z" fill="#78a6bd" filter="url(#organic)"/>
    <path d="M 75.68,62.369510777122315 L 74.24000000000001,71.96951077712231 M 82.62857142857143,62.369510777122315 L 81.60000000000001,71.96951077712231 M 89.57714285714286,62.369510777122315 L 88.96000000000001,71.96951077712231 M 96.52571428571429,62.369510777122315 L 96.32000000000001,71.96951077712231 M 103.47428571428571,62.369510777122315 L 103.67999999999999,71.96951077712231 M 110.42285714285715,62.369510777122315 L 111.04,71.96951077712231 M 117.37142857142857,62.369510777122315 L 118.39999999999999,71.96951077712231 M 124.32000000000001,62.369510777122315 L 125.76,71.96951077712231" stroke="#78a6bd" stroke-width="0.8" fill="none" opacity="0.7"/>
    <path d="M 69.6,62.369510777122315 Q 69.6,55.16951077712231 100,52.76951077712231 Q 130.4,55.16951077712231 130.4,62.369510777122315" fill="#00858d" filter="url(#organic)"/>
  </g>
</svg>