<svg xmlns="http://www.w3.org/2000/svg" viewBox="0 0 200 200" width="200" height="200">
  <defs>
    <filter id="organic" x="-5%" y="-5%" width="110%" height="110%">
    <feTurbulence type="fractalNoise" baseFrequency="0.04" numOctaves="3" seed="1" result="noise"/>
    <feDisplacementMap in="SourceGraphic" in2="noise" scale="2" xChannelSelector="R" yChannelSelector="G"/>
  </filter>
  </defs>
  <g>
    <path d="M 92,114.84049731900147 Q 91,142.42024865950074 90.4,170 L 109.6,170 Q 109,142.42024865950074 108,114.84049731900147 Z" fill="#a496bf" filter="url(#organic)"/>
    <ellipse cx="100" cy="131.38834812330103" rx="12" ry="3.5999999999999996" fill="none" stroke="currentColor" stroke-width="1.5" opacity="0.6"/>
    <path d="M 60,114.84049731900147 L 58.56,124.44049731900148 M 63.47826086956522,114.84049731900147 L 62.16347826086957,124.44049731900148 M 66.95652173913044,114.84049731900147 L 65.76695652173913,124.44049731900148 M 70.43478260869566,114.84049731900147 L 69.3704347826087,124.44049731900148 M 73.91304347826087,114.84049731900147 L 72.97391304347826,124.44049731900148 M 77.3913043478261,114.84049731900147 L 76.57739130434783,124.44049731900148 M 80.86956521739131,114.84049731900147 L 80.18086956521739,124.44049731900148 M 84.34782608695653,114.84049731900147 L 83.78434782608697,124.44049731900148 M 87.82608695652173,114.84049731900147 L 87.38782608695652,124.44049731900148 M 91.30434782608695,114.84049731900147 L 90.99130434782609,124.44049731900148 M 94.78260869565219,114.84049731900147 L 94.59478260869567,124.44049731900148 M 98.2608695652174,114.84049731900147 L 98.19826086956523,124.44049731900148 M 101.73913043478261,114.84049731900147 L 101.80173913043478,124.44049731900148 M 105.21739130434783,114.84049731900147 L 105.40521739130435,124.44049731900148 M 108.69565217391306,114.84049731900147 L 109.00869565217393,124.44049731900148 M 112.17391304347827,114.84049731900147 L 112.61217391304348,124.44049731900148 M 115.65217391304347,114.84049731900147 L 116.21565217391303,124.44049731900148 M 119.13043478260869,114.84049731900147 L 119.81913043478261,124.44049731900148 M 122.6086956521739,114.84049731900147 L 123.42260869565217,124.44049731900148 M 126.08695652173913,114.84049731900147 L 127.02608695652174,124.44049731900148 M 129.56521739130437,114.84049731900147 L 130.62956521739133,124.44049731900148 M 133.04347826086956,114.84049731900147 L 134.23304347826087,124.44049731900148 M 136.5217391304348,114.84049731900147 L 137.83652173913046,124.44049731900148 M 140,114.84049731900147 L 141.44,124.44049731900148" stroke="#a496bf" stroke-width="0.8" fill="none" opacity="0.7"/>
    <path d="M 50,114.84049731900147 Q 60,98.04049731900147 100,90.84049731900147 Q 140,98.04049731900147 150,114.84049731900147" fill="#576cb7" filter="url(#organic)"/>
  </g>
</svg>