<svg xmlns="http://www.w3.org/2000/svg" viewBox="0 0 200 200" width="200" height="200">
  <defs>
    <filter id="organic" x="-5%" y="-5%" width="110%" height="110%">
    <feTurbulence type="fractalNoise" baseFrequency="0.04" numOctaves="3" seed="1" result="noise"/>
    <feDisplacementMap in="SourceGraphic" in2="noise" scale="2" xChannelSelector="R" yChannelSelector="G"/>
  </filter>
  </defs>
  <g>
    <path d="M 96,83.94647903941177 Q 95,126.97323951970588 95.2,170 L 104.8,170 Q 105,126.97323951970588 104,83.94647903941177 Z" fill="#979bc4" filter="url(#organic)"/>
    <ellipse cx="100" cy="109.76253532758824" rx="6" ry="1.7999999999999998" fill="none" stroke="currentColor" stroke-width="1.5" opacity="0.6"/>
    <path d="M 69.8,83.94647903941177 L 68.11699999999999,95.16647903941177 M 74.44615384615385,83.94647903941177 L 73.02207692307692,95.16647903941177 M 79.09230769230768,83.94647903941177 L 77.92715384615384,95.16647903941177 M 83.73846153846154,83.94647903941177 L 82.83223076923076,95.16647903941177 M 88.38461538461539,83.94647903941177 L 87.7373076923077,95.16647903941177 M 93.03076923076924,83.94647903941177 L 92.64238461538463,95.16647903941177 M 97.67692307692307,83.94647903941177 L 97.54746153846153,95.16647903941177 M 102.32307692307691,83.94647903941177 L 102.45253846153845,95.16647903941177 M 106.96923076923076,83.94647903941177 L 107.35761538461537,95.16647903941177 M 111.61538461538461,83.94647903941177 L 112.2626923076923,95.16647903941177 M 116.26153846153846,83.94647903941177 L 117.16776923076924,95.16647903941177 M 120.90769230769232,83.94647903941177 L 122.07284615384616,95.16647903941177 M 125.55384615384615,83.94647903941177 L 126.97792307692308,95.16647903941177 M 130.2,83.94647903941177 L 131.88299999999998,95.16647903941177" stroke="#979bc4" stroke-width="0.8" fill="none" opacity="0.7"/>
    <path d="M 62.25,83.94647903941177 Q 62.25,75.53147903941178 100,72.72647903941177 Q 137.75,75.53147903941178 137.75,83.94647903941177" fill="#3275b4" filter="url(#organic)"/>
  </g>
</svg>