<svg xmlns="http://www.w3.org/2000/svg" viewBox="0 0 200 200" width="200" height="200">
  <defs>
    <filter id="organic" x="-5%" y="-5%" width="110%" height="110%">
    <feTurbulence type="fractalNoise" baseFrequency="0.04" numOctaves="3" seed="1" result="noise"/>
    <feDisplacementMap in="SourceGraphic" in2="noise" scale="2" xChannelSelector="R" yChannelSelector="G"/>
  </filter>
  </defs>
  <g>
    <path d="M 96.8,91.57664376180513 Q 95.8,130.78832188090257 96.16,170 L 103.84,170 Q 104.2,130.78832188090257 103.2,91.57664376180513 Z" fill="#979bc4" filter="url(#organic)"/>
    <ellipse cx="100" cy="115.10365063326358" rx="4.800000000000001" ry="1.4400000000000002" fill="none" stroke="currentColor" stroke-width="1.5" opacity="0.6"/>
    <path d="M 73.72,91.57664376180513 L 72.03699999999999,102.79664376180513 M 79.56,91.57664376180513 L 78.251,102.79664376180513 M 85.4,91.57664376180513 L 84.465,102.79664376180513 M 91.24,91.57664376180513 L 90.67899999999999,102.79664376180513 M 97.08,91.57664376180513 L 96.893,102.79664376180513 M 102.92,91.57664376180513 L 103.107,102.79664376180513 M 108.75999999999999,91.57664376180513 L 109.321,102.79664376180513 M 114.6,91.57664376180513 L 115.535,102.79664376180513 M 120.44,91.57664376180513 L 121.749,102.79664376180513 M 126.28,91.57664376180513 L 127.96300000000001,102.79664376180513" stroke="#979bc4" stroke-width="0.8" fill="none" opacity="0.7"/>
    <path d="M 67.15,91.57664376180513 Q 67.15,63.52664376180513 100,63.52664376180513 Q 132.85,63.52664376180513 132.85,91.57664376180513" fill="#3275b4" filter="url(#organic)"/>
  </g>
</svg>