<svg xmlns="http://www.w3.org/2000/svg" viewBox="0 0 200 200" width="200" height="200">
  <defs>
    <filter id="organic" x="-5%" y="-5%" width="110%" height="110%">
    <feTurbulence type="fractalNoise" baseFrequency="0.04" numOctaves="3" seed="1" result="noise"/>
    <feDisplacementMap in="SourceGraphic" in2="noise" scale="2" xChannelSelector="R" yChannelSelector="G"/>
  </filter>
  </defs>
  <g>
    <path d="M 92,88.3779484875598 Q 91,129.1889742437799 90.4,170 L 109.6,170 Q 109,129.1889742437799 108,88.3779484875598 Z" fill="#979bc4" filter="url(#organic)"/>
    <ellipse cx="100" cy="112.86456394129186" rx="12" ry="3.5999999999999996" fill="none" stroke="currentColor" stroke-width="1.5" opacity="0.6"/>
    <path d="M 60,88.3779484875598 L 57.831,102.83794848755981 M 63.47826086956522,88.3779484875598 L 61.49786956521739,102.83794848755981 M 66.95652173913044,88.3779484875598 L 65.16473913043478,102.83794848755981 M 70.43478260869566,88.3779484875598 L 68.83160869565218,102.83794848755981 M 73.91304347826087,88.3779484875598 L 72.49847826086958,102.83794848755981 M 77.3913043478261,88.3779484875598 L 76.16534782608696,102.83794848755981 M 80.86956521739131,88.3779484875598 L 79.83221739130435,102.83794848755981 M 84.34782608695653,88.3779484875598 L 83.49908695652175,102.83794848755981 M 87.82608695652173,88.3779484875598 L 87.16595652173912,102.83794848755981 M 91.30434782608695,88.3779484875598 L 90.83282608695652,102.83794848755981 M 94.78260869565219,88.3779484875598 L 94.49969565217393,102.83794848755981 M 98.2608695652174,88.3779484875598 L 98.16656521739132,102.83794848755981 M 101.73913043478261,88.3779484875598 L 101.83343478260869,102.83794848755981 M 105.21739130434783,88.3779484875598 L 105.50030434782609,102.83794848755981 M 108.69565217391306,88.3779484875598 L 109.1671739130435,102.83794848755981 M 112.17391304347827,88.3779484875598 L 112.83404347826088,102.83794848755981 M 115.65217391304347,88.3779484875598 L 116.50091304347825,102.83794848755981 M 119.13043478260869,88.3779484875598 L 120.16778260869565,102.83794848755981 M 122.6086956521739,88.3779484875598 L 123.83465217391304,102.83794848755981 M 126.08695652173913,88.3779484875598 L 127.50152173913042,102.83794848755981 M 129.56521739130437,88.3779484875598 L 131.16839130434786,102.83794848755981 M 133.04347826086956,88.3779484875598 L 134.83526086956522,102.83794848755981 M 136.5217391304348,88.3779484875598 L 138.50213043478263,102.83794848755981 M 140,88.3779484875598 L 142.169,102.83794848755981" stroke="#979bc4" stroke-width="0.8" fill="none" opacity="0.7"/>
    <path d="M 50,88.3779484875598 Q 50,77.5329484875598 100,73.9179484875598 Q 150,77.5329484875598 150,88.3779484875598" fill="#3275b4" filter="url(#organic)"/>
  </g>
</svg>