<svg xmlns="http://www.w3.org/2000/svg" viewBox="0 0 200 200" width="200" height="200">
  <defs>
    <filter id="organic" x="-5%" y="-5%" width="110%" height="110%">
    <feTurbulence type="fractalNoise" baseFrequency="0.04" numOctaves="3" seed="1" result="noise"/>
    <feDisplacementMap in="SourceGraphic" in2="noise" scale="2" xChannelSelector="R" yChannelSelector="G"/>
  </filter>
  </defs>
  <g>
    <path d="M 97.2,89.50898541571462 Q 96.2,129.7544927078573 96.64,170 L 103.36,170 Q 103.8,129.7544927078573 102.8,89.50898541571462 Z" fill="#979bc4" filter="url(#organic)"/>
    <path d="M 75.68,89.50898541571462 L 73.997,100.72898541571462 M 82.62857142857143,89.50898541571462 L 81.42642857142857,100.72898541571462 M 89.57714285714286,89.50898541571462 L 88.85585714285715,100.72898541571462 M 96.52571428571429,89.50898541571462 L 96.28528571428572,100.72898541571462 M 103.47428571428571,89.50898541571462 L 103.71471428571428,100.72898541571462 M 110.42285714285715,89.50898541571462 L 111.14414285714287,100.72898541571462 M 117.37142857142857,89.50898541571462 L 118.57357142857143,100.72898541571462 M 124.32000000000001,89.50898541571462 L 126.00300000000001,100.72898541571462" stroke="#979bc4" stroke-width="0.8" fill="none" opacity="0.7"/>
    <path d="M 69.6,89.50898541571462 Q 69.6,61.45898541571462 100,61.45898541571462 Q 130.4,61.45898541571462 130.4,89.50898541571462" fill="#3275b4" filter="url(#organic)"/>
  </g>
</svg>