<svg xmlns="http://www.w3.org/2000/svg" viewBox="0 0 200 200" width="200" height="200">
  <defs>
    <filter id="organic" x="-5%" y="-5%" width="110%" height="110%">
    <feTurbulence type="fractalNoise" baseFrequency="0.04" numOctaves="3" seed="1" result="noise"/>
    <feDisplacementMap in="SourceGraphic" in2="noise" scale="2" xChannelSelector="R" yChannelSelector="G"/>
  </filter>
  </defs>
  <g>
    <path d="M 92,83.79694214863127 Q 91,126.89847107431564 90.4,170 L 109.6,170 Q 109,126.89847107431564 108,83.79694214863127 Z" fill="#979bc4" filter="url(#organic)"/>
    <path d="M 60,83.79694214863127 L 58.398,94.47694214863128 M 63.47826086956522,83.79694214863127 L 62.015565217391305,94.47694214863128 M 66.95652173913044,83.79694214863127 L 65.63313043478261,94.47694214863128 M 70.43478260869566,83.79694214863127 L 69.25069565217392,94.47694214863128 M 73.91304347826087,83.79694214863127 L 72.86826086956522,94.47694214863128 M 77.3913043478261,83.79694214863127 L 76.48582608695652,94.47694214863128 M 80.86956521739131,83.79694214863127 L 80.10339130434784,94.47694214863128 M 84.34782608695653,83.79694214863127 L 83.72095652173914,94.47694214863128 M 87.82608695652173,83.79694214863127 L 87.33852173913043,94.47694214863128 M 91.30434782608695,83.79694214863127 L 90.95608695652173,94.47694214863128 M 94.78260869565219,83.79694214863127 L 94.57365217391306,94.47694214863128 M 98.2608695652174,83.79694214863127 L 98.19121739130436,94.47694214863128 M 101.73913043478261,83.79694214863127 L 101.80878260869565,94.47694214863128 M 105.21739130434783,83.79694214863127 L 105.42634782608695,94.47694214863128 M 108.69565217391306,83.79694214863127 L 109.04391304347828,94.47694214863128 M 112.17391304347827,83.79694214863127 L 112.66147826086957,94.47694214863128 M 115.65217391304347,83.79694214863127 L 116.27904347826086,94.47694214863128 M 119.13043478260869,83.79694214863127 L 119.89660869565216,94.47694214863128 M 122.6086956521739,83.79694214863127 L 123.51417391304348,94.47694214863128 M 126.08695652173913,83.79694214863127 L 127.13173913043478,94.47694214863128 M 129.56521739130437,83.79694214863127 L 130.74930434782613,94.47694214863128 M 133.04347826086956,83.79694214863127 L 134.3668695652174,94.47694214863128 M 136.5217391304348,83.79694214863127 L 137.98443478260873,94.47694214863128 M 140,83.79694214863127 L 141.602,94.47694214863128" stroke="#979bc4" stroke-width="0.8" fill="none" opacity="0.7"/>
    <path d="M 50,83.79694214863127 Q 50,75.78694214863127 100,73.11694214863127 Q 150,75.78694214863127 150,83.79694214863127" fill="#3275b4" filter="url(#organic)"/>
  </g>
</svg>