<svg xmlns="http://www.w3.org/2000/svg" viewBox="0 0 200 200" width="200" height="200">
  <defs>
    <filter id="organic" x="-5%" y="-5%" width="110%" height="110%">
    <feTurbulence type="fractalNoise" baseFrequency="0.04" numOctaves="3" seed="1" result="noise"/>
    <feDisplacementMap in="SourceGraphic" in2="noise" scale="2" xChannelSelector="R" yChannelSelector="G"/>
  </filter>
  </defs>
  <g>
    <path d="M 96.8,93.02231550081966 Q 95.8,131.51115775040984 96.16,170 L 103.84,170 Q 104.2,131.51115775040984 103.2,93.02231550081966 Z" fill="#aa94bb" filter="url(#organic)"/>
    <ellipse cx="100" cy="116.11562085057376" rx="4.800000000000001" ry="1.4400000000000002" fill="none" stroke="currentColor" stroke-width="1.5" opacity="0.6"/>
    <path d="M 73.72,93.02231550081966 L 72.28,102.62231550081967 M 79.56,93.02231550081966 L 78.44,102.62231550081967 M 85.4,93.02231550081966 L 84.60000000000001,102.62231550081967 M 91.24,93.02231550081966 L 90.75999999999999,102.62231550081967 M 97.08,93.02231550081966 L 96.92,102.62231550081967 M 102.92,93.02231550081966 L 103.08,102.62231550081967 M 108.75999999999999,93.02231550081966 L 109.24,102.62231550081967 M 114.6,93.02231550081966 L 115.39999999999999,102.62231550081967 M 120.44,93.02231550081966 L 121.56,102.62231550081967 M 126.28,93.02231550081966 L 127.72,102.62231550081967" stroke="#aa94bb" stroke-width="0.8" fill="none" opacity="0.7"/>
    <path d="M 67.15,93.02231550081966 Q 67.15,69.02231550081966 100,69.02231550081966 Q 132.85,69.02231550081966 132.85,93.02231550081966" fill="#6568b6" filter="url(#organic)"/>
  </g>
</svg>