<svg xmlns="http://www.w3.org/2000/svg" viewBox="0 0 200 200" width="200" height="200">
  <defs>
    <filter id="organic" x="-5%" y="-5%" width="110%" height="110%">
    <feTurbulence type="fractalNoise" baseFrequency="0.04" numOctaves="3" seed="1" result="noise"/>
    <feDisplacementMap in="SourceGraphic" in2="noise" scale="2" xChannelSelector="R" yChannelSelector="G"/>
  </filter>
  </defs>
  <g>
    <path d="M 95.6,86.68424088643916 Q 94.6,128.34212044321959 94.72,170 L 105.28,170 Q 105.4,128.34212044321959 104.4,86.68424088643916 Z" fill="#78a6bd" filter="url(#organic)"/>
    <ellipse cx="100" cy="111.6789686205074" rx="6.6000000000000005" ry="1.98" fill="none" stroke="currentColor" stroke-width="1.5" opacity="0.6"/>
    <path d="M 67.84,86.68424088643916 L 66.4,96.28424088643916 M 72.128,86.68424088643916 L 70.88,96.28424088643916 M 76.416,86.68424088643916 L 75.36,96.28424088643916 M 80.70400000000001,86.68424088643916 L 79.84,96.28424088643916 M 84.992,86.68424088643916 L 84.32000000000001,96.28424088643916 M 89.28,86.68424088643916 L 88.8,96.28424088643916 M 93.56800000000001,86.68424088643916 L 93.28000000000002,96.28424088643916 M 97.85600000000001,86.68424088643916 L 97.76,96.28424088643916 M 102.144,86.68424088643916 L 102.24000000000001,96.28424088643916 M 106.43200000000002,86.68424088643916 L 106.72000000000001,96.28424088643916 M 110.72,86.68424088643916 L 111.2,96.28424088643916 M 115.00800000000001,86.68424088643916 L 115.68,96.28424088643916 M 119.29600000000002,86.68424088643916 L 120.16000000000003,96.28424088643916 M 123.584,86.68424088643916 L 124.64,96.28424088643916 M 127.87200000000001,86.68424088643916 L 129.12,96.28424088643916 M 132.16000000000003,86.68424088643916 L 133.60000000000002,96.28424088643916" stroke="#78a6bd" stroke-width="0.8" fill="none" opacity="0.7"/>
    <path d="M 59.8,86.68424088643916 Q 59.8,79.48424088643915 100,77.08424088643915 Q 140.2,79.48424088643915 140.2,86.68424088643916" fill="#00858d" filter="url(#organic)"/>
  </g>
</svg>