<svg xmlns="http://www.w3.org/2000/svg" viewBox="0 0 200 200" width="200" height="200">
  <defs>
    <filter id="organic" x="-5%" y="-5%" width="110%" height="110%">
    <feTurbulence type="fractalNoise" baseFrequency="0.04" numOctaves="3" seed="1" result="noise"/>
    <feDisplacementMap in="SourceGraphic" in2="noise" scale="2" xChannelSelector="R" yChannelSelector="G"/>
  </filter>
  </defs>
  <g>
    <path d="M 92.8,84.25210242047143 Q 91.8,127.12605121023572 91.36,170 L 108.64,170 Q 108.2,127.12605121023572 107.2,84.25210242047143 Z" fill="#979bc4" filter="url(#organic)"/>
    <ellipse cx="100" cy="109.97647169433" rx="10.8" ry="3.24" fill="none" stroke="currentColor" stroke-width="1.5" opacity="0.6"/>
    <path d="M 60,84.25210242047143 L 57.75,99.25210242047143 M 63.47826086956522,84.25210242047143 L 61.423913043478265,99.25210242047143 M 66.95652173913044,84.25210242047143 L 65.09782608695653,99.25210242047143 M 70.43478260869566,84.25210242047143 L 68.77173913043478,99.25210242047143 M 73.91304347826087,84.25210242047143 L 72.44565217391305,99.25210242047143 M 77.3913043478261,84.25210242047143 L 76.11956521739131,99.25210242047143 M 80.86956521739131,84.25210242047143 L 79.79347826086958,99.25210242047143 M 84.34782608695653,84.25210242047143 L 83.46739130434783,99.25210242047143 M 87.82608695652173,84.25210242047143 L 87.14130434782608,99.25210242047143 M 91.30434782608695,84.25210242047143 L 90.81521739130434,99.25210242047143 M 94.78260869565219,84.25210242047143 L 94.48913043478262,99.25210242047143 M 98.2608695652174,84.25210242047143 L 98.16304347826089,99.25210242047143 M 101.73913043478261,84.25210242047143 L 101.83695652173913,99.25210242047143 M 105.21739130434783,84.25210242047143 L 105.51086956521739,99.25210242047143 M 108.69565217391306,84.25210242047143 L 109.18478260869567,99.25210242047143 M 112.17391304347827,84.25210242047143 L 112.85869565217392,99.25210242047143 M 115.65217391304347,84.25210242047143 L 116.53260869565217,99.25210242047143 M 119.13043478260869,84.25210242047143 L 120.20652173913042,99.25210242047143 M 122.6086956521739,84.25210242047143 L 123.88043478260869,99.25210242047143 M 126.08695652173913,84.25210242047143 L 127.55434782608695,99.25210242047143 M 129.56521739130437,84.25210242047143 L 131.22826086956525,99.25210242047143 M 133.04347826086956,84.25210242047143 L 134.90217391304347,99.25210242047143 M 136.5217391304348,84.25210242047143 L 138.57608695652178,99.25210242047143 M 140,84.25210242047143 L 142.25,99.25210242047143" stroke="#979bc4" stroke-width="0.8" fill="none" opacity="0.7"/>
    <path d="M 50,84.25210242047143 Q 50,73.00210242047143 100,69.25210242047143 Q 150,73.00210242047143 150,84.25210242047143" fill="#3275b4" filter="url(#organic)"/>
  </g>
</svg>