<svg xmlns="http://www.w3.org/2000/svg" viewBox="0 0 200 200" width="200" height="200">
  <defs>
    <filter id="organic" x="-5%" y="-5%" width="110%" height="110%">
    <feTurbulence type="fractalNoise" baseFrequency="0.04" numOctaves="3" seed="1" result="noise"/>
    <feDisplacementMap in="SourceGraphic" in2="noise" scale="2" xChannelSelector="R" yChannelSelector="G"/>
  </filter>
  </defs>
  <g>
    <path d="M 92,81.41612774180953 Q 91,125.70806387090477 90.4,170 L 109.6,170 Q 109,125.70806387090477 108,81.41612774180953 Z" fill="#979bc4" filter="url(#organic)"/>
    <path d="M 60,81.41612774180953 L 57.831,95.87612774180954 M 63.47826086956522,81.41612774180953 L 61.49786956521739,95.87612774180954 M 66.95652173913044,81.41612774180953 L 65.16473913043478,95.87612774180954 M 70.43478260869566,81.41612774180953 L 68.83160869565218,95.87612774180954 M 73.91304347826087,81.41612774180953 L 72.49847826086958,95.87612774180954 M 77.3913043478261,81.41612774180953 L 76.16534782608696,95.87612774180954 M 80.86956521739131,81.41612774180953 L 79.83221739130435,95.87612774180954 M 84.34782608695653,81.41612774180953 L 83.49908695652175,95.87612774180954 M 87.82608695652173,81.41612774180953 L 87.16595652173912,95.87612774180954 M 91.30434782608695,81.41612774180953 L 90.83282608695652,95.87612774180954 M 94.78260869565219,81.41612774180953 L 94.49969565217393,95.87612774180954 M 98.2608695652174,81.41612774180953 L 98.16656521739132,95.87612774180954 M 101.73913043478261,81.41612774180953 L 101.83343478260869,95.87612774180954 M 105.21739130434783,81.41612774180953 L 105.50030434782609,95.87612774180954 M 108.69565217391306,81.41612774180953 L 109.1671739130435,95.87612774180954 M 112.17391304347827,81.41612774180953 L 112.83404347826088,95.87612774180954 M 115.65217391304347,81.41612774180953 L 116.50091304347825,95.87612774180954 M 119.13043478260869,81.41612774180953 L 120.16778260869565,95.87612774180954 M 122.6086956521739,81.41612774180953 L 123.83465217391304,95.87612774180954 M 126.08695652173913,81.41612774180953 L 127.50152173913042,95.87612774180954 M 129.56521739130437,81.41612774180953 L 131.16839130434786,95.87612774180954 M 133.04347826086956,81.41612774180953 L 134.83526086956522,95.87612774180954 M 136.5217391304348,81.41612774180953 L 138.50213043478263,95.87612774180954 M 140,81.41612774180953 L 142.169,95.87612774180954" stroke="#979bc4" stroke-width="0.8" fill="none" opacity="0.7"/>
    <path d="M 50,81.41612774180953 Q 50,70.57112774180953 100,66.95612774180952 Q 150,70.57112774180953 150,81.41612774180953" fill="#3275b4" filter="url(#organic)"/>
  </g>
</svg>