<svg xmlns="http://www.w3.org/2000/svg" viewBox="0 0 200 200" width="200" height="200">
  <defs>
    <filter id="glow" x="-50%" y="-50%" width="200%" height="200%">
    <feGaussianBlur in="SourceGraphic" stdDeviation="3" result="blur"/>
    <feMerge>
      <feMergeNode in="blur"/>
      <feMergeNode in="blur"/>
      <feMergeNode in="SourceGraphic"/>
    </feMerge>
  </filter>
    <filter id="organic" x="-5%" y="-5%" width="110%" height="110%">
    <feTurbulence type="fractalNoise" baseFrequency="0.04" numOctaves="3" seed="1" result="noise"/>
    <feDisplacementMap in="SourceGraphic" in2="noise" scale="2" xChannelSelector="R" yChannelSelector="G"/>
  </filter>
  </defs>
  <g filter="url(#glow)">
    <path d="M 92,80.29488461360765 Q 91,125.14744230680382 90.4,170 L 109.6,170 Q 109,125.14744230680382 108,80.29488461360765 Z" fill="#979bc4" filter="url(#organic)"/>
    <ellipse cx="100" cy="107.20641922952535" rx="12" ry="3.5999999999999996" fill="none" stroke="currentColor" stroke-width="1.5" opacity="0.6"/>
    <path d="M 60,80.29488461360765 L 56.4,104.29488461360765 M 63.47826086956522,80.29488461360765 L 60.19130434782609,104.29488461360765 M 66.95652173913044,80.29488461360765 L 63.982608695652175,104.29488461360765 M 70.43478260869566,80.29488461360765 L 67.77391304347826,104.29488461360765 M 73.91304347826087,80.29488461360765 L 71.56521739130436,104.29488461360765 M 77.3913043478261,80.29488461360765 L 75.35652173913044,104.29488461360765 M 80.86956521739131,80.29488461360765 L 79.14782608695653,104.29488461360765 M 84.34782608695653,80.29488461360765 L 82.93913043478261,104.29488461360765 M 87.82608695652173,80.29488461360765 L 86.7304347826087,104.29488461360765 M 91.30434782608695,80.29488461360765 L 90.52173913043478,104.29488461360765 M 94.78260869565219,80.29488461360765 L 94.31304347826088,104.29488461360765 M 98.2608695652174,80.29488461360765 L 98.10434782608696,104.29488461360765 M 101.73913043478261,80.29488461360765 L 101.89565217391305,104.29488461360765 M 105.21739130434783,80.29488461360765 L 105.68695652173913,104.29488461360765 M 108.69565217391306,80.29488461360765 L 109.47826086956523,104.29488461360765 M 112.17391304347827,80.29488461360765 L 113.2695652173913,104.29488461360765 M 115.65217391304347,80.29488461360765 L 117.06086956521739,104.29488461360765 M 119.13043478260869,80.29488461360765 L 120.85217391304347,104.29488461360765 M 122.6086956521739,80.29488461360765 L 124.64347826086956,104.29488461360765 M 126.08695652173913,80.29488461360765 L 128.43478260869566,104.29488461360765 M 129.56521739130437,80.29488461360765 L 132.22608695652175,104.29488461360765 M 133.04347826086956,80.29488461360765 L 136.01739130434783,104.29488461360765 M 136.5217391304348,80.29488461360765 L 139.80869565217395,104.29488461360765 M 140,80.29488461360765 L 143.6,104.29488461360765" stroke="#979bc4" stroke-width="0.8" fill="none" opacity="0.7"/>
    <path d="M 50,80.29488461360765 Q 50,56.29488461360765 85,44.29488461360765 L 100,20.29488461360765 L 115,44.29488461360765 Q 150,56.29488461360765 150,80.29488461360765" fill="#3275b4" filter="url(#organic)"/>
  </g>
</svg>