<svg xmlns="http://www.w3.org/2000/svg" viewBox="0 0 200 200" width="200" height="200">
  <defs>
    <filter id="organic" x="-5%" y="-5%" width="110%" height="110%">
    <feTurbulence type="fractalNoise" baseFrequency="0.04" numOctaves="3" seed="1" result="noise"/>
    <feDisplacementMap in="SourceGraphic" in2="noise" scale="2" xChannelSelector="R" yChannelSelector="G"/>
  </filter>
  </defs>
  <g>
    <path d="M 93.2,89.33975065700301 Q 92.2,129.66987532850152 91.84,170 L 108.16,170 Q 107.8,129.66987532850152 106.8,89.33975065700301 Z" fill="#979bc4" filter="url(#organic)"/>
    <path d="M 60,89.33975065700301 L 57.993,102.719750657003 M 63.47826086956522,89.33975065700301 L 61.645782608695654,102.719750657003 M 66.95652173913044,89.33975065700301 L 65.29856521739131,102.719750657003 M 70.43478260869566,89.33975065700301 L 68.95134782608696,102.719750657003 M 73.91304347826087,89.33975065700301 L 72.60413043478262,102.719750657003 M 77.3913043478261,89.33975065700301 L 76.25691304347826,102.719750657003 M 80.86956521739131,89.33975065700301 L 79.90969565217392,102.719750657003 M 84.34782608695653,89.33975065700301 L 83.56247826086957,102.719750657003 M 87.82608695652173,89.33975065700301 L 87.21526086956521,102.719750657003 M 91.30434782608695,89.33975065700301 L 90.86804347826087,102.719750657003 M 94.78260869565219,89.33975065700301 L 94.52082608695653,102.719750657003 M 98.2608695652174,89.33975065700301 L 98.17360869565219,102.719750657003 M 101.73913043478261,89.33975065700301 L 101.82639130434782,102.719750657003 M 105.21739130434783,89.33975065700301 L 105.47917391304348,102.719750657003 M 108.69565217391306,89.33975065700301 L 109.13195652173914,102.719750657003 M 112.17391304347827,89.33975065700301 L 112.78473913043479,102.719750657003 M 115.65217391304347,89.33975065700301 L 116.43752173913043,102.719750657003 M 119.13043478260869,89.33975065700301 L 120.09030434782608,102.719750657003 M 122.6086956521739,89.33975065700301 L 123.74308695652174,102.719750657003 M 126.08695652173913,89.33975065700301 L 127.39586956521738,102.719750657003 M 129.56521739130437,89.33975065700301 L 131.04865217391307,102.719750657003 M 133.04347826086956,89.33975065700301 L 134.7014347826087,102.719750657003 M 136.5217391304348,89.33975065700301 L 138.3542173913044,102.719750657003 M 140,89.33975065700301 L 142.007,102.719750657003" stroke="#979bc4" stroke-width="0.8" fill="none" opacity="0.7"/>
    <path d="M 50,89.33975065700301 Q 50,79.30475065700301 100,75.95975065700301 Q 150,79.30475065700301 150,89.33975065700301" fill="#3275b4" filter="url(#organic)"/>
  </g>
</svg>