<svg xmlns="http://www.w3.org/2000/svg" viewBox="0 0 200 200" width="200" height="200">
  <defs>
    <filter id="organic" x="-5%" y="-5%" width="110%" height="110%">
    <feTurbulence type="fractalNoise" baseFrequency="0.04" numOctaves="3" seed="1" result="noise"/>
    <feDisplacementMap in="SourceGraphic" in2="noise" scale="2" xChannelSelector="R" yChannelSelector="G"/>
  </filter>
  </defs>
  <g>
    <path d="M 92,78.3288708070611 Q 91,124.16443540353055 90.4,170 L 109.6,170 Q 109,124.16443540353055 108,78.3288708070611 Z" fill="#979bc4" filter="url(#organic)"/>
    <path d="M 60,78.3288708070611 L 57.912,92.2488708070611 M 63.47826086956522,78.3288708070611 L 61.57182608695652,92.2488708070611 M 66.95652173913044,78.3288708070611 L 65.23165217391305,92.2488708070611 M 70.43478260869566,78.3288708070611 L 68.89147826086958,92.2488708070611 M 73.91304347826087,78.3288708070611 L 72.55130434782609,92.2488708070611 M 77.3913043478261,78.3288708070611 L 76.21113043478262,92.2488708070611 M 80.86956521739131,78.3288708070611 L 79.87095652173913,92.2488708070611 M 84.34782608695653,78.3288708070611 L 83.53078260869566,92.2488708070611 M 87.82608695652173,78.3288708070611 L 87.19060869565217,92.2488708070611 M 91.30434782608695,78.3288708070611 L 90.85043478260869,92.2488708070611 M 94.78260869565219,78.3288708070611 L 94.51026086956523,92.2488708070611 M 98.2608695652174,78.3288708070611 L 98.17008695652176,92.2488708070611 M 101.73913043478261,78.3288708070611 L 101.82991304347826,92.2488708070611 M 105.21739130434783,78.3288708070611 L 105.48973913043478,92.2488708070611 M 108.69565217391306,78.3288708070611 L 109.14956521739133,92.2488708070611 M 112.17391304347827,78.3288708070611 L 112.80939130434783,92.2488708070611 M 115.65217391304347,78.3288708070611 L 116.46921739130434,92.2488708070611 M 119.13043478260869,78.3288708070611 L 120.12904347826087,92.2488708070611 M 122.6086956521739,78.3288708070611 L 123.78886956521738,92.2488708070611 M 126.08695652173913,78.3288708070611 L 127.44869565217391,92.2488708070611 M 129.56521739130437,78.3288708070611 L 131.10852173913045,92.2488708070611 M 133.04347826086956,78.3288708070611 L 134.76834782608697,92.2488708070611 M 136.5217391304348,78.3288708070611 L 138.4281739130435,92.2488708070611 M 140,78.3288708070611 L 142.088,92.2488708070611" stroke="#979bc4" stroke-width="0.8" fill="none" opacity="0.7"/>
    <path d="M 50,43.5288708070611 Q 65,60.928870807061095 100,78.3288708070611 Q 135,60.928870807061095 150,43.5288708070611" fill="#3275b4" filter="url(#organic)"/>
  </g>
</svg>