<svg xmlns="http://www.w3.org/2000/svg" viewBox="0 0 200 200" width="200" height="200">
  <defs>
    <filter id="organic" x="-5%" y="-5%" width="110%" height="110%">
    <feTurbulence type="fractalNoise" baseFrequency="0.04" numOctaves="3" seed="1" result="noise"/>
    <feDisplacementMap in="SourceGraphic" in2="noise" scale="2" xChannelSelector="R" yChannelSelector="G"/>
  </filter>
  </defs>
  <g>
    <path d="M 95.2,89.68099463800294 Q 94.2,129.84049731900149 94.24,170 L 105.76,170 Q 105.8,129.84049731900149 104.8,89.68099463800294 Z" fill="#979bc4" filter="url(#organic)"/>
    <ellipse cx="100" cy="113.77669624660206" rx="7.199999999999999" ry="2.1599999999999997" fill="none" stroke="currentColor" stroke-width="1.5" opacity="0.6"/>
    <path d="M 65.88,89.68099463800294 L 63.95399999999999,102.52099463800295 M 69.89411764705882,89.68099463800294 L 68.19470588235293,102.52099463800295 M 73.90823529411765,89.68099463800294 L 72.43541176470588,102.52099463800295 M 77.92235294117647,89.68099463800294 L 76.67611764705882,102.52099463800295 M 81.9364705882353,89.68099463800294 L 80.91682352941177,102.52099463800295 M 85.95058823529412,89.68099463800294 L 85.15752941176471,102.52099463800295 M 89.96470588235294,89.68099463800294 L 89.39823529411765,102.52099463800295 M 93.97882352941176,89.68099463800294 L 93.63894117647058,102.52099463800295 M 97.9929411764706,89.68099463800294 L 97.87964705882354,102.52099463800295 M 102.0070588235294,89.68099463800294 L 102.12035294117646,102.52099463800295 M 106.02117647058824,89.68099463800294 L 106.36105882352942,102.52099463800295 M 110.03529411764706,89.68099463800294 L 110.60176470588235,102.52099463800295 M 114.0494117647059,89.68099463800294 L 114.8424705882353,102.52099463800295 M 118.0635294117647,89.68099463800294 L 119.08317647058823,102.52099463800295 M 122.07764705882353,89.68099463800294 L 123.32388235294118,102.52099463800295 M 126.09176470588235,89.68099463800294 L 127.56458823529412,102.52099463800295 M 130.1058823529412,89.68099463800294 L 131.80529411764707,102.52099463800295 M 134.12,89.68099463800294 L 136.046,102.52099463800295" stroke="#979bc4" stroke-width="0.8" fill="none" opacity="0.7"/>
    <path d="M 57.349999999999994,89.68099463800294 Q 57.349999999999994,80.05099463800295 100,76.84099463800294 Q 142.65,80.05099463800295 142.65,89.68099463800294" fill="#3275b4" filter="url(#organic)"/>
    <circle cx="78.7" cy="67.2" r="3" fill="white" opacity="0.85"/>
    <circle cx="112.8" cy="64.0" r="2.5" fill="white" opacity="0.85"/>
    <circle cx="95.7" cy="62.4" r="2" fill="white" opacity="0.85"/>
    <circle cx="125.6" cy="70.4" r="2" fill="white" opacity="0.85"/>
    <circle cx="74.4" cy="73.6" r="1.5" fill="white" opacity="0.85"/>
    <circle cx="104.3" cy="73.6" r="2.5" fill="white" opacity="0.85"/>
  </g>
</svg>