<svg xmlns="http://www.w3.org/2000/svg" viewBox="0 0 200 200" width="200" height="200">
  <defs>
    <filter id="organic" x="-5%" y="-5%" width="110%" height="110%">
    <feTurbulence type="fractalNoise" baseFrequency="0.04" numOctaves="3" seed="1" result="noise"/>
    <feDisplacementMap in="SourceGraphic" in2="noise" scale="2" xChannelSelector="R" yChannelSelector="G"/>
  </filter>
  </defs>
  <g>
    <path d="M 97.2,80.6922319341665 Q 96.2,125.34611596708325 96.64,170 L 103.36,170 Q 103.8,125.34611596708325 102.8,80.6922319341665 Z" fill="#979bc4" filter="url(#organic)"/>
    <path d="M 75.68,80.6922319341665 L 74.159,90.8322319341665 M 82.62857142857143,80.6922319341665 L 81.54214285714286,90.8322319341665 M 89.57714285714286,80.6922319341665 L 88.92528571428572,90.8322319341665 M 96.52571428571429,80.6922319341665 L 96.30842857142858,90.8322319341665 M 103.47428571428571,80.6922319341665 L 103.69157142857142,90.8322319341665 M 110.42285714285715,80.6922319341665 L 111.0747142857143,90.8322319341665 M 117.37142857142857,80.6922319341665 L 118.45785714285714,90.8322319341665 M 124.32000000000001,80.6922319341665 L 125.84100000000001,90.8322319341665" stroke="#979bc4" stroke-width="0.8" fill="none" opacity="0.7"/>
    <path d="M 69.6,80.6922319341665 Q 69.6,73.0872319341665 100,70.5522319341665 Q 130.4,73.0872319341665 130.4,80.6922319341665" fill="#3275b4" filter="url(#organic)"/>
  </g>
</svg>