<svg xmlns="http://www.w3.org/2000/svg" viewBox="0 0 200 200" width="200" height="200">
  <defs>
    <filter id="organic" x="-5%" y="-5%" width="110%" height="110%">
    <feTurbulence type="fractalNoise" baseFrequency="0.04" numOctaves="3" seed="1" result="noise"/>
    <feDisplacementMap in="SourceGraphic" in2="noise" scale="2" xChannelSelector="R" yChannelSelector="G"/>
  </filter>
  </defs>
  <g>
    <path d="M 96,88.6102604330344 Q 95,129.3051302165172 95.2,170 L 104.8,170 Q 105,129.3051302165172 104,88.6102604330344 Z" fill="#979bc4" filter="url(#organic)"/>
    <ellipse cx="100" cy="113.02718230312408" rx="6" ry="1.7999999999999998" fill="none" stroke="currentColor" stroke-width="1.5" opacity="0.6"/>
    <path d="M 69.8,88.6102604330344 L 67.307,105.2302604330344 M 74.44615384615385,88.6102604330344 L 72.3366923076923,105.2302604330344 M 79.09230769230768,88.6102604330344 L 77.3663846153846,105.2302604330344 M 83.73846153846154,88.6102604330344 L 82.39607692307692,105.2302604330344 M 88.38461538461539,88.6102604330344 L 87.42576923076923,105.2302604330344 M 93.03076923076924,88.6102604330344 L 92.45546153846155,105.2302604330344 M 97.67692307692307,88.6102604330344 L 97.48515384615385,105.2302604330344 M 102.32307692307691,88.6102604330344 L 102.51484615384614,105.2302604330344 M 106.96923076923076,88.6102604330344 L 107.54453846153845,105.2302604330344 M 111.61538461538461,88.6102604330344 L 112.57423076923077,105.2302604330344 M 116.26153846153846,88.6102604330344 L 117.60392307692308,105.2302604330344 M 120.90769230769232,88.6102604330344 L 122.6336153846154,105.2302604330344 M 125.55384615384615,88.6102604330344 L 127.6633076923077,105.2302604330344 M 130.2,88.6102604330344 L 132.69299999999998,105.2302604330344" stroke="#979bc4" stroke-width="0.8" fill="none" opacity="0.7"/>
    <path d="M 62.25,88.6102604330344 Q 69.8,59.5252604330344 100,47.060260433034394 Q 130.2,59.5252604330344 137.75,88.6102604330344" fill="#3275b4" filter="url(#organic)"/>
    <circle cx="81.1" cy="59.5" r="3" fill="white" opacity="0.85"/>
    <circle cx="111.3" cy="55.4" r="2.5" fill="white" opacity="0.85"/>
    <circle cx="96.2" cy="53.3" r="2" fill="white" opacity="0.85"/>
    <circle cx="122.7" cy="63.7" r="2" fill="white" opacity="0.85"/>
    <circle cx="77.3" cy="67.8" r="1.5" fill="white" opacity="0.85"/>
    <circle cx="103.8" cy="67.8" r="2.5" fill="white" opacity="0.85"/>
  </g>
</svg>