<svg xmlns="http://www.w3.org/2000/svg" viewBox="0 0 200 200" width="200" height="200">
  <defs>
    <filter id="organic" x="-5%" y="-5%" width="110%" height="110%">
    <feTurbulence type="fractalNoise" baseFrequency="0.04" numOctaves="3" seed="1" result="noise"/>
    <feDisplacementMap in="SourceGraphic" in2="noise" scale="2" xChannelSelector="R" yChannelSelector="G"/>
  </filter>
  </defs>
  <g>
    <path d="M 92,89.0909090909091 Q 91,129.54545454545456 90.4,170 L 109.6,170 Q 109,129.54545454545456 108,89.0909090909091 Z" fill="#a496bf" filter="url(#organic)"/>
    <ellipse cx="100" cy="113.36363636363636" rx="12" ry="3.5999999999999996" fill="none" stroke="currentColor" stroke-width="1.5" opacity="0.6"/>
    <path d="M 60,89.0909090909091 L 58.56,98.69090909090909 M 63.47826086956522,89.0909090909091 L 62.16347826086957,98.69090909090909 M 66.95652173913044,89.0909090909091 L 65.76695652173913,98.69090909090909 M 70.43478260869566,89.0909090909091 L 69.3704347826087,98.69090909090909 M 73.91304347826087,89.0909090909091 L 72.97391304347826,98.69090909090909 M 77.3913043478261,89.0909090909091 L 76.57739130434783,98.69090909090909 M 80.86956521739131,89.0909090909091 L 80.18086956521739,98.69090909090909 M 84.34782608695653,89.0909090909091 L 83.78434782608697,98.69090909090909 M 87.82608695652173,89.0909090909091 L 87.38782608695652,98.69090909090909 M 91.30434782608695,89.0909090909091 L 90.99130434782609,98.69090909090909 M 94.78260869565219,89.0909090909091 L 94.59478260869567,98.69090909090909 M 98.2608695652174,89.0909090909091 L 98.19826086956523,98.69090909090909 M 101.73913043478261,89.0909090909091 L 101.80173913043478,98.69090909090909 M 105.21739130434783,89.0909090909091 L 105.40521739130435,98.69090909090909 M 108.69565217391306,89.0909090909091 L 109.00869565217393,98.69090909090909 M 112.17391304347827,89.0909090909091 L 112.61217391304348,98.69090909090909 M 115.65217391304347,89.0909090909091 L 116.21565217391303,98.69090909090909 M 119.13043478260869,89.0909090909091 L 119.81913043478261,98.69090909090909 M 122.6086956521739,89.0909090909091 L 123.42260869565217,98.69090909090909 M 126.08695652173913,89.0909090909091 L 127.02608695652174,98.69090909090909 M 129.56521739130437,89.0909090909091 L 130.62956521739133,98.69090909090909 M 133.04347826086956,89.0909090909091 L 134.23304347826087,98.69090909090909 M 136.5217391304348,89.0909090909091 L 137.83652173913046,98.69090909090909 M 140,89.0909090909091 L 141.44,98.69090909090909" stroke="#a496bf" stroke-width="0.8" fill="none" opacity="0.7"/>
    <path d="M 50,89.0909090909091 Q 50,81.89090909090909 100,79.4909090909091 Q 150,81.89090909090909 150,89.0909090909091" fill="#576cb7" filter="url(#organic)"/>
  </g>
</svg>