<svg xmlns="http://www.w3.org/2000/svg" viewBox="0 0 200 200" width="200" height="200">
  <defs>
    <filter id="organic" x="-5%" y="-5%" width="110%" height="110%">
    <feTurbulence type="fractalNoise" baseFrequency="0.04" numOctaves="3" seed="1" result="noise"/>
    <feDisplacementMap in="SourceGraphic" in2="noise" scale="2" xChannelSelector="R" yChannelSelector="G"/>
  </filter>
  </defs>
  <g>
    <path d="M 97.2,94.15432183143925 Q 96.2,132.07716091571962 96.64,170 L 103.36,170 Q 103.8,132.07716091571962 102.8,94.15432183143925 Z" fill="#979bc4" filter="url(#organic)"/>
    <path d="M 75.68,94.15432183143925 L 73.997,105.37432183143925 M 82.62857142857143,94.15432183143925 L 81.42642857142857,105.37432183143925 M 89.57714285714286,94.15432183143925 L 88.85585714285715,105.37432183143925 M 96.52571428571429,94.15432183143925 L 96.28528571428572,105.37432183143925 M 103.47428571428571,94.15432183143925 L 103.71471428571428,105.37432183143925 M 110.42285714285715,94.15432183143925 L 111.14414285714287,105.37432183143925 M 117.37142857142857,94.15432183143925 L 118.57357142857143,105.37432183143925 M 124.32000000000001,94.15432183143925 L 126.00300000000001,105.37432183143925" stroke="#979bc4" stroke-width="0.8" fill="none" opacity="0.7"/>
    <path d="M 69.6,94.15432183143925 Q 69.6,66.10432183143925 100,66.10432183143925 Q 130.4,66.10432183143925 130.4,94.15432183143925" fill="#3275b4" filter="url(#organic)"/>
  </g>
</svg>