<svg xmlns="http://www.w3.org/2000/svg" viewBox="0 0 200 200" width="200" height="200">
  <defs>
    <filter id="organic" x="-5%" y="-5%" width="110%" height="110%">
    <feTurbulence type="fractalNoise" baseFrequency="0.04" numOctaves="3" seed="1" result="noise"/>
    <feDisplacementMap in="SourceGraphic" in2="noise" scale="2" xChannelSelector="R" yChannelSelector="G"/>
  </filter>
  </defs>
  <g>
    <path d="M 92,75.69199750244505 Q 91,122.84599875122252 90.4,170 L 109.6,170 Q 109,122.84599875122252 108,75.69199750244505 Z" fill="#78a6bd" filter="url(#organic)"/>
    <ellipse cx="100" cy="103.98439825171153" rx="12" ry="3.5999999999999996" fill="none" stroke="currentColor" stroke-width="1.5" opacity="0.6"/>
    <path d="M 60,75.69199750244505 L 58.56,85.29199750244504 M 63.47826086956522,75.69199750244505 L 62.16347826086957,85.29199750244504 M 66.95652173913044,75.69199750244505 L 65.76695652173913,85.29199750244504 M 70.43478260869566,75.69199750244505 L 69.3704347826087,85.29199750244504 M 73.91304347826087,75.69199750244505 L 72.97391304347826,85.29199750244504 M 77.3913043478261,75.69199750244505 L 76.57739130434783,85.29199750244504 M 80.86956521739131,75.69199750244505 L 80.18086956521739,85.29199750244504 M 84.34782608695653,75.69199750244505 L 83.78434782608697,85.29199750244504 M 87.82608695652173,75.69199750244505 L 87.38782608695652,85.29199750244504 M 91.30434782608695,75.69199750244505 L 90.99130434782609,85.29199750244504 M 94.78260869565219,75.69199750244505 L 94.59478260869567,85.29199750244504 M 98.2608695652174,75.69199750244505 L 98.19826086956523,85.29199750244504 M 101.73913043478261,75.69199750244505 L 101.80173913043478,85.29199750244504 M 105.21739130434783,75.69199750244505 L 105.40521739130435,85.29199750244504 M 108.69565217391306,75.69199750244505 L 109.00869565217393,85.29199750244504 M 112.17391304347827,75.69199750244505 L 112.61217391304348,85.29199750244504 M 115.65217391304347,75.69199750244505 L 116.21565217391303,85.29199750244504 M 119.13043478260869,75.69199750244505 L 119.81913043478261,85.29199750244504 M 122.6086956521739,75.69199750244505 L 123.42260869565217,85.29199750244504 M 126.08695652173913,75.69199750244505 L 127.02608695652174,85.29199750244504 M 129.56521739130437,75.69199750244505 L 130.62956521739133,85.29199750244504 M 133.04347826086956,75.69199750244505 L 134.23304347826087,85.29199750244504 M 136.5217391304348,75.69199750244505 L 137.83652173913046,85.29199750244504 M 140,75.69199750244505 L 141.44,85.29199750244504" stroke="#78a6bd" stroke-width="0.8" fill="none" opacity="0.7"/>
    <path d="M 50,75.69199750244505 Q 50,68.49199750244505 100,66.09199750244505 Q 150,68.49199750244505 150,75.69199750244505" fill="#00858d" filter="url(#organic)"/>
  </g>
</svg>