<svg xmlns="http://www.w3.org/2000/svg" viewBox="0 0 200 200" width="200" height="200">
  <defs>
    <filter id="organic" x="-5%" y="-5%" width="110%" height="110%">
    <feTurbulence type="fractalNoise" baseFrequency="0.04" numOctaves="3" seed="1" result="noise"/>
    <feDisplacementMap in="SourceGraphic" in2="noise" scale="2" xChannelSelector="R" yChannelSelector="G"/>
  </filter>
  </defs>
  <g>
    <path d="M 97.2,85.92997652627837 Q 96.2,127.96498826313919 96.64,170 L 103.36,170 Q 103.8,127.96498826313919 102.8,85.92997652627837 Z" fill="#78a6bd" filter="url(#organic)"/>
    <path d="M 75.68,85.92997652627837 L 74.24000000000001,95.52997652627838 M 82.62857142857143,85.92997652627837 L 81.60000000000001,95.52997652627838 M 89.57714285714286,85.92997652627837 L 88.96000000000001,95.52997652627838 M 96.52571428571429,85.92997652627837 L 96.32000000000001,95.52997652627838 M 103.47428571428571,85.92997652627837 L 103.67999999999999,95.52997652627838 M 110.42285714285715,85.92997652627837 L 111.04,95.52997652627838 M 117.37142857142857,85.92997652627837 L 118.39999999999999,95.52997652627838 M 124.32000000000001,85.92997652627837 L 125.76,95.52997652627838" stroke="#78a6bd" stroke-width="0.8" fill="none" opacity="0.7"/>
    <path d="M 69.6,85.92997652627837 Q 69.6,61.92997652627837 100,61.92997652627837 Q 130.4,61.92997652627837 130.4,85.92997652627837" fill="#00858d" filter="url(#organic)"/>
  </g>
</svg>