<svg xmlns="http://www.w3.org/2000/svg" viewBox="0 0 200 200" width="200" height="200">
  <defs>
    <filter id="organic" x="-5%" y="-5%" width="110%" height="110%">
    <feTurbulence type="fractalNoise" baseFrequency="0.04" numOctaves="3" seed="1" result="noise"/>
    <feDisplacementMap in="SourceGraphic" in2="noise" scale="2" xChannelSelector="R" yChannelSelector="G"/>
  </filter>
  </defs>
  <g>
    <path d="M 95.2,96.52887328363697 Q 94.2,133.2644366418185 94.24,170 L 105.76,170 Q 105.8,133.2644366418185 104.8,96.52887328363697 Z" fill="#979bc4" filter="url(#organic)"/>
    <path d="M 65.88,96.52887328363697 L 63.711,110.98887328363698 M 69.89411764705882,96.52887328363697 L 67.98029411764705,110.98887328363698 M 73.90823529411765,96.52887328363697 L 72.24958823529411,110.98887328363698 M 77.92235294117647,96.52887328363697 L 76.51888235294118,110.98887328363698 M 81.9364705882353,96.52887328363697 L 80.78817647058824,110.98887328363698 M 85.95058823529412,96.52887328363697 L 85.05747058823529,110.98887328363698 M 89.96470588235294,96.52887328363697 L 89.32676470588235,110.98887328363698 M 93.97882352941176,96.52887328363697 L 93.5960588235294,110.98887328363698 M 97.9929411764706,96.52887328363697 L 97.86535294117648,110.98887328363698 M 102.0070588235294,96.52887328363697 L 102.13464705882352,110.98887328363698 M 106.02117647058824,96.52887328363697 L 106.4039411764706,110.98887328363698 M 110.03529411764706,96.52887328363697 L 110.67323529411765,110.98887328363698 M 114.0494117647059,96.52887328363697 L 114.94252941176472,110.98887328363698 M 118.0635294117647,96.52887328363697 L 119.21182352941176,110.98887328363698 M 122.07764705882353,96.52887328363697 L 123.48111764705882,110.98887328363698 M 126.09176470588235,96.52887328363697 L 127.75041176470589,110.98887328363698 M 130.1058823529412,96.52887328363697 L 132.01970588235295,110.98887328363698 M 134.12,96.52887328363697 L 136.28900000000002,110.98887328363698" stroke="#979bc4" stroke-width="0.8" fill="none" opacity="0.7"/>
    <path d="M 57.349999999999994,96.52887328363697 Q 57.349999999999994,85.68387328363697 100,82.06887328363696 Q 142.65,85.68387328363697 142.65,96.52887328363697" fill="#3275b4" filter="url(#organic)"/>
    <circle cx="78.7" cy="71.2" r="3" fill="white" opacity="0.85"/>
    <circle cx="112.8" cy="67.6" r="2.5" fill="white" opacity="0.85"/>
    <circle cx="95.7" cy="65.8" r="2" fill="white" opacity="0.85"/>
    <circle cx="125.6" cy="74.8" r="2" fill="white" opacity="0.85"/>
    <circle cx="74.4" cy="78.5" r="1.5" fill="white" opacity="0.85"/>
    <circle cx="104.3" cy="78.5" r="2.5" fill="white" opacity="0.85"/>
  </g>
</svg>