<svg xmlns="http://www.w3.org/2000/svg" viewBox="0 0 200 200" width="200" height="200">
  <defs>
    <filter id="organic" x="-5%" y="-5%" width="110%" height="110%">
    <feTurbulence type="fractalNoise" baseFrequency="0.04" numOctaves="3" seed="1" result="noise"/>
    <feDisplacementMap in="SourceGraphic" in2="noise" scale="2" xChannelSelector="R" yChannelSelector="G"/>
  </filter>
  </defs>
  <g>
    <path d="M 96.4,96.04077004102943 Q 95.4,133.0203850205147 95.68,170 L 104.32,170 Q 104.6,133.0203850205147 103.6,96.04077004102943 Z" fill="#979bc4" filter="url(#organic)"/>
    <path d="M 71.75999999999999,96.04077004102943 L 70.15799999999999,106.72077004102944 M 76.89454545454545,96.04077004102943 L 75.58381818181817,106.72077004102944 M 82.0290909090909,96.04077004102943 L 81.00963636363635,106.72077004102944 M 87.16363636363636,96.04077004102943 L 86.43545454545453,106.72077004102944 M 92.29818181818182,96.04077004102943 L 91.86127272727272,106.72077004102944 M 97.43272727272726,96.04077004102943 L 97.28709090909089,106.72077004102944 M 102.56727272727272,96.04077004102943 L 102.7129090909091,106.72077004102944 M 107.70181818181817,96.04077004102943 L 108.13872727272727,106.72077004102944 M 112.83636363636364,96.04077004102943 L 113.56454545454547,106.72077004102944 M 117.97090909090909,96.04077004102943 L 118.99036363636364,106.72077004102944 M 123.10545454545453,96.04077004102943 L 124.41618181818181,106.72077004102944 M 128.24,96.04077004102943 L 129.842,106.72077004102944" stroke="#979bc4" stroke-width="0.8" fill="none" opacity="0.7"/>
    <path d="M 64.69999999999999,96.04077004102943 Q 64.69999999999999,88.03077004102943 100,85.36077004102943 Q 135.3,88.03077004102943 135.3,96.04077004102943" fill="#3275b4" filter="url(#organic)"/>
    <circle cx="82.3" cy="77.4" r="3" fill="white" opacity="0.85"/>
    <circle cx="110.6" cy="74.7" r="2.5" fill="white" opacity="0.85"/>
    <circle cx="96.5" cy="73.3" r="2" fill="white" opacity="0.85"/>
    <circle cx="121.2" cy="80.0" r="2" fill="white" opacity="0.85"/>
    <circle cx="78.8" cy="82.7" r="1.5" fill="white" opacity="0.85"/>
    <circle cx="103.5" cy="82.7" r="2.5" fill="white" opacity="0.85"/>
  </g>
</svg>