<svg xmlns="http://www.w3.org/2000/svg" viewBox="0 0 200 200" width="200" height="200">
  <defs>
    <filter id="organic" x="-5%" y="-5%" width="110%" height="110%">
    <feTurbulence type="fractalNoise" baseFrequency="0.04" numOctaves="3" seed="1" result="noise"/>
    <feDisplacementMap in="SourceGraphic" in2="noise" scale="2" xChannelSelector="R" yChannelSelector="G"/>
  </filter>
  </defs>
  <g>
    <path d="M 96,84.4083186198202 Q 95,127.2041593099101 95.2,170 L 104.8,170 Q 105,127.2041593099101 104,84.4083186198202 Z" fill="#979bc4" filter="url(#organic)"/>
    <ellipse cx="100" cy="110.08582303387414" rx="6" ry="1.7999999999999998" fill="none" stroke="currentColor" stroke-width="1.5" opacity="0.6"/>
    <path d="M 69.8,84.4083186198202 L 67.79299999999999,97.78831861982019 M 74.44615384615385,84.4083186198202 L 72.74792307692307,97.78831861982019 M 79.09230769230768,84.4083186198202 L 77.70284615384615,97.78831861982019 M 83.73846153846154,84.4083186198202 L 82.65776923076923,97.78831861982019 M 88.38461538461539,84.4083186198202 L 87.61269230769231,97.78831861982019 M 93.03076923076924,84.4083186198202 L 92.5676153846154,97.78831861982019 M 97.67692307692307,84.4083186198202 L 97.52253846153846,97.78831861982019 M 102.32307692307691,84.4083186198202 L 102.47746153846153,97.78831861982019 M 106.96923076923076,84.4083186198202 L 107.4323846153846,97.78831861982019 M 111.61538461538461,84.4083186198202 L 112.38730769230769,97.78831861982019 M 116.26153846153846,84.4083186198202 L 117.34223076923077,97.78831861982019 M 120.90769230769232,84.4083186198202 L 122.29715384615385,97.78831861982019 M 125.55384615384615,84.4083186198202 L 127.25207692307693,97.78831861982019 M 130.2,84.4083186198202 L 132.207,97.78831861982019" stroke="#979bc4" stroke-width="0.8" fill="none" opacity="0.7"/>
    <path d="M 62.25,84.4083186198202 Q 62.25,74.3733186198202 100,71.0283186198202 Q 137.75,74.3733186198202 137.75,84.4083186198202" fill="#3275b4" filter="url(#organic)"/>
    <circle cx="81.1" cy="61.0" r="3" fill="white" opacity="0.85"/>
    <circle cx="111.3" cy="57.6" r="2.5" fill="white" opacity="0.85"/>
    <circle cx="96.2" cy="56.0" r="2" fill="white" opacity="0.85"/>
    <circle cx="122.7" cy="64.3" r="2" fill="white" opacity="0.85"/>
    <circle cx="77.3" cy="67.7" r="1.5" fill="white" opacity="0.85"/>
    <circle cx="103.8" cy="67.7" r="2.5" fill="white" opacity="0.85"/>
  </g>
</svg>