<svg xmlns="http://www.w3.org/2000/svg" viewBox="0 0 200 200" width="200" height="200">
  <defs>
    <filter id="organic" x="-5%" y="-5%" width="110%" height="110%">
    <feTurbulence type="fractalNoise" baseFrequency="0.04" numOctaves="3" seed="1" result="noise"/>
    <feDisplacementMap in="SourceGraphic" in2="noise" scale="2" xChannelSelector="R" yChannelSelector="G"/>
  </filter>
  </defs>
  <g>
    <path d="M 92,91.57664376180513 Q 91,130.78832188090257 90.4,170 L 109.6,170 Q 109,130.78832188090257 108,91.57664376180513 Z" fill="#979bc4" filter="url(#organic)"/>
    <ellipse cx="100" cy="115.10365063326358" rx="12" ry="3.5999999999999996" fill="none" stroke="currentColor" stroke-width="1.5" opacity="0.6"/>
    <path d="M 60,91.57664376180513 L 58.317,102.79664376180513 M 63.47826086956522,91.57664376180513 L 61.94160869565218,102.79664376180513 M 66.95652173913044,91.57664376180513 L 65.56621739130435,102.79664376180513 M 70.43478260869566,91.57664376180513 L 69.19082608695652,102.79664376180513 M 73.91304347826087,91.57664376180513 L 72.8154347826087,102.79664376180513 M 77.3913043478261,91.57664376180513 L 76.44004347826088,102.79664376180513 M 80.86956521739131,91.57664376180513 L 80.06465217391305,102.79664376180513 M 84.34782608695653,91.57664376180513 L 83.68926086956523,102.79664376180513 M 87.82608695652173,91.57664376180513 L 87.31386956521739,102.79664376180513 M 91.30434782608695,91.57664376180513 L 90.93847826086956,102.79664376180513 M 94.78260869565219,91.57664376180513 L 94.56308695652176,102.79664376180513 M 98.2608695652174,91.57664376180513 L 98.18769565217393,102.79664376180513 M 101.73913043478261,91.57664376180513 L 101.81230434782609,102.79664376180513 M 105.21739130434783,91.57664376180513 L 105.43691304347826,102.79664376180513 M 108.69565217391306,91.57664376180513 L 109.06152173913046,102.79664376180513 M 112.17391304347827,91.57664376180513 L 112.68613043478261,102.79664376180513 M 115.65217391304347,91.57664376180513 L 116.31073913043477,102.79664376180513 M 119.13043478260869,91.57664376180513 L 119.93534782608695,102.79664376180513 M 122.6086956521739,91.57664376180513 L 123.55995652173912,102.79664376180513 M 126.08695652173913,91.57664376180513 L 127.1845652173913,102.79664376180513 M 129.56521739130437,91.57664376180513 L 130.8091739130435,102.79664376180513 M 133.04347826086956,91.57664376180513 L 134.43378260869565,102.79664376180513 M 136.5217391304348,91.57664376180513 L 138.05839130434785,102.79664376180513 M 140,91.57664376180513 L 141.683,102.79664376180513" stroke="#979bc4" stroke-width="0.8" fill="none" opacity="0.7"/>
    <path d="M 50,91.57664376180513 Q 50,83.16164376180512 100,80.35664376180513 Q 150,83.16164376180512 150,91.57664376180513" fill="#3275b4" filter="url(#organic)"/>
  </g>
</svg>