<svg xmlns="http://www.w3.org/2000/svg" viewBox="0 0 200 200" width="200" height="200">
  <defs>
    <filter id="organic" x="-5%" y="-5%" width="110%" height="110%">
    <feTurbulence type="fractalNoise" baseFrequency="0.04" numOctaves="3" seed="1" result="noise"/>
    <feDisplacementMap in="SourceGraphic" in2="noise" scale="2" xChannelSelector="R" yChannelSelector="G"/>
  </filter>
  </defs>
  <g>
    <path d="M 95.2,86.68424088643916 Q 94.2,128.34212044321959 94.24,170 L 105.76,170 Q 105.8,128.34212044321959 104.8,86.68424088643916 Z" fill="#979bc4" filter="url(#organic)"/>
    <ellipse cx="100" cy="111.6789686205074" rx="7.199999999999999" ry="2.1599999999999997" fill="none" stroke="currentColor" stroke-width="1.5" opacity="0.6"/>
    <path d="M 65.88,86.68424088643916 L 64.035,98.98424088643915 M 69.89411764705882,86.68424088643916 L 68.26617647058823,98.98424088643915 M 73.90823529411765,86.68424088643916 L 72.49735294117647,98.98424088643915 M 77.92235294117647,86.68424088643916 L 76.72852941176471,98.98424088643915 M 81.9364705882353,86.68424088643916 L 80.95970588235294,98.98424088643915 M 85.95058823529412,86.68424088643916 L 85.19088235294117,98.98424088643915 M 89.96470588235294,86.68424088643916 L 89.42205882352941,98.98424088643915 M 93.97882352941176,86.68424088643916 L 93.65323529411764,98.98424088643915 M 97.9929411764706,86.68424088643916 L 97.88441176470589,98.98424088643915 M 102.0070588235294,86.68424088643916 L 102.11558823529411,98.98424088643915 M 106.02117647058824,86.68424088643916 L 106.34676470588236,98.98424088643915 M 110.03529411764706,86.68424088643916 L 110.57794117647059,98.98424088643915 M 114.0494117647059,86.68424088643916 L 114.80911764705884,98.98424088643915 M 118.0635294117647,86.68424088643916 L 119.04029411764705,98.98424088643915 M 122.07764705882353,86.68424088643916 L 123.27147058823529,98.98424088643915 M 126.09176470588235,86.68424088643916 L 127.50264705882353,98.98424088643915 M 130.1058823529412,86.68424088643916 L 131.73382352941178,98.98424088643915 M 134.12,86.68424088643916 L 135.965,98.98424088643915" stroke="#979bc4" stroke-width="0.8" fill="none" opacity="0.7"/>
    <path d="M 57.349999999999994,86.68424088643916 Q 57.349999999999994,77.45924088643915 100,74.38424088643916 Q 142.65,77.45924088643915 142.65,86.68424088643916" fill="#3275b4" filter="url(#organic)"/>
  </g>
</svg>