<svg xmlns="http://www.w3.org/2000/svg" viewBox="0 0 200 200" width="200" height="200">
  <defs>
    <filter id="organic" x="-5%" y="-5%" width="110%" height="110%">
    <feTurbulence type="fractalNoise" baseFrequency="0.04" numOctaves="3" seed="1" result="noise"/>
    <feDisplacementMap in="SourceGraphic" in2="noise" scale="2" xChannelSelector="R" yChannelSelector="G"/>
  </filter>
  </defs>
  <g>
    <path d="M 95.2,90.58606642654468 Q 94.2,130.29303321327234 94.24,170 L 105.76,170 Q 105.8,130.29303321327234 104.8,90.58606642654468 Z" fill="#979bc4" filter="url(#organic)"/>
    <ellipse cx="100" cy="114.41024649858127" rx="7.199999999999999" ry="2.1599999999999997" fill="none" stroke="currentColor" stroke-width="1.5" opacity="0.6"/>
    <path d="M 65.88,90.58606642654468 L 63.791999999999994,104.50606642654468 M 69.89411764705882,90.58606642654468 L 68.05176470588235,104.50606642654468 M 73.90823529411765,90.58606642654468 L 72.31152941176471,104.50606642654468 M 77.92235294117647,90.58606642654468 L 76.57129411764706,104.50606642654468 M 81.9364705882353,90.58606642654468 L 80.83105882352942,104.50606642654468 M 85.95058823529412,90.58606642654468 L 85.09082352941176,104.50606642654468 M 89.96470588235294,90.58606642654468 L 89.35058823529413,104.50606642654468 M 93.97882352941176,90.58606642654468 L 93.61035294117646,104.50606642654468 M 97.9929411764706,90.58606642654468 L 97.87011764705883,104.50606642654468 M 102.0070588235294,90.58606642654468 L 102.12988235294117,104.50606642654468 M 106.02117647058824,90.58606642654468 L 106.38964705882354,104.50606642654468 M 110.03529411764706,90.58606642654468 L 110.64941176470587,104.50606642654468 M 114.0494117647059,90.58606642654468 L 114.90917647058825,104.50606642654468 M 118.0635294117647,90.58606642654468 L 119.16894117647058,104.50606642654468 M 122.07764705882353,90.58606642654468 L 123.42870588235294,104.50606642654468 M 126.09176470588235,90.58606642654468 L 127.68847058823529,104.50606642654468 M 130.1058823529412,90.58606642654468 L 131.94823529411767,104.50606642654468 M 134.12,90.58606642654468 L 136.208,104.50606642654468" stroke="#979bc4" stroke-width="0.8" fill="none" opacity="0.7"/>
    <path d="M 57.349999999999994,90.58606642654468 Q 57.349999999999994,80.14606642654468 100,76.66606642654467 Q 142.65,80.14606642654468 142.65,90.58606642654468" fill="#3275b4" filter="url(#organic)"/>
    <circle cx="78.7" cy="66.2" r="3" fill="white" opacity="0.85"/>
    <circle cx="112.8" cy="62.7" r="2.5" fill="white" opacity="0.85"/>
    <circle cx="95.7" cy="61.0" r="2" fill="white" opacity="0.85"/>
    <circle cx="125.6" cy="69.7" r="2" fill="white" opacity="0.85"/>
    <circle cx="74.4" cy="73.2" r="1.5" fill="white" opacity="0.85"/>
    <circle cx="104.3" cy="73.2" r="2.5" fill="white" opacity="0.85"/>
  </g>
</svg>