<svg xmlns="http://www.w3.org/2000/svg" viewBox="0 0 200 200" width="200" height="200">
  <defs>
    <filter id="organic" x="-5%" y="-5%" width="110%" height="110%">
    <feTurbulence type="fractalNoise" baseFrequency="0.04" numOctaves="3" seed="1" result="noise"/>
    <feDisplacementMap in="SourceGraphic" in2="noise" scale="2" xChannelSelector="R" yChannelSelector="G"/>
  </filter>
  </defs>
  <g>
    <path d="M 92,86.17542228158412 Q 91,128.08771114079207 90.4,170 L 109.6,170 Q 109,128.08771114079207 108,86.17542228158412 Z" fill="#979bc4" filter="url(#organic)"/>
    <ellipse cx="100" cy="111.32279559710888" rx="12" ry="3.5999999999999996" fill="none" stroke="currentColor" stroke-width="1.5" opacity="0.6"/>
    <path d="M 60,86.17542228158412 L 57.75,101.17542228158412 M 63.47826086956522,86.17542228158412 L 61.423913043478265,101.17542228158412 M 66.95652173913044,86.17542228158412 L 65.09782608695653,101.17542228158412 M 70.43478260869566,86.17542228158412 L 68.77173913043478,101.17542228158412 M 73.91304347826087,86.17542228158412 L 72.44565217391305,101.17542228158412 M 77.3913043478261,86.17542228158412 L 76.11956521739131,101.17542228158412 M 80.86956521739131,86.17542228158412 L 79.79347826086958,101.17542228158412 M 84.34782608695653,86.17542228158412 L 83.46739130434783,101.17542228158412 M 87.82608695652173,86.17542228158412 L 87.14130434782608,101.17542228158412 M 91.30434782608695,86.17542228158412 L 90.81521739130434,101.17542228158412 M 94.78260869565219,86.17542228158412 L 94.48913043478262,101.17542228158412 M 98.2608695652174,86.17542228158412 L 98.16304347826089,101.17542228158412 M 101.73913043478261,86.17542228158412 L 101.83695652173913,101.17542228158412 M 105.21739130434783,86.17542228158412 L 105.51086956521739,101.17542228158412 M 108.69565217391306,86.17542228158412 L 109.18478260869567,101.17542228158412 M 112.17391304347827,86.17542228158412 L 112.85869565217392,101.17542228158412 M 115.65217391304347,86.17542228158412 L 116.53260869565217,101.17542228158412 M 119.13043478260869,86.17542228158412 L 120.20652173913042,101.17542228158412 M 122.6086956521739,86.17542228158412 L 123.88043478260869,101.17542228158412 M 126.08695652173913,86.17542228158412 L 127.55434782608695,101.17542228158412 M 129.56521739130437,86.17542228158412 L 131.22826086956525,101.17542228158412 M 133.04347826086956,86.17542228158412 L 134.90217391304347,101.17542228158412 M 136.5217391304348,86.17542228158412 L 138.57608695652178,101.17542228158412 M 140,86.17542228158412 L 142.25,101.17542228158412" stroke="#979bc4" stroke-width="0.8" fill="none" opacity="0.7"/>
    <path d="M 50,86.17542228158412 Q 50,74.92542228158412 100,71.17542228158412 Q 150,74.92542228158412 150,86.17542228158412" fill="#3275b4" filter="url(#organic)"/>
  </g>
</svg>