<svg xmlns="http://www.w3.org/2000/svg" viewBox="0 0 200 200" width="200" height="200">
  <defs>
    <filter id="organic" x="-5%" y="-5%" width="110%" height="110%">
    <feTurbulence type="fractalNoise" baseFrequency="0.04" numOctaves="3" seed="1" result="noise"/>
    <feDisplacementMap in="SourceGraphic" in2="noise" scale="2" xChannelSelector="R" yChannelSelector="G"/>
  </filter>
  </defs>
  <g>
    <path d="M 97.2,108.05587328888174 Q 96.2,139.02793664444087 96.64,170 L 103.36,170 Q 103.8,139.02793664444087 102.8,108.05587328888174 Z" fill="#979bc4" filter="url(#organic)"/>
    <path d="M 75.68,108.05587328888174 L 73.997,119.27587328888174 M 82.62857142857143,108.05587328888174 L 81.42642857142857,119.27587328888174 M 89.57714285714286,108.05587328888174 L 88.85585714285715,119.27587328888174 M 96.52571428571429,108.05587328888174 L 96.28528571428572,119.27587328888174 M 103.47428571428571,108.05587328888174 L 103.71471428571428,119.27587328888174 M 110.42285714285715,108.05587328888174 L 111.14414285714287,119.27587328888174 M 117.37142857142857,108.05587328888174 L 118.57357142857143,119.27587328888174 M 124.32000000000001,108.05587328888174 L 126.00300000000001,119.27587328888174" stroke="#979bc4" stroke-width="0.8" fill="none" opacity="0.7"/>
    <path d="M 69.6,108.05587328888174 Q 75.67999999999999,88.42087328888175 100,80.00587328888174 Q 124.32000000000001,88.42087328888175 130.4,108.05587328888174" fill="#3275b4" filter="url(#organic)"/>
  </g>
</svg>