<svg xmlns="http://www.w3.org/2000/svg" viewBox="0 0 200 200" width="200" height="200">
  <defs>
    <filter id="organic" x="-5%" y="-5%" width="110%" height="110%">
    <feTurbulence type="fractalNoise" baseFrequency="0.04" numOctaves="3" seed="1" result="noise"/>
    <feDisplacementMap in="SourceGraphic" in2="noise" scale="2" xChannelSelector="R" yChannelSelector="G"/>
  </filter>
  </defs>
  <g>
    <path d="M 96,62.42746179779505 Q 95,116.21373089889752 95.2,170 L 104.8,170 Q 105,116.21373089889752 104,62.42746179779505 Z" fill="#78a6bd" filter="url(#organic)"/>
    <path d="M 69.8,62.42746179779505 L 68.36,72.02746179779504 M 74.44615384615385,62.42746179779505 L 73.22769230769231,72.02746179779504 M 79.09230769230768,62.42746179779505 L 78.0953846153846,72.02746179779504 M 83.73846153846154,62.42746179779505 L 82.96307692307693,72.02746179779504 M 88.38461538461539,62.42746179779505 L 87.83076923076923,72.02746179779504 M 93.03076923076924,62.42746179779505 L 92.69846153846154,72.02746179779504 M 97.67692307692307,62.42746179779505 L 97.56615384615384,72.02746179779504 M 102.32307692307691,62.42746179779505 L 102.43384615384615,72.02746179779504 M 106.96923076923076,62.42746179779505 L 107.30153846153846,72.02746179779504 M 111.61538461538461,62.42746179779505 L 112.16923076923077,72.02746179779504 M 116.26153846153846,62.42746179779505 L 117.03692307692307,72.02746179779504 M 120.90769230769232,62.42746179779505 L 121.9046153846154,72.02746179779504 M 125.55384615384615,62.42746179779505 L 126.77230769230769,72.02746179779504 M 130.2,62.42746179779505 L 131.64,72.02746179779504" stroke="#78a6bd" stroke-width="0.8" fill="none" opacity="0.7"/>
    <path d="M 62.25,62.42746179779505 Q 62.25,55.227461797795044 100,52.827461797795046 Q 137.75,55.227461797795044 137.75,62.42746179779505" fill="#00858d" filter="url(#organic)"/>
  </g>
</svg>