<svg xmlns="http://www.w3.org/2000/svg" viewBox="0 0 200 200" width="200" height="200">
  <defs>
    <filter id="organic" x="-5%" y="-5%" width="110%" height="110%">
    <feTurbulence type="fractalNoise" baseFrequency="0.04" numOctaves="3" seed="1" result="noise"/>
    <feDisplacementMap in="SourceGraphic" in2="noise" scale="2" xChannelSelector="R" yChannelSelector="G"/>
  </filter>
  </defs>
  <g>
    <path d="M 96,110.9090909090909 Q 95,140.45454545454544 95.2,170 L 104.8,170 Q 105,140.45454545454544 104,110.9090909090909 Z" fill="#73aba3" filter="url(#organic)"/>
    <ellipse cx="100" cy="128.63636363636363" rx="6" ry="1.7999999999999998" fill="none" stroke="currentColor" stroke-width="1.5" opacity="0.6"/>
    <path d="M 69.8,110.9090909090909 L 68.36,120.5090909090909 M 74.44615384615385,110.9090909090909 L 73.22769230769231,120.5090909090909 M 79.09230769230768,110.9090909090909 L 78.0953846153846,120.5090909090909 M 83.73846153846154,110.9090909090909 L 82.96307692307693,120.5090909090909 M 88.38461538461539,110.9090909090909 L 87.83076923076923,120.5090909090909 M 93.03076923076924,110.9090909090909 L 92.69846153846154,120.5090909090909 M 97.67692307692307,110.9090909090909 L 97.56615384615384,120.5090909090909 M 102.32307692307691,110.9090909090909 L 102.43384615384615,120.5090909090909 M 106.96923076923076,110.9090909090909 L 107.30153846153846,120.5090909090909 M 111.61538461538461,110.9090909090909 L 112.16923076923077,120.5090909090909 M 116.26153846153846,110.9090909090909 L 117.03692307692307,120.5090909090909 M 120.90769230769232,110.9090909090909 L 121.9046153846154,120.5090909090909 M 125.55384615384615,110.9090909090909 L 126.77230769230769,120.5090909090909 M 130.2,110.9090909090909 L 131.64,120.5090909090909" stroke="#73aba3" stroke-width="0.8" fill="none" opacity="0.7"/>
    <path d="M 62.25,110.9090909090909 Q 62.25,103.7090909090909 100,101.30909090909091 Q 137.75,103.7090909090909 137.75,110.9090909090909" fill="#258651" filter="url(#organic)"/>
  </g>
</svg>