<svg xmlns="http://www.w3.org/2000/svg" viewBox="0 0 200 200" width="200" height="200">
  <defs>
    <filter id="organic" x="-5%" y="-5%" width="110%" height="110%">
    <feTurbulence type="fractalNoise" baseFrequency="0.04" numOctaves="3" seed="1" result="noise"/>
    <feDisplacementMap in="SourceGraphic" in2="noise" scale="2" xChannelSelector="R" yChannelSelector="G"/>
  </filter>
  </defs>
  <g>
    <path d="M 92,67.33438657399495 Q 91,118.66719328699747 90.4,170 L 109.6,170 Q 109,118.66719328699747 108,67.33438657399495 Z" fill="#78a6bd" filter="url(#organic)"/>
    <ellipse cx="100" cy="98.13407060179647" rx="12" ry="3.5999999999999996" fill="none" stroke="currentColor" stroke-width="1.5" opacity="0.6"/>
    <path d="M 60,67.33438657399495 L 58.56,76.93438657399494 M 63.47826086956522,67.33438657399495 L 62.16347826086957,76.93438657399494 M 66.95652173913044,67.33438657399495 L 65.76695652173913,76.93438657399494 M 70.43478260869566,67.33438657399495 L 69.3704347826087,76.93438657399494 M 73.91304347826087,67.33438657399495 L 72.97391304347826,76.93438657399494 M 77.3913043478261,67.33438657399495 L 76.57739130434783,76.93438657399494 M 80.86956521739131,67.33438657399495 L 80.18086956521739,76.93438657399494 M 84.34782608695653,67.33438657399495 L 83.78434782608697,76.93438657399494 M 87.82608695652173,67.33438657399495 L 87.38782608695652,76.93438657399494 M 91.30434782608695,67.33438657399495 L 90.99130434782609,76.93438657399494 M 94.78260869565219,67.33438657399495 L 94.59478260869567,76.93438657399494 M 98.2608695652174,67.33438657399495 L 98.19826086956523,76.93438657399494 M 101.73913043478261,67.33438657399495 L 101.80173913043478,76.93438657399494 M 105.21739130434783,67.33438657399495 L 105.40521739130435,76.93438657399494 M 108.69565217391306,67.33438657399495 L 109.00869565217393,76.93438657399494 M 112.17391304347827,67.33438657399495 L 112.61217391304348,76.93438657399494 M 115.65217391304347,67.33438657399495 L 116.21565217391303,76.93438657399494 M 119.13043478260869,67.33438657399495 L 119.81913043478261,76.93438657399494 M 122.6086956521739,67.33438657399495 L 123.42260869565217,76.93438657399494 M 126.08695652173913,67.33438657399495 L 127.02608695652174,76.93438657399494 M 129.56521739130437,67.33438657399495 L 130.62956521739133,76.93438657399494 M 133.04347826086956,67.33438657399495 L 134.23304347826087,76.93438657399494 M 136.5217391304348,67.33438657399495 L 137.83652173913046,76.93438657399494 M 140,67.33438657399495 L 141.44,76.93438657399494" stroke="#78a6bd" stroke-width="0.8" fill="none" opacity="0.7"/>
    <path d="M 50,57.734386573994946 Q 65,67.33438657399495 100,62.53438657399495 Q 135,67.33438657399495 150,57.734386573994946" fill="#00858d" filter="url(#organic)"/>
  </g>
</svg>