<svg xmlns="http://www.w3.org/2000/svg" viewBox="0 0 200 200" width="200" height="200">
  <defs>
    <filter id="organic" x="-5%" y="-5%" width="110%" height="110%">
    <feTurbulence type="fractalNoise" baseFrequency="0.04" numOctaves="3" seed="1" result="noise"/>
    <feDisplacementMap in="SourceGraphic" in2="noise" scale="2" xChannelSelector="R" yChannelSelector="G"/>
  </filter>
  </defs>
  <g>
    <path d="M 96,85.0018732783922 Q 95,127.5009366391961 95.2,170 L 104.8,170 Q 105,127.5009366391961 104,85.0018732783922 Z" fill="#84a98b" filter="url(#organic)"/>
    <ellipse cx="100" cy="110.50131129487454" rx="6" ry="1.7999999999999998" fill="none" stroke="currentColor" stroke-width="1.5" opacity="0.6"/>
    <path d="M 69.8,85.0018732783922 L 68.36,94.60187327839219 M 74.44615384615385,85.0018732783922 L 73.22769230769231,94.60187327839219 M 79.09230769230768,85.0018732783922 L 78.0953846153846,94.60187327839219 M 83.73846153846154,85.0018732783922 L 82.96307692307693,94.60187327839219 M 88.38461538461539,85.0018732783922 L 87.83076923076923,94.60187327839219 M 93.03076923076924,85.0018732783922 L 92.69846153846154,94.60187327839219 M 97.67692307692307,85.0018732783922 L 97.56615384615384,94.60187327839219 M 102.32307692307691,85.0018732783922 L 102.43384615384615,94.60187327839219 M 106.96923076923076,85.0018732783922 L 107.30153846153846,94.60187327839219 M 111.61538461538461,85.0018732783922 L 112.16923076923077,94.60187327839219 M 116.26153846153846,85.0018732783922 L 117.03692307692307,94.60187327839219 M 120.90769230769232,85.0018732783922 L 121.9046153846154,94.60187327839219 M 125.55384615384615,85.0018732783922 L 126.77230769230769,94.60187327839219 M 130.2,85.0018732783922 L 131.64,94.60187327839219" stroke="#84a98b" stroke-width="0.8" fill="none" opacity="0.7"/>
    <path d="M 62.25,85.0018732783922 Q 62.25,77.8018732783922 100,75.4018732783922 Q 137.75,77.8018732783922 137.75,85.0018732783922" fill="#697b1a" filter="url(#organic)"/>
    <circle cx="81.1" cy="68.2" r="3" fill="white" opacity="0.85"/>
    <circle cx="111.3" cy="65.8" r="2.5" fill="white" opacity="0.85"/>
    <circle cx="96.2" cy="64.6" r="2" fill="white" opacity="0.85"/>
    <circle cx="122.7" cy="70.6" r="2" fill="white" opacity="0.85"/>
    <circle cx="77.3" cy="73.0" r="1.5" fill="white" opacity="0.85"/>
    <circle cx="103.8" cy="73.0" r="2.5" fill="white" opacity="0.85"/>
  </g>
</svg>