<svg xmlns="http://www.w3.org/2000/svg" viewBox="0 0 200 200" width="200" height="200">
  <defs>
    <filter id="organic" x="-5%" y="-5%" width="110%" height="110%">
    <feTurbulence type="fractalNoise" baseFrequency="0.04" numOctaves="3" seed="1" result="noise"/>
    <feDisplacementMap in="SourceGraphic" in2="noise" scale="2" xChannelSelector="R" yChannelSelector="G"/>
  </filter>
  </defs>
  <g>
    <path d="M 96,87.15064334040072 Q 95,128.57532167020037 95.2,170 L 104.8,170 Q 105,128.57532167020037 104,87.15064334040072 Z" fill="#78a6bd" filter="url(#organic)"/>
    <ellipse cx="100" cy="112.0054503382805" rx="6" ry="1.7999999999999998" fill="none" stroke="currentColor" stroke-width="1.5" opacity="0.6"/>
    <path d="M 69.8,87.15064334040072 L 68.36,96.75064334040073 M 74.44615384615385,87.15064334040072 L 73.22769230769231,96.75064334040073 M 79.09230769230768,87.15064334040072 L 78.0953846153846,96.75064334040073 M 83.73846153846154,87.15064334040072 L 82.96307692307693,96.75064334040073 M 88.38461538461539,87.15064334040072 L 87.83076923076923,96.75064334040073 M 93.03076923076924,87.15064334040072 L 92.69846153846154,96.75064334040073 M 97.67692307692307,87.15064334040072 L 97.56615384615384,96.75064334040073 M 102.32307692307691,87.15064334040072 L 102.43384615384615,96.75064334040073 M 106.96923076923076,87.15064334040072 L 107.30153846153846,96.75064334040073 M 111.61538461538461,87.15064334040072 L 112.16923076923077,96.75064334040073 M 116.26153846153846,87.15064334040072 L 117.03692307692307,96.75064334040073 M 120.90769230769232,87.15064334040072 L 121.9046153846154,96.75064334040073 M 125.55384615384615,87.15064334040072 L 126.77230769230769,96.75064334040073 M 130.2,87.15064334040072 L 131.64,96.75064334040073" stroke="#78a6bd" stroke-width="0.8" fill="none" opacity="0.7"/>
    <path d="M 62.25,87.15064334040072 Q 62.25,79.95064334040072 100,77.55064334040071 Q 137.75,79.95064334040072 137.75,87.15064334040072" fill="#00858d" filter="url(#organic)"/>
  </g>
</svg>