<svg xmlns="http://www.w3.org/2000/svg" viewBox="0 0 200 200" width="200" height="200">
  <defs>
    <filter id="organic" x="-5%" y="-5%" width="110%" height="110%">
    <feTurbulence type="fractalNoise" baseFrequency="0.04" numOctaves="3" seed="1" result="noise"/>
    <feDisplacementMap in="SourceGraphic" in2="noise" scale="2" xChannelSelector="R" yChannelSelector="G"/>
  </filter>
  </defs>
  <g>
    <path d="M 92,88.15066896767297 Q 91,129.07533448383649 90.4,170 L 109.6,170 Q 109,129.07533448383649 108,88.15066896767297 Z" fill="#979bc4" filter="url(#organic)"/>
    <path d="M 60,88.15066896767297 L 56.859,109.09066896767297 M 63.47826086956522,88.15066896767297 L 60.61039130434783,109.09066896767297 M 66.95652173913044,88.15066896767297 L 64.36178260869565,109.09066896767297 M 70.43478260869566,88.15066896767297 L 68.11317391304348,109.09066896767297 M 73.91304347826087,88.15066896767297 L 71.86456521739132,109.09066896767297 M 77.3913043478261,88.15066896767297 L 75.61595652173914,109.09066896767297 M 80.86956521739131,88.15066896767297 L 79.36734782608697,109.09066896767297 M 84.34782608695653,88.15066896767297 L 83.11873913043479,109.09066896767297 M 87.82608695652173,88.15066896767297 L 86.87013043478261,109.09066896767297 M 91.30434782608695,88.15066896767297 L 90.62152173913043,109.09066896767297 M 94.78260869565219,88.15066896767297 L 94.37291304347828,109.09066896767297 M 98.2608695652174,88.15066896767297 L 98.1243043478261,109.09066896767297 M 101.73913043478261,88.15066896767297 L 101.87569565217392,109.09066896767297 M 105.21739130434783,88.15066896767297 L 105.62708695652174,109.09066896767297 M 108.69565217391306,88.15066896767297 L 109.37847826086958,109.09066896767297 M 112.17391304347827,88.15066896767297 L 113.12986956521739,109.09066896767297 M 115.65217391304347,88.15066896767297 L 116.88126086956521,109.09066896767297 M 119.13043478260869,88.15066896767297 L 120.63265217391303,109.09066896767297 M 122.6086956521739,88.15066896767297 L 124.38404347826086,109.09066896767297 M 126.08695652173913,88.15066896767297 L 128.13543478260868,109.09066896767297 M 129.56521739130437,88.15066896767297 L 131.88682608695655,109.09066896767297 M 133.04347826086956,88.15066896767297 L 135.63821739130435,109.09066896767297 M 136.5217391304348,88.15066896767297 L 139.3896086956522,109.09066896767297 M 140,88.15066896767297 L 143.141,109.09066896767297" stroke="#979bc4" stroke-width="0.8" fill="none" opacity="0.7"/>
    <path d="M 50,88.15066896767297 Q 50,67.21066896767297 85,56.740668967672974 L 100,35.80066896767297 L 115,56.740668967672974 Q 150,67.21066896767297 150,88.15066896767297" fill="#3275b4" filter="url(#organic)"/>
  </g>
</svg>