<svg xmlns="http://www.w3.org/2000/svg" viewBox="0 0 200 200" width="200" height="200">
  <defs>
    <filter id="organic" x="-5%" y="-5%" width="110%" height="110%">
    <feTurbulence type="fractalNoise" baseFrequency="0.04" numOctaves="3" seed="1" result="noise"/>
    <feDisplacementMap in="SourceGraphic" in2="noise" scale="2" xChannelSelector="R" yChannelSelector="G"/>
  </filter>
  </defs>
  <g>
    <path d="M 96,91.89301931552576 Q 95,130.94650965776287 95.2,170 L 104.8,170 Q 105,130.94650965776287 104,91.89301931552576 Z" fill="#979bc4" filter="url(#organic)"/>
    <ellipse cx="100" cy="115.32511352086803" rx="6" ry="1.7999999999999998" fill="none" stroke="currentColor" stroke-width="1.5" opacity="0.6"/>
    <path d="M 69.8,91.89301931552576 L 67.955,104.19301931552576 M 74.44615384615385,91.89301931552576 L 72.885,104.19301931552576 M 79.09230769230768,91.89301931552576 L 77.815,104.19301931552576 M 83.73846153846154,91.89301931552576 L 82.745,104.19301931552576 M 88.38461538461539,91.89301931552576 L 87.675,104.19301931552576 M 93.03076923076924,91.89301931552576 L 92.605,104.19301931552576 M 97.67692307692307,91.89301931552576 L 97.535,104.19301931552576 M 102.32307692307691,91.89301931552576 L 102.46499999999999,104.19301931552576 M 106.96923076923076,91.89301931552576 L 107.395,104.19301931552576 M 111.61538461538461,91.89301931552576 L 112.325,104.19301931552576 M 116.26153846153846,91.89301931552576 L 117.25500000000001,104.19301931552576 M 120.90769230769232,91.89301931552576 L 122.185,104.19301931552576 M 125.55384615384615,91.89301931552576 L 127.115,104.19301931552576 M 130.2,91.89301931552576 L 132.045,104.19301931552576" stroke="#979bc4" stroke-width="0.8" fill="none" opacity="0.7"/>
    <path d="M 62.25,61.14301931552576 Q 73.575,76.51801931552576 100,91.89301931552576 Q 126.425,76.51801931552576 137.75,61.14301931552576" fill="#3275b4" filter="url(#organic)"/>
  </g>
</svg>