<svg xmlns="http://www.w3.org/2000/svg" viewBox="0 0 200 200" width="200" height="200">
  <defs>
    <filter id="organic" x="-5%" y="-5%" width="110%" height="110%">
    <feTurbulence type="fractalNoise" baseFrequency="0.04" numOctaves="3" seed="1" result="noise"/>
    <feDisplacementMap in="SourceGraphic" in2="noise" scale="2" xChannelSelector="R" yChannelSelector="G"/>
  </filter>
  </defs>
  <g>
    <path d="M 96.8,80.11912962356581 Q 95.8,125.0595648117829 96.16,170 L 103.84,170 Q 104.2,125.0595648117829 103.2,80.11912962356581 Z" fill="#979bc4" filter="url(#organic)"/>
    <ellipse cx="100" cy="107.08339073649607" rx="4.800000000000001" ry="1.4400000000000002" fill="none" stroke="currentColor" stroke-width="1.5" opacity="0.6"/>
    <path d="M 73.72,80.11912962356581 L 71.956,91.87912962356582 M 79.56,80.11912962356581 L 78.188,91.87912962356582 M 85.4,80.11912962356581 L 84.42,91.87912962356582 M 91.24,80.11912962356581 L 90.652,91.87912962356582 M 97.08,80.11912962356581 L 96.884,91.87912962356582 M 102.92,80.11912962356581 L 103.116,91.87912962356582 M 108.75999999999999,80.11912962356581 L 109.34799999999998,91.87912962356582 M 114.6,80.11912962356581 L 115.58,91.87912962356582 M 120.44,80.11912962356581 L 121.812,91.87912962356582 M 126.28,80.11912962356581 L 128.044,91.87912962356582" stroke="#979bc4" stroke-width="0.8" fill="none" opacity="0.7"/>
    <path d="M 67.15,80.11912962356581 Q 67.15,71.29912962356582 100,68.3591296235658 Q 132.85,71.29912962356582 132.85,80.11912962356581" fill="#3275b4" filter="url(#organic)"/>
  </g>
</svg>