<svg xmlns="http://www.w3.org/2000/svg" viewBox="0 0 200 200" width="200" height="200">
  <defs>
    <filter id="organic" x="-5%" y="-5%" width="110%" height="110%">
    <feTurbulence type="fractalNoise" baseFrequency="0.04" numOctaves="3" seed="1" result="noise"/>
    <feDisplacementMap in="SourceGraphic" in2="noise" scale="2" xChannelSelector="R" yChannelSelector="G"/>
  </filter>
  </defs>
  <g>
    <path d="M 95.6,83.89639623515548 Q 94.6,126.94819811757773 94.72,170 L 105.28,170 Q 105.4,126.94819811757773 104.4,83.89639623515548 Z" fill="#979bc4" filter="url(#organic)"/>
    <ellipse cx="100" cy="109.72747736460883" rx="6.6000000000000005" ry="1.98" fill="none" stroke="currentColor" stroke-width="1.5" opacity="0.6"/>
    <path d="M 67.84,83.89639623515548 L 64.94200000000001,103.21639623515549 M 72.128,83.89639623515548 L 69.6164,103.21639623515549 M 76.416,83.89639623515548 L 74.29079999999999,103.21639623515549 M 80.70400000000001,83.89639623515548 L 78.96520000000001,103.21639623515549 M 84.992,83.89639623515548 L 83.6396,103.21639623515549 M 89.28,83.89639623515548 L 88.31400000000001,103.21639623515549 M 93.56800000000001,83.89639623515548 L 92.98840000000001,103.21639623515549 M 97.85600000000001,83.89639623515548 L 97.6628,103.21639623515549 M 102.144,83.89639623515548 L 102.33720000000001,103.21639623515549 M 106.43200000000002,83.89639623515548 L 107.01160000000002,103.21639623515549 M 110.72,83.89639623515548 L 111.68599999999999,103.21639623515549 M 115.00800000000001,83.89639623515548 L 116.36040000000001,103.21639623515549 M 119.29600000000002,83.89639623515548 L 121.03480000000002,103.21639623515549 M 123.584,83.89639623515548 L 125.70920000000001,103.21639623515549 M 127.87200000000001,83.89639623515548 L 130.3836,103.21639623515549 M 132.16000000000003,83.89639623515548 L 135.05800000000002,103.21639623515549" stroke="#979bc4" stroke-width="0.8" fill="none" opacity="0.7"/>
    <path d="M 59.8,83.89639623515548 Q 59.8,64.57639623515547 87.94,54.91639623515548 L 100,35.59639623515548 L 112.06,54.91639623515548 Q 140.2,64.57639623515547 140.2,83.89639623515548" fill="#3275b4" filter="url(#organic)"/>
    <circle cx="79.9" cy="50.1" r="3" fill="white" opacity="0.85"/>
    <circle cx="112.1" cy="45.3" r="2.5" fill="white" opacity="0.85"/>
    <circle cx="96.0" cy="42.8" r="2" fill="white" opacity="0.85"/>
    <circle cx="124.1" cy="54.9" r="2" fill="white" opacity="0.85"/>
    <circle cx="75.9" cy="59.7" r="1.5" fill="white" opacity="0.85"/>
    <circle cx="104.0" cy="59.7" r="2.5" fill="white" opacity="0.85"/>
  </g>
</svg>