<svg xmlns="http://www.w3.org/2000/svg" viewBox="0 0 200 200" width="200" height="200">
  <defs>
    <filter id="organic" x="-5%" y="-5%" width="110%" height="110%">
    <feTurbulence type="fractalNoise" baseFrequency="0.04" numOctaves="3" seed="1" result="noise"/>
    <feDisplacementMap in="SourceGraphic" in2="noise" scale="2" xChannelSelector="R" yChannelSelector="G"/>
  </filter>
  </defs>
  <g>
    <path d="M 92,91.57664376180513 Q 91,130.78832188090257 90.4,170 L 109.6,170 Q 109,130.78832188090257 108,91.57664376180513 Z" fill="#979bc4" filter="url(#organic)"/>
    <path d="M 60,91.57664376180513 L 57.75,106.57664376180513 M 63.47826086956522,91.57664376180513 L 61.423913043478265,106.57664376180513 M 66.95652173913044,91.57664376180513 L 65.09782608695653,106.57664376180513 M 70.43478260869566,91.57664376180513 L 68.77173913043478,106.57664376180513 M 73.91304347826087,91.57664376180513 L 72.44565217391305,106.57664376180513 M 77.3913043478261,91.57664376180513 L 76.11956521739131,106.57664376180513 M 80.86956521739131,91.57664376180513 L 79.79347826086958,106.57664376180513 M 84.34782608695653,91.57664376180513 L 83.46739130434783,106.57664376180513 M 87.82608695652173,91.57664376180513 L 87.14130434782608,106.57664376180513 M 91.30434782608695,91.57664376180513 L 90.81521739130434,106.57664376180513 M 94.78260869565219,91.57664376180513 L 94.48913043478262,106.57664376180513 M 98.2608695652174,91.57664376180513 L 98.16304347826089,106.57664376180513 M 101.73913043478261,91.57664376180513 L 101.83695652173913,106.57664376180513 M 105.21739130434783,91.57664376180513 L 105.51086956521739,106.57664376180513 M 108.69565217391306,91.57664376180513 L 109.18478260869567,106.57664376180513 M 112.17391304347827,91.57664376180513 L 112.85869565217392,106.57664376180513 M 115.65217391304347,91.57664376180513 L 116.53260869565217,106.57664376180513 M 119.13043478260869,91.57664376180513 L 120.20652173913042,106.57664376180513 M 122.6086956521739,91.57664376180513 L 123.88043478260869,106.57664376180513 M 126.08695652173913,91.57664376180513 L 127.55434782608695,106.57664376180513 M 129.56521739130437,91.57664376180513 L 131.22826086956525,106.57664376180513 M 133.04347826086956,91.57664376180513 L 134.90217391304347,106.57664376180513 M 136.5217391304348,91.57664376180513 L 138.57608695652178,106.57664376180513 M 140,91.57664376180513 L 142.25,106.57664376180513" stroke="#979bc4" stroke-width="0.8" fill="none" opacity="0.7"/>
    <path d="M 50,91.57664376180513 Q 50,80.32664376180513 100,76.57664376180513 Q 150,80.32664376180513 150,91.57664376180513" fill="#3275b4" filter="url(#organic)"/>
  </g>
</svg>