<svg xmlns="http://www.w3.org/2000/svg" viewBox="0 0 200 200" width="200" height="200">
  <defs>
    <filter id="organic" x="-5%" y="-5%" width="110%" height="110%">
    <feTurbulence type="fractalNoise" baseFrequency="0.04" numOctaves="3" seed="1" result="noise"/>
    <feDisplacementMap in="SourceGraphic" in2="noise" scale="2" xChannelSelector="R" yChannelSelector="G"/>
  </filter>
  </defs>
  <g>
    <path d="M 95.2,96.69675410627727 Q 94.2,133.34837705313862 94.24,170 L 105.76,170 Q 105.8,133.34837705313862 104.8,96.69675410627727 Z" fill="#979bc4" filter="url(#organic)"/>
    <ellipse cx="100" cy="118.68772787439408" rx="7.199999999999999" ry="2.1599999999999997" fill="none" stroke="currentColor" stroke-width="1.5" opacity="0.6"/>
    <path d="M 65.88,96.69675410627727 L 63.873,110.07675410627726 M 69.89411764705882,96.69675410627727 L 68.12323529411765,110.07675410627726 M 73.90823529411765,96.69675410627727 L 72.37347058823529,110.07675410627726 M 77.92235294117647,96.69675410627727 L 76.62370588235294,110.07675410627726 M 81.9364705882353,96.69675410627727 L 80.8739411764706,110.07675410627726 M 85.95058823529412,96.69675410627727 L 85.12417647058824,110.07675410627726 M 89.96470588235294,96.69675410627727 L 89.37441176470588,110.07675410627726 M 93.97882352941176,96.69675410627727 L 93.62464705882353,110.07675410627726 M 97.9929411764706,96.69675410627727 L 97.87488235294119,110.07675410627726 M 102.0070588235294,96.69675410627727 L 102.12511764705881,110.07675410627726 M 106.02117647058824,96.69675410627727 L 106.37535294117647,110.07675410627726 M 110.03529411764706,96.69675410627727 L 110.62558823529412,110.07675410627726 M 114.0494117647059,96.69675410627727 L 114.87582352941178,110.07675410627726 M 118.0635294117647,96.69675410627727 L 119.1260588235294,110.07675410627726 M 122.07764705882353,96.69675410627727 L 123.37629411764706,110.07675410627726 M 126.09176470588235,96.69675410627727 L 127.62652941176471,110.07675410627726 M 130.1058823529412,96.69675410627727 L 131.87676470588238,110.07675410627726 M 134.12,96.69675410627727 L 136.127,110.07675410627726" stroke="#979bc4" stroke-width="0.8" fill="none" opacity="0.7"/>
    <path d="M 57.349999999999994,96.69675410627727 Q 57.349999999999994,86.66175410627727 100,83.31675410627727 Q 142.65,86.66175410627727 142.65,96.69675410627727" fill="#3275b4" filter="url(#organic)"/>
  </g>
</svg>