<svg xmlns="http://www.w3.org/2000/svg" viewBox="0 0 200 200" width="200" height="200">
  <defs>
    <filter id="organic" x="-5%" y="-5%" width="110%" height="110%">
    <feTurbulence type="fractalNoise" baseFrequency="0.04" numOctaves="3" seed="1" result="noise"/>
    <feDisplacementMap in="SourceGraphic" in2="noise" scale="2" xChannelSelector="R" yChannelSelector="G"/>
  </filter>
  </defs>
  <g>
    <path d="M 96,121.20027272202796 Q 95,145.600136361014 95.2,170 L 104.8,170 Q 105,145.600136361014 104,121.20027272202796 Z" fill="#979bc4" filter="url(#organic)"/>
    <path d="M 69.8,121.20027272202796 L 68.279,131.34027272202798 M 74.44615384615385,121.20027272202796 L 73.15915384615384,131.34027272202798 M 79.09230769230768,121.20027272202796 L 78.03930769230769,131.34027272202798 M 83.73846153846154,121.20027272202796 L 82.91946153846153,131.34027272202798 M 88.38461538461539,121.20027272202796 L 87.7996153846154,131.34027272202798 M 93.03076923076924,121.20027272202796 L 92.67976923076924,131.34027272202798 M 97.67692307692307,121.20027272202796 L 97.55992307692307,131.34027272202798 M 102.32307692307691,121.20027272202796 L 102.44007692307692,131.34027272202798 M 106.96923076923076,121.20027272202796 L 107.32023076923076,131.34027272202798 M 111.61538461538461,121.20027272202796 L 112.2003846153846,131.34027272202798 M 116.26153846153846,121.20027272202796 L 117.08053846153847,131.34027272202798 M 120.90769230769232,121.20027272202796 L 121.96069230769231,131.34027272202798 M 125.55384615384615,121.20027272202796 L 126.84084615384616,131.34027272202798 M 130.2,121.20027272202796 L 131.72099999999998,131.34027272202798" stroke="#979bc4" stroke-width="0.8" fill="none" opacity="0.7"/>
    <path d="M 62.25,121.20027272202796 Q 69.8,103.45527272202797 100,95.85027272202797 Q 130.2,103.45527272202797 137.75,121.20027272202796" fill="#3275b4" filter="url(#organic)"/>
  </g>
</svg>