<svg xmlns="http://www.w3.org/2000/svg" viewBox="0 0 200 200" width="200" height="200">
  <defs>
    <filter id="organic" x="-5%" y="-5%" width="110%" height="110%">
    <feTurbulence type="fractalNoise" baseFrequency="0.04" numOctaves="3" seed="1" result="noise"/>
    <feDisplacementMap in="SourceGraphic" in2="noise" scale="2" xChannelSelector="R" yChannelSelector="G"/>
  </filter>
  </defs>
  <g>
    <path d="M 92,96.86736481772445 Q 91,133.43368240886224 90.4,170 L 109.6,170 Q 109,133.43368240886224 108,96.86736481772445 Z" fill="#979bc4" filter="url(#organic)"/>
    <ellipse cx="100" cy="118.80715537240711" rx="12" ry="3.5999999999999996" fill="none" stroke="currentColor" stroke-width="1.5" opacity="0.6"/>
    <path d="M 60,96.86736481772445 L 58.479,107.00736481772445 M 63.47826086956522,96.86736481772445 L 62.08952173913043,107.00736481772445 M 66.95652173913044,96.86736481772445 L 65.70004347826087,107.00736481772445 M 70.43478260869566,96.86736481772445 L 69.31056521739131,107.00736481772445 M 73.91304347826087,96.86736481772445 L 72.92108695652175,107.00736481772445 M 77.3913043478261,96.86736481772445 L 76.53160869565218,107.00736481772445 M 80.86956521739131,96.86736481772445 L 80.14213043478262,107.00736481772445 M 84.34782608695653,96.86736481772445 L 83.75265217391305,107.00736481772445 M 87.82608695652173,96.86736481772445 L 87.36317391304347,107.00736481772445 M 91.30434782608695,96.86736481772445 L 90.97369565217392,107.00736481772445 M 94.78260869565219,96.86736481772445 L 94.58421739130436,107.00736481772445 M 98.2608695652174,96.86736481772445 L 98.1947391304348,107.00736481772445 M 101.73913043478261,96.86736481772445 L 101.80526086956522,107.00736481772445 M 105.21739130434783,96.86736481772445 L 105.41578260869565,107.00736481772445 M 108.69565217391306,96.86736481772445 L 109.0263043478261,107.00736481772445 M 112.17391304347827,96.86736481772445 L 112.63682608695653,107.00736481772445 M 115.65217391304347,96.86736481772445 L 116.24734782608695,107.00736481772445 M 119.13043478260869,96.86736481772445 L 119.85786956521738,107.00736481772445 M 122.6086956521739,96.86736481772445 L 123.46839130434782,107.00736481772445 M 126.08695652173913,96.86736481772445 L 127.07891304347825,107.00736481772445 M 129.56521739130437,96.86736481772445 L 130.6894347826087,107.00736481772445 M 133.04347826086956,96.86736481772445 L 134.29995652173912,107.00736481772445 M 136.5217391304348,96.86736481772445 L 137.91047826086958,107.00736481772445 M 140,96.86736481772445 L 141.521,107.00736481772445" stroke="#979bc4" stroke-width="0.8" fill="none" opacity="0.7"/>
    <path d="M 50,86.72736481772446 Q 65,96.86736481772445 100,91.79736481772446 Q 135,96.86736481772445 150,86.72736481772446" fill="#3275b4" filter="url(#organic)"/>
    <circle cx="75.0" cy="79.1" r="3" fill="white" opacity="0.85"/>
    <circle cx="115.0" cy="76.6" r="2.5" fill="white" opacity="0.85"/>
    <circle cx="95.0" cy="75.3" r="2" fill="white" opacity="0.85"/>
    <circle cx="130.0" cy="81.7" r="2" fill="white" opacity="0.85"/>
    <circle cx="70.0" cy="84.2" r="1.5" fill="white" opacity="0.85"/>
    <circle cx="105.0" cy="84.2" r="2.5" fill="white" opacity="0.85"/>
  </g>
</svg>