<svg xmlns="http://www.w3.org/2000/svg" viewBox="0 0 200 200" width="200" height="200">
  <defs>
    <filter id="organic" x="-5%" y="-5%" width="110%" height="110%">
    <feTurbulence type="fractalNoise" baseFrequency="0.04" numOctaves="3" seed="1" result="noise"/>
    <feDisplacementMap in="SourceGraphic" in2="noise" scale="2" xChannelSelector="R" yChannelSelector="G"/>
  </filter>
  </defs>
  <g>
    <path d="M 96.4,88.92823408706579 Q 95.4,129.4641170435329 95.68,170 L 104.32,170 Q 104.6,129.4641170435329 103.6,88.92823408706579 Z" fill="#979bc4" filter="url(#organic)"/>
    <path d="M 71.75999999999999,88.92823408706579 L 69.672,102.84823408706579 M 76.89454545454545,88.92823408706579 L 75.18618181818181,102.84823408706579 M 82.0290909090909,88.92823408706579 L 80.70036363636362,102.84823408706579 M 87.16363636363636,88.92823408706579 L 86.21454545454544,102.84823408706579 M 92.29818181818182,88.92823408706579 L 91.72872727272727,102.84823408706579 M 97.43272727272726,88.92823408706579 L 97.24290909090908,102.84823408706579 M 102.56727272727272,88.92823408706579 L 102.7570909090909,102.84823408706579 M 107.70181818181817,88.92823408706579 L 108.27127272727272,102.84823408706579 M 112.83636363636364,88.92823408706579 L 113.78545454545456,102.84823408706579 M 117.97090909090909,88.92823408706579 L 119.29963636363637,102.84823408706579 M 123.10545454545453,88.92823408706579 L 124.81381818181818,102.84823408706579 M 128.24,88.92823408706579 L 130.328,102.84823408706579" stroke="#979bc4" stroke-width="0.8" fill="none" opacity="0.7"/>
    <path d="M 64.69999999999999,88.92823408706579 Q 64.69999999999999,78.48823408706579 100,75.00823408706579 Q 135.3,78.48823408706579 135.3,88.92823408706579" fill="#3275b4" filter="url(#organic)"/>
    <circle cx="82.3" cy="64.6" r="3" fill="white" opacity="0.85"/>
    <circle cx="110.6" cy="61.1" r="2.5" fill="white" opacity="0.85"/>
    <circle cx="96.5" cy="59.3" r="2" fill="white" opacity="0.85"/>
    <circle cx="121.2" cy="68.0" r="2" fill="white" opacity="0.85"/>
    <circle cx="78.8" cy="71.5" r="1.5" fill="white" opacity="0.85"/>
    <circle cx="103.5" cy="71.5" r="2.5" fill="white" opacity="0.85"/>
  </g>
</svg>