<svg xmlns="http://www.w3.org/2000/svg" viewBox="0 0 200 200" width="200" height="200">
  <defs>
    <filter id="organic" x="-5%" y="-5%" width="110%" height="110%">
    <feTurbulence type="fractalNoise" baseFrequency="0.04" numOctaves="3" seed="1" result="noise"/>
    <feDisplacementMap in="SourceGraphic" in2="noise" scale="2" xChannelSelector="R" yChannelSelector="G"/>
  </filter>
  </defs>
  <g>
    <path d="M 97.2,84.35598770051688 Q 96.2,127.17799385025845 96.64,170 L 103.36,170 Q 103.8,127.17799385025845 102.8,84.35598770051688 Z" fill="#979bc4" filter="url(#organic)"/>
    <path d="M 75.68,84.35598770051688 L 72.944,102.59598770051687 M 82.62857142857143,84.35598770051688 L 80.67428571428572,102.59598770051687 M 89.57714285714286,84.35598770051688 L 88.40457142857143,102.59598770051687 M 96.52571428571429,84.35598770051688 L 96.13485714285714,102.59598770051687 M 103.47428571428571,84.35598770051688 L 103.86514285714286,102.59598770051687 M 110.42285714285715,84.35598770051688 L 111.59542857142858,102.59598770051687 M 117.37142857142857,84.35598770051688 L 119.32571428571428,102.59598770051687 M 124.32000000000001,84.35598770051688 L 127.05600000000001,102.59598770051687" stroke="#979bc4" stroke-width="0.8" fill="none" opacity="0.7"/>
    <path d="M 69.6,84.35598770051688 Q 69.6,66.11598770051688 90.88,56.99598770051688 L 100,38.75598770051688 L 109.12,56.99598770051688 Q 130.4,66.11598770051688 130.4,84.35598770051688" fill="#3275b4" filter="url(#organic)"/>
    <circle cx="84.8" cy="52.4" r="3" fill="white" opacity="0.85"/>
    <circle cx="109.1" cy="47.9" r="2.5" fill="white" opacity="0.85"/>
    <circle cx="97.0" cy="45.6" r="2" fill="white" opacity="0.85"/>
    <circle cx="118.2" cy="57.0" r="2" fill="white" opacity="0.85"/>
    <circle cx="81.8" cy="61.6" r="1.5" fill="white" opacity="0.85"/>
    <circle cx="103.0" cy="61.6" r="2.5" fill="white" opacity="0.85"/>
  </g>
</svg>