<svg xmlns="http://www.w3.org/2000/svg" viewBox="0 0 200 200" width="200" height="200">
  <defs>
    <filter id="organic" x="-5%" y="-5%" width="110%" height="110%">
    <feTurbulence type="fractalNoise" baseFrequency="0.04" numOctaves="3" seed="1" result="noise"/>
    <feDisplacementMap in="SourceGraphic" in2="noise" scale="2" xChannelSelector="R" yChannelSelector="G"/>
  </filter>
  </defs>
  <g>
    <path d="M 92,85.8093737321285 Q 91,127.90468686606425 90.4,170 L 109.6,170 Q 109,127.90468686606425 108,85.8093737321285 Z" fill="#979bc4" filter="url(#organic)"/>
    <ellipse cx="100" cy="111.06656161248995" rx="12" ry="3.5999999999999996" fill="none" stroke="currentColor" stroke-width="1.5" opacity="0.6"/>
    <path d="M 60,85.8093737321285 L 57.264,104.0493737321285 M 63.47826086956522,85.8093737321285 L 60.98017391304348,104.0493737321285 M 66.95652173913044,85.8093737321285 L 64.69634782608696,104.0493737321285 M 70.43478260869566,85.8093737321285 L 68.41252173913044,104.0493737321285 M 73.91304347826087,85.8093737321285 L 72.12869565217392,104.0493737321285 M 77.3913043478261,85.8093737321285 L 75.8448695652174,104.0493737321285 M 80.86956521739131,85.8093737321285 L 79.56104347826087,104.0493737321285 M 84.34782608695653,85.8093737321285 L 83.27721739130436,104.0493737321285 M 87.82608695652173,85.8093737321285 L 86.99339130434782,104.0493737321285 M 91.30434782608695,85.8093737321285 L 90.7095652173913,104.0493737321285 M 94.78260869565219,85.8093737321285 L 94.42573913043479,104.0493737321285 M 98.2608695652174,85.8093737321285 L 98.14191304347827,104.0493737321285 M 101.73913043478261,85.8093737321285 L 101.85808695652175,104.0493737321285 M 105.21739130434783,85.8093737321285 L 105.57426086956522,104.0493737321285 M 108.69565217391306,85.8093737321285 L 109.29043478260871,104.0493737321285 M 112.17391304347827,85.8093737321285 L 113.00660869565218,104.0493737321285 M 115.65217391304347,85.8093737321285 L 116.72278260869564,104.0493737321285 M 119.13043478260869,85.8093737321285 L 120.43895652173913,104.0493737321285 M 122.6086956521739,85.8093737321285 L 124.1551304347826,104.0493737321285 M 126.08695652173913,85.8093737321285 L 127.87130434782608,104.0493737321285 M 129.56521739130437,85.8093737321285 L 131.5874782608696,104.0493737321285 M 133.04347826086956,85.8093737321285 L 135.30365217391304,104.0493737321285 M 136.5217391304348,85.8093737321285 L 139.01982608695656,104.0493737321285 M 140,85.8093737321285 L 142.736,104.0493737321285" stroke="#979bc4" stroke-width="0.8" fill="none" opacity="0.7"/>
    <path d="M 50,67.56937373212851 Q 65,85.8093737321285 100,76.6893737321285 Q 135,85.8093737321285 150,67.56937373212851" fill="#3275b4" filter="url(#organic)"/>
  </g>
</svg>