<svg xmlns="http://www.w3.org/2000/svg" viewBox="0 0 200 200" width="200" height="200">
  <defs>
    <filter id="organic" x="-5%" y="-5%" width="110%" height="110%">
    <feTurbulence type="fractalNoise" baseFrequency="0.04" numOctaves="3" seed="1" result="noise"/>
    <feDisplacementMap in="SourceGraphic" in2="noise" scale="2" xChannelSelector="R" yChannelSelector="G"/>
  </filter>
  </defs>
  <g>
    <path d="M 92,110.9090909090909 Q 91,140.45454545454544 90.4,170 L 109.6,170 Q 109,140.45454545454544 108,110.9090909090909 Z" fill="#73aba3" filter="url(#organic)"/>
    <path d="M 60,110.9090909090909 L 58.56,120.5090909090909 M 63.47826086956522,110.9090909090909 L 62.16347826086957,120.5090909090909 M 66.95652173913044,110.9090909090909 L 65.76695652173913,120.5090909090909 M 70.43478260869566,110.9090909090909 L 69.3704347826087,120.5090909090909 M 73.91304347826087,110.9090909090909 L 72.97391304347826,120.5090909090909 M 77.3913043478261,110.9090909090909 L 76.57739130434783,120.5090909090909 M 80.86956521739131,110.9090909090909 L 80.18086956521739,120.5090909090909 M 84.34782608695653,110.9090909090909 L 83.78434782608697,120.5090909090909 M 87.82608695652173,110.9090909090909 L 87.38782608695652,120.5090909090909 M 91.30434782608695,110.9090909090909 L 90.99130434782609,120.5090909090909 M 94.78260869565219,110.9090909090909 L 94.59478260869567,120.5090909090909 M 98.2608695652174,110.9090909090909 L 98.19826086956523,120.5090909090909 M 101.73913043478261,110.9090909090909 L 101.80173913043478,120.5090909090909 M 105.21739130434783,110.9090909090909 L 105.40521739130435,120.5090909090909 M 108.69565217391306,110.9090909090909 L 109.00869565217393,120.5090909090909 M 112.17391304347827,110.9090909090909 L 112.61217391304348,120.5090909090909 M 115.65217391304347,110.9090909090909 L 116.21565217391303,120.5090909090909 M 119.13043478260869,110.9090909090909 L 119.81913043478261,120.5090909090909 M 122.6086956521739,110.9090909090909 L 123.42260869565217,120.5090909090909 M 126.08695652173913,110.9090909090909 L 127.02608695652174,120.5090909090909 M 129.56521739130437,110.9090909090909 L 130.62956521739133,120.5090909090909 M 133.04347826086956,110.9090909090909 L 134.23304347826087,120.5090909090909 M 136.5217391304348,110.9090909090909 L 137.83652173913046,120.5090909090909 M 140,110.9090909090909 L 141.44,120.5090909090909" stroke="#73aba3" stroke-width="0.8" fill="none" opacity="0.7"/>
    <path d="M 50,101.30909090909091 Q 65,110.9090909090909 100,106.10909090909091 Q 135,110.9090909090909 150,101.30909090909091" fill="#258651" filter="url(#organic)"/>
  </g>
</svg>