<svg xmlns="http://www.w3.org/2000/svg" viewBox="0 0 200 200" width="200" height="200">
  <defs>
    <filter id="organic" x="-5%" y="-5%" width="110%" height="110%">
    <feTurbulence type="fractalNoise" baseFrequency="0.04" numOctaves="3" seed="1" result="noise"/>
    <feDisplacementMap in="SourceGraphic" in2="noise" scale="2" xChannelSelector="R" yChannelSelector="G"/>
  </filter>
  </defs>
  <g>
    <path d="M 96,79.70895384049004 Q 95,124.85447692024502 95.2,170 L 104.8,170 Q 105,124.85447692024502 104,79.70895384049004 Z" fill="#979bc4" filter="url(#organic)"/>
    <ellipse cx="100" cy="106.79626768834302" rx="6" ry="1.7999999999999998" fill="none" stroke="currentColor" stroke-width="1.5" opacity="0.6"/>
    <path d="M 69.8,79.70895384049004 L 67.79299999999999,93.08895384049003 M 74.44615384615385,79.70895384049004 L 72.74792307692307,93.08895384049003 M 79.09230769230768,79.70895384049004 L 77.70284615384615,93.08895384049003 M 83.73846153846154,79.70895384049004 L 82.65776923076923,93.08895384049003 M 88.38461538461539,79.70895384049004 L 87.61269230769231,93.08895384049003 M 93.03076923076924,79.70895384049004 L 92.5676153846154,93.08895384049003 M 97.67692307692307,79.70895384049004 L 97.52253846153846,93.08895384049003 M 102.32307692307691,79.70895384049004 L 102.47746153846153,93.08895384049003 M 106.96923076923076,79.70895384049004 L 107.4323846153846,93.08895384049003 M 111.61538461538461,79.70895384049004 L 112.38730769230769,93.08895384049003 M 116.26153846153846,79.70895384049004 L 117.34223076923077,93.08895384049003 M 120.90769230769232,79.70895384049004 L 122.29715384615385,93.08895384049003 M 125.55384615384615,79.70895384049004 L 127.25207692307693,93.08895384049003 M 130.2,79.70895384049004 L 132.207,93.08895384049003" stroke="#979bc4" stroke-width="0.8" fill="none" opacity="0.7"/>
    <path d="M 62.25,79.70895384049004 Q 62.25,69.67395384049004 100,66.32895384049004 Q 137.75,69.67395384049004 137.75,79.70895384049004" fill="#3275b4" filter="url(#organic)"/>
  </g>
</svg>