<svg xmlns="http://www.w3.org/2000/svg" viewBox="0 0 200 200" width="200" height="200">
  <defs>
    <filter id="organic" x="-5%" y="-5%" width="110%" height="110%">
    <feTurbulence type="fractalNoise" baseFrequency="0.04" numOctaves="3" seed="1" result="noise"/>
    <feDisplacementMap in="SourceGraphic" in2="noise" scale="2" xChannelSelector="R" yChannelSelector="G"/>
  </filter>
  </defs>
  <g>
    <path d="M 92,74.08439940881084 Q 91,122.04219970440542 90.4,170 L 109.6,170 Q 109,122.04219970440542 108,74.08439940881084 Z" fill="#78a6bd" filter="url(#organic)"/>
    <ellipse cx="100" cy="102.85907958616758" rx="12" ry="3.5999999999999996" fill="none" stroke="currentColor" stroke-width="1.5" opacity="0.6"/>
    <path d="M 60,74.08439940881084 L 58.56,83.68439940881083 M 63.47826086956522,74.08439940881084 L 62.16347826086957,83.68439940881083 M 66.95652173913044,74.08439940881084 L 65.76695652173913,83.68439940881083 M 70.43478260869566,74.08439940881084 L 69.3704347826087,83.68439940881083 M 73.91304347826087,74.08439940881084 L 72.97391304347826,83.68439940881083 M 77.3913043478261,74.08439940881084 L 76.57739130434783,83.68439940881083 M 80.86956521739131,74.08439940881084 L 80.18086956521739,83.68439940881083 M 84.34782608695653,74.08439940881084 L 83.78434782608697,83.68439940881083 M 87.82608695652173,74.08439940881084 L 87.38782608695652,83.68439940881083 M 91.30434782608695,74.08439940881084 L 90.99130434782609,83.68439940881083 M 94.78260869565219,74.08439940881084 L 94.59478260869567,83.68439940881083 M 98.2608695652174,74.08439940881084 L 98.19826086956523,83.68439940881083 M 101.73913043478261,74.08439940881084 L 101.80173913043478,83.68439940881083 M 105.21739130434783,74.08439940881084 L 105.40521739130435,83.68439940881083 M 108.69565217391306,74.08439940881084 L 109.00869565217393,83.68439940881083 M 112.17391304347827,74.08439940881084 L 112.61217391304348,83.68439940881083 M 115.65217391304347,74.08439940881084 L 116.21565217391303,83.68439940881083 M 119.13043478260869,74.08439940881084 L 119.81913043478261,83.68439940881083 M 122.6086956521739,74.08439940881084 L 123.42260869565217,83.68439940881083 M 126.08695652173913,74.08439940881084 L 127.02608695652174,83.68439940881083 M 129.56521739130437,74.08439940881084 L 130.62956521739133,83.68439940881083 M 133.04347826086956,74.08439940881084 L 134.23304347826087,83.68439940881083 M 136.5217391304348,74.08439940881084 L 137.83652173913046,83.68439940881083 M 140,74.08439940881084 L 141.44,83.68439940881083" stroke="#78a6bd" stroke-width="0.8" fill="none" opacity="0.7"/>
    <path d="M 50,64.48439940881084 Q 65,74.08439940881084 100,69.28439940881084 Q 135,74.08439940881084 150,64.48439940881084" fill="#00858d" filter="url(#organic)"/>
  </g>
</svg>