<svg xmlns="http://www.w3.org/2000/svg" viewBox="0 0 200 200" width="200" height="200">
  <defs>
    <filter id="organic" x="-5%" y="-5%" width="110%" height="110%">
    <feTurbulence type="fractalNoise" baseFrequency="0.04" numOctaves="3" seed="1" result="noise"/>
    <feDisplacementMap in="SourceGraphic" in2="noise" scale="2" xChannelSelector="R" yChannelSelector="G"/>
  </filter>
  </defs>
  <g>
    <path d="M 94.4,93.263529056712 Q 93.4,131.631764528356 93.28,170 L 106.72,170 Q 106.6,131.631764528356 105.6,93.263529056712 Z" fill="#979bc4" filter="url(#organic)"/>
    <ellipse cx="100" cy="116.2844703396984" rx="8.399999999999999" ry="2.5199999999999996" fill="none" stroke="currentColor" stroke-width="1.5" opacity="0.6"/>
    <path d="M 61.959999999999994,93.263529056712 L 60.358,103.94352905671201 M 65.58285714285714,93.263529056712 L 64.13342857142857,103.94352905671201 M 69.20571428571428,93.263529056712 L 67.90885714285713,103.94352905671201 M 72.82857142857142,93.263529056712 L 71.6842857142857,103.94352905671201 M 76.45142857142856,93.263529056712 L 75.45971428571428,103.94352905671201 M 80.07428571428571,93.263529056712 L 79.23514285714285,103.94352905671201 M 83.69714285714285,93.263529056712 L 83.01057142857142,103.94352905671201 M 87.32,93.263529056712 L 86.78599999999999,103.94352905671201 M 90.94285714285714,93.263529056712 L 90.56142857142856,103.94352905671201 M 94.56571428571428,93.263529056712 L 94.33685714285714,103.94352905671201 M 98.18857142857142,93.263529056712 L 98.1122857142857,103.94352905671201 M 101.81142857142858,93.263529056712 L 101.8877142857143,103.94352905671201 M 105.4342857142857,93.263529056712 L 105.66314285714284,103.94352905671201 M 109.05714285714286,93.263529056712 L 109.43857142857144,103.94352905671201 M 112.68,93.263529056712 L 113.21400000000001,103.94352905671201 M 116.30285714285714,93.263529056712 L 116.98942857142856,103.94352905671201 M 119.92571428571428,93.263529056712 L 120.76485714285714,103.94352905671201 M 123.54857142857144,93.263529056712 L 124.54028571428572,103.94352905671201 M 127.17142857142858,93.263529056712 L 128.31571428571428,103.94352905671201 M 130.7942857142857,93.263529056712 L 132.09114285714284,103.94352905671201 M 134.41714285714284,93.263529056712 L 135.8665714285714,103.94352905671201 M 138.04000000000002,93.263529056712 L 139.64200000000002,103.94352905671201" stroke="#979bc4" stroke-width="0.8" fill="none" opacity="0.7"/>
    <path d="M 52.449999999999996,93.263529056712 Q 52.449999999999996,85.253529056712 100,82.583529056712 Q 147.55,85.253529056712 147.55,93.263529056712" fill="#3275b4" filter="url(#organic)"/>
  </g>
</svg>