<svg xmlns="http://www.w3.org/2000/svg" viewBox="0 0 200 200" width="200" height="200">
  <defs>
    <filter id="organic" x="-5%" y="-5%" width="110%" height="110%">
    <feTurbulence type="fractalNoise" baseFrequency="0.04" numOctaves="3" seed="1" result="noise"/>
    <feDisplacementMap in="SourceGraphic" in2="noise" scale="2" xChannelSelector="R" yChannelSelector="G"/>
  </filter>
  </defs>
  <g>
    <path d="M 97.2,99.60299016961719 Q 96.2,134.8014950848086 96.64,170 L 103.36,170 Q 103.8,134.8014950848086 102.8,99.60299016961719 Z" fill="#979bc4" filter="url(#organic)"/>
    <path d="M 75.68,99.60299016961719 L 73.997,110.82299016961719 M 82.62857142857143,99.60299016961719 L 81.42642857142857,110.82299016961719 M 89.57714285714286,99.60299016961719 L 88.85585714285715,110.82299016961719 M 96.52571428571429,99.60299016961719 L 96.28528571428572,110.82299016961719 M 103.47428571428571,99.60299016961719 L 103.71471428571428,110.82299016961719 M 110.42285714285715,99.60299016961719 L 111.14414285714287,110.82299016961719 M 117.37142857142857,99.60299016961719 L 118.57357142857143,110.82299016961719 M 124.32000000000001,99.60299016961719 L 126.00300000000001,110.82299016961719" stroke="#979bc4" stroke-width="0.8" fill="none" opacity="0.7"/>
    <path d="M 69.6,99.60299016961719 Q 75.67999999999999,79.9679901696172 100,71.55299016961719 Q 124.32000000000001,79.9679901696172 130.4,99.60299016961719" fill="#3275b4" filter="url(#organic)"/>
  </g>
</svg>