<svg xmlns="http://www.w3.org/2000/svg" viewBox="0 0 200 200" width="200" height="200">
  <defs>
    <filter id="organic" x="-5%" y="-5%" width="110%" height="110%">
    <feTurbulence type="fractalNoise" baseFrequency="0.04" numOctaves="3" seed="1" result="noise"/>
    <feDisplacementMap in="SourceGraphic" in2="noise" scale="2" xChannelSelector="R" yChannelSelector="G"/>
  </filter>
  </defs>
  <g>
    <path d="M 92,96.69675410627727 Q 91,133.34837705313862 90.4,170 L 109.6,170 Q 109,133.34837705313862 108,96.69675410627727 Z" fill="#979bc4" filter="url(#organic)"/>
    <path d="M 60,96.69675410627727 L 58.155,108.99675410627727 M 63.47826086956522,96.69675410627727 L 61.793695652173916,108.99675410627727 M 66.95652173913044,96.69675410627727 L 65.43239130434783,108.99675410627727 M 70.43478260869566,96.69675410627727 L 69.07108695652174,108.99675410627727 M 73.91304347826087,96.69675410627727 L 72.70978260869566,108.99675410627727 M 77.3913043478261,96.69675410627727 L 76.34847826086957,108.99675410627727 M 80.86956521739131,96.69675410627727 L 79.98717391304349,108.99675410627727 M 84.34782608695653,96.69675410627727 L 83.6258695652174,108.99675410627727 M 87.82608695652173,96.69675410627727 L 87.2645652173913,108.99675410627727 M 91.30434782608695,96.69675410627727 L 90.90326086956522,108.99675410627727 M 94.78260869565219,96.69675410627727 L 94.54195652173914,108.99675410627727 M 98.2608695652174,96.69675410627727 L 98.18065217391306,108.99675410627727 M 101.73913043478261,96.69675410627727 L 101.81934782608695,108.99675410627727 M 105.21739130434783,96.69675410627727 L 105.45804347826088,108.99675410627727 M 108.69565217391306,96.69675410627727 L 109.0967391304348,108.99675410627727 M 112.17391304347827,96.69675410627727 L 112.7354347826087,108.99675410627727 M 115.65217391304347,96.69675410627727 L 116.3741304347826,108.99675410627727 M 119.13043478260869,96.69675410627727 L 120.01282608695651,108.99675410627727 M 122.6086956521739,96.69675410627727 L 123.65152173913043,108.99675410627727 M 126.08695652173913,96.69675410627727 L 127.29021739130434,108.99675410627727 M 129.56521739130437,96.69675410627727 L 130.92891304347827,108.99675410627727 M 133.04347826086956,96.69675410627727 L 134.56760869565218,108.99675410627727 M 136.5217391304348,96.69675410627727 L 138.20630434782612,108.99675410627727 M 140,96.69675410627727 L 141.845,108.99675410627727" stroke="#979bc4" stroke-width="0.8" fill="none" opacity="0.7"/>
    <path d="M 50,96.69675410627727 Q 50,87.47175410627727 100,84.39675410627727 Q 150,87.47175410627727 150,96.69675410627727" fill="#3275b4" filter="url(#organic)"/>
  </g>
</svg>