<svg xmlns="http://www.w3.org/2000/svg" viewBox="0 0 200 200" width="200" height="200">
  <defs>
    <filter id="organic" x="-5%" y="-5%" width="110%" height="110%">
    <feTurbulence type="fractalNoise" baseFrequency="0.04" numOctaves="3" seed="1" result="noise"/>
    <feDisplacementMap in="SourceGraphic" in2="noise" scale="2" xChannelSelector="R" yChannelSelector="G"/>
  </filter>
  </defs>
  <g>
    <path d="M 96.8,90.03371113030252 Q 95.8,130.01685556515127 96.16,170 L 103.84,170 Q 104.2,130.01685556515127 103.2,90.03371113030252 Z" fill="#aa94bb" filter="url(#organic)"/>
    <ellipse cx="100" cy="114.02359779121176" rx="4.800000000000001" ry="1.4400000000000002" fill="none" stroke="currentColor" stroke-width="1.5" opacity="0.6"/>
    <path d="M 73.72,90.03371113030252 L 72.28,99.63371113030252 M 79.56,90.03371113030252 L 78.44,99.63371113030252 M 85.4,90.03371113030252 L 84.60000000000001,99.63371113030252 M 91.24,90.03371113030252 L 90.75999999999999,99.63371113030252 M 97.08,90.03371113030252 L 96.92,99.63371113030252 M 102.92,90.03371113030252 L 103.08,99.63371113030252 M 108.75999999999999,90.03371113030252 L 109.24,99.63371113030252 M 114.6,90.03371113030252 L 115.39999999999999,99.63371113030252 M 120.44,90.03371113030252 L 121.56,99.63371113030252 M 126.28,90.03371113030252 L 127.72,99.63371113030252" stroke="#aa94bb" stroke-width="0.8" fill="none" opacity="0.7"/>
    <path d="M 67.15,90.03371113030252 Q 67.15,66.03371113030252 100,66.03371113030252 Q 132.85,66.03371113030252 132.85,90.03371113030252" fill="#6568b6" filter="url(#organic)"/>
  </g>
</svg>