<svg xmlns="http://www.w3.org/2000/svg" viewBox="0 0 200 200" width="200" height="200">
  <defs>
    <filter id="organic" x="-5%" y="-5%" width="110%" height="110%">
    <feTurbulence type="fractalNoise" baseFrequency="0.04" numOctaves="3" seed="1" result="noise"/>
    <feDisplacementMap in="SourceGraphic" in2="noise" scale="2" xChannelSelector="R" yChannelSelector="G"/>
  </filter>
  </defs>
  <g>
    <path d="M 96.4,97.39650185361766 Q 95.4,133.69825092680884 95.68,170 L 104.32,170 Q 104.6,133.69825092680884 103.6,97.39650185361766 Z" fill="#979bc4" filter="url(#organic)"/>
    <ellipse cx="100" cy="119.17755129753236" rx="5.4" ry="1.62" fill="none" stroke="currentColor" stroke-width="1.5" opacity="0.6"/>
    <path d="M 71.75999999999999,97.39650185361766 L 69.18599999999999,114.55650185361766 M 76.89454545454545,97.39650185361766 L 74.78854545454546,114.55650185361766 M 82.0290909090909,97.39650185361766 L 80.39109090909089,114.55650185361766 M 87.16363636363636,97.39650185361766 L 85.99363636363636,114.55650185361766 M 92.29818181818182,97.39650185361766 L 91.59618181818182,114.55650185361766 M 97.43272727272726,97.39650185361766 L 97.19872727272727,114.55650185361766 M 102.56727272727272,97.39650185361766 L 102.80127272727272,114.55650185361766 M 107.70181818181817,97.39650185361766 L 108.40381818181817,114.55650185361766 M 112.83636363636364,97.39650185361766 L 114.00636363636364,114.55650185361766 M 117.97090909090909,97.39650185361766 L 119.6089090909091,114.55650185361766 M 123.10545454545453,97.39650185361766 L 125.21145454545453,114.55650185361766 M 128.24,97.39650185361766 L 130.81400000000002,114.55650185361766" stroke="#979bc4" stroke-width="0.8" fill="none" opacity="0.7"/>
    <path d="M 64.69999999999999,97.39650185361766 Q 71.75999999999999,67.36650185361766 100,54.496501853617666 Q 128.24,67.36650185361766 135.3,97.39650185361766" fill="#3275b4" filter="url(#organic)"/>
  </g>
</svg>