<svg xmlns="http://www.w3.org/2000/svg" viewBox="0 0 200 200" width="200" height="200">
  <defs>
    <filter id="organic" x="-5%" y="-5%" width="110%" height="110%">
    <feTurbulence type="fractalNoise" baseFrequency="0.04" numOctaves="3" seed="1" result="noise"/>
    <feDisplacementMap in="SourceGraphic" in2="noise" scale="2" xChannelSelector="R" yChannelSelector="G"/>
  </filter>
  </defs>
  <g>
    <path d="M 92,88.30164031434059 Q 91,129.1508201571703 90.4,170 L 109.6,170 Q 109,129.1508201571703 108,88.30164031434059 Z" fill="#979bc4" filter="url(#organic)"/>
    <path d="M 60,88.30164031434059 L 58.479,98.44164031434059 M 63.47826086956522,88.30164031434059 L 62.08952173913043,98.44164031434059 M 66.95652173913044,88.30164031434059 L 65.70004347826087,98.44164031434059 M 70.43478260869566,88.30164031434059 L 69.31056521739131,98.44164031434059 M 73.91304347826087,88.30164031434059 L 72.92108695652175,98.44164031434059 M 77.3913043478261,88.30164031434059 L 76.53160869565218,98.44164031434059 M 80.86956521739131,88.30164031434059 L 80.14213043478262,98.44164031434059 M 84.34782608695653,88.30164031434059 L 83.75265217391305,98.44164031434059 M 87.82608695652173,88.30164031434059 L 87.36317391304347,98.44164031434059 M 91.30434782608695,88.30164031434059 L 90.97369565217392,98.44164031434059 M 94.78260869565219,88.30164031434059 L 94.58421739130436,98.44164031434059 M 98.2608695652174,88.30164031434059 L 98.1947391304348,98.44164031434059 M 101.73913043478261,88.30164031434059 L 101.80526086956522,98.44164031434059 M 105.21739130434783,88.30164031434059 L 105.41578260869565,98.44164031434059 M 108.69565217391306,88.30164031434059 L 109.0263043478261,98.44164031434059 M 112.17391304347827,88.30164031434059 L 112.63682608695653,98.44164031434059 M 115.65217391304347,88.30164031434059 L 116.24734782608695,98.44164031434059 M 119.13043478260869,88.30164031434059 L 119.85786956521738,98.44164031434059 M 122.6086956521739,88.30164031434059 L 123.46839130434782,98.44164031434059 M 126.08695652173913,88.30164031434059 L 127.07891304347825,98.44164031434059 M 129.56521739130437,88.30164031434059 L 130.6894347826087,98.44164031434059 M 133.04347826086956,88.30164031434059 L 134.29995652173912,98.44164031434059 M 136.5217391304348,88.30164031434059 L 137.91047826086958,98.44164031434059 M 140,88.30164031434059 L 141.521,98.44164031434059" stroke="#979bc4" stroke-width="0.8" fill="none" opacity="0.7"/>
    <path d="M 50,78.16164031434059 Q 65,88.30164031434059 100,83.23164031434058 Q 135,88.30164031434059 150,78.16164031434059" fill="#3275b4" filter="url(#organic)"/>
    <circle cx="75.0" cy="70.6" r="3" fill="white" opacity="0.85"/>
    <circle cx="115.0" cy="68.0" r="2.5" fill="white" opacity="0.85"/>
    <circle cx="95.0" cy="66.8" r="2" fill="white" opacity="0.85"/>
    <circle cx="130.0" cy="73.1" r="2" fill="white" opacity="0.85"/>
    <circle cx="70.0" cy="75.6" r="1.5" fill="white" opacity="0.85"/>
    <circle cx="105.0" cy="75.6" r="2.5" fill="white" opacity="0.85"/>
  </g>
</svg>