<svg xmlns="http://www.w3.org/2000/svg" viewBox="0 0 200 200" width="200" height="200">
  <defs>
    <filter id="organic" x="-5%" y="-5%" width="110%" height="110%">
    <feTurbulence type="fractalNoise" baseFrequency="0.04" numOctaves="3" seed="1" result="noise"/>
    <feDisplacementMap in="SourceGraphic" in2="noise" scale="2" xChannelSelector="R" yChannelSelector="G"/>
  </filter>
  </defs>
  <g>
    <path d="M 95.6,93.02231550081966 Q 94.6,131.51115775040984 94.72,170 L 105.28,170 Q 105.4,131.51115775040984 104.4,93.02231550081966 Z" fill="#979bc4" filter="url(#organic)"/>
    <ellipse cx="100" cy="116.11562085057376" rx="6.6000000000000005" ry="1.98" fill="none" stroke="currentColor" stroke-width="1.5" opacity="0.6"/>
    <path d="M 67.84,93.02231550081966 L 65.185,110.72231550081966 M 72.128,93.02231550081966 L 69.827,110.72231550081966 M 76.416,93.02231550081966 L 74.469,110.72231550081966 M 80.70400000000001,93.02231550081966 L 79.111,110.72231550081966 M 84.992,93.02231550081966 L 83.753,110.72231550081966 M 89.28,93.02231550081966 L 88.395,110.72231550081966 M 93.56800000000001,93.02231550081966 L 93.037,110.72231550081966 M 97.85600000000001,93.02231550081966 L 97.679,110.72231550081966 M 102.144,93.02231550081966 L 102.32100000000001,110.72231550081966 M 106.43200000000002,93.02231550081966 L 106.96300000000002,110.72231550081966 M 110.72,93.02231550081966 L 111.605,110.72231550081966 M 115.00800000000001,93.02231550081966 L 116.24700000000001,110.72231550081966 M 119.29600000000002,93.02231550081966 L 120.88900000000002,110.72231550081966 M 123.584,93.02231550081966 L 125.531,110.72231550081966 M 127.87200000000001,93.02231550081966 L 130.173,110.72231550081966 M 132.16000000000003,93.02231550081966 L 134.81500000000003,110.72231550081966" stroke="#979bc4" stroke-width="0.8" fill="none" opacity="0.7"/>
    <path d="M 59.8,93.02231550081966 Q 67.84,62.04731550081966 100,48.77231550081966 Q 132.16,62.04731550081966 140.2,93.02231550081966" fill="#3275b4" filter="url(#organic)"/>
  </g>
</svg>