<svg xmlns="http://www.w3.org/2000/svg" viewBox="0 0 200 200" width="200" height="200">
  <defs>
    <filter id="organic" x="-5%" y="-5%" width="110%" height="110%">
    <feTurbulence type="fractalNoise" baseFrequency="0.04" numOctaves="3" seed="1" result="noise"/>
    <feDisplacementMap in="SourceGraphic" in2="noise" scale="2" xChannelSelector="R" yChannelSelector="G"/>
  </filter>
  </defs>
  <g>
    <path d="M 96,88.92823408706579 Q 95,129.4641170435329 95.2,170 L 104.8,170 Q 105,129.4641170435329 104,88.92823408706579 Z" fill="#979bc4" filter="url(#organic)"/>
    <ellipse cx="100" cy="113.24976386094605" rx="6" ry="1.7999999999999998" fill="none" stroke="currentColor" stroke-width="1.5" opacity="0.6"/>
    <path d="M 69.8,88.92823408706579 L 67.712,102.84823408706579 M 74.44615384615385,88.92823408706579 L 72.67938461538462,102.84823408706579 M 79.09230769230768,88.92823408706579 L 77.64676923076922,102.84823408706579 M 83.73846153846154,88.92823408706579 L 82.61415384615384,102.84823408706579 M 88.38461538461539,88.92823408706579 L 87.58153846153846,102.84823408706579 M 93.03076923076924,88.92823408706579 L 92.54892307692309,102.84823408706579 M 97.67692307692307,88.92823408706579 L 97.51630769230769,102.84823408706579 M 102.32307692307691,88.92823408706579 L 102.4836923076923,102.84823408706579 M 106.96923076923076,88.92823408706579 L 107.45107692307691,102.84823408706579 M 111.61538461538461,88.92823408706579 L 112.41846153846154,102.84823408706579 M 116.26153846153846,88.92823408706579 L 117.38584615384616,102.84823408706579 M 120.90769230769232,88.92823408706579 L 122.35323076923078,102.84823408706579 M 125.55384615384615,88.92823408706579 L 127.32061538461538,102.84823408706579 M 130.2,88.92823408706579 L 132.28799999999998,102.84823408706579" stroke="#979bc4" stroke-width="0.8" fill="none" opacity="0.7"/>
    <path d="M 62.25,88.92823408706579 Q 62.25,78.48823408706579 100,75.00823408706579 Q 137.75,78.48823408706579 137.75,88.92823408706579" fill="#3275b4" filter="url(#organic)"/>
  </g>
</svg>