<svg xmlns="http://www.w3.org/2000/svg" viewBox="0 0 200 200" width="200" height="200">
  <defs>
    <filter id="organic" x="-5%" y="-5%" width="110%" height="110%">
    <feTurbulence type="fractalNoise" baseFrequency="0.04" numOctaves="3" seed="1" result="noise"/>
    <feDisplacementMap in="SourceGraphic" in2="noise" scale="2" xChannelSelector="R" yChannelSelector="G"/>
  </filter>
  </defs>
  <g>
    <path d="M 92,97.95374753800246 Q 91,133.97687376900123 90.4,170 L 109.6,170 Q 109,133.97687376900123 108,97.95374753800246 Z" fill="#979bc4" filter="url(#organic)"/>
    <path d="M 60,97.95374753800246 L 57.831,112.41374753800247 M 63.47826086956522,97.95374753800246 L 61.49786956521739,112.41374753800247 M 66.95652173913044,97.95374753800246 L 65.16473913043478,112.41374753800247 M 70.43478260869566,97.95374753800246 L 68.83160869565218,112.41374753800247 M 73.91304347826087,97.95374753800246 L 72.49847826086958,112.41374753800247 M 77.3913043478261,97.95374753800246 L 76.16534782608696,112.41374753800247 M 80.86956521739131,97.95374753800246 L 79.83221739130435,112.41374753800247 M 84.34782608695653,97.95374753800246 L 83.49908695652175,112.41374753800247 M 87.82608695652173,97.95374753800246 L 87.16595652173912,112.41374753800247 M 91.30434782608695,97.95374753800246 L 90.83282608695652,112.41374753800247 M 94.78260869565219,97.95374753800246 L 94.49969565217393,112.41374753800247 M 98.2608695652174,97.95374753800246 L 98.16656521739132,112.41374753800247 M 101.73913043478261,97.95374753800246 L 101.83343478260869,112.41374753800247 M 105.21739130434783,97.95374753800246 L 105.50030434782609,112.41374753800247 M 108.69565217391306,97.95374753800246 L 109.1671739130435,112.41374753800247 M 112.17391304347827,97.95374753800246 L 112.83404347826088,112.41374753800247 M 115.65217391304347,97.95374753800246 L 116.50091304347825,112.41374753800247 M 119.13043478260869,97.95374753800246 L 120.16778260869565,112.41374753800247 M 122.6086956521739,97.95374753800246 L 123.83465217391304,112.41374753800247 M 126.08695652173913,97.95374753800246 L 127.50152173913042,112.41374753800247 M 129.56521739130437,97.95374753800246 L 131.16839130434786,112.41374753800247 M 133.04347826086956,97.95374753800246 L 134.83526086956522,112.41374753800247 M 136.5217391304348,97.95374753800246 L 138.50213043478263,112.41374753800247 M 140,97.95374753800246 L 142.169,112.41374753800247" stroke="#979bc4" stroke-width="0.8" fill="none" opacity="0.7"/>
    <path d="M 50,83.49374753800245 Q 65,97.95374753800246 100,90.72374753800246 Q 135,97.95374753800246 150,83.49374753800245" fill="#3275b4" filter="url(#organic)"/>
    <circle cx="75.0" cy="72.6" r="3" fill="white" opacity="0.85"/>
    <circle cx="115.0" cy="69.0" r="2.5" fill="white" opacity="0.85"/>
    <circle cx="95.0" cy="67.2" r="2" fill="white" opacity="0.85"/>
    <circle cx="130.0" cy="76.3" r="2" fill="white" opacity="0.85"/>
    <circle cx="70.0" cy="79.9" r="1.5" fill="white" opacity="0.85"/>
    <circle cx="105.0" cy="79.9" r="2.5" fill="white" opacity="0.85"/>
  </g>
</svg>