<svg xmlns="http://www.w3.org/2000/svg" viewBox="0 0 200 200" width="200" height="200">
  <defs>
    <filter id="organic" x="-5%" y="-5%" width="110%" height="110%">
    <feTurbulence type="fractalNoise" baseFrequency="0.04" numOctaves="3" seed="1" result="noise"/>
    <feDisplacementMap in="SourceGraphic" in2="noise" scale="2" xChannelSelector="R" yChannelSelector="G"/>
  </filter>
  </defs>
  <g>
    <path d="M 95.2,92.78652293578418 Q 94.2,131.3932614678921 94.24,170 L 105.76,170 Q 105.8,131.3932614678921 104.8,92.78652293578418 Z" fill="#979bc4" filter="url(#organic)"/>
    <ellipse cx="100" cy="115.95056605504892" rx="7.199999999999999" ry="2.1599999999999997" fill="none" stroke="currentColor" stroke-width="1.5" opacity="0.6"/>
    <path d="M 65.88,92.78652293578418 L 64.116,104.54652293578418 M 69.89411764705882,92.78652293578418 L 68.33764705882352,104.54652293578418 M 73.90823529411765,92.78652293578418 L 72.55929411764706,104.54652293578418 M 77.92235294117647,92.78652293578418 L 76.78094117647059,104.54652293578418 M 81.9364705882353,92.78652293578418 L 81.00258823529411,104.54652293578418 M 85.95058823529412,92.78652293578418 L 85.22423529411765,104.54652293578418 M 89.96470588235294,92.78652293578418 L 89.44588235294118,104.54652293578418 M 93.97882352941176,92.78652293578418 L 93.66752941176469,104.54652293578418 M 97.9929411764706,92.78652293578418 L 97.88917647058824,104.54652293578418 M 102.0070588235294,92.78652293578418 L 102.11082352941176,104.54652293578418 M 106.02117647058824,92.78652293578418 L 106.33247058823531,104.54652293578418 M 110.03529411764706,92.78652293578418 L 110.55411764705882,104.54652293578418 M 114.0494117647059,92.78652293578418 L 114.77576470588237,104.54652293578418 M 118.0635294117647,92.78652293578418 L 118.99741176470589,104.54652293578418 M 122.07764705882353,92.78652293578418 L 123.21905882352941,104.54652293578418 M 126.09176470588235,92.78652293578418 L 127.44070588235294,104.54652293578418 M 130.1058823529412,92.78652293578418 L 131.6623529411765,104.54652293578418 M 134.12,92.78652293578418 L 135.88400000000001,104.54652293578418" stroke="#979bc4" stroke-width="0.8" fill="none" opacity="0.7"/>
    <path d="M 57.349999999999994,92.78652293578418 Q 57.349999999999994,83.96652293578418 100,81.02652293578417 Q 142.65,83.96652293578418 142.65,92.78652293578418" fill="#3275b4" filter="url(#organic)"/>
    <circle cx="78.7" cy="72.2" r="3" fill="white" opacity="0.85"/>
    <circle cx="112.8" cy="69.3" r="2.5" fill="white" opacity="0.85"/>
    <circle cx="95.7" cy="67.8" r="2" fill="white" opacity="0.85"/>
    <circle cx="125.6" cy="75.1" r="2" fill="white" opacity="0.85"/>
    <circle cx="74.4" cy="78.1" r="1.5" fill="white" opacity="0.85"/>
    <circle cx="104.3" cy="78.1" r="2.5" fill="white" opacity="0.85"/>
  </g>
</svg>