<svg xmlns="http://www.w3.org/2000/svg" viewBox="0 0 200 200" width="200" height="200">
  <defs>
    <filter id="organic" x="-5%" y="-5%" width="110%" height="110%">
    <feTurbulence type="fractalNoise" baseFrequency="0.04" numOctaves="3" seed="1" result="noise"/>
    <feDisplacementMap in="SourceGraphic" in2="noise" scale="2" xChannelSelector="R" yChannelSelector="G"/>
  </filter>
  </defs>
  <g>
    <path d="M 96.4,83.125971182435 Q 95.4,126.5629855912175 95.68,170 L 104.32,170 Q 104.6,126.5629855912175 103.6,83.125971182435 Z" fill="#979bc4" filter="url(#organic)"/>
    <ellipse cx="100" cy="109.18817982770449" rx="5.4" ry="1.62" fill="none" stroke="currentColor" stroke-width="1.5" opacity="0.6"/>
    <path d="M 71.75999999999999,83.125971182435 L 69.83399999999999,95.965971182435 M 76.89454545454545,83.125971182435 L 75.31872727272727,95.965971182435 M 82.0290909090909,83.125971182435 L 80.80345454545453,95.965971182435 M 87.16363636363636,83.125971182435 L 86.28818181818181,95.965971182435 M 92.29818181818182,83.125971182435 L 91.7729090909091,95.965971182435 M 97.43272727272726,83.125971182435 L 97.25763636363635,95.965971182435 M 102.56727272727272,83.125971182435 L 102.74236363636363,95.965971182435 M 107.70181818181817,83.125971182435 L 108.22709090909089,95.965971182435 M 112.83636363636364,83.125971182435 L 113.71181818181819,95.965971182435 M 117.97090909090909,83.125971182435 L 119.19654545454546,95.965971182435 M 123.10545454545453,83.125971182435 L 124.68127272727271,95.965971182435 M 128.24,83.125971182435 L 130.166,95.965971182435" stroke="#979bc4" stroke-width="0.8" fill="none" opacity="0.7"/>
    <path d="M 64.69999999999999,83.125971182435 Q 64.69999999999999,73.495971182435 100,70.28597118243499 Q 135.3,73.495971182435 135.3,83.125971182435" fill="#3275b4" filter="url(#organic)"/>
  </g>
</svg>