<svg xmlns="http://www.w3.org/2000/svg" viewBox="0 0 200 200" width="200" height="200">
  <defs>
    <filter id="organic" x="-5%" y="-5%" width="110%" height="110%">
    <feTurbulence type="fractalNoise" baseFrequency="0.04" numOctaves="3" seed="1" result="noise"/>
    <feDisplacementMap in="SourceGraphic" in2="noise" scale="2" xChannelSelector="R" yChannelSelector="G"/>
  </filter>
  </defs>
  <g>
    <path d="M 92,125.45454545454545 Q 91,147.72727272727272 90.4,170 L 109.6,170 Q 109,147.72727272727272 108,125.45454545454545 Z" fill="#979bc4" filter="url(#organic)"/>
    <path d="M 60,125.45454545454545 L 58.479,135.59454545454545 M 63.47826086956522,125.45454545454545 L 62.08952173913043,135.59454545454545 M 66.95652173913044,125.45454545454545 L 65.70004347826087,135.59454545454545 M 70.43478260869566,125.45454545454545 L 69.31056521739131,135.59454545454545 M 73.91304347826087,125.45454545454545 L 72.92108695652175,135.59454545454545 M 77.3913043478261,125.45454545454545 L 76.53160869565218,135.59454545454545 M 80.86956521739131,125.45454545454545 L 80.14213043478262,135.59454545454545 M 84.34782608695653,125.45454545454545 L 83.75265217391305,135.59454545454545 M 87.82608695652173,125.45454545454545 L 87.36317391304347,135.59454545454545 M 91.30434782608695,125.45454545454545 L 90.97369565217392,135.59454545454545 M 94.78260869565219,125.45454545454545 L 94.58421739130436,135.59454545454545 M 98.2608695652174,125.45454545454545 L 98.1947391304348,135.59454545454545 M 101.73913043478261,125.45454545454545 L 101.80526086956522,135.59454545454545 M 105.21739130434783,125.45454545454545 L 105.41578260869565,135.59454545454545 M 108.69565217391306,125.45454545454545 L 109.0263043478261,135.59454545454545 M 112.17391304347827,125.45454545454545 L 112.63682608695653,135.59454545454545 M 115.65217391304347,125.45454545454545 L 116.24734782608695,135.59454545454545 M 119.13043478260869,125.45454545454545 L 119.85786956521738,135.59454545454545 M 122.6086956521739,125.45454545454545 L 123.46839130434782,135.59454545454545 M 126.08695652173913,125.45454545454545 L 127.07891304347825,135.59454545454545 M 129.56521739130437,125.45454545454545 L 130.6894347826087,135.59454545454545 M 133.04347826086956,125.45454545454545 L 134.29995652173912,135.59454545454545 M 136.5217391304348,125.45454545454545 L 137.91047826086958,135.59454545454545 M 140,125.45454545454545 L 141.521,135.59454545454545" stroke="#979bc4" stroke-width="0.8" fill="none" opacity="0.7"/>
    <path d="M 50,115.31454545454545 Q 65,125.45454545454544 100,120.38454545454545 Q 135,125.45454545454544 150,115.31454545454545" fill="#3275b4" filter="url(#organic)"/>
    <circle cx="75.0" cy="107.7" r="3" fill="white" opacity="0.85"/>
    <circle cx="115.0" cy="105.2" r="2.5" fill="white" opacity="0.85"/>
    <circle cx="95.0" cy="103.9" r="2" fill="white" opacity="0.85"/>
    <circle cx="130.0" cy="110.2" r="2" fill="white" opacity="0.85"/>
    <circle cx="70.0" cy="112.8" r="1.5" fill="white" opacity="0.85"/>
    <circle cx="105.0" cy="112.8" r="2.5" fill="white" opacity="0.85"/>
  </g>
</svg>