<svg xmlns="http://www.w3.org/2000/svg" viewBox="0 0 200 200" width="200" height="200">
  <defs>
    <filter id="organic" x="-5%" y="-5%" width="110%" height="110%">
    <feTurbulence type="fractalNoise" baseFrequency="0.04" numOctaves="3" seed="1" result="noise"/>
    <feDisplacementMap in="SourceGraphic" in2="noise" scale="2" xChannelSelector="R" yChannelSelector="G"/>
  </filter>
  </defs>
  <g>
    <path d="M 95.6,97.2171414591866 Q 94.6,133.6085707295933 94.72,170 L 105.28,170 Q 105.4,133.6085707295933 104.4,97.2171414591866 Z" fill="#a496bf" filter="url(#organic)"/>
    <ellipse cx="100" cy="119.05199902143062" rx="6.6000000000000005" ry="1.98" fill="none" stroke="currentColor" stroke-width="1.5" opacity="0.6"/>
    <path d="M 67.84,97.2171414591866 L 66.4,106.81714145918662 M 72.128,97.2171414591866 L 70.88,106.81714145918662 M 76.416,97.2171414591866 L 75.36,106.81714145918662 M 80.70400000000001,97.2171414591866 L 79.84,106.81714145918662 M 84.992,97.2171414591866 L 84.32000000000001,106.81714145918662 M 89.28,97.2171414591866 L 88.8,106.81714145918662 M 93.56800000000001,97.2171414591866 L 93.28000000000002,106.81714145918662 M 97.85600000000001,97.2171414591866 L 97.76,106.81714145918662 M 102.144,97.2171414591866 L 102.24000000000001,106.81714145918662 M 106.43200000000002,97.2171414591866 L 106.72000000000001,106.81714145918662 M 110.72,97.2171414591866 L 111.2,106.81714145918662 M 115.00800000000001,97.2171414591866 L 115.68,106.81714145918662 M 119.29600000000002,97.2171414591866 L 120.16000000000003,106.81714145918662 M 123.584,97.2171414591866 L 124.64,106.81714145918662 M 127.87200000000001,97.2171414591866 L 129.12,106.81714145918662 M 132.16000000000003,97.2171414591866 L 133.60000000000002,106.81714145918662" stroke="#a496bf" stroke-width="0.8" fill="none" opacity="0.7"/>
    <path d="M 59.8,97.2171414591866 Q 59.8,90.0171414591866 100,87.6171414591866 Q 140.2,90.0171414591866 140.2,97.2171414591866" fill="#576cb7" filter="url(#organic)"/>
  </g>
</svg>