<svg xmlns="http://www.w3.org/2000/svg" viewBox="0 0 200 200" width="200" height="200">
  <defs>
    <filter id="organic" x="-5%" y="-5%" width="110%" height="110%">
    <feTurbulence type="fractalNoise" baseFrequency="0.04" numOctaves="3" seed="1" result="noise"/>
    <feDisplacementMap in="SourceGraphic" in2="noise" scale="2" xChannelSelector="R" yChannelSelector="G"/>
  </filter>
  </defs>
  <g>
    <path d="M 92.8,81.69593972591596 Q 91.8,125.84796986295798 91.36,170 L 108.64,170 Q 108.2,125.84796986295798 107.2,81.69593972591596 Z" fill="#979bc4" filter="url(#organic)"/>
    <ellipse cx="100" cy="108.18715780814117" rx="10.8" ry="3.24" fill="none" stroke="currentColor" stroke-width="1.5" opacity="0.6"/>
    <path d="M 60,81.69593972591596 L 57.345,99.39593972591597 M 63.47826086956522,81.69593972591596 L 61.05413043478261,99.39593972591597 M 66.95652173913044,81.69593972591596 L 64.76326086956522,99.39593972591597 M 70.43478260869566,81.69593972591596 L 68.47239130434782,99.39593972591597 M 73.91304347826087,81.69593972591596 L 72.18152173913045,99.39593972591597 M 77.3913043478261,81.69593972591596 L 75.89065217391305,99.39593972591597 M 80.86956521739131,81.69593972591596 L 79.59978260869566,99.39593972591597 M 84.34782608695653,81.69593972591596 L 83.30891304347827,99.39593972591597 M 87.82608695652173,81.69593972591596 L 87.01804347826086,99.39593972591597 M 91.30434782608695,81.69593972591596 L 90.72717391304347,99.39593972591597 M 94.78260869565219,81.69593972591596 L 94.4363043478261,99.39593972591597 M 98.2608695652174,81.69593972591596 L 98.1454347826087,99.39593972591597 M 101.73913043478261,81.69593972591596 L 101.85456521739131,99.39593972591597 M 105.21739130434783,81.69593972591596 L 105.56369565217392,99.39593972591597 M 108.69565217391306,81.69593972591596 L 109.27282608695654,99.39593972591597 M 112.17391304347827,81.69593972591596 L 112.98195652173914,99.39593972591597 M 115.65217391304347,81.69593972591596 L 116.69108695652173,99.39593972591597 M 119.13043478260869,81.69593972591596 L 120.40021739130434,99.39593972591597 M 122.6086956521739,81.69593972591596 L 124.10934782608695,99.39593972591597 M 126.08695652173913,81.69593972591596 L 127.81847826086955,99.39593972591597 M 129.56521739130437,81.69593972591596 L 131.5276086956522,99.39593972591597 M 133.04347826086956,81.69593972591596 L 135.23673913043478,99.39593972591597 M 136.5217391304348,81.69593972591596 L 138.9458695652174,99.39593972591597 M 140,81.69593972591596 L 142.655,99.39593972591597" stroke="#979bc4" stroke-width="0.8" fill="none" opacity="0.7"/>
    <path d="M 50,63.99593972591596 Q 65,81.69593972591596 100,72.84593972591597 Q 135,81.69593972591596 150,63.99593972591596" fill="#3275b4" filter="url(#organic)"/>
  </g>
</svg>