<svg xmlns="http://www.w3.org/2000/svg" viewBox="0 0 200 200" width="200" height="200">
  <defs>
    <filter id="organic" x="-5%" y="-5%" width="110%" height="110%">
    <feTurbulence type="fractalNoise" baseFrequency="0.04" numOctaves="3" seed="1" result="noise"/>
    <feDisplacementMap in="SourceGraphic" in2="noise" scale="2" xChannelSelector="R" yChannelSelector="G"/>
  </filter>
  </defs>
  <g>
    <path d="M 92,89.50898541571462 Q 91,129.7544927078573 90.4,170 L 109.6,170 Q 109,129.7544927078573 108,89.50898541571462 Z" fill="#979bc4" filter="url(#organic)"/>
    <path d="M 60,89.50898541571462 L 58.236,101.26898541571462 M 63.47826086956522,89.50898541571462 L 61.867652173913044,101.26898541571462 M 66.95652173913044,89.50898541571462 L 65.49930434782608,101.26898541571462 M 70.43478260869566,89.50898541571462 L 69.13095652173914,101.26898541571462 M 73.91304347826087,89.50898541571462 L 72.76260869565218,101.26898541571462 M 77.3913043478261,89.50898541571462 L 76.39426086956523,101.26898541571462 M 80.86956521739131,89.50898541571462 L 80.02591304347827,101.26898541571462 M 84.34782608695653,89.50898541571462 L 83.65756521739131,101.26898541571462 M 87.82608695652173,89.50898541571462 L 87.28921739130435,101.26898541571462 M 91.30434782608695,89.50898541571462 L 90.92086956521739,101.26898541571462 M 94.78260869565219,89.50898541571462 L 94.55252173913044,101.26898541571462 M 98.2608695652174,89.50898541571462 L 98.1841739130435,101.26898541571462 M 101.73913043478261,89.50898541571462 L 101.81582608695652,101.26898541571462 M 105.21739130434783,89.50898541571462 L 105.44747826086957,101.26898541571462 M 108.69565217391306,89.50898541571462 L 109.07913043478263,101.26898541571462 M 112.17391304347827,89.50898541571462 L 112.71078260869565,101.26898541571462 M 115.65217391304347,89.50898541571462 L 116.34243478260869,101.26898541571462 M 119.13043478260869,89.50898541571462 L 119.97408695652173,101.26898541571462 M 122.6086956521739,89.50898541571462 L 123.60573913043477,101.26898541571462 M 126.08695652173913,89.50898541571462 L 127.23739130434782,101.26898541571462 M 129.56521739130437,89.50898541571462 L 130.8690434782609,101.26898541571462 M 133.04347826086956,89.50898541571462 L 134.5006956521739,101.26898541571462 M 136.5217391304348,89.50898541571462 L 138.13234782608697,101.26898541571462 M 140,89.50898541571462 L 141.764,101.26898541571462" stroke="#979bc4" stroke-width="0.8" fill="none" opacity="0.7"/>
    <path d="M 50,77.74898541571461 Q 65,89.50898541571462 100,83.62898541571462 Q 135,89.50898541571462 150,77.74898541571461" fill="#3275b4" filter="url(#organic)"/>
    <circle cx="75.0" cy="68.9" r="3" fill="white" opacity="0.85"/>
    <circle cx="115.0" cy="66.0" r="2.5" fill="white" opacity="0.85"/>
    <circle cx="95.0" cy="64.5" r="2" fill="white" opacity="0.85"/>
    <circle cx="130.0" cy="71.9" r="2" fill="white" opacity="0.85"/>
    <circle cx="70.0" cy="74.8" r="1.5" fill="white" opacity="0.85"/>
    <circle cx="105.0" cy="74.8" r="2.5" fill="white" opacity="0.85"/>
  </g>
</svg>