<svg xmlns="http://www.w3.org/2000/svg" viewBox="0 0 200 200" width="200" height="200">
  <defs>
    <filter id="organic" x="-5%" y="-5%" width="110%" height="110%">
    <feTurbulence type="fractalNoise" baseFrequency="0.04" numOctaves="3" seed="1" result="noise"/>
    <feDisplacementMap in="SourceGraphic" in2="noise" scale="2" xChannelSelector="R" yChannelSelector="G"/>
  </filter>
  </defs>
  <g>
    <path d="M 92,101.83325444768302 Q 91,135.91662722384152 90.4,170 L 109.6,170 Q 109,135.91662722384152 108,101.83325444768302 Z" fill="#73aba3" filter="url(#organic)"/>
    <ellipse cx="100" cy="122.28327811337812" rx="12" ry="3.5999999999999996" fill="none" stroke="currentColor" stroke-width="1.5" opacity="0.6"/>
    <path d="M 60,101.83325444768302 L 58.56,111.43325444768303 M 63.47826086956522,101.83325444768302 L 62.16347826086957,111.43325444768303 M 66.95652173913044,101.83325444768302 L 65.76695652173913,111.43325444768303 M 70.43478260869566,101.83325444768302 L 69.3704347826087,111.43325444768303 M 73.91304347826087,101.83325444768302 L 72.97391304347826,111.43325444768303 M 77.3913043478261,101.83325444768302 L 76.57739130434783,111.43325444768303 M 80.86956521739131,101.83325444768302 L 80.18086956521739,111.43325444768303 M 84.34782608695653,101.83325444768302 L 83.78434782608697,111.43325444768303 M 87.82608695652173,101.83325444768302 L 87.38782608695652,111.43325444768303 M 91.30434782608695,101.83325444768302 L 90.99130434782609,111.43325444768303 M 94.78260869565219,101.83325444768302 L 94.59478260869567,111.43325444768303 M 98.2608695652174,101.83325444768302 L 98.19826086956523,111.43325444768303 M 101.73913043478261,101.83325444768302 L 101.80173913043478,111.43325444768303 M 105.21739130434783,101.83325444768302 L 105.40521739130435,111.43325444768303 M 108.69565217391306,101.83325444768302 L 109.00869565217393,111.43325444768303 M 112.17391304347827,101.83325444768302 L 112.61217391304348,111.43325444768303 M 115.65217391304347,101.83325444768302 L 116.21565217391303,111.43325444768303 M 119.13043478260869,101.83325444768302 L 119.81913043478261,111.43325444768303 M 122.6086956521739,101.83325444768302 L 123.42260869565217,111.43325444768303 M 126.08695652173913,101.83325444768302 L 127.02608695652174,111.43325444768303 M 129.56521739130437,101.83325444768302 L 130.62956521739133,111.43325444768303 M 133.04347826086956,101.83325444768302 L 134.23304347826087,111.43325444768303 M 136.5217391304348,101.83325444768302 L 137.83652173913046,111.43325444768303 M 140,101.83325444768302 L 141.44,111.43325444768303" stroke="#73aba3" stroke-width="0.8" fill="none" opacity="0.7"/>
    <path d="M 50,92.23325444768301 Q 65,101.83325444768302 100,97.03325444768302 Q 135,101.83325444768302 150,92.23325444768301" fill="#258651" filter="url(#organic)"/>
  </g>
</svg>