<svg xmlns="http://www.w3.org/2000/svg" viewBox="0 0 200 200" width="200" height="200">
  <defs>
    <filter id="organic" x="-5%" y="-5%" width="110%" height="110%">
    <feTurbulence type="fractalNoise" baseFrequency="0.04" numOctaves="3" seed="1" result="noise"/>
    <feDisplacementMap in="SourceGraphic" in2="noise" scale="2" xChannelSelector="R" yChannelSelector="G"/>
  </filter>
  </defs>
  <g>
    <path d="M 92,82.80591894796886 Q 91,126.40295947398442 90.4,170 L 109.6,170 Q 109,126.40295947398442 108,82.80591894796886 Z" fill="#979bc4" filter="url(#organic)"/>
    <ellipse cx="100" cy="108.96414326357821" rx="12" ry="3.5999999999999996" fill="none" stroke="currentColor" stroke-width="1.5" opacity="0.6"/>
    <path d="M 60,82.80591894796886 L 58.074,95.64591894796887 M 63.47826086956522,82.80591894796886 L 61.71973913043478,95.64591894796887 M 66.95652173913044,82.80591894796886 L 65.36547826086957,95.64591894796887 M 70.43478260869566,82.80591894796886 L 69.01121739130436,95.64591894796887 M 73.91304347826087,82.80591894796886 L 72.65695652173913,95.64591894796887 M 77.3913043478261,82.80591894796886 L 76.30269565217392,95.64591894796887 M 80.86956521739131,82.80591894796886 L 79.9484347826087,95.64591894796887 M 84.34782608695653,82.80591894796886 L 83.59417391304349,95.64591894796887 M 87.82608695652173,82.80591894796886 L 87.23991304347825,95.64591894796887 M 91.30434782608695,82.80591894796886 L 90.88565217391304,95.64591894796887 M 94.78260869565219,82.80591894796886 L 94.53139130434784,95.64591894796887 M 98.2608695652174,82.80591894796886 L 98.17713043478263,95.64591894796887 M 101.73913043478261,82.80591894796886 L 101.82286956521739,95.64591894796887 M 105.21739130434783,82.80591894796886 L 105.46860869565218,95.64591894796887 M 108.69565217391306,82.80591894796886 L 109.11434782608697,95.64591894796887 M 112.17391304347827,82.80591894796886 L 112.76008695652175,95.64591894796887 M 115.65217391304347,82.80591894796886 L 116.40582608695651,95.64591894796887 M 119.13043478260869,82.80591894796886 L 120.0515652173913,95.64591894796887 M 122.6086956521739,82.80591894796886 L 123.69730434782608,95.64591894796887 M 126.08695652173913,82.80591894796886 L 127.34304347826087,95.64591894796887 M 129.56521739130437,82.80591894796886 L 130.9887826086957,95.64591894796887 M 133.04347826086956,82.80591894796886 L 134.63452173913043,95.64591894796887 M 136.5217391304348,82.80591894796886 L 138.28026086956524,95.64591894796887 M 140,82.80591894796886 L 141.926,95.64591894796887" stroke="#979bc4" stroke-width="0.8" fill="none" opacity="0.7"/>
    <path d="M 50,82.80591894796886 Q 50,73.17591894796885 100,69.96591894796886 Q 150,73.17591894796885 150,82.80591894796886" fill="#3275b4" filter="url(#organic)"/>
  </g>
</svg>