<svg xmlns="http://www.w3.org/2000/svg" viewBox="0 0 200 200" width="200" height="200">
  <defs>
    <filter id="organic" x="-5%" y="-5%" width="110%" height="110%">
    <feTurbulence type="fractalNoise" baseFrequency="0.04" numOctaves="3" seed="1" result="noise"/>
    <feDisplacementMap in="SourceGraphic" in2="noise" scale="2" xChannelSelector="R" yChannelSelector="G"/>
  </filter>
  </defs>
  <g>
    <path d="M 92,85.0018732783922 Q 91,127.5009366391961 90.4,170 L 109.6,170 Q 109,127.5009366391961 108,85.0018732783922 Z" fill="#979bc4" filter="url(#organic)"/>
    <ellipse cx="100" cy="110.50131129487454" rx="12" ry="3.5999999999999996" fill="none" stroke="currentColor" stroke-width="1.5" opacity="0.6"/>
    <path d="M 60,85.0018732783922 L 57.183,103.7818732783922 M 63.47826086956522,85.0018732783922 L 60.90621739130435,103.7818732783922 M 66.95652173913044,85.0018732783922 L 64.6294347826087,103.7818732783922 M 70.43478260869566,85.0018732783922 L 68.35265217391304,103.7818732783922 M 73.91304347826087,85.0018732783922 L 72.0758695652174,103.7818732783922 M 77.3913043478261,85.0018732783922 L 75.79908695652175,103.7818732783922 M 80.86956521739131,85.0018732783922 L 79.5223043478261,103.7818732783922 M 84.34782608695653,85.0018732783922 L 83.24552173913044,103.7818732783922 M 87.82608695652173,85.0018732783922 L 86.96873913043478,103.7818732783922 M 91.30434782608695,85.0018732783922 L 90.69195652173913,103.7818732783922 M 94.78260869565219,85.0018732783922 L 94.41517391304349,103.7818732783922 M 98.2608695652174,85.0018732783922 L 98.13839130434783,103.7818732783922 M 101.73913043478261,85.0018732783922 L 101.86160869565218,103.7818732783922 M 105.21739130434783,85.0018732783922 L 105.58482608695653,103.7818732783922 M 108.69565217391306,85.0018732783922 L 109.30804347826088,103.7818732783922 M 112.17391304347827,85.0018732783922 L 113.03126086956522,103.7818732783922 M 115.65217391304347,85.0018732783922 L 116.75447826086956,103.7818732783922 M 119.13043478260869,85.0018732783922 L 120.4776956521739,103.7818732783922 M 122.6086956521739,85.0018732783922 L 124.20091304347825,103.7818732783922 M 126.08695652173913,85.0018732783922 L 127.9241304347826,103.7818732783922 M 129.56521739130437,85.0018732783922 L 131.64734782608699,103.7818732783922 M 133.04347826086956,85.0018732783922 L 135.3705652173913,103.7818732783922 M 136.5217391304348,85.0018732783922 L 139.09378260869568,103.7818732783922 M 140,85.0018732783922 L 142.817,103.7818732783922" stroke="#979bc4" stroke-width="0.8" fill="none" opacity="0.7"/>
    <path d="M 50,66.2218732783922 Q 65,85.0018732783922 100,75.6118732783922 Q 135,85.0018732783922 150,66.2218732783922" fill="#3275b4" filter="url(#organic)"/>
  </g>
</svg>