<svg xmlns="http://www.w3.org/2000/svg" viewBox="0 0 200 200" width="200" height="200">
  <defs>
    <filter id="organic" x="-5%" y="-5%" width="110%" height="110%">
    <feTurbulence type="fractalNoise" baseFrequency="0.04" numOctaves="3" seed="1" result="noise"/>
    <feDisplacementMap in="SourceGraphic" in2="noise" scale="2" xChannelSelector="R" yChannelSelector="G"/>
  </filter>
  </defs>
  <g>
    <path d="M 97.4,78.87169844991749 Q 96.4,124.43584922495874 96.88,170 L 103.12,170 Q 103.6,124.43584922495874 102.6,78.87169844991749 Z" fill="#979bc4" filter="url(#organic)"/>
    <path d="M 77.64,78.87169844991749 L 74.58,99.2716984499175 M 86.584,78.87169844991749 L 84.748,99.2716984499175 M 95.528,78.87169844991749 L 94.91600000000001,99.2716984499175 M 104.47200000000001,78.87169844991749 L 105.084,99.2716984499175 M 113.416,78.87169844991749 L 115.252,99.2716984499175 M 122.36,78.87169844991749 L 125.42,99.2716984499175" stroke="#979bc4" stroke-width="0.8" fill="none" opacity="0.7"/>
    <path d="M 72.05,78.87169844991749 Q 72.05,58.47169844991748 91.615,48.271698449917494 L 100,27.87169844991749 L 108.385,48.271698449917494 Q 127.95,58.47169844991748 127.95,78.87169844991749" fill="#3275b4" filter="url(#organic)"/>
    <circle cx="86.0" cy="43.2" r="3" fill="white" opacity="0.85"/>
    <circle cx="108.4" cy="38.1" r="2.5" fill="white" opacity="0.85"/>
    <circle cx="97.2" cy="35.5" r="2" fill="white" opacity="0.85"/>
    <circle cx="116.8" cy="48.3" r="2" fill="white" opacity="0.85"/>
    <circle cx="83.2" cy="53.4" r="1.5" fill="white" opacity="0.85"/>
    <circle cx="102.8" cy="53.4" r="2.5" fill="white" opacity="0.85"/>
  </g>
</svg>