<svg xmlns="http://www.w3.org/2000/svg" viewBox="0 0 200 200" width="200" height="200">
  <defs>
    <filter id="glow" x="-50%" y="-50%" width="200%" height="200%">
    <feGaussianBlur in="SourceGraphic" stdDeviation="3" result="blur"/>
    <feMerge>
      <feMergeNode in="blur"/>
      <feMergeNode in="blur"/>
      <feMergeNode in="SourceGraphic"/>
    </feMerge>
  </filter>
    <filter id="organic" x="-5%" y="-5%" width="110%" height="110%">
    <feTurbulence type="fractalNoise" baseFrequency="0.04" numOctaves="3" seed="1" result="noise"/>
    <feDisplacementMap in="SourceGraphic" in2="noise" scale="2" xChannelSelector="R" yChannelSelector="G"/>
  </filter>
  </defs>
  <g filter="url(#glow)">
    <path d="M 92,78.77925443719349 Q 91,124.38962721859674 90.4,170 L 109.6,170 Q 109,124.38962721859674 108,78.77925443719349 Z" fill="#979bc4" filter="url(#organic)"/>
    <path d="M 60,78.77925443719349 L 57.021,98.63925443719349 M 63.47826086956522,78.77925443719349 L 60.75830434782609,98.63925443719349 M 66.95652173913044,78.77925443719349 L 64.49560869565218,98.63925443719349 M 70.43478260869566,78.77925443719349 L 68.23291304347826,98.63925443719349 M 73.91304347826087,78.77925443719349 L 71.97021739130436,98.63925443719349 M 77.3913043478261,78.77925443719349 L 75.70752173913044,98.63925443719349 M 80.86956521739131,78.77925443719349 L 79.44482608695652,98.63925443719349 M 84.34782608695653,78.77925443719349 L 83.18213043478262,98.63925443719349 M 87.82608695652173,78.77925443719349 L 86.91943478260869,98.63925443719349 M 91.30434782608695,78.77925443719349 L 90.65673913043479,98.63925443719349 M 94.78260869565219,78.77925443719349 L 94.39404347826088,98.63925443719349 M 98.2608695652174,78.77925443719349 L 98.13134782608697,98.63925443719349 M 101.73913043478261,78.77925443719349 L 101.86865217391305,98.63925443719349 M 105.21739130434783,78.77925443719349 L 105.60595652173913,98.63925443719349 M 108.69565217391306,78.77925443719349 L 109.34326086956524,98.63925443719349 M 112.17391304347827,78.77925443719349 L 113.08056521739131,98.63925443719349 M 115.65217391304347,78.77925443719349 L 116.81786956521738,98.63925443719349 M 119.13043478260869,78.77925443719349 L 120.55517391304348,98.63925443719349 M 122.6086956521739,78.77925443719349 L 124.29247826086956,98.63925443719349 M 126.08695652173913,78.77925443719349 L 128.02978260869565,98.63925443719349 M 129.56521739130437,78.77925443719349 L 131.76708695652175,98.63925443719349 M 133.04347826086956,78.77925443719349 L 135.50439130434782,98.63925443719349 M 136.5217391304348,78.77925443719349 L 139.24169565217395,98.63925443719349 M 140,78.77925443719349 L 142.979,98.63925443719349" stroke="#979bc4" stroke-width="0.8" fill="none" opacity="0.7"/>
    <path d="M 50,58.91925443719349 Q 65,78.77925443719349 100,68.84925443719348 Q 135,78.77925443719349 150,58.91925443719349" fill="#3275b4" filter="url(#organic)"/>
    <circle cx="75.0" cy="44.0" r="3" fill="white" opacity="0.85"/>
    <circle cx="115.0" cy="39.1" r="2.5" fill="white" opacity="0.85"/>
    <circle cx="95.0" cy="36.6" r="2" fill="white" opacity="0.85"/>
    <circle cx="130.0" cy="49.0" r="2" fill="white" opacity="0.85"/>
    <circle cx="70.0" cy="54.0" r="1.5" fill="white" opacity="0.85"/>
    <circle cx="105.0" cy="54.0" r="2.5" fill="white" opacity="0.85"/>
  </g>
</svg>