<svg xmlns="http://www.w3.org/2000/svg" viewBox="0 0 200 200" width="200" height="200">
  <defs>
    <filter id="organic" x="-5%" y="-5%" width="110%" height="110%">
    <feTurbulence type="fractalNoise" baseFrequency="0.04" numOctaves="3" seed="1" result="noise"/>
    <feDisplacementMap in="SourceGraphic" in2="noise" scale="2" xChannelSelector="R" yChannelSelector="G"/>
  </filter>
  </defs>
  <g>
    <path d="M 97.2,83.31333915381741 Q 96.2,126.65666957690871 96.64,170 L 103.36,170 Q 103.8,126.65666957690871 102.8,83.31333915381741 Z" fill="#979bc4" filter="url(#organic)"/>
    <path d="M 75.68,83.31333915381741 L 74.159,93.45333915381741 M 82.62857142857143,83.31333915381741 L 81.54214285714286,93.45333915381741 M 89.57714285714286,83.31333915381741 L 88.92528571428572,93.45333915381741 M 96.52571428571429,83.31333915381741 L 96.30842857142858,93.45333915381741 M 103.47428571428571,83.31333915381741 L 103.69157142857142,93.45333915381741 M 110.42285714285715,83.31333915381741 L 111.0747142857143,93.45333915381741 M 117.37142857142857,83.31333915381741 L 118.45785714285714,93.45333915381741 M 124.32000000000001,83.31333915381741 L 125.84100000000001,93.45333915381741" stroke="#979bc4" stroke-width="0.8" fill="none" opacity="0.7"/>
    <path d="M 69.6,83.31333915381741 Q 69.6,75.7083391538174 100,73.17333915381741 Q 130.4,75.7083391538174 130.4,83.31333915381741" fill="#3275b4" filter="url(#organic)"/>
  </g>
</svg>