<svg xmlns="http://www.w3.org/2000/svg" viewBox="0 0 200 200" width="200" height="200">
  <defs>
    <filter id="organic" x="-5%" y="-5%" width="110%" height="110%">
    <feTurbulence type="fractalNoise" baseFrequency="0.04" numOctaves="3" seed="1" result="noise"/>
    <feDisplacementMap in="SourceGraphic" in2="noise" scale="2" xChannelSelector="R" yChannelSelector="G"/>
  </filter>
  </defs>
  <g>
    <path d="M 96.4,105.41899998426568 Q 95.4,137.70949999213283 95.68,170 L 104.32,170 Q 104.6,137.70949999213283 103.6,105.41899998426568 Z" fill="#78a6bd" filter="url(#organic)"/>
    <ellipse cx="100" cy="124.79329998898598" rx="5.4" ry="1.62" fill="none" stroke="currentColor" stroke-width="1.5" opacity="0.6"/>
    <path d="M 71.75999999999999,105.41899998426568 L 70.32,115.01899998426569 M 76.89454545454545,105.41899998426568 L 75.71636363636364,115.01899998426569 M 82.0290909090909,105.41899998426568 L 81.11272727272726,115.01899998426569 M 87.16363636363636,105.41899998426568 L 86.5090909090909,115.01899998426569 M 92.29818181818182,105.41899998426568 L 91.90545454545455,115.01899998426569 M 97.43272727272726,105.41899998426568 L 97.30181818181818,115.01899998426569 M 102.56727272727272,105.41899998426568 L 102.69818181818181,115.01899998426569 M 107.70181818181817,105.41899998426568 L 108.09454545454544,115.01899998426569 M 112.83636363636364,105.41899998426568 L 113.4909090909091,115.01899998426569 M 117.97090909090909,105.41899998426568 L 118.88727272727273,115.01899998426569 M 123.10545454545453,105.41899998426568 L 124.28363636363635,115.01899998426569 M 128.24,105.41899998426568 L 129.68,115.01899998426569" stroke="#78a6bd" stroke-width="0.8" fill="none" opacity="0.7"/>
    <path d="M 64.69999999999999,105.41899998426568 Q 71.75999999999999,88.61899998426568 100,81.41899998426568 Q 128.24,88.61899998426568 135.3,105.41899998426568" fill="#00858d" filter="url(#organic)"/>
  </g>
</svg>