<svg xmlns="http://www.w3.org/2000/svg" viewBox="0 0 200 200" width="200" height="200">
  <defs>
    <filter id="organic" x="-5%" y="-5%" width="110%" height="110%">
    <feTurbulence type="fractalNoise" baseFrequency="0.04" numOctaves="3" seed="1" result="noise"/>
    <feDisplacementMap in="SourceGraphic" in2="noise" scale="2" xChannelSelector="R" yChannelSelector="G"/>
  </filter>
  </defs>
  <g>
    <path d="M 92,94.56052717495575 Q 91,132.28026358747786 90.4,170 L 109.6,170 Q 109,132.28026358747786 108,94.56052717495575 Z" fill="#979bc4" filter="url(#organic)"/>
    <ellipse cx="100" cy="117.19236902246902" rx="12" ry="3.5999999999999996" fill="none" stroke="currentColor" stroke-width="1.5" opacity="0.6"/>
    <path d="M 60,94.56052717495575 L 58.479,104.70052717495575 M 63.47826086956522,94.56052717495575 L 62.08952173913043,104.70052717495575 M 66.95652173913044,94.56052717495575 L 65.70004347826087,104.70052717495575 M 70.43478260869566,94.56052717495575 L 69.31056521739131,104.70052717495575 M 73.91304347826087,94.56052717495575 L 72.92108695652175,104.70052717495575 M 77.3913043478261,94.56052717495575 L 76.53160869565218,104.70052717495575 M 80.86956521739131,94.56052717495575 L 80.14213043478262,104.70052717495575 M 84.34782608695653,94.56052717495575 L 83.75265217391305,104.70052717495575 M 87.82608695652173,94.56052717495575 L 87.36317391304347,104.70052717495575 M 91.30434782608695,94.56052717495575 L 90.97369565217392,104.70052717495575 M 94.78260869565219,94.56052717495575 L 94.58421739130436,104.70052717495575 M 98.2608695652174,94.56052717495575 L 98.1947391304348,104.70052717495575 M 101.73913043478261,94.56052717495575 L 101.80526086956522,104.70052717495575 M 105.21739130434783,94.56052717495575 L 105.41578260869565,104.70052717495575 M 108.69565217391306,94.56052717495575 L 109.0263043478261,104.70052717495575 M 112.17391304347827,94.56052717495575 L 112.63682608695653,104.70052717495575 M 115.65217391304347,94.56052717495575 L 116.24734782608695,104.70052717495575 M 119.13043478260869,94.56052717495575 L 119.85786956521738,104.70052717495575 M 122.6086956521739,94.56052717495575 L 123.46839130434782,104.70052717495575 M 126.08695652173913,94.56052717495575 L 127.07891304347825,104.70052717495575 M 129.56521739130437,94.56052717495575 L 130.6894347826087,104.70052717495575 M 133.04347826086956,94.56052717495575 L 134.29995652173912,104.70052717495575 M 136.5217391304348,94.56052717495575 L 137.91047826086958,104.70052717495575 M 140,94.56052717495575 L 141.521,104.70052717495575" stroke="#979bc4" stroke-width="0.8" fill="none" opacity="0.7"/>
    <path d="M 50,84.42052717495577 Q 65,94.56052717495575 100,89.49052717495576 Q 135,94.56052717495575 150,84.42052717495577" fill="#3275b4" filter="url(#organic)"/>
    <circle cx="75.0" cy="76.8" r="3" fill="white" opacity="0.85"/>
    <circle cx="115.0" cy="74.3" r="2.5" fill="white" opacity="0.85"/>
    <circle cx="95.0" cy="73.0" r="2" fill="white" opacity="0.85"/>
    <circle cx="130.0" cy="79.4" r="2" fill="white" opacity="0.85"/>
    <circle cx="70.0" cy="81.9" r="1.5" fill="white" opacity="0.85"/>
    <circle cx="105.0" cy="81.9" r="2.5" fill="white" opacity="0.85"/>
  </g>
</svg>