<svg xmlns="http://www.w3.org/2000/svg" viewBox="0 0 200 200" width="200" height="200">
  <defs>
    <filter id="organic" x="-5%" y="-5%" width="110%" height="110%">
    <feTurbulence type="fractalNoise" baseFrequency="0.04" numOctaves="3" seed="1" result="noise"/>
    <feDisplacementMap in="SourceGraphic" in2="noise" scale="2" xChannelSelector="R" yChannelSelector="G"/>
  </filter>
  </defs>
  <g>
    <path d="M 92,86.61927270629363 Q 91,128.3096363531468 90.4,170 L 109.6,170 Q 109,128.3096363531468 108,86.61927270629363 Z" fill="#979bc4" filter="url(#organic)"/>
    <ellipse cx="100" cy="111.63349089440554" rx="12" ry="3.5999999999999996" fill="none" stroke="currentColor" stroke-width="1.5" opacity="0.6"/>
    <path d="M 60,86.61927270629363 L 58.074,99.45927270629363 M 63.47826086956522,86.61927270629363 L 61.71973913043478,99.45927270629363 M 66.95652173913044,86.61927270629363 L 65.36547826086957,99.45927270629363 M 70.43478260869566,86.61927270629363 L 69.01121739130436,99.45927270629363 M 73.91304347826087,86.61927270629363 L 72.65695652173913,99.45927270629363 M 77.3913043478261,86.61927270629363 L 76.30269565217392,99.45927270629363 M 80.86956521739131,86.61927270629363 L 79.9484347826087,99.45927270629363 M 84.34782608695653,86.61927270629363 L 83.59417391304349,99.45927270629363 M 87.82608695652173,86.61927270629363 L 87.23991304347825,99.45927270629363 M 91.30434782608695,86.61927270629363 L 90.88565217391304,99.45927270629363 M 94.78260869565219,86.61927270629363 L 94.53139130434784,99.45927270629363 M 98.2608695652174,86.61927270629363 L 98.17713043478263,99.45927270629363 M 101.73913043478261,86.61927270629363 L 101.82286956521739,99.45927270629363 M 105.21739130434783,86.61927270629363 L 105.46860869565218,99.45927270629363 M 108.69565217391306,86.61927270629363 L 109.11434782608697,99.45927270629363 M 112.17391304347827,86.61927270629363 L 112.76008695652175,99.45927270629363 M 115.65217391304347,86.61927270629363 L 116.40582608695651,99.45927270629363 M 119.13043478260869,86.61927270629363 L 120.0515652173913,99.45927270629363 M 122.6086956521739,86.61927270629363 L 123.69730434782608,99.45927270629363 M 126.08695652173913,86.61927270629363 L 127.34304347826087,99.45927270629363 M 129.56521739130437,86.61927270629363 L 130.9887826086957,99.45927270629363 M 133.04347826086956,86.61927270629363 L 134.63452173913043,99.45927270629363 M 136.5217391304348,86.61927270629363 L 138.28026086956524,99.45927270629363 M 140,86.61927270629363 L 141.926,99.45927270629363" stroke="#979bc4" stroke-width="0.8" fill="none" opacity="0.7"/>
    <path d="M 50,73.77927270629363 Q 65,86.61927270629363 100,80.19927270629363 Q 135,86.61927270629363 150,73.77927270629363" fill="#3275b4" filter="url(#organic)"/>
    <circle cx="75.0" cy="64.1" r="3" fill="white" opacity="0.85"/>
    <circle cx="115.0" cy="60.9" r="2.5" fill="white" opacity="0.85"/>
    <circle cx="95.0" cy="59.3" r="2" fill="white" opacity="0.85"/>
    <circle cx="130.0" cy="67.4" r="2" fill="white" opacity="0.85"/>
    <circle cx="70.0" cy="70.6" r="1.5" fill="white" opacity="0.85"/>
    <circle cx="105.0" cy="70.6" r="2.5" fill="white" opacity="0.85"/>
  </g>
</svg>