<svg xmlns="http://www.w3.org/2000/svg" viewBox="0 0 200 200" width="200" height="200">
  <defs>
    <filter id="organic" x="-5%" y="-5%" width="110%" height="110%">
    <feTurbulence type="fractalNoise" baseFrequency="0.04" numOctaves="3" seed="1" result="noise"/>
    <feDisplacementMap in="SourceGraphic" in2="noise" scale="2" xChannelSelector="R" yChannelSelector="G"/>
  </filter>
  </defs>
  <g>
    <path d="M 96.4,89.50898541571462 Q 95.4,129.7544927078573 95.68,170 L 104.32,170 Q 104.6,129.7544927078573 103.6,89.50898541571462 Z" fill="#979bc4" filter="url(#organic)"/>
    <ellipse cx="100" cy="113.65628979100023" rx="5.4" ry="1.62" fill="none" stroke="currentColor" stroke-width="1.5" opacity="0.6"/>
    <path d="M 71.75999999999999,89.50898541571462 L 69.672,103.42898541571462 M 76.89454545454545,89.50898541571462 L 75.18618181818181,103.42898541571462 M 82.0290909090909,89.50898541571462 L 80.70036363636362,103.42898541571462 M 87.16363636363636,89.50898541571462 L 86.21454545454544,103.42898541571462 M 92.29818181818182,89.50898541571462 L 91.72872727272727,103.42898541571462 M 97.43272727272726,89.50898541571462 L 97.24290909090908,103.42898541571462 M 102.56727272727272,89.50898541571462 L 102.7570909090909,103.42898541571462 M 107.70181818181817,89.50898541571462 L 108.27127272727272,103.42898541571462 M 112.83636363636364,89.50898541571462 L 113.78545454545456,103.42898541571462 M 117.97090909090909,89.50898541571462 L 119.29963636363637,103.42898541571462 M 123.10545454545453,89.50898541571462 L 124.81381818181818,103.42898541571462 M 128.24,89.50898541571462 L 130.328,103.42898541571462" stroke="#979bc4" stroke-width="0.8" fill="none" opacity="0.7"/>
    <path d="M 64.69999999999999,89.50898541571462 Q 64.69999999999999,79.06898541571462 100,75.58898541571462 Q 135.3,79.06898541571462 135.3,89.50898541571462" fill="#3275b4" filter="url(#organic)"/>
  </g>
</svg>