<svg xmlns="http://www.w3.org/2000/svg" viewBox="0 0 200 200" width="200" height="200">
  <defs>
    <filter id="organic" x="-5%" y="-5%" width="110%" height="110%">
    <feTurbulence type="fractalNoise" baseFrequency="0.04" numOctaves="3" seed="1" result="noise"/>
    <feDisplacementMap in="SourceGraphic" in2="noise" scale="2" xChannelSelector="R" yChannelSelector="G"/>
  </filter>
  </defs>
  <g>
    <path d="M 96.8,65.8473651052472 Q 95.8,117.9236825526236 96.16,170 L 103.84,170 Q 104.2,117.9236825526236 103.2,65.8473651052472 Z" fill="#979bc4" filter="url(#organic)"/>
    <ellipse cx="100" cy="97.09315557367304" rx="4.800000000000001" ry="1.4400000000000002" fill="none" stroke="currentColor" stroke-width="1.5" opacity="0.6"/>
    <path d="M 73.72,65.8473651052472 L 70.255,88.9473651052472 M 79.56,65.8473651052472 L 76.86500000000001,88.9473651052472 M 85.4,65.8473651052472 L 83.47500000000001,88.9473651052472 M 91.24,65.8473651052472 L 90.085,88.9473651052472 M 97.08,65.8473651052472 L 96.695,88.9473651052472 M 102.92,65.8473651052472 L 103.305,88.9473651052472 M 108.75999999999999,65.8473651052472 L 109.91499999999999,88.9473651052472 M 114.6,65.8473651052472 L 116.52499999999999,88.9473651052472 M 120.44,65.8473651052472 L 123.13499999999999,88.9473651052472 M 126.28,65.8473651052472 L 129.745,88.9473651052472" stroke="#979bc4" stroke-width="0.8" fill="none" opacity="0.7"/>
    <path d="M 67.15,65.8473651052472 Q 67.15,42.747365105247205 90.145,31.197365105247208 L 100,8.097365105247206 L 109.855,31.197365105247208 Q 132.85,42.747365105247205 132.85,65.8473651052472" fill="#3275b4" filter="url(#organic)"/>
  </g>
</svg>