<svg xmlns="http://www.w3.org/2000/svg" viewBox="0 0 200 200" width="200" height="200">
  <defs>
    <filter id="organic" x="-5%" y="-5%" width="110%" height="110%">
    <feTurbulence type="fractalNoise" baseFrequency="0.04" numOctaves="3" seed="1" result="noise"/>
    <feDisplacementMap in="SourceGraphic" in2="noise" scale="2" xChannelSelector="R" yChannelSelector="G"/>
  </filter>
  </defs>
  <g>
    <path d="M 96.4,67.38604757235537 Q 95.4,118.69302378617769 95.68,170 L 104.32,170 Q 104.6,118.69302378617769 103.6,67.38604757235537 Z" fill="#78a6bd" filter="url(#organic)"/>
    <ellipse cx="100" cy="98.17023330064876" rx="5.4" ry="1.62" fill="none" stroke="currentColor" stroke-width="1.5" opacity="0.6"/>
    <path d="M 71.75999999999999,67.38604757235537 L 70.32,76.98604757235537 M 76.89454545454545,67.38604757235537 L 75.71636363636364,76.98604757235537 M 82.0290909090909,67.38604757235537 L 81.11272727272726,76.98604757235537 M 87.16363636363636,67.38604757235537 L 86.5090909090909,76.98604757235537 M 92.29818181818182,67.38604757235537 L 91.90545454545455,76.98604757235537 M 97.43272727272726,67.38604757235537 L 97.30181818181818,76.98604757235537 M 102.56727272727272,67.38604757235537 L 102.69818181818181,76.98604757235537 M 107.70181818181817,67.38604757235537 L 108.09454545454544,76.98604757235537 M 112.83636363636364,67.38604757235537 L 113.4909090909091,76.98604757235537 M 117.97090909090909,67.38604757235537 L 118.88727272727273,76.98604757235537 M 123.10545454545453,67.38604757235537 L 124.28363636363635,76.98604757235537 M 128.24,67.38604757235537 L 129.68,76.98604757235537" stroke="#78a6bd" stroke-width="0.8" fill="none" opacity="0.7"/>
    <path d="M 64.69999999999999,67.38604757235537 Q 64.69999999999999,60.18604757235536 100,57.786047572355365 Q 135.3,60.18604757235536 135.3,67.38604757235537" fill="#00858d" filter="url(#organic)"/>
  </g>
</svg>