<svg xmlns="http://www.w3.org/2000/svg" viewBox="0 0 200 200" width="200" height="200">
  <defs>
    <filter id="organic" x="-5%" y="-5%" width="110%" height="110%">
    <feTurbulence type="fractalNoise" baseFrequency="0.04" numOctaves="3" seed="1" result="noise"/>
    <feDisplacementMap in="SourceGraphic" in2="noise" scale="2" xChannelSelector="R" yChannelSelector="G"/>
  </filter>
  </defs>
  <g>
    <path d="M 94,87.71036684450897 Q 93,128.85518342225447 92.8,170 L 107.2,170 Q 107,128.85518342225447 106,87.71036684450897 Z" fill="#979bc4" filter="url(#organic)"/>
    <ellipse cx="100" cy="112.39725679115628" rx="9" ry="2.6999999999999997" fill="none" stroke="currentColor" stroke-width="1.5" opacity="0.6"/>
    <path d="M 60,87.71036684450897 L 57.345,105.41036684450897 M 63.47826086956522,87.71036684450897 L 61.05413043478261,105.41036684450897 M 66.95652173913044,87.71036684450897 L 64.76326086956522,105.41036684450897 M 70.43478260869566,87.71036684450897 L 68.47239130434782,105.41036684450897 M 73.91304347826087,87.71036684450897 L 72.18152173913045,105.41036684450897 M 77.3913043478261,87.71036684450897 L 75.89065217391305,105.41036684450897 M 80.86956521739131,87.71036684450897 L 79.59978260869566,105.41036684450897 M 84.34782608695653,87.71036684450897 L 83.30891304347827,105.41036684450897 M 87.82608695652173,87.71036684450897 L 87.01804347826086,105.41036684450897 M 91.30434782608695,87.71036684450897 L 90.72717391304347,105.41036684450897 M 94.78260869565219,87.71036684450897 L 94.4363043478261,105.41036684450897 M 98.2608695652174,87.71036684450897 L 98.1454347826087,105.41036684450897 M 101.73913043478261,87.71036684450897 L 101.85456521739131,105.41036684450897 M 105.21739130434783,87.71036684450897 L 105.56369565217392,105.41036684450897 M 108.69565217391306,87.71036684450897 L 109.27282608695654,105.41036684450897 M 112.17391304347827,87.71036684450897 L 112.98195652173914,105.41036684450897 M 115.65217391304347,87.71036684450897 L 116.69108695652173,105.41036684450897 M 119.13043478260869,87.71036684450897 L 120.40021739130434,105.41036684450897 M 122.6086956521739,87.71036684450897 L 124.10934782608695,105.41036684450897 M 126.08695652173913,87.71036684450897 L 127.81847826086955,105.41036684450897 M 129.56521739130437,87.71036684450897 L 131.5276086956522,105.41036684450897 M 133.04347826086956,87.71036684450897 L 135.23673913043478,105.41036684450897 M 136.5217391304348,87.71036684450897 L 138.9458695652174,105.41036684450897 M 140,87.71036684450897 L 142.655,105.41036684450897" stroke="#979bc4" stroke-width="0.8" fill="none" opacity="0.7"/>
    <path d="M 50,87.71036684450897 Q 50,74.43536684450896 100,70.01036684450897 Q 150,74.43536684450896 150,87.71036684450897" fill="#3275b4" filter="url(#organic)"/>
  </g>
</svg>