<svg xmlns="http://www.w3.org/2000/svg" viewBox="0 0 200 200" width="200" height="200">
  <defs>
    <filter id="organic" x="-5%" y="-5%" width="110%" height="110%">
    <feTurbulence type="fractalNoise" baseFrequency="0.04" numOctaves="3" seed="1" result="noise"/>
    <feDisplacementMap in="SourceGraphic" in2="noise" scale="2" xChannelSelector="R" yChannelSelector="G"/>
  </filter>
  </defs>
  <g>
    <path d="M 92,78.56666744574798 Q 91,124.28333372287399 90.4,170 L 109.6,170 Q 109,124.28333372287399 108,78.56666744574798 Z" fill="#a496bf" filter="url(#organic)"/>
    <ellipse cx="100" cy="105.99666721202358" rx="12" ry="3.5999999999999996" fill="none" stroke="currentColor" stroke-width="1.5" opacity="0.6"/>
    <path d="M 60,78.56666744574798 L 58.56,88.16666744574798 M 63.47826086956522,78.56666744574798 L 62.16347826086957,88.16666744574798 M 66.95652173913044,78.56666744574798 L 65.76695652173913,88.16666744574798 M 70.43478260869566,78.56666744574798 L 69.3704347826087,88.16666744574798 M 73.91304347826087,78.56666744574798 L 72.97391304347826,88.16666744574798 M 77.3913043478261,78.56666744574798 L 76.57739130434783,88.16666744574798 M 80.86956521739131,78.56666744574798 L 80.18086956521739,88.16666744574798 M 84.34782608695653,78.56666744574798 L 83.78434782608697,88.16666744574798 M 87.82608695652173,78.56666744574798 L 87.38782608695652,88.16666744574798 M 91.30434782608695,78.56666744574798 L 90.99130434782609,88.16666744574798 M 94.78260869565219,78.56666744574798 L 94.59478260869567,88.16666744574798 M 98.2608695652174,78.56666744574798 L 98.19826086956523,88.16666744574798 M 101.73913043478261,78.56666744574798 L 101.80173913043478,88.16666744574798 M 105.21739130434783,78.56666744574798 L 105.40521739130435,88.16666744574798 M 108.69565217391306,78.56666744574798 L 109.00869565217393,88.16666744574798 M 112.17391304347827,78.56666744574798 L 112.61217391304348,88.16666744574798 M 115.65217391304347,78.56666744574798 L 116.21565217391303,88.16666744574798 M 119.13043478260869,78.56666744574798 L 119.81913043478261,88.16666744574798 M 122.6086956521739,78.56666744574798 L 123.42260869565217,88.16666744574798 M 126.08695652173913,78.56666744574798 L 127.02608695652174,88.16666744574798 M 129.56521739130437,78.56666744574798 L 130.62956521739133,88.16666744574798 M 133.04347826086956,78.56666744574798 L 134.23304347826087,88.16666744574798 M 136.5217391304348,78.56666744574798 L 137.83652173913046,88.16666744574798 M 140,78.56666744574798 L 141.44,88.16666744574798" stroke="#a496bf" stroke-width="0.8" fill="none" opacity="0.7"/>
    <path d="M 50,78.56666744574798 Q 50,71.36666744574798 100,68.96666744574799 Q 150,71.36666744574798 150,78.56666744574798" fill="#576cb7" filter="url(#organic)"/>
  </g>
</svg>