<svg xmlns="http://www.w3.org/2000/svg" viewBox="0 0 200 200" width="200" height="200">
  <defs>
    <filter id="organic" x="-5%" y="-5%" width="110%" height="110%">
    <feTurbulence type="fractalNoise" baseFrequency="0.04" numOctaves="3" seed="1" result="noise"/>
    <feDisplacementMap in="SourceGraphic" in2="noise" scale="2" xChannelSelector="R" yChannelSelector="G"/>
  </filter>
  </defs>
  <g>
    <path d="M 93.6,78.12512988946403 Q 92.6,124.06256494473202 92.32000000000001,170 L 107.67999999999999,170 Q 107.4,124.06256494473202 106.4,78.12512988946403 Z" fill="#979bc4" filter="url(#organic)"/>
    <path d="M 60,78.12512988946403 L 56.4,102.12512988946403 M 63.47826086956522,78.12512988946403 L 60.19130434782609,102.12512988946403 M 66.95652173913044,78.12512988946403 L 63.982608695652175,102.12512988946403 M 70.43478260869566,78.12512988946403 L 67.77391304347826,102.12512988946403 M 73.91304347826087,78.12512988946403 L 71.56521739130436,102.12512988946403 M 77.3913043478261,78.12512988946403 L 75.35652173913044,102.12512988946403 M 80.86956521739131,78.12512988946403 L 79.14782608695653,102.12512988946403 M 84.34782608695653,78.12512988946403 L 82.93913043478261,102.12512988946403 M 87.82608695652173,78.12512988946403 L 86.7304347826087,102.12512988946403 M 91.30434782608695,78.12512988946403 L 90.52173913043478,102.12512988946403 M 94.78260869565219,78.12512988946403 L 94.31304347826088,102.12512988946403 M 98.2608695652174,78.12512988946403 L 98.10434782608696,102.12512988946403 M 101.73913043478261,78.12512988946403 L 101.89565217391305,102.12512988946403 M 105.21739130434783,78.12512988946403 L 105.68695652173913,102.12512988946403 M 108.69565217391306,78.12512988946403 L 109.47826086956523,102.12512988946403 M 112.17391304347827,78.12512988946403 L 113.2695652173913,102.12512988946403 M 115.65217391304347,78.12512988946403 L 117.06086956521739,102.12512988946403 M 119.13043478260869,78.12512988946403 L 120.85217391304347,102.12512988946403 M 122.6086956521739,78.12512988946403 L 124.64347826086956,102.12512988946403 M 126.08695652173913,78.12512988946403 L 128.43478260869566,102.12512988946403 M 129.56521739130437,78.12512988946403 L 132.22608695652175,102.12512988946403 M 133.04347826086956,78.12512988946403 L 136.01739130434783,102.12512988946403 M 136.5217391304348,78.12512988946403 L 139.80869565217395,102.12512988946403 M 140,78.12512988946403 L 143.6,102.12512988946403" stroke="#979bc4" stroke-width="0.8" fill="none" opacity="0.7"/>
    <path d="M 50,78.12512988946403 Q 50,54.125129889464034 85,42.125129889464034 L 100,18.125129889464034 L 115,42.125129889464034 Q 150,54.125129889464034 150,78.12512988946403" fill="#3275b4" filter="url(#organic)"/>
  </g>
</svg>