<svg xmlns="http://www.w3.org/2000/svg" viewBox="0 0 200 200" width="200" height="200">
  <defs>
    <filter id="organic" x="-5%" y="-5%" width="110%" height="110%">
    <feTurbulence type="fractalNoise" baseFrequency="0.04" numOctaves="3" seed="1" result="noise"/>
    <feDisplacementMap in="SourceGraphic" in2="noise" scale="2" xChannelSelector="R" yChannelSelector="G"/>
  </filter>
  </defs>
  <g>
    <path d="M 92,98.34239669408583 Q 91,134.17119834704292 90.4,170 L 109.6,170 Q 109,134.17119834704292 108,98.34239669408583 Z" fill="#979bc4" filter="url(#organic)"/>
    <ellipse cx="100" cy="119.83967768586008" rx="12" ry="3.5999999999999996" fill="none" stroke="currentColor" stroke-width="1.5" opacity="0.6"/>
    <path d="M 60,98.34239669408583 L 58.317,109.56239669408583 M 63.47826086956522,98.34239669408583 L 61.94160869565218,109.56239669408583 M 66.95652173913044,98.34239669408583 L 65.56621739130435,109.56239669408583 M 70.43478260869566,98.34239669408583 L 69.19082608695652,109.56239669408583 M 73.91304347826087,98.34239669408583 L 72.8154347826087,109.56239669408583 M 77.3913043478261,98.34239669408583 L 76.44004347826088,109.56239669408583 M 80.86956521739131,98.34239669408583 L 80.06465217391305,109.56239669408583 M 84.34782608695653,98.34239669408583 L 83.68926086956523,109.56239669408583 M 87.82608695652173,98.34239669408583 L 87.31386956521739,109.56239669408583 M 91.30434782608695,98.34239669408583 L 90.93847826086956,109.56239669408583 M 94.78260869565219,98.34239669408583 L 94.56308695652176,109.56239669408583 M 98.2608695652174,98.34239669408583 L 98.18769565217393,109.56239669408583 M 101.73913043478261,98.34239669408583 L 101.81230434782609,109.56239669408583 M 105.21739130434783,98.34239669408583 L 105.43691304347826,109.56239669408583 M 108.69565217391306,98.34239669408583 L 109.06152173913046,109.56239669408583 M 112.17391304347827,98.34239669408583 L 112.68613043478261,109.56239669408583 M 115.65217391304347,98.34239669408583 L 116.31073913043477,109.56239669408583 M 119.13043478260869,98.34239669408583 L 119.93534782608695,109.56239669408583 M 122.6086956521739,98.34239669408583 L 123.55995652173912,109.56239669408583 M 126.08695652173913,98.34239669408583 L 127.1845652173913,109.56239669408583 M 129.56521739130437,98.34239669408583 L 130.8091739130435,109.56239669408583 M 133.04347826086956,98.34239669408583 L 134.43378260869565,109.56239669408583 M 136.5217391304348,98.34239669408583 L 138.05839130434785,109.56239669408583 M 140,98.34239669408583 L 141.683,109.56239669408583" stroke="#979bc4" stroke-width="0.8" fill="none" opacity="0.7"/>
    <path d="M 50,87.12239669408584 Q 65,98.34239669408583 100,92.73239669408584 Q 135,98.34239669408583 150,87.12239669408584" fill="#3275b4" filter="url(#organic)"/>
    <circle cx="75.0" cy="78.7" r="3" fill="white" opacity="0.85"/>
    <circle cx="115.0" cy="75.9" r="2.5" fill="white" opacity="0.85"/>
    <circle cx="95.0" cy="74.5" r="2" fill="white" opacity="0.85"/>
    <circle cx="130.0" cy="81.5" r="2" fill="white" opacity="0.85"/>
    <circle cx="70.0" cy="84.3" r="1.5" fill="white" opacity="0.85"/>
    <circle cx="105.0" cy="84.3" r="2.5" fill="white" opacity="0.85"/>
  </g>
</svg>