<svg xmlns="http://www.w3.org/2000/svg" viewBox="0 0 200 200" width="200" height="200">
  <defs>
    <filter id="organic" x="-5%" y="-5%" width="110%" height="110%">
    <feTurbulence type="fractalNoise" baseFrequency="0.04" numOctaves="3" seed="1" result="noise"/>
    <feDisplacementMap in="SourceGraphic" in2="noise" scale="2" xChannelSelector="R" yChannelSelector="G"/>
  </filter>
  </defs>
  <g>
    <path d="M 92,98.95377316527473 Q 91,134.47688658263735 90.4,170 L 109.6,170 Q 109,134.47688658263735 108,98.95377316527473 Z" fill="#979bc4" filter="url(#organic)"/>
    <ellipse cx="100" cy="120.26764121569231" rx="12" ry="3.5999999999999996" fill="none" stroke="currentColor" stroke-width="1.5" opacity="0.6"/>
    <path d="M 60,98.95377316527473 L 58.479,109.09377316527473 M 63.47826086956522,98.95377316527473 L 62.08952173913043,109.09377316527473 M 66.95652173913044,98.95377316527473 L 65.70004347826087,109.09377316527473 M 70.43478260869566,98.95377316527473 L 69.31056521739131,109.09377316527473 M 73.91304347826087,98.95377316527473 L 72.92108695652175,109.09377316527473 M 77.3913043478261,98.95377316527473 L 76.53160869565218,109.09377316527473 M 80.86956521739131,98.95377316527473 L 80.14213043478262,109.09377316527473 M 84.34782608695653,98.95377316527473 L 83.75265217391305,109.09377316527473 M 87.82608695652173,98.95377316527473 L 87.36317391304347,109.09377316527473 M 91.30434782608695,98.95377316527473 L 90.97369565217392,109.09377316527473 M 94.78260869565219,98.95377316527473 L 94.58421739130436,109.09377316527473 M 98.2608695652174,98.95377316527473 L 98.1947391304348,109.09377316527473 M 101.73913043478261,98.95377316527473 L 101.80526086956522,109.09377316527473 M 105.21739130434783,98.95377316527473 L 105.41578260869565,109.09377316527473 M 108.69565217391306,98.95377316527473 L 109.0263043478261,109.09377316527473 M 112.17391304347827,98.95377316527473 L 112.63682608695653,109.09377316527473 M 115.65217391304347,98.95377316527473 L 116.24734782608695,109.09377316527473 M 119.13043478260869,98.95377316527473 L 119.85786956521738,109.09377316527473 M 122.6086956521739,98.95377316527473 L 123.46839130434782,109.09377316527473 M 126.08695652173913,98.95377316527473 L 127.07891304347825,109.09377316527473 M 129.56521739130437,98.95377316527473 L 130.6894347826087,109.09377316527473 M 133.04347826086956,98.95377316527473 L 134.29995652173912,109.09377316527473 M 136.5217391304348,98.95377316527473 L 137.91047826086958,109.09377316527473 M 140,98.95377316527473 L 141.521,109.09377316527473" stroke="#979bc4" stroke-width="0.8" fill="none" opacity="0.7"/>
    <path d="M 50,98.95377316527473 Q 50,91.34877316527474 100,88.81377316527474 Q 150,91.34877316527474 150,98.95377316527473" fill="#3275b4" filter="url(#organic)"/>
  </g>
</svg>