<svg xmlns="http://www.w3.org/2000/svg" viewBox="0 0 200 200" width="200" height="200">
  <defs>
    <filter id="organic" x="-5%" y="-5%" width="110%" height="110%">
    <feTurbulence type="fractalNoise" baseFrequency="0.04" numOctaves="3" seed="1" result="noise"/>
    <feDisplacementMap in="SourceGraphic" in2="noise" scale="2" xChannelSelector="R" yChannelSelector="G"/>
  </filter>
  </defs>
  <g>
    <path d="M 92,88.92823408706579 Q 91,129.4641170435329 90.4,170 L 109.6,170 Q 109,129.4641170435329 108,88.92823408706579 Z" fill="#979bc4" filter="url(#organic)"/>
    <path d="M 60,88.92823408706579 L 58.236,100.6882340870658 M 63.47826086956522,88.92823408706579 L 61.867652173913044,100.6882340870658 M 66.95652173913044,88.92823408706579 L 65.49930434782608,100.6882340870658 M 70.43478260869566,88.92823408706579 L 69.13095652173914,100.6882340870658 M 73.91304347826087,88.92823408706579 L 72.76260869565218,100.6882340870658 M 77.3913043478261,88.92823408706579 L 76.39426086956523,100.6882340870658 M 80.86956521739131,88.92823408706579 L 80.02591304347827,100.6882340870658 M 84.34782608695653,88.92823408706579 L 83.65756521739131,100.6882340870658 M 87.82608695652173,88.92823408706579 L 87.28921739130435,100.6882340870658 M 91.30434782608695,88.92823408706579 L 90.92086956521739,100.6882340870658 M 94.78260869565219,88.92823408706579 L 94.55252173913044,100.6882340870658 M 98.2608695652174,88.92823408706579 L 98.1841739130435,100.6882340870658 M 101.73913043478261,88.92823408706579 L 101.81582608695652,100.6882340870658 M 105.21739130434783,88.92823408706579 L 105.44747826086957,100.6882340870658 M 108.69565217391306,88.92823408706579 L 109.07913043478263,100.6882340870658 M 112.17391304347827,88.92823408706579 L 112.71078260869565,100.6882340870658 M 115.65217391304347,88.92823408706579 L 116.34243478260869,100.6882340870658 M 119.13043478260869,88.92823408706579 L 119.97408695652173,100.6882340870658 M 122.6086956521739,88.92823408706579 L 123.60573913043477,100.6882340870658 M 126.08695652173913,88.92823408706579 L 127.23739130434782,100.6882340870658 M 129.56521739130437,88.92823408706579 L 130.8690434782609,100.6882340870658 M 133.04347826086956,88.92823408706579 L 134.5006956521739,100.6882340870658 M 136.5217391304348,88.92823408706579 L 138.13234782608697,100.6882340870658 M 140,88.92823408706579 L 141.764,100.6882340870658" stroke="#979bc4" stroke-width="0.8" fill="none" opacity="0.7"/>
    <path d="M 50,77.16823408706578 Q 65,88.92823408706579 100,83.0482340870658 Q 135,88.92823408706579 150,77.16823408706578" fill="#3275b4" filter="url(#organic)"/>
    <circle cx="75.0" cy="68.3" r="3" fill="white" opacity="0.85"/>
    <circle cx="115.0" cy="65.4" r="2.5" fill="white" opacity="0.85"/>
    <circle cx="95.0" cy="63.9" r="2" fill="white" opacity="0.85"/>
    <circle cx="130.0" cy="71.3" r="2" fill="white" opacity="0.85"/>
    <circle cx="70.0" cy="74.2" r="1.5" fill="white" opacity="0.85"/>
    <circle cx="105.0" cy="74.2" r="2.5" fill="white" opacity="0.85"/>
  </g>
</svg>