<svg xmlns="http://www.w3.org/2000/svg" viewBox="0 0 200 200" width="200" height="200">
  <defs>
    <filter id="organic" x="-5%" y="-5%" width="110%" height="110%">
    <feTurbulence type="fractalNoise" baseFrequency="0.04" numOctaves="3" seed="1" result="noise"/>
    <feDisplacementMap in="SourceGraphic" in2="noise" scale="2" xChannelSelector="R" yChannelSelector="G"/>
  </filter>
  </defs>
  <g>
    <path d="M 96.4,92.90375686569892 Q 95.4,131.45187843284947 95.68,170 L 104.32,170 Q 104.6,131.45187843284947 103.6,92.90375686569892 Z" fill="#979bc4" filter="url(#organic)"/>
    <ellipse cx="100" cy="116.03262980598925" rx="5.4" ry="1.62" fill="none" stroke="currentColor" stroke-width="1.5" opacity="0.6"/>
    <path d="M 71.75999999999999,92.90375686569892 L 69.50999999999999,107.90375686569892 M 76.89454545454545,92.90375686569892 L 75.05363636363636,107.90375686569892 M 82.0290909090909,92.90375686569892 L 80.59727272727271,107.90375686569892 M 87.16363636363636,92.90375686569892 L 86.14090909090909,107.90375686569892 M 92.29818181818182,92.90375686569892 L 91.68454545454546,107.90375686569892 M 97.43272727272726,92.90375686569892 L 97.22818181818181,107.90375686569892 M 102.56727272727272,92.90375686569892 L 102.77181818181818,107.90375686569892 M 107.70181818181817,92.90375686569892 L 108.31545454545453,107.90375686569892 M 112.83636363636364,92.90375686569892 L 113.85909090909091,107.90375686569892 M 117.97090909090909,92.90375686569892 L 119.40272727272728,107.90375686569892 M 123.10545454545453,92.90375686569892 L 124.94636363636363,107.90375686569892 M 128.24,92.90375686569892 L 130.49,107.90375686569892" stroke="#979bc4" stroke-width="0.8" fill="none" opacity="0.7"/>
    <path d="M 64.69999999999999,92.90375686569892 Q 64.69999999999999,81.65375686569892 100,77.90375686569892 Q 135.3,81.65375686569892 135.3,92.90375686569892" fill="#3275b4" filter="url(#organic)"/>
  </g>
</svg>