<svg xmlns="http://www.w3.org/2000/svg" viewBox="0 0 200 200" width="200" height="200">
  <defs>
    <filter id="organic" x="-5%" y="-5%" width="110%" height="110%">
    <feTurbulence type="fractalNoise" baseFrequency="0.04" numOctaves="3" seed="1" result="noise"/>
    <feDisplacementMap in="SourceGraphic" in2="noise" scale="2" xChannelSelector="R" yChannelSelector="G"/>
  </filter>
  </defs>
  <g>
    <path d="M 92,84.30391648907786 Q 91,127.15195824453893 90.4,170 L 109.6,170 Q 109,127.15195824453893 108,84.30391648907786 Z" fill="#979bc4" filter="url(#organic)"/>
    <path d="M 60,84.30391648907786 L 57.75,99.30391648907786 M 63.47826086956522,84.30391648907786 L 61.423913043478265,99.30391648907786 M 66.95652173913044,84.30391648907786 L 65.09782608695653,99.30391648907786 M 70.43478260869566,84.30391648907786 L 68.77173913043478,99.30391648907786 M 73.91304347826087,84.30391648907786 L 72.44565217391305,99.30391648907786 M 77.3913043478261,84.30391648907786 L 76.11956521739131,99.30391648907786 M 80.86956521739131,84.30391648907786 L 79.79347826086958,99.30391648907786 M 84.34782608695653,84.30391648907786 L 83.46739130434783,99.30391648907786 M 87.82608695652173,84.30391648907786 L 87.14130434782608,99.30391648907786 M 91.30434782608695,84.30391648907786 L 90.81521739130434,99.30391648907786 M 94.78260869565219,84.30391648907786 L 94.48913043478262,99.30391648907786 M 98.2608695652174,84.30391648907786 L 98.16304347826089,99.30391648907786 M 101.73913043478261,84.30391648907786 L 101.83695652173913,99.30391648907786 M 105.21739130434783,84.30391648907786 L 105.51086956521739,99.30391648907786 M 108.69565217391306,84.30391648907786 L 109.18478260869567,99.30391648907786 M 112.17391304347827,84.30391648907786 L 112.85869565217392,99.30391648907786 M 115.65217391304347,84.30391648907786 L 116.53260869565217,99.30391648907786 M 119.13043478260869,84.30391648907786 L 120.20652173913042,99.30391648907786 M 122.6086956521739,84.30391648907786 L 123.88043478260869,99.30391648907786 M 126.08695652173913,84.30391648907786 L 127.55434782608695,99.30391648907786 M 129.56521739130437,84.30391648907786 L 131.22826086956525,99.30391648907786 M 133.04347826086956,84.30391648907786 L 134.90217391304347,99.30391648907786 M 136.5217391304348,84.30391648907786 L 138.57608695652178,99.30391648907786 M 140,84.30391648907786 L 142.25,99.30391648907786" stroke="#979bc4" stroke-width="0.8" fill="none" opacity="0.7"/>
    <path d="M 50,84.30391648907786 Q 50,73.05391648907786 100,69.30391648907786 Q 150,73.05391648907786 150,84.30391648907786" fill="#3275b4" filter="url(#organic)"/>
  </g>
</svg>