<svg xmlns="http://www.w3.org/2000/svg" viewBox="0 0 200 200" width="200" height="200">
  <defs>
    <filter id="organic" x="-5%" y="-5%" width="110%" height="110%">
    <feTurbulence type="fractalNoise" baseFrequency="0.04" numOctaves="3" seed="1" result="noise"/>
    <feDisplacementMap in="SourceGraphic" in2="noise" scale="2" xChannelSelector="R" yChannelSelector="G"/>
  </filter>
  </defs>
  <g>
    <path d="M 94.8,90.30625444243825 Q 93.8,130.1531272212191 93.76,170 L 106.24,170 Q 106.2,130.1531272212191 105.2,90.30625444243825 Z" fill="#979bc4" filter="url(#organic)"/>
    <ellipse cx="100" cy="114.21437810970677" rx="7.800000000000001" ry="2.3400000000000003" fill="none" stroke="currentColor" stroke-width="1.5" opacity="0.6"/>
    <path d="M 63.919999999999995,90.30625444243825 L 61.99399999999999,103.14625444243825 M 67.7178947368421,90.30625444243825 L 65.99463157894736,103.14625444243825 M 71.51578947368421,90.30625444243825 L 69.99526315789474,103.14625444243825 M 75.3136842105263,90.30625444243825 L 73.99589473684209,103.14625444243825 M 79.11157894736841,90.30625444243825 L 77.99652631578947,103.14625444243825 M 82.90947368421052,90.30625444243825 L 81.99715789473684,103.14625444243825 M 86.70736842105262,90.30625444243825 L 85.9977894736842,103.14625444243825 M 90.50526315789475,90.30625444243825 L 89.99842105263158,103.14625444243825 M 94.30315789473684,90.30625444243825 L 93.99905263157895,103.14625444243825 M 98.10105263157894,90.30625444243825 L 97.99968421052631,103.14625444243825 M 101.89894736842106,90.30625444243825 L 102.00031578947369,103.14625444243825 M 105.69684210526316,90.30625444243825 L 106.00094736842105,103.14625444243825 M 109.49473684210525,90.30625444243825 L 110.00157894736842,103.14625444243825 M 113.29263157894738,90.30625444243825 L 114.0022105263158,103.14625444243825 M 117.09052631578948,90.30625444243825 L 118.00284210526316,103.14625444243825 M 120.8884210526316,90.30625444243825 L 122.00347368421055,103.14625444243825 M 124.6863157894737,90.30625444243825 L 126.00410526315791,103.14625444243825 M 128.4842105263158,90.30625444243825 L 130.00473684210527,103.14625444243825 M 132.2821052631579,90.30625444243825 L 134.00536842105262,103.14625444243825 M 136.08,90.30625444243825 L 138.006,103.14625444243825" stroke="#979bc4" stroke-width="0.8" fill="none" opacity="0.7"/>
    <path d="M 54.89999999999999,90.30625444243825 Q 54.89999999999999,80.67625444243825 100,77.46625444243824 Q 145.10000000000002,80.67625444243825 145.10000000000002,90.30625444243825" fill="#3275b4" filter="url(#organic)"/>
  </g>
</svg>