<svg xmlns="http://www.w3.org/2000/svg" viewBox="0 0 200 200" width="200" height="200">
  <defs>
    <filter id="organic" x="-5%" y="-5%" width="110%" height="110%">
    <feTurbulence type="fractalNoise" baseFrequency="0.04" numOctaves="3" seed="1" result="noise"/>
    <feDisplacementMap in="SourceGraphic" in2="noise" scale="2" xChannelSelector="R" yChannelSelector="G"/>
  </filter>
  </defs>
  <g>
    <path d="M 92,88.22588310746539 Q 91,129.1129415537327 90.4,170 L 109.6,170 Q 109,129.1129415537327 108,88.22588310746539 Z" fill="#a496bf" filter="url(#organic)"/>
    <ellipse cx="100" cy="112.75811817522577" rx="12" ry="3.5999999999999996" fill="none" stroke="currentColor" stroke-width="1.5" opacity="0.6"/>
    <path d="M 60,88.22588310746539 L 58.56,97.82588310746539 M 63.47826086956522,88.22588310746539 L 62.16347826086957,97.82588310746539 M 66.95652173913044,88.22588310746539 L 65.76695652173913,97.82588310746539 M 70.43478260869566,88.22588310746539 L 69.3704347826087,97.82588310746539 M 73.91304347826087,88.22588310746539 L 72.97391304347826,97.82588310746539 M 77.3913043478261,88.22588310746539 L 76.57739130434783,97.82588310746539 M 80.86956521739131,88.22588310746539 L 80.18086956521739,97.82588310746539 M 84.34782608695653,88.22588310746539 L 83.78434782608697,97.82588310746539 M 87.82608695652173,88.22588310746539 L 87.38782608695652,97.82588310746539 M 91.30434782608695,88.22588310746539 L 90.99130434782609,97.82588310746539 M 94.78260869565219,88.22588310746539 L 94.59478260869567,97.82588310746539 M 98.2608695652174,88.22588310746539 L 98.19826086956523,97.82588310746539 M 101.73913043478261,88.22588310746539 L 101.80173913043478,97.82588310746539 M 105.21739130434783,88.22588310746539 L 105.40521739130435,97.82588310746539 M 108.69565217391306,88.22588310746539 L 109.00869565217393,97.82588310746539 M 112.17391304347827,88.22588310746539 L 112.61217391304348,97.82588310746539 M 115.65217391304347,88.22588310746539 L 116.21565217391303,97.82588310746539 M 119.13043478260869,88.22588310746539 L 119.81913043478261,97.82588310746539 M 122.6086956521739,88.22588310746539 L 123.42260869565217,97.82588310746539 M 126.08695652173913,88.22588310746539 L 127.02608695652174,97.82588310746539 M 129.56521739130437,88.22588310746539 L 130.62956521739133,97.82588310746539 M 133.04347826086956,88.22588310746539 L 134.23304347826087,97.82588310746539 M 136.5217391304348,88.22588310746539 L 137.83652173913046,97.82588310746539 M 140,88.22588310746539 L 141.44,97.82588310746539" stroke="#a496bf" stroke-width="0.8" fill="none" opacity="0.7"/>
    <path d="M 50,88.22588310746539 Q 50,81.02588310746539 100,78.6258831074654 Q 150,81.02588310746539 150,88.22588310746539" fill="#576cb7" filter="url(#organic)"/>
  </g>
</svg>