<svg xmlns="http://www.w3.org/2000/svg" viewBox="0 0 200 200" width="200" height="200">
  <defs>
    <filter id="organic" x="-5%" y="-5%" width="110%" height="110%">
    <feTurbulence type="fractalNoise" baseFrequency="0.04" numOctaves="3" seed="1" result="noise"/>
    <feDisplacementMap in="SourceGraphic" in2="noise" scale="2" xChannelSelector="R" yChannelSelector="G"/>
  </filter>
  </defs>
  <g>
    <path d="M 94,81.5351346233287 Q 93,125.76756731166435 92.8,170 L 107.2,170 Q 107,125.76756731166435 106,81.5351346233287 Z" fill="#979bc4" filter="url(#organic)"/>
    <path d="M 60,81.5351346233287 L 56.94,101.93513462332871 M 63.47826086956522,81.5351346233287 L 60.684347826086956,101.93513462332871 M 66.95652173913044,81.5351346233287 L 64.42869565217391,101.93513462332871 M 70.43478260869566,81.5351346233287 L 68.17304347826088,101.93513462332871 M 73.91304347826087,81.5351346233287 L 71.91739130434783,101.93513462332871 M 77.3913043478261,81.5351346233287 L 75.66173913043478,101.93513462332871 M 80.86956521739131,81.5351346233287 L 79.40608695652175,101.93513462332871 M 84.34782608695653,81.5351346233287 L 83.1504347826087,101.93513462332871 M 87.82608695652173,81.5351346233287 L 86.89478260869565,101.93513462332871 M 91.30434782608695,81.5351346233287 L 90.6391304347826,101.93513462332871 M 94.78260869565219,81.5351346233287 L 94.38347826086958,101.93513462332871 M 98.2608695652174,81.5351346233287 L 98.12782608695653,101.93513462332871 M 101.73913043478261,81.5351346233287 L 101.87217391304348,101.93513462332871 M 105.21739130434783,81.5351346233287 L 105.61652173913043,101.93513462332871 M 108.69565217391306,81.5351346233287 L 109.36086956521741,101.93513462332871 M 112.17391304347827,81.5351346233287 L 113.10521739130435,101.93513462332871 M 115.65217391304347,81.5351346233287 L 116.8495652173913,101.93513462332871 M 119.13043478260869,81.5351346233287 L 120.59391304347825,101.93513462332871 M 122.6086956521739,81.5351346233287 L 124.33826086956522,101.93513462332871 M 126.08695652173913,81.5351346233287 L 128.08260869565217,101.93513462332871 M 129.56521739130437,81.5351346233287 L 131.82695652173916,101.93513462332871 M 133.04347826086956,81.5351346233287 L 135.57130434782607,101.93513462332871 M 136.5217391304348,81.5351346233287 L 139.31565217391307,101.93513462332871 M 140,81.5351346233287 L 143.06,101.93513462332871" stroke="#979bc4" stroke-width="0.8" fill="none" opacity="0.7"/>
    <path d="M 50,61.135134623328696 Q 65,81.5351346233287 100,71.33513462332871 Q 135,81.5351346233287 150,61.135134623328696" fill="#3275b4" filter="url(#organic)"/>
    <circle cx="75.0" cy="45.8" r="3" fill="white" opacity="0.85"/>
    <circle cx="115.0" cy="40.7" r="2.5" fill="white" opacity="0.85"/>
    <circle cx="95.0" cy="38.2" r="2" fill="white" opacity="0.85"/>
    <circle cx="130.0" cy="50.9" r="2" fill="white" opacity="0.85"/>
    <circle cx="70.0" cy="56.0" r="1.5" fill="white" opacity="0.85"/>
    <circle cx="105.0" cy="56.0" r="2.5" fill="white" opacity="0.85"/>
  </g>
</svg>