<svg xmlns="http://www.w3.org/2000/svg" viewBox="0 0 200 200" width="200" height="200">
  <defs>
    <filter id="organic" x="-5%" y="-5%" width="110%" height="110%">
    <feTurbulence type="fractalNoise" baseFrequency="0.04" numOctaves="3" seed="1" result="noise"/>
    <feDisplacementMap in="SourceGraphic" in2="noise" scale="2" xChannelSelector="R" yChannelSelector="G"/>
  </filter>
  </defs>
  <g>
    <path d="M 95.2,93.14222912110016 Q 94.2,131.5711145605501 94.24,170 L 105.76,170 Q 105.8,131.5711145605501 104.8,93.14222912110016 Z" fill="#71a9b3" filter="url(#organic)"/>
    <path d="M 65.88,93.14222912110016 L 64.44,102.74222912110017 M 69.89411764705882,93.14222912110016 L 68.62352941176471,102.74222912110017 M 73.90823529411765,93.14222912110016 L 72.80705882352942,102.74222912110017 M 77.92235294117647,93.14222912110016 L 76.99058823529411,102.74222912110017 M 81.9364705882353,93.14222912110016 L 81.17411764705882,102.74222912110017 M 85.95058823529412,93.14222912110016 L 85.35764705882353,102.74222912110017 M 89.96470588235294,93.14222912110016 L 89.54117647058824,102.74222912110017 M 93.97882352941176,93.14222912110016 L 93.72470588235294,102.74222912110017 M 97.9929411764706,93.14222912110016 L 97.90823529411766,102.74222912110017 M 102.0070588235294,93.14222912110016 L 102.09176470588234,102.74222912110017 M 106.02117647058824,93.14222912110016 L 106.27529411764706,102.74222912110017 M 110.03529411764706,93.14222912110016 L 110.45882352941176,102.74222912110017 M 114.0494117647059,93.14222912110016 L 114.64235294117648,102.74222912110017 M 118.0635294117647,93.14222912110016 L 118.82588235294118,102.74222912110017 M 122.07764705882353,93.14222912110016 L 123.00941176470589,102.74222912110017 M 126.09176470588235,93.14222912110016 L 127.19294117647058,102.74222912110017 M 130.1058823529412,93.14222912110016 L 131.37647058823532,102.74222912110017 M 134.12,93.14222912110016 L 135.56,102.74222912110017" stroke="#71a9b3" stroke-width="0.8" fill="none" opacity="0.7"/>
    <path d="M 57.349999999999994,93.14222912110016 Q 57.349999999999994,85.94222912110015 100,83.54222912110015 Q 142.65,85.94222912110015 142.65,93.14222912110016" fill="#008774" filter="url(#organic)"/>
  </g>
</svg>