<svg xmlns="http://www.w3.org/2000/svg" viewBox="0 0 200 200" width="200" height="200">
  <defs>
    <filter id="organic" x="-5%" y="-5%" width="110%" height="110%">
    <feTurbulence type="fractalNoise" baseFrequency="0.04" numOctaves="3" seed="1" result="noise"/>
    <feDisplacementMap in="SourceGraphic" in2="noise" scale="2" xChannelSelector="R" yChannelSelector="G"/>
  </filter>
  </defs>
  <g>
    <path d="M 96.8,93.263529056712 Q 95.8,131.631764528356 96.16,170 L 103.84,170 Q 104.2,131.631764528356 103.2,93.263529056712 Z" fill="#a496bf" filter="url(#organic)"/>
    <path d="M 73.72,93.263529056712 L 72.28,102.863529056712 M 79.56,93.263529056712 L 78.44,102.863529056712 M 85.4,93.263529056712 L 84.60000000000001,102.863529056712 M 91.24,93.263529056712 L 90.75999999999999,102.863529056712 M 97.08,93.263529056712 L 96.92,102.863529056712 M 102.92,93.263529056712 L 103.08,102.863529056712 M 108.75999999999999,93.263529056712 L 109.24,102.863529056712 M 114.6,93.263529056712 L 115.39999999999999,102.863529056712 M 120.44,93.263529056712 L 121.56,102.863529056712 M 126.28,93.263529056712 L 127.72,102.863529056712" stroke="#a496bf" stroke-width="0.8" fill="none" opacity="0.7"/>
    <path d="M 67.15,93.263529056712 Q 73.72,76.463529056712 100,69.263529056712 Q 126.28,76.463529056712 132.85,93.263529056712" fill="#576cb7" filter="url(#organic)"/>
  </g>
</svg>