<svg xmlns="http://www.w3.org/2000/svg" viewBox="0 0 200 200" width="200" height="200">
  <defs>
    <filter id="organic" x="-5%" y="-5%" width="110%" height="110%">
    <feTurbulence type="fractalNoise" baseFrequency="0.04" numOctaves="3" seed="1" result="noise"/>
    <feDisplacementMap in="SourceGraphic" in2="noise" scale="2" xChannelSelector="R" yChannelSelector="G"/>
  </filter>
  </defs>
  <g>
    <path d="M 92,106.226500438002 Q 91,138.113250219001 90.4,170 L 109.6,170 Q 109,138.113250219001 108,106.226500438002 Z" fill="#979bc4" filter="url(#organic)"/>
    <ellipse cx="100" cy="125.3585503066014" rx="12" ry="3.5999999999999996" fill="none" stroke="currentColor" stroke-width="1.5" opacity="0.6"/>
    <path d="M 60,106.226500438002 L 58.479,116.366500438002 M 63.47826086956522,106.226500438002 L 62.08952173913043,116.366500438002 M 66.95652173913044,106.226500438002 L 65.70004347826087,116.366500438002 M 70.43478260869566,106.226500438002 L 69.31056521739131,116.366500438002 M 73.91304347826087,106.226500438002 L 72.92108695652175,116.366500438002 M 77.3913043478261,106.226500438002 L 76.53160869565218,116.366500438002 M 80.86956521739131,106.226500438002 L 80.14213043478262,116.366500438002 M 84.34782608695653,106.226500438002 L 83.75265217391305,116.366500438002 M 87.82608695652173,106.226500438002 L 87.36317391304347,116.366500438002 M 91.30434782608695,106.226500438002 L 90.97369565217392,116.366500438002 M 94.78260869565219,106.226500438002 L 94.58421739130436,116.366500438002 M 98.2608695652174,106.226500438002 L 98.1947391304348,116.366500438002 M 101.73913043478261,106.226500438002 L 101.80526086956522,116.366500438002 M 105.21739130434783,106.226500438002 L 105.41578260869565,116.366500438002 M 108.69565217391306,106.226500438002 L 109.0263043478261,116.366500438002 M 112.17391304347827,106.226500438002 L 112.63682608695653,116.366500438002 M 115.65217391304347,106.226500438002 L 116.24734782608695,116.366500438002 M 119.13043478260869,106.226500438002 L 119.85786956521738,116.366500438002 M 122.6086956521739,106.226500438002 L 123.46839130434782,116.366500438002 M 126.08695652173913,106.226500438002 L 127.07891304347825,116.366500438002 M 129.56521739130437,106.226500438002 L 130.6894347826087,116.366500438002 M 133.04347826086956,106.226500438002 L 134.29995652173912,116.366500438002 M 136.5217391304348,106.226500438002 L 137.91047826086958,116.366500438002 M 140,106.226500438002 L 141.521,116.366500438002" stroke="#979bc4" stroke-width="0.8" fill="none" opacity="0.7"/>
    <path d="M 50,106.226500438002 Q 60,88.48150043800202 100,80.87650043800201 Q 140,88.48150043800202 150,106.226500438002" fill="#3275b4" filter="url(#organic)"/>
  </g>
</svg>