<svg xmlns="http://www.w3.org/2000/svg" viewBox="0 0 200 200" width="200" height="200">
  <defs>
    <filter id="organic" x="-5%" y="-5%" width="110%" height="110%">
    <feTurbulence type="fractalNoise" baseFrequency="0.04" numOctaves="3" seed="1" result="noise"/>
    <feDisplacementMap in="SourceGraphic" in2="noise" scale="2" xChannelSelector="R" yChannelSelector="G"/>
  </filter>
  </defs>
  <g>
    <path d="M 92,88.30164031434059 Q 91,129.1508201571703 90.4,170 L 109.6,170 Q 109,129.1508201571703 108,88.30164031434059 Z" fill="#979bc4" filter="url(#organic)"/>
    <path d="M 60,88.30164031434059 L 56.4,112.30164031434059 M 63.47826086956522,88.30164031434059 L 60.19130434782609,112.30164031434059 M 66.95652173913044,88.30164031434059 L 63.982608695652175,112.30164031434059 M 70.43478260869566,88.30164031434059 L 67.77391304347826,112.30164031434059 M 73.91304347826087,88.30164031434059 L 71.56521739130436,112.30164031434059 M 77.3913043478261,88.30164031434059 L 75.35652173913044,112.30164031434059 M 80.86956521739131,88.30164031434059 L 79.14782608695653,112.30164031434059 M 84.34782608695653,88.30164031434059 L 82.93913043478261,112.30164031434059 M 87.82608695652173,88.30164031434059 L 86.7304347826087,112.30164031434059 M 91.30434782608695,88.30164031434059 L 90.52173913043478,112.30164031434059 M 94.78260869565219,88.30164031434059 L 94.31304347826088,112.30164031434059 M 98.2608695652174,88.30164031434059 L 98.10434782608696,112.30164031434059 M 101.73913043478261,88.30164031434059 L 101.89565217391305,112.30164031434059 M 105.21739130434783,88.30164031434059 L 105.68695652173913,112.30164031434059 M 108.69565217391306,88.30164031434059 L 109.47826086956523,112.30164031434059 M 112.17391304347827,88.30164031434059 L 113.2695652173913,112.30164031434059 M 115.65217391304347,88.30164031434059 L 117.06086956521739,112.30164031434059 M 119.13043478260869,88.30164031434059 L 120.85217391304347,112.30164031434059 M 122.6086956521739,88.30164031434059 L 124.64347826086956,112.30164031434059 M 126.08695652173913,88.30164031434059 L 128.43478260869566,112.30164031434059 M 129.56521739130437,88.30164031434059 L 132.22608695652175,112.30164031434059 M 133.04347826086956,88.30164031434059 L 136.01739130434783,112.30164031434059 M 136.5217391304348,88.30164031434059 L 139.80869565217395,112.30164031434059 M 140,88.30164031434059 L 143.6,112.30164031434059" stroke="#979bc4" stroke-width="0.8" fill="none" opacity="0.7"/>
    <path d="M 50,88.30164031434059 Q 50,64.30164031434059 85,52.30164031434059 L 100,28.301640314340588 L 115,52.30164031434059 Q 150,64.30164031434059 150,88.30164031434059" fill="#3275b4" filter="url(#organic)"/>
  </g>
</svg>