<svg xmlns="http://www.w3.org/2000/svg" viewBox="0 0 200 200" width="200" height="200">
  <defs>
    <filter id="organic" x="-5%" y="-5%" width="110%" height="110%">
    <feTurbulence type="fractalNoise" baseFrequency="0.04" numOctaves="3" seed="1" result="noise"/>
    <feDisplacementMap in="SourceGraphic" in2="noise" scale="2" xChannelSelector="R" yChannelSelector="G"/>
  </filter>
  </defs>
  <g>
    <path d="M 92,86.81539668884105 Q 91,128.4076983444205 90.4,170 L 109.6,170 Q 109,128.4076983444205 108,86.81539668884105 Z" fill="#979bc4" filter="url(#organic)"/>
    <ellipse cx="100" cy="111.77077768218874" rx="12" ry="3.5999999999999996" fill="none" stroke="currentColor" stroke-width="1.5" opacity="0.6"/>
    <path d="M 60,86.81539668884105 L 58.479,96.95539668884105 M 63.47826086956522,86.81539668884105 L 62.08952173913043,96.95539668884105 M 66.95652173913044,86.81539668884105 L 65.70004347826087,96.95539668884105 M 70.43478260869566,86.81539668884105 L 69.31056521739131,96.95539668884105 M 73.91304347826087,86.81539668884105 L 72.92108695652175,96.95539668884105 M 77.3913043478261,86.81539668884105 L 76.53160869565218,96.95539668884105 M 80.86956521739131,86.81539668884105 L 80.14213043478262,96.95539668884105 M 84.34782608695653,86.81539668884105 L 83.75265217391305,96.95539668884105 M 87.82608695652173,86.81539668884105 L 87.36317391304347,96.95539668884105 M 91.30434782608695,86.81539668884105 L 90.97369565217392,96.95539668884105 M 94.78260869565219,86.81539668884105 L 94.58421739130436,96.95539668884105 M 98.2608695652174,86.81539668884105 L 98.1947391304348,96.95539668884105 M 101.73913043478261,86.81539668884105 L 101.80526086956522,96.95539668884105 M 105.21739130434783,86.81539668884105 L 105.41578260869565,96.95539668884105 M 108.69565217391306,86.81539668884105 L 109.0263043478261,96.95539668884105 M 112.17391304347827,86.81539668884105 L 112.63682608695653,96.95539668884105 M 115.65217391304347,86.81539668884105 L 116.24734782608695,96.95539668884105 M 119.13043478260869,86.81539668884105 L 119.85786956521738,96.95539668884105 M 122.6086956521739,86.81539668884105 L 123.46839130434782,96.95539668884105 M 126.08695652173913,86.81539668884105 L 127.07891304347825,96.95539668884105 M 129.56521739130437,86.81539668884105 L 130.6894347826087,96.95539668884105 M 133.04347826086956,86.81539668884105 L 134.29995652173912,96.95539668884105 M 136.5217391304348,86.81539668884105 L 137.91047826086958,96.95539668884105 M 140,86.81539668884105 L 141.521,96.95539668884105" stroke="#979bc4" stroke-width="0.8" fill="none" opacity="0.7"/>
    <path d="M 50,76.67539668884105 Q 65,86.81539668884105 100,81.74539668884105 Q 135,86.81539668884105 150,76.67539668884105" fill="#3275b4" filter="url(#organic)"/>
    <circle cx="75.0" cy="69.1" r="3" fill="white" opacity="0.85"/>
    <circle cx="115.0" cy="66.5" r="2.5" fill="white" opacity="0.85"/>
    <circle cx="95.0" cy="65.3" r="2" fill="white" opacity="0.85"/>
    <circle cx="130.0" cy="71.6" r="2" fill="white" opacity="0.85"/>
    <circle cx="70.0" cy="74.1" r="1.5" fill="white" opacity="0.85"/>
    <circle cx="105.0" cy="74.1" r="2.5" fill="white" opacity="0.85"/>
  </g>
</svg>