<svg xmlns="http://www.w3.org/2000/svg" viewBox="0 0 200 200" width="200" height="200">
  <defs>
    <filter id="organic" x="-5%" y="-5%" width="110%" height="110%">
    <feTurbulence type="fractalNoise" baseFrequency="0.04" numOctaves="3" seed="1" result="noise"/>
    <feDisplacementMap in="SourceGraphic" in2="noise" scale="2" xChannelSelector="R" yChannelSelector="G"/>
  </filter>
  </defs>
  <g>
    <path d="M 92,100.05925020851146 Q 91,135.02962510425573 90.4,170 L 109.6,170 Q 109,135.02962510425573 108,100.05925020851146 Z" fill="#979bc4" filter="url(#organic)"/>
    <ellipse cx="100" cy="121.04147514595802" rx="12" ry="3.5999999999999996" fill="none" stroke="currentColor" stroke-width="1.5" opacity="0.6"/>
    <path d="M 60,100.05925020851146 L 58.479,110.19925020851146 M 63.47826086956522,100.05925020851146 L 62.08952173913043,110.19925020851146 M 66.95652173913044,100.05925020851146 L 65.70004347826087,110.19925020851146 M 70.43478260869566,100.05925020851146 L 69.31056521739131,110.19925020851146 M 73.91304347826087,100.05925020851146 L 72.92108695652175,110.19925020851146 M 77.3913043478261,100.05925020851146 L 76.53160869565218,110.19925020851146 M 80.86956521739131,100.05925020851146 L 80.14213043478262,110.19925020851146 M 84.34782608695653,100.05925020851146 L 83.75265217391305,110.19925020851146 M 87.82608695652173,100.05925020851146 L 87.36317391304347,110.19925020851146 M 91.30434782608695,100.05925020851146 L 90.97369565217392,110.19925020851146 M 94.78260869565219,100.05925020851146 L 94.58421739130436,110.19925020851146 M 98.2608695652174,100.05925020851146 L 98.1947391304348,110.19925020851146 M 101.73913043478261,100.05925020851146 L 101.80526086956522,110.19925020851146 M 105.21739130434783,100.05925020851146 L 105.41578260869565,110.19925020851146 M 108.69565217391306,100.05925020851146 L 109.0263043478261,110.19925020851146 M 112.17391304347827,100.05925020851146 L 112.63682608695653,110.19925020851146 M 115.65217391304347,100.05925020851146 L 116.24734782608695,110.19925020851146 M 119.13043478260869,100.05925020851146 L 119.85786956521738,110.19925020851146 M 122.6086956521739,100.05925020851146 L 123.46839130434782,110.19925020851146 M 126.08695652173913,100.05925020851146 L 127.07891304347825,110.19925020851146 M 129.56521739130437,100.05925020851146 L 130.6894347826087,110.19925020851146 M 133.04347826086956,100.05925020851146 L 134.29995652173912,110.19925020851146 M 136.5217391304348,100.05925020851146 L 137.91047826086958,110.19925020851146 M 140,100.05925020851146 L 141.521,110.19925020851146" stroke="#979bc4" stroke-width="0.8" fill="none" opacity="0.7"/>
    <path d="M 50,100.05925020851146 Q 60,82.31425020851147 100,74.70925020851146 Q 140,82.31425020851147 150,100.05925020851146" fill="#3275b4" filter="url(#organic)"/>
  </g>
</svg>