<svg xmlns="http://www.w3.org/2000/svg" viewBox="0 0 200 200" width="200" height="200">
  <defs>
    <filter id="organic" x="-5%" y="-5%" width="110%" height="110%">
    <feTurbulence type="fractalNoise" baseFrequency="0.04" numOctaves="3" seed="1" result="noise"/>
    <feDisplacementMap in="SourceGraphic" in2="noise" scale="2" xChannelSelector="R" yChannelSelector="G"/>
  </filter>
  </defs>
  <g>
    <path d="M 92,83.55235467313106 Q 91,126.77617733656552 90.4,170 L 109.6,170 Q 109,126.77617733656552 108,83.55235467313106 Z" fill="#aa94bb" filter="url(#organic)"/>
    <path d="M 60,83.55235467313106 L 58.56,93.15235467313107 M 63.47826086956522,83.55235467313106 L 62.16347826086957,93.15235467313107 M 66.95652173913044,83.55235467313106 L 65.76695652173913,93.15235467313107 M 70.43478260869566,83.55235467313106 L 69.3704347826087,93.15235467313107 M 73.91304347826087,83.55235467313106 L 72.97391304347826,93.15235467313107 M 77.3913043478261,83.55235467313106 L 76.57739130434783,93.15235467313107 M 80.86956521739131,83.55235467313106 L 80.18086956521739,93.15235467313107 M 84.34782608695653,83.55235467313106 L 83.78434782608697,93.15235467313107 M 87.82608695652173,83.55235467313106 L 87.38782608695652,93.15235467313107 M 91.30434782608695,83.55235467313106 L 90.99130434782609,93.15235467313107 M 94.78260869565219,83.55235467313106 L 94.59478260869567,93.15235467313107 M 98.2608695652174,83.55235467313106 L 98.19826086956523,93.15235467313107 M 101.73913043478261,83.55235467313106 L 101.80173913043478,93.15235467313107 M 105.21739130434783,83.55235467313106 L 105.40521739130435,93.15235467313107 M 108.69565217391306,83.55235467313106 L 109.00869565217393,93.15235467313107 M 112.17391304347827,83.55235467313106 L 112.61217391304348,93.15235467313107 M 115.65217391304347,83.55235467313106 L 116.21565217391303,93.15235467313107 M 119.13043478260869,83.55235467313106 L 119.81913043478261,93.15235467313107 M 122.6086956521739,83.55235467313106 L 123.42260869565217,93.15235467313107 M 126.08695652173913,83.55235467313106 L 127.02608695652174,93.15235467313107 M 129.56521739130437,83.55235467313106 L 130.62956521739133,93.15235467313107 M 133.04347826086956,83.55235467313106 L 134.23304347826087,93.15235467313107 M 136.5217391304348,83.55235467313106 L 137.83652173913046,93.15235467313107 M 140,83.55235467313106 L 141.44,93.15235467313107" stroke="#aa94bb" stroke-width="0.8" fill="none" opacity="0.7"/>
    <path d="M 50,73.95235467313105 Q 65,83.55235467313106 100,78.75235467313107 Q 135,83.55235467313106 150,73.95235467313105" fill="#6568b6" filter="url(#organic)"/>
    <circle cx="75.0" cy="66.8" r="3" fill="white" opacity="0.85"/>
    <circle cx="115.0" cy="64.4" r="2.5" fill="white" opacity="0.85"/>
    <circle cx="95.0" cy="63.2" r="2" fill="white" opacity="0.85"/>
    <circle cx="130.0" cy="69.2" r="2" fill="white" opacity="0.85"/>
    <circle cx="70.0" cy="71.6" r="1.5" fill="white" opacity="0.85"/>
    <circle cx="105.0" cy="71.6" r="2.5" fill="white" opacity="0.85"/>
  </g>
</svg>