<svg xmlns="http://www.w3.org/2000/svg" viewBox="0 0 200 200" width="200" height="200">
  <defs>
    <filter id="organic" x="-5%" y="-5%" width="110%" height="110%">
    <feTurbulence type="fractalNoise" baseFrequency="0.04" numOctaves="3" seed="1" result="noise"/>
    <feDisplacementMap in="SourceGraphic" in2="noise" scale="2" xChannelSelector="R" yChannelSelector="G"/>
  </filter>
  </defs>
  <g>
    <path d="M 92,89.33975065700301 Q 91,129.66987532850152 90.4,170 L 109.6,170 Q 109,129.66987532850152 108,89.33975065700301 Z" fill="#979bc4" filter="url(#organic)"/>
    <ellipse cx="100" cy="113.53782545990211" rx="12" ry="3.5999999999999996" fill="none" stroke="currentColor" stroke-width="1.5" opacity="0.6"/>
    <path d="M 60,89.33975065700301 L 58.074,102.17975065700301 M 63.47826086956522,89.33975065700301 L 61.71973913043478,102.17975065700301 M 66.95652173913044,89.33975065700301 L 65.36547826086957,102.17975065700301 M 70.43478260869566,89.33975065700301 L 69.01121739130436,102.17975065700301 M 73.91304347826087,89.33975065700301 L 72.65695652173913,102.17975065700301 M 77.3913043478261,89.33975065700301 L 76.30269565217392,102.17975065700301 M 80.86956521739131,89.33975065700301 L 79.9484347826087,102.17975065700301 M 84.34782608695653,89.33975065700301 L 83.59417391304349,102.17975065700301 M 87.82608695652173,89.33975065700301 L 87.23991304347825,102.17975065700301 M 91.30434782608695,89.33975065700301 L 90.88565217391304,102.17975065700301 M 94.78260869565219,89.33975065700301 L 94.53139130434784,102.17975065700301 M 98.2608695652174,89.33975065700301 L 98.17713043478263,102.17975065700301 M 101.73913043478261,89.33975065700301 L 101.82286956521739,102.17975065700301 M 105.21739130434783,89.33975065700301 L 105.46860869565218,102.17975065700301 M 108.69565217391306,89.33975065700301 L 109.11434782608697,102.17975065700301 M 112.17391304347827,89.33975065700301 L 112.76008695652175,102.17975065700301 M 115.65217391304347,89.33975065700301 L 116.40582608695651,102.17975065700301 M 119.13043478260869,89.33975065700301 L 120.0515652173913,102.17975065700301 M 122.6086956521739,89.33975065700301 L 123.69730434782608,102.17975065700301 M 126.08695652173913,89.33975065700301 L 127.34304347826087,102.17975065700301 M 129.56521739130437,89.33975065700301 L 130.9887826086957,102.17975065700301 M 133.04347826086956,89.33975065700301 L 134.63452173913043,102.17975065700301 M 136.5217391304348,89.33975065700301 L 138.28026086956524,102.17975065700301 M 140,89.33975065700301 L 141.926,102.17975065700301" stroke="#979bc4" stroke-width="0.8" fill="none" opacity="0.7"/>
    <path d="M 50,76.499750657003 Q 65,89.33975065700301 100,82.91975065700301 Q 135,89.33975065700301 150,76.499750657003" fill="#3275b4" filter="url(#organic)"/>
    <circle cx="75.0" cy="66.9" r="3" fill="white" opacity="0.85"/>
    <circle cx="115.0" cy="63.7" r="2.5" fill="white" opacity="0.85"/>
    <circle cx="95.0" cy="62.1" r="2" fill="white" opacity="0.85"/>
    <circle cx="130.0" cy="70.1" r="2" fill="white" opacity="0.85"/>
    <circle cx="70.0" cy="73.3" r="1.5" fill="white" opacity="0.85"/>
    <circle cx="105.0" cy="73.3" r="2.5" fill="white" opacity="0.85"/>
  </g>
</svg>