<svg xmlns="http://www.w3.org/2000/svg" viewBox="0 0 200 200" width="200" height="200">
  <defs>
    <filter id="organic" x="-5%" y="-5%" width="110%" height="110%">
    <feTurbulence type="fractalNoise" baseFrequency="0.04" numOctaves="3" seed="1" result="noise"/>
    <feDisplacementMap in="SourceGraphic" in2="noise" scale="2" xChannelSelector="R" yChannelSelector="G"/>
  </filter>
  </defs>
  <g>
    <path d="M 92,77.24104276305738 Q 91,123.62052138152869 90.4,170 L 109.6,170 Q 109,123.62052138152869 108,77.24104276305738 Z" fill="#979bc4" filter="url(#organic)"/>
    <path d="M 60,77.24104276305738 L 56.4,101.24104276305738 M 63.47826086956522,77.24104276305738 L 60.19130434782609,101.24104276305738 M 66.95652173913044,77.24104276305738 L 63.982608695652175,101.24104276305738 M 70.43478260869566,77.24104276305738 L 67.77391304347826,101.24104276305738 M 73.91304347826087,77.24104276305738 L 71.56521739130436,101.24104276305738 M 77.3913043478261,77.24104276305738 L 75.35652173913044,101.24104276305738 M 80.86956521739131,77.24104276305738 L 79.14782608695653,101.24104276305738 M 84.34782608695653,77.24104276305738 L 82.93913043478261,101.24104276305738 M 87.82608695652173,77.24104276305738 L 86.7304347826087,101.24104276305738 M 91.30434782608695,77.24104276305738 L 90.52173913043478,101.24104276305738 M 94.78260869565219,77.24104276305738 L 94.31304347826088,101.24104276305738 M 98.2608695652174,77.24104276305738 L 98.10434782608696,101.24104276305738 M 101.73913043478261,77.24104276305738 L 101.89565217391305,101.24104276305738 M 105.21739130434783,77.24104276305738 L 105.68695652173913,101.24104276305738 M 108.69565217391306,77.24104276305738 L 109.47826086956523,101.24104276305738 M 112.17391304347827,77.24104276305738 L 113.2695652173913,101.24104276305738 M 115.65217391304347,77.24104276305738 L 117.06086956521739,101.24104276305738 M 119.13043478260869,77.24104276305738 L 120.85217391304347,101.24104276305738 M 122.6086956521739,77.24104276305738 L 124.64347826086956,101.24104276305738 M 126.08695652173913,77.24104276305738 L 128.43478260869566,101.24104276305738 M 129.56521739130437,77.24104276305738 L 132.22608695652175,101.24104276305738 M 133.04347826086956,77.24104276305738 L 136.01739130434783,101.24104276305738 M 136.5217391304348,77.24104276305738 L 139.80869565217395,101.24104276305738 M 140,77.24104276305738 L 143.6,101.24104276305738" stroke="#979bc4" stroke-width="0.8" fill="none" opacity="0.7"/>
    <path d="M 50,77.24104276305738 Q 50,53.24104276305738 85,41.24104276305738 L 100,17.24104276305738 L 115,41.24104276305738 Q 150,53.24104276305738 150,77.24104276305738" fill="#3275b4" filter="url(#organic)"/>
  </g>
</svg>