<svg xmlns="http://www.w3.org/2000/svg" viewBox="0 0 200 200" width="200" height="200">
  <defs>
    <filter id="organic" x="-5%" y="-5%" width="110%" height="110%">
    <feTurbulence type="fractalNoise" baseFrequency="0.04" numOctaves="3" seed="1" result="noise"/>
    <feDisplacementMap in="SourceGraphic" in2="noise" scale="2" xChannelSelector="R" yChannelSelector="G"/>
  </filter>
  </defs>
  <g>
    <path d="M 92,78.56666744574798 Q 91,124.28333372287399 90.4,170 L 109.6,170 Q 109,124.28333372287399 108,78.56666744574798 Z" fill="#979bc4" filter="url(#organic)"/>
    <path d="M 60,78.56666744574798 L 56.4,102.56666744574798 M 63.47826086956522,78.56666744574798 L 60.19130434782609,102.56666744574798 M 66.95652173913044,78.56666744574798 L 63.982608695652175,102.56666744574798 M 70.43478260869566,78.56666744574798 L 67.77391304347826,102.56666744574798 M 73.91304347826087,78.56666744574798 L 71.56521739130436,102.56666744574798 M 77.3913043478261,78.56666744574798 L 75.35652173913044,102.56666744574798 M 80.86956521739131,78.56666744574798 L 79.14782608695653,102.56666744574798 M 84.34782608695653,78.56666744574798 L 82.93913043478261,102.56666744574798 M 87.82608695652173,78.56666744574798 L 86.7304347826087,102.56666744574798 M 91.30434782608695,78.56666744574798 L 90.52173913043478,102.56666744574798 M 94.78260869565219,78.56666744574798 L 94.31304347826088,102.56666744574798 M 98.2608695652174,78.56666744574798 L 98.10434782608696,102.56666744574798 M 101.73913043478261,78.56666744574798 L 101.89565217391305,102.56666744574798 M 105.21739130434783,78.56666744574798 L 105.68695652173913,102.56666744574798 M 108.69565217391306,78.56666744574798 L 109.47826086956523,102.56666744574798 M 112.17391304347827,78.56666744574798 L 113.2695652173913,102.56666744574798 M 115.65217391304347,78.56666744574798 L 117.06086956521739,102.56666744574798 M 119.13043478260869,78.56666744574798 L 120.85217391304347,102.56666744574798 M 122.6086956521739,78.56666744574798 L 124.64347826086956,102.56666744574798 M 126.08695652173913,78.56666744574798 L 128.43478260869566,102.56666744574798 M 129.56521739130437,78.56666744574798 L 132.22608695652175,102.56666744574798 M 133.04347826086956,78.56666744574798 L 136.01739130434783,102.56666744574798 M 136.5217391304348,78.56666744574798 L 139.80869565217395,102.56666744574798 M 140,78.56666744574798 L 143.6,102.56666744574798" stroke="#979bc4" stroke-width="0.8" fill="none" opacity="0.7"/>
    <path d="M 50,78.56666744574798 Q 50,54.56666744574798 85,42.56666744574798 L 100,18.56666744574798 L 115,42.56666744574798 Q 150,54.56666744574798 150,78.56666744574798" fill="#3275b4" filter="url(#organic)"/>
  </g>
</svg>