<svg xmlns="http://www.w3.org/2000/svg" viewBox="0 0 200 200" width="200" height="200">
  <defs>
    <filter id="organic" x="-5%" y="-5%" width="110%" height="110%">
    <feTurbulence type="fractalNoise" baseFrequency="0.04" numOctaves="3" seed="1" result="noise"/>
    <feDisplacementMap in="SourceGraphic" in2="noise" scale="2" xChannelSelector="R" yChannelSelector="G"/>
  </filter>
  </defs>
  <g>
    <path d="M 96.4,69.15296737162802 Q 95.4,119.57648368581401 95.68,170 L 104.32,170 Q 104.6,119.57648368581401 103.6,69.15296737162802 Z" fill="#78a6bd" filter="url(#organic)"/>
    <ellipse cx="100" cy="99.40707716013961" rx="5.4" ry="1.62" fill="none" stroke="currentColor" stroke-width="1.5" opacity="0.6"/>
    <path d="M 71.75999999999999,69.15296737162802 L 70.32,78.75296737162802 M 76.89454545454545,69.15296737162802 L 75.71636363636364,78.75296737162802 M 82.0290909090909,69.15296737162802 L 81.11272727272726,78.75296737162802 M 87.16363636363636,69.15296737162802 L 86.5090909090909,78.75296737162802 M 92.29818181818182,69.15296737162802 L 91.90545454545455,78.75296737162802 M 97.43272727272726,69.15296737162802 L 97.30181818181818,78.75296737162802 M 102.56727272727272,69.15296737162802 L 102.69818181818181,78.75296737162802 M 107.70181818181817,69.15296737162802 L 108.09454545454544,78.75296737162802 M 112.83636363636364,69.15296737162802 L 113.4909090909091,78.75296737162802 M 117.97090909090909,69.15296737162802 L 118.88727272727273,78.75296737162802 M 123.10545454545453,69.15296737162802 L 124.28363636363635,78.75296737162802 M 128.24,69.15296737162802 L 129.68,78.75296737162802" stroke="#78a6bd" stroke-width="0.8" fill="none" opacity="0.7"/>
    <path d="M 64.69999999999999,69.15296737162802 Q 64.69999999999999,61.95296737162802 100,59.55296737162802 Q 135.3,61.95296737162802 135.3,69.15296737162802" fill="#00858d" filter="url(#organic)"/>
  </g>
</svg>