<svg xmlns="http://www.w3.org/2000/svg" viewBox="0 0 200 200" width="200" height="200">
  <defs>
    <filter id="organic" x="-5%" y="-5%" width="110%" height="110%">
    <feTurbulence type="fractalNoise" baseFrequency="0.04" numOctaves="3" seed="1" result="noise"/>
    <feDisplacementMap in="SourceGraphic" in2="noise" scale="2" xChannelSelector="R" yChannelSelector="G"/>
  </filter>
  </defs>
  <g>
    <path d="M 92,85.39785716219129 Q 91,127.69892858109564 90.4,170 L 109.6,170 Q 109,127.69892858109564 108,85.39785716219129 Z" fill="#979bc4" filter="url(#organic)"/>
    <ellipse cx="100" cy="110.7785000135339" rx="12" ry="3.5999999999999996" fill="none" stroke="currentColor" stroke-width="1.5" opacity="0.6"/>
    <path d="M 60,85.39785716219129 L 58.317,96.61785716219129 M 63.47826086956522,85.39785716219129 L 61.94160869565218,96.61785716219129 M 66.95652173913044,85.39785716219129 L 65.56621739130435,96.61785716219129 M 70.43478260869566,85.39785716219129 L 69.19082608695652,96.61785716219129 M 73.91304347826087,85.39785716219129 L 72.8154347826087,96.61785716219129 M 77.3913043478261,85.39785716219129 L 76.44004347826088,96.61785716219129 M 80.86956521739131,85.39785716219129 L 80.06465217391305,96.61785716219129 M 84.34782608695653,85.39785716219129 L 83.68926086956523,96.61785716219129 M 87.82608695652173,85.39785716219129 L 87.31386956521739,96.61785716219129 M 91.30434782608695,85.39785716219129 L 90.93847826086956,96.61785716219129 M 94.78260869565219,85.39785716219129 L 94.56308695652176,96.61785716219129 M 98.2608695652174,85.39785716219129 L 98.18769565217393,96.61785716219129 M 101.73913043478261,85.39785716219129 L 101.81230434782609,96.61785716219129 M 105.21739130434783,85.39785716219129 L 105.43691304347826,96.61785716219129 M 108.69565217391306,85.39785716219129 L 109.06152173913046,96.61785716219129 M 112.17391304347827,85.39785716219129 L 112.68613043478261,96.61785716219129 M 115.65217391304347,85.39785716219129 L 116.31073913043477,96.61785716219129 M 119.13043478260869,85.39785716219129 L 119.93534782608695,96.61785716219129 M 122.6086956521739,85.39785716219129 L 123.55995652173912,96.61785716219129 M 126.08695652173913,85.39785716219129 L 127.1845652173913,96.61785716219129 M 129.56521739130437,85.39785716219129 L 130.8091739130435,96.61785716219129 M 133.04347826086956,85.39785716219129 L 134.43378260869565,96.61785716219129 M 136.5217391304348,85.39785716219129 L 138.05839130434785,96.61785716219129 M 140,85.39785716219129 L 141.683,96.61785716219129" stroke="#979bc4" stroke-width="0.8" fill="none" opacity="0.7"/>
    <path d="M 50,74.17785716219129 Q 65,85.39785716219129 100,79.78785716219129 Q 135,85.39785716219129 150,74.17785716219129" fill="#3275b4" filter="url(#organic)"/>
    <circle cx="75.0" cy="65.8" r="3" fill="white" opacity="0.85"/>
    <circle cx="115.0" cy="63.0" r="2.5" fill="white" opacity="0.85"/>
    <circle cx="95.0" cy="61.6" r="2" fill="white" opacity="0.85"/>
    <circle cx="130.0" cy="68.6" r="2" fill="white" opacity="0.85"/>
    <circle cx="70.0" cy="71.4" r="1.5" fill="white" opacity="0.85"/>
    <circle cx="105.0" cy="71.4" r="2.5" fill="white" opacity="0.85"/>
  </g>
</svg>