<svg xmlns="http://www.w3.org/2000/svg" viewBox="0 0 200 200" width="200" height="200">
  <defs>
    <filter id="organic" x="-5%" y="-5%" width="110%" height="110%">
    <feTurbulence type="fractalNoise" baseFrequency="0.04" numOctaves="3" seed="1" result="noise"/>
    <feDisplacementMap in="SourceGraphic" in2="noise" scale="2" xChannelSelector="R" yChannelSelector="G"/>
  </filter>
  </defs>
  <g>
    <path d="M 96.4,83.84655135485684 Q 95.4,126.92327567742842 95.68,170 L 104.32,170 Q 104.6,126.92327567742842 103.6,83.84655135485684 Z" fill="#82a2c3" filter="url(#organic)"/>
    <ellipse cx="100" cy="109.6925859483998" rx="5.4" ry="1.62" fill="none" stroke="currentColor" stroke-width="1.5" opacity="0.6"/>
    <path d="M 71.75999999999999,83.84655135485684 L 70.32,93.44655135485684 M 76.89454545454545,83.84655135485684 L 75.71636363636364,93.44655135485684 M 82.0290909090909,83.84655135485684 L 81.11272727272726,93.44655135485684 M 87.16363636363636,83.84655135485684 L 86.5090909090909,93.44655135485684 M 92.29818181818182,83.84655135485684 L 91.90545454545455,93.44655135485684 M 97.43272727272726,83.84655135485684 L 97.30181818181818,93.44655135485684 M 102.56727272727272,83.84655135485684 L 102.69818181818181,93.44655135485684 M 107.70181818181817,83.84655135485684 L 108.09454545454544,93.44655135485684 M 112.83636363636364,83.84655135485684 L 113.4909090909091,93.44655135485684 M 117.97090909090909,83.84655135485684 L 118.88727272727273,93.44655135485684 M 123.10545454545453,83.84655135485684 L 124.28363636363635,93.44655135485684 M 128.24,83.84655135485684 L 129.68,93.44655135485684" stroke="#82a2c3" stroke-width="0.8" fill="none" opacity="0.7"/>
    <path d="M 64.69999999999999,83.84655135485684 Q 64.69999999999999,76.64655135485684 100,74.24655135485685 Q 135.3,76.64655135485684 135.3,83.84655135485684" fill="#0080a2" filter="url(#organic)"/>
  </g>
</svg>