<svg xmlns="http://www.w3.org/2000/svg" viewBox="0 0 200 200" width="200" height="200">
  <defs>
    <filter id="organic" x="-5%" y="-5%" width="110%" height="110%">
    <feTurbulence type="fractalNoise" baseFrequency="0.04" numOctaves="3" seed="1" result="noise"/>
    <feDisplacementMap in="SourceGraphic" in2="noise" scale="2" xChannelSelector="R" yChannelSelector="G"/>
  </filter>
  </defs>
  <g>
    <path d="M 92,94.84033915906218 Q 91,132.4201695795311 90.4,170 L 109.6,170 Q 109,132.4201695795311 108,94.84033915906218 Z" fill="#a496bf" filter="url(#organic)"/>
    <ellipse cx="100" cy="117.38823741134352" rx="12" ry="3.5999999999999996" fill="none" stroke="currentColor" stroke-width="1.5" opacity="0.6"/>
    <path d="M 60,94.84033915906218 L 58.56,104.44033915906218 M 63.47826086956522,94.84033915906218 L 62.16347826086957,104.44033915906218 M 66.95652173913044,94.84033915906218 L 65.76695652173913,104.44033915906218 M 70.43478260869566,94.84033915906218 L 69.3704347826087,104.44033915906218 M 73.91304347826087,94.84033915906218 L 72.97391304347826,104.44033915906218 M 77.3913043478261,94.84033915906218 L 76.57739130434783,104.44033915906218 M 80.86956521739131,94.84033915906218 L 80.18086956521739,104.44033915906218 M 84.34782608695653,94.84033915906218 L 83.78434782608697,104.44033915906218 M 87.82608695652173,94.84033915906218 L 87.38782608695652,104.44033915906218 M 91.30434782608695,94.84033915906218 L 90.99130434782609,104.44033915906218 M 94.78260869565219,94.84033915906218 L 94.59478260869567,104.44033915906218 M 98.2608695652174,94.84033915906218 L 98.19826086956523,104.44033915906218 M 101.73913043478261,94.84033915906218 L 101.80173913043478,104.44033915906218 M 105.21739130434783,94.84033915906218 L 105.40521739130435,104.44033915906218 M 108.69565217391306,94.84033915906218 L 109.00869565217393,104.44033915906218 M 112.17391304347827,94.84033915906218 L 112.61217391304348,104.44033915906218 M 115.65217391304347,94.84033915906218 L 116.21565217391303,104.44033915906218 M 119.13043478260869,94.84033915906218 L 119.81913043478261,104.44033915906218 M 122.6086956521739,94.84033915906218 L 123.42260869565217,104.44033915906218 M 126.08695652173913,94.84033915906218 L 127.02608695652174,104.44033915906218 M 129.56521739130437,94.84033915906218 L 130.62956521739133,104.44033915906218 M 133.04347826086956,94.84033915906218 L 134.23304347826087,104.44033915906218 M 136.5217391304348,94.84033915906218 L 137.83652173913046,104.44033915906218 M 140,94.84033915906218 L 141.44,104.44033915906218" stroke="#a496bf" stroke-width="0.8" fill="none" opacity="0.7"/>
    <path d="M 50,94.84033915906218 Q 50,87.64033915906218 100,85.24033915906219 Q 150,87.64033915906218 150,94.84033915906218" fill="#576cb7" filter="url(#organic)"/>
  </g>
</svg>