<svg xmlns="http://www.w3.org/2000/svg" viewBox="0 0 200 200" width="200" height="200">
  <defs>
    <filter id="organic" x="-5%" y="-5%" width="110%" height="110%">
    <feTurbulence type="fractalNoise" baseFrequency="0.04" numOctaves="3" seed="1" result="noise"/>
    <feDisplacementMap in="SourceGraphic" in2="noise" scale="2" xChannelSelector="R" yChannelSelector="G"/>
  </filter>
  </defs>
  <g>
    <path d="M 92,85.51379566305691 Q 91,127.75689783152845 90.4,170 L 109.6,170 Q 109,127.75689783152845 108,85.51379566305691 Z" fill="#979bc4" filter="url(#organic)"/>
    <ellipse cx="100" cy="110.85965696413984" rx="12" ry="3.5999999999999996" fill="none" stroke="currentColor" stroke-width="1.5" opacity="0.6"/>
    <path d="M 60,85.51379566305691 L 58.074,98.35379566305691 M 63.47826086956522,85.51379566305691 L 61.71973913043478,98.35379566305691 M 66.95652173913044,85.51379566305691 L 65.36547826086957,98.35379566305691 M 70.43478260869566,85.51379566305691 L 69.01121739130436,98.35379566305691 M 73.91304347826087,85.51379566305691 L 72.65695652173913,98.35379566305691 M 77.3913043478261,85.51379566305691 L 76.30269565217392,98.35379566305691 M 80.86956521739131,85.51379566305691 L 79.9484347826087,98.35379566305691 M 84.34782608695653,85.51379566305691 L 83.59417391304349,98.35379566305691 M 87.82608695652173,85.51379566305691 L 87.23991304347825,98.35379566305691 M 91.30434782608695,85.51379566305691 L 90.88565217391304,98.35379566305691 M 94.78260869565219,85.51379566305691 L 94.53139130434784,98.35379566305691 M 98.2608695652174,85.51379566305691 L 98.17713043478263,98.35379566305691 M 101.73913043478261,85.51379566305691 L 101.82286956521739,98.35379566305691 M 105.21739130434783,85.51379566305691 L 105.46860869565218,98.35379566305691 M 108.69565217391306,85.51379566305691 L 109.11434782608697,98.35379566305691 M 112.17391304347827,85.51379566305691 L 112.76008695652175,98.35379566305691 M 115.65217391304347,85.51379566305691 L 116.40582608695651,98.35379566305691 M 119.13043478260869,85.51379566305691 L 120.0515652173913,98.35379566305691 M 122.6086956521739,85.51379566305691 L 123.69730434782608,98.35379566305691 M 126.08695652173913,85.51379566305691 L 127.34304347826087,98.35379566305691 M 129.56521739130437,85.51379566305691 L 130.9887826086957,98.35379566305691 M 133.04347826086956,85.51379566305691 L 134.63452173913043,98.35379566305691 M 136.5217391304348,85.51379566305691 L 138.28026086956524,98.35379566305691 M 140,85.51379566305691 L 141.926,98.35379566305691" stroke="#979bc4" stroke-width="0.8" fill="none" opacity="0.7"/>
    <path d="M 50,72.67379566305691 Q 65,85.51379566305691 100,79.09379566305691 Q 135,85.51379566305691 150,72.67379566305691" fill="#3275b4" filter="url(#organic)"/>
    <circle cx="75.0" cy="63.0" r="3" fill="white" opacity="0.85"/>
    <circle cx="115.0" cy="59.8" r="2.5" fill="white" opacity="0.85"/>
    <circle cx="95.0" cy="58.2" r="2" fill="white" opacity="0.85"/>
    <circle cx="130.0" cy="66.3" r="2" fill="white" opacity="0.85"/>
    <circle cx="70.0" cy="69.5" r="1.5" fill="white" opacity="0.85"/>
    <circle cx="105.0" cy="69.5" r="2.5" fill="white" opacity="0.85"/>
  </g>
</svg>