<svg xmlns="http://www.w3.org/2000/svg" viewBox="0 0 200 200" width="200" height="200">
  <defs>
    <filter id="organic" x="-5%" y="-5%" width="110%" height="110%">
    <feTurbulence type="fractalNoise" baseFrequency="0.04" numOctaves="3" seed="1" result="noise"/>
    <feDisplacementMap in="SourceGraphic" in2="noise" scale="2" xChannelSelector="R" yChannelSelector="G"/>
  </filter>
  </defs>
  <g>
    <path d="M 92,86.11352046445307 Q 91,128.05676023222654 90.4,170 L 109.6,170 Q 109,128.05676023222654 108,86.11352046445307 Z" fill="#979bc4" filter="url(#organic)"/>
    <ellipse cx="100" cy="111.27946432511715" rx="12" ry="3.5999999999999996" fill="none" stroke="currentColor" stroke-width="1.5" opacity="0.6"/>
    <path d="M 60,86.11352046445307 L 58.479,96.25352046445308 M 63.47826086956522,86.11352046445307 L 62.08952173913043,96.25352046445308 M 66.95652173913044,86.11352046445307 L 65.70004347826087,96.25352046445308 M 70.43478260869566,86.11352046445307 L 69.31056521739131,96.25352046445308 M 73.91304347826087,86.11352046445307 L 72.92108695652175,96.25352046445308 M 77.3913043478261,86.11352046445307 L 76.53160869565218,96.25352046445308 M 80.86956521739131,86.11352046445307 L 80.14213043478262,96.25352046445308 M 84.34782608695653,86.11352046445307 L 83.75265217391305,96.25352046445308 M 87.82608695652173,86.11352046445307 L 87.36317391304347,96.25352046445308 M 91.30434782608695,86.11352046445307 L 90.97369565217392,96.25352046445308 M 94.78260869565219,86.11352046445307 L 94.58421739130436,96.25352046445308 M 98.2608695652174,86.11352046445307 L 98.1947391304348,96.25352046445308 M 101.73913043478261,86.11352046445307 L 101.80526086956522,96.25352046445308 M 105.21739130434783,86.11352046445307 L 105.41578260869565,96.25352046445308 M 108.69565217391306,86.11352046445307 L 109.0263043478261,96.25352046445308 M 112.17391304347827,86.11352046445307 L 112.63682608695653,96.25352046445308 M 115.65217391304347,86.11352046445307 L 116.24734782608695,96.25352046445308 M 119.13043478260869,86.11352046445307 L 119.85786956521738,96.25352046445308 M 122.6086956521739,86.11352046445307 L 123.46839130434782,96.25352046445308 M 126.08695652173913,86.11352046445307 L 127.07891304347825,96.25352046445308 M 129.56521739130437,86.11352046445307 L 130.6894347826087,96.25352046445308 M 133.04347826086956,86.11352046445307 L 134.29995652173912,96.25352046445308 M 136.5217391304348,86.11352046445307 L 137.91047826086958,96.25352046445308 M 140,86.11352046445307 L 141.521,96.25352046445308" stroke="#979bc4" stroke-width="0.8" fill="none" opacity="0.7"/>
    <path d="M 50,75.97352046445307 Q 65,86.11352046445307 100,81.04352046445308 Q 135,86.11352046445307 150,75.97352046445307" fill="#3275b4" filter="url(#organic)"/>
  </g>
</svg>