<svg xmlns="http://www.w3.org/2000/svg" viewBox="0 0 200 200" width="200" height="200">
  <defs>
    <filter id="organic" x="-5%" y="-5%" width="110%" height="110%">
    <feTurbulence type="fractalNoise" baseFrequency="0.04" numOctaves="3" seed="1" result="noise"/>
    <feDisplacementMap in="SourceGraphic" in2="noise" scale="2" xChannelSelector="R" yChannelSelector="G"/>
  </filter>
  </defs>
  <g>
    <path d="M 94.4,102.11306643178945 Q 93.4,136.05653321589472 93.28,170 L 106.72,170 Q 106.6,136.05653321589472 105.6,102.11306643178945 Z" fill="#979bc4" filter="url(#organic)"/>
    <path d="M 61.959999999999994,102.11306643178945 L 60.43899999999999,112.25306643178945 M 65.58285714285714,102.11306643178945 L 64.20671428571428,112.25306643178945 M 69.20571428571428,102.11306643178945 L 67.97442857142856,112.25306643178945 M 72.82857142857142,102.11306643178945 L 71.74214285714285,112.25306643178945 M 76.45142857142856,102.11306643178945 L 75.50985714285714,112.25306643178945 M 80.07428571428571,102.11306643178945 L 79.27757142857142,112.25306643178945 M 83.69714285714285,102.11306643178945 L 83.04528571428571,112.25306643178945 M 87.32,102.11306643178945 L 86.81299999999999,112.25306643178945 M 90.94285714285714,102.11306643178945 L 90.58071428571428,112.25306643178945 M 94.56571428571428,102.11306643178945 L 94.34842857142857,112.25306643178945 M 98.18857142857142,102.11306643178945 L 98.11614285714285,112.25306643178945 M 101.81142857142858,102.11306643178945 L 101.88385714285715,112.25306643178945 M 105.4342857142857,102.11306643178945 L 105.65157142857142,112.25306643178945 M 109.05714285714286,102.11306643178945 L 109.41928571428572,112.25306643178945 M 112.68,102.11306643178945 L 113.18700000000001,112.25306643178945 M 116.30285714285714,102.11306643178945 L 116.95471428571427,112.25306643178945 M 119.92571428571428,102.11306643178945 L 120.72242857142857,112.25306643178945 M 123.54857142857144,102.11306643178945 L 124.49014285714286,112.25306643178945 M 127.17142857142858,102.11306643178945 L 128.25785714285715,112.25306643178945 M 130.7942857142857,102.11306643178945 L 132.02557142857142,112.25306643178945 M 134.41714285714284,102.11306643178945 L 135.7932857142857,112.25306643178945 M 138.04000000000002,102.11306643178945 L 139.561,112.25306643178945" stroke="#979bc4" stroke-width="0.8" fill="none" opacity="0.7"/>
    <path d="M 52.449999999999996,91.97306643178945 Q 66.715,102.11306643178943 100,97.04306643178944 Q 133.28500000000003,102.11306643178943 147.55,91.97306643178945" fill="#3275b4" filter="url(#organic)"/>
    <circle cx="76.2" cy="84.4" r="3" fill="white" opacity="0.85"/>
    <circle cx="114.3" cy="81.8" r="2.5" fill="white" opacity="0.85"/>
    <circle cx="95.2" cy="80.6" r="2" fill="white" opacity="0.85"/>
    <circle cx="128.5" cy="86.9" r="2" fill="white" opacity="0.85"/>
    <circle cx="71.5" cy="89.4" r="1.5" fill="white" opacity="0.85"/>
    <circle cx="104.8" cy="89.4" r="2.5" fill="white" opacity="0.85"/>
  </g>
</svg>