<svg xmlns="http://www.w3.org/2000/svg" viewBox="0 0 200 200" width="200" height="200">
  <defs>
    <filter id="organic" x="-5%" y="-5%" width="110%" height="110%">
    <feTurbulence type="fractalNoise" baseFrequency="0.04" numOctaves="3" seed="1" result="noise"/>
    <feDisplacementMap in="SourceGraphic" in2="noise" scale="2" xChannelSelector="R" yChannelSelector="G"/>
  </filter>
  </defs>
  <g>
    <path d="M 96.8,114.84049731900147 Q 95.8,142.42024865950074 96.16,170 L 103.84,170 Q 104.2,142.42024865950074 103.2,114.84049731900147 Z" fill="#979bc4" filter="url(#organic)"/>
    <path d="M 73.72,114.84049731900147 L 72.199,124.98049731900147 M 79.56,114.84049731900147 L 78.377,124.98049731900147 M 85.4,114.84049731900147 L 84.555,124.98049731900147 M 91.24,114.84049731900147 L 90.73299999999999,124.98049731900147 M 97.08,114.84049731900147 L 96.911,124.98049731900147 M 102.92,114.84049731900147 L 103.089,124.98049731900147 M 108.75999999999999,114.84049731900147 L 109.267,124.98049731900147 M 114.6,114.84049731900147 L 115.445,124.98049731900147 M 120.44,114.84049731900147 L 121.62299999999999,124.98049731900147 M 126.28,114.84049731900147 L 127.801,124.98049731900147" stroke="#979bc4" stroke-width="0.8" fill="none" opacity="0.7"/>
    <path d="M 67.15,114.84049731900146 Q 73.72,97.09549731900147 100,89.49049731900146 Q 126.28,97.09549731900147 132.85,114.84049731900146" fill="#3275b4" filter="url(#organic)"/>
  </g>
</svg>