<svg xmlns="http://www.w3.org/2000/svg" viewBox="0 0 200 200" width="200" height="200">
  <defs>
    <filter id="organic" x="-5%" y="-5%" width="110%" height="110%">
    <feTurbulence type="fractalNoise" baseFrequency="0.04" numOctaves="3" seed="1" result="noise"/>
    <feDisplacementMap in="SourceGraphic" in2="noise" scale="2" xChannelSelector="R" yChannelSelector="G"/>
  </filter>
  </defs>
  <g>
    <path d="M 92,115.84052294627372 Q 91,142.92026147313686 90.4,170 L 109.6,170 Q 109,142.92026147313686 108,115.84052294627372 Z" fill="#979bc4" filter="url(#organic)"/>
    <path d="M 60,115.84052294627372 L 58.479,125.98052294627372 M 63.47826086956522,115.84052294627372 L 62.08952173913043,125.98052294627372 M 66.95652173913044,115.84052294627372 L 65.70004347826087,125.98052294627372 M 70.43478260869566,115.84052294627372 L 69.31056521739131,125.98052294627372 M 73.91304347826087,115.84052294627372 L 72.92108695652175,125.98052294627372 M 77.3913043478261,115.84052294627372 L 76.53160869565218,125.98052294627372 M 80.86956521739131,115.84052294627372 L 80.14213043478262,125.98052294627372 M 84.34782608695653,115.84052294627372 L 83.75265217391305,125.98052294627372 M 87.82608695652173,115.84052294627372 L 87.36317391304347,125.98052294627372 M 91.30434782608695,115.84052294627372 L 90.97369565217392,125.98052294627372 M 94.78260869565219,115.84052294627372 L 94.58421739130436,125.98052294627372 M 98.2608695652174,115.84052294627372 L 98.1947391304348,125.98052294627372 M 101.73913043478261,115.84052294627372 L 101.80526086956522,125.98052294627372 M 105.21739130434783,115.84052294627372 L 105.41578260869565,125.98052294627372 M 108.69565217391306,115.84052294627372 L 109.0263043478261,125.98052294627372 M 112.17391304347827,115.84052294627372 L 112.63682608695653,125.98052294627372 M 115.65217391304347,115.84052294627372 L 116.24734782608695,125.98052294627372 M 119.13043478260869,115.84052294627372 L 119.85786956521738,125.98052294627372 M 122.6086956521739,115.84052294627372 L 123.46839130434782,125.98052294627372 M 126.08695652173913,115.84052294627372 L 127.07891304347825,125.98052294627372 M 129.56521739130437,115.84052294627372 L 130.6894347826087,125.98052294627372 M 133.04347826086956,115.84052294627372 L 134.29995652173912,125.98052294627372 M 136.5217391304348,115.84052294627372 L 137.91047826086958,125.98052294627372 M 140,115.84052294627372 L 141.521,125.98052294627372" stroke="#979bc4" stroke-width="0.8" fill="none" opacity="0.7"/>
    <path d="M 50,115.84052294627372 Q 60,98.09552294627373 100,90.49052294627373 Q 140,98.09552294627373 150,115.84052294627372" fill="#3275b4" filter="url(#organic)"/>
  </g>
</svg>