<svg xmlns="http://www.w3.org/2000/svg" viewBox="0 0 200 200" width="200" height="200">
  <defs>
    <filter id="organic" x="-5%" y="-5%" width="110%" height="110%">
    <feTurbulence type="fractalNoise" baseFrequency="0.04" numOctaves="3" seed="1" result="noise"/>
    <feDisplacementMap in="SourceGraphic" in2="noise" scale="2" xChannelSelector="R" yChannelSelector="G"/>
  </filter>
  </defs>
  <g>
    <path d="M 96.8,69.26386793212947 Q 95.8,119.63193396606474 96.16,170 L 103.84,170 Q 104.2,119.63193396606474 103.2,69.26386793212947 Z" fill="#78a6bd" filter="url(#organic)"/>
    <ellipse cx="100" cy="99.48470755249063" rx="4.800000000000001" ry="1.4400000000000002" fill="none" stroke="currentColor" stroke-width="1.5" opacity="0.6"/>
    <path d="M 73.72,69.26386793212947 L 72.28,78.86386793212947 M 79.56,69.26386793212947 L 78.44,78.86386793212947 M 85.4,69.26386793212947 L 84.60000000000001,78.86386793212947 M 91.24,69.26386793212947 L 90.75999999999999,78.86386793212947 M 97.08,69.26386793212947 L 96.92,78.86386793212947 M 102.92,69.26386793212947 L 103.08,78.86386793212947 M 108.75999999999999,69.26386793212947 L 109.24,78.86386793212947 M 114.6,69.26386793212947 L 115.39999999999999,78.86386793212947 M 120.44,69.26386793212947 L 121.56,78.86386793212947 M 126.28,69.26386793212947 L 127.72,78.86386793212947" stroke="#78a6bd" stroke-width="0.8" fill="none" opacity="0.7"/>
    <path d="M 67.15,69.26386793212947 Q 67.15,62.06386793212947 100,59.66386793212947 Q 132.85,62.06386793212947 132.85,69.26386793212947" fill="#00858d" filter="url(#organic)"/>
  </g>
</svg>