<svg xmlns="http://www.w3.org/2000/svg" viewBox="0 0 200 200" width="200" height="200">
  <defs>
    <filter id="organic" x="-5%" y="-5%" width="110%" height="110%">
    <feTurbulence type="fractalNoise" baseFrequency="0.04" numOctaves="3" seed="1" result="noise"/>
    <feDisplacementMap in="SourceGraphic" in2="noise" scale="2" xChannelSelector="R" yChannelSelector="G"/>
  </filter>
  </defs>
  <g>
    <path d="M 92,83.03352716971096 Q 91,126.51676358485548 90.4,170 L 109.6,170 Q 109,126.51676358485548 108,83.03352716971096 Z" fill="#78a6bd" filter="url(#organic)"/>
    <ellipse cx="100" cy="109.12346901879768" rx="12" ry="3.5999999999999996" fill="none" stroke="currentColor" stroke-width="1.5" opacity="0.6"/>
    <path d="M 60,83.03352716971096 L 58.56,92.63352716971096 M 63.47826086956522,83.03352716971096 L 62.16347826086957,92.63352716971096 M 66.95652173913044,83.03352716971096 L 65.76695652173913,92.63352716971096 M 70.43478260869566,83.03352716971096 L 69.3704347826087,92.63352716971096 M 73.91304347826087,83.03352716971096 L 72.97391304347826,92.63352716971096 M 77.3913043478261,83.03352716971096 L 76.57739130434783,92.63352716971096 M 80.86956521739131,83.03352716971096 L 80.18086956521739,92.63352716971096 M 84.34782608695653,83.03352716971096 L 83.78434782608697,92.63352716971096 M 87.82608695652173,83.03352716971096 L 87.38782608695652,92.63352716971096 M 91.30434782608695,83.03352716971096 L 90.99130434782609,92.63352716971096 M 94.78260869565219,83.03352716971096 L 94.59478260869567,92.63352716971096 M 98.2608695652174,83.03352716971096 L 98.19826086956523,92.63352716971096 M 101.73913043478261,83.03352716971096 L 101.80173913043478,92.63352716971096 M 105.21739130434783,83.03352716971096 L 105.40521739130435,92.63352716971096 M 108.69565217391306,83.03352716971096 L 109.00869565217393,92.63352716971096 M 112.17391304347827,83.03352716971096 L 112.61217391304348,92.63352716971096 M 115.65217391304347,83.03352716971096 L 116.21565217391303,92.63352716971096 M 119.13043478260869,83.03352716971096 L 119.81913043478261,92.63352716971096 M 122.6086956521739,83.03352716971096 L 123.42260869565217,92.63352716971096 M 126.08695652173913,83.03352716971096 L 127.02608695652174,92.63352716971096 M 129.56521739130437,83.03352716971096 L 130.62956521739133,92.63352716971096 M 133.04347826086956,83.03352716971096 L 134.23304347826087,92.63352716971096 M 136.5217391304348,83.03352716971096 L 137.83652173913046,92.63352716971096 M 140,83.03352716971096 L 141.44,92.63352716971096" stroke="#78a6bd" stroke-width="0.8" fill="none" opacity="0.7"/>
    <path d="M 50,83.03352716971096 Q 50,75.83352716971096 100,73.43352716971097 Q 150,75.83352716971096 150,83.03352716971096" fill="#00858d" filter="url(#organic)"/>
  </g>
</svg>