<svg xmlns="http://www.w3.org/2000/svg" viewBox="0 0 200 200" width="200" height="200">
  <defs>
    <filter id="organic" x="-5%" y="-5%" width="110%" height="110%">
    <feTurbulence type="fractalNoise" baseFrequency="0.04" numOctaves="3" seed="1" result="noise"/>
    <feDisplacementMap in="SourceGraphic" in2="noise" scale="2" xChannelSelector="R" yChannelSelector="G"/>
  </filter>
  </defs>
  <g>
    <path d="M 96.8,83.79694214863127 Q 95.8,126.89847107431564 96.16,170 L 103.84,170 Q 104.2,126.89847107431564 103.2,83.79694214863127 Z" fill="#979bc4" filter="url(#organic)"/>
    <path d="M 73.72,83.79694214863127 L 71.632,97.71694214863128 M 79.56,83.79694214863127 L 77.936,97.71694214863128 M 85.4,83.79694214863127 L 84.24000000000001,97.71694214863128 M 91.24,83.79694214863127 L 90.544,97.71694214863128 M 97.08,83.79694214863127 L 96.848,97.71694214863128 M 102.92,83.79694214863127 L 103.152,97.71694214863128 M 108.75999999999999,83.79694214863127 L 109.45599999999999,97.71694214863128 M 114.6,83.79694214863127 L 115.75999999999999,97.71694214863128 M 120.44,83.79694214863127 L 122.064,97.71694214863128 M 126.28,83.79694214863127 L 128.368,97.71694214863128" stroke="#979bc4" stroke-width="0.8" fill="none" opacity="0.7"/>
    <path d="M 67.15,83.79694214863127 Q 67.15,48.99694214863128 100,48.99694214863128 Q 132.85,48.99694214863128 132.85,83.79694214863127" fill="#3275b4" filter="url(#organic)"/>
    <circle cx="83.6" cy="59.4" r="3" fill="white" opacity="0.85"/>
    <circle cx="109.9" cy="56.0" r="2.5" fill="white" opacity="0.85"/>
    <circle cx="96.7" cy="54.2" r="2" fill="white" opacity="0.85"/>
    <circle cx="119.7" cy="62.9" r="2" fill="white" opacity="0.85"/>
    <circle cx="80.3" cy="66.4" r="1.5" fill="white" opacity="0.85"/>
    <circle cx="103.3" cy="66.4" r="2.5" fill="white" opacity="0.85"/>
  </g>
</svg>