<svg xmlns="http://www.w3.org/2000/svg" viewBox="0 0 200 200" width="200" height="200">
  <defs>
    <filter id="organic" x="-5%" y="-5%" width="110%" height="110%">
    <feTurbulence type="fractalNoise" baseFrequency="0.04" numOctaves="3" seed="1" result="noise"/>
    <feDisplacementMap in="SourceGraphic" in2="noise" scale="2" xChannelSelector="R" yChannelSelector="G"/>
  </filter>
  </defs>
  <g>
    <path d="M 96,81.9418649113141 Q 95,125.97093245565705 95.2,170 L 104.8,170 Q 105,125.97093245565705 104,81.9418649113141 Z" fill="#78a6bd" filter="url(#organic)"/>
    <ellipse cx="100" cy="108.35930543791987" rx="6" ry="1.7999999999999998" fill="none" stroke="currentColor" stroke-width="1.5" opacity="0.6"/>
    <path d="M 69.8,81.9418649113141 L 68.36,91.5418649113141 M 74.44615384615385,81.9418649113141 L 73.22769230769231,91.5418649113141 M 79.09230769230768,81.9418649113141 L 78.0953846153846,91.5418649113141 M 83.73846153846154,81.9418649113141 L 82.96307692307693,91.5418649113141 M 88.38461538461539,81.9418649113141 L 87.83076923076923,91.5418649113141 M 93.03076923076924,81.9418649113141 L 92.69846153846154,91.5418649113141 M 97.67692307692307,81.9418649113141 L 97.56615384615384,91.5418649113141 M 102.32307692307691,81.9418649113141 L 102.43384615384615,91.5418649113141 M 106.96923076923076,81.9418649113141 L 107.30153846153846,91.5418649113141 M 111.61538461538461,81.9418649113141 L 112.16923076923077,91.5418649113141 M 116.26153846153846,81.9418649113141 L 117.03692307692307,91.5418649113141 M 120.90769230769232,81.9418649113141 L 121.9046153846154,91.5418649113141 M 125.55384615384615,81.9418649113141 L 126.77230769230769,91.5418649113141 M 130.2,81.9418649113141 L 131.64,91.5418649113141" stroke="#78a6bd" stroke-width="0.8" fill="none" opacity="0.7"/>
    <path d="M 62.25,81.9418649113141 Q 62.25,74.7418649113141 100,72.3418649113141 Q 137.75,74.7418649113141 137.75,81.9418649113141" fill="#00858d" filter="url(#organic)"/>
  </g>
</svg>