<svg xmlns="http://www.w3.org/2000/svg" viewBox="0 0 200 200" width="200" height="200">
  <defs>
    <filter id="organic" x="-5%" y="-5%" width="110%" height="110%">
    <feTurbulence type="fractalNoise" baseFrequency="0.04" numOctaves="3" seed="1" result="noise"/>
    <feDisplacementMap in="SourceGraphic" in2="noise" scale="2" xChannelSelector="R" yChannelSelector="G"/>
  </filter>
  </defs>
  <g>
    <path d="M 95.6,88.30164031434059 Q 94.6,129.1508201571703 94.72,170 L 105.28,170 Q 105.4,129.1508201571703 104.4,88.30164031434059 Z" fill="#82a2c3" filter="url(#organic)"/>
    <ellipse cx="100" cy="112.8111482200384" rx="6.6000000000000005" ry="1.98" fill="none" stroke="currentColor" stroke-width="1.5" opacity="0.6"/>
    <path d="M 67.84,88.30164031434059 L 66.4,97.9016403143406 M 72.128,88.30164031434059 L 70.88,97.9016403143406 M 76.416,88.30164031434059 L 75.36,97.9016403143406 M 80.70400000000001,88.30164031434059 L 79.84,97.9016403143406 M 84.992,88.30164031434059 L 84.32000000000001,97.9016403143406 M 89.28,88.30164031434059 L 88.8,97.9016403143406 M 93.56800000000001,88.30164031434059 L 93.28000000000002,97.9016403143406 M 97.85600000000001,88.30164031434059 L 97.76,97.9016403143406 M 102.144,88.30164031434059 L 102.24000000000001,97.9016403143406 M 106.43200000000002,88.30164031434059 L 106.72000000000001,97.9016403143406 M 110.72,88.30164031434059 L 111.2,97.9016403143406 M 115.00800000000001,88.30164031434059 L 115.68,97.9016403143406 M 119.29600000000002,88.30164031434059 L 120.16000000000003,97.9016403143406 M 123.584,88.30164031434059 L 124.64,97.9016403143406 M 127.87200000000001,88.30164031434059 L 129.12,97.9016403143406 M 132.16000000000003,88.30164031434059 L 133.60000000000002,97.9016403143406" stroke="#82a2c3" stroke-width="0.8" fill="none" opacity="0.7"/>
    <path d="M 59.8,88.30164031434059 Q 59.8,81.10164031434059 100,78.70164031434058 Q 140.2,81.10164031434059 140.2,88.30164031434059" fill="#0080a2" filter="url(#organic)"/>
  </g>
</svg>