<svg xmlns="http://www.w3.org/2000/svg" viewBox="0 0 200 200" width="200" height="200">
  <defs>
    <filter id="organic" x="-5%" y="-5%" width="110%" height="110%">
    <feTurbulence type="fractalNoise" baseFrequency="0.04" numOctaves="3" seed="1" result="noise"/>
    <feDisplacementMap in="SourceGraphic" in2="noise" scale="2" xChannelSelector="R" yChannelSelector="G"/>
  </filter>
  </defs>
  <g>
    <path d="M 96.8,80.5459950363587 Q 95.8,125.27299751817935 96.16,170 L 103.84,170 Q 104.2,125.27299751817935 103.2,80.5459950363587 Z" fill="#979bc4" filter="url(#organic)"/>
    <ellipse cx="100" cy="107.38219652545109" rx="4.800000000000001" ry="1.4400000000000002" fill="none" stroke="currentColor" stroke-width="1.5" opacity="0.6"/>
    <path d="M 73.72,80.5459950363587 L 72.118,91.22599503635871 M 79.56,80.5459950363587 L 78.31400000000001,91.22599503635871 M 85.4,80.5459950363587 L 84.51,91.22599503635871 M 91.24,80.5459950363587 L 90.70599999999999,91.22599503635871 M 97.08,80.5459950363587 L 96.902,91.22599503635871 M 102.92,80.5459950363587 L 103.098,91.22599503635871 M 108.75999999999999,80.5459950363587 L 109.294,91.22599503635871 M 114.6,80.5459950363587 L 115.49,91.22599503635871 M 120.44,80.5459950363587 L 121.68599999999999,91.22599503635871 M 126.28,80.5459950363587 L 127.882,91.22599503635871" stroke="#979bc4" stroke-width="0.8" fill="none" opacity="0.7"/>
    <path d="M 67.15,80.5459950363587 Q 67.15,72.5359950363587 100,69.8659950363587 Q 132.85,72.5359950363587 132.85,80.5459950363587" fill="#3275b4" filter="url(#organic)"/>
  </g>
</svg>