<svg xmlns="http://www.w3.org/2000/svg" viewBox="0 0 200 200" width="200" height="200">
  <defs>
    <filter id="organic" x="-5%" y="-5%" width="110%" height="110%">
    <feTurbulence type="fractalNoise" baseFrequency="0.04" numOctaves="3" seed="1" result="noise"/>
    <feDisplacementMap in="SourceGraphic" in2="noise" scale="2" xChannelSelector="R" yChannelSelector="G"/>
  </filter>
  </defs>
  <g>
    <path d="M 96,88.22588310746539 Q 95,129.1129415537327 95.2,170 L 104.8,170 Q 105,129.1129415537327 104,88.22588310746539 Z" fill="#979bc4" filter="url(#organic)"/>
    <ellipse cx="100" cy="112.75811817522577" rx="6" ry="1.7999999999999998" fill="none" stroke="currentColor" stroke-width="1.5" opacity="0.6"/>
    <path d="M 69.8,88.22588310746539 L 67.874,101.0658831074654 M 74.44615384615385,88.22588310746539 L 72.81646153846154,101.0658831074654 M 79.09230769230768,88.22588310746539 L 77.75892307692307,101.0658831074654 M 83.73846153846154,88.22588310746539 L 82.70138461538461,101.0658831074654 M 88.38461538461539,88.22588310746539 L 87.64384615384616,101.0658831074654 M 93.03076923076924,88.22588310746539 L 92.5863076923077,101.0658831074654 M 97.67692307692307,88.22588310746539 L 97.52876923076923,101.0658831074654 M 102.32307692307691,88.22588310746539 L 102.47123076923076,101.0658831074654 M 106.96923076923076,88.22588310746539 L 107.4136923076923,101.0658831074654 M 111.61538461538461,88.22588310746539 L 112.35615384615384,101.0658831074654 M 116.26153846153846,88.22588310746539 L 117.29861538461539,101.0658831074654 M 120.90769230769232,88.22588310746539 L 122.24107692307693,101.0658831074654 M 125.55384615384615,88.22588310746539 L 127.18353846153846,101.0658831074654 M 130.2,88.22588310746539 L 132.12599999999998,101.0658831074654" stroke="#979bc4" stroke-width="0.8" fill="none" opacity="0.7"/>
    <path d="M 62.25,88.22588310746539 Q 62.25,78.5958831074654 100,75.38588310746539 Q 137.75,78.5958831074654 137.75,88.22588310746539" fill="#3275b4" filter="url(#organic)"/>
  </g>
</svg>