<svg xmlns="http://www.w3.org/2000/svg" viewBox="0 0 200 200" width="200" height="200">
  <defs>
    <filter id="organic" x="-5%" y="-5%" width="110%" height="110%">
    <feTurbulence type="fractalNoise" baseFrequency="0.04" numOctaves="3" seed="1" result="noise"/>
    <feDisplacementMap in="SourceGraphic" in2="noise" scale="2" xChannelSelector="R" yChannelSelector="G"/>
  </filter>
  </defs>
  <g>
    <path d="M 92,103.63636363636364 Q 91,136.8181818181818 90.4,170 L 109.6,170 Q 109,136.8181818181818 108,103.63636363636364 Z" fill="#979bc4" filter="url(#organic)"/>
    <path d="M 60,103.63636363636364 L 58.479,113.77636363636364 M 63.47826086956522,103.63636363636364 L 62.08952173913043,113.77636363636364 M 66.95652173913044,103.63636363636364 L 65.70004347826087,113.77636363636364 M 70.43478260869566,103.63636363636364 L 69.31056521739131,113.77636363636364 M 73.91304347826087,103.63636363636364 L 72.92108695652175,113.77636363636364 M 77.3913043478261,103.63636363636364 L 76.53160869565218,113.77636363636364 M 80.86956521739131,103.63636363636364 L 80.14213043478262,113.77636363636364 M 84.34782608695653,103.63636363636364 L 83.75265217391305,113.77636363636364 M 87.82608695652173,103.63636363636364 L 87.36317391304347,113.77636363636364 M 91.30434782608695,103.63636363636364 L 90.97369565217392,113.77636363636364 M 94.78260869565219,103.63636363636364 L 94.58421739130436,113.77636363636364 M 98.2608695652174,103.63636363636364 L 98.1947391304348,113.77636363636364 M 101.73913043478261,103.63636363636364 L 101.80526086956522,113.77636363636364 M 105.21739130434783,103.63636363636364 L 105.41578260869565,113.77636363636364 M 108.69565217391306,103.63636363636364 L 109.0263043478261,113.77636363636364 M 112.17391304347827,103.63636363636364 L 112.63682608695653,113.77636363636364 M 115.65217391304347,103.63636363636364 L 116.24734782608695,113.77636363636364 M 119.13043478260869,103.63636363636364 L 119.85786956521738,113.77636363636364 M 122.6086956521739,103.63636363636364 L 123.46839130434782,113.77636363636364 M 126.08695652173913,103.63636363636364 L 127.07891304347825,113.77636363636364 M 129.56521739130437,103.63636363636364 L 130.6894347826087,113.77636363636364 M 133.04347826086956,103.63636363636364 L 134.29995652173912,113.77636363636364 M 136.5217391304348,103.63636363636364 L 137.91047826086958,113.77636363636364 M 140,103.63636363636364 L 141.521,113.77636363636364" stroke="#979bc4" stroke-width="0.8" fill="none" opacity="0.7"/>
    <path d="M 50,103.63636363636363 Q 60,85.89136363636364 100,78.28636363636363 Q 140,85.89136363636364 150,103.63636363636363" fill="#3275b4" filter="url(#organic)"/>
  </g>
</svg>