<svg xmlns="http://www.w3.org/2000/svg" viewBox="0 0 200 200" width="200" height="200">
  <defs>
    <filter id="organic" x="-5%" y="-5%" width="110%" height="110%">
    <feTurbulence type="fractalNoise" baseFrequency="0.04" numOctaves="3" seed="1" result="noise"/>
    <feDisplacementMap in="SourceGraphic" in2="noise" scale="2" xChannelSelector="R" yChannelSelector="G"/>
  </filter>
  </defs>
  <g>
    <path d="M 92,82.62732182619447 Q 91,126.31366091309724 90.4,170 L 109.6,170 Q 109,126.31366091309724 108,82.62732182619447 Z" fill="#979bc4" filter="url(#organic)"/>
    <path d="M 60,82.62732182619447 L 57.102,101.94732182619447 M 63.47826086956522,82.62732182619447 L 60.83226086956522,101.94732182619447 M 66.95652173913044,82.62732182619447 L 64.56252173913043,101.94732182619447 M 70.43478260869566,82.62732182619447 L 68.29278260869566,101.94732182619447 M 73.91304347826087,82.62732182619447 L 72.02304347826087,101.94732182619447 M 77.3913043478261,82.62732182619447 L 75.75330434782609,101.94732182619447 M 80.86956521739131,82.62732182619447 L 79.48356521739132,101.94732182619447 M 84.34782608695653,82.62732182619447 L 83.21382608695653,101.94732182619447 M 87.82608695652173,82.62732182619447 L 86.94408695652173,101.94732182619447 M 91.30434782608695,82.62732182619447 L 90.67434782608696,101.94732182619447 M 94.78260869565219,82.62732182619447 L 94.40460869565219,101.94732182619447 M 98.2608695652174,82.62732182619447 L 98.1348695652174,101.94732182619447 M 101.73913043478261,82.62732182619447 L 101.86513043478261,101.94732182619447 M 105.21739130434783,82.62732182619447 L 105.59539130434783,101.94732182619447 M 108.69565217391306,82.62732182619447 L 109.32565217391306,101.94732182619447 M 112.17391304347827,82.62732182619447 L 113.05591304347827,101.94732182619447 M 115.65217391304347,82.62732182619447 L 116.78617391304347,101.94732182619447 M 119.13043478260869,82.62732182619447 L 120.51643478260868,101.94732182619447 M 122.6086956521739,82.62732182619447 L 124.24669565217391,101.94732182619447 M 126.08695652173913,82.62732182619447 L 127.97695652173913,101.94732182619447 M 129.56521739130437,82.62732182619447 L 131.70721739130437,101.94732182619447 M 133.04347826086956,82.62732182619447 L 135.43747826086957,101.94732182619447 M 136.5217391304348,82.62732182619447 L 139.1677391304348,101.94732182619447 M 140,82.62732182619447 L 142.898,101.94732182619447" stroke="#979bc4" stroke-width="0.8" fill="none" opacity="0.7"/>
    <path d="M 50,63.307321826194475 Q 65,82.62732182619447 100,72.96732182619448 Q 135,82.62732182619447 150,63.307321826194475" fill="#3275b4" filter="url(#organic)"/>
    <circle cx="75.0" cy="48.8" r="3" fill="white" opacity="0.85"/>
    <circle cx="115.0" cy="44.0" r="2.5" fill="white" opacity="0.85"/>
    <circle cx="95.0" cy="41.6" r="2" fill="white" opacity="0.85"/>
    <circle cx="130.0" cy="53.6" r="2" fill="white" opacity="0.85"/>
    <circle cx="70.0" cy="58.5" r="1.5" fill="white" opacity="0.85"/>
    <circle cx="105.0" cy="58.5" r="2.5" fill="white" opacity="0.85"/>
  </g>
</svg>