<svg xmlns="http://www.w3.org/2000/svg" viewBox="0 0 200 200" width="200" height="200">
  <defs>
    <filter id="organic" x="-5%" y="-5%" width="110%" height="110%">
    <feTurbulence type="fractalNoise" baseFrequency="0.04" numOctaves="3" seed="1" result="noise"/>
    <feDisplacementMap in="SourceGraphic" in2="noise" scale="2" xChannelSelector="R" yChannelSelector="G"/>
  </filter>
  </defs>
  <g>
    <path d="M 92.8,80.95315583473814 Q 91.8,125.47657791736907 91.36,170 L 108.64,170 Q 108.2,125.47657791736907 107.2,80.95315583473814 Z" fill="#979bc4" filter="url(#organic)"/>
    <path d="M 60,80.95315583473814 L 58.479,91.09315583473814 M 63.47826086956522,80.95315583473814 L 62.08952173913043,91.09315583473814 M 66.95652173913044,80.95315583473814 L 65.70004347826087,91.09315583473814 M 70.43478260869566,80.95315583473814 L 69.31056521739131,91.09315583473814 M 73.91304347826087,80.95315583473814 L 72.92108695652175,91.09315583473814 M 77.3913043478261,80.95315583473814 L 76.53160869565218,91.09315583473814 M 80.86956521739131,80.95315583473814 L 80.14213043478262,91.09315583473814 M 84.34782608695653,80.95315583473814 L 83.75265217391305,91.09315583473814 M 87.82608695652173,80.95315583473814 L 87.36317391304347,91.09315583473814 M 91.30434782608695,80.95315583473814 L 90.97369565217392,91.09315583473814 M 94.78260869565219,80.95315583473814 L 94.58421739130436,91.09315583473814 M 98.2608695652174,80.95315583473814 L 98.1947391304348,91.09315583473814 M 101.73913043478261,80.95315583473814 L 101.80526086956522,91.09315583473814 M 105.21739130434783,80.95315583473814 L 105.41578260869565,91.09315583473814 M 108.69565217391306,80.95315583473814 L 109.0263043478261,91.09315583473814 M 112.17391304347827,80.95315583473814 L 112.63682608695653,91.09315583473814 M 115.65217391304347,80.95315583473814 L 116.24734782608695,91.09315583473814 M 119.13043478260869,80.95315583473814 L 119.85786956521738,91.09315583473814 M 122.6086956521739,80.95315583473814 L 123.46839130434782,91.09315583473814 M 126.08695652173913,80.95315583473814 L 127.07891304347825,91.09315583473814 M 129.56521739130437,80.95315583473814 L 130.6894347826087,91.09315583473814 M 133.04347826086956,80.95315583473814 L 134.29995652173912,91.09315583473814 M 136.5217391304348,80.95315583473814 L 137.91047826086958,91.09315583473814 M 140,80.95315583473814 L 141.521,91.09315583473814" stroke="#979bc4" stroke-width="0.8" fill="none" opacity="0.7"/>
    <path d="M 50,80.95315583473814 Q 50,73.34815583473814 100,70.81315583473814 Q 150,73.34815583473814 150,80.95315583473814" fill="#3275b4" filter="url(#organic)"/>
  </g>
</svg>