<svg xmlns="http://www.w3.org/2000/svg" viewBox="0 0 200 200" width="200" height="200">
  <defs>
    <filter id="organic" x="-5%" y="-5%" width="110%" height="110%">
    <feTurbulence type="fractalNoise" baseFrequency="0.04" numOctaves="3" seed="1" result="noise"/>
    <feDisplacementMap in="SourceGraphic" in2="noise" scale="2" xChannelSelector="R" yChannelSelector="G"/>
  </filter>
  </defs>
  <g>
    <path d="M 96.4,70.27752881482309 Q 95.4,120.13876440741154 95.68,170 L 104.32,170 Q 104.6,120.13876440741154 103.6,70.27752881482309 Z" fill="#78a6bd" filter="url(#organic)"/>
    <ellipse cx="100" cy="100.19427017037616" rx="5.4" ry="1.62" fill="none" stroke="currentColor" stroke-width="1.5" opacity="0.6"/>
    <path d="M 71.75999999999999,70.27752881482309 L 70.32,79.87752881482308 M 76.89454545454545,70.27752881482309 L 75.71636363636364,79.87752881482308 M 82.0290909090909,70.27752881482309 L 81.11272727272726,79.87752881482308 M 87.16363636363636,70.27752881482309 L 86.5090909090909,79.87752881482308 M 92.29818181818182,70.27752881482309 L 91.90545454545455,79.87752881482308 M 97.43272727272726,70.27752881482309 L 97.30181818181818,79.87752881482308 M 102.56727272727272,70.27752881482309 L 102.69818181818181,79.87752881482308 M 107.70181818181817,70.27752881482309 L 108.09454545454544,79.87752881482308 M 112.83636363636364,70.27752881482309 L 113.4909090909091,79.87752881482308 M 117.97090909090909,70.27752881482309 L 118.88727272727273,79.87752881482308 M 123.10545454545453,70.27752881482309 L 124.28363636363635,79.87752881482308 M 128.24,70.27752881482309 L 129.68,79.87752881482308" stroke="#78a6bd" stroke-width="0.8" fill="none" opacity="0.7"/>
    <path d="M 64.69999999999999,70.27752881482309 Q 64.69999999999999,63.07752881482308 100,60.677528814823084 Q 135.3,63.07752881482308 135.3,70.27752881482309" fill="#00858d" filter="url(#organic)"/>
  </g>
</svg>