<svg xmlns="http://www.w3.org/2000/svg" viewBox="0 0 200 200" width="200" height="200">
  <defs>
    <filter id="organic" x="-5%" y="-5%" width="110%" height="110%">
    <feTurbulence type="fractalNoise" baseFrequency="0.04" numOctaves="3" seed="1" result="noise"/>
    <feDisplacementMap in="SourceGraphic" in2="noise" scale="2" xChannelSelector="R" yChannelSelector="G"/>
  </filter>
  </defs>
  <g>
    <path d="M 96,88.3779484875598 Q 95,129.1889742437799 95.2,170 L 104.8,170 Q 105,129.1889742437799 104,88.3779484875598 Z" fill="#979bc4" filter="url(#organic)"/>
    <ellipse cx="100" cy="112.86456394129186" rx="6" ry="1.7999999999999998" fill="none" stroke="currentColor" stroke-width="1.5" opacity="0.6"/>
    <path d="M 69.8,88.3779484875598 L 67.469,103.91794848755981 M 74.44615384615385,88.3779484875598 L 72.47376923076924,103.91794848755981 M 79.09230769230768,88.3779484875598 L 77.47853846153845,103.91794848755981 M 83.73846153846154,88.3779484875598 L 82.48330769230769,103.91794848755981 M 88.38461538461539,88.3779484875598 L 87.48807692307693,103.91794848755981 M 93.03076923076924,88.3779484875598 L 92.49284615384616,103.91794848755981 M 97.67692307692307,88.3779484875598 L 97.49761538461539,103.91794848755981 M 102.32307692307691,88.3779484875598 L 102.5023846153846,103.91794848755981 M 106.96923076923076,88.3779484875598 L 107.50715384615384,103.91794848755981 M 111.61538461538461,88.3779484875598 L 112.51192307692307,103.91794848755981 M 116.26153846153846,88.3779484875598 L 117.51669230769231,103.91794848755981 M 120.90769230769232,88.3779484875598 L 122.52146153846155,103.91794848755981 M 125.55384615384615,88.3779484875598 L 127.52623076923076,103.91794848755981 M 130.2,88.3779484875598 L 132.53099999999998,103.91794848755981" stroke="#979bc4" stroke-width="0.8" fill="none" opacity="0.7"/>
    <path d="M 62.25,88.3779484875598 Q 69.8,61.182948487559806 100,49.527948487559804 Q 130.2,61.182948487559806 137.75,88.3779484875598" fill="#3275b4" filter="url(#organic)"/>
  </g>
</svg>