<svg xmlns="http://www.w3.org/2000/svg" viewBox="0 0 200 200" width="200" height="200">
  <defs>
    <filter id="organic" x="-5%" y="-5%" width="110%" height="110%">
    <feTurbulence type="fractalNoise" baseFrequency="0.04" numOctaves="3" seed="1" result="noise"/>
    <feDisplacementMap in="SourceGraphic" in2="noise" scale="2" xChannelSelector="R" yChannelSelector="G"/>
  </filter>
  </defs>
  <g>
    <path d="M 95.6,88.6102604330344 Q 94.6,129.3051302165172 94.72,170 L 105.28,170 Q 105.4,129.3051302165172 104.4,88.6102604330344 Z" fill="#979bc4" filter="url(#organic)"/>
    <ellipse cx="100" cy="113.02718230312408" rx="6.6000000000000005" ry="1.98" fill="none" stroke="currentColor" stroke-width="1.5" opacity="0.6"/>
    <path d="M 67.84,88.6102604330344 L 66.319,98.7502604330344 M 72.128,88.6102604330344 L 70.8098,98.7502604330344 M 76.416,88.6102604330344 L 75.3006,98.7502604330344 M 80.70400000000001,88.6102604330344 L 79.79140000000001,98.7502604330344 M 84.992,88.6102604330344 L 84.2822,98.7502604330344 M 89.28,88.6102604330344 L 88.773,98.7502604330344 M 93.56800000000001,88.6102604330344 L 93.26380000000002,98.7502604330344 M 97.85600000000001,88.6102604330344 L 97.75460000000001,98.7502604330344 M 102.144,88.6102604330344 L 102.2454,98.7502604330344 M 106.43200000000002,88.6102604330344 L 106.73620000000001,98.7502604330344 M 110.72,88.6102604330344 L 111.227,98.7502604330344 M 115.00800000000001,88.6102604330344 L 115.71780000000001,98.7502604330344 M 119.29600000000002,88.6102604330344 L 120.20860000000002,98.7502604330344 M 123.584,88.6102604330344 L 124.6994,98.7502604330344 M 127.87200000000001,88.6102604330344 L 129.1902,98.7502604330344 M 132.16000000000003,88.6102604330344 L 133.681,98.7502604330344" stroke="#979bc4" stroke-width="0.8" fill="none" opacity="0.7"/>
    <path d="M 59.8,88.6102604330344 Q 59.8,63.2602604330344 100,63.2602604330344 Q 140.2,63.2602604330344 140.2,88.6102604330344" fill="#3275b4" filter="url(#organic)"/>
    <circle cx="79.9" cy="70.9" r="3" fill="white" opacity="0.85"/>
    <circle cx="112.1" cy="68.3" r="2.5" fill="white" opacity="0.85"/>
    <circle cx="96.0" cy="67.1" r="2" fill="white" opacity="0.85"/>
    <circle cx="124.1" cy="73.4" r="2" fill="white" opacity="0.85"/>
    <circle cx="75.9" cy="75.9" r="1.5" fill="white" opacity="0.85"/>
    <circle cx="104.0" cy="75.9" r="2.5" fill="white" opacity="0.85"/>
  </g>
</svg>