<svg xmlns="http://www.w3.org/2000/svg" viewBox="0 0 200 200" width="200" height="200">
  <defs>
    <filter id="organic" x="-5%" y="-5%" width="110%" height="110%">
    <feTurbulence type="fractalNoise" baseFrequency="0.04" numOctaves="3" seed="1" result="noise"/>
    <feDisplacementMap in="SourceGraphic" in2="noise" scale="2" xChannelSelector="R" yChannelSelector="G"/>
  </filter>
  </defs>
  <g>
    <path d="M 94.4,78.09634433623725 Q 93.4,124.04817216811863 93.28,170 L 106.72,170 Q 106.6,124.04817216811863 105.6,78.09634433623725 Z" fill="#bc957b" filter="url(#organic)"/>
    <ellipse cx="100" cy="105.66744103536607" rx="8.399999999999999" ry="2.5199999999999996" fill="none" stroke="currentColor" stroke-width="1.5" opacity="0.6"/>
    <path d="M 61.959999999999994,78.09634433623725 L 60.519999999999996,87.69634433623725 M 65.58285714285714,78.09634433623725 L 64.27999999999999,87.69634433623725 M 69.20571428571428,78.09634433623725 L 68.03999999999999,87.69634433623725 M 72.82857142857142,78.09634433623725 L 71.8,87.69634433623725 M 76.45142857142856,78.09634433623725 L 75.55999999999999,87.69634433623725 M 80.07428571428571,78.09634433623725 L 79.32,87.69634433623725 M 83.69714285714285,78.09634433623725 L 83.08,87.69634433623725 M 87.32,78.09634433623725 L 86.83999999999999,87.69634433623725 M 90.94285714285714,78.09634433623725 L 90.6,87.69634433623725 M 94.56571428571428,78.09634433623725 L 94.36,87.69634433623725 M 98.18857142857142,78.09634433623725 L 98.11999999999999,87.69634433623725 M 101.81142857142858,78.09634433623725 L 101.88000000000001,87.69634433623725 M 105.4342857142857,78.09634433623725 L 105.63999999999999,87.69634433623725 M 109.05714285714286,78.09634433623725 L 109.4,87.69634433623725 M 112.68,78.09634433623725 L 113.16000000000001,87.69634433623725 M 116.30285714285714,78.09634433623725 L 116.91999999999999,87.69634433623725 M 119.92571428571428,78.09634433623725 L 120.67999999999999,87.69634433623725 M 123.54857142857144,78.09634433623725 L 124.44000000000001,87.69634433623725 M 127.17142857142858,78.09634433623725 L 128.20000000000002,87.69634433623725 M 130.7942857142857,78.09634433623725 L 131.95999999999998,87.69634433623725 M 134.41714285714284,78.09634433623725 L 135.71999999999997,87.69634433623725 M 138.04000000000002,78.09634433623725 L 139.48000000000002,87.69634433623725" stroke="#bc957b" stroke-width="0.8" fill="none" opacity="0.7"/>
    <path d="M 52.449999999999996,78.09634433623725 Q 52.449999999999996,70.89634433623725 100,68.49634433623726 Q 147.55,70.89634433623725 147.55,78.09634433623725" fill="#ad524d" filter="url(#organic)"/>
  </g>
</svg>