<svg xmlns="http://www.w3.org/2000/svg" viewBox="0 0 200 200" width="200" height="200">
  <defs>
    <filter id="organic" x="-5%" y="-5%" width="110%" height="110%">
    <feTurbulence type="fractalNoise" baseFrequency="0.04" numOctaves="3" seed="1" result="noise"/>
    <feDisplacementMap in="SourceGraphic" in2="noise" scale="2" xChannelSelector="R" yChannelSelector="G"/>
  </filter>
  </defs>
  <g>
    <path d="M 92,87.01525659009275 Q 91,128.50762829504637 90.4,170 L 109.6,170 Q 109,128.50762829504637 108,87.01525659009275 Z" fill="#979bc4" filter="url(#organic)"/>
    <path d="M 60,87.01525659009275 L 57.345,104.71525659009275 M 63.47826086956522,87.01525659009275 L 61.05413043478261,104.71525659009275 M 66.95652173913044,87.01525659009275 L 64.76326086956522,104.71525659009275 M 70.43478260869566,87.01525659009275 L 68.47239130434782,104.71525659009275 M 73.91304347826087,87.01525659009275 L 72.18152173913045,104.71525659009275 M 77.3913043478261,87.01525659009275 L 75.89065217391305,104.71525659009275 M 80.86956521739131,87.01525659009275 L 79.59978260869566,104.71525659009275 M 84.34782608695653,87.01525659009275 L 83.30891304347827,104.71525659009275 M 87.82608695652173,87.01525659009275 L 87.01804347826086,104.71525659009275 M 91.30434782608695,87.01525659009275 L 90.72717391304347,104.71525659009275 M 94.78260869565219,87.01525659009275 L 94.4363043478261,104.71525659009275 M 98.2608695652174,87.01525659009275 L 98.1454347826087,104.71525659009275 M 101.73913043478261,87.01525659009275 L 101.85456521739131,104.71525659009275 M 105.21739130434783,87.01525659009275 L 105.56369565217392,104.71525659009275 M 108.69565217391306,87.01525659009275 L 109.27282608695654,104.71525659009275 M 112.17391304347827,87.01525659009275 L 112.98195652173914,104.71525659009275 M 115.65217391304347,87.01525659009275 L 116.69108695652173,104.71525659009275 M 119.13043478260869,87.01525659009275 L 120.40021739130434,104.71525659009275 M 122.6086956521739,87.01525659009275 L 124.10934782608695,104.71525659009275 M 126.08695652173913,87.01525659009275 L 127.81847826086955,104.71525659009275 M 129.56521739130437,87.01525659009275 L 131.5276086956522,104.71525659009275 M 133.04347826086956,87.01525659009275 L 135.23673913043478,104.71525659009275 M 136.5217391304348,87.01525659009275 L 138.9458695652174,104.71525659009275 M 140,87.01525659009275 L 142.655,104.71525659009275" stroke="#979bc4" stroke-width="0.8" fill="none" opacity="0.7"/>
    <path d="M 50,42.76525659009275 Q 65,64.89025659009275 100,87.01525659009275 Q 135,64.89025659009275 150,42.76525659009275" fill="#3275b4" filter="url(#organic)"/>
  </g>
</svg>