<svg xmlns="http://www.w3.org/2000/svg" viewBox="0 0 200 200" width="200" height="200">
  <defs>
    <filter id="organic" x="-5%" y="-5%" width="110%" height="110%">
    <feTurbulence type="fractalNoise" baseFrequency="0.04" numOctaves="3" seed="1" result="noise"/>
    <feDisplacementMap in="SourceGraphic" in2="noise" scale="2" xChannelSelector="R" yChannelSelector="G"/>
  </filter>
  </defs>
  <g>
    <path d="M 92,93.76325814823213 Q 91,131.88162907411606 90.4,170 L 109.6,170 Q 109,131.88162907411606 108,93.76325814823213 Z" fill="#979bc4" filter="url(#organic)"/>
    <ellipse cx="100" cy="116.63428070376249" rx="12" ry="3.5999999999999996" fill="none" stroke="currentColor" stroke-width="1.5" opacity="0.6"/>
    <path d="M 60,93.76325814823213 L 58.398,104.44325814823213 M 63.47826086956522,93.76325814823213 L 62.015565217391305,104.44325814823213 M 66.95652173913044,93.76325814823213 L 65.63313043478261,104.44325814823213 M 70.43478260869566,93.76325814823213 L 69.25069565217392,104.44325814823213 M 73.91304347826087,93.76325814823213 L 72.86826086956522,104.44325814823213 M 77.3913043478261,93.76325814823213 L 76.48582608695652,104.44325814823213 M 80.86956521739131,93.76325814823213 L 80.10339130434784,104.44325814823213 M 84.34782608695653,93.76325814823213 L 83.72095652173914,104.44325814823213 M 87.82608695652173,93.76325814823213 L 87.33852173913043,104.44325814823213 M 91.30434782608695,93.76325814823213 L 90.95608695652173,104.44325814823213 M 94.78260869565219,93.76325814823213 L 94.57365217391306,104.44325814823213 M 98.2608695652174,93.76325814823213 L 98.19121739130436,104.44325814823213 M 101.73913043478261,93.76325814823213 L 101.80878260869565,104.44325814823213 M 105.21739130434783,93.76325814823213 L 105.42634782608695,104.44325814823213 M 108.69565217391306,93.76325814823213 L 109.04391304347828,104.44325814823213 M 112.17391304347827,93.76325814823213 L 112.66147826086957,104.44325814823213 M 115.65217391304347,93.76325814823213 L 116.27904347826086,104.44325814823213 M 119.13043478260869,93.76325814823213 L 119.89660869565216,104.44325814823213 M 122.6086956521739,93.76325814823213 L 123.51417391304348,104.44325814823213 M 126.08695652173913,93.76325814823213 L 127.13173913043478,104.44325814823213 M 129.56521739130437,93.76325814823213 L 130.74930434782613,104.44325814823213 M 133.04347826086956,93.76325814823213 L 134.3668695652174,104.44325814823213 M 136.5217391304348,93.76325814823213 L 137.98443478260873,104.44325814823213 M 140,93.76325814823213 L 141.602,104.44325814823213" stroke="#979bc4" stroke-width="0.8" fill="none" opacity="0.7"/>
    <path d="M 50,83.08325814823212 Q 65,93.76325814823213 100,88.42325814823212 Q 135,93.76325814823213 150,83.08325814823212" fill="#3275b4" filter="url(#organic)"/>
  </g>
</svg>