<svg xmlns="http://www.w3.org/2000/svg" viewBox="0 0 200 200" width="200" height="200">
  <defs>
    <filter id="organic" x="-5%" y="-5%" width="110%" height="110%">
    <feTurbulence type="fractalNoise" baseFrequency="0.04" numOctaves="3" seed="1" result="noise"/>
    <feDisplacementMap in="SourceGraphic" in2="noise" scale="2" xChannelSelector="R" yChannelSelector="G"/>
  </filter>
  </defs>
  <g>
    <path d="M 95.2,96.52887328363697 Q 94.2,133.2644366418185 94.24,170 L 105.76,170 Q 105.8,133.2644366418185 104.8,96.52887328363697 Z" fill="#71a9b3" filter="url(#organic)"/>
    <ellipse cx="100" cy="118.57021129854587" rx="7.199999999999999" ry="2.1599999999999997" fill="none" stroke="currentColor" stroke-width="1.5" opacity="0.6"/>
    <path d="M 65.88,96.52887328363697 L 64.44,106.12887328363698 M 69.89411764705882,96.52887328363697 L 68.62352941176471,106.12887328363698 M 73.90823529411765,96.52887328363697 L 72.80705882352942,106.12887328363698 M 77.92235294117647,96.52887328363697 L 76.99058823529411,106.12887328363698 M 81.9364705882353,96.52887328363697 L 81.17411764705882,106.12887328363698 M 85.95058823529412,96.52887328363697 L 85.35764705882353,106.12887328363698 M 89.96470588235294,96.52887328363697 L 89.54117647058824,106.12887328363698 M 93.97882352941176,96.52887328363697 L 93.72470588235294,106.12887328363698 M 97.9929411764706,96.52887328363697 L 97.90823529411766,106.12887328363698 M 102.0070588235294,96.52887328363697 L 102.09176470588234,106.12887328363698 M 106.02117647058824,96.52887328363697 L 106.27529411764706,106.12887328363698 M 110.03529411764706,96.52887328363697 L 110.45882352941176,106.12887328363698 M 114.0494117647059,96.52887328363697 L 114.64235294117648,106.12887328363698 M 118.0635294117647,96.52887328363697 L 118.82588235294118,106.12887328363698 M 122.07764705882353,96.52887328363697 L 123.00941176470589,106.12887328363698 M 126.09176470588235,96.52887328363697 L 127.19294117647058,106.12887328363698 M 130.1058823529412,96.52887328363697 L 131.37647058823532,106.12887328363698 M 134.12,96.52887328363697 L 135.56,106.12887328363698" stroke="#71a9b3" stroke-width="0.8" fill="none" opacity="0.7"/>
    <path d="M 57.349999999999994,96.52887328363697 Q 57.349999999999994,89.32887328363697 100,86.92887328363696 Q 142.65,89.32887328363697 142.65,96.52887328363697" fill="#008774" filter="url(#organic)"/>
  </g>
</svg>