<svg xmlns="http://www.w3.org/2000/svg" viewBox="0 0 200 200" width="200" height="200">
  <defs>
    <filter id="organic" x="-5%" y="-5%" width="110%" height="110%">
    <feTurbulence type="fractalNoise" baseFrequency="0.04" numOctaves="3" seed="1" result="noise"/>
    <feDisplacementMap in="SourceGraphic" in2="noise" scale="2" xChannelSelector="R" yChannelSelector="G"/>
  </filter>
  </defs>
  <g>
    <path d="M 92,86.49053087550485 Q 91,128.24526543775244 90.4,170 L 109.6,170 Q 109,128.24526543775244 108,86.49053087550485 Z" fill="#979bc4" filter="url(#organic)"/>
    <ellipse cx="100" cy="111.54337161285339" rx="12" ry="3.5999999999999996" fill="none" stroke="currentColor" stroke-width="1.5" opacity="0.6"/>
    <path d="M 60,86.49053087550485 L 58.236,98.25053087550485 M 63.47826086956522,86.49053087550485 L 61.867652173913044,98.25053087550485 M 66.95652173913044,86.49053087550485 L 65.49930434782608,98.25053087550485 M 70.43478260869566,86.49053087550485 L 69.13095652173914,98.25053087550485 M 73.91304347826087,86.49053087550485 L 72.76260869565218,98.25053087550485 M 77.3913043478261,86.49053087550485 L 76.39426086956523,98.25053087550485 M 80.86956521739131,86.49053087550485 L 80.02591304347827,98.25053087550485 M 84.34782608695653,86.49053087550485 L 83.65756521739131,98.25053087550485 M 87.82608695652173,86.49053087550485 L 87.28921739130435,98.25053087550485 M 91.30434782608695,86.49053087550485 L 90.92086956521739,98.25053087550485 M 94.78260869565219,86.49053087550485 L 94.55252173913044,98.25053087550485 M 98.2608695652174,86.49053087550485 L 98.1841739130435,98.25053087550485 M 101.73913043478261,86.49053087550485 L 101.81582608695652,98.25053087550485 M 105.21739130434783,86.49053087550485 L 105.44747826086957,98.25053087550485 M 108.69565217391306,86.49053087550485 L 109.07913043478263,98.25053087550485 M 112.17391304347827,86.49053087550485 L 112.71078260869565,98.25053087550485 M 115.65217391304347,86.49053087550485 L 116.34243478260869,98.25053087550485 M 119.13043478260869,86.49053087550485 L 119.97408695652173,98.25053087550485 M 122.6086956521739,86.49053087550485 L 123.60573913043477,98.25053087550485 M 126.08695652173913,86.49053087550485 L 127.23739130434782,98.25053087550485 M 129.56521739130437,86.49053087550485 L 130.8690434782609,98.25053087550485 M 133.04347826086956,86.49053087550485 L 134.5006956521739,98.25053087550485 M 136.5217391304348,86.49053087550485 L 138.13234782608697,98.25053087550485 M 140,86.49053087550485 L 141.764,98.25053087550485" stroke="#979bc4" stroke-width="0.8" fill="none" opacity="0.7"/>
    <path d="M 50,86.49053087550485 Q 50,77.67053087550485 100,74.73053087550484 Q 150,77.67053087550485 150,86.49053087550485" fill="#3275b4" filter="url(#organic)"/>
  </g>
</svg>