<svg xmlns="http://www.w3.org/2000/svg" viewBox="0 0 200 200" width="200" height="200">
  <defs>
    <filter id="organic" x="-5%" y="-5%" width="110%" height="110%">
    <feTurbulence type="fractalNoise" baseFrequency="0.04" numOctaves="3" seed="1" result="noise"/>
    <feDisplacementMap in="SourceGraphic" in2="noise" scale="2" xChannelSelector="R" yChannelSelector="G"/>
  </filter>
  </defs>
  <g>
    <path d="M 96,108.05587328888174 Q 95,139.02793664444087 95.2,170 L 104.8,170 Q 105,139.02793664444087 104,108.05587328888174 Z" fill="#73aba3" filter="url(#organic)"/>
    <ellipse cx="100" cy="126.63911130221722" rx="6" ry="1.7999999999999998" fill="none" stroke="currentColor" stroke-width="1.5" opacity="0.6"/>
    <path d="M 69.8,108.05587328888174 L 68.36,117.65587328888174 M 74.44615384615385,108.05587328888174 L 73.22769230769231,117.65587328888174 M 79.09230769230768,108.05587328888174 L 78.0953846153846,117.65587328888174 M 83.73846153846154,108.05587328888174 L 82.96307692307693,117.65587328888174 M 88.38461538461539,108.05587328888174 L 87.83076923076923,117.65587328888174 M 93.03076923076924,108.05587328888174 L 92.69846153846154,117.65587328888174 M 97.67692307692307,108.05587328888174 L 97.56615384615384,117.65587328888174 M 102.32307692307691,108.05587328888174 L 102.43384615384615,117.65587328888174 M 106.96923076923076,108.05587328888174 L 107.30153846153846,117.65587328888174 M 111.61538461538461,108.05587328888174 L 112.16923076923077,117.65587328888174 M 116.26153846153846,108.05587328888174 L 117.03692307692307,117.65587328888174 M 120.90769230769232,108.05587328888174 L 121.9046153846154,117.65587328888174 M 125.55384615384615,108.05587328888174 L 126.77230769230769,117.65587328888174 M 130.2,108.05587328888174 L 131.64,117.65587328888174" stroke="#73aba3" stroke-width="0.8" fill="none" opacity="0.7"/>
    <path d="M 62.25,108.05587328888174 Q 62.25,100.85587328888174 100,98.45587328888175 Q 137.75,100.85587328888174 137.75,108.05587328888174" fill="#258651" filter="url(#organic)"/>
  </g>
</svg>