<svg xmlns="http://www.w3.org/2000/svg" viewBox="0 0 200 200" width="200" height="200">
  <defs>
    <filter id="organic" x="-5%" y="-5%" width="110%" height="110%">
    <feTurbulence type="fractalNoise" baseFrequency="0.04" numOctaves="3" seed="1" result="noise"/>
    <feDisplacementMap in="SourceGraphic" in2="noise" scale="2" xChannelSelector="R" yChannelSelector="G"/>
  </filter>
  </defs>
  <g>
    <path d="M 92,96.04077004102943 Q 91,133.0203850205147 90.4,170 L 109.6,170 Q 109,133.0203850205147 108,96.04077004102943 Z" fill="#979bc4" filter="url(#organic)"/>
    <ellipse cx="100" cy="118.2285390287206" rx="12" ry="3.5999999999999996" fill="none" stroke="currentColor" stroke-width="1.5" opacity="0.6"/>
    <path d="M 60,96.04077004102943 L 58.398,106.72077004102944 M 63.47826086956522,96.04077004102943 L 62.015565217391305,106.72077004102944 M 66.95652173913044,96.04077004102943 L 65.63313043478261,106.72077004102944 M 70.43478260869566,96.04077004102943 L 69.25069565217392,106.72077004102944 M 73.91304347826087,96.04077004102943 L 72.86826086956522,106.72077004102944 M 77.3913043478261,96.04077004102943 L 76.48582608695652,106.72077004102944 M 80.86956521739131,96.04077004102943 L 80.10339130434784,106.72077004102944 M 84.34782608695653,96.04077004102943 L 83.72095652173914,106.72077004102944 M 87.82608695652173,96.04077004102943 L 87.33852173913043,106.72077004102944 M 91.30434782608695,96.04077004102943 L 90.95608695652173,106.72077004102944 M 94.78260869565219,96.04077004102943 L 94.57365217391306,106.72077004102944 M 98.2608695652174,96.04077004102943 L 98.19121739130436,106.72077004102944 M 101.73913043478261,96.04077004102943 L 101.80878260869565,106.72077004102944 M 105.21739130434783,96.04077004102943 L 105.42634782608695,106.72077004102944 M 108.69565217391306,96.04077004102943 L 109.04391304347828,106.72077004102944 M 112.17391304347827,96.04077004102943 L 112.66147826086957,106.72077004102944 M 115.65217391304347,96.04077004102943 L 116.27904347826086,106.72077004102944 M 119.13043478260869,96.04077004102943 L 119.89660869565216,106.72077004102944 M 122.6086956521739,96.04077004102943 L 123.51417391304348,106.72077004102944 M 126.08695652173913,96.04077004102943 L 127.13173913043478,106.72077004102944 M 129.56521739130437,96.04077004102943 L 130.74930434782613,106.72077004102944 M 133.04347826086956,96.04077004102943 L 134.3668695652174,106.72077004102944 M 136.5217391304348,96.04077004102943 L 137.98443478260873,106.72077004102944 M 140,96.04077004102943 L 141.602,106.72077004102944" stroke="#979bc4" stroke-width="0.8" fill="none" opacity="0.7"/>
    <path d="M 50,85.36077004102943 Q 65,96.04077004102943 100,90.70077004102943 Q 135,96.04077004102943 150,85.36077004102943" fill="#3275b4" filter="url(#organic)"/>
    <circle cx="75.0" cy="77.4" r="3" fill="white" opacity="0.85"/>
    <circle cx="115.0" cy="74.7" r="2.5" fill="white" opacity="0.85"/>
    <circle cx="95.0" cy="73.3" r="2" fill="white" opacity="0.85"/>
    <circle cx="130.0" cy="80.0" r="2" fill="white" opacity="0.85"/>
    <circle cx="70.0" cy="82.7" r="1.5" fill="white" opacity="0.85"/>
    <circle cx="105.0" cy="82.7" r="2.5" fill="white" opacity="0.85"/>
  </g>
</svg>