<svg xmlns="http://www.w3.org/2000/svg" viewBox="0 0 200 200" width="200" height="200">
  <defs>
    <filter id="organic" x="-5%" y="-5%" width="110%" height="110%">
    <feTurbulence type="fractalNoise" baseFrequency="0.04" numOctaves="3" seed="1" result="noise"/>
    <feDisplacementMap in="SourceGraphic" in2="noise" scale="2" xChannelSelector="R" yChannelSelector="G"/>
  </filter>
  </defs>
  <g>
    <path d="M 92,94.28798386282 Q 91,132.14399193141 90.4,170 L 109.6,170 Q 109,132.14399193141 108,94.28798386282 Z" fill="#979bc4" filter="url(#organic)"/>
    <ellipse cx="100" cy="117.001588703974" rx="12" ry="3.5999999999999996" fill="none" stroke="currentColor" stroke-width="1.5" opacity="0.6"/>
    <path d="M 60,94.28798386282 L 58.155,106.58798386282 M 63.47826086956522,94.28798386282 L 61.793695652173916,106.58798386282 M 66.95652173913044,94.28798386282 L 65.43239130434783,106.58798386282 M 70.43478260869566,94.28798386282 L 69.07108695652174,106.58798386282 M 73.91304347826087,94.28798386282 L 72.70978260869566,106.58798386282 M 77.3913043478261,94.28798386282 L 76.34847826086957,106.58798386282 M 80.86956521739131,94.28798386282 L 79.98717391304349,106.58798386282 M 84.34782608695653,94.28798386282 L 83.6258695652174,106.58798386282 M 87.82608695652173,94.28798386282 L 87.2645652173913,106.58798386282 M 91.30434782608695,94.28798386282 L 90.90326086956522,106.58798386282 M 94.78260869565219,94.28798386282 L 94.54195652173914,106.58798386282 M 98.2608695652174,94.28798386282 L 98.18065217391306,106.58798386282 M 101.73913043478261,94.28798386282 L 101.81934782608695,106.58798386282 M 105.21739130434783,94.28798386282 L 105.45804347826088,106.58798386282 M 108.69565217391306,94.28798386282 L 109.0967391304348,106.58798386282 M 112.17391304347827,94.28798386282 L 112.7354347826087,106.58798386282 M 115.65217391304347,94.28798386282 L 116.3741304347826,106.58798386282 M 119.13043478260869,94.28798386282 L 120.01282608695651,106.58798386282 M 122.6086956521739,94.28798386282 L 123.65152173913043,106.58798386282 M 126.08695652173913,94.28798386282 L 127.29021739130434,106.58798386282 M 129.56521739130437,94.28798386282 L 130.92891304347827,106.58798386282 M 133.04347826086956,94.28798386282 L 134.56760869565218,106.58798386282 M 136.5217391304348,94.28798386282 L 138.20630434782612,106.58798386282 M 140,94.28798386282 L 141.845,106.58798386282" stroke="#979bc4" stroke-width="0.8" fill="none" opacity="0.7"/>
    <path d="M 50,81.98798386282 Q 65,94.28798386282 100,88.13798386282 Q 135,94.28798386282 150,81.98798386282" fill="#3275b4" filter="url(#organic)"/>
    <circle cx="75.0" cy="72.8" r="3" fill="white" opacity="0.85"/>
    <circle cx="115.0" cy="69.7" r="2.5" fill="white" opacity="0.85"/>
    <circle cx="95.0" cy="68.2" r="2" fill="white" opacity="0.85"/>
    <circle cx="130.0" cy="75.8" r="2" fill="white" opacity="0.85"/>
    <circle cx="70.0" cy="78.9" r="1.5" fill="white" opacity="0.85"/>
    <circle cx="105.0" cy="78.9" r="2.5" fill="white" opacity="0.85"/>
  </g>
</svg>