<svg xmlns="http://www.w3.org/2000/svg" viewBox="0 0 200 200" width="200" height="200">
  <defs>
    <filter id="organic" x="-5%" y="-5%" width="110%" height="110%">
    <feTurbulence type="fractalNoise" baseFrequency="0.04" numOctaves="3" seed="1" result="noise"/>
    <feDisplacementMap in="SourceGraphic" in2="noise" scale="2" xChannelSelector="R" yChannelSelector="G"/>
  </filter>
  </defs>
  <g>
    <path d="M 92,84.1492356399604 Q 91,127.0746178199802 90.4,170 L 109.6,170 Q 109,127.0746178199802 108,84.1492356399604 Z" fill="#a496bf" filter="url(#organic)"/>
    <ellipse cx="100" cy="109.90446494797227" rx="12" ry="3.5999999999999996" fill="none" stroke="currentColor" stroke-width="1.5" opacity="0.6"/>
    <path d="M 60,84.1492356399604 L 58.56,93.7492356399604 M 63.47826086956522,84.1492356399604 L 62.16347826086957,93.7492356399604 M 66.95652173913044,84.1492356399604 L 65.76695652173913,93.7492356399604 M 70.43478260869566,84.1492356399604 L 69.3704347826087,93.7492356399604 M 73.91304347826087,84.1492356399604 L 72.97391304347826,93.7492356399604 M 77.3913043478261,84.1492356399604 L 76.57739130434783,93.7492356399604 M 80.86956521739131,84.1492356399604 L 80.18086956521739,93.7492356399604 M 84.34782608695653,84.1492356399604 L 83.78434782608697,93.7492356399604 M 87.82608695652173,84.1492356399604 L 87.38782608695652,93.7492356399604 M 91.30434782608695,84.1492356399604 L 90.99130434782609,93.7492356399604 M 94.78260869565219,84.1492356399604 L 94.59478260869567,93.7492356399604 M 98.2608695652174,84.1492356399604 L 98.19826086956523,93.7492356399604 M 101.73913043478261,84.1492356399604 L 101.80173913043478,93.7492356399604 M 105.21739130434783,84.1492356399604 L 105.40521739130435,93.7492356399604 M 108.69565217391306,84.1492356399604 L 109.00869565217393,93.7492356399604 M 112.17391304347827,84.1492356399604 L 112.61217391304348,93.7492356399604 M 115.65217391304347,84.1492356399604 L 116.21565217391303,93.7492356399604 M 119.13043478260869,84.1492356399604 L 119.81913043478261,93.7492356399604 M 122.6086956521739,84.1492356399604 L 123.42260869565217,93.7492356399604 M 126.08695652173913,84.1492356399604 L 127.02608695652174,93.7492356399604 M 129.56521739130437,84.1492356399604 L 130.62956521739133,93.7492356399604 M 133.04347826086956,84.1492356399604 L 134.23304347826087,93.7492356399604 M 136.5217391304348,84.1492356399604 L 137.83652173913046,93.7492356399604 M 140,84.1492356399604 L 141.44,93.7492356399604" stroke="#a496bf" stroke-width="0.8" fill="none" opacity="0.7"/>
    <path d="M 50,84.1492356399604 Q 50,76.94923563996039 100,74.54923563996039 Q 150,76.94923563996039 150,84.1492356399604" fill="#576cb7" filter="url(#organic)"/>
  </g>
</svg>