<svg xmlns="http://www.w3.org/2000/svg" viewBox="0 0 200 200" width="200" height="200">
  <defs>
    <filter id="organic" x="-5%" y="-5%" width="110%" height="110%">
    <feTurbulence type="fractalNoise" baseFrequency="0.04" numOctaves="3" seed="1" result="noise"/>
    <feDisplacementMap in="SourceGraphic" in2="noise" scale="2" xChannelSelector="R" yChannelSelector="G"/>
  </filter>
  </defs>
  <g>
    <path d="M 92,105.03741874867197 Q 91,137.51870937433597 90.4,170 L 109.6,170 Q 109,137.51870937433597 108,105.03741874867197 Z" fill="#73aba3" filter="url(#organic)"/>
    <ellipse cx="100" cy="124.52619312407037" rx="12" ry="3.5999999999999996" fill="none" stroke="currentColor" stroke-width="1.5" opacity="0.6"/>
    <path d="M 60,105.03741874867197 L 58.56,114.63741874867196 M 63.47826086956522,105.03741874867197 L 62.16347826086957,114.63741874867196 M 66.95652173913044,105.03741874867197 L 65.76695652173913,114.63741874867196 M 70.43478260869566,105.03741874867197 L 69.3704347826087,114.63741874867196 M 73.91304347826087,105.03741874867197 L 72.97391304347826,114.63741874867196 M 77.3913043478261,105.03741874867197 L 76.57739130434783,114.63741874867196 M 80.86956521739131,105.03741874867197 L 80.18086956521739,114.63741874867196 M 84.34782608695653,105.03741874867197 L 83.78434782608697,114.63741874867196 M 87.82608695652173,105.03741874867197 L 87.38782608695652,114.63741874867196 M 91.30434782608695,105.03741874867197 L 90.99130434782609,114.63741874867196 M 94.78260869565219,105.03741874867197 L 94.59478260869567,114.63741874867196 M 98.2608695652174,105.03741874867197 L 98.19826086956523,114.63741874867196 M 101.73913043478261,105.03741874867197 L 101.80173913043478,114.63741874867196 M 105.21739130434783,105.03741874867197 L 105.40521739130435,114.63741874867196 M 108.69565217391306,105.03741874867197 L 109.00869565217393,114.63741874867196 M 112.17391304347827,105.03741874867197 L 112.61217391304348,114.63741874867196 M 115.65217391304347,105.03741874867197 L 116.21565217391303,114.63741874867196 M 119.13043478260869,105.03741874867197 L 119.81913043478261,114.63741874867196 M 122.6086956521739,105.03741874867197 L 123.42260869565217,114.63741874867196 M 126.08695652173913,105.03741874867197 L 127.02608695652174,114.63741874867196 M 129.56521739130437,105.03741874867197 L 130.62956521739133,114.63741874867196 M 133.04347826086956,105.03741874867197 L 134.23304347826087,114.63741874867196 M 136.5217391304348,105.03741874867197 L 137.83652173913046,114.63741874867196 M 140,105.03741874867197 L 141.44,114.63741874867196" stroke="#73aba3" stroke-width="0.8" fill="none" opacity="0.7"/>
    <path d="M 50,95.43741874867197 Q 65,105.03741874867197 100,100.23741874867197 Q 135,105.03741874867197 150,95.43741874867197" fill="#258651" filter="url(#organic)"/>
  </g>
</svg>