<svg xmlns="http://www.w3.org/2000/svg" viewBox="0 0 200 200" width="200" height="200">
  <defs>
    <filter id="organic" x="-5%" y="-5%" width="110%" height="110%">
    <feTurbulence type="fractalNoise" baseFrequency="0.04" numOctaves="3" seed="1" result="noise"/>
    <feDisplacementMap in="SourceGraphic" in2="noise" scale="2" xChannelSelector="R" yChannelSelector="G"/>
  </filter>
  </defs>
  <g>
    <path d="M 94.8,91.16912350788274 Q 93.8,130.5845617539414 93.76,170 L 106.24,170 Q 106.2,130.5845617539414 105.2,91.16912350788274 Z" fill="#979bc4" filter="url(#organic)"/>
    <ellipse cx="100" cy="114.81838645551792" rx="7.800000000000001" ry="2.3400000000000003" fill="none" stroke="currentColor" stroke-width="1.5" opacity="0.6"/>
    <path d="M 63.919999999999995,91.16912350788274 L 61.26499999999999,108.86912350788275 M 67.7178947368421,91.16912350788274 L 65.34236842105263,108.86912350788275 M 71.51578947368421,91.16912350788274 L 69.41973684210527,108.86912350788275 M 75.3136842105263,91.16912350788274 L 73.49710526315788,108.86912350788275 M 79.11157894736841,91.16912350788274 L 77.57447368421052,108.86912350788275 M 82.90947368421052,91.16912350788274 L 81.65184210526316,108.86912350788275 M 86.70736842105262,91.16912350788274 L 85.72921052631578,108.86912350788275 M 90.50526315789475,91.16912350788274 L 89.80657894736844,108.86912350788275 M 94.30315789473684,91.16912350788274 L 93.88394736842105,108.86912350788275 M 98.10105263157894,91.16912350788274 L 97.96131578947367,108.86912350788275 M 101.89894736842106,91.16912350788274 L 102.03868421052633,108.86912350788275 M 105.69684210526316,91.16912350788274 L 106.11605263157895,108.86912350788275 M 109.49473684210525,91.16912350788274 L 110.19342105263156,108.86912350788275 M 113.29263157894738,91.16912350788274 L 114.27078947368422,108.86912350788275 M 117.09052631578948,91.16912350788274 L 118.34815789473684,108.86912350788275 M 120.8884210526316,91.16912350788274 L 122.4255263157895,108.86912350788275 M 124.6863157894737,91.16912350788274 L 126.50289473684212,108.86912350788275 M 128.4842105263158,91.16912350788274 L 130.58026315789473,108.86912350788275 M 132.2821052631579,91.16912350788274 L 134.65763157894736,108.86912350788275 M 136.08,91.16912350788274 L 138.735,108.86912350788275" stroke="#979bc4" stroke-width="0.8" fill="none" opacity="0.7"/>
    <path d="M 54.89999999999999,91.16912350788274 Q 63.919999999999995,60.19412350788274 100,46.919123507882745 Q 136.08,60.19412350788274 145.10000000000002,91.16912350788274" fill="#3275b4" filter="url(#organic)"/>
    <circle cx="77.4" cy="60.2" r="3" fill="white" opacity="0.85"/>
    <circle cx="113.5" cy="55.8" r="2.5" fill="white" opacity="0.85"/>
    <circle cx="95.5" cy="53.6" r="2" fill="white" opacity="0.85"/>
    <circle cx="127.1" cy="64.6" r="2" fill="white" opacity="0.85"/>
    <circle cx="72.9" cy="69.0" r="1.5" fill="white" opacity="0.85"/>
    <circle cx="104.5" cy="69.0" r="2.5" fill="white" opacity="0.85"/>
  </g>
</svg>