<svg xmlns="http://www.w3.org/2000/svg" viewBox="0 0 200 200" width="200" height="200">
  <defs>
    <filter id="organic" x="-5%" y="-5%" width="110%" height="110%">
    <feTurbulence type="fractalNoise" baseFrequency="0.04" numOctaves="3" seed="1" result="noise"/>
    <feDisplacementMap in="SourceGraphic" in2="noise" scale="2" xChannelSelector="R" yChannelSelector="G"/>
  </filter>
  </defs>
  <g>
    <path d="M 92,78.06763753975241 Q 91,124.0338187698762 90.4,170 L 109.6,170 Q 109,124.0338187698762 108,78.06763753975241 Z" fill="#78a6bd" filter="url(#organic)"/>
    <ellipse cx="100" cy="105.64734627782668" rx="12" ry="3.5999999999999996" fill="none" stroke="currentColor" stroke-width="1.5" opacity="0.6"/>
    <path d="M 60,78.06763753975241 L 58.56,87.6676375397524 M 63.47826086956522,78.06763753975241 L 62.16347826086957,87.6676375397524 M 66.95652173913044,78.06763753975241 L 65.76695652173913,87.6676375397524 M 70.43478260869566,78.06763753975241 L 69.3704347826087,87.6676375397524 M 73.91304347826087,78.06763753975241 L 72.97391304347826,87.6676375397524 M 77.3913043478261,78.06763753975241 L 76.57739130434783,87.6676375397524 M 80.86956521739131,78.06763753975241 L 80.18086956521739,87.6676375397524 M 84.34782608695653,78.06763753975241 L 83.78434782608697,87.6676375397524 M 87.82608695652173,78.06763753975241 L 87.38782608695652,87.6676375397524 M 91.30434782608695,78.06763753975241 L 90.99130434782609,87.6676375397524 M 94.78260869565219,78.06763753975241 L 94.59478260869567,87.6676375397524 M 98.2608695652174,78.06763753975241 L 98.19826086956523,87.6676375397524 M 101.73913043478261,78.06763753975241 L 101.80173913043478,87.6676375397524 M 105.21739130434783,78.06763753975241 L 105.40521739130435,87.6676375397524 M 108.69565217391306,78.06763753975241 L 109.00869565217393,87.6676375397524 M 112.17391304347827,78.06763753975241 L 112.61217391304348,87.6676375397524 M 115.65217391304347,78.06763753975241 L 116.21565217391303,87.6676375397524 M 119.13043478260869,78.06763753975241 L 119.81913043478261,87.6676375397524 M 122.6086956521739,78.06763753975241 L 123.42260869565217,87.6676375397524 M 126.08695652173913,78.06763753975241 L 127.02608695652174,87.6676375397524 M 129.56521739130437,78.06763753975241 L 130.62956521739133,87.6676375397524 M 133.04347826086956,78.06763753975241 L 134.23304347826087,87.6676375397524 M 136.5217391304348,78.06763753975241 L 137.83652173913046,87.6676375397524 M 140,78.06763753975241 L 141.44,87.6676375397524" stroke="#78a6bd" stroke-width="0.8" fill="none" opacity="0.7"/>
    <path d="M 50,78.06763753975241 Q 50,70.86763753975241 100,68.46763753975242 Q 150,70.86763753975241 150,78.06763753975241" fill="#00858d" filter="url(#organic)"/>
  </g>
</svg>