<svg xmlns="http://www.w3.org/2000/svg" viewBox="0 0 200 200" width="200" height="200">
  <defs>
    <filter id="organic" x="-5%" y="-5%" width="110%" height="110%">
    <feTurbulence type="fractalNoise" baseFrequency="0.04" numOctaves="3" seed="1" result="noise"/>
    <feDisplacementMap in="SourceGraphic" in2="noise" scale="2" xChannelSelector="R" yChannelSelector="G"/>
  </filter>
  </defs>
  <g>
    <path d="M 92,64.56098138099935 Q 91,117.28049069049968 90.4,170 L 109.6,170 Q 109,117.28049069049968 108,64.56098138099935 Z" fill="#78a6bd" filter="url(#organic)"/>
    <ellipse cx="100" cy="96.19268696669954" rx="12" ry="3.5999999999999996" fill="none" stroke="currentColor" stroke-width="1.5" opacity="0.6"/>
    <path d="M 60,64.56098138099935 L 58.56,74.16098138099935 M 63.47826086956522,64.56098138099935 L 62.16347826086957,74.16098138099935 M 66.95652173913044,64.56098138099935 L 65.76695652173913,74.16098138099935 M 70.43478260869566,64.56098138099935 L 69.3704347826087,74.16098138099935 M 73.91304347826087,64.56098138099935 L 72.97391304347826,74.16098138099935 M 77.3913043478261,64.56098138099935 L 76.57739130434783,74.16098138099935 M 80.86956521739131,64.56098138099935 L 80.18086956521739,74.16098138099935 M 84.34782608695653,64.56098138099935 L 83.78434782608697,74.16098138099935 M 87.82608695652173,64.56098138099935 L 87.38782608695652,74.16098138099935 M 91.30434782608695,64.56098138099935 L 90.99130434782609,74.16098138099935 M 94.78260869565219,64.56098138099935 L 94.59478260869567,74.16098138099935 M 98.2608695652174,64.56098138099935 L 98.19826086956523,74.16098138099935 M 101.73913043478261,64.56098138099935 L 101.80173913043478,74.16098138099935 M 105.21739130434783,64.56098138099935 L 105.40521739130435,74.16098138099935 M 108.69565217391306,64.56098138099935 L 109.00869565217393,74.16098138099935 M 112.17391304347827,64.56098138099935 L 112.61217391304348,74.16098138099935 M 115.65217391304347,64.56098138099935 L 116.21565217391303,74.16098138099935 M 119.13043478260869,64.56098138099935 L 119.81913043478261,74.16098138099935 M 122.6086956521739,64.56098138099935 L 123.42260869565217,74.16098138099935 M 126.08695652173913,64.56098138099935 L 127.02608695652174,74.16098138099935 M 129.56521739130437,64.56098138099935 L 130.62956521739133,74.16098138099935 M 133.04347826086956,64.56098138099935 L 134.23304347826087,74.16098138099935 M 136.5217391304348,64.56098138099935 L 137.83652173913046,74.16098138099935 M 140,64.56098138099935 L 141.44,74.16098138099935" stroke="#78a6bd" stroke-width="0.8" fill="none" opacity="0.7"/>
    <path d="M 50,54.96098138099935 Q 65,64.56098138099935 100,59.760981380999354 Q 135,64.56098138099935 150,54.96098138099935" fill="#00858d" filter="url(#organic)"/>
  </g>
</svg>