<svg xmlns="http://www.w3.org/2000/svg" viewBox="0 0 200 200" width="200" height="200">
  <defs>
    <filter id="organic" x="-5%" y="-5%" width="110%" height="110%">
    <feTurbulence type="fractalNoise" baseFrequency="0.04" numOctaves="3" seed="1" result="noise"/>
    <feDisplacementMap in="SourceGraphic" in2="noise" scale="2" xChannelSelector="R" yChannelSelector="G"/>
  </filter>
  </defs>
  <g>
    <path d="M 95.6,114.84049731900147 Q 94.6,142.42024865950074 94.72,170 L 105.28,170 Q 105.4,142.42024865950074 104.4,114.84049731900147 Z" fill="#a7a074" filter="url(#organic)"/>
    <path d="M 67.84,114.84049731900147 L 66.319,124.98049731900147 M 72.128,114.84049731900147 L 70.8098,124.98049731900147 M 76.416,114.84049731900147 L 75.3006,124.98049731900147 M 80.70400000000001,114.84049731900147 L 79.79140000000001,124.98049731900147 M 84.992,114.84049731900147 L 84.2822,124.98049731900147 M 89.28,114.84049731900147 L 88.773,124.98049731900147 M 93.56800000000001,114.84049731900147 L 93.26380000000002,124.98049731900147 M 97.85600000000001,114.84049731900147 L 97.75460000000001,124.98049731900147 M 102.144,114.84049731900147 L 102.2454,124.98049731900147 M 106.43200000000002,114.84049731900147 L 106.73620000000001,124.98049731900147 M 110.72,114.84049731900147 L 111.227,124.98049731900147 M 115.00800000000001,114.84049731900147 L 115.71780000000001,124.98049731900147 M 119.29600000000002,114.84049731900147 L 120.20860000000002,124.98049731900147 M 123.584,114.84049731900147 L 124.6994,124.98049731900147 M 127.87200000000001,114.84049731900147 L 129.1902,124.98049731900147 M 132.16000000000003,114.84049731900147 L 133.681,124.98049731900147" stroke="#a7a074" stroke-width="0.8" fill="none" opacity="0.7"/>
    <path d="M 59.8,114.84049731900146 Q 67.84,97.09549731900147 100,89.49049731900146 Q 132.16,97.09549731900147 140.2,114.84049731900146" fill="#9d6300" filter="url(#organic)"/>
  </g>
</svg>