<svg xmlns="http://www.w3.org/2000/svg" viewBox="0 0 200 200" width="200" height="200">
  <defs>
    <filter id="organic" x="-5%" y="-5%" width="110%" height="110%">
    <feTurbulence type="fractalNoise" baseFrequency="0.04" numOctaves="3" seed="1" result="noise"/>
    <feDisplacementMap in="SourceGraphic" in2="noise" scale="2" xChannelSelector="R" yChannelSelector="G"/>
  </filter>
  </defs>
  <g>
    <path d="M 96.4,94.42337061312799 Q 95.4,132.211685306564 95.68,170 L 104.32,170 Q 104.6,132.211685306564 103.6,94.42337061312799 Z" fill="#84a98b" filter="url(#organic)"/>
    <ellipse cx="100" cy="117.09635942918959" rx="5.4" ry="1.62" fill="none" stroke="currentColor" stroke-width="1.5" opacity="0.6"/>
    <path d="M 71.75999999999999,94.42337061312799 L 70.32,104.02337061312798 M 76.89454545454545,94.42337061312799 L 75.71636363636364,104.02337061312798 M 82.0290909090909,94.42337061312799 L 81.11272727272726,104.02337061312798 M 87.16363636363636,94.42337061312799 L 86.5090909090909,104.02337061312798 M 92.29818181818182,94.42337061312799 L 91.90545454545455,104.02337061312798 M 97.43272727272726,94.42337061312799 L 97.30181818181818,104.02337061312798 M 102.56727272727272,94.42337061312799 L 102.69818181818181,104.02337061312798 M 107.70181818181817,94.42337061312799 L 108.09454545454544,104.02337061312798 M 112.83636363636364,94.42337061312799 L 113.4909090909091,104.02337061312798 M 117.97090909090909,94.42337061312799 L 118.88727272727273,104.02337061312798 M 123.10545454545453,94.42337061312799 L 124.28363636363635,104.02337061312798 M 128.24,94.42337061312799 L 129.68,104.02337061312798" stroke="#84a98b" stroke-width="0.8" fill="none" opacity="0.7"/>
    <path d="M 64.69999999999999,94.42337061312799 Q 64.69999999999999,87.22337061312798 100,84.82337061312799 Q 135.3,87.22337061312798 135.3,94.42337061312799" fill="#697b1a" filter="url(#organic)"/>
  </g>
</svg>