<?xml version="1.0" encoding="UTF-8"?><svg id="b" xmlns="http://www.w3.org/2000/svg" viewBox="0 0 577.31 147.13"><defs><style>.f{fill:#fcbb7b;}.g{fill:#d35347;}.h{fill:#b1362b;}.i{fill:#d76544;}.j{fill:#3f5686;}.k{fill:#274071;}.l{fill:#3d323f;}.m{fill:#f5b993;}.n{fill:#e5ded4;}.o{fill:#262f68;}.p{fill:#cfbca1;}.q{fill:#d15027;}.r{fill:#fcd3ab;}.s{fill:#b1a087;}.t{fill:#747cb0;}.u{fill:#747cb1;}.v{fill:#f68d45;}.w{fill:#6172a3;}.x{fill:#313c7b;}.y{fill:#5d6399;}.z{fill:#ee9a6d;}.aa{fill:#fff;}.ab{fill:#b5c5e5;}.ac{fill:#f68b41;}.ad{fill:#9dafd5;}.ae{fill:#1a1e4b;}.af{fill:#fcbb7a;}.ag{fill:#c5432c;}.ah{fill:#e7692c;}.ai{fill:#f6a66b;}.aj{fill:#9daed5;}.ak{fill:#a89077;}.al{fill:#7d92bd;}.am{fill:#c83427;}.an{fill:#f36e25;}.ao{fill:#e17951;}.ap{fill:#d45347;}.aq{fill:#b52b25;}.ar{fill:#3e5687;}.as{fill:#d7615e;}.at{fill:#9c8269;}.au{fill:#f5b992;}</style></defs><g id="c"><g id="d"><path class="ac" d="M111.44,119.57c-25.47-4.32-52.11-12.7-74.95-24.63-5.93-3.1-11.72-6.38-17.03-10.48-.98,1.76.53,2.58,1.57,3.67,11.89,12.32,45.57,27.53,62.11,32.49l-.52.52c-26.15-8.81-50.39-14.88-72.33-33.02-.53-2.18-2.75-3.16-3.14-5.5-.06-.37,1.04-.14,1.05-.52.12-6.52,1.67-2.55,2.62-3.67.16-.19-.15-4.39.26-4.98,2.39-2.42,8.43,3.83,8.91,3.67.4-.14-.02-2.2,1.57-2.1.28.02,3.53,3.65,4.19,3.67.82.02-1.42-2.61,1.05-2.1l3.67,3.67c2.17-.52-.75-1.2-.26-1.83,1.19-1.55,6.17,4.78,7.08,6.03l-1.05-4.19c4.49,1.46,6.5,4.69,8.91,8.39,1.07-7.66,4.73,1.95,6.29,4.72,2.22-1.38-4.59-9.3-2.1-9.43l6.29,10.48c-1.37-10.8,5.09,2.65,7.34,5.24l-3.93-7.6c.33-5.22,11.8,12.48,11.79,12.84-4.04-9.04-5.68-15.44,1.83-2.36,1.76-1.07-4.21-6.42-1.31-6.55.86-.04,6.95,10.36,8.65,11.27l-6.55-11.27,6.81,7.86-1.57-5.24,8.91,9.96-7.34-11.01c5.12,3.9,8.93,8.92,12.58,14.15,1.01-2.85-7.75-10.46-7.6-11.27.2-1.06.3-.84,1.31-.79l11.01,12.58c2.29-1.87-4.53-5.36-2.62-7.34l11.53,12.05-10.48-13.1,15.46,15.72Z"/><path class="n" d="M451.58,73.45l5.77,1.57c-10.11.27-24.12-.07-33.8,1.57-25.83,4.38-61.37,21.83-88.57,29.35-17.77,4.91-36.61,8.82-54.77,12.05-76.69,13.64-158.96,16.11-231.39-15.72-3.8-1.67-10.21-4.18-12.32-7.34,22.84,11.93,49.48,20.31,74.95,24.63.5.08,1.07-.08,1.57,0,1.51.24,3.18.81,4.72,1.05.17.03.35-.02.52,0,1.73.25,3.48.61,5.24.52-.03.8.7.41,1.05.52.66.22,3.46.27,4.72.52.65.13,1.44-.11,2.1,0,1.28.22,2.38.36,3.67.52.5.06.55.47,1.05.52,1,.12,2.98-.12,4.19,0,.34.03.71-.03,1.05,0,1.75.16,3.46.39,5.24.52,3.1.23,6.32.37,9.43.52,1.39.07,2.8-.05,4.19,0,1.04.04,2.18-.03,3.14,0,1.18.04,2.58.49,4.19.52.87.02,1.75-.02,2.62,0,1.57.03,3.15-.01,4.72,0s3.15,0,4.72,0c1.92-.01,3.85.02,5.77,0,2.1-.02,4.79.01,6.81-.52.67.09,1.41-.04,2.1,0,1.03.07,2.11-.02,3.14,0,2.67.06,4.82-.45,7.34-.52.87-.02,1.75.03,2.62,0,10.92-.42,22.17-1.36,33.02-2.62.46-.05,1.11-.4,2.1-.52,7.37-.9,14.69-1.97,22.01-3.14,20.98-3.36,41.77-8,62.37-13.1,2.53,0,8.3-2.33,11.01-3.14,1.4-.42,3.54-.44,4.72-1.57.17,0,.35,0,.52,0,.68-.02,1.72-.38,2.62-.52.71-.12.49-.52.52-.52.84-.16,1.48-.5,1.57-.52.74-.17,1.38-.34,2.1-.52,1.06-.27.99-.51,1.05-.52.69-.19,1.38-.32,2.1-.52,1.02-.29,1.93-.84,2.62-1.05,2.32-.7,4.51-1.34,6.81-2.1,6.02-1.97,11.87-4.18,17.82-6.29.5-.18,1.05-.34,1.57-.52,1.89-.67,4.07-.93,5.77-2.1,1.28.05,1.49-.43,2.1-.52,9.47-1.41,20.88-8.45,30.92-9.43,10.29-.46,20.62-.76,30.92-1.05Z"/><path class="as" d="M270.24,124.82c-.15,1.85-1.44,4.41-2.62,5.77-.69.79-1.79,2.13-2.62,2.62-3.45,2.04-11.29,2.92-15.2,4.98l15.2-3.93c.12.67.11.95.52,1.57-.37.17-.68.36-1.05.52-2.1.94-4.43,1.46-6.29,2.88.87.43,4.68-.48,5.24-.79l.52,2.1v.52c-1.75.63-5.79,2.08-6.81,3.67-30.35,3.55-59.36,3.13-89.62-1.05.7-1.71,3.55-2.64,5.24-3.14l40.62-7.86c-8.59,4.86-18.58,6.55-28.04,8.91-1.75.44-3.56.62-5.24,1.31,4.22,2.19,6.71,1.25,11.01.79,8.1-.14,17.53-2.43,25.42-4.72,9.18-2.66,17.7-7.39,26.73-9.43l.52,1.05c-9.2,4.86-19.88,8.01-28.83,12.05,13.34-3.43,26.79-8.24,38.52-15.72,5.58-.72,11.2-1.27,16.77-2.1Z"/><path class="s" d="M457.35,75.03c4.35-.12,8.75.04,13.1,0,.24,2.11-.42,1.42-1.83,1.57-4.32.46-9.65-.13-14.15,0-.96.03-2.59-.52-2.36,1.05-11.01.33-21.33-.96-30.92,4.19-12.6,4.41-25.11,9.21-37.74,13.63-1.21.42-2.43,1.14-3.67,1.57-1.18.41-2.49.65-3.67,1.05-.52.18-1.05.35-1.57.52-1.22.41-2.78,1.27-3.67,1.57-.5.17-1.28.25-2.1.52-.9.3-1.79.77-2.62,1.05-.52.17-1.06.35-1.57.52-.72.24-2.74.22-3.67.52-1.04.34-2.09.71-3.14,1.05-.43.14-.61.38-1.05.52-.98.32-1.76.77-2.62,1.05-1.19.38-3.22.57-4.72,1.05-.64.2-1.46.32-2.1.52-.6.19-1.73.93-2.1,1.05-.53.17-1.06.35-1.57.52-.41.14-1.17-.14-1.57,0-1.98.67-3.82,1.33-5.77,2.1-.37.14-1.24-.15-1.57,0-1.27.57-1.98.6-3.14,1.57-.35,0-.7-.02-1.05,0-1.38.08-3.27.69-4.72,1.05-1.58.39-3.15.68-4.72,1.05-1.39.33-2.78.72-4.19,1.05-.17.04-.36-.04-.52,0-1.91.44-3.84,1.11-5.77,1.57-1.28.31-2.44.73-3.67,1.05-1.51.39-3.43.54-5.24,1.05-.68.19-1.79.27-2.62.52-1.42.43-2.69.25-4.72,1.05-2.08.18-4.82.54-6.81,1.05-1.72.44-3.07.88-4.72,1.57-1.24-1.04-1.38-.09-2.1,0l-.52-5.24c18.16-3.23,37-7.14,54.77-12.05,27.2-7.52,62.74-24.97,88.57-29.35,9.68-1.64,23.69-1.3,33.8-1.57Z"/><path class="am" d="M253.47,126.91c-11.73,7.48-25.18,12.3-38.52,15.72,8.94-4.04,19.63-7.19,28.83-12.05l-.52-1.05c-9.03,2.05-17.55,6.77-26.73,9.43-7.89,2.29-17.31,4.58-25.42,4.72,4.47-.48,35.06-8.34,36.95-10.48.67-.76.18-1.59-.52-2.1l-42.19,10.48c9.46-2.36,19.45-4.05,28.04-8.91l-40.62,7.86c.67-.2,11.38-1.77,9.7-2.62-1.26-.63-5.56,1.68-6.81,1.05-2.09-1.06,14.62-3.31,13.63-5.77-10.1,2.4-22.07,5.94-32.49,6.29-.56.02-4.49.62-3.67-1.05l22.01-3.67-24.11,3.14,7.08-1.83c-3.02-.62-2.99.66-3.93-2.36l-34.59-1.57,2.36,2.1c-13.44-3.63-26.18-8.68-39.31-13.1l.52-.52c53.21,15.96,115.68,13.37,170.33,6.29Z"/><path class="w" d="M342.05,118c3.17.7-1.37,3.08,1.83,2.1,2.1,1.8-2.32,3.11-4.45,4.19-20.65,10.46-59.01,17.72-82.28,20.44,1.02-1.58,5.07-3.03,6.81-3.67,15.32-5.57,30.49-12.11,42.98-23.06,1.22-.32,2.39-.74,3.67-1.05-8.28,9.41-19.32,15.91-30.66,20.96,13.28-3.46,25.35-13.84,36.43-22.54.17-.04.36.04.52,0l-22.01,18.08c6.54-2.75,13.78-7.72,19.39-12.32l2.1,2.1-4.98,5.24,19.13-16.25c.35-.02.7,0,1.05,0-1.44,1.21-3.3,5.62-5.5,6.81l-11.01,8.91,11.53-7.86,8.12-9.43c.33-.15,1.2.14,1.57,0,1.2,3.71-11.5,13.19-11.01,14.15,1.3,2.55,7.86-2.81,9.43-4.19,4.67-2.92,8.31-7.58,10.48-12.58.36-.12,1.5-.85,2.1-1.05-.9,4.6-4.63,9.01-7.86,12.32-.26,2,2.79-.79,2.62-1.31Z"/><path class="ab" d="M294.88,82.89c-.25,2.36,1,4.39-1.57,5.24-3.19-.41-6.59-.19-9.7-1.05-.87,1.64,1.63.93,2.36,1.05-.1,1.91-.37,2.95-2.1,3.67-1.1,0-4.64-.41-5.24.52-2.23,3.49,7.22,1.48,8.39,3.67-5.17-.79-10.62-1.42-15.72-1.83l-.26,1.83,35.64,6.29c.6.62-.65,2.49-1.05,2.62-2.37.79-25.27-6.54-29.87-5.77,4.72,2.75,12.6,2.26,17.82,4.19.1.04,2.21,1.03,1.57,1.57-4.33-.03-18.32-5.3-21.49-4.72-.36.07-1.39,1.79-2.36,1.83l22.8,7.08-34.33-5.77c-1.38-1.45-2.96-2.25-4.72-3.14-1.49-.76-2.43-1.72-4.19-2.1v-.52c6.17.62,12.56.4,18.61,2.1-1.91-2.28-8.83-3.05-12.32-3.67.15-1.22-.18-.93-1.05-1.05l.52-1.83c-5.87-3.53-12.24-2.58-18.87-3.67,0-.86,15.65-1.28,16.77-3.41,13.41-.81,26.9-2.29,40.36-3.14Z"/><path class="r" d="M254.52,86.03c-1.12,2.13-16.77,2.54-16.77,3.41,6.63,1.09,13,.14,18.87,3.67l-.52,1.83c-10.71-1.44-27.75-4.66-38-4.19-.86.04-1.8-.17-1.05,1.05,13.36,1.24,26.88,1.85,40.09,4.19,3.48.62,10.41,1.39,12.32,3.67-6.04-1.7-12.44-1.48-18.61-2.1-9.52-.96-19.14-2.87-28.83-2.88,8.83,2.9,20.13,1.56,28.83,3.41,1.77.37,2.71,1.34,4.19,2.1,1.33,1.64-2.63,1.09-2.88,1.05-17.74-2.7-37.19-5.14-55.82-8.39-3.36-.58-12.11,1.1-12.05-3.67,23.38-.48,46.92-1.74,70.23-3.14Z"/><path class="aj" d="M329.99,80.27c1.12,3.27-.71,2.78-3.14,4.19-.26.15-1.93-.35-1.31.52,2.57-.46,4.45,2.51,4.72,2.62.1.04.87-1.04,2.1-.52,1.71.72,3.31,1.92,5.24,2.1,3.96,4.31-13.54-3.42-13.1-1.57l7.08,2.36c-6.43,1.53-15.03-4.6-21.23-2.88,1.25.4,14.77,2.49,13.63,3.67-7.86,3.1-16.8-3.2-25.42-1.31,7.7,1.19,15.44,2.35,23.06,3.93.63.13,1.38.38,2.1.52l-1.31,3.14-29.87-4.72c-.4,2.07,11.43.97,7.86,3.14-.21.13-3.82-1.34-4.72-1.05-.93.84,1.17,1.46,1.57,1.57,1.94.55,13.37,1.34,14.15,2.1l-.79,2.62c-7.8-1.47-15.75-3.52-23.58-4.72-1.17-2.19-10.61-.18-8.39-3.67l12.84,1.05c-.67-1.42-6.24-1.57-7.6-1.57,1.73-.72,2-1.76,2.1-3.67,3.92.62,7.91.73,11.79,1.57.55-1.54-3.82-1.49-4.45-1.57,2.57-.85,1.33-2.88,1.57-5.24,11.69-.74,23.41-1.89,35.11-2.62Z"/><path class="at" d="M533.87,76.6c13.57.81,26.61,2.17,38.52,2.62.2,0,1.63,1.57,3.41.79l-1.05-2.88c3.59,1.48,3.14,4.25.26,6.29-40.74-4.33-81.86-7.01-122.9-5.77-.23-1.57,1.4-1.02,2.36-1.05,4.5-.13,9.83.46,14.15,0,1.42-.15,2.08.53,1.83-1.57,21.26-.19,42.22.31,63.42,1.57Z"/><path class="j" d="M368.25,112.24c-9.34,4.47-18.63,9.64-28.83,12.05,2.14-1.08,6.56-2.39,4.45-4.19-3.21.99,1.34-1.39-1.83-2.1l7.34-11.53c1.5-.48,3.52-.67,4.72-1.05l-9.17,13.63,11.79-14.67c.43-.14.61-.38,1.05-.52-.23,4.93-6.18,7.47-7.08,12.05l10.22-13.1c.93-.31,2.95-.29,3.67-.52l-7.6,12.05c3.78-3.57,7.31-7.67,9.17-12.58.83-.28,1.72-.74,2.62-1.05l-8.65,14.15c4.24-4.37,8.13-9.17,10.74-14.67.89-.3,2.45-1.16,3.67-1.57-.16,5.22-4.43,9.02-6.29,13.63Z"/><path class="g" d="M172.76,140.54c-1.69.5-4.54,1.43-5.24,3.14-15.38-2.12-30.64-5.4-45.6-9.43l-2.36-2.1,34.59,1.57c.94,3.02.91,1.74,3.93,2.36l-7.08,1.83,24.11-3.14-22.01,3.67c-.82,1.67,3.11,1.07,3.67,1.05,10.42-.35,22.39-3.89,32.49-6.29.99,2.46-15.72,4.7-13.63,5.77,1.25.64,5.56-1.68,6.81-1.05,1.69.85-9.02,2.42-9.7,2.62Z"/><path class="w" d="M420.66,74.5c-10.04.98-21.45,8.03-30.92,9.43-3.55-1.15-7.34-2.47-11.01-3.14-1.59-.29-8.29-1.83-7.08,0l6.03,1.31-3.67,1.31c-1.23-.37-2.1-1.84-3.14-.26,1.59.08,2.01.7,3.14,1.31-2.99,3.13-8.99-1-13.1-2.1,1.74-3.87,7.93.25,8.39-5.24,17.11-1.05,34.25-1.86,51.36-2.62Z"/><path class="k" d="M421.19,81.84c-17.76,9.54-33.05,20.75-51.89,29.87,1.88-4.35,7.02-8.56,6.81-13.63,1.18-.4,2.49-.64,3.67-1.05l-2.36,8.91c2.07-4.05,6.73-5.26,6.03-10.48,12.63-4.42,25.13-9.21,37.74-13.63Z"/><path class="f" d="M54.32,76.07c-1.8.52-1.44,2.91-1.83,3.14-.11.07-1.51-1.5-2.1-1.57-1.75-.2-1.28,1.11-1.57,1.05-.19-.04-2.11-1.78-3.14-2.1-1.5-.46-1.38,1.11-1.57,1.05-.28-.09-3.79-3.7-4.72-3.67-.99.04-1.2,1.79-2.1,2.1-.27.09-3.75-2.81-4.72-3.14-.61-.21-3.92.09-4.19,0-.25-.08-3.65-3.06-4.19-3.14-3.2-.51-6.87,2.46-7.86,2.62-.22.04-3.44-2.6-3.67-2.62-.99-.09-1.97,1.55-2.1,1.57-.3.06-.09-1.38-1.05-1.05-2.3.8-1.47,3.59-4.98,2.36-.73,3.19,1.02,3.94,1.05,4.19.02.14-1.29,1.47-1.05,2.62.13.63,3.14.83,1.05,4.45-4.18-4.48-9.15-10.92-1.83-15.72,10.65-6.99,38.51,4.77,50.58,7.86Z"/><path class="s" d="M535.96,73.45c-2.13.96-2.37.32-2.1,3.14-21.2-1.26-42.16-1.76-63.42-1.57-4.36.04-8.75-.12-13.1,0l-5.77-1.57c28.09-.78,56.07-1.59,84.38,0Z"/><path class="al" d="M360.91,82.36c-1.51-.4-7.84-2.41-7.86-.26,0,.27,4.85,2.06.79,2.88-1.99.4-6.83-2.47-8.91-3.14-1.89.74,1.73,1.52,1.83,1.57-1.19,2.62-3.94-.99-5.77-.26,1.05,1.4,2.9,1.37,4.19,1.83-1.16,5.26-9.15-1.89-12.84-1.05,18.71,7.79,1.83,4.06-5.5.52,2.44-1.42,4.27-.92,3.14-4.19,13.09-.82,26.22-2.35,39.31-3.14-.46,5.49-6.64,1.37-8.39,5.24Z"/><path class="ak" d="M574.75,77.12l1.05,2.88c-1.78.78-3.2-.78-3.41-.79-11.91-.45-24.96-1.82-38.52-2.62-.27-2.82-.04-2.18,2.1-3.14,7.82.44,32.86,1.22,38.78,3.67Z"/><path class="ae" d="M369.3,111.71c-.33.16-.69.35-1.05.52,1.86-4.6,6.12-8.41,6.29-13.63.52-.18,1.05-.35,1.57-.52.2,5.07-4.93,9.28-6.81,13.63Z"/><path class="ac" d="M99.91,95.47c3.46,4.09,8.81,4.2,12.84,8.39,4.19-4.39-8.03-7.34-11.79-9.43-.85-.47-1.76-.85-2.62-1.31.25-2.09,11.68,4.68,12.32,4.98.05.02.49-.79,1.05-.52,8.65,4.06,16.56,10.66,26.21,12.58,3.18-1.72-16.9-9.42-17.82-9.96.23-2.53,4.44,1.28,5.24,1.57,5.72,2.1,13.34,4.52,19.39,7.34.72.33,2.52,1.08,2.36,2.1-.67-.21-1.28-1.03-2.1-.26-.35,1.4,23.97,10.49,25.16,13.89-.87-.02-1.75.02-2.62,0l-20.18-11.53,15.99,11.01c-.97-.03-2.1.04-3.14,0l-24.37-13.63,20.18,13.63c-3.11-.15-6.33-.29-9.43-.52l-24.37-17.3,19.92,15.2-.79,1.57c-.34-.03-.71.03-1.05,0l-23.85-17.3,19.65,17.3c-.5-.06-.55-.46-1.05-.52-5.49-4.87-12.04-11.81-18.87-14.67-.08-.03-.67-1.75-1.57-.79.3.81,1.51.73,1.57.79,5.1,4.67,10.57,8.99,15.2,14.15-.66-.11-1.44.13-2.1,0-5.06-5.68-10.98-10.02-16.77-14.67-2.5-2.01-5.49-3.87-8.12-5.77-1.37-.99.53-1.45-1.05-2.62-3.31-2.45-8.89-4.21-12.58-6.29-.64-1.33-.19-.95.79-.79,2.21.37,5.63,3.63,8.39,3.41Z"/><path class="ac" d="M188.49,113.81l24.89,7.86-30.4-7.86,24.37,9.96c-.87.03-1.75-.02-2.62,0l-28.56-9.96,21.23,10.48c-1.04-.02-2.11.07-3.14,0l-30.14-12.05-.52,1.05c8.66,2.44,20.1,9.87,28.56,11.01-2.02.54-4.71.5-6.81.52l-29.09-12.05,23.32,12.05c-1.57,0-3.15.01-4.72,0,.13-1.51-1.29-1.6-2.36-2.1-7.54-3.52-17.35-8.84-24.89-11.53l2.62-2.36-8.12-2.88c1.24-1.03,4.28-.25,5.24,0,.89.23,4.24,2.31,5.24,2.62,2.99.92,6.67.75,9.43,2.62,3.05-1.14-1.15-3.49,3.67-3.67.27-.01,3.59,1.97,4.19,2.1,6.04,1.28,12.61,1.7,18.34,3.14.45.11.21,1.04.26,1.05Z"/><path class="ah" d="M263.96,114.33c.05.43,1.02,2.09.52,3.14-7.32,1.17-14.64,2.25-22.01,3.14l-33.28-8.91c-.32-1.34,2.08-.6,2.62-.52,5.42.74,11.31,4.46,16.51,1.83-.16-.81-7.86-.79-5.5-2.88.4.63.72.48,1.31.52,10.78.82,23.23,6.98,34.33,6.81-6.54-3.75-14.96-4.86-22.27-6.81-.08-1.34.66-1.61,1.83-1.57,2.81.08,24.8,8.37,25.42,7.08-4.87-2.59-11.51-2.97-15.99-6.03l16.51,4.19Z"/><path class="ai" d="M236.18,110.66c7.31,1.95,15.73,3.06,22.27,6.81-11.1.16-23.55-5.99-34.33-6.81l-6.55-2.1.79-2.62c6.02,1.25,11.89,3.14,17.82,4.72Z"/><path class="f" d="M215.21,101.23l5.24,2.36c-8.89-.9-15.1-1.6-23.32-2.36-.41-.04-.12-1.02-.52-1.05-1.63-.1-3.21.92-4.98.52l-1.05-2.62c8.76.61,16.04,1.58,24.63,3.14Z"/><path class="ah" d="M147.08,111.19c.16.05.37-.06.52,0,7.55,2.69,17.36,8.01,24.89,11.53,1.07.5,2.49.59,2.36,2.1-1.57-.01-3.15.03-4.72,0-1.19-3.4-25.51-12.48-25.16-13.89.81-.77,1.42.05,2.1.26Z"/><path class="r" d="M203.68,98.09c8.07.97,17.57,3.16,24.89,5.77-4.48-.45-8.89-1.8-13.36-2.62-8.6-1.57-15.88-2.53-24.63-3.14-5.14-.36-10.36-.37-15.46-1.05,9.58-.13,19.07-.09,28.56,1.05Z"/><path class="f" d="M99.91,95.47l1.05-1.05c3.76,2.09,15.98,5.04,11.79,9.43-4.03-4.18-9.38-4.29-12.84-8.39Z"/><path class="ah" d="M129.26,122.19c-1.25-.25-4.05-.3-4.72-.52l-12.05-14.15c5.79,4.66,11.71,8.99,16.77,14.67Z"/><path class="f" d="M54.32,76.07c45.41,11.63,83.08,14.07,129.98,13.1-.05,4.76,8.7,3.08,12.05,3.67-1.92,4.73,7.36,1.11,10.22,3.67l-2.88,1.57c-9.49-1.14-18.99-1.18-28.56-1.05,5.1.68,10.32.69,15.46,1.05l1.05,2.62,26.73,5.24-.79,2.62,6.55,2.1c-.59-.04-.91.11-1.31-.52-2.36,2.09,5.34,2.07,5.5,2.88-5.2,2.63-11.09-1.09-16.51-1.83-.54-.07-2.94-.81-2.62.52l33.28,8.91c-.99.12-1.63.47-2.1.52l-42.71-10.48,33.02,10.48-31.97-7.34,23.06,7.34c.04.88-2.69.6-3.14.52-8.7-1.41-21.06-5.59-30.14-7.86-.05-.01.19-.93-.26-1.05-5.73-1.44-12.31-1.86-18.34-3.14-.61-.13-3.92-2.11-4.19-2.1-4.82.18-.62,2.53-3.67,3.67-2.76-1.87-6.44-1.7-9.43-2.62-1-.31-4.35-2.39-5.24-2.62-.96-.25-4-1.03-5.24,0l8.12,2.88-2.62,2.36c-.15-.06-.36.05-.52,0,.16-1.01-1.64-1.76-2.36-2.1-6.06-2.82-13.67-5.24-19.39-7.34-.8-.29-5.01-4.11-5.24-1.57.92.54,21,8.24,17.82,9.96-9.64-1.92-17.55-8.52-26.21-12.58-.56-.26-1,.55-1.05.52-.64-.29-12.06-7.06-12.32-4.98.86.46,1.77.84,2.62,1.31l-1.05,1.05c-2.75.22-6.17-3.04-8.39-3.41-.98-.16-1.42-.55-.79.79,3.69,2.08,9.27,3.84,12.58,6.29,1.57,1.17-.32,1.63,1.05,2.62,2.63,1.9,5.62,3.75,8.12,5.77l12.05,14.15c-.35-.12-1.08.28-1.05-.52l-18.08-15.2,12.84,14.67c-.17-.02-.35.03-.52,0l-18.61-16.77,13.89,15.72c-.5-.08-1.07.08-1.57,0l-15.46-15.72,10.48,13.1-11.53-12.05c-1.91,1.98,4.91,5.47,2.62,7.34l-11.01-12.58c-1.01-.06-1.11-.27-1.31.79-.15.81,8.61,8.41,7.6,11.27-3.65-5.23-7.46-10.25-12.58-14.15l7.34,11.01-8.91-9.96,1.57,5.24-6.81-7.86,6.55,11.27c-1.7-.91-7.78-11.31-8.65-11.27-2.9.13,3.07,5.48,1.31,6.55-7.52-13.08-5.87-6.68-1.83,2.36,0-.37-11.46-18.06-11.79-12.84l3.93,7.6c-2.25-2.6-8.7-16.04-7.34-5.24l-6.29-10.48c-2.49.13,4.32,8.05,2.1,9.43-1.56-2.77-5.22-12.38-6.29-4.72-2.4-3.69-4.42-6.93-8.91-8.39l1.05,4.19c-.9-1.25-5.88-7.58-7.08-6.03-.49.63,2.44,1.31.26,1.83l-3.67-3.67c-2.47-.51-.23,2.12-1.05,2.1-.67-.02-3.91-3.65-4.19-3.67-1.6-.1-1.17,1.96-1.57,2.1-.48.16-6.52-6.09-8.91-3.67-.41.59-.1,4.79-.26,4.98-.95,1.12-2.5-2.85-2.62,3.67,0,.38-1.11.16-1.05.52.4,2.34,2.61,3.33,3.14,5.5-1.89-1.56-2.97-2.32-4.72-4.19,2.1-3.63-.91-3.82-1.05-4.45-.25-1.15,1.06-2.48,1.05-2.62-.03-.25-1.78-1-1.05-4.19,3.51,1.23,2.68-1.56,4.98-2.36.96-.33.75,1.11,1.05,1.05.13-.03,1.1-1.67,2.1-1.57.22.02,3.45,2.66,3.67,2.62.99-.16,4.66-3.13,7.86-2.62.54.09,3.94,3.06,4.19,3.14.27.09,3.58-.21,4.19,0,.97.33,4.45,3.24,4.72,3.14.9-.31,1.11-2.06,2.1-2.1.93-.03,4.43,3.58,4.72,3.67.19.06.07-1.51,1.57-1.05,1.04.32,2.96,2.06,3.14,2.1.29.06-.18-1.25,1.57-1.05.59.07,1.98,1.64,2.1,1.57.4-.24.03-2.62,1.83-3.14Z"/><path class="ah" d="M240.37,121.15c-10.85,1.26-22.1,2.2-33.02,2.62l-24.37-9.96,30.4,7.86-24.89-7.86c9.07,2.27,21.44,6.45,30.14,7.86.45.07,3.18.35,3.14-.52l-23.06-7.34,31.97,7.34-33.02-10.48,42.71,10.48Z"/><path class="ah" d="M123.5,121.15c-1.76.09-3.51-.28-5.24-.52l-12.84-14.67,18.08,15.2Z"/><path class="ah" d="M117.73,120.62c-1.54-.23-3.2-.81-4.72-1.05l-13.89-15.72,18.61,16.77Z"/><polygon class="ah" points="96.51 102.28 97.29 102.54 97.03 103.33 96.77 103.06 96.51 102.28"/><path class="p" d="M36.5,94.94c2.1,3.16,8.52,5.67,12.32,7.34,72.43,31.83,154.7,29.36,231.39,15.72l.52,5.24c-3.52.44-6.98,1.05-10.48,1.57-5.57.83-11.19,1.37-16.77,2.1-54.65,7.09-117.12,9.68-170.33-6.29-16.54-4.96-50.21-20.17-62.11-32.49-1.05-1.09-2.56-1.91-1.57-3.67,5.31,4.1,11.1,7.38,17.03,10.48Z"/><path class="j" d="M345.19,84.98c3.25,1.17,4.33,1.72,7.34,3.14.84,2.98,8.05,3.06,4.45,6.29-1.59.4-7.4-6.07-9.7-3.93l8.39,4.98c-.69.21-1.61.76-2.62,1.05l-8.65-4.72,6.55,5.24c-.06.02.01.25-1.05.52l-7.6-3.67,5.5,4.19c-.09.02-.73.36-1.57.52-2.11-1.62-4.34-2.3-6.81-3.14-.12-.04.22-2.22-1.57-.26.11.53,1.38.11,1.57.26,2.02,1.55,3.99,2.6,6.29,3.67-.9.15-1.94.5-2.62.52-2.1-.43-7.52-4.42-8.65-2.1,3.1.89,4.69,1.99,8.12,2.1-1.18,1.13-3.32,1.15-4.72,1.57l-8.12-2.62c-2.18,1.92,4.03,1.98,4.98,2.88-.08.51-9.19,2.01-9.96,0,3.24-.28,1.34-1.04,1.57-1.31.13-.14,2.29.47,1.31-1.05l-26.21-4.72c2.09,2.38,7.53,2,10.74,2.62.09,2.57,6.11,2.01,7.86,2.62l-4.19,1.31,2.36,1.31c-2.52-.68-5.04-1.09-7.6-1.57l.79-2.62c-.78-.75-12.21-1.54-14.15-2.1-.4-.11-2.5-.73-1.57-1.57.9-.29,4.51,1.17,4.72,1.05,3.57-2.18-8.26-1.07-7.86-3.14l29.87,4.72,1.31-3.14c1.54.31,4.19,2.31,5.77.79-1.99-.15-6.65-3.68-7.86-1.31-7.62-1.58-15.36-2.74-23.06-3.93,8.62-1.89,17.56,4.41,25.42,1.31,1.14-1.18-12.38-3.27-13.63-3.67,6.2-1.72,14.8,4.41,21.23,2.88l-7.08-2.36c-.44-1.85,17.06,5.89,13.1,1.57-1.93-.18-3.53-1.37-5.24-2.1-1.22-.52-2,.56-2.1.52-.26-.11-2.14-3.08-4.72-2.62-.62-.87,1.05-.38,1.31-.52,7.34,3.53,24.21,7.26,5.5-.52,3.69-.84,11.68,6.31,12.84,1.05Z"/><path class="k" d="M360.91,82.36c4.11,1.1,10.12,5.23,13.1,2.1,1.96,1.05,4.18,1.91,6.29,2.62-5.95,2.11-11.8,4.32-17.82,6.29-2.15-.38-3.56-2.19-5.24-3.14,4.51-1.2-8.6-5.84-10.48-6.81-.11-.06-3.72-.83-1.83-1.57,2.08.68,6.92,3.55,8.91,3.14,4.07-.82-.79-2.62-.79-2.88.02-2.15,6.35-.14,7.86.26Z"/><path class="ah" d="M185.34,124.82c-1.92.02-3.85-.01-5.77,0l-23.32-12.05,29.09,12.05Z"/><path class="ah" d="M194.25,124.29c-.68-.04-1.42.09-2.1,0-8.46-1.14-19.91-8.57-28.56-11.01l.52-1.05,30.14,12.05Z"/><path class="k" d="M326.32,100.18c-.24.27,1.67,1.03-1.57,1.31.77,2.01,9.88.51,9.96,0-.95-.9-7.15-.96-4.98-2.88l8.12,2.62c-2.7.82-8.47,3.15-11.01,3.14-.62,0-3.49-.88-4.45-1.05l1.83-1.31c-1.64-.32-2.88-1.9-4.19-2.36-1.75-.61-7.77-.05-7.86-2.62,4.71.9,9.54,1.82,14.15,3.14Z"/><path class="ah" d="M204.73,123.77c-2.51.07-4.67.59-7.34.52l-21.23-10.48,28.56,9.96Z"/><path class="ah" d="M146.56,123.77c-1.79-.13-3.49-.36-5.24-.52l.79-1.57-19.92-15.2,24.37,17.3Z"/><path class="ah" d="M140.27,123.24c-1.21-.12-3.19.12-4.19,0l-19.65-17.3,23.85,17.3Z"/><path class="j" d="M378.73,80.79c-.75,1.46,8.06,3.63,8.91,3.67-1.69,1.17-3.88,1.43-5.77,2.1-2.65-.91-5.18-2.34-7.86-3.14l3.67-1.31-6.03-1.31c-1.22-1.83,5.48-.29,7.08,0Z"/><path class="ah" d="M160.18,124.29c-1.39-.05-2.81.07-4.19,0l-20.18-13.63,24.37,13.63Z"/><path class="ah" d="M135.03,122.72c-1.29-.16-2.39-.3-3.67-.52-4.63-5.16-10.1-9.48-15.2-14.15,6.83,2.87,13.38,9.81,18.87,14.67Z"/><path class="ah" d="M167.52,124.82c-1.61-.04-3.01-.49-4.19-.52l-15.99-11.01,20.18,11.53Z"/><path class="ae" d="M357.25,90.22c1.68.95,3.09,2.76,5.24,3.14-2.31.76-4.5,1.39-6.81,2.1l-8.39-4.98c2.3-2.14,8.1,4.33,9.7,3.93,3.59-3.23-3.62-3.31-4.45-6.29,1.51.71,3.25,1.26,4.72,2.1Z"/><path class="ae" d="M389.74,83.94c-.61.09-.81.58-2.1.52-.85-.03-9.66-2.21-8.91-3.67,3.67.68,7.45,2,11.01,3.14Z"/><path class="ae" d="M374.02,83.41c2.68.81,5.21,2.23,7.86,3.14-.52.18-1.07.35-1.57.52-2.11-.71-4.33-1.57-6.29-2.62-1.14-.61-1.55-1.23-3.14-1.31,1.04-1.58,1.91-.11,3.14.26Z"/><path class="ae" d="M353.05,96.51c-.72.21-1.41.34-2.1.52l-6.55-5.24,8.65,4.72Z"/><path class="ae" d="M343.09,99.66c-.17,0-.35,0-.52,0-3.44-.11-5.02-1.2-8.12-2.1,1.13-2.32,6.54,1.66,8.65,2.1Z"/><path class="ae" d="M349.91,97.56c-.71.18-1.36.36-2.1.52l-5.5-4.19,7.6,3.67Z"/><path class="ae" d="M346.24,98.61s.19.41-.52.52c-2.3-1.06-4.26-2.12-6.29-3.67,2.48.84,4.7,1.52,6.81,3.14Z"/><path class="g" d="M191.11,143.68c-4.3.46-6.79,1.4-11.01-.79,1.68-.69,3.49-.88,5.24-1.31l42.19-10.48c.7.51,1.2,1.33.52,2.1-1.89,2.14-32.48,10.01-36.95,10.48Z"/><path class="w" d="M301.69,119.05c-10.26,9.79-24.36,16.7-37.74,21.49l-.52-2.1c.08-.04.9-1.27,1.05-1.57l34.59-17.3c.83-.25,1.94-.33,2.62-.52Z"/><path class="y" d="M294.35,120.62c-8.31,3.27-19.27,10.94-28.83,15.2-.41-.62-.41-.9-.52-1.57-.03-.17.02-.35,0-.52l22.54-12.05c1.99-.51,4.73-.87,6.81-1.05Z"/><path class="k" d="M306.93,118c-12.49,10.95-27.65,17.49-42.98,23.06v-.52c13.37-4.79,27.48-11.7,37.74-21.49,1.81-.51,3.73-.65,5.24-1.05Z"/><path class="o" d="M299.07,119.57l-34.59,17.3v-.52c.37-.17.68-.36,1.05-.52,9.56-4.26,20.51-11.93,28.83-15.2,2.02-.8,3.3-.62,4.72-1.05Z"/><path class="y" d="M282.82,123.24c-3.97,1.67-9,6.26-13.36,7.86-.85.31-1.45.78-1.83-.52,1.18-1.35,2.47-3.91,2.62-5.77,3.5-.52,6.96-1.13,10.48-1.57.72-.09.86-1.04,2.1,0Z"/><path class="o" d="M287.54,121.67l-22.54,12.05v-.52c.83-.49,1.93-1.83,2.62-2.62.39,1.3.98.84,1.83.52,4.36-1.61,9.39-6.19,13.36-7.86,1.65-.69,2.99-1.13,4.72-1.57Z"/><path class="h" d="M265,133.2v.52c.02.17-.03.36,0,.52l-15.2,3.93c3.91-2.06,11.75-2.94,15.2-4.98Z"/><path class="h" d="M264.48,136.35v.52c-.15.31-.97,1.53-1.05,1.57-.56.3-4.38,1.21-5.24.79,1.86-1.42,4.19-1.95,6.29-2.88Z"/><path class="j" d="M343.62,108.57c-2.13,3.9-5.61,9.14-8.91,12.05-1.57,1.39-8.14,6.74-9.43,4.19l16.77-16.25c.41-.14,1.16.14,1.57,0Z"/><path class="o" d="M310.6,116.95c1.92-.46,3.86-1.13,5.77-1.57-11.07,8.7-23.14,19.08-36.43,22.54,11.34-5.05,22.38-11.56,30.66-20.96Z"/><path class="j" d="M316.37,123.24l-2.1-2.1c2.44-2,4.86-4.33,6.81-6.81,1.57-.37,3.14-.66,4.72-1.05-.91,4.26-6.14,7.31-9.43,9.96Z"/><path class="o" d="M314.27,121.15c-5.61,4.6-12.85,9.57-19.39,12.32l22.01-18.08c1.41-.33,2.8-.72,4.19-1.05-1.96,2.48-4.38,4.82-6.81,6.81Z"/><path class="ae" d="M325.28,124.82c-.49-.97,12.21-10.44,11.01-14.15,1.94-.76,3.79-1.43,5.77-2.1l-16.77,16.25Z"/><path class="ae" d="M331.56,112.24c1.16-.97,1.88-1,3.14-1.57l-8.12,9.43-11.53,7.86,11.01-8.91c2.2-1.19,4.06-5.61,5.5-6.81Z"/><path class="ae" d="M330.52,112.24l-19.13,16.25,4.98-5.24c3.29-2.65,8.53-5.69,9.43-9.96,1.45-.35,3.33-.97,4.72-1.05Z"/><path class="ae" d="M379.78,97.04c1.24-.43,2.46-1.15,3.67-1.57.7,5.22-3.95,6.43-6.03,10.48l2.36-8.91Z"/><path class="ae" d="M356.72,104.38l-11.79,14.67,9.17-13.63c.86-.28,1.65-.73,2.62-1.05Z"/><path class="ae" d="M370.87,100.18c-2.61,5.5-6.51,10.3-10.74,14.67l8.65-14.15c.82-.28,1.59-.35,2.1-.52Z"/><path class="ae" d="M357.77,103.85c1.05-.34,2.1-.71,3.14-1.05l-10.22,13.1c.89-4.59,6.85-7.12,7.08-12.05Z"/><path class="ae" d="M345.19,108.04c-2.18,5-5.82,9.66-10.48,12.58,3.3-2.92,6.78-8.16,8.91-12.05.52-.17,1.04-.35,1.57-.52Z"/><path class="ae" d="M349.38,106.47l-7.34,11.53c.17.52-2.88,3.31-2.62,1.31,3.23-3.3,6.96-7.71,7.86-12.32.64-.21,1.46-.32,2.1-.52Z"/><path class="ae" d="M366.16,101.75c-1.86,4.9-5.39,9.01-9.17,12.58l7.6-12.05c.51-.17,1.05-.35,1.57-.52Z"/><path class="m" d="M256.09,94.94c.87.12,1.2-.17,1.05,1.05-13.21-2.35-26.74-2.96-40.09-4.19-.76-1.22.19-1.01,1.05-1.05,10.25-.47,27.29,2.75,38,4.19Z"/><path class="ai" d="M250.85,97.56v.52c-8.7-1.84-19.99-.51-28.83-3.41,9.68,0,19.31,1.92,28.83,2.88Z"/><path class="al" d="M293.31,88.13c.63.08,5.01.04,4.45,1.57-3.88-.84-7.87-.95-11.79-1.57-.73-.12-3.23.59-2.36-1.05,3.11.85,6.51.64,9.7,1.05Z"/><path class="al" d="M283.87,91.8c1.36,0,6.93.15,7.6,1.57l-12.84-1.05c.6-.94,4.14-.53,5.24-.52Z"/><path class="k" d="M323.7,93.89c-.72-.15-1.47-.39-2.1-.52,1.22-2.37,5.87,1.16,7.86,1.31-1.58,1.52-4.23-.48-5.77-.79Z"/><path class="w" d="M346.76,83.41c1.88.97,15,5.61,10.48,6.81-1.47-.83-3.2-1.38-4.72-2.1-3.01-1.42-4.09-1.98-7.34-3.14-1.29-.46-3.14-.44-4.19-1.83,1.83-.73,4.57,2.88,5.77.26Z"/><path class="ah" d="M116.16,108.04c-.06-.06-1.28.03-1.57-.79.9-.96,1.49.75,1.57.79Z"/><path class="ac" d="M255.05,100.18c1.76.9,3.34,1.69,4.72,3.14.25.27,2.02,2.47,2.1,2.62.19.35-.42,1.54.52,1.57-1.57-.17-7.86-.58-8.39.79l9.43,1.83c.29,1.54.36,2.67.52,4.19l-16.51-4.19c4.48,3.05,11.12,3.44,15.99,6.03-.62,1.29-22.61-6.99-25.42-7.08-1.17-.03-1.92.23-1.83,1.57-5.93-1.58-11.8-3.47-17.82-4.72l-26.73-5.24c1.77.4,3.35-.62,4.98-.52.41.02.12,1.01.52,1.05,8.22.76,14.43,1.46,23.32,2.36l-5.24-2.36c4.48.82,8.89,2.17,13.36,2.62-7.33-2.61-16.82-4.79-24.89-5.77l2.88-1.57c-2.86-2.56-12.14,1.06-10.22-3.67,18.63,3.25,38.08,5.69,55.82,8.39.25.04,4.21.59,2.88-1.05Z"/><path class="f" d="M213.9,97.04c11.17-1.43,32.86,7.49,45.07,7.34,2.51,1.48,1.47,2.51-1.05,2.62-7.57.33-33.11-6.37-41.4-8.39-.3-.07-5.54.25-4.98-.79.7.02,2.18-.76,2.36-.79Z"/><path class="ah" d="M262.38,107.52c.49.05.55.46,1.05.52.08.67-.12,1.45,0,2.1l-9.43-1.83c.52-1.37,6.81-.96,8.39-.79Z"/><polygon class="r" points="208.14 95.99 211.02 96.78 208.14 97.04 208.14 95.99"/><path class="j" d="M287.02,95.99c7.83,1.2,15.79,3.24,23.58,4.72,2.56.48,5.08.89,7.6,1.57l-2.36-1.31,4.19-1.31c1.31.46,2.55,2.04,4.19,2.36l-1.83,1.31c.97.17,3.83,1.05,4.45,1.05-20.6,5.1-41.39,9.74-62.37,13.1.5-1.06-.48-2.72-.52-3.14-.16-1.52-.24-2.65-.52-4.19-.12-.64.08-1.43,0-2.1,5.31.66,10.72,2.14,15.99,3.14,3.22-3.27-8.3-4.81-11.01-5.24-1.65-.26-4.92-.54-6.55,0-.08-.15-1.84-2.35-2.1-2.62l34.33,5.77-22.8-7.08c.97-.04,2-1.77,2.36-1.83,3.17-.59,17.16,4.68,21.49,4.72.64-.54-1.47-1.53-1.57-1.57-5.22-1.93-13.1-1.44-17.82-4.19,4.6-.78,27.5,6.56,29.87,5.77.4-.13,1.65-2,1.05-2.62l-35.64-6.29.26-1.83c5.1.41,10.55,1.04,15.72,1.83Z"/><path class="al" d="M263.43,108.04c-.5-.06-.55-.47-1.05-.52-.94-.03-.34-1.22-.52-1.57,1.63-.54,4.9-.26,6.55,0,2.71.43,14.23,1.97,11.01,5.24-5.27-1-10.68-2.49-15.99-3.14Z"/><path class="w" d="M296.19,104.38l6.55,1.83c-1.04,1.01-6.17-.29-6.55-1.83Z"/><path class="t" d="M267.36,110.14l5.5,2.36c-2.86.9-5.08.91-5.5-2.36Z"/><path class="t" d="M326.32,100.18c-4.61-1.32-9.44-2.24-14.15-3.14-3.21-.62-8.65-.24-10.74-2.62l26.21,4.72c.98,1.52-1.18.91-1.31,1.05Z"/><path class="ae" d="M339.43,95.47c-.19-.15-1.46.26-1.57-.26,1.79-1.96,1.45.22,1.57.26Z"/></g><path class="l" d="M26.67,40.8C32.86,14.64,66.01-2.34,92.88,4.02c11.55,2.73,21.92,11.34,20.08,26.87-.12.94-.38,2.07-.62,3.09-5.56,23.5-36.09,44.45-65.01,37.61-12.88-3.04-23.63-11.42-21.39-27.29.16-1.15.43-2.27.72-3.5ZM93.63,30.52c1.21-8.78-2.18-14.97-9.74-16.76-13.8-3.26-35.47,13.08-38.63,31-1.16,9.01,2.51,14.94,8.64,16.39,15.12,3.58,37.08-12.59,39.73-30.64Z"/><path class="l" d="M120.84,52.68l1.13-2.06c3.15-5.77-1.99-5.85-6.26-4.12l-1.06-2.67c6.85-3.53,12.43-6.48,18.2-6.27,4.3.16,7.92,1.76,8.52,5.36,3.78-2.8,8.47-4.73,13.72-4.54,5.56.2,9,3.9,8.85,7.99-.23,6.3-8.81,11.03-16.43,12.53l-1.05-2.77c2.35-1.07,3.9-3.22,3.96-4.9.04-1.15-.44-2.22-2.23-2.29-5.25-.19-9.92,4.05-12.52,9.1l-11.54,22.48c-.79,1.44-1.48,3.2-4.32,3.1-3.99-.15-7.64-3.64-7.47-8.47.23-6.3,5.23-16.52,8.49-22.49Z"/><path class="l" d="M174.77,51.75c2.73-5.98-2.41-5.69-6.54-3.65l-1.25-2.58c6.58-4.02,11.93-7.36,17.7-7.57,4.41-.16,8.24,1.28,8.9,4.94l.1-.11c3.88-3.29,8.53-5.45,14.19-5.65,9.65-.34,12.94,3.53,13.14,8.99.14,3.99-2.17,9.95-3.9,14.43-1.54,4.05-3.53,7.17-3.43,9.79.03.94.48,1.66,1.95,1.61,5.56-.2,13.94-6.91,17.58-10.92l2.17,1.92c-6.8,9.7-16.82,20.35-28.89,20.78-6.3.22-10.74-3.61-10.94-9.17-.06-1.57.39-3.69,1.46-6.25l3.77-9.07c.97-2.35,2.22-5.65,2.13-8.17-.06-1.57-.73-2.92-2.52-2.85-4.62.16-9.18,4.84-11.31,9.96l-9.79,23.15c-.68,1.6-2.08,3.44-4.18,3.51-3.99.14-7.88-3.08-8.06-7.91-.21-5.77,3.65-15.57,6.36-21.98l1.36-3.2Z"/><path class="l" d="M237.09,48.97c2.34-6.15-2.57-5.62-6.64-3.46l-1.32-2.55c6.46-4.2,11.71-7.7,17.47-8.07,4.82-.31,8.92,1.21,9.21,5.72.12,1.78-.34,4.44-1.62,7.57l-6.03,15.75c-.44,1.4-1.07,3.02-.98,4.38.06.94.53,1.65,1.89,1.56,5.76-.37,13.85-7.1,17.48-11.23l2.21,1.65c-6.62,9.9-16.33,20.83-28.49,21.62-6.18.4-10.74-3.31-11.09-8.86-.1-1.57.28-3.81,1.17-6.28l6.74-17.8ZM256.41,15.74c3.98-.26,6.3,1.49,6.49,4.32.34,5.34-6.25,10.71-11.49,11.05-3.88.25-6.2-1.49-6.37-4.22-.32-5.03,5.41-10.77,11.38-11.15Z"/><path class="l" d="M263.31,70.09c-.18-2.41.33-5.5,1.9-9.83l5.84-16.33c-3.78.18-5.06-.04-5.21-2.14-.12-1.67,3.75-7.65,5.74-7.8l3.35-.25,2.11-5.63,1.26-.09c9.95-.74,12.56-3.88,16.71-10.3l2.58.75-5.27,13.98,3.25-.24c3.46-.26,5.81.2,5.95,2.08s-3.75,7.65-5.95,7.81l-6.91.52-7.32,18.97c-.44,1.19-.84,2.8-.74,4.16.07.94.56,1.85,1.71,1.77,10.58-.79,23.4-12.38,26.88-16.54l2.13,1.74c-6.2,10.04-20.41,25.63-34.12,26.66-6.49.48-13.28-1.54-13.85-9.28Z"/><path class="l" d="M320.96,14.23c2.49-6.08-2.63-5.59-6.68-3.39l-1.35-2.53c6.42-4.27,11.63-7.82,17.38-8.26,4.82-.36,8.93,1.12,9.27,5.62.13,1.78-.3,4.45-1.54,7.59l-7.03,18.53c3.1-2.23,6.99-3.68,11.18-4,9.74-.73,12.98,3.13,13.38,8.47.36,4.82-1.88,11.41-3.85,16.08l-1.59,4.02c-.42,1.4-1.04,3.03-.93,4.39.07.94.54,1.64,1.91,1.54,5.65-.42,13.67-7.24,17.25-11.41l2.24,1.83c-6.52,9.97-16.02,20.79-28.17,21.7-6.18.46-10.77-3.19-11.19-8.74-.13-1.67.14-3.7,1.11-6.3l3.52-9.21c.98-2.39,2.1-5.63,1.91-8.25-.12-1.57-.85-2.88-2.73-2.74-4.71.35-8.88,5.2-10.8,10.39l-8.97,23.52c-.61,1.63-1.84,3.51-3.94,3.67-3.98.3-8.1-2.76-8.47-7.58-.47-6.28,4.11-18.1,6.48-24.39l11.6-30.57Z"/><path class="l" d="M372.47,39.15c2.34-6.15-2.57-5.62-6.64-3.47l-1.32-2.55c6.46-4.2,11.71-7.69,17.48-8.06,4.82-.31,8.92,1.22,9.2,5.72.11,1.78-.35,4.44-1.62,7.57l-6.04,15.75c-.44,1.4-1.07,3.01-.98,4.38.06.94.53,1.65,1.89,1.56,5.76-.37,13.85-7.09,17.48-11.22l2.21,1.65c-6.63,9.89-16.34,20.82-28.5,21.6-6.18.4-10.73-3.31-11.09-8.87-.1-1.57.28-3.81,1.18-6.28l6.75-17.79ZM391.81,5.93c3.98-.25,6.3,1.49,6.48,4.32.34,5.34-6.26,10.71-11.5,11.05-3.88.25-6.2-1.5-6.37-4.22-.32-5.03,5.41-10.76,11.39-11.14Z"/><path class="l" d="M452.53,46.61c-7.69,11.07-21.88,22.55-36.04,23.2-10.17.47-18.71-4.5-19.15-14.05-.68-14.89,15.01-32.43,34.42-33.33,6.92-.32,9.9,2.7,10.06,6.26.25,5.45-6.55,12.91-15.3,14.68l-1.37-2.46c4-2.08,5.98-7.11,2.83-6.96-7.13.33-12.77,10.36-12.47,16.76.18,3.88,2.47,8.08,7.51,7.85,7.76-.36,18.56-5.58,27.33-13.76l2.18,1.79Z"/><path class="l" d="M514.93,47.92c-7.06,9.51-17.25,19.79-29.43,19.9-5.04.04-8.74-2.55-10.14-6.42-4.38,3.92-9.39,6.49-16.01,6.55-9.76.09-12.74-3.98-12.79-9.34-.04-4.83,2.74-11.26,4.9-15.79l3.5-7.8c2.89-5.91-2.26-5.75-6.44-3.83l-1.18-2.61c6.69-3.84,12.12-7.04,17.89-7.09,4.83-.04,8.84,1.71,8.88,6.22.02,1.78-.59,4.42-2.03,7.47l-4.74,10.33c-1.24,2.43-2.68,5.9-2.65,8.63.01,1.57.66,2.93,2.55,2.92,4.3-.04,8.47-3.65,10.64-8.28l3.71-7.91c3.92-8.23,9.49-19.62,17.36-19.68,2.62-.02,6.63,1.31,6.65,3.72,0,.63-.4,1.89-.92,3.16l-11.13,24.14c-.72,2.11-1.01,4.1,1.4,4.08,5.57-.05,14.22-6.32,17.97-10.24l2.01,1.87Z"/><path class="l" d="M575.06,47.41c-11.34,12.91-25.34,22.23-43.7,21.35-15-.72-23.94-7.24-23.51-16.05.6-12.58,18.4-19.93,36.42-27.59,2.04-.85,3.99-2.12,6.51-2,1.05.05,1.98.41,1.92,1.56-.08,1.57-1.85,3.59-2.05,7.79-.48,9.96,5.3,12.34,4.92,20.31-.03.63-.08,1.68-.68,3.33,7.2-3.33,15.2-7.89,18.17-10.7l2.01,1.99ZM536.4,38.1c-5.18,2.8-10.08,6.46-10.38,12.75-.22,4.72,3.53,7.53,6.26,7.66,2.83.14,5.99-2.24,6.21-6.75.27-5.77-2.74-6.44-2.52-11.05.04-.84.19-1.67.44-2.61Z"/><g id="e"><path class="ao" d="M220.15,45.89c-1.98,1.23-2.12-1.01-2.24-1-.51.04-3.2,7.56-4.23,9.21-4.14,6.61-10.94,11.65-9.96,20.66-1.32-3.39.97-5.32-1.99-7.47l1.99.75c.32-3.58,7.49-9.69.5-8.96,2.73.98,3.17-3.52,2.49-4.48-.32-.45-3.92.15-4.48-2.24,1.06-8.33-5.52-1.33-9.95-2.49.68-2.34,1.31-4.46,1-6.97-.09-.73-1.06-2.08-.99-2.99.7.3,1.62,1.49,1.74,1.49.57,0,7.72-4.12,10.45-4.48,7.28-.96,15.29.49,15.68,8.96Z"/><path class="aq" d="M220.15,45.89c.55,11.85-20.86,38.91,8.96,19.41-.08.32-.51,4.95-.5,5.48-.56-.09-.47.47-.5.5-6.88,6.21-14.98,13.35-24.89,11.44,4.65-1.65,9.76-.91,13.94-3.73-4.89.21-11.21,1.48-13.44-4.23-.98-9,5.82-14.04,9.96-20.66,1.03-1.65,3.72-9.17,4.23-9.21.12,0,.26,2.23,2.24,1Z"/><path class="aq" d="M192.27,49.86c-2.97,10.19-12.22,21.31-14.94,32.1-1.96,1.98-4.62,1.48-6.97.25.65-1.53,1.28-3.35,1.49-4.98l.5,2.24c-.28-6.25,2.78-11.77,5.48-17.17,6.55-5.13,9.03-15.05,15.44-19.41.31,2.51-.32,4.63-1,6.97Z"/><path class="ao" d="M179.33,58.82c-2.15,1.53-4.04-1.82-6.97-2.49,1.3-3.47,3.93-6.13,2.99-9.95-.43-1.76-1.3-.39-1.49-1.74-.34-2.35,13.75-5.94,14.93-2.98,1.68,4.17-7.26,13.37-9.46,17.17Z"/><path class="aq" d="M201.72,67.29c2.96,2.14.67,4.08,1.99,7.47,2.23,5.72,8.55,4.44,13.44,4.23-4.18,2.82-9.28,2.08-13.94,3.73-9.87-1.9-7.91-9.94-5.97-17.42,1.99-.13,1.24,1.7,1.74,1.99.4.23,2.43-.23,2.74,0Z"/><path class="z" d="M192.27,39.91c-.07.91.91,2.26.99,2.99-6.4,4.36-8.88,14.28-15.44,19.41.55-1.11.68-2.09,1.49-3.48,2.21-3.8,11.14-13,9.46-17.17-1.19-2.96-15.27.64-14.93,2.98.19,1.35,1.06-.02,1.49,1.74-3.56-.14-14.25,3.64-5.23-3.49,6.41-5.06,15.11-5.97,22.15-2.98Z"/><path class="ap" d="M201.72,67.29c-.31-.23-2.34.23-2.74,0-.5-.29.25-2.13-1.74-1.99,1.08-4.16,4.5-9.13,4.98-12.94.56,2.4,4.16,1.79,4.48,2.24.68.96.24,5.46-2.49,4.48,6.99-.73-.18,5.38-.5,8.96l-1.99-.75Z"/><path class="i" d="M179.33,58.82c-.81,1.4-.94,2.38-1.49,3.48-2.7,5.4-5.75,10.92-5.48,17.17l-.5-2.24c.3-2.29-1.02-2.12-1-2.24.12-.71,1.74-1.65,1.99-2.49,1.04-3.48-.83-2.68-.99-3.48-.19-.91,2.7-3.03-2.99-3.24.94-3.43,2.27-6.19,3.49-9.46,2.93.67,4.81,4.02,6.97,2.49Z"/><path class="ag" d="M171.86,77.24c-.21,1.63-.84,3.44-1.49,4.98-6.14-3.23-2.79-11.69-1.49-16.43,5.68.2,2.79,2.32,2.99,3.24.17.8,2.04,0,.99,3.48-.25.84-1.87,1.78-1.99,2.49-.02.12,1.29-.05,1,2.24Z"/><path class="an" d="M254.99,44.9c-1.15,4.35-9.77,21.23-8.47,24.14l5.72.25,11.2-7.46c-.45,1.7-.94,3.71-1,5.48-.61.04-.63,1.07-1,1.49-4.88,5.66-16.25,13.11-23.9,12.44-.3-2.13,4.97-.68,4.98-1.74-5.7-2.09-5.42-4.98-7.46-9.96,2.65-1.98.42-3.76.5-3.98.08-.24,3.37-3.5,3.49-3.73,2.58-3.82,5.95-7.35,8.46-11.2.9-1.37,5.36-11.47,6.47-10.45l.99,4.73Z"/><path class="af" d="M254.99,44.9l-.99-4.73c-1.12-1.02-5.58,9.08-6.47,10.45-2.51,3.84-5.88,7.38-8.46,11.2,3.47-6.94,6.98-9.84-2.49-13.44.3-1.08,2.26-4.54.25-5.48-2.34-1.09-8.21,4.12-7.72.25,6.31-7.7,30.7-16.44,25.88,1.75Z"/><path class="v" d="M239.06,61.82c-.11.23-3.4,3.49-3.49,3.73-.08.23,2.15,2-.5,3.98,2.05,4.97,1.76,7.87,7.46,9.96,0,1.06-5.28-.39-4.98,1.74-5.69-.5-8.68-4.56-8.96-9.96,0-.17,0-.33,0-.5-.02-.53.42-5.15.5-5.48,1.21-4.77,5.98-11.57,7.47-16.92,9.47,3.6,5.96,6.5,2.49,13.44Z"/><path class="aq" d="M261.96,21.51c-1.85,12.66-27.97,11.91-13.44-2.49,3.19,5.44,8.39,3.27,13.44,2.49Z"/><path class="ao" d="M261.96,21.51c-5.05.78-10.25,2.94-13.44-2.49,5.16-5.11,14.81-6.9,13.44,2.49Z"/><path class="aa" d="M262.45,68.8h-1c.37-.43.38-1.46,1-1.49-.02.49-.02,1,0,1.49Z"/><path class="aq" d="M138.51,48.36c-.51,1.77-2.59,5.91-3.49,7.96-1.39,3.18-11.83,25.38-13.2,25.88-.33.12-3.2.09-3.73,0-.19-9.86,2.85-15.55,7.97-23.39,3.32-5.09,8.71-9.9,11.2-15.93l2.24.25c-.48,1.68-.52,3.58-1,5.23Z"/><path class="ag" d="M160.41,50.36c-1.17,3.2-8.86,7.51-12.2,8.46,7.52-17.54-6.74-10.84-13.19-2.49.89-2.06,2.97-6.19,3.49-7.96,1.36-10.35,26.78-11.36,21.9,2Z"/><path class="ai" d="M160.41,50.36c4.88-13.36-20.54-12.35-21.9-2,.48-1.65.52-3.55,1-5.23l-2.24-.25c-2.5,6.03-7.88,10.83-11.2,15.93l-.5-1c1.65-1.57,3.63-5.92,5.48-7.71l-1-.5c2.93-2.36,7.08-6.09,3.74-9.71l-13.69,2.73c-.93,1.3.94,2.3.99,2.74-2.03-.95-9.44,4.53-7.47-.25s16.98-8.73,21.65-7.71c2,.44,4.09,3.43,4.48,3.49.44.07,6.59-2.75,8.46-2.98,8.92-1.1,20.81,2.53,12.19,12.45Z"/><path class="ao" d="M125.57,57.81c-3.15,3-4.38.68-7.96-.5,1.8-4.99,4.21-6,3.49-11.95-.05-.44-1.92-1.43-.99-2.74l13.69-2.73c3.35,3.61-.81,7.35-3.74,9.71l1,.5c-1.85,1.79-3.83,6.14-5.48,7.71Z"/><path class="ag" d="M125.57,57.81l.5,1c-5.12,7.84-8.16,13.53-7.97,23.39-10.57-1.8-2.52-19.27-.49-24.89,3.58,1.18,4.81,3.5,7.96.5Z"/><path class="au" d="M112.77,28.07c-1.24-.87-1.03-.11-1.49.75-2.66,4.97-3.36,7.83-6.97,12.69l-1.49-.5C121.88,15.24,91.43.9,66.98,9.15c-18.95,6.39-42.24,30.64-20.42,47.78,1.71,1.34,3.45,2.63,5.47,3.49-8.11-1.39-18.92-5.84-22.4-14.69-1.33-3.38-.26-7.63-2.49-9.71C38.3,1.23,115.55-15.04,112.77,28.07Z"/><path class="q" d="M112.77,28.07c-2.84,44.08-82.94,61.55-87.11,21.88,2.38-3.08,4.99,3.53,7.22,5.48,20.56,18,56.46,6.24,71.43-13.92,3.61-4.86,4.31-7.72,6.97-12.69.46-.86.25-1.62,1.49-.75Z"/><path class="z" d="M52.03,60.41c4.23.72,6.53,1.08,10.95,1,14.51-.28,30.99-8.46,39.83-20.4l1.49.5c-14.97,20.17-50.87,31.92-71.43,13.92-2.23-1.95-4.84-8.56-7.22-5.48-.5-4.76.06-9.45,1.5-13.94,2.23,2.07,1.16,6.33,2.49,9.71,3.48,8.85,14.28,13.3,22.4,14.69Z"/><path class="v" d="M102.81,41.01c-8.83,11.94-25.32,20.12-39.83,20.4,9.99-1.58,20.79-9.62,25.89-18.16,11.17-18.71,3.54-37.06-19.9-27.63.87-2.33-.68-4.67-1.99-6.47,24.46-8.24,54.9,6.09,35.83,31.87Z"/><path class="an" d="M66.98,9.15c1.31,1.8,2.86,4.14,1.99,6.47-13.76,5.53-32.44,26.09-22.41,41.31-21.82-17.15,1.47-41.39,20.42-47.78Z"/><path class="u" d="M390.39,33.48c-.55-6.28-8.22,8.05-9.46,9.95-3.07,4.68-14.7,19.82-3.99,22.9-2.62,5.23-5.24-4.05-4.98-7.47.55-7.19,9.15-11.99-1.49-15.43.85-2.2,4.57-8.87,1.74-9.95-1.48-.57-12.67,4.87-5.97-1.99,3.08-3.16,15.6-7.44,19.91-6.47,1.17.26,5.09,4.17,5.23,4.73.09.36-.91,3.18-1,3.73Z"/><path class="x" d="M386.4,43.93c.29,2.86-6.86,14.1-3.24,15.93,2.28,1.15,12.59-4.21,14.19-6.47.76.39.64,2.88.5,3.48-.04.16.05.36,0,.5-1.09,3-11.73,10.77-14.94,11.94l3.24-2.99c-3.05.67-6.16.87-9.21,0-10.72-3.08.92-18.22,3.99-22.9,3.38,1.93,2.86,3.37,5.48.5Z"/><path class="ar" d="M397.36,11.58c-2.98,14.03-26.81,11.38-13.44-2.49,3.83,4.41,8.17,4.04,13.44,2.49Z"/><path class="x" d="M371.96,58.86c-.26,3.41,2.36,12.7,4.98,7.47,3.04.87,6.16.67,9.21,0l-3.24,2.99c-7.28,2.68-18.13,2.59-18.91-7.47,0-.08.44-.14.5-1.49l7.47-1.49Z"/><path class="ar" d="M371.96,58.86l-7.47,1.49c.06-1.51.13-3.54.5-4.98.82-3.2,4.16-8.55,5.48-11.95,10.64,3.44,2.04,8.25,1.49,15.43Z"/><path class="al" d="M397.36,11.58c-5.26,1.55-9.61,1.91-13.44-2.49,4.34-4.5,15.5-7.2,13.44,2.49Z"/><path class="ar" d="M390.39,33.48c-.57,3.54-1.56,7.79-3.98,10.45-2.62,2.87-2.09,1.43-5.48-.5,1.24-1.9,8.91-16.24,9.46-9.95Z"/><path class="aa" d="M228.6,71.28h-.5s-.07-.59.5-.5c0,.17,0,.33,0,.5Z"/><path class="aa" d="M398.34,57.38h-.5c.05-.14-.04-.33,0-.5.49-.06.41.19.5.5Z"/><path class="ar" d="M287.84,43.91c-5.03.15-11.97,3.87-16.92.99-.36-.21-1.43-2.8-1.49-2.99,1.2-.73,17.98-6.48,17.17-6.96l-4.23-.25c.02-.71,6.79-1.44,7.72-1.74.58-.19-.52-.92-.25-1,1.18-.31,1.41-.86,1.99-1,.06-.01.43,1.05.75,1,3.96-.64,10.08-3.02,8.71,4.23-1.02,5.42-10.05,4.34-13.44,7.71Z"/><path class="ad" d="M336.63,1.61c-2.02,13.2-11.01,23.9-18.43,34.59,2.49-.86,11.68-4.59,12.94-6.22,7.37.76,18.06-5.76,22.9,3.49-1.17,1.32-1.75,6.33-2.99,8.71-2.05,3.95-6.02,7.07-7.97,10.2,1.57-5.47,14.39-16.91,5.23-20.91s-22.46,6.68-29.37,12.44c-3.54,2.95-7.4,9.58-12.2,9.45,1.35-2.3,14.79-38.88,14.94-41.06.11-1.6.21-2.82-1.24-3.73-1.99-1.26-4.93.97-6.72.25,4.93-5.26,16.17-10.9,22.9-7.21Z"/><path class="ar" d="M343.09,52.39c-.2.33-.7,1.44-1,1.99l-6.47-2.99c.71-2.09,4.98-11.95,2.74-12.94s-11.21,2.87-12.69,4.97c-11.94,3.69-18.04,18.97-17.93,30.61,0,.17-2.2.55,1,1.74-6.97-.9-6.3-7.54-6.47-12.94.61-.93,2.32-5.62,1.49-6.47.57-.6,2.88-2.8,2.99-2.99,4.8.12,8.66-6.51,12.2-9.45,6.91-5.76,20.1-16.48,29.37-12.44s-3.66,15.43-5.23,20.91Z"/><path class="x" d="M364.99,55.38c-.37,1.44-.44,3.47-.5,4.98-.06,1.36-.5,1.41-.5,1.49-6.93,6.44-17.85,15.78-27.88,10.94,6.03,1.33,10.31-.77,15.93-2.73-13.02,2.26-15.52-5.32-9.95-15.68.3-.55.79-1.66,1-1.99,1.95-3.13,5.92-6.25,7.97-10.2,1.24-2.38,1.81-7.39,2.99-8.71.23-.26.58-.36.75-1,5.84,7.22-7.73,23.68-5.73,29.62,1.3,3.86,14.17-4.38,15.93-6.72Z"/><path class="x" d="M325.67,43.42c-4.04,5.75-7.22,25.64-11.46,30.61-1.51,1.77-3.35,2.53-5.48,1.74-3.2-1.19-.99-1.57-1-1.74-.12-11.64,5.99-26.92,17.93-30.61Z"/><path class="x" d="M342.1,54.38c-5.57,10.36-3.06,17.94,9.95,15.68-5.62,1.96-9.9,4.07-15.93,2.73-9.71-4.68-2.78-14.66-.49-21.4l6.47,2.99Z"/><path class="al" d="M331.15,29.98c-1.27,1.63-10.45,5.36-12.94,6.22,7.42-10.69,16.4-21.39,18.43-34.59,3.02,1.65,3.43,2.53,2.99,6.72-.12,1.16-7.75,20.73-8.47,21.65Z"/><path class="al" d="M289.84,31.97c-.28.07.83.81.25,1-.93.3-7.7,1.03-7.72,1.74l4.23.25c.81.48-15.98,6.24-17.17,6.96-2.2-6.42.33-7.16,5.97-7.96,1.75-.25,3.66-.29,5.48-.5,3.02-.35,6.02-.69,8.96-1.49Z"/><path class="x" d="M287.84,43.91c-2.56,2.55-8.32,18.5-7.47,21.65.04.15,2.08,2.22,2.24,2.24,1.14.14,11.73-4.49,13.44-5.47,2.28-1.3,5.91-4.05,7.72-5.97.82.85-.89,5.54-1.49,6.47-2.3,3.53-12.44,10.03-16.43,11.94l-10.2-.5c-2.97-.95-2.99-1.8-4.23-3.98-1.96-8.63,4.85-16.05,9.46-22.65-.7-1.09-3.1.69-3.48.75-2.98.43-4.71.83-7.47-1,.31-.72.4-1.75,1-2.49,4.95,2.87,11.9-.84,16.92-.99Z"/><path class="ar" d="M277.39,48.39c-2.18,6.3-6.69,11.47-6.97,18.42-5.8.16-6.54-1.68-7.97,4.48-.15-.66.04-1.71,0-2.49-.02-.49-.02-1,0-1.49.06-1.76.54-3.77,1-5.48,1.22-4.59,4.56-10.01,6.47-14.43,2.75,1.83,4.49,1.43,7.47,1Z"/><path class="x" d="M270.42,66.81c-.02.46-.66.65-.5,1.74.24,1.59,1.44,1.64,1.49,1.74,1.24,2.18,1.26,3.03,4.23,3.98l10.2.5c-6.85,3.28-20.87,7.82-23.39-3.49,1.43-6.16,2.16-4.32,7.97-4.48Z"/><path class="al" d="M291.83,30.97c-.58.14-.81.68-1.99,1-2.94.8-5.94,1.14-8.96,1.49l14.44-14.93c.51-.07.91-.79,1.74-.5,1.65,1.47-4.28,10.96-5.23,12.94Z"/><path class="ad" d="M295.31,18.53l-14.44,14.93c-1.81.21-3.73.25-5.48.5,3.35-4.83,14.4-14.67,19.91-15.43Z"/><path class="al" d="M271.41,70.29c-.06-.1-1.25-.15-1.49-1.74-.17-1.09.48-1.28.5-1.74.29-6.94,4.8-12.12,6.97-18.42.39-.06,2.78-1.84,3.48-.75-4.62,6.59-11.42,14.01-9.46,22.65Z"/><path class="ak" d="M472.52,30.51c-1.29,8.35-19.53,34.87,2.48,22.4l1,.25c-1.32,1.39-.43,5.11-1.49,6.72-.34.52-9.72,6.16-10.7,6.47-6.54,2.02-16.27,1.88-17.67-6.47l.75-3.48,7.22-1.49c-.27,1.88-1.24,4.88.99,6.22-2.64-10.68,6.07-18.31,11.45-26.38.72-1.07,4.23-9.1,5.48-8.46l.5,4.23Z"/><path class="n" d="M472.52,30.51l-.5-4.23c-1.24-.64-4.76,7.39-5.48,8.46-5.38,8.06-14.1,15.7-11.45,26.38-2.24-1.35-1.26-4.34-.99-6.22,1.18-8.18,8.74-11.62-.99-15.93.63-1.35,3.02-7.58,2.49-8.71-1.34-2.88-7.69,2.35-8.46,0-1.15-3.5,28.33-18.78,25.39.25Z"/><path class="at" d="M498.9,37.99c-.81,4.12-9.42,16.31-3.99,18.91,3.81,1.83,9.02-2.77,12.2-4.48,1.42.63.68,2.85.75,2.99-6.03,6.28-15.76,13.27-24.89,11.94-.28-1.75,1.79-.68,2.24-1,.4-.28.1-1.74,1-1.99.5-.14,7.05,2.81,9.71-.74-4.53-.69-8.88.82-11.95-3.24-2.32-9.12,4.57-15.18,8.96-21.9,6.14,2.2,3.31.75,5.23-.99.54-.49.72.53.75.5Z"/><path class="n" d="M502.38,29.52c.03-.33-.46-4.21-.75-4.98-2.47,4.94-5.71,9.35-8.71,13.94-4.39,6.72-11.29,12.78-8.96,21.9-1.18-1.57-1.45-4.29-.99-6.97.44-2.57,4.76-7.33,1-8.21l1.99-1.49c-6.73-3.78-4.35-2.4-7.47,3.23,1.31-7.35,13.08-30.88,22.65-24.88,2.26,1.41,3.31,5.3,1.24,7.47Z"/><path class="ak" d="M482.97,53.41c-.46,2.68-.19,5.4.99,6.97,3.06,4.06,7.41,2.55,11.95,3.24-2.66,3.55-9.21.61-9.71.74-.9.25-.6,1.71-1,1.99-.45.32-2.52-.75-2.24,1-3.45-.5-7.17-3.17-7.46-6.97-.08-1.07.9-7.18,1.74-7.47.29-.1,3.98,1.72,5.72.5Z"/><path class="ar" d="M439.66,31.5c.46,6-8.06,9.91-12.7,11.94-3.58-.2,4.79-9.1.5-10.95-8.68,1.11-16.03,15.05-11.2,22.65,4.09,6.43,15.76,1.53,20.91-1.24.92,4.49-10.23,7.52-13.94,8.46-9.54-.24-15.02-2.87-17.42-12.45-2.29-14.21,15.1-26.9,28.13-24.38,2.51.48,5.53,3.46,5.72,5.97Z"/><path class="x" d="M446.13,54.4c-9.43,11.21-42.21,24.95-47.79,3.47.83-2.93,2.66,2.02,4.23,2.99,7.29,4.47,12.81,3.47,20.66,1.5,3.71-.94,14.86-3.97,13.94-8.46,2.51-1.35,11.25-7.87,12.94-9.95.31,2.79-2.31,8.46-3.98,10.45Z"/><path class="u" d="M412.29,29.5l-7.47,14.68c-.9,2.45.86,5.19.99,5.72,2.4,9.58,7.87,12.21,17.42,12.45-7.85,1.98-13.36,2.97-20.66-1.5-1.57-.96-3.41-5.92-4.23-2.99-.04-.16.04-.34,0-.5-.08-.31,0-.56-.5-.5.14-.6.27-3.09-.5-3.48,2.23-3.15,3.2-10.64,5.98-15.18,2.55-4.17,5.28-6.17,8.96-8.71Z"/><path class="al" d="M439.66,31.5c-.19-2.51-3.22-5.49-5.72-5.97-13.02-2.51-30.42,10.17-28.13,24.38-.13-.54-1.9-3.27-.99-5.72l7.47-14.68c5.96-4.1,20.71-11.76,26.88-5.22,1.15,1.22,3.48,6.25.5,7.22Z"/><path class="s" d="M454.09,54.9l-7.22,1.49-.75,3.48c-.27-1.61.19-3.78,0-5.48,1.68-1.99,4.29-7.66,3.98-10.45,1.04-1.28,2.28-3.48,2.99-4.98,9.73,4.31,2.17,7.75.99,15.93Z"/><path class="s" d="M482.97,53.41c-1.74,1.22-5.44-.6-5.72-.5-.85.29-1.83,6.4-1.74,7.47l-1-.5c1.06-1.61.18-5.33,1.49-6.72l-1-.25c1.08-1.99,2.4-4.01,3.49-5.97,3.11-5.64.73-7.01,7.47-3.23l-1.99,1.49c3.76.88-.56,5.64-1,8.21Z"/><path class="at" d="M502.38,29.52c-.19,2.08-2.17,6.86-3.49,8.46-.03.03-.21-.98-.75-.5-1.92,1.74.91,3.19-5.23.99,3-4.59,6.25-9,8.71-13.94.29.77.78,4.65.75,4.98Z"/><path class="ak" d="M569.58,52.44c-.42-1.61-2.32-.36-3.24,0-8.95,3.52-20.55,8.95-30.12,9.95l-9.21-1.5,1.74-3.48c.43.14,1.38-.04,1.99,0,3.54,2.5,13.16.5,15.43-2.73,5.19-7.4-3.72-14.91-2.48-21.9.63-3.59,5.13-6.4,7.97-8.21-.22,4.46-2.15,8.43-1.5,13.19s6.05,10.85,4.97,16.43l18.17-7.71c2.55.33-3.38,5.61-3.73,5.97Z"/><path class="at" d="M569.58,52.44c-12.45,12.63-48.47,25.57-59.73,6.46,4.5-.25,8.72,2.86,13.69,3.49,3.45.43,9.23.37,12.69,0,9.56-1,21.17-6.43,30.12-9.95.92-.36,2.82-1.61,3.24,0Z"/><path class="s" d="M516.32,38.98c1.92.02.78.93.5,1.74-2.74,7.88-2.1,13.46,5.97,15.68,1.58.44,3.97,1.74,5.48.5.59.35.46.49.5.5l-1.74,3.48,9.21,1.5c-3.46.36-9.24.43-12.69,0-4.96-.62-9.19-3.74-13.69-3.49-.64-1.08-1.47-2.36-1.99-3.48-.06-.14.68-2.36-.75-2.99-3.18,1.71-8.39,6.3-12.2,4.48,3.71-1.71,9.25-2.85,12.2-5.97,3.59-3.81,3.64-7.19,9.21-11.94Z"/><path class="n" d="M545.69,24.56c-7.06,3.54-5.78,6.13-9.46,10.45l1-3.73c-.42-.92-7.96,4.54-8.71,5.22-4.4,3.99-12.95,15.78-5.73,19.91-8.07-2.23-8.71-7.8-5.97-15.68.28-.81,1.42-1.72-.5-1.74,8.92-7.61,12.72-6.03,21.66-9.95,1.66-.73,5.04-5.45,7.72-4.48Z"/><path class="s" d="M551.66,24.56c-2.83,1.81-7.33,4.62-7.97,8.21-1.23,6.99,7.67,14.5,2.48,21.9-2.27,3.23-11.89,5.23-15.43,2.73,1.3.09,3.38-.4,4.98-.5,2.24-.13,3.16.76,5.72,0,6.14-1.82,5.46-10.9,2.99-15.43-2.89.06-4.95-.94-7.22,1.99-.71-1.95-1.22-4.33-2.49-5.97.55-.69.72-1.58,1.49-2.49,3.68-4.32,2.4-6.91,9.46-10.45,2.01-1.01,3.89-2.37,6.22-1.99.92.91-.24,1.89-.25,1.99Z"/><path class="at" d="M536.23,35.01c-.77.91-.94,1.8-1.49,2.49-2.05,2.57-7.73,5.32-8.96,9.21-.96,3.03-.51,8.43,2.49,10.2-1.5,1.24-3.9-.06-5.48-.5-7.22-4.13,1.33-15.92,5.73-19.91.75-.68,8.29-6.15,8.71-5.22l-1,3.73Z"/><path class="n" d="M535.73,56.91c5.06-5.79,3.82-7.1,1.5-13.44,2.27-2.93,4.33-1.93,7.22-1.99,2.47,4.53,3.15,13.61-2.99,15.43-2.56.76-3.48-.13-5.72,0Z"/></g></g></svg>