<svg xmlns="http://www.w3.org/2000/svg" viewBox="0 0 200 200" width="200" height="200">
  <defs>
    <filter id="organic" x="-5%" y="-5%" width="110%" height="110%">
    <feTurbulence type="fractalNoise" baseFrequency="0.04" numOctaves="3" seed="1" result="noise"/>
    <feDisplacementMap in="SourceGraphic" in2="noise" scale="2" xChannelSelector="R" yChannelSelector="G"/>
  </filter>
  </defs>
  <g>
    <path d="M 97.4,91.47327024020731 Q 96.4,130.73663512010364 96.88,170 L 103.12,170 Q 103.6,130.73663512010364 102.6,91.47327024020731 Z" fill="#979bc4" filter="url(#organic)"/>
    <path d="M 79.6,91.47327024020731 L 78.079,101.61327024020731 M 93.19999999999999,91.47327024020731 L 92.69299999999998,101.61327024020731 M 106.8,91.47327024020731 L 107.307,101.61327024020731 M 120.4,91.47327024020731 L 121.921,101.61327024020731" stroke="#979bc4" stroke-width="0.8" fill="none" opacity="0.7"/>
    <path d="M 74.5,91.47327024020731 Q 74.5,66.12327024020732 100,66.12327024020732 Q 125.5,66.12327024020732 125.5,91.47327024020731" fill="#3275b4" filter="url(#organic)"/>
    <circle cx="87.3" cy="73.7" r="3" fill="white" opacity="0.85"/>
    <circle cx="107.7" cy="71.2" r="2.5" fill="white" opacity="0.85"/>
    <circle cx="97.5" cy="69.9" r="2" fill="white" opacity="0.85"/>
    <circle cx="115.3" cy="76.3" r="2" fill="white" opacity="0.85"/>
    <circle cx="84.7" cy="78.8" r="1.5" fill="white" opacity="0.85"/>
    <circle cx="102.5" cy="78.8" r="2.5" fill="white" opacity="0.85"/>
  </g>
</svg>