<?xml version="1.0" encoding="UTF-8"?>
<svg viewBox="0 0 100 100" xmlns="http://www.w3.org/2000/svg">
  <!-- IMAGINARIUM MEDIUM - The Alchemist with prismatic transformation -->

  <!-- Background glow (subtle atmosphere) -->
  <ellipse cx="50" cy="50" rx="40" ry="40" fill="#c6a0f6" opacity="0.1"/>

  <!-- Artist Palette (bottom layer) -->
  <g transform="translate(50, 68)">
    <!-- Palette shadow (depth) -->
    <ellipse cx="1" cy="1" rx="20" ry="14" fill="#4a2d5f" opacity="0.3"/>

    <!-- Palette body -->
    <ellipse cx="0" cy="0" rx="20" ry="14" fill="#b088e0" opacity="0.9"/>

    <!-- Thumb hole -->
    <circle cx="-14" cy="0" r="3" fill="#4a2d5f" opacity="0.6"/>

    <!-- Color Wells (5 wells with glow) -->
    <circle cx="-8" cy="-5" r="3" fill="#da9ef7"/>
    <circle cx="-8" cy="-5" r="4" fill="#da9ef7" opacity="0.3"/>
    <circle cx="0" cy="-7" r="3" fill="#c6a0f6"/>
    <circle cx="0" cy="-7" r="4" fill="#c6a0f6" opacity="0.3"/>
    <circle cx="8" cy="-5" r="3" fill="#a0c6f6"/>
    <circle cx="8" cy="-5" r="4" fill="#a0c6f6" opacity="0.3"/>
    <circle cx="-5" cy="3" r="3" fill="#d0a0f6"/>
    <circle cx="-5" cy="3" r="4" fill="#d0a0f6" opacity="0.3"/>
    <circle cx="5" cy="3" r="3" fill="#e5d4ff"/>
    <circle cx="5" cy="3" r="4" fill="#e5d4ff" opacity="0.3"/>

    <!-- Shimmer highlights on wells -->
    <circle cx="-8" cy="-5" r="1" fill="white" opacity="0.6"/>
    <circle cx="0" cy="-7" r="1" fill="white" opacity="0.6"/>
    <circle cx="8" cy="-5" r="1" fill="white" opacity="0.6"/>
  </g>

  <!-- Flowing connections (wells to prism) -->
  <path d="M 50,61 Q 50,55 50,48" stroke="#c6a0f6" stroke-width="1.5" fill="none" opacity="0.5"/>
  <path d="M 42,63 Q 45,55 48,48" stroke="#da9ef7" stroke-width="1" fill="none" opacity="0.4"/>
  <path d="M 58,63 Q 55,55 52,48" stroke="#a0c6f6" stroke-width="1" fill="none" opacity="0.4"/>

  <!-- Hexagonal Prism (center) -->
  <g transform="translate(50, 42)">
    <!-- Prism shadow -->
    <polygon points="0,-10 -8,-5 -8,5 0,10 8,5 8,-5" fill="#9b6dd8" opacity="0.3"/>

    <!-- Prism body -->
    <polygon points="0,-10 -8,-5 -8,5 0,10 8,5 8,-5" fill="#e5d4ff" opacity="0.8" stroke="#c6a0f6" stroke-width="1.5"/>

    <!-- Inner crystal structure -->
    <polygon points="0,-6 -4,-3 -4,3 0,6 4,3 4,-3" fill="white" opacity="0.5"/>
    <line x1="0" y1="-6" x2="0" y2="6" stroke="#c6a0f6" stroke-width="0.5" opacity="0.6"/>
    <line x1="-4" y1="-3" x2="4" y2="3" stroke="#c6a0f6" stroke-width="0.5" opacity="0.6"/>
    <line x1="-4" y1="3" x2="4" y2="-3" stroke="#c6a0f6" stroke-width="0.5" opacity="0.6"/>

    <!-- Crystal glow -->
    <polygon points="0,-10 -8,-5 -8,5 0,10 8,5 8,-5" fill="none" stroke="#da9ef7" stroke-width="2" opacity="0.3"/>
  </g>

  <!-- Refraction Rays (5 rays with varying opacity) -->
  <line x1="50" y1="32" x2="35" y2="15" stroke="#da9ef7" stroke-width="2" opacity="0.7" stroke-linecap="round"/>
  <line x1="50" y1="32" x2="43" y2="12" stroke="#c6a0f6" stroke-width="2" opacity="0.8" stroke-linecap="round"/>
  <line x1="50" y1="32" x2="50" y2="8" stroke="#e5d4ff" stroke-width="2.5" opacity="1.0" stroke-linecap="round"/>
  <line x1="50" y1="32" x2="57" y2="12" stroke="#a0c6f6" stroke-width="2" opacity="0.8" stroke-linecap="round"/>
  <line x1="50" y1="32" x2="65" y2="15" stroke="#d0a0f6" stroke-width="2" opacity="0.7" stroke-linecap="round"/>

  <!-- Ray endpoint glows -->
  <circle cx="35" cy="15" r="2" fill="#da9ef7" opacity="0.6"/>
  <circle cx="50" cy="8" r="2.5" fill="#e5d4ff" opacity="0.8"/>
  <circle cx="65" cy="15" r="2" fill="#d0a0f6" opacity="0.6"/>

  <!-- Alchemical Flask (top, simplified) -->
  <g transform="translate(50, 18)">
    <!-- Flask body -->
    <ellipse cx="0" cy="2" rx="5" ry="4" fill="#9b6dd8" opacity="0.7"/>

    <!-- Flask neck -->
    <rect x="-1.5" y="-6" width="3" height="8" rx="1.5" fill="#b088e0" opacity="0.7"/>

    <!-- Flask highlight -->
    <ellipse cx="-1" cy="1" rx="2" ry="2" fill="white" opacity="0.4"/>

    <!-- Vapor wisp -->
    <path d="M 0,-6 Q -2,-9 -1,-11" stroke="#e5d4ff" stroke-width="1.5" fill="none" opacity="0.5" stroke-linecap="round"/>
  </g>

  <!-- Nested transformation circles (compilation stages) -->
  <circle cx="50" cy="42" r="18" fill="none" stroke="#c6a0f6" stroke-width="0.5" opacity="0.3"/>
  <circle cx="50" cy="42" r="22" fill="none" stroke="#9b6dd8" stroke-width="0.5" opacity="0.2"/>
</svg>
